<?xml version="1.0" encoding="utf-8"?>
<!-- Generator: Adobe Illustrator 27.1.0, SVG Export Plug-In . SVG Version: 6.00 Build 0)  -->
<svg version="1.1" xmlns="http://www.w3.org/2000/svg" xmlns:xlink="http://www.w3.org/1999/xlink" x="0px" y="0px" width="1366px"
	 height="649px" viewBox="0 0 1366 649" style="enable-background:new 0 0 1366 649;" xml:space="preserve">
<style type="text/css">
	.st0{display:none;}
	.st1{display:inline;fill:#F78181;}
	.st2{display:inline;fill:#D1D8E0;}
	.st3{display:inline;fill:#49E250;}
	.st4{fill:#F2EBDF;}
	.st5{fill:none;}
	.st6{fill:#FFFFFF;}
	.st7{fill:#F2B705;}
	.st8{fill:#040423;}
	.st9{fill:#8C1F33;}
	.st10{fill:#5BA566;}
	.st11{fill:#F2E3CC;}
	.st12{fill:#F15A24;}
	.st13{fill:#400101;}
	.st14{fill:#FCFCFC;}
	.st15{fill:#122B05;}
	.st16{fill:#472FAD;}
	.st17{fill:#E5AE85;}
	.st18{fill:#A64F03;}
	.st19{fill:#050535;}
	.st20{fill:#D98E04;}
	.st21{fill:none;stroke:#FFFFFF;stroke-miterlimit:10;}
	.st22{fill:#F2F2F2;}
	.st23{fill:#2FD812;}
	.st24{fill:#AA8D30;}
	.st25{fill:#B0EAB7;}
	.st26{fill:#111147;}
	.st27{fill:none;stroke:#040423;stroke-width:2;stroke-miterlimit:10;}
	.st28{fill:none;stroke:#472FAD;stroke-width:0;stroke-linecap:round;stroke-linejoin:round;}
	.st29{fill:#F2B705;stroke:#472FAD;stroke-miterlimit:10;}
	.st30{fill:#231A56;}
	.st31{fill:#EA0070;}
	.st32{fill:#158035;}
	.st33{fill:#F9B331;}
	.st34{opacity:0.4;}
	.st35{fill:#0F0E0D;}
	.st36{fill:#E0245E;}
	.st37{display:inline;fill:#FCFCFC;}
	.st38{display:inline;}
	.st39{display:inline;fill:none;stroke:#FF0025;stroke-miterlimit:10;}
	.st40{opacity:0.5;}
</style>
<g id="Guias">
</g>
<g id="Layer_2">
	<rect class="st4" width="1366" height="649"/>
	<g class="st40">
		<path class="st5" d="M444.01,269.68c0.27,0.1,0.6,0.2,0.91,0.31c0.27-0.15,0.56-0.29,0.83-0.43
			C445.18,269.61,444.61,269.66,444.01,269.68z"/>
		<path class="st5" d="M200.24,222.05c6.82-14.05,21.22-22.54,33.38-27.44c-18.1-2.55-29.96-7.64-33.16-14.46
			c-1.02-2.17-1.12-4.46-0.34-6.74c-31.2,18.62-42.9,40.51-49.39,68.17c-1.57,6.68-0.16,11.84,4.3,15.76
			c8.44,7.42,26.56,8.91,43.68,8.14C194.53,254.22,192.2,238.62,200.24,222.05z"/>
		<path class="st5" d="M161.37,368.26c3.36-26.76,21.11-30.65,28.43-31.1c-5.2-4.72-17.05-17.63-13.99-34.76
			c-8.38,2.79-44.93,16.58-56.37,47.82c-2.97,8.12-1.17,15.85,5.36,22.96c8.66,9.43,25.23,16.81,43.82,20.96
			C161.41,383.99,161.37,369.14,161.37,368.26z"/>
		<path class="st5" d="M352.69,321.1l5.51-0.07C356.47,320.53,354.62,320.56,352.69,321.1z"/>
		<g>
			<path class="st18" d="M466,373.89c0.2,1.53,0.57,4.25,1.05,7.65c4.3-2.32,8.42-4.62,12.34-6.91c-0.16-0.95-0.28-1.73-0.36-2.31
				C471.3,373.21,466.29,373.86,466,373.89z"/>
		</g>
		<g>
			<g>
				<path class="st20" d="M580.46,508.02c-5.72-11.24-43.48-60.67-43.86-61.17c-20.04-25.05-40.83-30.22-41.04-30.27
					c-0.23-0.05-0.44-0.19-0.59-0.37c-9.03-11.08-13.44-29.9-15.17-39.29c-3.95,2.29-8.09,4.6-12.42,6.92
					c1.74,12.01,4.6,29.93,6.92,34.91c0.15,0.33,0.13,0.72-0.06,1.03c-0.46,0.74-11.7,18.34-46.32,28.89
					c-0.37,0.05-2.98,0.37-6.71,0.67c-7.1,0.57-18.25,1.09-25.87-0.36c1.66,2.77,2.25,5.31,2.29,5.53c0.75,2.66,1.33,5.23,1.76,7.74
					c0.54-0.83,1.73-1.57,3.65-2.74c1.5-0.91,3.36-2.04,5.33-3.49c1.03-0.77,2.22-0.98,3.45-0.61c4.65,1.39,8.54,10.88,8.57,10.97
					c0.49,1.35,0.55,3.72,0.61,6.01c0.02,0.63,0.03,1.25,0.06,1.81c0.11,2.44-2.62,2.93-5.26,3.4c-1.41,0.25-3.01,0.54-4.34,1.09
					c0.89,0.58,1.92,1.57,2.64,3.33c1.97,4.85,2.29,6.79-1.47,11.21c-1.71,2.01-2.63,3.04-3.57,3.12c-0.15,0.01-0.3,0-0.45-0.04
					c-0.97-0.23-1.2-1.2-1.47-2.32c-0.06-0.26-0.13-0.56-0.22-0.88c-0.49-1.85-1.94-4.72-2.9-6.61c-0.46-0.91-0.81-1.62-0.92-1.93
					c-0.17-0.46-1.66-2.95-3.25-5.52c-1.03,7.05-3.71,13.4-8.08,19.12c-3.41,4.46-7.36,6.91-11.72,7.29c-0.03,0-0.06,0-0.08,0.01
					c-4.1,0.33-7.65-1.25-9.91-2.63c1.21,6.3,0.89,16.59-1.91,26c-3.2,10.78-19.6,31.41-43.78,33.36c-0.23,0.02-0.47,0.01-0.7,0.03
					l3.36,41.77c0,0.02-0.01,0.04-0.01,0.06c148.33-3.25,224.98-32.71,253.96-95.57C580.75,508.4,580.57,508.24,580.46,508.02z
					 M377.41,591.3c-0.74,5.2-5.96,6.61-9.88,6.92c-2.33,0.19-4.2-0.01-4.4-0.03c-0.28-0.03-0.54-0.17-0.72-0.39
					c-0.47-0.58-0.89-1.17-1.25-1.79c-0.04,0.81-0.07,1.34-0.08,1.44c-0.02,0.26-0.13,0.51-0.32,0.69
					c-0.16,0.16-3.45,3.42-7.26,3.73c-0.61,0.05-1.23,0.02-1.86-0.1c-2.53-0.51-4.52-2.52-5.91-5.95c-0.04-0.1-0.07-0.21-0.07-0.32
					c-0.03-0.39-0.75-9.61,0.91-13.45l0.24-0.55c1.75-4.05,3.75-8.64,6.99-8.31c3.09,0.31,3.46,1.11,5.47,5.57l0.31,0.68
					c0.05,0.12,0.1,0.26,0.15,0.39c0.39-0.37,0.83-0.68,1.23-0.97c0.73-0.52,1.43-1.02,1.5-1.56c0.08-0.6-0.11-1.74-0.32-2.94
					c-0.42-2.44-1-5.79-0.14-9.07c0.85-3.26,5.11-4.53,8.54-3.82c3.46,0.71,5.41,3.12,4.96,6.15c-0.41,2.78,0.23,6.56,0.92,10.55
					C377.19,582.67,377.98,587.32,377.41,591.3z M400.31,560.63c-0.32,0.57-0.68,1.22-0.73,1.41c-0.13,0.44-0.51,0.76-0.96,0.8
					c-0.01,0-0.03,0-0.04,0c-0.47,0.02-0.9-0.24-1.07-0.68c-1.75-4.55-4.08-8.76-5.12-9.29c-0.02,0.05-0.07,0.15-0.13,0.3
					c-0.13,0.32-0.4,0.56-0.74,0.65c-3.19,0.82-10.81,2.58-12.74,1.21c-0.41-0.29-0.66-0.72-0.7-1.2c-0.03-0.41-0.75-10,3.35-14.28
					c1.34-1.39,3-2.05,4.98-1.98c1.28,0.05,2.53,0.05,3.74,0.05c6.06,0,11.79,0.01,13.68,7.12
					C405.54,551.17,402.01,557.56,400.31,560.63z M452.16,572.49c-1.95,0.97-3.13,1.85-3.91,2.43c-0.73,0.54-1.29,0.96-1.94,1.01
					c-0.14,0.01-0.28,0.01-0.43-0.02c-0.98-0.15-1.55-0.94-2.93-2.86l-0.82-1.13c-2.66-3.63-2.52-5.55-2.32-8.46
					c0.14-2.05,0.32-4.59-0.41-8.87c-0.53-3.12-1.6-5.09-3.16-5.84c-1.92-0.92-4.13,0.29-4.15,0.31c-0.32,0.18-0.72,0.19-1.04,0.01
					c-0.33-0.17-0.55-0.5-0.58-0.87c-0.48-5.97,5.91-9.47,10.58-12.02l0.75-0.41c3.51-1.94,6.87,3.77,10.11,9.28
					c1.37,2.32,3.43,5.84,4.28,6.08c0.01,0,0.01,0,0.02,0c4.18-0.34,5.64,3.37,6.99,7.88C465.11,565.44,458.51,569.34,452.16,572.49
					z M464.27,487.45c-0.69,0.9-1.55,2.03-2.94,3.45c-1.6,1.65-2.64,3.83-3.55,5.75c-1.05,2.21-1.87,3.95-3.36,4.4
					c-0.46,0.14-0.91,0.38-1.38,0.63c-0.68,0.36-1.48,0.78-2.37,0.85c-0.91,0.07-1.9-0.22-2.94-1.32c-2.16-2.29-2.19-5.82-2.22-9.22
					l-0.01-0.94c-0.04-3.1,3.15-6.78,4.72-8.39c-0.96-0.92-2.84-2.57-5.5-4.14c-1.4-0.83-2.14-1.67-2.34-2.65
					c-0.26-1.29,0.55-2.36,1.26-3.3c0.5-0.66,1.01-1.35,1.19-2.07c0.84-3.42,3.39-3.59,6.35-3.83l0.69-0.05
					c3.86-0.31,7.09,1.5,9.35,5.23c1.26,2.08,1.38,2.16,2.84,3.11c0.85,0.56,2.14,1.4,4.24,3.01c2.74,2.11,3.63,3.27,3.39,4.45
					c-0.25,1.21-1.53,1.55-2.78,1.87c-0.53,0.14-1.12,0.29-1.65,0.51C465.85,485.39,465.32,486.08,464.27,487.45z M486.51,544.67
					c-0.18,0.29-0.51,0.53-0.97,0.57c-0.28,0.02-0.6-0.03-0.97-0.19c-0.38-0.16-0.63-0.53-0.65-0.94c-0.01-0.23-0.02-0.46-0.03-0.69
					c-0.82-0.89-2.61-2.62-6.49-5.93c-5.07-4.32-7.3-7.66-6.81-10.21c0.29-1.48,1.45-2.25,2.09-2.46c0.21-0.07,0.41-0.06,0.61-0.01
					c0.6-0.53,1.48-0.68,1.48-0.68c-1.04-0.88-0.98-2.84-0.8-4.16c-0.14-0.05-0.28-0.13-0.39-0.24c-0.43-0.42-0.44-1.1-0.02-1.53
					c0.08-0.08,1.98-2.04,4.5-2.08c1.31-0.01,2.51,0.51,3.55,1.54c2.89,2.87,4.07,19.05,4.41,24.89
					C487.04,543.83,486.8,544.21,486.51,544.67z M510.9,454.05c-0.23,0-0.46-0.09-0.65-0.23l-10.17-7.94l-14.15,0.29
					c-0.46,0.01-0.88-0.27-1.04-0.71c-0.16-0.43-0.03-0.92,0.33-1.22l7.61-6.3c-0.95-2.55-3.44-10.67,1.85-13.51
					c1.43-0.77,2.89-0.87,4.21-0.31c2.88,1.23,4.54,5.33,5.33,7.98c0.3,0.02,0.71,0.04,1.09,0.06c4.2,0.19,14.03,0.62,15.98,9.93
					c0.73,3.46,0.22,6.28-1.51,8.37c-2.29,2.76-6.05,3.4-7.86,3.55C511.34,454.06,510.96,454.05,510.9,454.05z M538.18,537.69
					c-0.69,5.72-1.55,12.85-0.1,16.8c0.19,0.54-0.06,1.14-0.58,1.37c-0.12,0.05-0.23,0.08-0.35,0.09c-0.42,0.03-0.84-0.18-1.05-0.58
					c-0.04-0.08-4.31-8.1-11.73-12.25c-4.16-2.33-5.27-5.72-5.48-8.15c-0.35-4.11,1.68-8.7,5.03-11.42
					c2.37-1.92,5.56-2.23,8.75-0.86c3.36,1.44,5.86,4.42,6.09,7.23C538.91,531.64,538.57,534.45,538.18,537.69z M542.68,504.39
					c-0.71,0.64-1.51,0.89-2.25,0.95c-1.24,0.1-2.28-0.35-2.35-0.38c-0.29-0.13-0.51-0.38-0.6-0.69
					c-3.83-12.96-21.08-14.08-21.26-14.09c-0.34-0.02-0.66-0.2-0.85-0.48c-0.19-0.29-0.23-0.64-0.12-0.97c1-2.82,2.49-4.6,4.42-5.29
					c0.99-0.35,1.93-0.36,2.7-0.23c-0.67-5.27,1.46-7.9,3.22-10.05c0.83-1.02,1.62-1.99,2-3.12c0.6-1.74,1.92-2.86,3.73-3.15
					c2.66-0.42,6.06,1.07,7.87,3.47c2.42,3.22,2.6,14.3,2.62,16.24C544.94,496.28,545.22,502.1,542.68,504.39z"/>
			</g>
		</g>
		<g>
			<path class="st10" d="M519.17,442.54c-1.61-7.66-9.94-8.03-13.95-8.2c-1.76-0.08-2.65-0.12-2.92-1.06
				c-1.07-3.82-2.65-6.46-4.26-7.15c-0.72-0.3-1.48-0.23-2.33,0.22c-4.37,2.34-0.62,11.41-0.58,11.5c0.19,0.44,0.07,0.96-0.3,1.27
				l-5.82,4.81l11.41-0.23c0.25-0.01,0.49,0.08,0.69,0.23l10.17,7.94c1.14-0.06,4.85-0.4,6.83-2.8
				C519.4,447.52,519.75,445.32,519.17,442.54z"/>
		</g>
		<g>
			<path class="st10" d="M400.37,470.14c-0.05,0.51,0.23,3.66,0.53,6.5c1.06,1.7,3.89,6.26,4.23,7.19c0.1,0.27,0.41,0.88,0.82,1.68
				c1,1.98,2.51,4.97,3.06,7.04c0.09,0.34,0.16,0.65,0.23,0.93c0.02,0.07,0.03,0.14,0.05,0.21c0.56-0.58,1.32-1.46,1.67-1.88
				c3.11-3.66,2.85-4.69,1.11-8.99c-0.79-1.94-2.03-2.5-2.77-2.84c-0.46-0.21-1.15-0.52-1.15-1.34c0-0.89,0.68-1.19,2.17-1.86
				c1.62-0.72,3.45-1.05,5.07-1.34c1.47-0.26,3.5-0.63,3.47-1.16c-0.02-0.57-0.04-1.2-0.06-1.85c-0.05-1.92-0.11-4.31-0.48-5.32
				c-0.63-1.71-4.15-8.74-7.16-9.64c-0.57-0.17-1.04-0.09-1.53,0.27c-2.05,1.51-3.96,2.67-5.49,3.61c-1.3,0.79-2.78,1.69-2.99,2.07
				c-0.39,0.77-0.65,4.53-0.74,5.76C400.41,469.63,400.38,469.96,400.37,470.14z"/>
		</g>
		<g>
			<path class="st10" d="M468.35,482.18c0.32-0.08,0.75-0.19,1.04-0.3c-0.24-0.33-0.86-0.99-2.43-2.19
				c-2.03-1.56-3.27-2.38-4.1-2.92c-1.68-1.1-2.04-1.38-3.51-3.81c-1.83-3.02-4.29-4.43-7.31-4.19l-0.7,0.05
				c-0.17,0.01-0.34,0.02-0.49,0.04c-2.6,0.21-3.49,0.45-3.9,2.14c-0.29,1.16-0.96,2.06-1.56,2.86c-0.46,0.61-0.93,1.24-0.86,1.58
				c0.02,0.11,0.18,0.53,1.31,1.2c4.27,2.53,6.64,5.19,6.74,5.3c0.39,0.44,0.36,1.11-0.07,1.52c-1.35,1.26-4.86,5.08-4.83,7.56
				l0.01,0.95c0.03,2.99,0.05,6.08,1.62,7.75c0.89,0.94,1.32,0.77,2.71,0.04c0.52-0.27,1.1-0.58,1.75-0.78
				c0.57-0.17,1.38-1.89,2.03-3.26c0.94-1.97,2.1-4.42,3.96-6.33c1.29-1.33,2.11-2.4,2.77-3.26c1.12-1.46,1.93-2.52,3.85-3.33
				C467.05,482.51,467.74,482.33,468.35,482.18z"/>
		</g>
		<g>
			<path class="st10" d="M539.7,487.12c-0.03-0.11-0.05-0.22-0.05-0.33c-0.01-3.41-0.43-12.77-2.18-15.11
				c-1.31-1.75-3.91-2.9-5.79-2.63c-1.01,0.16-1.67,0.72-2.01,1.7c-0.51,1.49-1.46,2.66-2.37,3.79c-1.9,2.34-3.7,4.55-2.45,10.04
				c0.1,0.42-0.07,0.87-0.42,1.12c-0.35,0.25-0.82,0.28-1.19,0.06c-0.01-0.01-1.38-0.78-2.83-0.25c-0.99,0.37-1.84,1.26-2.53,2.66
				c4.52,0.57,17.7,3.22,21.54,14.94c0.48,0.11,1.28,0.18,1.84-0.34C542.05,502.02,543.55,498.99,539.7,487.12z"/>
		</g>
		<g>
			<path class="st10" d="M531.82,524.68c-1.2-0.52-2.39-0.73-3.5-0.64c-1.12,0.09-2.16,0.49-3.03,1.19
				c-2.78,2.25-4.52,6.17-4.23,9.54c0.23,2.74,1.74,4.97,4.37,6.44c4.32,2.42,7.6,5.96,9.72,8.76c-0.16-3.95,0.39-8.57,0.87-12.54
				c0.38-3.13,0.7-5.83,0.58-7.34C536.44,528.07,534.43,525.8,531.82,524.68z"/>
		</g>
		<g>
			<path class="st10" d="M474.05,525.5c0.19,0.56-0.11,1.17-0.67,1.37c-0.07,0.03-0.57,0.24-0.67,0.85c-0.13,0.77,0.2,3.1,6.09,8.11
				c2.13,1.81,3.71,3.21,4.88,4.31c-0.6-8.44-1.89-19.23-3.61-20.93c-0.62-0.61-1.27-0.91-1.98-0.91c-1.55,0.01-2.96,1.41-2.98,1.42
				c-0.31,0.31-0.76,0.39-1.15,0.25c-0.18,1.31-0.24,3.27,0.8,4.16c0,0-0.88,0.15-1.48,0.68
				C473.62,524.9,473.92,525.14,474.05,525.5z"/>
		</g>
		<g>
			<path class="st10" d="M456.29,553.3c-1.87,0.15-3.43-2.34-6.25-7.14c-2.07-3.51-5.51-9.38-7.19-8.47l-0.76,0.41
				c-3.67,2-8.53,4.66-9.35,8.4c0.41-0.11,0.87-0.2,1.36-0.24c0.94-0.08,2.01,0.03,3.06,0.53c2.25,1.07,3.73,3.57,4.39,7.44
				c0.77,4.53,0.58,7.34,0.43,9.38c-0.19,2.69-0.28,4.04,1.9,7.02l0.83,1.14c0.61,0.85,1.19,1.65,1.49,1.93
				c0.19-0.11,0.48-0.33,0.75-0.53c0.84-0.63,2.11-1.57,4.24-2.63c7.08-3.52,11.21-6.57,9.92-10.9
				C459.43,554.02,458.27,553.14,456.29,553.3z"/>
		</g>
		<g>
			<path class="st10" d="M398.63,559.16c1.62-2.95,4.51-8.53,3.1-13.83c-1.4-5.26-4.93-5.5-11.58-5.51c-1.23,0-2.51,0-3.82-0.05
				c-1.34-0.06-2.43,0.37-3.33,1.31c-2.73,2.84-2.94,9.52-2.77,12.26c1.3,0.34,6.1-0.45,10.26-1.48c0.5-0.87,1.14-1.13,1.66-1.18
				c0.06,0,0.12-0.01,0.18-0.01C394.56,550.68,396.99,555.3,398.63,559.16z"/>
		</g>
		<g>
			<path class="st10" d="M359.06,590.07c-0.42-2.31-0.46-4.46-0.47-6.03c-0.22-1.43-0.53-2.73-0.97-3.7l-0.31-0.68
				c-1.86-4.11-1.86-4.11-3.7-4.3c-1.71-0.15-3.62,4.33-4.78,7.01l-0.24,0.55c-1.18,2.72-0.96,9.6-0.76,12.24
				c1.09,2.62,2.52,4.13,4.25,4.48c2.84,0.58,5.93-1.91,6.87-2.76C359,595.85,359.13,593.12,359.06,590.07z"/>
		</g>
		<g>
			<path class="st10" d="M373.35,567.3c0.39-2.66-2.14-3.47-3.24-3.7c-2.43-0.5-5.5,0.3-6,2.24c-0.74,2.82-0.23,5.77,0.18,8.14
				c0.26,1.5,0.47,2.68,0.33,3.62c-0.2,1.46-1.36,2.29-2.39,3.03c-1.05,0.75-1.55,1.17-1.51,1.75c0.02,0.37,0.03,0.85,0.03,1.43
				c0,0.04,0,0.09,0,0.13c0.28,1.89,0.42,3.94,0.47,5.87c0.4,2.13,1.15,4.36,2.59,6.26c2.06,0.15,10.66,0.41,11.44-5.07
				c0.52-3.64-0.25-8.13-0.98-12.46C373.57,574.36,372.89,570.42,373.35,567.3z"/>
		</g>
		<g>
			<path class="st8" d="M246.29,193.73c39.22,2.7,96.15-14.96,123.61-25.82c8.09-3.2,16.19-6.65,23.63-10.45
				c-0.07-0.13-0.11-0.28-0.12-0.44c-0.02-0.57,0.41-1.07,0.98-1.12c0.56-0.06,1.11-0.09,1.63-0.09c0.28-0.03,0.58-0.08,0.9-0.13
				c1.76-0.95,3.46-1.93,5.11-2.92c1.14-2.1,0.38-5.39-2.2-9.55c-0.05-0.04-14.65-16.88-43-12.78
				c-28.5,4.11-40.12,19.32-40.23,19.47c-0.33,0.44-0.94,0.57-1.42,0.29c-0.22-0.13-22.24-12.37-52.31,23.95
				c-0.05,0.06-0.1,0.11-0.16,0.16c-0.02,0.01-3.19,2.81-7.68,15.81c-0.13,0.38-0.45,0.65-0.85,0.72
				c-0.13,0.02-4.47,0.79-10.66,2.69C244.43,193.59,245.35,193.67,246.29,193.73z"/>
		</g>
		<g>
			<path class="st8" d="M236.44,260.02c2.57-0.96,12.74-3.99,28.13-8.58c20.36-6.07,49.43-14.74,78.18-23.81
				c-0.64-3.16-3.28-6.13-7.9-8.83c-0.37-0.22-0.57-0.63-0.53-1.05c0.04-0.42,0.33-0.78,0.73-0.92c8.65-2.91,31.21-12.22,31.7-20.23
				c0.15-2.5-2.03-4.85-6.47-6.98c-0.44-0.21-0.68-0.68-0.6-1.16c0.08-0.48,0.46-0.85,0.95-0.9c0.27-0.03,27.58-3.38,35.23-14.2
				c4.47-6.31,6.24-11.28,4.88-13.63c-0.66-1.14-2.1-1.58-3.63-1.69c-8.2,4.39-17.31,8.31-26.4,11.9
				c-22.83,9.03-65.93,22.72-102.57,25.67c-7.7,0.62-15.11,0.77-21.99,0.29c-2.68-0.18-5.24-0.42-7.73-0.7
				c-12.5,4.5-29.03,12.98-36.22,27.79c-7.86,16.2-5.38,31.47-1.22,42.37C217.33,264.44,232.31,261.57,236.44,260.02z"/>
		</g>
		<g>
			<path class="st8" d="M229.14,394.55c0.08-0.02,0.15-0.03,0.23-0.04c1.02-0.05,75.51-4.18,152.65-31.48
				c-0.01-0.04-0.02-0.07-0.04-0.11c-0.07-0.22-5.16-16.13-16.28-17.03c-0.48-0.04-0.88-0.4-0.98-0.87
				c-0.09-0.48,0.14-0.96,0.57-1.18c0.27-0.14,6.67-3.7,0.99-15.15c-0.05-0.1-2.71-6.01-7.92-7.62c-0.05-0.02-0.11-0.02-0.16-0.04
				l-5.51,0.07c-1.33,0.38-2.71,0.99-4.12,1.87c-0.51,0.32-1.16,0.16-1.48-0.33c-0.32-0.5-0.19-1.16,0.3-1.49
				c0.41-0.28,9.92-6.91,6.16-19.3c-0.03-0.05-0.3-0.53-0.79-1.21c-5.75,1.08-11.43,2.07-16.94,2.97
				c-23.93,3.89-47.7,6.53-68.18,8.18c-30.23,2.43-53.29,2.72-59.13,1.69c-0.59-0.1-0.99-0.67-0.89-1.26
				c0.1-0.59,0.65-0.99,1.26-0.88c9.01,1.58,76.68-0.54,142.26-12.62c-2.44-2.48-6.73-5.2-12.89-3.06c-0.3,0.1-0.63,0.07-0.9-0.08
				c-0.27-0.16-0.47-0.43-0.53-0.74l-0.68-3.54c-2.88,0.63-10.53,1.83-16.27-1.39c-2.99-1.69-5.01-4.33-5.99-7.86
				c-1.54-5.57,1.17-10.59,7.27-13.44c5.87-2.74,14.26-2.99,18.38,0.58c1.44-3.53,4.53-12.53,1.67-18.83
				c-1.36-3-3.96-5.04-7.73-6.07c-0.42-0.11-0.73-0.46-0.79-0.89c-0.06-0.43,0.14-0.85,0.51-1.08c0.09-0.06,9.02-5.68,9.65-12.44
				c-28.59,9.02-57.42,17.61-77.65,23.64c-14.8,4.41-25.49,7.6-27.98,8.54c-2.94,1.1-16.43,3.92-32.07,5.18
				c-1.09,0.09-2.2,0.17-3.31,0.24c2.42,5.74,5.2,10.05,6.82,12.35c0.28,0.39,0.27,0.92-0.03,1.3c-0.29,0.38-0.8,0.52-1.25,0.34
				c-0.07-0.03-7.68-2.91-15.32,0.53c-5.52,2.48-9.75,7.6-12.58,15.23c-8.64,23.3,13.72,39.98,13.95,40.14
				c0.4,0.29,0.55,0.81,0.37,1.27c-0.18,0.46-0.66,0.75-1.13,0.69c-1.04-0.11-25.17-2.25-29.12,29.09c0,0.12,0.06,16.91,8.55,26.46
				C191.47,398.71,212.61,399.05,229.14,394.55z M201.31,306.55c-12.76,5.33-13.81,8.42-13.67,9.51c0.28,2.17,5.75,3.87,9.54,4.39
				c0.59,0.08,1.01,0.63,0.93,1.22c-0.07,0.51-0.49,0.9-0.99,0.94c-0.08,0.01-0.15,0-0.23-0.01c-1.1-0.15-10.79-1.59-11.41-6.26
				c-0.47-3.59,4.29-7.34,14.99-11.8c0.57-0.23,1.19,0.03,1.42,0.59C202.13,305.69,201.87,306.32,201.31,306.55z"/>
		</g>
		<g>
			<path class="st8" d="M390.03,496.85c8.5-11.11,10.3-24.79,5.49-41.82c-0.04-0.16-2.22-9.71-10.61-11.1
				c-0.5-0.08-0.88-0.51-0.91-1.01c-0.03-0.51,0.31-0.97,0.8-1.11c0.47-0.13,11.58-3.61,8.98-25.56c-0.01-0.1-0.03-0.18-0.04-0.27
				c-45.4,16.07-102.39,30.44-173.45,39.67c-0.02,0-0.04,0-0.05,0.01c-0.58,0.05-1.09-0.37-1.16-0.94c-0.08-0.6,0.34-1.14,0.94-1.22
				c71.13-9.24,128.1-23.62,173.43-39.71c-2.65-18.4-8.64-20.14-14.45-21.78c-0.53-0.15-1.07-0.3-1.6-0.46
				c-0.45-0.14-0.76-0.55-0.77-1.02c-0.01-0.47,0.29-0.89,0.73-1.05c0.03-0.01,3.79-1.39,5.92-5.96c2.16-4.65,1.96-10.85-0.55-18.43
				c-76.14,26.94-149.64,31.41-153.12,31.6c-5.37,1.45-11.22,2.4-17.34,2.9c-11.94,0.96-24.89,0.17-37.3-2.03
				c2.09,1.59,4.57,2.77,7.5,3.36c0.53,0.11,0.9,0.59,0.87,1.13c-0.03,0.54-0.46,0.97-1,1.02c0,0,0,0-0.01,0
				c-0.62,0.05-36.62,3.27-41.55,36.87c-1.39,9.49,0.38,17.61,5.26,24.15c9.27,12.4,26.82,15.02,26.99,15.05
				c0.4,0.06,0.74,0.34,0.87,0.72c0.13,0.38,0.04,0.81-0.24,1.11c-0.1,0.11-10.39,11.06-9.97,25.94
				c0.28,9.87,5.12,19.27,14.39,27.96c0.71,0.58,18.77,15.14,36.85-0.54c0.33-0.29,0.81-0.35,1.2-0.15c0.4,0.2,0.63,0.62,0.59,1.06
				c-0.01,0.06-0.47,6.56,4.55,12.32c4.78,5.47,12.79,8.55,23.84,9.15c18.8,1.02,24.33-0.25,28.27-3.42
				c0.02-0.02,0.05-0.04,0.07-0.06c1.07-0.87,2.03-1.89,3.12-3.03c1.44-1.52,3.06-3.24,5.4-5.16c0.17-0.14,0.38-0.23,0.6-0.24
				c0.07-0.01,0.14,0,0.21,0c0.29,0.03,0.56,0.18,0.74,0.41c0.12,0.15,12.02,14.98,37.09,14.99c25.1,0,42.21-21.15,45.42-31.95
				c3.14-10.59,3.03-22.62,1.13-27.69c-0.18-0.47-0.01-1,0.41-1.28c0.42-0.28,0.97-0.24,1.34,0.1c0.05,0.05,4.9,4.42,10.85,3.95
				c0.03,0,0.06,0,0.08-0.01C383.59,502.96,387,500.8,390.03,496.85z M186.7,461.04c0.25-0.77,6.62-18.76,35.48-19.65
				c0.6-0.02,1.1,0.45,1.12,1.05c0.02,0.6-0.45,1.12-1.05,1.12c-24.13,0.74-31.67,14.11-33.18,17.43
				c17.6,12.02,34.52,5.03,34.69,4.95c0.55-0.23,1.19,0.02,1.43,0.57c0.24,0.55-0.02,1.19-0.57,1.43c-0.08,0.04-3.94,1.64-9.9,2.12
				c-7.15,0.58-17.32-0.47-27.61-7.8C186.71,461.99,186.55,461.49,186.7,461.04z M212.48,510.38c-12.12,0.98-25.91-1.27-40.85-9.38
				c-0.53-0.29-0.72-0.95-0.44-1.47c0.29-0.53,0.95-0.72,1.47-0.44c51.88,28.13,89.47-16.45,89.84-16.91
				c0.38-0.46,1.07-0.53,1.53-0.15c0.46,0.38,0.53,1.07,0.15,1.53C263.91,483.91,243.73,507.86,212.48,510.38z M236.91,547.7
				c-2.06,0.17-4.17,0.22-6.32,0.16c-0.6-0.02-1.07-0.52-1.06-1.12c0.02-0.6,0.54-1.07,1.12-1.06c45.58,1.32,70.1-53.18,70.34-53.73
				c0.25-0.55,0.89-0.8,1.43-0.56c0.55,0.24,0.8,0.88,0.56,1.43C302.74,493.37,279.88,544.24,236.91,547.7z M300.52,532.5
				c-0.14,0.08-0.29,0.12-0.44,0.13c-0.41,0.03-0.82-0.17-1.04-0.56c-0.29-0.53-0.1-1.19,0.42-1.48
				c57.26-31.84,50.46-85.87,50.38-86.42c-0.08-0.6,0.33-1.14,0.93-1.23c0.52-0.08,1.14,0.33,1.23,0.93
				C352.08,444.44,359.13,499.92,300.52,532.5z"/>
		</g>
		<g>
			<path class="st11" d="M321.47,562.32c-0.28,0.01-0.56,0.03-0.85,0.03c-22.92-0.01-35.07-11.65-38.07-14.97
				c-1.82,1.57-3.17,3-4.39,4.28c-0.99,1.05-1.89,2-2.85,2.84l1.83,62.92c0,0.07-0.02,0.13-0.03,0.19
				c25.16,3.94,43.95-9.62,47.99-12.85c-0.14-0.17-0.24-0.36-0.26-0.59L321.47,562.32z"/>
		</g>
		<path class="st6" d="M481.41,373.46c0.96-0.57,1.92-1.14,2.86-1.7c-1.06,0.11-2.09,0.23-3.08,0.34
			C481.25,372.46,481.32,372.92,481.41,373.46z"/>
		<g>
			<g>
				<path class="st11" d="M635.01,456.2c-13.73-14.59-28.86-40.4-29.01-40.66c-25.61-42.92-39.48-46.95-39.62-46.98
					c-17.08-2.73-53.12,0.18-77.05,2.66c-2.42,1.5-4.95,3.01-7.53,4.52c1.61,8.84,5.91,27.89,14.62,38.82
					c3.01,0.8,22.56,6.8,41.88,30.95c1.57,2.06,38.27,50.11,44.08,61.52c0.03,0.05,0.03,0.11,0.05,0.17
					c40.68-12.44,52.18-45.9,53.64-50.72c-0.06,0.02-0.13,0.04-0.19,0.05C635.57,456.56,635.24,456.45,635.01,456.2z M570.73,390.86
					c0,0-0.01,0-0.01,0c-0.59,0.05-1.11-0.39-1.17-0.98c-0.47-5.04-2.38-8.9-5.66-11.49c-6.24-4.93-15.44-3.71-15.54-3.7
					c-0.59,0.09-1.15-0.33-1.23-0.93c-0.08-0.59,0.33-1.14,0.93-1.23c0.41-0.06,10.23-1.36,17.19,4.14c3.76,2.97,5.94,7.35,6.47,13
					C571.76,390.27,571.32,390.8,570.73,390.86z"/>
			</g>
		</g>
		<g>
			<path class="st11" d="M403.19,160.29c0.65,3.31-1.22,8.19-5.56,14.32c-6.65,9.39-25.84,13.38-33.54,14.63
				c3.38,2.2,5,4.71,4.83,7.48c-0.59,9.63-23.43,18.66-31.04,21.41c3.91,2.67,6.21,5.63,6.93,8.83
				c28.43-8.99,56.34-18.34,74.99-25.9c5.15-2.09,9.73-4.25,13.84-6.43C422.25,167.87,408.16,161.67,403.19,160.29z"/>
		</g>
		<g>
			<path class="st11" d="M355.05,300.2c0.32,0.49,0.5,0.81,0.51,0.83c2.49,8.16-0.17,14.18-2.88,17.82c2.2-0.53,4.33-0.48,6.36,0.15
				c6.16,1.92,9.1,8.5,9.23,8.78c2.87,5.78,2.91,9.9,2.03,12.74c8.49,1.25,57.68,7.5,77.94-12.24
				c19.99-19.47,16.13-49.07,15.18-54.7c-0.03,0-0.05,0-0.08,0.01c-8.7,0.7-14.54-0.16-18.34-1.28
				C420.1,285.25,386.46,294.17,355.05,300.2z"/>
		</g>
		<g>
			<g>
				<path class="st11" d="M434.5,196.67c-4.14,2.18-8.74,4.34-13.88,6.42c-18.79,7.62-46.94,17.04-75.55,26.09
					c-0.03,6.23-5.85,11.42-8.91,13.72c3.31,1.35,5.66,3.55,7.03,6.56c4.03,8.88-2.08,21.63-2.34,22.17
					c-0.17,0.35-0.51,0.58-0.89,0.61c0,0,0,0,0,0c-0.39,0.03-0.76-0.15-0.98-0.47c-2.44-3.53-10.65-4.11-16.89-1.2
					c-2.43,1.13-7.87,4.47-6.09,10.89c0.82,2.95,2.48,5.15,4.96,6.54c6.26,3.53,15.66,0.95,15.75,0.92c0.29-0.09,0.6-0.04,0.87,0.12
					c0.26,0.16,0.44,0.42,0.5,0.72l0.67,3.47c7.33-1.99,12.31,2.05,14.84,5.02c32.85-6.18,64.99-14.88,88.74-26.9
					c-2.32-1-3.31-1.95-3.41-2.04c-0.32-0.32-0.4-0.8-0.22-1.22c0.19-0.41,0.61-0.66,1.06-0.63c4.69,0.31,8.6-0.29,11.73-1.2
					c2.87-1.74,5.58-3.54,8.09-5.41c-5.26-13.53,1.45-23.88,4.52-27.62C459.15,231.92,446.29,225.71,434.5,196.67z M336.01,283.59
					c-0.7,0.13-1.37,0.22-2,0.27c-2.71,0.22-4.72-0.3-5.99-1.55c-1.68-1.65-1.33-3.91-1.32-4c0.1-0.59,0.66-0.99,1.25-0.89
					c0.59,0.1,0.99,0.65,0.9,1.24c-0.01,0.07-0.17,1.27,0.71,2.12c1.02,0.98,3.11,1.21,6.06,0.67c0.55-0.1,1.16,0.28,1.27,0.87
					C336.99,282.92,336.6,283.48,336.01,283.59z M428.81,226.87c-0.08,0.32-0.31,0.59-0.61,0.73c-2.72,1.21-5.49,1.78-8.05,1.99
					c-6.2,0.5-11.21-1.16-11.5-1.26c-0.57-0.19-0.87-0.81-0.68-1.38c0.19-0.57,0.81-0.88,1.38-0.68c0.09,0.03,9.1,3,17.47-0.44
					c0.48-2.34,2.08-11.98-3.61-14.49c-0.55-0.24-0.8-0.89-0.55-1.43c0.24-0.55,0.89-0.79,1.43-0.56
					C432.21,212.93,428.95,226.3,428.81,226.87z"/>
			</g>
		</g>
		<g>
			<path class="st11" d="M431.47,344.44c-15.26,7.7-31.02,14.29-46.7,19.92c2.71,8.15,2.89,14.95,0.45,20.13
				c-1.34,2.84-3.2,4.62-4.69,5.68c5.88,1.7,12.24,4.43,15,22.87c27.24-9.77,50.22-20.16,69.47-30.38c-0.61-4.26-1.04-7.6-1.23-9.08
				C442.24,369.8,434.21,353.09,431.47,344.44z"/>
		</g>
		<g>
			<path class="st11" d="M409.6,344.24c-18.69,1.51-36.33-1.04-40.22-1.66c-0.35,0.61-0.74,1.12-1.11,1.54
				c10.88,2.75,15.56,17.43,15.77,18.09c0.01,0.03,0.02,0.06,0.03,0.09c15.71-5.64,31.5-12.25,46.78-19.99
				c-0.19-0.72-0.33-1.33-0.44-1.82C423.78,342.53,416.62,343.68,409.6,344.24z"/>
		</g>
		<g>
			<path class="st11" d="M427.47,446.55c30.52-9.32,42.59-24.63,44.6-27.46c-2.35-5.77-5.05-22.47-6.75-34.16
				c-19.3,10.21-42.27,20.56-69.49,30.3c0.03,0.26,0.07,0.49,0.1,0.75c2.04,17.25-4.07,24.06-7.84,26.57
				c2.2,0.87,3.91,2.22,5.24,3.7C403.84,449.37,427.23,446.58,427.47,446.55z"/>
		</g>
		<path class="st16" d="M424.08,209.34c-0.55-0.24-1.19,0-1.43,0.56c-0.24,0.55,0.01,1.19,0.55,1.43c5.69,2.51,4.1,12.15,3.61,14.49
			c-8.38,3.44-17.38,0.48-17.47,0.44c-0.57-0.19-1.19,0.11-1.38,0.68c-0.19,0.57,0.11,1.19,0.68,1.38c0.29,0.1,5.3,1.76,11.5,1.26
			c2.56-0.21,5.33-0.78,8.05-1.99c0.31-0.14,0.53-0.41,0.61-0.73C428.95,226.3,432.21,212.93,424.08,209.34z"/>
		<path class="st16" d="M636.59,454.71c-13.56-14.41-28.56-40.01-28.72-40.27c-26.29-44.06-40.39-47.85-41.06-48.01
			c-16.54-2.64-49.47-0.22-73.29,2.15c5.7-3.63,10.97-7.19,15.77-10.63c50.76-36.4,65.18-68.57,65.28-68.82
			c14.57-27.39,17.07-49.7,7.4-66.31c-16.38-28.15-61.25-29.72-63.15-29.77c-0.58-0.01-1.1,0.46-1.12,1.06
			c-0.02,0.6,0.46,1.1,1.06,1.12c0.45,0.01,45.57,1.59,61.34,28.7c9.25,15.91,6.75,37.51-7.48,64.26
			c-0.14,0.32-14.31,31.94-64.59,68c-5.8,4.16-12.23,8.48-19.36,12.89c-12.26,1.28-21.27,2.44-22.83,2.64
			c-22.32-3.06-30-19.96-32.46-28.25c11.31-5.79,22.33-12.2,32.81-19.3c0.5-0.34,0.63-1.01,0.29-1.51c-0.34-0.5-1.02-0.63-1.51-0.29
			c-10.28,6.96-21.09,13.26-32.17,18.96c-0.14-0.6-0.25-1.11-0.33-1.5c6.63-2.26,12.63-5.48,17.26-9.99
			c22.93-22.34,15.69-57.3,15.61-57.65c-0.12-0.54-0.57-0.9-1.16-0.85c-7.41,0.68-12.66,0.22-16.34-0.56
			c1.39-0.76,2.75-1.54,4.08-2.33c6.6-1.86,9.99-5.09,10.2-5.3c0.33-0.32,0.42-0.82,0.23-1.24c-0.06-0.13-0.1-0.25-0.15-0.38
			c6.22-4.78,11.3-9.99,14.85-15.67c13.55-21.75,17.43-38.92,11.52-51.03c-6.66-13.65-23.18-15.55-23.88-15.63
			c-0.59-0.07-1.13,0.37-1.2,0.97c-0.06,0.6,0.37,1.13,0.97,1.2c0.16,0.02,16.04,1.86,22.16,14.43c5.55,11.39,1.7,27.84-11.42,48.91
			c-3.31,5.32-8.02,10.23-13.82,14.78c-5.6-15.31,5.1-25.72,5.58-26.18c0.32-0.3,0.42-0.76,0.27-1.18c-0.15-0.41-0.55-0.69-0.98-0.7
			c-0.15-0.01-15.7-0.94-29.77-35.65c-0.02-0.05-0.04-0.09-0.06-0.14c35.68-19.59,34.19-41.35,34.09-42.38
			c-0.05-0.59-0.58-1.03-1.17-0.98c0,0-0.01,0-0.01,0c-0.6,0.06-1.04,0.58-0.98,1.18c0.02,0.24,1.46,21.18-32.78,40.16
			c-13.51-31.65-30.59-35.4-33.61-35.81c-0.36-0.39-0.77-0.75-1.26-1.02c1.12-0.55,2.15-1.34,2.91-2.43
			c15.34-9.36,25.96-20.77,24.17-35.43c-2.84-23.31-29.13-25.3-29.39-25.32c-0.59-0.04-1.12,0.41-1.16,1.01
			c-0.04,0.6,0.42,1.12,1.02,1.16c0.25,0.02,24.75,1.87,27.37,23.41c1.57,12.9-7.45,23.27-20.92,31.94c0.17-2.5-0.84-5.54-3.1-9.17
			c-0.15-0.18-15.46-17.93-45.07-13.66c-26.2,3.78-38.37,16.39-41.09,19.6c-4.49-2.1-25.83-9.39-54.18,24.81
			c-0.67,0.6-3.78,3.86-8.08,16.12c-1.96,0.37-7.89,1.59-15.21,4.18c-19.41-2.23-32.46-7.2-35.54-13.75
			c-1.17-2.49-0.78-5.11,1.15-7.8c0-0.01,0-0.01,0.01-0.02c14.38-8.1,32.61-15.58,55.99-22.66c0.58-0.17,0.9-0.78,0.73-1.36
			c-0.17-0.57-0.77-0.91-1.35-0.73c-23.53,7.12-41.96,14.78-56.53,23.09c-0.17,0.04-0.32,0.13-0.46,0.26
			c-34.02,19.55-46.7,42.71-53.35,71.08c-1.75,7.43-0.07,13.45,4.98,17.9c9.25,8.14,28.3,9.55,45.94,8.61
			c1.88,4.6,4,8.37,5.69,11.02c-3.18-0.65-8.54-1.09-14.04,1.37c-6.08,2.72-10.71,8.26-13.75,16.47c-0.44,1.17-0.79,2.33-1.09,3.47
			c-5.53,1.73-46.52,15.59-58.94,49.53c-3.23,8.82-1.22,17.53,5.8,25.18c9.3,10.13,27.46,17.98,47.56,22.11
			c1.86,1.98,4.09,3.67,6.76,4.87c-10.37,2.12-34.81,10.05-38.9,38c-1.48,10.09,0.44,18.76,5.68,25.77
			c8.06,10.77,21.52,14.49,26.51,15.53c-2.9,3.58-9.64,13.31-9.29,26c0.29,10.48,5.36,20.4,15.13,29.55
			c0.19,0.16,19.05,15.42,37.96,0.9c0.25,2.69,1.27,7.27,4.99,11.56c5.17,5.96,13.71,9.3,25.39,9.93
			c17.31,0.94,23.96-0.13,28.18-2.75l1.78,61.39c0.02,0.6,0.52,1.07,1.12,1.06c0.02,0,0.04,0,0.06,0c0.51-0.04,0.89-0.43,0.97-0.92
			c0.01-0.06,0.03-0.12,0.03-0.19l-1.83-62.92c0.96-0.85,1.86-1.8,2.85-2.84c1.21-1.28,2.57-2.72,4.39-4.28
			c3.01,3.33,15.15,14.96,38.07,14.97c0.29,0,0.56-0.03,0.85-0.03l3.37,41.86c0.02,0.23,0.12,0.43,0.26,0.59
			c0.22,0.26,0.54,0.43,0.91,0.4c0.58-0.05,1-0.54,0.99-1.11c0-0.02,0.01-0.04,0.01-0.06l-3.36-41.77c0.23-0.02,0.47-0.01,0.7-0.03
			c24.18-1.95,40.58-22.58,43.78-33.36c2.79-9.42,3.11-19.7,1.91-26c2.26,1.38,5.81,2.96,9.91,2.63c0.03,0,0.06,0,0.08-0.01
			c4.37-0.38,8.31-2.83,11.72-7.29c4.38-5.72,7.06-12.07,8.08-19.12c1.59,2.57,3.08,5.07,3.25,5.52c0.11,0.31,0.46,1.01,0.92,1.93
			c0.96,1.9,2.41,4.76,2.9,6.61c0.09,0.32,0.16,0.61,0.22,0.88c0.27,1.12,0.5,2.09,1.47,2.32c0.15,0.04,0.3,0.05,0.45,0.04
			c0.94-0.08,1.86-1.11,3.57-3.12c3.76-4.42,3.44-6.36,1.47-11.21c-0.72-1.77-1.75-2.75-2.64-3.33c1.33-0.55,2.92-0.84,4.34-1.09
			c2.64-0.47,5.37-0.96,5.26-3.4c-0.03-0.56-0.04-1.17-0.06-1.81c-0.06-2.29-0.12-4.66-0.61-6.01c-0.03-0.1-3.93-9.58-8.57-10.97
			c-1.22-0.36-2.41-0.16-3.45,0.61c-1.97,1.46-3.83,2.59-5.33,3.49c-1.92,1.16-3.1,1.91-3.65,2.74c-0.44-2.51-1.01-5.08-1.76-7.74
			c-0.05-0.22-0.63-2.76-2.29-5.53c7.62,1.45,18.78,0.93,25.87,0.36c3.73-0.3,6.34-0.62,6.71-0.67
			c34.61-10.54,45.85-28.14,46.32-28.89c0.19-0.31,0.22-0.7,0.06-1.03c-2.32-4.98-5.19-22.89-6.92-34.91
			c4.33-2.32,8.46-4.63,12.42-6.92c1.73,9.4,6.15,28.21,15.17,39.29c0.15,0.18,0.36,0.32,0.59,0.37c0.21,0.05,21,5.22,41.04,30.27
			c0.38,0.5,38.14,49.93,43.86,61.17c0.11,0.22,0.29,0.37,0.5,0.47c0.17,0.08,0.36,0.13,0.55,0.12c0.14-0.01,0.28-0.05,0.41-0.11
			c0.48-0.24,0.68-0.79,0.52-1.29c-0.02-0.06-0.02-0.12-0.05-0.17c-5.81-11.41-42.51-59.46-44.08-61.52
			c-19.32-24.15-38.87-30.14-41.88-30.95c-8.71-10.93-13.02-29.98-14.62-38.82c2.58-1.52,5.1-3.03,7.53-4.52
			c23.93-2.47,59.97-5.39,77.05-2.66c0.14,0.03,14.01,4.06,39.62,46.98c0.15,0.26,15.27,26.07,29.01,40.66
			c0.24,0.25,0.56,0.36,0.88,0.34c0.07-0.01,0.13-0.03,0.19-0.05c0.17-0.05,0.33-0.12,0.47-0.24
			C636.98,455.83,637,455.15,636.59,454.71z M379.78,503.3c-5.95,0.48-10.8-3.9-10.85-3.95c-0.37-0.34-0.93-0.38-1.34-0.1
			c-0.42,0.28-0.59,0.81-0.41,1.28c1.9,5.07,2.01,17.1-1.13,27.69c-3.2,10.8-20.32,31.96-45.42,31.95
			c-25.07-0.01-36.97-14.85-37.09-14.99c-0.18-0.23-0.45-0.38-0.74-0.41c-0.07-0.01-0.14-0.01-0.21,0c-0.22,0.02-0.43,0.1-0.6,0.24
			c-2.34,1.92-3.97,3.64-5.4,5.16c-1.09,1.15-2.05,2.16-3.12,3.03c-0.02,0.02-0.05,0.04-0.07,0.06c-3.94,3.16-9.47,4.44-28.27,3.42
			c-11.04-0.6-19.06-3.68-23.84-9.15c-5.02-5.76-4.56-12.26-4.55-12.32c0.04-0.44-0.2-0.86-0.59-1.06c-0.39-0.2-0.87-0.14-1.2,0.15
			c-18.08,15.68-36.13,1.12-36.85,0.54c-9.27-8.69-14.12-18.09-14.39-27.96c-0.42-14.88,9.87-25.83,9.97-25.94
			c0.28-0.3,0.37-0.72,0.24-1.11c-0.13-0.39-0.47-0.66-0.87-0.72c-0.17-0.03-17.73-2.65-26.99-15.05
			c-4.88-6.53-6.65-14.65-5.26-24.15c4.92-33.6,40.92-36.82,41.55-36.87c0.01,0,0.01,0,0.01,0c0.54-0.04,0.97-0.48,1-1.02
			c0.03-0.54-0.34-1.03-0.87-1.13c-2.93-0.59-5.4-1.78-7.5-3.36c12.41,2.2,25.36,2.99,37.3,2.03c6.12-0.49,11.97-1.44,17.34-2.9
			c3.48-0.19,76.99-4.66,153.12-31.6c2.51,7.58,2.72,13.78,0.55,18.43c-2.13,4.57-5.89,5.95-5.92,5.96
			c-0.45,0.15-0.74,0.58-0.73,1.05c0.01,0.47,0.32,0.88,0.77,1.02c0.53,0.16,1.07,0.31,1.6,0.46c5.81,1.64,11.79,3.37,14.45,21.78
			c-45.33,16.08-102.3,30.46-173.43,39.71c-0.59,0.08-1.02,0.62-0.94,1.22c0.07,0.58,0.59,0.99,1.16,0.94c0.02,0,0.04,0,0.05-0.01
			c71.06-9.24,128.05-23.6,173.45-39.67c0.01,0.1,0.03,0.18,0.04,0.27c2.6,21.95-8.51,25.43-8.98,25.56
			c-0.49,0.14-0.82,0.6-0.8,1.11c0.03,0.51,0.41,0.93,0.91,1.01c8.38,1.39,10.57,10.94,10.61,11.1c4.81,17.03,3.01,30.7-5.49,41.82
			c-3.02,3.95-6.44,6.12-10.17,6.44C379.83,503.3,379.81,503.3,379.78,503.3z M163.54,368.4c3.95-31.34,28.09-29.19,29.12-29.09
			c0.47,0.05,0.95-0.23,1.13-0.69c0.18-0.46,0.03-0.98-0.37-1.27c-0.23-0.17-22.59-16.84-13.95-40.14
			c2.83-7.62,7.06-12.75,12.58-15.23c7.64-3.43,15.24-0.56,15.32-0.53c0.45,0.18,0.96,0.03,1.25-0.34c0.3-0.38,0.31-0.91,0.03-1.3
			c-1.63-2.29-4.4-6.61-6.82-12.35c1.11-0.07,2.22-0.15,3.31-0.24c15.64-1.26,29.13-4.08,32.07-5.18c2.5-0.94,13.19-4.12,27.98-8.54
			c20.23-6.03,49.06-14.63,77.65-23.64c-0.63,6.76-9.56,12.38-9.65,12.44c-0.37,0.23-0.57,0.65-0.51,1.08
			c0.06,0.43,0.37,0.78,0.79,0.89c3.77,1.03,6.37,3.07,7.73,6.07c2.86,6.3-0.23,15.3-1.67,18.83c-4.12-3.57-12.51-3.32-18.38-0.58
			c-6.09,2.85-8.81,7.88-7.27,13.44c0.98,3.53,2.99,6.17,5.99,7.86c5.73,3.23,13.38,2.02,16.27,1.39l0.68,3.54
			c0.06,0.31,0.25,0.58,0.53,0.74c0.27,0.16,0.6,0.19,0.9,0.08c6.16-2.15,10.45,0.57,12.89,3.06
			c-65.57,12.08-133.25,14.2-142.26,12.62c-0.61-0.11-1.16,0.29-1.26,0.88c-0.1,0.59,0.29,1.15,0.89,1.26
			c5.84,1.02,28.9,0.74,59.13-1.69c20.48-1.65,44.25-4.29,68.18-8.18c5.51-0.9,11.19-1.89,16.94-2.97c0.49,0.68,0.76,1.17,0.79,1.21
			c3.76,12.39-5.75,19.03-6.16,19.3c-0.49,0.33-0.62,1-0.3,1.49c0.32,0.5,0.98,0.65,1.48,0.33c1.41-0.88,2.79-1.49,4.12-1.87
			c1.93-0.55,3.78-0.57,5.51-0.07c0.05,0.02,0.11,0.02,0.16,0.04c5.21,1.61,7.87,7.52,7.92,7.62c5.68,11.45-0.72,15.01-0.99,15.15
			c-0.43,0.22-0.67,0.7-0.57,1.18c0.1,0.48,0.5,0.83,0.98,0.87c11.12,0.89,16.21,16.81,16.28,17.03c0.01,0.04,0.02,0.07,0.04,0.11
			c-77.14,27.3-151.63,31.43-152.65,31.48c-0.08,0.01-0.15,0.02-0.23,0.04c-16.53,4.5-37.67,4.16-57.05,0.31
			C163.6,385.31,163.55,368.52,163.54,368.4z M202.2,223c7.19-14.81,23.71-23.29,36.22-27.79c2.48,0.27,5.04,0.51,7.73,0.7
			c6.88,0.47,14.29,0.33,21.99-0.29c36.63-2.95,79.74-16.65,102.57-25.67c9.09-3.59,18.2-7.52,26.4-11.9
			c1.53,0.12,2.96,0.55,3.63,1.69c1.37,2.35-0.41,7.32-4.88,13.63c-7.65,10.82-34.96,14.16-35.23,14.2
			c-0.48,0.06-0.87,0.42-0.95,0.9c-0.08,0.48,0.17,0.95,0.6,1.16c4.45,2.13,6.63,4.48,6.47,6.98c-0.49,8.01-23.05,17.31-31.7,20.23
			c-0.4,0.14-0.69,0.5-0.73,0.92c-0.04,0.42,0.16,0.83,0.53,1.05c4.62,2.71,7.27,5.67,7.9,8.83c-28.75,9.07-57.82,17.74-78.18,23.81
			c-15.39,4.59-25.56,7.62-28.13,8.58c-4.13,1.55-19.11,4.42-35.46,5.35C196.82,254.47,194.34,239.2,202.2,223z M255.02,190.11
			c4.5-13,7.67-15.8,7.68-15.81c0.06-0.05,0.12-0.1,0.16-0.16c30.07-36.32,52.09-24.08,52.31-23.95c0.48,0.28,1.1,0.15,1.42-0.29
			c0.12-0.15,11.73-15.36,40.23-19.47c28.35-4.1,42.95,12.74,43,12.78c2.58,4.16,3.34,7.45,2.2,9.55c-1.65,1-3.36,1.97-5.11,2.92
			c-0.32,0.06-0.62,0.1-0.9,0.13c-0.52,0.01-1.06,0.04-1.63,0.09c-0.57,0.06-1,0.55-0.98,1.12c0.01,0.16,0.05,0.3,0.12,0.44
			c-7.43,3.8-15.54,7.25-23.63,10.45c-27.46,10.86-84.39,28.52-123.61,25.82c-0.95-0.06-1.86-0.15-2.78-0.22
			c6.19-1.9,10.53-2.67,10.66-2.69C254.57,190.76,254.89,190.48,255.02,190.11z M459.59,260.86c-2.51,1.87-5.22,3.67-8.09,5.41
			c-3.13,0.91-7.04,1.51-11.73,1.2c-0.45-0.02-0.87,0.22-1.06,0.63c-0.19,0.41-0.1,0.9,0.22,1.22c0.1,0.1,1.09,1.04,3.41,2.04
			c-23.76,12.02-55.89,20.72-88.74,26.9c-2.54-2.97-7.51-7.01-14.84-5.02l-0.67-3.47c-0.06-0.3-0.24-0.56-0.5-0.72
			c-0.26-0.16-0.58-0.21-0.87-0.12c-0.09,0.03-9.49,2.61-15.75-0.92c-2.47-1.39-4.14-3.6-4.96-6.54c-1.78-6.43,3.67-9.76,6.09-10.89
			c6.23-2.91,14.45-2.33,16.89,1.2c0.22,0.32,0.59,0.5,0.98,0.47c0,0,0,0,0,0c0.38-0.03,0.72-0.26,0.89-0.61
			c0.26-0.54,6.37-13.29,2.34-22.17c-1.37-3.01-3.73-5.21-7.03-6.56c3.07-2.3,8.89-7.49,8.91-13.72
			c28.61-9.05,56.76-18.46,75.55-26.09c5.14-2.09,9.74-4.24,13.88-6.42c11.79,29.05,24.65,35.25,29.61,36.57
			C461.04,236.98,454.32,247.32,459.59,260.86z M463.4,273.58c0.95,5.63,4.81,35.23-15.18,54.7
			c-20.26,19.74-69.45,13.49-77.94,12.24c0.88-2.84,0.84-6.96-2.03-12.74c-0.12-0.28-3.06-6.86-9.23-8.78
			c-2.03-0.63-4.16-0.68-6.36-0.15c2.72-3.65,5.37-9.66,2.88-17.82c-0.01-0.02-0.19-0.34-0.51-0.83
			c31.41-6.03,65.05-14.94,89.94-27.89c3.8,1.13,9.63,1.98,18.34,1.28C463.35,273.58,463.37,273.58,463.4,273.58z M463.76,373.58
			c0.19,1.48,0.63,4.81,1.23,9.08c-19.25,10.23-42.23,20.61-69.47,30.38c-2.76-18.43-9.12-21.16-15-22.87
			c1.49-1.06,3.35-2.84,4.69-5.68c2.44-5.19,2.26-11.98-0.45-20.13c15.68-5.63,31.44-12.22,46.7-19.92
			C434.21,353.09,442.24,369.8,463.76,373.58z M388.1,442.56c3.77-2.51,9.89-9.32,7.84-26.57c-0.03-0.26-0.07-0.49-0.1-0.75
			c27.22-9.74,50.2-20.09,69.49-30.3c1.7,11.69,4.4,28.38,6.75,34.16c-2.02,2.83-14.08,18.14-44.6,27.46
			c-0.24,0.03-23.63,2.82-34.13-0.29C392,444.78,390.29,443.43,388.1,442.56z M384.07,362.31c-0.01-0.03-0.02-0.06-0.03-0.09
			c-0.21-0.67-4.89-15.34-15.77-18.09c0.38-0.42,0.76-0.94,1.11-1.54c3.88,0.62,21.53,3.17,40.22,1.66
			c7.03-0.57,14.19-1.72,20.81-3.75c0.1,0.49,0.25,1.1,0.44,1.82C415.57,350.05,399.78,356.67,384.07,362.31z M419.8,201.07
			c-18.65,7.57-46.56,16.91-74.99,25.9c-0.72-3.2-3.02-6.16-6.93-8.83c7.61-2.75,30.45-11.77,31.04-21.41
			c0.17-2.77-1.45-5.28-4.83-7.48c7.7-1.25,26.89-5.24,33.54-14.63c4.34-6.13,6.21-11.01,5.56-14.32
			c4.97,1.38,19.06,7.58,30.45,34.35C429.53,196.83,424.95,198.98,419.8,201.07z M444.01,269.68c0.6-0.03,1.17-0.08,1.74-0.13
			c-0.27,0.15-0.55,0.29-0.83,0.43C444.61,269.89,444.29,269.79,444.01,269.68z M155.03,257.35c-4.46-3.92-5.87-9.08-4.3-15.76
			c6.49-27.66,18.19-49.55,49.39-68.17c-0.77,2.28-0.68,4.56,0.34,6.74c3.2,6.82,15.06,11.91,33.16,14.46
			c-12.16,4.9-26.56,13.39-33.38,27.44c-8.04,16.57-5.71,32.17-1.54,43.44C181.59,266.26,163.47,264.78,155.03,257.35z
			 M124.81,373.17c-6.53-7.11-8.34-14.84-5.36-22.96c11.43-31.24,47.98-45.02,56.37-47.82c-3.06,17.13,8.79,30.04,13.99,34.76
			c-7.32,0.45-25.07,4.34-28.43,31.1c-0.01,0.88,0.03,15.73,7.25,25.87C150.03,389.99,133.47,382.61,124.81,373.17z M404.16,461.37
			c1.54-0.93,3.45-2.09,5.49-3.61c0.49-0.36,0.96-0.44,1.53-0.27c3,0.9,6.53,7.92,7.16,9.64c0.37,1.01,0.43,3.4,0.48,5.32
			c0.02,0.65,0.03,1.28,0.06,1.85c0.02,0.54-2,0.9-3.47,1.16c-1.62,0.29-3.46,0.62-5.07,1.34c-1.49,0.67-2.17,0.98-2.17,1.86
			c0,0.81,0.69,1.13,1.15,1.34c0.74,0.34,1.98,0.9,2.77,2.84c1.74,4.29,2,5.33-1.11,8.99c-0.35,0.41-1.11,1.3-1.67,1.88
			c-0.02-0.07-0.03-0.14-0.05-0.21c-0.07-0.28-0.14-0.59-0.23-0.93c-0.55-2.07-2.06-5.06-3.06-7.04c-0.41-0.8-0.72-1.42-0.82-1.68
			c-0.33-0.93-3.17-5.5-4.23-7.19c-0.31-2.84-0.58-5.99-0.53-6.5c0.02-0.18,0.04-0.51,0.07-0.94c0.09-1.24,0.35-5,0.74-5.76
			C401.39,463.06,402.86,462.16,404.16,461.37z M467.04,381.55c-0.48-3.4-0.84-6.12-1.05-7.65c0.29-0.04,5.3-0.69,13.03-1.56
			c0.08,0.57,0.2,1.35,0.36,2.31C475.46,376.93,471.35,379.23,467.04,381.55z M481.41,373.46c-0.09-0.54-0.16-1-0.22-1.37
			c0.99-0.11,2.02-0.22,3.08-0.34C483.33,372.32,482.37,372.89,481.41,373.46z"/>
		<path class="st16" d="M375.51,567.61c0.45-3.03-1.5-5.44-4.96-6.15c-3.44-0.7-7.69,0.56-8.54,3.82c-0.86,3.28-0.28,6.62,0.14,9.07
			c0.21,1.2,0.4,2.34,0.32,2.94c-0.07,0.54-0.77,1.03-1.5,1.56c-0.4,0.29-0.84,0.6-1.23,0.97c-0.05-0.13-0.09-0.27-0.15-0.39
			l-0.31-0.68c-2.01-4.46-2.38-5.26-5.47-5.57c-3.24-0.33-5.24,4.26-6.99,8.31l-0.24,0.55c-1.66,3.84-0.95,13.06-0.91,13.45
			c0.01,0.11,0.03,0.22,0.07,0.32c1.38,3.44,3.37,5.44,5.91,5.95c0.63,0.13,1.25,0.15,1.86,0.1c3.81-0.31,7.11-3.57,7.26-3.73
			c0.19-0.19,0.3-0.43,0.32-0.69c0.01-0.1,0.04-0.62,0.08-1.44c0.36,0.61,0.78,1.21,1.25,1.79c0.18,0.22,0.44,0.36,0.72,0.39
			c0.2,0.02,2.07,0.22,4.4,0.03c3.92-0.32,9.14-1.73,9.88-6.92c0.57-3.98-0.22-8.63-0.99-13.14
			C375.74,574.17,375.09,570.4,375.51,567.61z M375.26,590.99c-0.78,5.48-9.39,5.22-11.44,5.07c-1.44-1.9-2.19-4.13-2.59-6.26
			c-0.05-1.93-0.19-3.99-0.47-5.87c0-0.04,0-0.09,0-0.13c0-0.58-0.01-1.06-0.03-1.43c-0.04-0.58,0.46-0.99,1.51-1.75
			c1.03-0.73,2.19-1.56,2.39-3.03c0.13-0.94-0.07-2.12-0.33-3.62c-0.41-2.37-0.92-5.32-0.18-8.14c0.51-1.94,3.58-2.74,6-2.24
			c1.11,0.23,3.64,1.04,3.24,3.7c-0.46,3.12,0.21,7.07,0.92,11.24C375.02,582.87,375.78,587.35,375.26,590.99z M352.08,599.63
			c-1.74-0.36-3.17-1.86-4.25-4.48c-0.2-2.64-0.42-9.52,0.76-12.24l0.24-0.55c1.16-2.68,3.06-7.16,4.78-7.01
			c1.85,0.18,1.85,0.18,3.7,4.3l0.31,0.68c0.44,0.97,0.75,2.27,0.97,3.7c0.01,1.57,0.05,3.72,0.47,6.03
			c0.07,3.05-0.05,5.79-0.11,6.81C358,597.72,354.91,600.21,352.08,599.63z"/>
		<path class="st16" d="M390.15,537.64c-1.2,0-2.46,0-3.74-0.05c-1.98-0.08-3.65,0.59-4.98,1.98c-4.1,4.27-3.38,13.87-3.35,14.28
			c0.04,0.48,0.29,0.91,0.7,1.2c1.93,1.37,9.55-0.39,12.74-1.21c0.34-0.09,0.61-0.33,0.74-0.65c0.06-0.15,0.11-0.25,0.13-0.3
			c1.03,0.53,3.37,4.74,5.12,9.29c0.17,0.44,0.6,0.7,1.07,0.68c0.01,0,0.03,0,0.04,0c0.45-0.04,0.84-0.36,0.96-0.8
			c0.05-0.19,0.41-0.84,0.73-1.41c1.7-3.07,5.23-9.46,3.53-15.86C401.94,537.65,396.22,537.64,390.15,537.64z M392.15,550.67
			c-0.52,0.04-1.16,0.31-1.66,1.18c-4.16,1.04-8.96,1.82-10.26,1.48c-0.17-2.75,0.04-9.42,2.77-12.26c0.9-0.93,1.98-1.36,3.33-1.31
			c1.31,0.05,2.59,0.05,3.82,0.05c6.65,0,10.19,0.25,11.58,5.51c1.41,5.3-1.47,10.88-3.1,13.83c-1.64-3.86-4.07-8.48-6.3-8.49
			C392.27,550.66,392.21,550.66,392.15,550.67z"/>
		<path class="st16" d="M456.21,551.14c0,0-0.01,0-0.02,0c-0.84-0.24-2.91-3.75-4.28-6.08c-3.24-5.51-6.6-11.21-10.11-9.28
			l-0.75,0.41c-4.67,2.55-11.07,6.05-10.58,12.02c0.03,0.37,0.25,0.7,0.58,0.87c0.33,0.17,0.72,0.17,1.04-0.01
			c0.02-0.01,2.23-1.22,4.15-0.31c1.57,0.75,2.63,2.71,3.16,5.84c0.73,4.27,0.55,6.82,0.41,8.87c-0.2,2.91-0.34,4.83,2.32,8.46
			l0.82,1.13c1.38,1.92,1.96,2.71,2.93,2.86c0.15,0.02,0.29,0.03,0.43,0.02c0.66-0.05,1.22-0.47,1.94-1.01
			c0.78-0.58,1.96-1.46,3.91-2.43c6.35-3.15,12.95-7.05,11.03-13.48C461.85,554.51,460.39,550.8,456.21,551.14z M451.19,570.55
			c-2.13,1.06-3.4,2-4.24,2.63c-0.27,0.2-0.57,0.42-0.75,0.53c-0.3-0.28-0.88-1.08-1.49-1.93l-0.83-1.14
			c-2.19-2.98-2.09-4.33-1.9-7.02c0.14-2.05,0.34-4.85-0.43-9.38c-0.66-3.87-2.14-6.38-4.39-7.44c-1.05-0.5-2.12-0.6-3.06-0.53
			c-0.49,0.04-0.95,0.13-1.36,0.24c0.83-3.74,5.69-6.4,9.35-8.4l0.76-0.41c1.68-0.91,5.12,4.97,7.19,8.47
			c2.82,4.8,4.38,7.29,6.25,7.14c1.98-0.16,3.14,0.72,4.82,6.34C462.41,563.98,458.28,567.03,451.19,570.55z"/>
		<path class="st16" d="M481.6,517.67c-1.04-1.03-2.23-1.55-3.55-1.54c-2.53,0.04-4.43,1.99-4.5,2.08
			c-0.42,0.43-0.41,1.11,0.02,1.53c0.11,0.11,0.25,0.19,0.39,0.24c0.39,0.14,0.84,0.06,1.15-0.25c0.01-0.01,1.43-1.41,2.98-1.42
			c0.72,0,1.37,0.29,1.98,0.91c1.72,1.7,3.01,12.49,3.61,20.93c-1.17-1.1-2.75-2.5-4.88-4.31c-5.89-5.01-6.22-7.34-6.09-8.11
			c0.1-0.6,0.6-0.82,0.67-0.85c0.56-0.2,0.86-0.81,0.67-1.37c-0.12-0.36-0.42-0.6-0.77-0.69c-0.2-0.05-0.4-0.06-0.61,0.01
			c-0.64,0.22-1.81,0.98-2.09,2.46c-0.49,2.55,1.74,5.89,6.81,10.21c3.89,3.31,5.67,5.04,6.49,5.93c0.01,0.23,0.02,0.46,0.03,0.69
			c0.02,0.41,0.27,0.78,0.65,0.94c0.37,0.16,0.7,0.21,0.97,0.19c0.46-0.04,0.79-0.28,0.97-0.57c0.29-0.46,0.53-0.84-0.5-2.12
			C485.67,536.71,484.49,520.54,481.6,517.67z"/>
		<path class="st16" d="M468.9,484.28c1.25-0.32,2.54-0.66,2.78-1.87c0.24-1.18-0.65-2.34-3.39-4.45c-2.1-1.61-3.38-2.46-4.24-3.01
			c-1.46-0.95-1.58-1.03-2.84-3.11c-2.26-3.73-5.49-5.54-9.35-5.23l-0.69,0.05c-2.95,0.24-5.5,0.41-6.35,3.83
			c-0.18,0.73-0.69,1.41-1.19,2.07c-0.71,0.94-1.51,2.01-1.26,3.3c0.19,0.98,0.94,1.82,2.34,2.65c2.66,1.57,4.54,3.22,5.5,4.14
			c-1.57,1.62-4.76,5.29-4.72,8.39l0.01,0.94c0.03,3.41,0.06,6.93,2.22,9.22c1.04,1.1,2.03,1.4,2.94,1.32
			c0.89-0.07,1.69-0.5,2.37-0.85c0.47-0.25,0.92-0.48,1.38-0.63c1.48-0.46,2.31-2.2,3.36-4.4c0.92-1.92,1.95-4.1,3.55-5.75
			c1.39-1.42,2.25-2.55,2.94-3.45c1.05-1.37,1.58-2.06,2.98-2.66C467.78,484.57,468.37,484.42,468.9,484.28z M462.55,486.13
			c-0.66,0.86-1.48,1.93-2.77,3.26c-1.86,1.91-3.02,4.36-3.96,6.33c-0.65,1.37-1.47,3.08-2.03,3.26c-0.65,0.2-1.24,0.51-1.75,0.78
			c-1.39,0.73-1.82,0.9-2.71-0.04c-1.57-1.67-1.6-4.76-1.62-7.75l-0.01-0.95c-0.03-2.47,3.47-6.29,4.83-7.56
			c0.43-0.4,0.46-1.07,0.07-1.52c-0.1-0.11-2.48-2.78-6.74-5.3c-1.13-0.67-1.29-1.09-1.31-1.2c-0.07-0.34,0.41-0.97,0.86-1.58
			c0.6-0.8,1.28-1.7,1.56-2.86c0.42-1.7,1.3-1.94,3.9-2.14c0.16-0.01,0.32-0.02,0.49-0.04l0.7-0.05c3.02-0.24,5.48,1.17,7.31,4.19
			c1.47,2.43,1.83,2.71,3.51,3.81c0.82,0.54,2.07,1.35,4.1,2.92c1.57,1.2,2.18,1.86,2.43,2.19c-0.29,0.11-0.72,0.22-1.04,0.3
			c-0.61,0.16-1.3,0.34-1.96,0.62C464.47,483.61,463.66,484.67,462.55,486.13z"/>
		<path class="st16" d="M521.3,442.1c-1.95-9.31-11.79-9.74-15.98-9.93c-0.38-0.02-0.79-0.03-1.09-0.06
			c-0.8-2.65-2.45-6.75-5.33-7.98c-1.32-0.56-2.78-0.46-4.21,0.31c-5.3,2.84-2.8,10.96-1.85,13.51l-7.61,6.3
			c-0.36,0.3-0.49,0.78-0.33,1.22c0.16,0.43,0.58,0.72,1.04,0.71l14.15-0.29l10.17,7.94c0.18,0.14,0.41,0.23,0.65,0.23
			c0.06,0,0.44,0.01,1.02-0.04c1.81-0.15,5.58-0.78,7.86-3.55C521.52,448.37,522.03,445.56,521.3,442.1z M511.29,451.87l-10.17-7.94
			c-0.2-0.15-0.44-0.24-0.69-0.23l-11.41,0.23l5.82-4.81c0.37-0.31,0.5-0.82,0.3-1.27c-0.04-0.09-3.78-9.15,0.58-11.5
			c0.85-0.45,1.61-0.53,2.33-0.22c1.61,0.69,3.19,3.33,4.26,7.15c0.27,0.94,1.15,0.98,2.92,1.06c4.01,0.18,12.34,0.55,13.95,8.2
			c0.58,2.78,0.23,4.97-1.05,6.53C516.14,451.47,512.43,451.81,511.29,451.87z"/>
		<path class="st16" d="M539.2,470.37c-1.8-2.4-5.21-3.89-7.87-3.47c-1.81,0.29-3.13,1.4-3.73,3.15c-0.38,1.13-1.17,2.09-2,3.12
			c-1.75,2.16-3.89,4.79-3.22,10.05c-0.78-0.13-1.72-0.12-2.7,0.23c-1.92,0.69-3.41,2.47-4.42,5.29c-0.11,0.32-0.07,0.68,0.12,0.97
			c0.19,0.29,0.5,0.47,0.85,0.48c0.17,0.01,17.43,1.13,21.26,14.09c0.09,0.31,0.31,0.56,0.6,0.69c0.07,0.03,1.11,0.48,2.35,0.38
			c0.73-0.06,1.53-0.31,2.25-0.95c2.54-2.29,2.26-8.11-0.87-17.78C541.8,484.66,541.62,473.59,539.2,470.37z M539.4,503.11
			c-3.84-11.72-17.02-14.37-21.54-14.94c0.69-1.4,1.54-2.3,2.53-2.66c1.45-0.53,2.82,0.25,2.83,0.25c0.37,0.22,0.84,0.2,1.19-0.06
			c0.35-0.26,0.52-0.7,0.42-1.12c-1.25-5.49,0.55-7.7,2.45-10.04c0.92-1.13,1.86-2.29,2.37-3.79c0.34-0.99,0.99-1.54,2.01-1.7
			c1.88-0.27,4.48,0.88,5.79,2.63c1.75,2.34,2.17,11.7,2.18,15.11c0,0.11,0.02,0.23,0.05,0.33c3.85,11.87,2.36,14.9,1.54,15.65
			C540.67,503.28,539.88,503.22,539.4,503.11z"/>
		<path class="st16" d="M532.68,522.68c-3.19-1.37-6.38-1.05-8.75,0.86c-3.36,2.72-5.38,7.3-5.03,11.42
			c0.21,2.44,1.32,5.83,5.48,8.15c7.42,4.15,11.68,12.17,11.73,12.25c0.21,0.4,0.63,0.61,1.05,0.58c0.12-0.01,0.24-0.04,0.35-0.09
			c0.52-0.23,0.78-0.83,0.58-1.37c-1.44-3.95-0.59-11.07,0.1-16.8c0.39-3.24,0.73-6.04,0.59-7.78
			C538.54,527.09,536.04,524.12,532.68,522.68z M536.02,537.43c-0.48,3.97-1.03,8.59-0.87,12.54c-2.12-2.8-5.4-6.34-9.72-8.76
			c-2.63-1.47-4.14-3.7-4.37-6.44c-0.29-3.37,1.46-7.3,4.23-9.54c0.87-0.7,1.9-1.1,3.03-1.19c1.11-0.09,2.3,0.12,3.5,0.64
			c2.61,1.12,4.62,3.39,4.78,5.41C536.72,531.6,536.4,534.3,536.02,537.43z"/>
		<path class="st16" d="M548.04,372.53c-0.59,0.08-1.01,0.63-0.93,1.23c0.08,0.59,0.64,1.02,1.23,0.93c0.1-0.01,9.3-1.23,15.54,3.7
			c3.28,2.59,5.18,6.46,5.66,11.49c0.06,0.59,0.58,1.03,1.17,0.98c0,0,0.01,0,0.01,0c0.6-0.06,1.04-0.59,0.98-1.18
			c-0.53-5.65-2.71-10.02-6.47-13C558.27,371.17,548.45,372.48,548.04,372.53z"/>
		<path class="st16" d="M302.42,491.4c-0.54-0.24-1.19,0.01-1.43,0.56c-0.24,0.55-24.76,55.04-70.34,53.73
			c-0.58-0.02-1.1,0.45-1.12,1.06c-0.02,0.6,0.46,1.1,1.06,1.12c2.16,0.06,4.26,0.01,6.32-0.16c42.97-3.46,65.84-54.33,66.07-54.87
			C303.22,492.28,302.97,491.64,302.42,491.4z"/>
		<path class="st16" d="M264.18,483.57c0.38-0.46,0.31-1.15-0.15-1.53c-0.46-0.38-1.15-0.31-1.53,0.15
			c-0.37,0.45-37.97,45.04-89.84,16.91c-0.52-0.28-1.19-0.09-1.47,0.44c-0.29,0.53-0.09,1.19,0.44,1.47
			c14.94,8.1,28.73,10.35,40.85,9.38C243.73,507.86,263.91,483.91,264.18,483.57z"/>
		<path class="st16" d="M230.61,112.1c0.23-0.35,23.1-35.57,72.14-39.98c15.16-1.29,25.52,1.55,30.94,8.64
			c7.89,10.33,2.7,26.53,2,28.56c-1.81,1.8-20.55,19.15-67.14,18.55c-5.41-0.26-13.28-1.8-13.8-4.43
			c-0.22-1.08,0.65-4.24,13.34-10.27c22.4-10.65,27.71-12.46,28.94-12.76c0.42,0.18,0.92,0.08,1.24-0.28
			c0.34-0.39,0.39-1.06,0.07-1.47c-0.67-0.9-1.26-1.68-31.19,12.55c-10.64,5.06-15.26,9.08-14.54,12.66
			c1.04,5.21,13.37,6.05,15.87,6.17c5.8,0.07,11.16-0.12,16.12-0.52c37.86-3.05,52.17-18.16,52.83-18.88
			c0.1-0.1,0.17-0.22,0.22-0.36c0.29-0.77,6.88-18.9-2.24-30.84c-5.9-7.73-16.92-10.89-32.87-9.5
			c-50.09,4.5-73.55,40.61-73.78,40.98c-0.32,0.51-0.17,1.18,0.34,1.5C229.61,112.75,230.28,112.61,230.61,112.1z"/>
		<path class="st16" d="M309.07,102.6c0.23,0.21,0.53,0.3,0.81,0.27c0.27-0.02,0.53-0.14,0.72-0.36l8.58-9.58
			c0.3-0.33,0.36-0.81,0.16-1.21c-0.2-0.4-0.62-0.64-1.06-0.6L309,91.88c-0.6,0.05-1.04,0.57-1,1.17c0.05,0.6,0.57,1.04,1.17,1
			l6.58-0.53l-6.77,7.55C308.59,101.51,308.63,102.2,309.07,102.6z"/>
		<path class="st16" d="M214.72,470.07c5.96-0.48,9.81-2.09,9.9-2.12c0.55-0.24,0.81-0.87,0.57-1.43c-0.24-0.55-0.87-0.81-1.43-0.57
			c-0.17,0.07-17.09,7.07-34.69-4.95c1.51-3.31,9.05-16.69,33.18-17.43c0.6-0.01,1.07-0.52,1.05-1.12c-0.02-0.6-0.52-1.07-1.12-1.05
			c-28.86,0.89-35.23,18.89-35.48,19.65c-0.15,0.45,0.01,0.95,0.4,1.23C197.4,469.6,207.57,470.64,214.72,470.07z"/>
		<path class="st16" d="M200.48,304.55c-10.69,4.46-15.46,8.21-14.99,11.8c0.61,4.67,10.3,6.11,11.41,6.26
			c0.08,0.01,0.16,0.01,0.23,0.01c0.5-0.04,0.92-0.42,0.99-0.94c0.08-0.6-0.34-1.14-0.93-1.22c-3.79-0.52-9.26-2.22-9.54-4.39
			c-0.14-1.08,0.91-4.18,13.67-9.51c0.55-0.23,0.81-0.87,0.58-1.42C201.67,304.58,201.04,304.32,200.48,304.55z"/>
		<path class="st16" d="M479.84,319.11c-0.47,0.37-0.56,1.05-0.19,1.53c0.24,0.3,0.59,0.44,0.95,0.42c0.21-0.02,0.41-0.09,0.58-0.23
			c9.55-7.45,6.55-15.44,6.42-15.77c-0.07-0.19-0.2-0.35-0.36-0.47c-7.32-5.53-15.66,1.12-15.74,1.18
			c-0.47,0.38-0.54,1.06-0.16,1.53c0.38,0.47,1.06,0.54,1.53,0.16c0.28-0.23,6.91-5.46,12.79-1.33
			C486.06,307.48,487.21,313.36,479.84,319.11z"/>
		<path class="st16" d="M350.78,442.96c-0.59,0.08-1.01,0.63-0.93,1.23c0.08,0.54,6.88,54.58-50.38,86.42
			c-0.52,0.29-0.71,0.95-0.42,1.48c0.21,0.38,0.63,0.59,1.04,0.56c0.15-0.01,0.3-0.06,0.44-0.13c58.6-32.58,51.56-88.06,51.48-88.62
			C351.92,443.29,351.3,442.88,350.78,442.96z"/>
		<path class="st16" d="M335.62,281.45c-2.95,0.54-5.04,0.31-6.06-0.67c-0.88-0.84-0.72-2.04-0.71-2.12
			c0.09-0.59-0.31-1.15-0.9-1.24c-0.59-0.1-1.15,0.3-1.25,0.89c-0.02,0.1-0.37,2.35,1.32,4c1.27,1.25,3.28,1.76,5.99,1.55
			c0.63-0.05,1.3-0.14,2-0.27c0.59-0.11,0.98-0.68,0.87-1.27C336.77,281.73,336.16,281.35,335.62,281.45z"/>
	</g>
	<g class="st40">
		<path class="st12" d="M1015.66,611.64l2.54-21.27l2.69-18.93l3.09-4.05l8.84-4.81c0,0,12.49-3.44,12.7-3.55s12.25-3.17,12.25-3.17
			l9.12-0.56l12.42-1.47l10.08-1.76l15.29-3.65l10.48-3.25l11.5-5.15l42.38-19l30.26-18.72l18.28-9.39l14.73-4.04l7.06,6.92
			l20.19,26.03C1259.54,521.83,1028.8,607.18,1015.66,611.64z"/>
		<path class="st16" d="M1014.31,613.3l2.75-23.07l2.73-19.25l3.63-4.59l8.95-4.87l0.13-0.03c4.78-1.32,12.11-3.35,12.6-3.52
			c0.01-0.02,0.17-0.11,12.37-3.21l9.34-0.59l12.36-1.46l10.02-1.75l15.22-3.63l10.41-3.23l53.75-24.1l30.13-18.65l18.47-9.49
			l15.48-4.24l7.52,7.38l21.25,27.37l-1.46,0.54c-2.31,0.85-230.91,85.41-243.92,89.82L1014.31,613.3z M1021.97,571.9l-2.64,18.64
			l-2.32,19.42c23.58-8.37,221.58-81.6,240.68-88.66l-19.24-24.8l-6.48-6.35l-13.99,3.83l-18.18,9.34L1169.62,522l-54.01,24.22
			l-10.61,3.3l-15.36,3.67l-10.15,1.77l-12.48,1.48l-9.19,0.57c-4.38,1.13-11.39,2.93-11.93,3.1c0.01,0.01-0.17,0.11-12.66,3.55
			l-8.51,4.63L1021.97,571.9z"/>
		<g>
			<g>
				<polygon class="st10" points="1099.93,100.52 1118.08,124.67 1069.33,155.42 1051.83,134.14 1039.19,141.83 1033.04,140.32 
					1029.65,136.54 1026.97,130.64 1027.51,126.68 1031.32,123.56 1037.95,119.69 1020.18,102.58 1036.83,90.84 1024.7,80.21 
					1023.19,74.46 1025.66,70.68 1030.47,68.04 1035.24,66.96 1039.56,67.9 1043.05,70.81 1050.21,81.68 1071.5,67.72 
					1087.73,86.36 1077.94,92.03 1075.1,98.43 1078.17,104.79 1081.62,107.23 1085.84,107.86 1092.13,105.18 				"/>
			</g>
		</g>
		<g>
			<g>
				<polygon class="st9" points="860.27,159.05 868.37,145.31 890.58,155.18 885.22,167.82 873.52,165.04 870.91,167.07 
					871.1,170.34 872.98,172.75 883.06,177.12 876.01,194.69 850.24,186.81 856.8,174.16 842.87,169.27 840.11,164.28 840.6,159.16 
					843.96,155.22 850.06,155.14 				"/>
			</g>
		</g>
		<g>
			<g>
				<polygon class="st7" points="853.16,288.44 847.87,271.11 916.76,246.48 923.15,265.3 938.79,260.6 943.89,262.72 
					944.75,266.35 946.03,269.75 945.57,272.81 942.7,275.74 928.79,281.69 937.1,305.74 916.55,312.01 919.62,321.58 
					919.85,326.81 915.83,332.3 909.54,334.22 903.03,332.95 898.75,329.67 895.53,319.13 869.63,327.86 860.79,303.43 
					868.25,301.34 872.52,299.09 875.28,295.55 874.74,287.18 872.07,282.52 867.85,281.89 				"/>
			</g>
		</g>
		<g>
			<polygon class="st26" points="1020.86,570.05 1016.72,597.61 1009.45,598.98 1000.34,598.95 1000.44,594.77 1006.87,585.01 			
				"/>
		</g>
		<g>
			<polygon class="st26" points="1249.36,507.18 1233.53,489.17 1244.84,487.97 1256.47,489.03 1263.59,491.42 1266.13,493.76 
				1264.38,498.15 1251.27,506.59 			"/>
		</g>
		<g>
			<path class="st26" d="M998.72,595.66l3.57-3.95l8.28-11.42l11.52-11.46c0,0,8.16-5.31,8.35-5.41c0.19-0.09,8.82-3.06,8.82-3.06
				l14-4.27l10.45-0.53l17.13-1.56l17.84-3.86l17.31-4.95l11.17-5.49l28.05-12.22l18.53-9.28l29.86-18.37l13.39-6.39l13.17-4.37
				l12.26-1.09l5.7,0l10.86,1.68l2.76-0.09l-5.12-5.22l-41.22-44.27l-15.18-19.35l-11.95-20.3l-13.22-20.69l-5.28-6.51l-3.93-4.03
				l5.6,1.22l6.07,1.13l5.34,0.19l-2.64-2.55l-15.66-14.93l-5.43-6.23l-7.09-12.13l-8.54-19.95l-3.13-10.31l-1.83-5.94l-7.19-0.86
				l-70.03-8.42l-1.34,4.31l-3.28,6.88l-7.98,7.28l-10.2,5.73l-11.12,3.8l-9.81,1.85l-12.27,0.13l-9.17-2.13l-6.15-2.69l-11.58,8.93
				l8.92,30.4l-28.59,8.62l3.17,10.4l-0.04,4.15l-3.26,3.93l-5.94,1.86l-4.34-0.03l-2.75-1.83l-1.19-4.27l-2.14-7.03l-14,3.66
				l-19.01,31.69l-3.07,11.31l0.46,9.78l5.32,8.94l6.53,7.54l5.14,4.26l12.28,6.05l6.92,1.92l9.27,2.43l7.72,3.53l11.67,4.63
				l7.98,3.13l3.35,14.34l4.81,22.47l5.1,26.35l4.06,21.29l0.61,4.93l-0.27,12.11l0.03,12.51l-0.03,8.22L998.72,595.66z"/>
		</g>
		<g>
			<g>
				<polygon class="st7" points="1125.12,538.86 1118.71,512.4 1145.44,501.82 1141.72,489.64 1145.58,484.24 1152.78,481.43 
					1158.09,481.19 1162.66,484.02 1165.94,493.51 1189.28,481.91 1193.1,494.44 1203.56,491.38 1208.05,493.08 1209.71,495.97 
					1192.74,506.52 1180.07,515.06 1154.54,527.77 1130.76,538.23 1125.46,540.54 				"/>
			</g>
		</g>
		<g>
			<g>
				<polygon class="st20" points="1091.45,361.37 1117.67,350.81 1125.98,367.99 1142.88,364.33 1146.89,367.72 1148.31,372.08 
					1148.84,377.59 1147.2,380.87 1136.94,385.44 1132.92,387.05 1142.23,409.07 1069.72,435.09 1047.27,379.3 1070.52,370.38 
					1064.19,353.4 1064.13,348.81 1069.06,343.9 1075.21,342.03 1080.09,341.64 1087.26,349.43 				"/>
			</g>
		</g>
		<g>
			<g>
				<polygon class="st11" points="1049.64,287.87 1038.72,257.59 1036.75,242.71 1042.72,233.78 1046.73,229.49 1047.23,225.99 
					1043.97,222.12 1039.9,222.42 1036.33,224.34 1033.08,222.16 1028.12,218.42 1026.38,213.6 1026.62,208.75 1022.04,209.37 
					1017.1,206.4 1015.15,201.69 1014.78,199.65 1006.58,201.03 1002.49,197.92 1001.02,193.1 1000.5,189.35 997.62,193.57 
					990.63,197 985.15,195.42 983.67,199.79 980.82,203.84 976.17,205.15 973.37,207.33 968.53,207.93 969.72,211.65 970.42,215.63 
					964.59,218.45 968.2,224.97 968.51,228.59 964.95,230.09 958.15,231.94 960.95,239.98 964.83,243.68 966.84,251.5 
					968.03,257.85 973.68,273.91 978.6,280.97 984.68,285.06 991.97,287.44 998.36,287.22 999.35,290.19 1000.11,296.91 
					998.79,303.76 996.78,309.37 996.4,310.39 1000.08,312.72 1014.14,314.58 1031.72,310.22 1047.54,300.4 1051.43,291.28 				"/>
			</g>
		</g>
		<g>
			<g>
				<polygon class="st11" points="1185.42,372.57 1192.48,372.65 1202.56,367.34 1209.55,358.52 1212,348.68 1212.03,340.66 
					1211.31,331.06 1209.84,320.41 1206.53,305.26 1203.85,296.49 1197.21,281.77 1189.54,266.4 1182.63,253.37 1175.6,240.93 
					1168.96,230.45 1161.61,222.71 1154.41,215.65 1138.9,202.15 1131.07,196.23 1127.92,193.11 1111.8,174.9 1105.7,168.91 
					1096.42,162 1096.72,166.94 1100.47,174.91 1105.56,183.83 1109.19,187.54 1111.99,190.75 1108.02,192.51 1100.61,195.02 
					1096.23,199.43 1095.43,203.61 1098.22,207.57 1105.45,208.63 1112.84,208.29 1100.79,211.87 1097.42,217.73 1100.66,223.14 
					1105.37,225.35 1117.46,222.82 1104.01,227.64 1102.07,230.82 1104.65,235.56 1111.29,239.1 1117.7,240.6 1122.55,242 
					1128.72,260.66 1131.74,272.2 1134.86,286.37 1137.96,297.78 1140.37,305.62 1144.43,317.5 1149.7,331.63 1154.06,339.35 
					1160.05,349.21 1166.88,357.11 1174.3,364.44 				"/>
			</g>
		</g>
		<g>
			<g>
				<polygon class="st11" points="997.36,558.9 995.18,544.21 990.86,523.26 985.07,497.25 961.44,480.78 965.87,476.25 
					971.22,469.87 972.14,467.02 956.25,459.83 944.73,456.31 934.09,453.01 927.63,449.83 919.49,444.43 917.38,442.34 
					914.35,448.94 910.12,466.52 908.62,480.06 909.23,493.53 913.29,504.04 919.19,511.21 928.17,519.22 941.62,529.64 
					956.8,539.5 970.67,547.32 990.06,556.81 				"/>
			</g>
		</g>
		<g>
			<path class="st20" d="M958.07,231.67l-7.51-2.87l-6.41-3.58l-3.78-4.9l0.9-4.21l4.27-2.16l1.06-3.08l-1.78-1.83
				c0,0-3.63-3.52-3.84-3.88s-1.85-5.33-1.85-5.33l-1.05-5.45l0.82-5.02l2.25-3.84l3.69-2.22l-1.08-6.83l2.52-6.59l4.09-4.16
				l6.09-2.72l4.6-0.89l1.55-4.55l3.17-5.89l4.24-2.41l4.2-1.28l4.68,0.63l1.87,0.62l6.55-5.24l3.26-2.23l4.71-0.23l4.75,2.68
				l2.26,2.75l12.35-3.76l4.22-0.39l2.97,1.17l2.82,4.17l0.35,1.48l6.39-1.27l8.74,1.55l5.91,3.1l3.13,3.47l2.49,5.11l1.29,4.22
				l4.03-0.69l5.39,1.88l3.46,2.43l1.67,4.51l-0.53,4.31l-1.72,2.75l3.04-0.45l4.98,2.68l4.1,6.32l1.64,6.97l-1.47,5.21l-2.41,2.1
				l3.46,3.41l2.45,5.32l-0.73,3.35l-4.42,4.15l-2.71,1.27l2.61,3.68l1.46,3.46l-1.44,6.81l-6.99,4.13l-1.17,0.3l0.37,5.37
				l-1.58,4.84l-3.81,4.03l-7.12,1.37l-1.41,4.37l-3.29,3.4l-5.86,2.36l-3.11,0.95c0,0-1.3-5.38-1.35-5.56
				c-0.05-0.18-3.11-9.35-3.11-9.35l-0.58-3.98l0.9-7.32l5.77-6.69l3.27-2.92l0.88-3.28l-0.25-2.61l-2.38-2.35l-2.87-0.6l-2.86,1.28
				l-1.8,1.62l-3.11-1.94l-4.73-4.38l-2.22-3.1l-1.31-4.91l0.67-2l-5.38-0.02l-4.29-1.89l-1.54-2.54l0.01-4.36l-6.24,1.14
				l-6.07-1.03l-1.01-2.25l-0.94-8.54l-1.97,2.91l-4.23,3.21l-2.43,1.19l-4.65,0.14l-3.74-1.97l0.2,3.79l-1.48,3.1l-2.56,2.32
				l-3.2,0.85l-2.19,1.63l-4.15,1.71l-3.36-0.32l1.63,2.83l1.34,3.56l-0.96,2.09l-2.12,1.22l-3.16,0.96l1.21,2.7l1.63,3.02
				l0.59,1.93l0.2,2.12l-1.7,1.99L958.07,231.67z"/>
		</g>
		<g>
			<polygon class="st12" points="989.85,315.07 995.61,310.34 999.21,312.21 1005.78,314.01 1010.99,314.23 1020.55,313.26 
				1032.39,309.94 1039.07,306.85 1045.01,302.52 1048.64,298.18 1050.85,293.58 1052.48,289.32 1061.32,290.39 1059.65,295.38 
				1056.15,301.4 1051.86,306.38 1042.99,312.07 1033.63,316.48 1021.37,319.72 1012.87,320.49 1002.63,319.96 			"/>
		</g>
		<g>
			<path class="st16" d="M1015.68,598.74c-3.44,1.05-10.81,2.84-15.3,0.57c-1.76-0.89-2.92-2.3-3.45-4.18
				c-1.36-4.8-1.01-11.76-0.65-19.14c0.3-6.05,0.6-12.31-0.01-17.71c-1.37-12.01-14.99-76.08-17.47-86.56
				c-2.64-11.15-10.22-70.67-10.54-73.19c-0.08-0.63,0.36-1.2,0.99-1.28c0.63-0.08,1.2,0.36,1.28,0.99
				c0.08,0.62,7.89,61.92,10.5,72.96c2.55,10.78,16.1,74.42,17.51,86.82c0.64,5.58,0.32,11.94,0.02,18.08
				c-0.35,7.18-0.68,13.96,0.57,18.4c0.36,1.26,1.1,2.16,2.28,2.76c4.98,2.52,15.23-1.25,15.33-1.29c0.58-0.21,1.25,0.08,1.47,0.67
				c0.22,0.59-0.08,1.25-0.67,1.47C1017.43,598.16,1016.74,598.41,1015.68,598.74z"/>
		</g>
		<g>
			<path class="st16" d="M999.91,597.55c-0.6,0.18-1.24-0.16-1.43-0.76c-0.15-0.48-0.14-0.65,1.05-2.73
				c1.71-3,17.27-29.43,37.66-34.37c6.64-1.61,9.83-2.57,11.94-3.2c4.09-1.22,4.09-1.22,15.95-2.19l7.23-0.6
				c0.36-0.05,40.98-5.33,52.39-14.21c0.09-0.07,0.18-0.12,0.28-0.16c0.4-0.16,40.32-15.9,62.1-30.36
				c0.96-0.73,25.18-18.98,47.99-21.58c21.23-2.42,28.79,2.92,30.07,4c0.9,0.39,2.19,1.37,2.28,3.03c0.19,3.65-5.71,8.23-18.04,14
				c-0.57,0.27-1.25,0.02-1.52-0.55c-0.27-0.57-0.02-1.25,0.55-1.52c15.67-7.34,16.76-10.89,16.73-11.8
				c-0.03-0.74-0.97-1.09-0.98-1.1c-0.15-0.06-0.3-0.15-0.42-0.26c-0.06-0.05-6.66-6.01-28.4-3.53
				c-22.17,2.52-46.68,20.99-46.92,21.17c-21.36,14.18-59.71,29.48-62.44,30.56c-12.07,9.19-51.73,14.36-53.42,14.57l-7.29,0.6
				c-11.62,0.95-11.62,0.95-15.48,2.11c-2.13,0.64-5.36,1.6-12.06,3.23c-19.65,4.76-35.78,31.78-37.05,34.83
				C1000.59,597.11,1000.31,597.43,999.91,597.55z"/>
		</g>
		<g>
			<path class="st16" d="M1248.74,508.56c-0.43,0.13-0.92,0-1.22-0.37l-15.18-18.67c-0.4-0.49-0.32-1.21,0.17-1.61
				c0.49-0.4,1.21-0.32,1.61,0.17l15.18,18.67c0.4,0.49,0.32,1.21-0.17,1.61C1249.01,508.45,1248.88,508.52,1248.74,508.56z"/>
		</g>
		<g>
			<path class="st16" d="M1017.47,598.14c-0.16,0.05-0.33,0.06-0.51,0.04c-0.62-0.1-1.05-0.68-0.95-1.31l4.39-27.77
				c0.1-0.62,0.69-1.05,1.31-0.95c0.62,0.1,1.05,0.68,0.95,1.31l-4.39,27.77C1018.2,597.67,1017.88,598.02,1017.47,598.14z"/>
		</g>
		<g>
			<path class="st16" d="M1125.75,541.49c-0.02,0.01-0.04,0.01-0.05,0.02c-0.61,0.15-1.23-0.22-1.39-0.83l-7.07-27.99
				c-0.14-0.56,0.16-1.14,0.7-1.35l26.3-10l-3.4-11.16c-0.04-0.14-0.06-0.28-0.05-0.43c0.02-0.25,0.62-6.06,10.62-9.11
				c10.3-3.14,12.92,4.04,12.94,4.11l2.12,6.95l22.17-10.89c0.31-0.15,0.65-0.16,0.96-0.02c0.31,0.13,0.54,0.39,0.64,0.71
				l3.52,11.52l7.57-2.31c0.03-0.02,2.95-1.16,5.74,0.21c1.88,0.92,3.21,2.71,3.95,5.32c0.17,0.61-0.18,1.23-0.79,1.41
				c-0.61,0.17-1.24-0.18-1.41-0.79c-0.55-1.95-1.48-3.26-2.74-3.89c-1.87-0.93-3.97-0.12-3.99-0.12l-8.75,2.67
				c-0.6,0.18-1.24-0.16-1.43-0.76l-3.46-11.33l-22.17,10.89c-0.3,0.15-0.65,0.16-0.96,0.02c-0.31-0.13-0.54-0.39-0.64-0.71
				l-2.5-8.2c-0.06-0.16-1.97-5.11-10.1-2.63c-7.51,2.29-8.78,6.05-8.97,6.94l3.64,11.92c0.18,0.58-0.13,1.19-0.69,1.4l-26.35,10.01
				l6.82,27C1126.67,540.71,1126.33,541.31,1125.75,541.49z"/>
		</g>
		<g>
			<path class="st16" d="M1264.88,493.47c-0.39,0.12-0.83,0.02-1.14-0.29c-2.19-2.19-53.69-53.89-65.07-72.83
				c-1.96-3.26-4.06-6.86-6.24-10.6c-9.27-15.9-21.84-37.46-28.84-39.95c-0.38-0.1-0.68-0.17-0.87-0.22
				c-0.59-0.15-0.96-0.74-0.83-1.34c0.12-0.6,0.69-0.99,1.3-0.9c0.3,0.05,0.62,0.13,0.93,0.23c7.8,1.94,26.42,5.78,31.22,3.17
				c6.3-3.41,14.75-9.42,15.52-22.16c0.82-13.58-2.7-38.72-9.27-54.49c-6.86-16.49-30.29-61.45-36.91-67.05
				c-2.05-1.73-4.18-3.83-6.64-6.27c-5.95-5.88-14.08-13.93-28.98-24.61c-10.6-3.17-16.54-3.66-16.6-3.67
				c-0.29-0.02-0.56-0.16-0.76-0.37c-19.2-21.16-16.7-29.66-16.35-30.56c0.11-0.29,0.34-0.53,0.63-0.65
				c0.3-0.12,0.62-0.11,0.91,0.02c10.29,4.71,31.62,31.04,33.47,33.35c15.06,10.8,23.27,18.93,29.28,24.87
				c2.42,2.4,4.52,4.47,6.5,6.15c7.35,6.21,31.22,52.72,37.55,67.92c6.69,16.07,10.28,41.67,9.44,55.51
				c-0.84,13.87-9.94,20.36-16.72,24.03c-4.79,2.6-18.67,0.19-27.13-1.64c7.42,7.14,16.7,23.04,25.11,37.47
				c2.17,3.73,4.27,7.32,6.22,10.57c11.24,18.7,64.2,71.86,64.73,72.39c0.45,0.45,0.45,1.17,0,1.62
				C1265.22,493.33,1265.05,493.42,1264.88,493.47z M1113.1,190.29c1.41,0.15,5.94,0.75,13.27,2.75
				c-5.69-6.86-20.5-24.19-28.99-29.24C1097.49,166.84,1099.35,175.04,1113.1,190.29z"/>
		</g>
		<g>
			<path class="st16" d="M1187.11,373.77c-0.25,0.08-0.54,0.07-0.8-0.05c-9.45-4.19-13.35-8.5-24.96-21.31l-1.13-1.25
				c-12.94-14.27-25.78-59.03-28.71-74.44c-2.79-14.69-8.75-30.54-10.01-33.8c-11.36-1.8-18.1-4.93-20.04-9.29
				c-1.36-3.05,0.21-5.47,0.27-5.57c0.04-0.07,0.09-0.13,0.15-0.18c0.66-0.65,1.54-1.28,2.54-1.86c-1.53-0.09-2.8-0.41-3.85-0.95
				c-2.66-1.37-3.41-3.84-4.07-6.01c-1.61-5.27,4.79-8.96,5.07-9.11c0.1-0.06,0.21-0.1,0.32-0.12l0.18-0.04
				c-3.51-0.51-6.63-1.76-7.46-4.48c-1.75-5.74,2.65-9.12,4.52-10.56c0.29-0.22,0.53-0.4,0.68-0.55c1.28-1.21,9.15-3.15,12.47-3.93
				c0.61-0.14,1.23,0.24,1.37,0.85c0.14,0.61-0.24,1.23-0.85,1.37c-4.89,1.14-10.66,2.76-11.43,3.37c-0.18,0.17-0.48,0.41-0.85,0.69
				c-2.43,1.86-4.92,4.17-3.73,8.08c1.09,3.58,10.82,3.54,16.7,2.68c0.61-0.09,1.18,0.32,1.29,0.93c0.11,0.61-0.25,1.18-0.88,1.32
				l-11.34,2.45c-0.81,0.5-4.84,3.19-3.87,6.37c0.58,1.91,1.13,3.72,2.93,4.65c2,1.03,5.34,0.97,10.15-0.18
				c3.18-1.07,5.84-1.72,6.07-1.77c0.59-0.14,1.2,0.21,1.36,0.8c0.17,0.59-0.16,1.2-0.74,1.4c-2.2,0.74-4.21,1.32-6.03,1.76
				c-3.27,1.1-7.03,2.64-8.85,4.36c-0.18,0.34-0.78,1.69-0.02,3.35c0.95,2.06,4.66,5.85,18.93,8.01c0.4,0.06,0.74,0.33,0.89,0.71
				c0.07,0.18,7.21,18.21,10.36,34.82c2.89,15.22,15.52,59.39,28.15,73.33l1.13,1.25c11.66,12.87,15.18,16.76,24.19,20.75
				c0.58,0.26,0.84,0.93,0.58,1.51C1187.68,373.45,1187.41,373.67,1187.11,373.77z"/>
		</g>
		<g>
			<path class="st16" d="M1138.87,300.77c-0.15,0.04-0.31,0.06-0.47,0.04l-88.47-10.64c-0.43-0.05-0.79-0.34-0.94-0.74l-8.41-23.16
				c-0.13-0.35-0.08-0.73,0.13-1.04c0.21-0.3,0.55-0.49,0.92-0.5c0.48-0.01,11.79-0.37,12.75-9.54c0.06-0.58,0.55-1.02,1.13-1.02
				c0.06,0,6.19-0.1,9.42-4.09c1.95-2.42,2.49-5.83,1.6-10.14c-0.06-0.3,0-0.61,0.17-0.86c0.17-0.25,0.43-0.43,0.73-0.49
				c0.07-0.01,7.06-1.46,8.65-5.98c0.99-2.81-0.28-6.36-3.78-10.55c-0.24-0.29-0.32-0.68-0.22-1.04c0.1-0.36,0.37-0.65,0.73-0.77
				c0.06-0.02,6.27-2.2,7.03-6.38c0.49-2.68-1.34-5.76-5.43-9.15c-0.31-0.26-0.46-0.65-0.4-1.05c0.06-0.4,0.32-0.73,0.69-0.89
				c0.07-0.03,1.94-0.87,2.77-3.41c1.09-3.29-0.04-8-3.26-13.61c0,0,0,0,0,0c-0.02,0.01-5.12-6.16-8.67-3.42
				c-0.48,0.37-1.17,0.3-1.57-0.16c-0.4-0.46-0.36-1.16,0.08-1.57c0.03-0.02,2.5-2.4,2.41-5.6c-0.06-2.18-1.28-4.31-3.65-6.32
				c-0.03-0.03-5.11-4.08-9.66-1.71c-0.35,0.18-0.75,0.17-1.08-0.01c-0.34-0.19-0.56-0.53-0.59-0.91
				c-0.04-0.54-1.15-13.24-13.51-15.48c-0.24-0.07-7.13-2.42-12.5,0.1c-0.32,0.15-0.72,0.14-1.04-0.04
				c-0.32-0.18-0.54-0.5-0.58-0.86c0-0.03-0.45-3.42-2.93-5.02c-1.59-1.03-3.73-1.14-6.36-0.34l-11.94,3.64
				c-0.51,0.15-1.06-0.06-1.32-0.52c-0.03-0.05-2.81-4.75-7.43-5.07c-3.7-0.25-7.69,2.31-11.83,7.62c-0.33,0.42-0.9,0.56-1.38,0.34
				c-0.06-0.03-6.34-2.84-11.42-0.08c-3.44,1.86-5.63,5.87-6.53,11.9c-0.08,0.54-0.53,0.94-1.07,0.97
				c-0.11,0.01-10.93,0.7-14.72,7.82c-3.59,6.75-1.86,10.19-1.21,11.49l0.15,0.3c0.56,1.2-0.6,1.91-1.54,2.49
				c-2.52,1.54-7.23,4.42-4.11,14.18c0.03,0.1,0.05,0.21,0.05,0.32c0.01,0.2,0.23,5,5.18,8.29c1.81,1.21,2.65,2.56,2.49,4.01
				c-0.3,2.62-3.92,4.23-4.78,4.58c-0.38,0.28-1.9,1.52-1.66,3.32c0.26,1.95,2.81,5.91,16.92,10.61c0.34,0.11,0.6,0.37,0.72,0.71
				l2.89,8.34c1.27,0.11,2.59,1.4,4.13,4.07c0.06,0.1,0.11,0.22,0.13,0.34c0.05,0.22,4.74,22.33,9.43,31.56
				c0.3,0.54,8.01,14.09,24.51,9.77c6.53-1.3,17.3-4.32,18.7-6.97c0.13-0.25,0.1-0.39,0.05-0.5c-0.25-0.58,0.02-1.25,0.6-1.5
				c0.6-0.25,1.25,0.02,1.5,0.6c0.34,0.8,0.3,1.65-0.13,2.46c-2.32,4.39-17.25,7.54-20.21,8.13c-18.19,4.76-26.95-10.78-27.04-10.93
				c-4.67-9.19-9.11-29.67-9.6-31.98c-1.15-1.95-1.86-2.54-2.14-2.71c-0.22,0.16-0.5,0.23-0.78,0.2c-0.44-0.05-0.81-0.35-0.95-0.76
				l-3.06-8.85c-11.34-3.84-17.37-7.98-17.94-12.32c-0.44-3.43,2.63-5.48,2.76-5.57c0.07-0.04,0.14-0.08,0.22-0.11
				c1.33-0.51,3.35-1.73,3.46-2.75c0.08-0.7-0.9-1.46-1.48-1.85c-5.47-3.64-6.11-8.9-6.19-9.95c-3.56-11.36,2.53-15.09,5.14-16.68
				c0.11-0.07,0.23-0.14,0.34-0.21c-0.88-1.84-2.41-5.98,1.43-13.19c3.74-7.02,12.75-8.61,15.69-8.95c1.1-6.3,3.64-10.57,7.57-12.69
				c4.95-2.67,10.51-1.09,12.6-0.32c4.47-5.49,8.93-8.12,13.27-7.82c4.59,0.32,7.59,3.84,8.72,5.43l11.13-3.39
				c3.32-1.01,6.11-0.8,8.29,0.62c2.19,1.43,3.19,3.74,3.62,5.23c5.94-2.05,12.45,0.2,12.75,0.3c11.26,2.03,14.24,12.1,14.98,15.98
				c5.34-1.7,10.51,2.39,10.74,2.58c2.9,2.47,4.4,5.17,4.47,8.04c0.04,1.69-0.43,3.17-1.02,4.36c4.24,0.13,8.14,4.88,8.35,5.14
				c3.73,6.47,4.88,11.7,3.52,15.69c-0.64,1.87-1.71,3.07-2.59,3.8c3.96,3.6,5.66,7.07,5.06,10.32c-0.74,4.03-4.83,6.46-7.07,7.51
				c3.31,4.36,4.39,8.25,3.22,11.58c-1.61,4.54-6.92,6.52-9.26,7.19c0.73,4.53-0.04,8.22-2.27,10.98
				c-3.09,3.81-8.06,4.67-10.18,4.87c-1.44,8.08-9.77,10.02-13.28,10.48l7.66,21.11l87.77,10.56c0.63,0.08,1.07,0.64,1,1.27
				C1139.62,300.27,1139.29,300.64,1138.87,300.77z M962.29,241.65C962.29,241.65,962.29,241.65,962.29,241.65
				C962.29,241.65,962.29,241.65,962.29,241.65z"/>
		</g>
		<g>
			<path class="st16" d="M997.9,561.13c-0.24,0.07-0.5,0.07-0.75-0.03c-0.49-0.19-48.92-19.65-77.16-47.89
				c-1.51-0.94-13.46-9.07-12.58-31.55c0.9-23.01,8.65-40.76,8.73-40.94c0.26-0.58,0.93-0.84,1.51-0.58
				c0.58,0.26,0.84,0.93,0.58,1.51c-0.08,0.17-7.65,17.55-8.53,40.1c-0.86,22.11,11.46,29.49,11.58,29.56
				c0.09,0.05,0.17,0.11,0.24,0.18c27.9,27.96,76.01,47.29,76.49,47.48c0.59,0.23,0.87,0.9,0.64,1.48
				C998.5,560.79,998.22,561.03,997.9,561.13z"/>
		</g>
		<g>
			<path class="st16" d="M985.94,498.71c-0.32,0.1-0.69,0.05-0.99-0.16l-27.34-19.05c-0.52-0.36-0.64-1.07-0.28-1.59
				c0.36-0.52,1.07-0.64,1.59-0.28l27.34,19.05c0.52,0.36,0.64,1.07,0.28,1.59C986.39,498.49,986.18,498.64,985.94,498.71z"/>
		</g>
		<g>
			<path class="st16" d="M961.77,481.87c-0.44,0.13-0.94-0.01-1.24-0.39c-0.39-0.5-0.3-1.22,0.2-1.6
				c0.09-0.07,8.67-6.77,10.09-12.17c0.16-0.61,0.79-0.97,1.4-0.81c0.61,0.16,0.97,0.79,0.81,1.4c-1.63,6.15-10.53,13.1-10.91,13.39
				C962.03,481.77,961.9,481.83,961.77,481.87z"/>
		</g>
		<g>
			<path class="st16" d="M980.01,471.52c-0.28,0.08-0.58,0.06-0.86-0.08c-0.26-0.13-25.99-13.45-41.28-16.04
				c-15.95-2.7-29.07-21.33-29.62-22.13c-0.34-0.44-9.16-12.15,1.47-30.62c10.26-17.82,16.79-28.61,16.86-28.71
				c0.15-0.24,0.38-0.42,0.64-0.5l14.52-4.43c0.6-0.18,1.24,0.16,1.43,0.76l2.72,8.9c0.04,0.14,0.06,0.29,0.04,0.44
				c-0.01,0.07-0.13,1.81,1.19,2.88c1.49,1.2,4.37,1.2,8.31,0c0.16-0.04,3.38-0.68,4.85-3.11c0.87-1.44,0.97-3.28,0.3-5.46
				l-2.93-9.6c-0.18-0.6,0.16-1.24,0.76-1.43l27.79-8.48l-8.88-29.12c-0.14-0.44,0.01-0.92,0.37-1.22l18.23-14.97
				c0.59-0.9,4.51-7.52,2.49-19.33c-0.11-0.62,0.31-1.21,0.93-1.32c0.62-0.11,1.21,0.31,1.32,0.93c2.34,13.7-2.75,20.87-2.97,21.17
				c-0.06,0.08-0.12,0.15-0.2,0.21l-17.76,14.59l8.99,29.48c0.18,0.6-0.16,1.24-0.76,1.43l-27.79,8.48l2.6,8.51
				c0.87,2.84,0.68,5.31-0.54,7.33c-2.01,3.31-6.08,4.09-6.25,4.12c-4.75,1.45-8.18,1.29-10.31-0.46c-1.9-1.55-2.03-3.83-2.01-4.59
				l-2.32-7.62l-13.01,3.97c-1.23,2.04-7.42,12.35-16.61,28.3c-9.83,17.07-1.95,27.68-1.61,28.12c0.16,0.23,13.17,18.69,28.16,21.22
				c15.65,2.65,40.89,15.71,41.96,16.27c0.56,0.29,0.78,0.98,0.49,1.54C980.54,471.24,980.29,471.43,980.01,471.52z"/>
		</g>
		<g>
			<path class="st16" d="M1028.51,312.48c-13.54,4.13-28.1,3.86-33.67-1.3c-0.46-0.43-0.49-1.15-0.06-1.61
				c0.43-0.46,1.15-0.49,1.61-0.06c5.47,5.07,24.05,5.12,39.8-2.44c14.48-6.94,14.31-17.36,14.29-17.8
				c-0.02-0.63,0.47-1.16,1.1-1.18c0.63-0.02,1.16,0.46,1.18,1.09c0.02,0.5,0.32,12.32-15.59,19.95
				C1034.41,310.45,1031.48,311.57,1028.51,312.48z"/>
		</g>
		<g>
			<path class="st16" d="M1030.78,318.54c-16.7,5.09-31.26,4.26-41.56-2.52c-0.53-0.35-0.67-1.06-0.33-1.58
				c0.35-0.53,1.05-0.67,1.58-0.33c11.2,7.36,27.92,7.23,47.07-0.37c20.05-7.96,22.63-23.37,22.65-23.53
				c0.09-0.62,0.68-1.05,1.3-0.96c0.62,0.1,1.05,0.68,0.96,1.3c-0.1,0.68-2.81,16.87-24.07,25.31
				C1035.81,316.89,1033.27,317.78,1030.78,318.54z"/>
		</g>
		<g>
			<path class="st16" d="M1070.36,436.09c-0.56,0.17-1.17-0.11-1.39-0.66l-22.74-55.65c-0.12-0.29-0.11-0.61,0.01-0.89
				s0.36-0.5,0.65-0.61l22.44-8.43l-5.75-14.18c0,0,0,0,0,0c-0.01,0-1.8-3.02-0.51-6.57c1.15-3.14,4.29-5.6,9.34-7.29
				c0.04-0.04,4.76-2.37,9.28-0.71c2.58,0.94,4.54,2.96,5.84,6l4.54,12.92l25.74-10.55c0.57-0.23,1.24,0.03,1.48,0.61l7.11,16.53
				l12.04-3.02c-0.03,0,3.02-1.19,6.04,0.31c2.22,1.1,3.8,3.32,4.69,6.58c2.45,9-0.28,10.78-4.72,12.46l-0.24,0.09l-9.77,4.28
				l8.65,21.45c0.12,0.29,0.11,0.61-0.02,0.9c-0.13,0.28-0.36,0.5-0.66,0.61l-71.99,25.81
				C1070.39,436.08,1070.38,436.09,1070.36,436.09z M1048.79,380l21.88,53.55l69.85-25.04l-8.62-21.38
				c-0.23-0.57,0.04-1.23,0.6-1.47l11.14-4.86c3.49-1.33,5.42-2.06,3.32-9.73c-0.71-2.61-1.89-4.33-3.5-5.13
				c-2.08-1.03-4.29-0.2-4.32-0.19l-13.14,3.31c-0.54,0.14-1.11-0.14-1.33-0.66l-7.05-16.39l-25.81,10.58
				c-0.29,0.12-0.62,0.11-0.9-0.01c-0.29-0.13-0.51-0.37-0.61-0.66l-4.91-13.99c-1.01-2.36-2.52-3.95-4.48-4.67
				c-3.59-1.32-7.6,0.65-7.64,0.67c-4.49,1.51-7.15,3.49-8.06,5.94c-0.94,2.52,0.33,4.7,0.39,4.79l6.27,15.42
				c0.12,0.29,0.11,0.61-0.01,0.89c-0.12,0.28-0.36,0.5-0.64,0.61L1048.79,380z"/>
		</g>
		<g>
			<path class="st16" d="M912.71,334.44c-0.12,0.04-0.24,0.07-0.36,0.11c-10.03,2.85-14.32-4.55-14.36-4.62
				c-0.04-0.08-0.08-0.16-0.1-0.25l-2.66-9.27L870,328.94c-0.54,0.18-1.24-0.11-1.44-0.71l-8.55-24.56c-0.1-0.3-0.08-0.63,0.07-0.91
				c0.15-0.28,0.41-0.49,0.71-0.57l9.39-2.58c0.17-0.07,6.23-2.41,3.98-10.61c-0.04-0.19-0.48-3.5-2.66-5.06
				c-1.06-0.76-2.35-1-3.95-0.71l-13.92,6.25c-0.3,0.13-0.64,0.13-0.94,0c-0.3-0.14-0.52-0.39-0.62-0.71l-5.29-17.33
				c-0.18-0.59,0.14-1.21,0.72-1.41l69.7-24.08c0.29-0.1,0.62-0.08,0.89,0.06c0.28,0.14,0.48,0.39,0.57,0.68l5.24,17.17l11.43-3.49
				c0.62-0.34,3.09-1.54,5.7-0.55c2.16,0.82,3.76,2.86,4.77,6.07c0.39,0.69,2.02,3.91,0.96,7.01c-0.68,1.98-2.27,3.46-4.73,4.4
				l-11.81,5.02l7.96,23.05c0.1,0.3,0.08,0.62-0.07,0.9c-0.15,0.28-0.37,0.48-0.7,0.57l-19.55,5.51l3.46,10.76
				C921.37,323.38,922.45,331.47,912.71,334.44z M900.05,328.91c0.5,0.79,3.94,5.65,11.68,3.44c0.11-0.03,0.21-0.06,0.31-0.09
				c7.81-2.38,7.09-8.38,7.05-8.63l-3.78-11.7c-0.09-0.3-0.07-0.62,0.08-0.89c0.15-0.27,0.41-0.48,0.7-0.56l19.53-5.5l-7.91-22.91
				c-0.2-0.57,0.08-1.19,0.63-1.42l12.83-5.45c1.83-0.7,2.97-1.71,3.42-3.01c0.83-2.41-0.81-5.2-0.82-5.23
				c-0.05-0.08-0.09-0.17-0.11-0.26c-0.78-2.57-1.94-4.16-3.43-4.72c-1.88-0.71-3.82,0.43-3.84,0.44c-0.08,0.05-0.17,0.09-0.27,0.12
				l-12.65,3.86c-0.6,0.18-1.24-0.16-1.43-0.76l-5.23-17.13l-67.54,23.34l4.59,15.04l12.86-5.77c0.08-0.04,0.16-0.06,0.25-0.08
				c2.28-0.45,4.25-0.08,5.86,1.08c2.98,2.16,3.52,6.29,3.55,6.46c2.79,10.13-5.45,13.2-5.53,13.23l-8.29,2.28l7.77,22.34l25.3-8.55
				c0.31-0.1,0.62-0.07,0.9,0.07c0.28,0.14,0.48,0.4,0.57,0.7L900.05,328.91z"/>
		</g>
		<g>
			<path class="st16" d="M876.34,195.78c-0.21,0.06-0.44,0.07-0.67,0l-25.98-7.95c-0.33-0.1-0.6-0.35-0.73-0.68
				c-0.13-0.32-0.1-0.69,0.08-0.99l6.35-10.93l-11.81-3.99c-0.09-0.03-0.17-0.07-0.25-0.12c-0.06-0.04-6.43-4.2-3.83-12.32
				c0.71-2.21,2.01-3.76,3.87-4.59c3.88-1.74,8.72,0.38,8.93,0.47l7.48,2.94l7.6-12.89c0.3-0.5,0.92-0.7,1.45-0.46l22.21,9.86
				c0.57,0.25,0.83,0.92,0.59,1.49l-5.36,12.64c-0.21,0.51-0.77,0.79-1.31,0.67l-8.55-2c-0.09-0.02-0.19-0.06-0.27-0.1
				c-0.52-0.27-2.22-0.94-3.25-0.52c-0.27,0.11-0.65,0.34-0.89,1.11c-0.9,2.82,2.12,4.78,2.16,4.8l9.79,4.04
				c0.28,0.12,0.51,0.34,0.62,0.63c0.11,0.28,0.11,0.6-0.01,0.88l-7.49,17.39C876.92,195.46,876.65,195.69,876.34,195.78z
				 M851.75,186.07l23.62,7.23l6.63-15.39l-8.89-3.68c-1.75-1.09-4.43-3.93-3.28-7.51c0.5-1.55,1.48-2.23,2.21-2.53
				c2-0.81,4.39,0.23,5.03,0.55l7.48,1.75l4.54-10.72l-20.25-8.99l-7.58,12.86c-0.29,0.48-0.88,0.69-1.4,0.48l-8.43-3.31
				c-0.09-0.04-4.16-1.82-7.12-0.49c-1.25,0.57-2.11,1.61-2.62,3.2c-1.91,5.97,2.06,9.11,2.78,9.63l12.98,4.39
				c0.33,0.11,0.58,0.36,0.7,0.68c0.12,0.32,0.09,0.68-0.08,0.98L851.75,186.07z"/>
		</g>
		<g>
			<path class="st16" d="M1069.66,156.51c-0.43,0.13-0.92,0-1.22-0.37l-16.77-20.39c-1.14,0.88-3.48,2.55-8.16,5.4
				c-8.39,5.12-13.3-2.04-13.35-2.12c-3.27-3.82-4.77-7.4-4.39-10.54c0.36-2.94,2.3-4.35,2.38-4.4l7.9-4.63l-16.68-16.06
				c-0.24-0.24-0.37-0.57-0.35-0.91c0.03-0.34,0.2-0.65,0.48-0.85l15.43-10.88l-10.24-8.63c-0.06-0.05-0.11-0.11-0.16-0.17
				c-2.28-2.89-3.09-5.64-2.41-8.15c1.07-3.92,5.42-5.65,5.6-5.72c3.75-2.15,7.37-2.81,10.59-1.91c4.14,1.17,6.03,4.53,6.11,4.67
				l5.54,9.11l20.9-13.22c0.47-0.3,1.1-0.21,1.47,0.21l16.41,18.54c0.23,0.26,0.33,0.61,0.27,0.95c-0.06,0.34-0.26,0.64-0.56,0.81
				l-9.82,5.56c-0.07,0.07-4.92,4-0.69,9.93c4.33,6.07,10.7,3.39,10.98,3.27l10.4-6.47c0.5-0.31,1.16-0.19,1.52,0.28l18.14,24.16
				c0.19,0.26,0.27,0.58,0.21,0.89c-0.06,0.31-0.24,0.59-0.51,0.76l-48.75,30.75C1069.85,156.44,1069.76,156.48,1069.66,156.51z
				 M1051.49,133.05c0.12-0.04,0.25-0.05,0.38-0.05c0.32,0.02,0.63,0.16,0.83,0.41l16.86,20.5l46.85-29.55l-16.77-22.33l-9.66,5.99
				c-0.22,0.11-8.48,3.65-13.9-3.96c-5.52-7.74,1.22-13.1,1.29-13.15l8.73-4.95l-14.83-16.76l-21.06,13.33
				c-0.26,0.16-0.57,0.22-0.87,0.15c-0.3-0.07-0.56-0.26-0.71-0.52l-6.17-10.15c-0.04-0.06-1.57-2.73-4.78-3.63
				c-2.6-0.72-5.61-0.12-8.95,1.78c-0.18,0.08-3.62,1.46-4.38,4.27c-0.47,1.75,0.18,3.77,1.93,6.03l11.28,9.51
				c0.27,0.23,0.42,0.57,0.41,0.92c-0.02,0.35-0.19,0.68-0.48,0.88l-15.51,10.94l16.77,16.15c0.26,0.25,0.38,0.6,0.34,0.96
				c-0.04,0.36-0.25,0.67-0.56,0.85l-9.12,5.34c0,0,0,0,0,0c0.02-0.01-1.15,0.9-1.36,2.83c-0.27,2.43,1.09,5.48,3.94,8.82
				c0.23,0.33,3.85,5.5,10.34,1.54c7.16-4.37,8.62-5.81,8.68-5.87C1051.14,133.2,1051.31,133.1,1051.49,133.05z"/>
		</g>
		<g>
			<path class="st16" d="M1041.99,266.97c-0.56,0.17-1.17-0.12-1.4-0.67c-0.24-0.62-5.99-15.25-5.2-22.4
				c0.8-7.37,8.85-12.83,9.24-13.09l0,0c-0.02,0.01,1.74-1.6,1.67-3.58c-0.04-1.25-0.82-2.46-2.31-3.61
				c-0.05-0.04-1.05-0.86-2.28-0.66c-1.03,0.17-2,0.99-2.9,2.44c-0.29,0.48-0.89,0.67-1.4,0.46c-5.03-2.05-13.56-7.84-12.2-15.8
				c-2.3,0.15-6.37,0.01-8.94-2.46c-1.55-1.48-2.3-3.53-2.26-6.11c-2.58,0.82-7.3,1.78-10.65-0.66c-2.16-1.57-3.33-4.25-3.49-7.97
				c-1.72,2-4.35,4.33-7.63,5.05c-2.19,0.48-4.38,0.19-6.52-0.87c-0.08,1.68-0.51,4-2.02,5.87c-1.41,1.74-3.46,2.74-6.09,2.98
				c-0.96,0.84-3.92,3.19-7.19,3.37c1.08,1.74,2.08,4.13,1.28,6.3c-0.66,1.79-2.37,3-5.13,3.62c1.43,2.04,3.53,5.66,2.94,8.7
				c-0.29,1.52-1.24,2.73-2.72,3.51c-0.11,0.06-0.23,0.1-0.35,0.12l-8.18,1.28c-0.62,0.1-1.21-0.33-1.31-0.95
				c-0.1-0.62,0.33-1.21,0.95-1.31l7.99-1.25c0.79-0.45,1.23-1.04,1.38-1.83c0.53-2.72-2.44-6.94-3.63-8.34
				c-0.27-0.32-0.35-0.77-0.19-1.16c0.15-0.39,0.51-0.66,0.93-0.71c2.03-0.23,4.58-0.84,5.17-2.46c0.76-2.07-1.7-5.36-2.62-6.35
				c-0.37-0.4-0.41-1.01-0.09-1.45c0.32-0.44,0.91-0.6,1.41-0.37c3.55,1.65,8.05-2.6,8.09-2.64c0.2-0.19,0.45-0.3,0.73-0.32
				c2.16-0.13,3.79-0.85,4.85-2.15c2.01-2.47,1.47-6.3,1.46-6.34c-0.07-0.45,0.14-0.91,0.53-1.14c0.4-0.24,0.89-0.22,1.26,0.05
				c2.18,1.56,4.39,2.11,6.56,1.63c4.91-1.08,8.39-7.05,8.42-7.12c0.27-0.47,0.83-0.69,1.35-0.52c0.52,0.17,0.84,0.67,0.78,1.21
				c-0.54,4.89,0.27,8.16,2.4,9.72c3.61,2.63,10.06-0.2,10.13-0.22c0.37-0.17,0.82-0.12,1.16,0.13c0.33,0.25,0.5,0.66,0.44,1.07
				c-0.39,2.69,0.09,4.7,1.43,5.98c2.35,2.25,7.05,1.96,8.66,1.66c0.4-0.07,0.81,0.07,1.07,0.37c0.27,0.31,0.35,0.73,0.22,1.12
				c-2.6,7.66,6.73,12.85,9.63,14.26c1.15-1.54,2.47-2.43,3.95-2.66c2.27-0.35,3.97,1.09,4.04,1.15c2.02,1.55,3.1,3.35,3.15,5.32
				c0.09,3.11-2.46,5.35-2.57,5.44c-0.19,0.14-7.66,5.2-8.35,11.52c-0.72,6.59,5,21.17,5.06,21.31c0.23,0.59-0.06,1.25-0.64,1.48
				C1042.05,266.95,1042.02,266.96,1041.99,266.97z"/>
		</g>
		<g>
			<path class="st6" d="M967.11,179.98l-2.2,0.61c-0.08-0.3-1.98-7.29,1.71-12.07c2.2-2.85,5.84-4.26,10.82-4.19l-0.03,2.28
				c-4.22-0.06-7.24,1.04-8.98,3.29C965.44,173.78,967.09,179.92,967.11,179.98z"/>
		</g>
		<g>
			<path class="st6" d="M1064.09,206.14l-2.1-0.89c0.84-1.97,1.59-4.58,0.45-5.88c-1.49-1.69-5.87-0.94-7.28-0.54l-2.04,0.57
				l0.64-2.02c0.85-2.68,0.84-4.59-0.02-5.38c-1.41-1.29-5.16-0.15-6.35,0.36l-0.89-2.11c0.61-0.26,6.04-2.44,8.78,0.06
				c1.32,1.21,1.71,3.19,1.15,5.91c2.24-0.36,5.84-0.51,7.73,1.63C1065.7,199.61,1065.68,202.4,1064.09,206.14z"/>
		</g>
		<g>
			<path class="st16" d="M1009.51,227.22c-1.69,0.51-3.37,0.65-4.75,0.38c-1.79-0.35-3.03-1.38-3.49-2.9
				c-0.18-0.6,0.16-1.24,0.76-1.43c0.6-0.18,1.24,0.16,1.43,0.76c0.08,0.26,0.32,1.05,1.74,1.33c1,0.2,2.32,0.08,3.64-0.32
				c2.29-0.7,4.05-2.11,3.77-3.03c-0.18-0.6,0.16-1.24,0.76-1.43c0.6-0.18,1.24,0.16,1.43,0.76
				C1015.62,224.02,1012.63,226.26,1009.51,227.22z"/>
		</g>
		<g>
			<path class="st16" d="M983.83,231.05c-1.69,0.51-3.37,0.65-4.75,0.38c-1.79-0.35-3.03-1.38-3.49-2.9
				c-0.18-0.6,0.16-1.24,0.76-1.43c0.6-0.18,1.24,0.16,1.43,0.76c0.08,0.26,0.32,1.05,1.74,1.33c1,0.2,2.32,0.08,3.64-0.32
				c2.29-0.7,4.05-2.11,3.77-3.03c-0.18-0.6,0.16-1.24,0.76-1.43c0.6-0.18,1.24,0.16,1.43,0.76
				C989.94,227.85,986.95,230.1,983.83,231.05z"/>
		</g>
		<g>
			<path class="st16" d="M995.25,246.67c-2.18,0.67-6.07,1.25-8.01-2.1c-1.45-2.51-0.3-3.89,0.82-5.23
				c1.16-1.39,2.61-3.13,2.78-7.31c0.03-0.63,0.55-1.12,1.19-1.1c0.63,0.02,1.12,0.56,1.1,1.19c-0.19,4.97-2.07,7.21-3.31,8.69
				c-1.03,1.24-1.25,1.49-0.6,2.62c1.69,2.91,6.57,0.62,6.62,0.6c0.57-0.27,1.25-0.03,1.52,0.54c0.27,0.57,0.03,1.25-0.54,1.52
				C996.74,246.12,996.14,246.4,995.25,246.67z"/>
		</g>
		<g>
			<path class="st16" d="M999.96,265.09c-2.68,0.82-5.12,0.73-7.12-0.3c-2.5-1.3-3.87-3.98-3.76-7.36c0.01-0.35,0.18-0.67,0.46-0.88
				c0.28-0.21,0.64-0.27,0.98-0.18c5.5,1.48,10.36,0.32,11.82-2.82c0.27-0.57,0.95-0.82,1.52-0.55c0.57,0.27,0.82,0.95,0.55,1.52
				c-2.08,4.46-7.78,5.41-12.99,4.41c0.24,1.79,1.09,3.13,2.46,3.84c2.68,1.4,6.88,0.28,11.21-2.99c0.5-0.38,1.22-0.28,1.6,0.23
				c0.38,0.5,0.28,1.22-0.23,1.6C1004.25,263.29,1002.04,264.46,999.96,265.09z"/>
		</g>
		<g>
			<path class="st16" d="M980.57,134.04c-0.53,0.16-1.11-0.08-1.36-0.59c-0.28-0.57-0.05-1.25,0.52-1.53l15.3-7.55
				c0.57-0.28,1.25-0.05,1.53,0.52c0.28,0.57,0.05,1.25-0.52,1.53l-15.3,7.55C980.68,133.99,980.62,134.02,980.57,134.04z"/>
		</g>
		<g>
			<path class="st16" d="M1000.71,93.91c-0.28,0.09-0.6,0.06-0.88-0.09l-12.2-6.64c-0.55-0.3-0.76-1-0.46-1.55
				c0.3-0.55,0.99-0.76,1.55-0.46l12.2,6.64c0.55,0.3,0.76,1,0.46,1.55C1001.23,93.63,1000.98,93.82,1000.71,93.91z"/>
		</g>
		<g>
			<path class="st16" d="M1019.47,62.27c-0.4,0.12-0.86,0.02-1.17-0.31l-9.1-9.7c-0.43-0.46-0.41-1.18,0.05-1.62
				c0.46-0.43,1.18-0.41,1.62,0.05l9.1,9.7c0.43,0.46,0.41,1.18-0.05,1.62C1019.78,62.13,1019.63,62.22,1019.47,62.27z"/>
		</g>
		<g>
			<path class="st16" d="M1087.88,60.59c-0.25,0.08-0.53,0.07-0.79-0.04c-0.58-0.25-0.84-0.92-0.59-1.5l6.26-14.39
				c0.25-0.58,0.93-0.84,1.5-0.59c0.58,0.25,0.84,0.92,0.59,1.5l-6.26,14.39C1088.46,60.27,1088.19,60.5,1087.88,60.59z"/>
		</g>
		<g>
			<path class="st16" d="M1117.99,93.83c-0.42,0.13-0.89,0.01-1.2-0.34c-0.41-0.48-0.36-1.2,0.11-1.61l12.89-11.23
				c0.48-0.42,1.2-0.36,1.61,0.11c0.41,0.48,0.36,1.2-0.11,1.61l-12.89,11.23C1118.28,93.71,1118.14,93.79,1117.99,93.83z"/>
		</g>
		<g>
			<line class="st12" x1="1131.08" y1="558.95" x2="1133.55" y2="567.08"/>
			<path class="st16" d="M1134.22,569.26c-1.21,0.37-2.48-0.31-2.85-1.52l-2.48-8.12c-0.37-1.21,0.31-2.48,1.52-2.85
				c1.21-0.37,2.48,0.31,2.85,1.52l2.48,8.12C1136.11,567.62,1135.43,568.9,1134.22,569.26z"/>
		</g>
		<g>
			<g>
				<path class="st16" d="M1192.11,510.8c-0.6,0.18-1.24-0.16-1.43-0.76l-0.67-2.19c-0.18-0.6,0.16-1.24,0.76-1.43
					c0.6-0.18,1.24,0.16,1.43,0.76l0.67,2.19C1193.06,509.98,1192.72,510.61,1192.11,510.8z"/>
			</g>
			<g>
				<path class="st16" d="M1196.71,525.87c-0.6,0.18-1.24-0.16-1.43-0.76l-1.15-3.77c-0.18-0.6,0.16-1.24,0.76-1.43
					c0.6-0.18,1.24,0.16,1.43,0.76l1.15,3.77C1197.65,525.05,1197.32,525.69,1196.71,525.87z M1194.41,518.33
					c-0.6,0.18-1.24-0.16-1.43-0.76l-1.15-3.77c-0.18-0.6,0.16-1.24,0.76-1.43c0.6-0.18,1.24,0.16,1.43,0.76l1.15,3.77
					C1195.36,517.51,1195.02,518.15,1194.41,518.33z"/>
			</g>
			<g>
				<path class="st16" d="M1198.53,531.82c-0.27,0.08-0.57,0.06-0.83-0.06c-0.29-0.14-0.51-0.39-0.6-0.7l-0.67-2.19
					c-0.18-0.6,0.16-1.24,0.76-1.43c0.6-0.18,1.24,0.16,1.43,0.76l0.31,1c0.28-0.11,0.61-0.24,0.98-0.38
					c0.6-0.23,1.25,0.07,1.48,0.66c0.23,0.59-0.07,1.25-0.66,1.48c-1.34,0.52-2.1,0.82-2.1,0.82
					C1198.59,531.8,1198.56,531.82,1198.53,531.82z"/>
			</g>
			<g>
				<path class="st16" d="M1250.43,518.2c-0.11,0.03-0.22,0.05-0.34,0.05c-1.28,0-2.68,0.06-4.19,0.2c-0.63,0.06-1.18-0.4-1.24-1.03
					c-0.06-0.63,0.41-1.19,1.03-1.24c1.57-0.14,3.06-0.22,4.4-0.21c0.63,0,1.14,0.52,1.14,1.15
					C1251.24,517.62,1250.9,518.05,1250.43,518.2z M1241.86,518.94c-0.05,0.02-0.1,0.03-0.16,0.04c-1.36,0.21-2.76,0.46-4.19,0.74
					c-0.62,0.12-1.22-0.28-1.34-0.9c-0.12-0.62,0.28-1.22,0.9-1.34c1.46-0.29,2.89-0.55,4.28-0.76c0.62-0.1,1.21,0.33,1.3,0.95
					C1242.75,518.24,1242.4,518.77,1241.86,518.94z M1204.67,529.48c-0.58,0.18-1.19-0.13-1.4-0.7c-0.22-0.59,0.08-1.25,0.68-1.47
					c1.22-0.45,2.58-0.94,4.06-1.46c0.6-0.21,1.25,0.1,1.46,0.7c0.21,0.59-0.1,1.25-0.7,1.46c-1.47,0.52-2.82,1.01-4.03,1.45
					C1204.71,529.47,1204.69,529.48,1204.67,529.48z M1233.42,520.6c-0.02,0.01-0.05,0.01-0.07,0.02c-1.38,0.32-2.76,0.67-4.15,1.03
					c-0.61,0.16-1.23-0.21-1.39-0.82c-0.16-0.61,0.13-1.22,0.82-1.39c1.4-0.37,2.81-0.72,4.21-1.04c0.62-0.14,1.23,0.24,1.37,0.85
					C1234.34,519.84,1233.99,520.43,1233.42,520.6z M1212.78,526.62c-0.59,0.18-1.22-0.14-1.42-0.73c-0.2-0.6,0.12-1.25,0.72-1.45
					c1.31-0.44,2.69-0.9,4.1-1.35c0.01,0,0.01,0,0.02-0.01c0.6-0.18,1.23,0.15,1.42,0.74c0.19,0.6-0.14,1.24-0.74,1.44
					c-1.4,0.45-2.77,0.9-4.07,1.34C1212.8,526.61,1212.79,526.61,1212.78,526.62z M1225.1,522.77c-0.01,0-0.01,0-0.02,0.01
					c-1.38,0.39-2.76,0.8-4.11,1.21c-0.6,0.18-1.24-0.16-1.43-0.76c-0.18-0.6,0.16-1.24,0.76-1.43c0,0,0,0,0,0
					c1.36-0.41,2.75-0.82,4.15-1.22c0.61-0.17,1.24,0.18,1.41,0.79C1226.03,521.96,1225.69,522.59,1225.1,522.77z"/>
			</g>
			<g>
				<path class="st16" d="M1256.93,519.13c-0.23,0.07-0.48,0.07-0.72-0.02c-0.6-0.22-1.28-0.4-2.02-0.53
					c-0.62-0.11-1.03-0.71-0.92-1.33c0.11-0.62,0.71-1.03,1.33-0.92c0.87,0.16,1.68,0.37,2.4,0.63c0.59,0.22,0.9,0.87,0.68,1.46
					C1257.55,518.78,1257.27,519.03,1256.93,519.13z"/>
			</g>
		</g>
		<g>
			<g>
				<path class="st16" d="M1077.64,557.69c-0.04,0.01-0.07,0.02-0.11,0.03c-0.62,0.12-1.22-0.28-1.34-0.9l-0.44-2.24
					c-0.12-0.62,0.28-1.22,0.9-1.34c0.62-0.12,1.22,0.28,1.34,0.9l0.44,2.24C1078.55,556.96,1078.2,557.52,1077.64,557.69z"/>
			</g>
			<g>
				<path class="st16" d="M1080.59,572.56c-0.04,0.01-0.07,0.02-0.11,0.03c-0.62,0.12-1.22-0.28-1.34-0.9l-0.74-3.72
					c-0.12-0.62,0.27-1.22,0.9-1.34c0.62-0.12,1.22,0.28,1.34,0.9l0.74,3.72C1081.49,571.83,1081.14,572.39,1080.59,572.56z
					 M1079.12,565.13c-0.04,0.01-0.07,0.02-0.11,0.03c-0.62,0.12-1.22-0.28-1.34-0.9l-0.74-3.72c-0.12-0.62,0.27-1.22,0.9-1.34
					c0.62-0.12,1.22,0.28,1.34,0.9l0.74,3.72C1080.02,564.39,1079.67,564.96,1079.12,565.13z"/>
			</g>
			<g>
				<path class="st16" d="M1081.77,578.52c-0.05,0.01-0.1,0.03-0.14,0.03c-0.01,0-0.8,0.13-2.23,0.4c-0.62,0.11-1.22-0.3-1.33-0.92
					c-0.11-0.62,0.3-1.22,0.92-1.33c0.42-0.08,0.79-0.14,1.1-0.2l-0.22-1.09c-0.12-0.62,0.29-1.22,0.9-1.34
					c0.62-0.12,1.22,0.28,1.34,0.9l0.44,2.24c0.06,0.3-0.01,0.62-0.18,0.87C1082.23,578.29,1082.01,578.45,1081.77,578.52z"/>
			</g>
			<g>
				<path class="st16" d="M1022.62,596.64c-0.48,0.15-1.02-0.04-1.3-0.49c-0.33-0.54-0.17-1.24,0.37-1.57
					c1.15-0.72,2.43-1.44,3.81-2.14c0.56-0.29,1.25-0.07,1.54,0.49c0.29,0.56,0.07,1.25-0.49,1.54c-1.32,0.68-2.55,1.37-3.65,2.05
					C1022.81,596.57,1022.71,596.61,1022.62,596.64z M1075.33,579.72c-0.04,0.01-0.07,0.02-0.11,0.03
					c-1.25,0.25-2.65,0.53-4.18,0.85c-0.62,0.13-1.22-0.27-1.35-0.88c-0.13-0.62,0.27-1.23,0.88-1.35c1.53-0.32,2.94-0.61,4.2-0.86
					c0.62-0.12,1.22,0.28,1.34,0.9C1076.23,578.99,1075.89,579.55,1075.33,579.72z M1030.21,592.7c-0.54,0.17-1.14-0.1-1.38-0.63
					c-0.26-0.58,0-1.25,0.58-1.51c1.29-0.57,2.62-1.13,3.99-1.67c0.58-0.23,1.25,0.05,1.48,0.64c0.23,0.59-0.06,1.25-0.64,1.48
					c-1.34,0.53-2.64,1.08-3.9,1.63C1030.3,592.67,1030.25,592.69,1030.21,592.7z M1066.96,581.48c-0.03,0.01-0.06,0.02-0.09,0.02
					c-1.33,0.3-2.72,0.62-4.15,0.95c-0.61,0.15-1.23-0.24-1.37-0.85c-0.15-0.61,0.2-1.22,0.85-1.37c1.44-0.34,2.84-0.66,4.18-0.96
					c0.62-0.14,1.23,0.25,1.36,0.87C1067.88,580.73,1067.53,581.31,1066.96,581.48z M1058.64,583.45c-0.02,0.01-0.04,0.01-0.06,0.02
					c-1.35,0.34-2.73,0.69-4.12,1.07c-0.61,0.16-1.24-0.2-1.4-0.81c-0.16-0.61,0.2-1.23,0.81-1.4c1.4-0.37,2.79-0.73,4.16-1.07
					c0.61-0.15,1.23,0.22,1.39,0.83C1059.56,582.68,1059.22,583.28,1058.64,583.45z M1038.15,589.54c-0.58,0.18-1.2-0.13-1.41-0.71
					c-0.21-0.59,0.1-1.25,0.69-1.46c1.34-0.48,2.7-0.95,4.07-1.4c0.64-0.2,1.25,0.13,1.44,0.73c0.2,0.6-0.13,1.25-0.73,1.44
					c-1.35,0.45-2.7,0.91-4.01,1.38C1038.19,589.53,1038.17,589.54,1038.15,589.54z M1050.38,585.66c-0.01,0-0.01,0-0.02,0.01
					c-1.36,0.39-2.72,0.79-4.08,1.2c-0.6,0.18-1.24-0.16-1.43-0.76c-0.18-0.6,0.16-1.24,0.76-1.43l0,0
					c1.37-0.42,2.75-0.82,4.12-1.21c0.61-0.17,1.24,0.18,1.41,0.79C1051.31,584.85,1050.97,585.48,1050.38,585.66z"/>
			</g>
			<g>
				<path class="st16" d="M1017.43,600.65c-0.39,0.12-0.83,0.03-1.14-0.28c-0.45-0.44-0.46-1.17-0.01-1.62
					c0.54-0.55,1.13-1.08,1.78-1.61c0.49-0.4,1.21-0.33,1.61,0.16c0.4,0.49,0.33,1.21-0.16,1.61c-0.58,0.48-1.12,0.96-1.6,1.45
					C1017.77,600.5,1017.61,600.6,1017.43,600.65z"/>
			</g>
		</g>
	</g>
</g>
</svg>
