<?xml version="1.0" encoding="utf-8"?>
<!-- Generator: Adobe Illustrator 27.1.0, SVG Export Plug-In . SVG Version: 6.00 Build 0)  -->
<svg version="1.1" id="Capa_1" xmlns="http://www.w3.org/2000/svg" xmlns:xlink="http://www.w3.org/1999/xlink" x="0px" y="0px"
	 viewBox="0 0 1023 649" style="enable-background:new 0 0 1023 649;" xml:space="preserve">
<style type="text/css">
	.st0{fill:#F2EBDF;}
	.st1{fill:none;}
	.st2{fill:#FFFFFF;}
	.st3{fill:#F2B705;}
	.st4{fill:#040423;}
	.st5{fill:#8C1F33;}
	.st6{fill:#5BA566;}
	.st7{fill:#F2E3CC;}
	.st8{fill:#F15A24;}
	.st9{fill:#400101;}
	.st10{fill:#FCFCFC;}
	.st11{fill:#122B05;}
	.st12{fill:#472FAD;}
	.st13{opacity:0.5;}
	.st14{fill:#A64F03;}
	.st15{fill:#D98E04;}
	.st16{fill:#F2F2F2;}
	.st17{fill:#2FD812;}
	.st18{fill:#AA8D30;}
	.st19{fill:#B0EAB7;}
	.st20{fill:#111147;}
	.st21{fill:none;stroke:#472FAD;stroke-width:0;stroke-linecap:round;stroke-linejoin:round;}
	.st22{fill:#F2B705;stroke:#472FAD;stroke-miterlimit:10;}
	.st23{fill:#231A56;}
	.st24{fill:#EA0070;}
	.st25{fill:#158035;}
	.st26{fill:#F9B331;}
	.st27{opacity:0.4;}
	.st28{fill:#0F0E0D;}
	.st29{fill:#E0245E;}
	.st30{fill:#050535;}
</style>
<rect class="st0" width="1023" height="649"/>
<g class="st13">
	<path class="st1" d="M315.77,277.91c0.2,0.09,0.43,0.19,0.66,0.28c0.21-0.09,0.43-0.18,0.64-0.27
		C316.65,277.93,316.22,277.93,315.77,277.91z"/>
	<path class="st1" d="M136.93,227.77c5.93-10.06,17.17-15.53,26.53-18.45c-13.34-2.99-21.88-7.49-23.85-12.77
		c-0.63-1.68-0.56-3.39,0.15-5.04c-24.37,12.01-34.41,27.62-40.91,47.85c-1.57,4.89-0.83,8.82,2.26,12.01
		c5.85,6.04,19.27,8.24,32.07,8.69C130.74,251.4,129.94,239.64,136.93,227.77z"/>
	<path class="st1" d="M99.18,334.42c4.11-19.75,17.58-21.58,23.06-21.48c-3.59-3.83-11.65-14.17-8.34-26.75
		c-6.42,1.58-34.49,9.66-44.89,32.26c-2.71,5.88-1.82,11.74,2.62,17.44c5.89,7.55,17.79,14.05,31.41,18.25
		C98.26,346.14,99.12,335.07,99.18,334.42z"/>
	<path class="st1" d="M244.62,310.76l4.11,0.28C247.47,310.56,246.09,310.47,244.62,310.76z"/>
	<g>
		<path class="st14" d="M325.91,356.91c0.06,1.16,0.17,3.21,0.32,5.77c3.35-1.47,6.55-2.94,9.62-4.41c-0.06-0.72-0.1-1.31-0.13-1.74
			C329.9,356.72,326.13,356.9,325.91,356.91z"/>
	</g>
	<g>
		<g>
			<path class="st15" d="M403.17,463.76c-3.59-8.72-28.77-47.84-29.02-48.23c-13.43-19.87-28.62-24.98-28.77-25.02
				c-0.17-0.05-0.32-0.17-0.42-0.31c-6.06-8.8-8.22-23.09-8.95-30.2c-3.09,1.47-6.31,2.94-9.67,4.41
				c0.57,9.06,1.63,22.59,3.06,26.44c0.1,0.26,0.06,0.55-0.11,0.77c-0.39,0.53-9.82,12.97-36.26,18.75
				c-0.28,0.02-2.24,0.09-5.04,0.09c-5.32,0-13.67-0.28-19.26-1.82c1.07,2.17,1.36,4.1,1.38,4.26c0.4,2.03,0.67,3.98,0.85,5.88
				c0.46-0.59,1.38-1.07,2.88-1.82c1.17-0.59,2.63-1.32,4.18-2.28c0.82-0.51,1.72-0.59,2.61-0.25c3.38,1.32,5.71,8.62,5.73,8.69
				c0.29,1.03,0.19,2.8,0.1,4.52c-0.03,0.47-0.05,0.93-0.07,1.35c-0.07,1.82-2.13,2.02-4.13,2.22c-1.07,0.1-2.27,0.22-3.3,0.55
				c0.63,0.49,1.34,1.28,1.76,2.64c1.18,3.74,1.3,5.2-1.77,8.27c-1.39,1.4-2.15,2.11-2.85,2.11c-0.11,0-0.22-0.02-0.34-0.05
				c-0.71-0.23-0.82-0.97-0.95-1.82c-0.03-0.2-0.07-0.42-0.11-0.67c-0.26-1.41-1.16-3.63-1.76-5.1c-0.29-0.71-0.51-1.26-0.57-1.49
				c-0.1-0.35-1.06-2.3-2.09-4.31c-1.19,5.2-3.57,9.77-7.17,13.77c-2.81,3.12-5.9,4.71-9.17,4.73c-0.02,0-0.04,0-0.06,0
				c-3.08,0-5.63-1.39-7.23-2.55c0.52,4.77-0.34,12.42-2.98,19.27c-3.03,7.84-16.49,22.24-34.64,22.24c-0.17,0-0.35-0.02-0.53-0.02
				v31.34c0,0.02-0.01,0.03-0.01,0.04c110.76,6.48,169.66-10.87,195.04-55.99C403.37,464.06,403.24,463.93,403.17,463.76z
				 M246.82,513.65c-0.86,3.83-4.84,4.57-7.78,4.57c-1.75,0-3.13-0.26-3.28-0.29c-0.21-0.04-0.39-0.16-0.51-0.33
				c-0.32-0.46-0.59-0.93-0.82-1.41c-0.08,0.6-0.13,0.99-0.14,1.07c-0.03,0.19-0.13,0.37-0.28,0.5c-0.13,0.11-2.78,2.34-5.64,2.34
				c-0.46,0-0.92-0.06-1.38-0.19c-1.86-0.54-3.22-2.15-4.04-4.79c-0.02-0.08-0.04-0.16-0.04-0.24c0-0.29,0.02-7.21,1.49-9.97
				l0.21-0.39c1.55-2.91,3.31-6.21,5.71-5.77c2.29,0.42,2.51,1.04,3.74,4.48l0.19,0.53c0.03,0.09,0.06,0.2,0.09,0.3
				c0.31-0.25,0.66-0.46,0.97-0.65c0.58-0.35,1.12-0.67,1.21-1.07c0.1-0.44,0.02-1.3-0.06-2.21c-0.17-1.85-0.4-4.37,0.44-6.77
				c0.83-2.38,4.08-3.07,6.6-2.34c2.54,0.73,3.84,2.65,3.33,4.88c-0.47,2.05-0.22,4.9,0.05,7.92
				C247.17,507.2,247.48,510.71,246.82,513.65z M265.73,492.16c-0.27,0.41-0.58,0.87-0.63,1.01c-0.12,0.32-0.43,0.54-0.77,0.54
				c-0.01,0-0.02,0-0.03,0c-0.35-0.01-0.66-0.23-0.75-0.57c-1.03-3.5-2.52-6.78-3.26-7.23c-0.02,0.04-0.06,0.11-0.12,0.22
				c-0.12,0.23-0.33,0.39-0.59,0.44c-2.42,0.42-8.21,1.27-9.57,0.14c-0.29-0.24-0.45-0.58-0.45-0.94c0-0.3,0.04-7.5,3.35-10.44
				c1.08-0.96,2.36-1.35,3.83-1.17c0.95,0.12,1.88,0.19,2.78,0.26c4.52,0.37,8.79,0.71,9.77,6.13
				C270.2,485.42,267.18,489.97,265.73,492.16z M303.67,504.12c-1.51,0.61-2.44,1.19-3.06,1.57c-0.57,0.36-1.02,0.64-1.51,0.64
				c-0.1,0-0.21-0.01-0.32-0.04c-0.72-0.17-1.1-0.8-2.02-2.31l-0.54-0.89c-1.76-2.86-1.55-4.29-1.22-6.44
				c0.23-1.52,0.52-3.4,0.23-6.63c-0.21-2.36-0.88-3.89-2.01-4.54c-1.38-0.8-3.1-0.03-3.11-0.02c-0.25,0.12-0.55,0.1-0.78-0.05
				c-0.23-0.15-0.38-0.41-0.38-0.68c0-4.48,4.98-6.7,8.61-8.32l0.58-0.26c2.73-1.23,4.89,3.22,6.98,7.52
				c0.88,1.81,2.21,4.56,2.82,4.79c0,0,0.01,0,0.01,0c3.13,0,4,2.85,4.73,6.29C313.75,499.64,308.59,502.15,303.67,504.12z
				 M317.8,441.45c-0.57,0.63-1.28,1.42-2.4,2.4c-1.29,1.13-2.2,2.69-2.99,4.07c-0.91,1.58-1.63,2.83-2.77,3.08
				c-0.35,0.08-0.7,0.23-1.07,0.38c-0.53,0.23-1.15,0.49-1.82,0.49c-0.68,0-1.4-0.28-2.11-1.16c-1.47-1.84-1.28-4.47-1.1-7.01
				l0.05-0.7c0.15-2.31,2.76-4.86,4.02-5.97c-0.66-0.74-1.96-2.08-3.85-3.42c-0.99-0.7-1.5-1.37-1.58-2.11
				c-0.11-0.98,0.55-1.73,1.14-2.39c0.41-0.46,0.83-0.94,1.01-1.47c0.83-2.5,2.74-2.48,4.96-2.47l0.52,0c2.89,0,5.19,1.54,6.65,4.46
				c0.81,1.63,0.9,1.69,1.93,2.49c0.6,0.47,1.51,1.17,2.98,2.5c1.92,1.74,2.51,2.66,2.26,3.52c-0.26,0.89-1.24,1.06-2.19,1.23
				c-0.41,0.07-0.85,0.15-1.26,0.28C319.1,440.01,318.67,440.49,317.8,441.45z M330.94,485.44c-0.15,0.21-0.41,0.37-0.76,0.37
				c-0.21,0-0.45-0.06-0.71-0.2c-0.27-0.15-0.44-0.43-0.43-0.74c0.01-0.17,0.01-0.34,0.02-0.52c-0.56-0.71-1.79-2.11-4.48-4.81
				c-3.52-3.52-4.98-6.15-4.47-8.02c0.3-1.09,1.22-1.59,1.71-1.71c0.16-0.04,0.31-0.02,0.46,0.03c0.48-0.36,1.14-0.42,1.14-0.42
				c-0.72-0.72-0.56-2.18-0.35-3.15c-0.1-0.05-0.2-0.11-0.28-0.2c-0.29-0.34-0.26-0.85,0.08-1.14c0.06-0.06,1.59-1.4,3.48-1.28
				c0.98,0.07,1.84,0.53,2.55,1.36c1.98,2.31,1.89,14.44,1.79,18.82C331.39,484.84,331.18,485.11,330.94,485.44z M354.57,419.36
				c-0.17-0.02-0.34-0.09-0.47-0.21l-7.11-6.53l-10.56-0.64c-0.34-0.02-0.64-0.26-0.73-0.59c-0.09-0.33,0.03-0.69,0.32-0.89
				l6.05-4.24c-0.55-1.96-1.93-8.16,2.19-9.96c1.11-0.49,2.2-0.48,3.16,0.02c2.08,1.09,3.06,4.24,3.5,6.27
				c0.22,0.03,0.52,0.07,0.81,0.11c3.12,0.39,10.42,1.3,11.32,8.36c0.33,2.63-0.21,4.69-1.63,6.15c-1.87,1.92-4.72,2.17-6.07,2.17
				C354.89,419.39,354.61,419.36,354.57,419.36z M369.88,483.34c-0.86,4.23-1.92,9.48-1.08,12.52c0.11,0.41-0.11,0.84-0.52,0.98
				c-0.09,0.03-0.18,0.05-0.27,0.05c-0.32,0-0.62-0.19-0.75-0.49c-0.03-0.06-2.73-6.3-8-9.84c-2.96-1.98-3.59-4.58-3.59-6.41
				c-0.01-3.09,1.77-6.39,4.44-8.21c1.88-1.29,4.28-1.33,6.58-0.12c2.42,1.28,4.11,3.64,4.11,5.76
				C370.78,478.87,370.36,480.94,369.88,483.34z M375.23,458.79c-0.57,0.44-1.18,0.58-1.73,0.58c-0.93,0-1.68-0.4-1.73-0.42
				c-0.21-0.11-0.36-0.31-0.41-0.55c-2.08-9.89-14.87-11.76-15-11.78c-0.25-0.03-0.48-0.19-0.6-0.41s-0.14-0.49-0.03-0.73
				c0.92-2.04,2.13-3.28,3.61-3.68c0.76-0.2,1.46-0.15,2.03-0.01c-0.19-3.97,1.57-5.8,3-7.3c0.68-0.71,1.32-1.39,1.68-2.2
				c0.55-1.26,1.6-2.02,2.97-2.12c2.01-0.15,4.45,1.16,5.65,3.06c1.61,2.55,1.08,10.81,0.98,12.26
				C377.4,452.88,377.26,457.23,375.23,458.79z"/>
		</g>
	</g>
	<g>
		<path class="st6" d="M361.42,411.27c-0.74-5.8-6.93-6.58-9.91-6.95c-1.31-0.16-1.97-0.25-2.11-0.96
			c-0.57-2.91-1.59-4.98-2.75-5.58c-0.52-0.27-1.09-0.26-1.75,0.03c-3.4,1.49-1.15,8.47-1.12,8.54c0.12,0.34-0.01,0.72-0.3,0.93
			l-4.63,3.24l8.52,0.51c0.19,0.01,0.36,0.09,0.5,0.21l7.11,6.53c0.85,0.03,3.64-0.01,5.26-1.68
			C361.29,414.99,361.69,413.38,361.42,411.27z"/>
	</g>
	<g>
		<path class="st6" d="M271.21,424.71c-0.07,0.38-0.05,2.74,0.01,4.87c0.69,1.33,2.53,4.9,2.72,5.62c0.06,0.2,0.26,0.68,0.51,1.3
			c0.63,1.53,1.57,3.85,1.86,5.43c0.05,0.26,0.08,0.5,0.12,0.71c0.01,0.05,0.02,0.11,0.03,0.16c0.45-0.4,1.07-1.01,1.36-1.3
			c2.54-2.54,2.41-3.33,1.37-6.63c-0.47-1.49-1.36-1.99-1.89-2.28c-0.33-0.18-0.83-0.46-0.78-1.07c0.05-0.66,0.58-0.85,1.73-1.26
			c1.25-0.44,2.64-0.58,3.86-0.7c1.12-0.11,2.64-0.26,2.66-0.66c0.02-0.43,0.04-0.9,0.07-1.38c0.08-1.43,0.18-3.22-0.04-3.99
			c-0.37-1.31-2.57-6.76-4.76-7.61c-0.41-0.16-0.77-0.13-1.15,0.11c-1.62,1.01-3.11,1.76-4.31,2.36c-1.02,0.51-2.17,1.09-2.35,1.37
			c-0.34,0.55-0.76,3.34-0.9,4.25C271.27,424.33,271.23,424.57,271.21,424.71z"/>
	</g>
	<g>
		<path class="st6" d="M321.16,437.76c0.24-0.04,0.57-0.1,0.79-0.16c-0.16-0.26-0.58-0.79-1.68-1.78c-1.42-1.29-2.3-1.97-2.88-2.42
			c-1.18-0.92-1.44-1.15-2.39-3.05c-1.18-2.36-2.93-3.56-5.2-3.56l-0.53,0c-0.13,0-0.25,0-0.37,0c-1.95,0-2.63,0.12-3.04,1.36
			c-0.28,0.85-0.84,1.48-1.34,2.04c-0.38,0.43-0.77,0.87-0.74,1.12c0.01,0.09,0.1,0.41,0.91,0.97c3.03,2.14,4.64,4.27,4.71,4.36
			c0.26,0.35,0.2,0.85-0.15,1.13c-1.08,0.86-3.93,3.5-4.05,5.34l-0.05,0.71c-0.16,2.23-0.33,4.54,0.74,5.87
			c0.6,0.75,0.94,0.65,2.02,0.19c0.4-0.17,0.85-0.37,1.35-0.48c0.43-0.1,1.14-1.32,1.71-2.31c0.82-1.41,1.83-3.17,3.33-4.48
			c1.05-0.91,1.72-1.66,2.26-2.26c0.92-1.02,1.59-1.76,3.07-2.25C320.17,437.94,320.7,437.85,321.16,437.76z"/>
	</g>
	<g>
		<path class="st6" d="M374.04,445.73c-0.02-0.08-0.03-0.17-0.02-0.25c0.2-2.54,0.45-9.55-0.72-11.4c-0.87-1.38-2.74-2.4-4.16-2.31
			c-0.77,0.06-1.29,0.44-1.6,1.15c-0.47,1.08-1.25,1.89-2,2.68c-1.56,1.63-3.03,3.17-2.43,7.34c0.05,0.32-0.1,0.64-0.38,0.81
			c-0.28,0.17-0.63,0.16-0.89-0.03c-0.01-0.01-0.98-0.67-2.1-0.36c-0.76,0.21-1.45,0.83-2.05,1.83c3.34,0.7,13,3.46,15.16,12.43
			c0.35,0.11,0.94,0.21,1.39-0.14C374.91,456.98,376.2,454.81,374.04,445.73z"/>
	</g>
	<g>
		<path class="st6" d="M365.92,473.26c-0.87-0.46-1.74-0.68-2.57-0.68c-0.84,0-1.64,0.24-2.33,0.71c-2.21,1.51-3.74,4.33-3.73,6.86
			c0.01,2.06,1,3.81,2.87,5.06c3.08,2.06,5.31,4.9,6.72,7.11c0.12-2.96,0.81-6.37,1.4-9.3c0.47-2.31,0.87-4.3,0.87-5.44
			C369.16,476.06,367.79,474.25,365.92,473.26z"/>
	</g>
	<g>
		<path class="st6" d="M322.8,470.4c0.11,0.43-0.15,0.87-0.58,0.98c-0.05,0.02-0.44,0.15-0.55,0.59c-0.14,0.57-0.04,2.32,4.05,6.41
			c1.48,1.48,2.57,2.62,3.38,3.5c0.06-6.33-0.25-14.44-1.43-15.82c-0.42-0.49-0.89-0.75-1.42-0.8c-1.15-0.09-2.29,0.87-2.3,0.88
			c-0.25,0.21-0.59,0.25-0.87,0.12c-0.21,0.97-0.37,2.43,0.35,3.15c0,0-0.67,0.06-1.14,0.42
			C322.52,469.93,322.73,470.12,322.8,470.4z"/>
	</g>
	<g>
		<path class="st6" d="M307.9,490.06c-1.4,0-2.41-1.95-4.23-5.7c-1.33-2.74-3.54-7.32-4.85-6.75l-0.59,0.26
			c-2.85,1.27-6.64,2.96-7.48,5.7c0.31-0.06,0.66-0.1,1.03-0.1c0.71,0,1.49,0.14,2.25,0.58c1.61,0.93,2.57,2.88,2.83,5.81
			c0.3,3.42-0.01,5.5-0.24,7.02c-0.3,1.99-0.45,2.99,1,5.35l0.55,0.9c0.4,0.67,0.79,1.3,0.99,1.53c0.14-0.07,0.38-0.22,0.59-0.35
			c0.66-0.42,1.67-1.05,3.32-1.71c5.49-2.2,8.75-4.22,8.05-7.53C310.2,490.78,309.38,490.06,307.9,490.06z"/>
	</g>
	<g>
		<path class="st6" d="M264.57,490.96c1.39-2.1,3.87-6.09,3.14-10.13c-0.72-4-3.35-4.4-8.3-4.8c-0.92-0.07-1.87-0.15-2.85-0.27
			c-1-0.12-1.83,0.13-2.56,0.78c-2.21,1.96-2.76,6.92-2.8,8.97c0.95,0.33,4.57,0.03,7.74-0.49c0.42-0.62,0.92-0.78,1.31-0.78
			c0.04,0,0.09,0,0.13,0.01C262.04,484.4,263.58,487.99,264.57,490.96z"/>
	</g>
	<g>
		<path class="st6" d="M233.21,511.63c-0.17-1.75-0.08-3.35,0.01-4.52c-0.08-1.08-0.23-2.07-0.5-2.82l-0.19-0.53
			c-1.14-3.18-1.14-3.18-2.5-3.43c-1.27-0.22-2.95,3.01-3.98,4.94l-0.21,0.4c-1.04,1.95-1.29,7.09-1.3,9.08
			c0.65,2.02,1.63,3.23,2.9,3.6c2.08,0.6,4.53-1.07,5.29-1.64C232.83,515.94,233.08,513.91,233.21,511.63z"/>
	</g>
	<g>
		<path class="st6" d="M245.24,495.51c0.45-1.96-1.38-2.72-2.2-2.95c-1.78-0.52-4.12-0.1-4.61,1.31c-0.72,2.06-0.52,4.29-0.35,6.08
			c0.1,1.13,0.19,2.02,0.03,2.72c-0.24,1.08-1.15,1.63-1.96,2.11c-0.83,0.5-1.22,0.78-1.23,1.21c0,0.28-0.03,0.64-0.06,1.07
			c0,0.03,0,0.07-0.01,0.1c0.1,1.42,0.07,2.96,0,4.41c0.17,1.61,0.6,3.32,1.56,4.82c1.52,0.23,7.92,0.95,8.83-3.1
			c0.61-2.69,0.3-6.07,0.01-9.35C244.97,500.79,244.71,497.81,245.24,495.51z"/>
	</g>
	<g>
		<path class="st4" d="M172.95,209.43c29.07,4.37,72.57-5.38,93.69-11.82c6.22-1.9,12.47-3.99,18.24-6.37
			c-0.04-0.1-0.07-0.22-0.06-0.33c0.02-0.43,0.37-0.77,0.8-0.78c0.42-0.01,0.83,0,1.22,0.03c0.21-0.01,0.44-0.02,0.68-0.04
			c1.37-0.6,2.7-1.23,3.99-1.87c0.97-1.49,0.61-4-1.07-7.25c-0.04-0.04-9.91-13.46-31.29-12.11c-21.49,1.35-31.06,11.99-31.16,12.1
			c-0.27,0.31-0.74,0.37-1.08,0.13c-0.16-0.11-15.83-10.55-40.43,14.72c-0.04,0.04-0.08,0.08-0.13,0.11
			c-0.01,0.01-2.54,1.9-6.68,11.33c-0.12,0.27-0.38,0.46-0.68,0.48c-0.1,0.01-3.38,0.32-8.11,1.36
			C171.58,209.21,172.25,209.32,172.95,209.43z"/>
	</g>
	<g>
		<path class="st4" d="M161.63,258.25c1.97-0.56,9.74-2.21,21.48-4.71c15.54-3.3,37.73-8.02,59.7-13.05
			c-0.28-2.39-2.08-4.76-5.36-7.06c-0.26-0.18-0.39-0.5-0.33-0.81c0.06-0.31,0.29-0.56,0.6-0.64c6.62-1.65,24-7.24,24.85-13.17
			c0.26-1.85-1.22-3.74-4.41-5.59c-0.31-0.18-0.47-0.55-0.38-0.9c0.09-0.35,0.4-0.6,0.76-0.62c0.21-0.01,20.76-0.86,27.11-8.47
			c3.71-4.43,5.33-8.03,4.45-9.87c-0.43-0.89-1.47-1.3-2.6-1.48c-6.38,2.78-13.4,5.15-20.4,7.29
			c-17.56,5.36-50.51,12.98-77.99,12.98c-5.78,0-11.31-0.34-16.41-1.1c-1.99-0.3-3.88-0.63-5.72-0.98
			c-9.59,2.6-22.42,7.93-28.66,18.54c-6.83,11.61-5.9,23.13-3.45,31.51C147.12,260.39,158.46,259.15,161.63,258.25z"/>
	</g>
	<g>
		<path class="st4" d="M148.11,358.09c0.06-0.01,0.11-0.02,0.17-0.01c0.76,0.02,56.54,1.41,115.68-14.3
			c-0.01-0.03-0.01-0.06-0.02-0.08c-0.04-0.17-2.88-12.34-11.11-13.67c-0.36-0.06-0.64-0.35-0.68-0.71
			c-0.04-0.36,0.16-0.71,0.5-0.85c0.21-0.09,5.2-2.36,1.65-11.23c-0.03-0.08-1.66-4.64-5.44-6.16c-0.04-0.02-0.08-0.02-0.12-0.04
			l-4.11-0.28c-1.02,0.2-2.08,0.58-3.18,1.15c-0.4,0.2-0.88,0.05-1.09-0.34c-0.21-0.39-0.07-0.88,0.31-1.09
			c0.32-0.18,7.81-4.56,5.75-14.02c-0.02-0.04-0.19-0.42-0.52-0.95c-4.35,0.46-8.64,0.86-12.81,1.2c-18.07,1.46-35.95,2-51.31,2
			c-22.68,0-39.89-1.18-44.18-2.29c-0.44-0.11-0.7-0.56-0.58-0.99c0.11-0.43,0.54-0.7,0.99-0.58c6.62,1.72,57.19,4.2,106.8-0.86
			c-1.67-2-4.7-4.28-9.42-3.05c-0.23,0.06-0.47,0.02-0.67-0.12c-0.2-0.13-0.32-0.35-0.35-0.58l-0.3-2.68
			c-2.19,0.29-7.96,0.73-12.04-2.02c-2.13-1.44-3.47-3.53-3.99-6.22c-0.82-4.24,1.51-7.82,6.22-9.58
			c4.54-1.69,10.81-1.37,13.66,1.53c1.28-2.54,4.13-9.07,2.37-13.93c-0.84-2.32-2.65-3.99-5.4-4.99c-0.3-0.11-0.51-0.39-0.54-0.71
			c-0.02-0.32,0.15-0.63,0.44-0.78c0.07-0.04,7.06-3.69,7.94-8.69c-21.85,5-43.86,9.68-59.3,12.96c-11.29,2.4-19.45,4.13-21.37,4.68
			c-2.25,0.64-12.48,1.93-24.21,1.93c-0.82,0-1.65-0.01-2.48-0.02c1.46,4.42,3.27,7.81,4.34,9.61c0.18,0.31,0.14,0.7-0.1,0.96
			c-0.24,0.26-0.63,0.34-0.95,0.18c-0.05-0.03-5.55-2.63-11.45-0.53c-4.26,1.52-7.72,5.08-10.29,10.6
			c-7.84,16.85,7.83,30.62,7.99,30.76c0.28,0.24,0.36,0.64,0.2,0.97c-0.16,0.33-0.54,0.52-0.88,0.45
			c-0.77-0.14-18.63-3.19-23.45,19.93c0,0.09-0.97,12.61,4.78,20.24C119.78,358.93,135.52,360.45,148.11,358.09z M132.65,290.82
			c-9.83,3.2-10.8,5.45-10.76,6.27c0.08,1.63,4.05,3.23,6.85,3.84c0.44,0.1,0.72,0.53,0.62,0.97c-0.08,0.38-0.42,0.64-0.79,0.64
			c-0.06,0-0.11-0.01-0.17-0.02c-0.81-0.18-7.95-1.83-8.13-5.35c-0.14-2.7,3.64-5.21,11.88-7.89c0.44-0.14,0.89,0.1,1.03,0.52
			C133.31,290.22,133.08,290.68,132.65,290.82z"/>
	</g>
	<g>
		<path class="st4" d="M261.89,444c7-7.77,9.16-17.86,6.6-30.84c-0.02-0.12-1.08-7.37-7.24-8.91c-0.37-0.09-0.63-0.43-0.62-0.81
			c0.01-0.38,0.29-0.7,0.66-0.78c0.36-0.07,8.85-1.99,8.23-18.52c0-0.07-0.01-0.13-0.01-0.21c-34.81,9.26-78.15,16.54-131.67,19.16
			c-0.01,0-0.03,0-0.04,0c-0.43,0-0.79-0.34-0.81-0.77c-0.02-0.45,0.32-0.83,0.77-0.85c53.57-2.62,96.91-9.92,131.66-19.19
			c-0.87-13.88-5.23-15.53-9.46-17.1c-0.39-0.14-0.78-0.29-1.16-0.44c-0.33-0.13-0.54-0.46-0.51-0.81c0.02-0.35,0.27-0.65,0.61-0.74
			c0.03-0.01,2.91-0.81,4.77-4.09c1.89-3.33,2.11-7.97,0.69-13.77c-58.37,15.51-113.43,14.43-116.04,14.36
			c-4.09,0.76-8.51,1.12-13.1,1.12c-8.95,0-18.56-1.37-27.68-3.75c1.46,1.31,3.24,2.34,5.39,2.96c0.39,0.11,0.64,0.49,0.58,0.9
			c-0.06,0.4-0.4,0.7-0.81,0.7c0,0,0,0-0.01,0c-0.47,0-27.5,0.24-33.18,24.99c-1.61,6.99-0.77,13.15,2.47,18.31
			c6.16,9.8,19.09,12.81,19.22,12.84c0.3,0.07,0.53,0.29,0.61,0.59c0.08,0.29-0.02,0.61-0.25,0.81c-0.08,0.07-8.41,7.62-8.99,18.73
			c-0.39,7.37,2.66,14.67,9.05,21.7c0.5,0.48,13.08,12.41,27.5,1.81c0.26-0.2,0.63-0.21,0.91-0.04c0.28,0.17,0.43,0.5,0.38,0.83
			c-0.01,0.05-0.75,4.86,2.65,9.46c3.23,4.37,9.02,7.14,17.22,8.25c13.95,1.89,18.15,1.27,21.28-0.85c0.02-0.02,0.04-0.03,0.06-0.04
			c0.85-0.59,1.63-1.28,2.51-2.07c1.16-1.04,2.48-2.23,4.34-3.52c0.14-0.1,0.3-0.15,0.46-0.15c0.05,0,0.1,0.01,0.15,0.02
			c0.21,0.04,0.41,0.17,0.53,0.35c0.08,0.12,8.06,11.89,26.75,13.4c18.71,1.51,32.74-13.23,35.77-21.09
			c2.98-7.7,3.62-16.68,2.5-20.57c-0.1-0.36,0.06-0.75,0.38-0.93c0.33-0.19,0.74-0.12,1,0.15c0.03,0.04,3.39,3.59,7.85,3.59
			c0.02,0,0.04,0,0.06,0C256.73,448.17,259.4,446.76,261.89,444z M112.48,405.1c0.24-0.56,6.06-13.59,27.63-12.52
			c0.45,0.02,0.79,0.4,0.77,0.85c-0.02,0.45-0.4,0.8-0.85,0.77c-18.03-0.9-24.45,8.62-25.78,11c12.4,10.02,25.43,5.82,25.56,5.78
			c0.43-0.14,0.89,0.09,1.03,0.51c0.14,0.43-0.09,0.89-0.51,1.03c-0.07,0.02-3.04,0.99-7.51,0.99c-5.36,0-12.88-1.39-20.12-7.47
			C112.43,405.81,112.34,405.43,112.48,405.1z M128.74,443.43c-9.1,0-19.24-2.5-29.89-9.44c-0.38-0.25-0.48-0.75-0.24-1.13
			c0.24-0.38,0.75-0.48,1.12-0.24c36.98,24.08,67.68-6.89,67.99-7.21c0.31-0.32,0.83-0.33,1.15-0.02c0.32,0.31,0.33,0.83,0.02,1.15
			C168.66,426.78,152.18,443.43,128.74,443.43z M144.71,472.71c-1.55,0-3.12-0.08-4.72-0.26c-0.45-0.05-0.77-0.45-0.72-0.9
			c0.05-0.45,0.47-0.77,0.9-0.72c33.9,3.72,55.45-35.43,55.66-35.83c0.22-0.4,0.71-0.54,1.1-0.33c0.4,0.21,0.54,0.71,0.33,1.1
			C197.04,436.17,176.95,472.71,144.71,472.71z M193.04,465.2c-0.11,0.05-0.22,0.07-0.34,0.07c-0.31,0-0.6-0.18-0.74-0.48
			c-0.19-0.41,0-0.89,0.4-1.08c44.59-20.29,42.77-60.98,42.74-61.39c-0.03-0.45,0.32-0.83,0.76-0.86c0.39-0.03,0.83,0.31,0.86,0.76
			C236.76,402.65,238.68,444.43,193.04,465.2z"/>
	</g>
	<g>
		<path class="st7" d="M206.86,488.69c-0.21-0.01-0.42-0.01-0.63-0.03c-17.09-1.39-25.44-10.79-27.48-13.45
			c-1.45,1.06-2.54,2.05-3.53,2.93c-0.8,0.72-1.53,1.38-2.3,1.95l-2.41,47.01c0,0.05-0.02,0.09-0.03,0.14
			c18.52,4.45,33.34-4.53,36.55-6.7c-0.09-0.13-0.16-0.28-0.16-0.46V488.69z"/>
	</g>
	<path class="st2" d="M337.42,357.51c0.75-0.37,1.5-0.73,2.24-1.1c-0.8,0.02-1.57,0.04-2.32,0.07
		C337.36,356.76,337.39,357.1,337.42,357.51z"/>
	<g>
		<g>
			<path class="st7" d="M446.94,428.41c-9.36-11.7-19.08-31.85-19.18-32.05c-16.51-33.53-26.61-37.36-26.71-37.4
				c-12.57-3.06-39.6-3.05-57.59-2.64c-1.9,0.97-3.87,1.94-5.88,2.92c0.67,6.68,2.73,21.15,8.57,29.82
				c2.2,0.78,16.41,6.42,29.36,25.58c1.05,1.63,25.52,39.65,29.17,48.51c0.02,0.04,0.02,0.09,0.03,0.13
				c31.07-6.83,41.65-31.08,43.03-34.58c-0.05,0.01-0.1,0.02-0.15,0.02C447.34,428.71,447.1,428.61,446.94,428.41z M402.95,375.84
				c0,0-0.01,0-0.01,0c-0.44,0-0.81-0.36-0.81-0.8c-0.05-3.78-1.24-6.78-3.53-8.91c-4.36-4.05-11.29-3.69-11.36-3.69
				c-0.44,0.03-0.83-0.32-0.86-0.76c-0.03-0.45,0.32-0.83,0.76-0.86c0.31-0.02,7.71-0.4,12.57,4.12c2.63,2.44,3.99,5.83,4.04,10.08
				C403.76,375.47,403.4,375.84,402.95,375.84z"/>
		</g>
	</g>
	<g>
		<path class="st7" d="M291.91,193.92c0.29,2.51-1.4,6.03-5,10.34c-5.52,6.6-20.06,8.42-25.88,8.89c2.39,1.84,3.45,3.81,3.15,5.87
			c-1.02,7.15-18.58,12.5-24.43,14.09c2.75,2.23,4.29,4.57,4.64,7c21.73-5,43.1-10.28,57.45-14.8c3.96-1.25,7.51-2.58,10.71-3.96
			C305.67,200.71,295.54,195.25,291.91,193.92z"/>
	</g>
	<g>
		<path class="st7" d="M247.63,295.31c0.21,0.38,0.32,0.64,0.33,0.65c1.37,6.23-0.98,10.56-3.22,13.11c1.67-0.26,3.25-0.1,4.73,0.49
			c4.48,1.8,6.28,6.88,6.35,7.1c1.79,4.48,1.57,7.56,0.75,9.62c6.25,1.44,42.54,9.05,58.83-4.45c16.07-13.31,14.97-35.6,14.6-39.86
			c-0.02,0-0.04,0-0.06,0c-6.53,0-10.83-0.99-13.59-2.06C297.02,288.08,271.4,292.7,247.63,295.31z"/>
	</g>
	<g>
		<g>
			<path class="st7" d="M313.07,222.91c-3.22,1.38-6.77,2.71-10.73,3.95c-14.47,4.56-36.01,9.88-57.88,14.91
				c-0.39,4.65-5.04,8.16-7.47,9.69c2.38,1.2,4.01,2.98,4.85,5.31c2.47,6.86-2.85,16-3.08,16.38c-0.15,0.25-0.41,0.4-0.7,0.4
				c0,0,0,0,0,0c-0.29,0-0.56-0.16-0.7-0.41c-1.61-2.78-7.69-3.71-12.52-1.91c-1.88,0.7-6.14,2.86-5.19,7.75
				c0.43,2.25,1.54,3.99,3.3,5.18c4.46,3.01,11.62,1.65,11.69,1.63c0.22-0.05,0.45,0.01,0.64,0.14c0.18,0.13,0.3,0.34,0.33,0.57
				l0.29,2.63c5.59-1.04,9.05,2.27,10.76,4.63c24.86-2.64,49.34-7.19,67.77-14.72c-1.67-0.89-2.35-1.65-2.42-1.73
				c-0.22-0.26-0.25-0.62-0.09-0.92c0.17-0.29,0.5-0.45,0.83-0.41c3.48,0.51,6.43,0.3,8.82-0.19c2.25-1.13,4.37-2.31,6.35-3.55
				c-3.11-10.4,2.52-17.71,5.03-20.32C329.32,250.67,320.11,245.27,313.07,222.91z M234.43,281.8c-0.53,0.05-1.04,0.08-1.51,0.08
				c-2.03,0-3.5-0.51-4.37-1.51c-1.16-1.33-0.76-2.99-0.74-3.06c0.11-0.44,0.55-0.7,0.99-0.59c0.43,0.11,0.7,0.55,0.59,0.98
				c-0.01,0.05-0.2,0.94,0.4,1.62c0.7,0.79,2.25,1.09,4.47,0.86c0.41-0.05,0.85,0.28,0.89,0.73
				C235.21,281.35,234.88,281.75,234.43,281.8z M307.01,245.09c-0.08,0.24-0.27,0.42-0.5,0.51c-2.1,0.74-4.2,1-6.12,1
				c-4.65,0-8.29-1.54-8.5-1.63c-0.41-0.18-0.6-0.66-0.42-1.07c0.18-0.41,0.65-0.6,1.07-0.42c0.07,0.03,6.6,2.78,13.05,0.72
				c0.5-1.72,2.27-8.8-1.82-11.02c-0.39-0.21-0.54-0.71-0.33-1.1c0.21-0.4,0.71-0.54,1.1-0.33
				C310.39,234.9,307.15,244.67,307.01,245.09z"/>
		</g>
	</g>
	<g>
		<path class="st7" d="M301.94,332.88c-11.84,4.82-23.98,8.79-36,12.04c1.53,6.24,1.26,11.31-0.87,15.03
			c-1.17,2.04-2.66,3.25-3.84,3.96c4.28,1.62,8.86,4.04,9.81,17.95c20.89-5.65,38.64-12.01,53.61-18.48
			c-0.2-3.21-0.32-5.73-0.38-6.84C308.44,352.43,303.46,339.5,301.94,332.88z"/>
	</g>
	<g>
		<path class="st7" d="M285.64,331.42c-14.02,0-27.02-2.96-29.88-3.65c-0.3,0.43-0.62,0.79-0.92,1.08
			c7.95,2.71,10.56,13.93,10.67,14.43c0.01,0.02,0.01,0.04,0.02,0.07c12.05-3.26,24.22-7.24,36.07-12.09
			c-0.1-0.55-0.17-1.02-0.22-1.39C296.32,330.99,290.92,331.42,285.64,331.42z"/>
	</g>
	<g>
		<path class="st7" d="M292.82,408.76c23.31-5.11,33.22-15.8,34.9-17.79c-1.4-4.45-2.42-17.05-2.98-25.87
			c-15,6.45-32.75,12.79-53.62,18.42c0.01,0.19,0.02,0.37,0.03,0.57c0.49,12.98-4.48,17.69-7.44,19.34
			c1.59,0.78,2.78,1.89,3.68,3.07C275.04,409.44,292.65,408.76,292.82,408.76z"/>
	</g>
	<path class="st12" d="M304.54,231.74c-0.39-0.21-0.89-0.07-1.1,0.33c-0.21,0.39-0.07,0.89,0.33,1.1c4.09,2.21,2.32,9.3,1.82,11.02
		c-6.45,2.06-12.99-0.69-13.05-0.72c-0.41-0.18-0.89,0.01-1.07,0.42c-0.18,0.41,0.01,0.89,0.42,1.07c0.21,0.09,3.85,1.63,8.5,1.63
		c1.92,0,4.02-0.26,6.12-1c0.24-0.08,0.42-0.27,0.5-0.51C307.15,244.67,310.39,234.9,304.54,231.74z"/>
	<path class="st12" d="M448.21,427.39c-9.24-11.56-18.89-31.54-18.99-31.74c-16.95-34.42-27.23-38.09-27.72-38.25
		c-12.17-2.96-36.86-3.14-54.76-2.8c4.47-2.36,8.61-4.7,12.39-6.98c40.02-24.08,52.7-47.2,52.79-47.38
		c12.51-19.54,15.7-36.02,9.5-48.98c-10.52-21.97-43.87-25.83-45.29-25.98c-0.43-0.04-0.85,0.27-0.9,0.72
		c-0.05,0.45,0.27,0.85,0.72,0.9c0.34,0.04,33.87,3.92,44,25.07c5.94,12.42,2.78,28.36-9.44,47.45
		c-0.12,0.23-12.59,22.95-52.23,46.81c-4.57,2.75-9.63,5.58-15.2,8.45c-9.21,0.22-16,0.54-17.18,0.6
		c-16.45-3.62-21.16-16.68-22.5-23c8.78-3.64,17.38-7.75,25.62-12.42c0.39-0.22,0.53-0.72,0.31-1.11c-0.22-0.39-0.72-0.53-1.11-0.31
		c-8.08,4.57-16.51,8.62-25.12,12.2c-0.07-0.46-0.12-0.84-0.15-1.14c5.07-1.29,9.74-3.32,13.47-6.41
		c18.43-15.27,15.13-41.77,15.1-42.04c-0.05-0.41-0.37-0.71-0.82-0.71c-5.56,0.06-9.45-0.6-12.14-1.4c1.08-0.49,2.14-0.98,3.18-1.49
		c5.03-0.99,7.76-3.2,7.92-3.34c0.27-0.22,0.36-0.59,0.24-0.91c-0.04-0.1-0.06-0.19-0.09-0.29c4.92-3.19,9.02-6.77,12.01-10.79
		c11.41-15.4,15.33-27.97,11.65-37.34c-4.15-10.58-16.35-12.98-16.86-13.08c-0.44-0.08-0.87,0.21-0.95,0.65
		c-0.08,0.44,0.21,0.87,0.65,0.95c0.12,0.02,11.85,2.35,15.65,12.09c3.45,8.82-0.4,20.86-11.45,35.77
		c-2.79,3.77-6.59,7.15-11.19,10.19c-3.25-11.75,5.34-18.87,5.73-19.18c0.26-0.21,0.36-0.54,0.27-0.86s-0.37-0.55-0.69-0.58
		c-0.11-0.01-11.65-1.64-20.05-28.36c-0.01-0.04-0.02-0.07-0.04-0.11c27.77-12.46,27.97-28.77,27.96-29.55c0-0.45-0.37-0.8-0.81-0.8
		c0,0-0.01,0-0.01,0c-0.45,0.01-0.81,0.37-0.8,0.82c0,0.18-0.18,15.87-26.85,27.96c-8.17-24.4-20.67-28.22-22.91-28.71
		c-0.25-0.32-0.53-0.6-0.88-0.84c0.87-0.34,1.69-0.87,2.31-1.64c12-6.06,20.6-13.93,20.15-24.96
		c-0.72-17.55-20.19-20.61-20.39-20.64c-0.44-0.07-0.86,0.24-0.92,0.69c-0.07,0.44,0.24,0.86,0.69,0.92
		c0.18,0.03,18.34,2.88,19,19.1c0.4,9.71-6.95,16.9-17.51,22.55c0.28-1.85-0.29-4.18-1.76-7.02c-0.1-0.14-10.45-14.3-32.77-12.89
		c-19.76,1.24-29.59,9.92-31.8,12.14c-3.22-1.84-18.69-8.55-41.88,15.24c-0.54,0.41-3.05,2.65-6.99,11.53
		c-1.48,0.16-5.97,0.71-11.59,2.2c-14.33-2.82-23.77-7.32-25.66-12.38c-0.72-1.93-0.28-3.86,1.32-5.74c0,0,0-0.01,0.01-0.01
		c11.2-5.17,25.24-9.66,43.1-13.53c0.44-0.1,0.72-0.53,0.62-0.97c-0.1-0.44-0.52-0.72-0.97-0.62c-17.97,3.89-32.16,8.5-43.52,13.82
		c-0.13,0.02-0.25,0.08-0.36,0.17c-26.53,12.53-37.37,29.03-44.04,49.78c-1.75,5.44-0.86,10.02,2.64,13.64
		c6.41,6.62,20.52,8.82,33.73,9.18c1.13,3.54,2.48,6.48,3.58,8.55c-2.33-0.68-6.3-1.32-10.55,0.18c-4.7,1.66-8.48,5.52-11.24,11.45
		c-0.4,0.85-0.73,1.69-1.02,2.52c-4.23,0.96-35.61,8.83-46.91,33.38c-2.94,6.38-1.96,12.99,2.81,19.12
		c6.33,8.11,19.39,15.05,34.12,19.33c1.27,1.59,2.82,2.98,4.75,4.03c-7.85,0.96-26.55,5.4-31.28,25.99
		c-1.71,7.43-0.8,14.01,2.69,19.55c5.36,8.51,15.17,12.09,18.83,13.17c-2.38,2.5-7.98,9.34-8.49,18.82
		c-0.42,7.83,2.77,15.53,9.51,22.94c0.13,0.13,13.27,12.64,28.24,2.95c0.03,2.02,0.51,5.49,3.03,8.92c3.5,4.75,9.66,7.75,18.33,8.93
		c12.84,1.74,17.86,1.34,21.17-0.36l-2.36,45.87c-0.02,0.45,0.32,0.83,0.77,0.85c0.01,0,0.03,0,0.04,0c0.38,0,0.69-0.27,0.78-0.63
		c0.01-0.05,0.03-0.09,0.03-0.14l2.41-47.01c0.77-0.57,1.5-1.23,2.3-1.95c0.98-0.88,2.08-1.87,3.53-2.93
		c2.04,2.66,10.39,12.06,27.48,13.45c0.21,0.02,0.42,0.01,0.63,0.03v31.4c0,0.17,0.07,0.33,0.16,0.46c0.15,0.21,0.38,0.36,0.65,0.36
		c0.43,0,0.78-0.34,0.8-0.77c0-0.02,0.01-0.03,0.01-0.04v-31.34c0.17,0,0.35,0.02,0.53,0.02c18.14,0,31.61-14.4,34.64-22.24
		c2.65-6.85,3.5-14.5,2.98-19.27c1.6,1.17,4.16,2.55,7.23,2.55c0.02,0,0.04,0,0.06,0c3.28-0.02,6.36-1.61,9.17-4.73
		c3.6-4,5.99-8.57,7.17-13.77c1.03,2.01,1.99,3.96,2.09,4.31c0.07,0.24,0.28,0.78,0.57,1.49c0.6,1.47,1.51,3.69,1.76,5.1
		c0.04,0.24,0.08,0.47,0.11,0.67c0.13,0.85,0.25,1.59,0.95,1.82c0.11,0.04,0.22,0.05,0.34,0.05c0.7,0,1.46-0.72,2.85-2.11
		c3.07-3.07,2.94-4.53,1.77-8.27c-0.43-1.36-1.14-2.16-1.76-2.64c1.02-0.33,2.23-0.45,3.3-0.55c2-0.19,4.06-0.39,4.13-2.22
		c0.01-0.42,0.04-0.88,0.07-1.35c0.09-1.71,0.19-3.48-0.1-4.52c-0.02-0.07-2.35-7.38-5.73-8.69c-0.89-0.35-1.79-0.26-2.61,0.25
		c-1.55,0.97-3.01,1.7-4.18,2.28c-1.5,0.75-2.43,1.23-2.88,1.82c-0.18-1.9-0.45-3.85-0.85-5.88c-0.02-0.16-0.31-2.09-1.38-4.26
		c5.59,1.54,13.94,1.82,19.26,1.82c2.8,0,4.76-0.08,5.04-0.09c26.43-5.78,35.87-18.23,36.26-18.75c0.16-0.22,0.2-0.51,0.11-0.77
		c-1.43-3.85-2.49-17.38-3.06-26.44c3.37-1.47,6.59-2.94,9.67-4.41c0.73,7.11,2.89,21.4,8.95,30.2c0.1,0.15,0.25,0.26,0.42,0.31
		c0.15,0.05,15.34,5.15,28.77,25.02c0.25,0.39,25.43,39.51,29.02,48.23c0.07,0.17,0.2,0.3,0.35,0.38c0.12,0.07,0.26,0.12,0.4,0.12
		c0.1,0,0.21-0.02,0.31-0.06c0.37-0.15,0.55-0.55,0.47-0.93c-0.01-0.04-0.01-0.09-0.03-0.13c-3.65-8.85-28.12-46.88-29.17-48.51
		c-12.95-19.16-27.17-24.8-29.36-25.58c-5.84-8.67-7.9-23.13-8.57-29.82c2.01-0.98,3.99-1.95,5.88-2.92
		c17.99-0.41,45.02-0.41,57.59,2.64c0.1,0.03,10.2,3.87,26.71,37.4c0.1,0.2,9.82,20.35,19.18,32.05c0.16,0.2,0.4,0.3,0.64,0.3
		c0.05,0,0.1-0.02,0.15-0.02c0.13-0.02,0.25-0.07,0.36-0.15C448.44,428.25,448.49,427.74,448.21,427.39z M253.87,448.19
		c-4.46,0-7.82-3.56-7.85-3.59c-0.26-0.28-0.67-0.34-1-0.15c-0.33,0.18-0.49,0.57-0.38,0.93c1.11,3.9,0.47,12.87-2.5,20.57
		c-3.04,7.86-17.07,22.6-35.77,21.09c-18.68-1.51-26.67-13.29-26.75-13.4c-0.12-0.18-0.31-0.31-0.53-0.35
		c-0.05-0.01-0.1-0.02-0.15-0.02c-0.17,0-0.33,0.05-0.46,0.15c-1.86,1.29-3.18,2.48-4.34,3.52c-0.88,0.79-1.66,1.49-2.51,2.07
		c-0.02,0.01-0.04,0.02-0.06,0.04c-3.13,2.12-7.33,2.74-21.28,0.85c-8.19-1.11-13.99-3.88-17.22-8.25c-3.4-4.59-2.66-9.41-2.65-9.46
		c0.05-0.33-0.1-0.65-0.38-0.83c-0.28-0.17-0.64-0.16-0.91,0.04c-14.42,10.6-27-1.33-27.5-1.81c-6.39-7.03-9.44-14.33-9.05-21.7
		c0.58-11.12,8.91-18.66,8.99-18.73c0.23-0.2,0.32-0.52,0.25-0.81c-0.08-0.3-0.31-0.52-0.61-0.59c-0.13-0.03-13.05-3.04-19.22-12.84
		c-3.25-5.16-4.08-11.32-2.47-18.31c5.69-24.75,32.71-24.99,33.18-24.99c0.01,0,0.01,0,0.01,0c0.4,0,0.75-0.3,0.81-0.7
		c0.06-0.4-0.19-0.79-0.58-0.9c-2.15-0.61-3.92-1.65-5.39-2.96c9.12,2.39,18.73,3.75,27.68,3.75c4.59,0,9.01-0.36,13.1-1.12
		c2.61,0.07,57.67,1.15,116.04-14.36c1.42,5.8,1.2,10.44-0.69,13.77c-1.86,3.28-4.74,4.08-4.77,4.09c-0.34,0.09-0.59,0.39-0.61,0.74
		c-0.02,0.35,0.19,0.68,0.51,0.81c0.39,0.15,0.78,0.3,1.16,0.44c4.23,1.57,8.59,3.22,9.46,17.1
		c-34.75,9.27-78.09,16.57-131.66,19.19c-0.45,0.02-0.79,0.4-0.77,0.85c0.02,0.44,0.38,0.77,0.81,0.77c0.01,0,0.03,0,0.04,0
		c53.53-2.62,96.87-9.9,131.67-19.16c0,0.07,0.01,0.13,0.01,0.21c0.62,16.52-7.87,18.44-8.23,18.52c-0.37,0.07-0.65,0.39-0.66,0.78
		c-0.01,0.38,0.25,0.72,0.62,0.81c6.17,1.54,7.22,8.79,7.24,8.91c2.56,12.98,0.4,23.07-6.6,30.84c-2.49,2.76-5.17,4.17-7.96,4.19
		C253.91,448.19,253.89,448.19,253.87,448.19z M100.78,334.65c4.82-23.12,22.69-20.07,23.45-19.93c0.35,0.07,0.72-0.11,0.88-0.45
		c0.16-0.33,0.08-0.73-0.2-0.97c-0.16-0.14-15.83-13.91-7.99-30.76c2.57-5.51,6.03-9.08,10.29-10.6c5.9-2.1,11.4,0.5,11.45,0.53
		c0.32,0.16,0.71,0.08,0.95-0.18c0.24-0.26,0.28-0.66,0.1-0.96c-1.07-1.81-2.88-5.19-4.34-9.61c0.83,0.01,1.66,0.02,2.48,0.02
		c11.73,0,21.96-1.29,24.21-1.93c1.92-0.55,10.08-2.28,21.37-4.68c15.44-3.28,37.45-7.96,59.3-12.96c-0.88,5-7.87,8.65-7.94,8.69
		c-0.29,0.15-0.46,0.45-0.44,0.78c0.02,0.32,0.23,0.6,0.54,0.71c2.75,0.99,4.56,2.67,5.4,4.99c1.75,4.87-1.09,11.39-2.37,13.93
		c-2.86-2.91-9.13-3.23-13.66-1.53c-4.71,1.76-7.04,5.34-6.22,9.58c0.52,2.69,1.86,4.78,3.99,6.22c4.08,2.75,9.85,2.31,12.04,2.02
		l0.3,2.68c0.03,0.23,0.15,0.45,0.35,0.58c0.19,0.13,0.44,0.18,0.67,0.12c4.72-1.23,7.75,1.05,9.42,3.05
		c-49.6,5.07-100.17,2.58-106.8,0.86c-0.45-0.12-0.88,0.15-0.99,0.58c-0.11,0.43,0.15,0.88,0.58,0.99
		c4.29,1.11,21.5,2.29,44.18,2.29c15.36,0,33.24-0.54,51.31-2c4.16-0.34,8.45-0.74,12.81-1.2c0.32,0.54,0.5,0.92,0.52,0.95
		c2.06,9.46-5.43,13.84-5.75,14.02c-0.38,0.22-0.52,0.71-0.31,1.09c0.21,0.39,0.69,0.54,1.09,0.34c1.11-0.57,2.17-0.94,3.18-1.15
		c1.47-0.29,2.85-0.2,4.11,0.28c0.04,0.01,0.08,0.02,0.12,0.04c3.79,1.52,5.41,6.08,5.44,6.16c3.55,8.88-1.44,11.14-1.65,11.23
		c-0.34,0.14-0.54,0.48-0.5,0.85c0.04,0.36,0.32,0.65,0.68,0.71c8.24,1.33,11.07,13.5,11.11,13.67c0.01,0.03,0.01,0.06,0.02,0.08
		c-59.14,15.72-114.91,14.33-115.68,14.3c-0.06,0-0.12,0-0.17,0.01c-12.59,2.36-28.33,0.84-42.54-3.2
		C99.81,347.26,100.78,334.75,100.78,334.65z M138.33,228.59c6.25-10.61,19.07-15.94,28.66-18.54c1.83,0.35,3.73,0.68,5.72,0.98
		c5.1,0.76,10.63,1.1,16.41,1.1c27.48,0,60.44-7.62,77.99-12.98c6.99-2.13,14.02-4.51,20.4-7.29c1.13,0.18,2.18,0.59,2.6,1.48
		c0.88,1.84-0.74,5.43-4.45,9.87c-6.36,7.6-26.91,8.46-27.11,8.47c-0.36,0.01-0.67,0.26-0.76,0.62c-0.09,0.35,0.07,0.72,0.38,0.9
		c3.19,1.86,4.67,3.74,4.41,5.59c-0.85,5.94-18.22,11.52-24.85,13.17c-0.31,0.08-0.54,0.33-0.6,0.64c-0.06,0.31,0.07,0.63,0.33,0.81
		c3.28,2.3,5.08,4.67,5.36,7.06c-21.98,5.04-44.17,9.75-59.7,13.05c-11.75,2.5-19.51,4.15-21.48,4.71
		c-3.17,0.91-14.51,2.14-26.75,1.86C132.43,251.73,131.5,240.2,138.33,228.59z M179.68,207.25c4.13-9.42,6.67-11.32,6.68-11.33
		c0.05-0.03,0.09-0.07,0.13-0.11c24.59-25.27,40.27-14.82,40.43-14.72c0.34,0.24,0.81,0.18,1.08-0.13
		c0.1-0.11,9.67-10.74,31.16-12.1c21.38-1.35,31.25,12.07,31.29,12.11c1.67,3.25,2.04,5.76,1.07,7.25
		c-1.29,0.64-2.62,1.27-3.99,1.87c-0.24,0.02-0.47,0.04-0.68,0.04c-0.39-0.03-0.8-0.04-1.22-0.03c-0.43,0.01-0.78,0.35-0.8,0.78
		c0,0.12,0.02,0.23,0.06,0.33c-5.77,2.39-12.02,4.47-18.24,6.37c-21.12,6.44-64.61,16.19-93.69,11.82c-0.7-0.11-1.38-0.22-2.06-0.33
		c4.73-1.05,8.01-1.36,8.11-1.36C179.3,207.7,179.56,207.52,179.68,207.25z M327.91,272.27c-1.98,1.24-4.11,2.42-6.35,3.55
		c-2.39,0.49-5.34,0.7-8.82,0.19c-0.33-0.05-0.66,0.11-0.83,0.41c-0.17,0.3-0.13,0.66,0.09,0.92c0.07,0.08,0.75,0.84,2.42,1.73
		c-18.43,7.53-42.91,12.09-67.77,14.72c-1.71-2.37-5.18-5.67-10.76-4.63l-0.29-2.63c-0.03-0.23-0.14-0.43-0.33-0.57
		c-0.19-0.14-0.42-0.19-0.64-0.14c-0.07,0.02-7.23,1.38-11.69-1.63c-1.76-1.19-2.87-2.93-3.3-5.18c-0.94-4.9,3.32-7.05,5.19-7.75
		c4.82-1.8,10.91-0.87,12.52,1.91c0.14,0.25,0.41,0.41,0.7,0.41c0,0,0,0,0,0c0.29,0,0.55-0.15,0.7-0.4
		c0.23-0.39,5.55-9.52,3.08-16.38c-0.84-2.33-2.47-4.11-4.85-5.31c2.42-1.53,7.07-5.05,7.47-9.69
		c21.87-5.03,43.41-10.35,57.88-14.91c3.96-1.25,7.51-2.57,10.73-3.95c7.05,22.36,16.26,27.76,19.87,29.04
		C330.43,254.56,324.8,261.86,327.91,272.27z M329.99,281.98c0.37,4.25,1.47,26.55-14.6,39.86c-16.29,13.5-52.58,5.89-58.83,4.45
		c0.83-2.06,1.04-5.14-0.75-9.62c-0.07-0.22-1.87-5.3-6.35-7.1c-1.48-0.59-3.06-0.76-4.73-0.49c2.24-2.55,4.59-6.88,3.22-13.11
		c-0.01-0.01-0.12-0.27-0.33-0.65c23.78-2.61,49.39-7.23,68.71-15.39c2.76,1.07,7.06,2.06,13.59,2.06
		C329.95,281.98,329.97,281.98,329.99,281.98z M324.26,356.54c0.05,1.11,0.18,3.62,0.38,6.84c-14.96,6.47-32.71,12.83-53.61,18.48
		c-0.95-13.9-5.53-16.32-9.81-17.95c1.18-0.7,2.67-1.92,3.84-3.96c2.13-3.72,2.4-8.79,0.87-15.03c12.02-3.25,24.17-7.22,36-12.04
		C303.46,339.5,308.44,352.43,324.26,356.54z M263.71,403.42c2.96-1.64,7.93-6.35,7.44-19.34c-0.01-0.2-0.02-0.37-0.03-0.57
		c20.87-5.63,38.62-11.96,53.62-18.42c0.56,8.81,1.58,21.42,2.98,25.87c-1.67,1.99-11.58,12.68-34.9,17.79
		c-0.18,0.01-17.78,0.68-25.42-2.26C266.49,405.31,265.3,404.2,263.71,403.42z M265.53,343.35c-0.01-0.02-0.01-0.04-0.02-0.07
		c-0.11-0.51-2.72-11.73-10.67-14.43c0.3-0.29,0.62-0.65,0.92-1.08c2.86,0.69,15.86,3.65,29.88,3.65c5.27,0,10.68-0.43,15.74-1.55
		c0.05,0.37,0.12,0.84,0.22,1.39C289.75,336.11,277.58,340.09,265.53,343.35z M301.85,225.31c-14.36,4.52-35.72,9.81-57.45,14.8
		c-0.34-2.43-1.88-4.78-4.64-7c5.84-1.59,23.41-6.95,24.43-14.09c0.29-2.06-0.77-4.03-3.15-5.87c5.82-0.47,20.36-2.29,25.88-8.89
		c3.6-4.31,5.29-7.84,5-10.34c3.62,1.33,13.75,6.8,20.64,27.43C309.35,222.73,305.81,224.07,301.85,225.31z M315.77,277.91
		c0.45,0.02,0.88,0.01,1.3,0.01c-0.21,0.09-0.43,0.18-0.64,0.27C316.21,278.1,315.97,278.01,315.77,277.91z M101.1,251.37
		c-3.09-3.19-3.83-7.12-2.26-12.01c6.5-20.23,16.53-35.84,40.91-47.85c-0.71,1.65-0.78,3.36-0.15,5.04
		c1.98,5.27,10.51,9.78,23.85,12.77c-9.36,2.92-20.6,8.38-26.53,18.45c-6.99,11.87-6.19,23.64-3.75,32.29
		C120.37,259.61,106.95,257.41,101.1,251.37z M71.63,335.89c-4.44-5.7-5.32-11.56-2.62-17.44c10.4-22.6,38.47-30.68,44.89-32.26
		c-3.31,12.59,4.75,22.92,8.34,26.75c-5.48-0.1-18.95,1.73-23.06,21.48c-0.06,0.66-0.92,11.72,3.85,19.72
		C89.42,349.93,77.52,343.44,71.63,335.89z M274.56,418.4c1.2-0.6,2.69-1.35,4.31-2.36c0.38-0.24,0.74-0.27,1.15-0.11
		c2.19,0.85,4.39,6.3,4.76,7.61c0.21,0.78,0.12,2.56,0.04,3.99c-0.03,0.48-0.05,0.95-0.07,1.38c-0.01,0.4-1.54,0.55-2.66,0.66
		c-1.22,0.12-2.61,0.25-3.86,0.7c-1.15,0.41-1.68,0.6-1.73,1.26c-0.05,0.61,0.45,0.88,0.78,1.07c0.53,0.29,1.42,0.79,1.89,2.28
		c1.04,3.3,1.17,4.09-1.37,6.63c-0.29,0.29-0.9,0.9-1.36,1.3c-0.01-0.05-0.02-0.11-0.03-0.16c-0.03-0.21-0.07-0.45-0.12-0.71
		c-0.29-1.58-1.23-3.89-1.86-5.43c-0.25-0.62-0.45-1.1-0.51-1.3c-0.19-0.71-2.03-4.29-2.72-5.62c-0.06-2.14-0.07-4.5-0.01-4.87
		c0.02-0.14,0.06-0.38,0.11-0.69c0.14-0.92,0.56-3.7,0.9-4.25C272.39,419.49,273.55,418.91,274.56,418.4z M326.23,362.68
		c-0.15-2.56-0.26-4.61-0.32-5.77c0.22-0.01,3.99-0.19,9.8-0.38c0.03,0.43,0.07,1.02,0.13,1.74
		C332.78,359.74,329.57,361.21,326.23,362.68z M337.42,357.51c-0.03-0.41-0.06-0.75-0.08-1.03c0.75-0.02,1.52-0.04,2.32-0.07
		C338.92,356.78,338.17,357.14,337.42,357.51z"/>
	<path class="st12" d="M246.82,495.88c0.51-2.23-0.79-4.15-3.33-4.88c-2.52-0.73-5.76-0.05-6.6,2.34c-0.84,2.39-0.61,4.92-0.44,6.77
		c0.08,0.91,0.16,1.77,0.06,2.21c-0.09,0.4-0.63,0.72-1.21,1.07c-0.32,0.19-0.66,0.4-0.97,0.65c-0.03-0.1-0.05-0.21-0.09-0.3
		l-0.19-0.53c-1.23-3.44-1.46-4.06-3.74-4.48c-2.4-0.44-4.16,2.86-5.71,5.77l-0.21,0.39c-1.47,2.76-1.49,9.68-1.49,9.97
		c0,0.08,0.01,0.16,0.04,0.24c0.83,2.64,2.19,4.26,4.04,4.79c0.46,0.13,0.92,0.19,1.38,0.19c2.86,0,5.51-2.23,5.64-2.34
		c0.15-0.13,0.25-0.3,0.28-0.5c0.01-0.07,0.07-0.46,0.14-1.07c0.23,0.48,0.51,0.95,0.82,1.41c0.12,0.17,0.3,0.29,0.51,0.33
		c0.15,0.03,1.53,0.29,3.28,0.29c2.94,0,6.92-0.74,7.78-4.57c0.66-2.93,0.35-6.45,0.05-9.85
		C246.6,500.78,246.35,497.92,246.82,495.88z M245.24,513.29c-0.91,4.04-7.31,3.33-8.83,3.1c-0.96-1.51-1.39-3.21-1.56-4.82
		c0.08-1.44,0.1-2.98,0-4.41c0-0.03,0-0.07,0.01-0.1c0.03-0.43,0.06-0.79,0.06-1.07c0.01-0.43,0.4-0.71,1.23-1.21
		c0.81-0.49,1.72-1.03,1.96-2.11c0.15-0.69,0.07-1.58-0.03-2.72c-0.16-1.79-0.37-4.02,0.35-6.08c0.49-1.42,2.83-1.83,4.61-1.31
		c0.81,0.23,2.65,0.99,2.2,2.95c-0.53,2.3-0.27,5.28,0.01,8.43C245.54,507.22,245.84,510.6,245.24,513.29z M227.44,518.33
		c-1.27-0.37-2.25-1.58-2.9-3.6c0.01-1.98,0.26-7.12,1.3-9.08l0.21-0.4c1.03-1.93,2.71-5.15,3.98-4.94c1.36,0.25,1.36,0.25,2.5,3.43
		l0.19,0.53c0.27,0.75,0.42,1.74,0.5,2.82c-0.08,1.17-0.18,2.77-0.01,4.52c-0.13,2.28-0.39,4.31-0.49,5.07
		C231.97,517.26,229.52,518.94,227.44,518.33z"/>
	<path class="st12" d="M259.54,474.41c-0.9-0.07-1.83-0.15-2.78-0.26c-1.47-0.18-2.75,0.22-3.83,1.17
		c-3.32,2.94-3.35,10.14-3.35,10.44c0,0.36,0.16,0.69,0.45,0.94c1.35,1.14,7.14,0.29,9.57-0.14c0.26-0.04,0.47-0.21,0.59-0.44
		c0.05-0.11,0.1-0.18,0.12-0.22c0.74,0.45,2.22,3.73,3.26,7.23c0.1,0.34,0.41,0.56,0.75,0.57c0.01,0,0.02,0,0.03,0
		c0.34,0,0.65-0.22,0.77-0.54c0.05-0.14,0.36-0.6,0.63-1.01c1.45-2.19,4.47-6.73,3.58-11.61
		C268.33,475.12,264.06,474.78,259.54,474.41z M260.25,484.24c-0.39,0-0.88,0.16-1.31,0.78c-3.17,0.52-6.79,0.82-7.74,0.49
		c0.04-2.06,0.6-7.02,2.8-8.97c0.72-0.64,1.56-0.9,2.56-0.78c0.97,0.12,1.93,0.2,2.85,0.27c4.96,0.4,7.58,0.8,8.3,4.8
		c0.73,4.04-1.75,8.02-3.14,10.13c-0.99-2.97-2.53-6.56-4.19-6.71C260.34,484.25,260.29,484.24,260.25,484.24z"/>
	<path class="st12" d="M307.97,488.44c0,0-0.01,0-0.01,0c-0.61-0.23-1.94-2.97-2.82-4.79c-2.09-4.3-4.25-8.75-6.98-7.52l-0.58,0.26
		c-3.63,1.62-8.61,3.84-8.61,8.32c0,0.28,0.14,0.53,0.38,0.68c0.23,0.15,0.53,0.17,0.78,0.05c0.02-0.01,1.74-0.78,3.11,0.02
		c1.12,0.65,1.8,2.18,2.01,4.54c0.29,3.23,0,5.12-0.23,6.63c-0.33,2.16-0.54,3.58,1.22,6.44l0.54,0.89c0.92,1.51,1.3,2.14,2.02,2.31
		c0.11,0.03,0.21,0.04,0.32,0.04c0.49,0,0.94-0.28,1.51-0.64c0.61-0.39,1.55-0.97,3.06-1.57c4.92-1.97,10.08-4.48,9.03-9.38
		C311.97,491.29,311.1,488.44,307.97,488.44z M303.06,502.61c-1.65,0.66-2.65,1.29-3.32,1.71c-0.21,0.13-0.45,0.28-0.59,0.35
		c-0.2-0.23-0.59-0.86-0.99-1.53l-0.55-0.9c-1.45-2.36-1.3-3.36-1-5.35c0.23-1.52,0.55-3.6,0.24-7.02
		c-0.26-2.93-1.21-4.88-2.83-5.81c-0.75-0.43-1.54-0.58-2.25-0.58c-0.37,0-0.72,0.04-1.03,0.1c0.84-2.74,4.62-4.43,7.48-5.7
		l0.59-0.26c1.31-0.58,3.52,4.01,4.85,6.75c1.82,3.74,2.83,5.7,4.23,5.7c1.48,0,2.3,0.72,3.21,5.01
		C311.82,498.38,308.55,500.41,303.06,502.61z"/>
	<path class="st12" d="M328.9,465.01c-0.71-0.83-1.57-1.29-2.55-1.36c-1.89-0.12-3.42,1.22-3.48,1.28c-0.34,0.3-0.37,0.81-0.08,1.14
		c0.08,0.09,0.17,0.16,0.28,0.2c0.28,0.13,0.62,0.09,0.87-0.12c0.01-0.01,1.15-0.97,2.3-0.88c0.54,0.04,1,0.3,1.42,0.8
		c1.18,1.37,1.49,9.49,1.43,15.82c-0.8-0.89-1.9-2.03-3.38-3.5c-4.09-4.09-4.2-5.85-4.05-6.41c0.11-0.44,0.5-0.58,0.55-0.59
		c0.43-0.11,0.69-0.55,0.58-0.98c-0.07-0.28-0.28-0.47-0.53-0.56c-0.14-0.05-0.3-0.07-0.46-0.03c-0.49,0.12-1.41,0.62-1.71,1.71
		c-0.52,1.87,0.94,4.5,4.47,8.02c2.7,2.7,3.93,4.1,4.48,4.81c0,0.17-0.01,0.35-0.02,0.52c-0.01,0.31,0.16,0.6,0.43,0.74
		c0.27,0.14,0.51,0.2,0.71,0.2c0.35,0,0.6-0.16,0.76-0.37c0.24-0.33,0.44-0.6-0.24-1.61C330.8,479.46,330.89,467.33,328.9,465.01z"
		/>
	<path class="st12" d="M321.44,439.37c0.95-0.17,1.93-0.34,2.19-1.23c0.25-0.86-0.34-1.78-2.26-3.52c-1.47-1.33-2.37-2.03-2.98-2.5
		c-1.03-0.8-1.11-0.86-1.93-2.49c-1.46-2.92-3.76-4.46-6.65-4.46l-0.52,0c-2.22,0-4.13-0.02-4.96,2.47
		c-0.18,0.53-0.6,1.01-1.01,1.47c-0.59,0.66-1.25,1.41-1.14,2.39c0.09,0.74,0.59,1.41,1.58,2.11c1.89,1.33,3.19,2.67,3.85,3.42
		c-1.27,1.11-3.87,3.66-4.02,5.97l-0.05,0.7c-0.18,2.54-0.37,5.17,1.1,7.01c0.71,0.89,1.43,1.16,2.11,1.16
		c0.67,0,1.29-0.27,1.82-0.49c0.37-0.16,0.71-0.31,1.07-0.38c1.13-0.25,1.85-1.5,2.77-3.08c0.8-1.38,1.7-2.94,2.99-4.07
		c1.12-0.98,1.83-1.76,2.4-2.4c0.87-0.96,1.3-1.44,2.38-1.8C320.59,439.51,321.04,439.44,321.44,439.37z M316.59,440.36
		c-0.54,0.6-1.22,1.35-2.26,2.26c-1.5,1.31-2.51,3.07-3.33,4.48c-0.57,0.98-1.28,2.21-1.71,2.31c-0.5,0.11-0.95,0.31-1.35,0.48
		c-1.08,0.46-1.41,0.56-2.02-0.19c-1.07-1.34-0.91-3.64-0.74-5.87l0.05-0.71c0.12-1.84,2.97-4.48,4.05-5.34
		c0.34-0.27,0.41-0.77,0.15-1.13c-0.07-0.09-1.68-2.22-4.71-4.36c-0.8-0.57-0.9-0.89-0.91-0.97c-0.03-0.26,0.36-0.7,0.74-1.12
		c0.49-0.56,1.05-1.19,1.34-2.04c0.41-1.24,1.08-1.36,3.04-1.36c0.12,0,0.24,0,0.37,0l0.53,0c2.27,0,4.02,1.2,5.2,3.56
		c0.95,1.9,1.2,2.13,2.39,3.05c0.58,0.45,1.46,1.13,2.88,2.42c1.09,0.99,1.52,1.52,1.68,1.78c-0.22,0.06-0.55,0.12-0.79,0.16
		c-0.46,0.08-0.99,0.17-1.5,0.34C318.18,438.6,317.51,439.34,316.59,440.36z"/>
	<path class="st12" d="M363.03,411.07c-0.9-7.06-8.2-7.97-11.32-8.36c-0.28-0.03-0.58-0.07-0.81-0.11c-0.43-2.02-1.42-5.18-3.5-6.27
		c-0.95-0.5-2.05-0.51-3.16-0.02c-4.12,1.8-2.75,8-2.19,9.96l-6.05,4.24c-0.28,0.2-0.41,0.55-0.32,0.89
		c0.09,0.33,0.39,0.57,0.73,0.59l10.56,0.64l7.11,6.53c0.13,0.12,0.29,0.19,0.47,0.21c0.04,0,0.33,0.03,0.76,0.03
		c1.36,0,4.2-0.25,6.07-2.17C362.82,415.76,363.37,413.69,363.03,411.07z M354.98,417.75l-7.11-6.53c-0.14-0.13-0.31-0.2-0.5-0.21
		l-8.52-0.51l4.63-3.24c0.3-0.21,0.42-0.58,0.3-0.93c-0.02-0.07-2.27-7.05,1.12-8.54c0.66-0.29,1.23-0.3,1.75-0.03
		c1.16,0.61,2.18,2.67,2.75,5.58c0.14,0.72,0.8,0.8,2.11,0.96c2.98,0.37,9.17,1.15,9.91,6.95c0.27,2.11-0.13,3.72-1.18,4.8
		C358.62,417.75,355.84,417.78,354.98,417.75z"/>
	<path class="st12" d="M374.68,433.22c-1.2-1.9-3.65-3.21-5.65-3.06c-1.36,0.1-2.42,0.86-2.97,2.12c-0.35,0.82-1,1.49-1.68,2.2
		c-1.44,1.5-3.19,3.33-3,7.3c-0.57-0.14-1.27-0.2-2.03,0.01c-1.48,0.4-2.69,1.64-3.61,3.68c-0.1,0.23-0.09,0.5,0.03,0.73
		s0.35,0.38,0.6,0.41c0.13,0.02,12.92,1.89,15,11.78c0.05,0.23,0.2,0.43,0.41,0.55c0.05,0.03,0.8,0.42,1.73,0.42
		c0.55,0,1.16-0.14,1.73-0.58c2.03-1.56,2.17-5.91,0.42-13.31C375.76,444.03,376.29,435.76,374.68,433.22z M372.86,457.63
		c-2.16-8.97-11.82-11.73-15.16-12.43c0.6-1,1.29-1.62,2.05-1.83c1.11-0.31,2.09,0.35,2.1,0.36c0.26,0.19,0.61,0.2,0.89,0.03
		c0.28-0.17,0.43-0.49,0.38-0.81c-0.6-4.17,0.87-5.71,2.43-7.34c0.75-0.78,1.52-1.6,2-2.68c0.31-0.71,0.83-1.09,1.6-1.15
		c1.42-0.09,3.28,0.93,4.16,2.31c1.17,1.85,0.92,8.85,0.72,11.4c-0.01,0.08,0,0.17,0.02,0.25c2.16,9.08,0.86,11.25,0.21,11.76
		C373.8,457.84,373.22,457.74,372.86,457.63z"/>
	<path class="st12" d="M366.68,471.82c-2.3-1.21-4.69-1.17-6.58,0.12c-2.67,1.82-4.45,5.12-4.44,8.21c0.01,1.83,0.64,4.42,3.59,6.41
		c5.28,3.54,7.98,9.78,8,9.84c0.13,0.31,0.43,0.49,0.75,0.49c0.09,0,0.18-0.02,0.27-0.05c0.4-0.14,0.63-0.57,0.52-0.98
		c-0.84-3.03,0.23-8.29,1.08-12.52c0.48-2.39,0.9-4.46,0.9-5.76C370.78,475.46,369.09,473.09,366.68,471.82z M368.28,483.01
		c-0.59,2.93-1.29,6.34-1.4,9.3c-1.42-2.21-3.64-5.05-6.72-7.11c-1.87-1.26-2.87-3.01-2.87-5.06c-0.01-2.53,1.52-5.35,3.73-6.86
		c0.69-0.47,1.49-0.71,2.33-0.71c0.83,0,1.7,0.23,2.57,0.68c1.88,0.99,3.24,2.81,3.24,4.32
		C369.16,478.71,368.75,480.7,368.28,483.01z"/>
	<path class="st12" d="M387.14,360.82c-0.45,0.03-0.79,0.41-0.76,0.86c0.03,0.45,0.42,0.8,0.86,0.76c0.08,0,7.01-0.36,11.36,3.69
		c2.29,2.13,3.48,5.13,3.53,8.91c0.01,0.45,0.37,0.8,0.81,0.8c0,0,0.01,0,0.01,0c0.45-0.01,0.81-0.37,0.8-0.82
		c-0.06-4.24-1.42-7.63-4.04-10.08C394.85,360.42,387.45,360.8,387.14,360.82z"/>
	<path class="st12" d="M196.92,434.68c-0.39-0.21-0.89-0.07-1.1,0.33c-0.21,0.4-21.76,39.54-55.66,35.83
		c-0.43-0.05-0.85,0.27-0.9,0.72c-0.05,0.45,0.27,0.85,0.72,0.9c1.6,0.18,3.18,0.26,4.72,0.26c32.24,0,52.34-36.55,52.55-36.93
		C197.46,435.38,197.32,434.89,196.92,434.68z"/>
	<path class="st12" d="M168.89,426.54c0.31-0.32,0.3-0.84-0.02-1.15c-0.32-0.31-0.84-0.3-1.15,0.02
		c-0.31,0.32-31.01,31.29-67.99,7.21c-0.37-0.24-0.88-0.14-1.12,0.24c-0.24,0.38-0.14,0.88,0.24,1.13
		c10.65,6.94,20.79,9.44,29.89,9.44C152.18,443.43,168.66,426.78,168.89,426.54z"/>
	<path class="st12" d="M166.16,147.63c0.19-0.25,19.36-25.13,56.17-25.47c11.38-0.05,18.93,2.69,22.55,8.3
		c5.26,8.17,0.42,19.94-0.22,21.41c-1.46,1.23-16.47,13.04-51.16,9.8c-4.02-0.52-9.79-2.14-10.02-4.13
		c-0.1-0.82,0.74-3.12,10.56-6.85c17.34-6.59,21.4-7.63,22.34-7.77c0.3,0.16,0.68,0.11,0.94-0.13c0.28-0.27,0.35-0.77,0.14-1.09
		c-0.45-0.71-0.84-1.33-24,7.48c-8.23,3.13-11.92,5.85-11.6,8.56c0.47,3.94,9.6,5.32,11.46,5.55c4.32,0.4,8.33,0.58,12.05,0.58
		c28.4,0,39.98-10.4,40.51-10.9c0.08-0.07,0.14-0.16,0.18-0.25c0.26-0.55,6.26-13.68,0.18-23.13c-3.94-6.12-11.96-9.13-23.93-9.05
		c-37.61,0.35-57.26,25.86-57.46,26.12c-0.27,0.36-0.2,0.87,0.16,1.14C165.38,148.06,165.89,147.99,166.16,147.63z"/>
	<path class="st12" d="M225.22,145.26c0.16,0.17,0.37,0.25,0.59,0.25c0.2,0,0.4-0.07,0.56-0.22l6.97-6.62
		c0.24-0.23,0.32-0.58,0.2-0.89c-0.12-0.31-0.42-0.51-0.76-0.51h-6.97c-0.45,0-0.81,0.36-0.81,0.81s0.36,0.81,0.81,0.81h4.94
		l-5.5,5.22C224.93,144.42,224.91,144.94,225.22,145.26z"/>
	<path class="st12" d="M132.83,413.51c4.47,0,7.44-0.96,7.51-0.99c0.42-0.14,0.65-0.6,0.51-1.03c-0.14-0.43-0.6-0.65-1.03-0.51
		c-0.13,0.05-13.16,4.24-25.56-5.78c1.32-2.38,7.75-11.9,25.78-11c0.45,0.03,0.83-0.32,0.85-0.77c0.02-0.45-0.32-0.83-0.77-0.85
		c-21.56-1.07-27.39,11.96-27.63,12.52c-0.14,0.33-0.05,0.71,0.23,0.94C119.94,412.12,127.46,413.51,132.83,413.51z"/>
	<path class="st12" d="M132.15,289.28c-8.24,2.68-12.01,5.19-11.88,7.89c0.18,3.51,7.31,5.17,8.13,5.35
		c0.06,0.01,0.12,0.02,0.17,0.02c0.37,0,0.71-0.26,0.79-0.64c0.1-0.44-0.18-0.87-0.62-0.97c-2.79-0.61-6.77-2.21-6.85-3.84
		c-0.04-0.82,0.93-3.06,10.76-6.27c0.43-0.14,0.66-0.6,0.52-1.03C133.04,289.37,132.59,289.14,132.15,289.28z"/>
	<path class="st12" d="M339.51,316.9c-0.37,0.25-0.48,0.75-0.23,1.13c0.16,0.24,0.42,0.37,0.68,0.37c0.15,0,0.31-0.04,0.45-0.13
		c7.56-4.98,5.81-11.11,5.73-11.37c-0.04-0.14-0.13-0.27-0.24-0.37c-5.12-4.56-11.74-0.11-11.81-0.06
		c-0.37,0.25-0.46,0.76-0.21,1.13c0.25,0.37,0.76,0.47,1.13,0.21c0.22-0.15,5.48-3.66,9.62-0.22
		C344.85,308.61,345.35,313.06,339.51,316.9z"/>
	<path class="st12" d="M235.87,401.47c-0.45,0.03-0.79,0.41-0.76,0.86c0.02,0.41,1.85,41.1-42.74,61.39
		c-0.41,0.19-0.59,0.67-0.4,1.08c0.14,0.3,0.43,0.48,0.74,0.48c0.11,0,0.23-0.02,0.34-0.07c45.64-20.77,43.72-62.55,43.69-62.96
		C236.71,401.78,236.27,401.44,235.87,401.47z"/>
	<path class="st12" d="M234.27,280.18c-2.23,0.23-3.77-0.07-4.47-0.86c-0.6-0.68-0.41-1.57-0.4-1.62c0.1-0.43-0.16-0.87-0.59-0.98
		c-0.43-0.11-0.88,0.16-0.99,0.59c-0.02,0.07-0.41,1.73,0.74,3.06c0.87,1.01,2.34,1.51,4.37,1.51c0.47,0,0.98-0.03,1.51-0.08
		c0.45-0.05,0.77-0.45,0.73-0.89C235.11,280.45,234.68,280.13,234.27,280.18z"/>
</g>
<g class="st13">
	<path class="st8" d="M661.1,561.44l7.61-17.29l7.14-15.28l3.65-2.62l8.69-1.78c0,0,11.42,0.31,11.62,0.27
		c0.2-0.04,11.15,0.48,11.15,0.48l7.84,1.87l10.85,1.96l8.96,1.11l13.83,0.86l9.68-0.05l11.02-1.39l40.64-5.12l30.34-8l17.84-3.22
		l13.47,0.39l4.17,7.65l10.33,27.15C889.93,548.45,673.34,561.07,661.1,561.44z"/>
	<path class="st12" d="M659.54,562.5l8.26-18.75l7.26-15.54l4.25-2.94l8.81-1.81l0.12,0c4.37,0.12,11.07,0.29,11.53,0.27
		c0.02-0.01,0.17-0.05,11.26,0.47l8.03,1.9l10.8,1.95l8.9,1.11l13.77,0.85l9.61-0.05l51.54-6.5l30.21-7.98l18.02-3.25l14.15,0.4
		l4.45,8.16l10.88,28.56l-1.37,0.08c-2.17,0.13-216.74,12.62-228.85,12.99L659.54,562.5z M676.65,529.54l-7.02,15.04l-6.95,15.79
		c22.05-0.99,207.89-11.8,225.82-12.85l-9.84-25.87l-3.84-7.02l-12.78-0.37l-17.73,3.2l-30.26,7.98l-51.79,6.53l-9.8,0.06
		l-13.9-0.86l-9.02-1.12l-10.91-1.97l-7.9-1.89c-3.99-0.17-10.36-0.46-10.86-0.45c0,0.01-0.17,0.04-11.59-0.27l-8.37,1.72
		L676.65,529.54z"/>
	<g>
		<g>
			<polygon class="st6" points="863.73,152.01 872.81,177.06 823.78,190.45 814.5,167.99 801.85,171.23 797.06,168.37 
				795.17,164.31 794.43,158.64 795.91,155.45 799.92,153.8 806.51,152.23 795.93,133.23 812.99,127.62 805.49,115.52 805.7,110.29 
				808.76,107.73 813.49,106.75 817.8,107.06 821.2,108.97 823.39,112.32 826.63,123.33 848.18,117.04 857.07,136.93 847.36,139.2 
				843.31,143.86 844.27,150.02 846.55,152.97 849.95,154.58 855.94,153.94 			"/>
		</g>
	</g>
	<g>
		<g>
			<polygon class="st5" points="646.51,139.71 656.88,130.21 673.07,144.24 665.3,153.53 656.15,148.17 653.42,149.21 
				652.74,152.01 653.7,154.53 661.08,160.81 650.62,173.82 630.91,160.54 639.7,151.56 629.21,143.85 628.16,138.93 629.89,134.74 
				633.74,132.29 638.91,133.78 			"/>
		</g>
	</g>
	<g>
		<g>
			<polygon class="st3" points="607.22,247.02 607.22,231.04 671.66,227.99 672.21,245.51 686.61,245.57 690.36,248.67 
				690.16,251.96 690.36,255.15 689.19,257.61 686.01,259.35 672.75,260.78 673.57,283.21 654.62,283.21 654.75,292.07 
				653.59,296.54 648.79,300.14 642.99,300.14 637.83,297.4 635.06,293.53 635.06,283.81 610.97,284.51 609.8,261.62 616.63,261.78 
				620.81,260.98 624.05,258.71 625.75,251.5 624.69,246.89 621.29,245.27 			"/>
		</g>
	</g>
	<g>
		<polygon class="st20" points="676.19,527.7 665.61,549.88 659.13,549.17 651.45,546.8 652.61,543.3 660.55,536.72 		"/>
	</g>
	<g>
		<polygon class="st20" points="885.11,533.47 876.39,514.21 886.24,516.11 895.78,520 901.17,523.84 902.71,526.47 900.1,529.73 
			886.87,533.47 		"/>
	</g>
	<g>
		<path class="st20" d="M650.93,543.61l4.03-2.42l9.92-7.5l12.66-6.7c0,0,8.25-2.38,8.44-2.41c0.18-0.03,8.23-0.31,8.23-0.31h12.91
			l8.95,2.24l14.85,3.09l16.04,1.34l15.88,0.28l10.83-1.76l26.81-3.09l18.02-3.06l29.92-7.81l12.94-1.95l12.24-0.29l10.62,2.23
			l4.81,1.47l8.72,4.21l2.35,0.63l-2.98-5.72l-23.38-47.95l-7.82-20.23l-4.86-20.2l-5.82-20.86l-2.77-6.85l-2.28-4.41l4.4,2.47
			l4.83,2.52l4.46,1.53l-1.57-2.83l-9.37-16.63l-2.98-6.65l-2.86-12.06l-2.07-19.02l0.01-9.5l-0.01-5.48l-5.84-2.58l-56.9-25.12
			l-2.24,3.29l-4.54,4.96l-8.6,4.08l-10.08,2.21l-10.36,0.34l-8.75-0.97l-10.38-3.04l-7.19-4.16l-4.5-3.85l-12.07,4.55l-0.3,27.94
			l-26.33-0.09v9.59l-1.1,3.49l-3.77,2.47l-5.49,0.04l-3.66-1.14l-1.85-2.25l0.1-3.91v-6.48l-12.75-0.52l-24.19,21.84l-5.5,8.75
			l-2.13,8.37l2.18,8.91l3.56,8.04l3.24,4.91l8.8,8.26l5.34,3.4l7.19,4.43l5.6,4.96l8.65,6.91l5.93,4.7l-0.86,12.95l-1.73,20.19
			l-2.48,23.53l-2.05,19l-0.76,4.32l-3.35,10.15l-3.19,10.56l-2.14,6.93L650.93,543.61z"/>
	</g>
	<g>
		<g>
			<polygon class="st3" points="772.17,528.23 773.57,504.26 798.83,502.21 798.83,490.98 803.47,487.42 810.27,486.9 
				814.81,488.07 817.94,491.63 818.26,500.48 840.93,496.7 840.93,508.25 850.54,508.36 853.89,510.95 854.55,513.82 
				837.52,518.35 824.63,522.29 799.83,526.44 777.08,529.15 772.01,529.73 			"/>
		</g>
	</g>
	<g>
		<g>
			<polygon class="st15" points="789.44,369.85 814.27,367.69 816.86,384.32 832.06,385.59 834.57,389.47 834.65,393.52 
				833.67,398.3 831.44,400.65 821.61,401.86 817.8,402.19 819.99,423.16 752.14,426.44 747.56,373.6 769.47,372.07 768.49,356.12 
				769.63,352.23 775.05,349.36 780.72,349.36 784.93,350.29 788.98,358.71 			"/>
		</g>
	</g>
	<g>
		<g>
			<polygon class="st7" points="773.09,297.1 771.67,268.75 773.84,255.69 781.17,249.69 785.66,247.1 786.98,244.29 785.23,240.18 
				781.72,239.39 778.21,240.09 776.03,237.42 772.81,232.98 772.59,228.47 774.03,224.44 770.01,223.79 766.61,220.01 
				766.17,215.53 766.39,213.72 759.11,212.77 756.47,209.1 756.47,204.66 757,201.35 753.48,204.18 746.7,205.26 742.48,202.52 
				740.11,205.82 736.67,208.51 732.41,208.42 729.48,209.53 725.24,208.8 725.29,212.24 724.86,215.78 719.21,216.66 
				720.59,223.09 719.91,226.21 716.52,226.57 710.32,226.38 710.6,233.88 712.92,238 712.61,245.11 711.98,250.78 712.61,265.77 
				714.94,273 719.02,278.01 724.56,281.89 730.01,283.35 730.08,286.12 728.98,291.98 726.11,297.41 722.97,301.63 722.38,302.39 
				724.89,305.31 736.27,310.49 752.22,311.34 768.09,307.13 773.72,300.43 			"/>
		</g>
	</g>
	<g>
		<g>
			<polygon class="st7" points="865.82,403.48 871.76,405.37 881.62,403.48 889.78,397.84 894.39,390.17 896.48,383.42 
				898.34,375.14 899.84,365.77 900.95,352.14 900.95,344.05 899.13,329.93 896.61,314.99 894.14,302.23 891.42,289.92 
				888.51,279.38 884.3,270.95 880.05,263.15 870.44,247.77 865.36,240.76 863.5,237.32 854.59,217.81 850.98,211.19 844.94,202.97 
				843.92,207.21 845.03,214.9 847.03,223.73 849.14,227.8 850.67,231.23 846.87,231.69 839.97,231.9 835.15,234.49 833.39,237.81 
				834.73,241.87 840.56,244.62 846.87,246.24 835.79,246.16 831.44,250.23 832.78,255.63 836.18,258.71 847.03,259.68 
				834.45,260.29 832,262.47 832.95,267.13 837.64,271.83 842.66,274.74 846.39,277.17 846.79,294.5 846.37,305.01 845.36,317.77 
				845.03,328.18 845.05,335.42 845.42,346.48 846.22,359.76 847.92,367.39 850.44,377.25 854.16,385.67 858.53,393.77 			"/>
		</g>
	</g>
	<g>
		<g>
			<polygon class="st7" points="659.24,512.25 661.18,499.29 662.94,480.51 664.75,457.08 649.05,437.11 653.95,434.43 
				660.11,430.43 661.62,428.26 650.06,418.11 641.25,412.18 633.13,406.65 628.5,402.31 623.02,395.66 621.78,393.35 
				617.53,398.14 609.43,411.88 604.68,422.92 601.73,434.43 602.45,444.34 605.58,451.91 611.1,460.98 619.76,473.23 
				630.03,485.45 639.71,495.61 653.63,508.61 			"/>
		</g>
	</g>
	<g>
		<path class="st15" d="M710.32,226.13l-5.6-4.36l-4.48-4.67l-1.93-5.11l1.85-3.32l4.16-0.72l1.69-2.33l-1.03-2
			c0,0-2.16-3.9-2.24-4.26c-0.09-0.36-0.19-4.97-0.19-4.97l0.51-4.87l1.98-4.02l2.89-2.66l3.68-0.92l0.85-6.04l3.82-4.91l4.52-2.45
			l5.83-0.72l4.11,0.43l2.48-3.44l4.19-4.15l4.2-0.94h3.87l3.79,1.74l1.42,1l6.87-2.74l3.32-1.04l4.03,1.02l3.32,3.48l1.2,2.9
			l11.38,0.01l3.66,0.75l2.21,1.75l1.3,4.24l-0.09,1.34l5.72,0.57l6.98,3.56l4.19,4.13l1.75,3.74l0.79,4.96v3.89l3.58,0.45
			l4.06,2.97l2.29,2.94l0.25,4.24l-1.56,3.5l-2.16,1.87l2.68,0.4l3.51,3.54l1.83,6.39l-0.41,6.3l-2.58,4.02l-2.57,1.15l2.04,3.77
			l0.69,5.11l-1.48,2.64l-4.8,2.36l-2.61,0.37l1.26,3.78l0.34,3.3l-2.97,5.38l-6.96,1.68l-1.07-0.05l-1.07,4.63l-2.57,3.68
			l-4.25,2.42l-6.36-0.68l-2.32,3.33l-3.65,2.02l-5.55,0.48h-2.87c0,0,0.29-4.87,0.29-5.03c0-0.16-0.22-8.69-0.22-8.69l0.54-3.51
			l2.64-5.94l6.59-4.16l3.51-1.62l1.59-2.54l0.46-2.27l-1.4-2.59l-2.27-1.24l-2.74,0.34l-1.94,0.9l-2.12-2.43l-2.86-4.91l-1.08-3.18
			l0.16-4.48l1.08-1.51l-4.53-1.4l-3.13-2.7l-0.65-2.54l1.13-3.67l-5.56-0.65l-4.86-2.43l-0.27-2.16l1.4-7.45l-2.41,1.95l-4.39,1.62
			l-2.36,0.38l-3.96-1.08l-2.64-2.62l-0.81,3.25l-2.05,2.24l-2.75,1.3l-2.91-0.11l-2.27,0.81l-3.94,0.38l-2.75-1.13l0.65,2.81
			l0.22,3.35l-1.35,1.51l-2.11,0.49h-2.91l0.32,2.59l0.59,2.97v1.78l-0.38,1.84l-1.94,1.24L710.32,226.13z"/>
	</g>
	<g>
		<polygon class="st8" points="715.66,304.65 721.74,302.14 724.29,304.65 729.37,307.85 733.71,309.38 742.02,311.03 
			752.86,311.28 759.29,310.38 765.41,308.26 769.6,305.54 772.64,302.23 775.11,299.06 782.29,302.23 779.6,306.01 775.1,310.19 
			770.2,313.28 761.25,315.8 752.22,317.11 741.05,316.68 733.68,315.15 725.18,312.07 		"/>
	</g>
	<g>
		<path class="st12" d="M664.44,550.57c-3.17,0-9.85-0.39-13.05-3.46c-1.25-1.2-1.87-2.69-1.84-4.41c0.09-4.4,2.17-10.18,4.37-16.31
			c1.81-5.03,3.68-10.23,4.55-14.94c1.93-10.48,6.94-68.03,7.54-77.5c0.64-10.09,9.57-62.23,9.95-64.45
			c0.09-0.55,0.61-0.92,1.16-0.82c0.55,0.09,0.92,0.61,0.82,1.16c-0.09,0.54-9.28,54.26-9.92,64.24
			c-0.62,9.75-5.57,66.92-7.57,77.74c-0.9,4.87-2.8,10.15-4.63,15.26c-2.15,5.97-4.17,11.6-4.26,15.67
			c-0.02,1.15,0.37,2.11,1.22,2.92c3.55,3.41,13.17,2.86,13.26,2.86c0.54-0.03,1.03,0.39,1.07,0.94c0.03,0.56-0.39,1.03-0.94,1.07
			C666.07,550.53,665.42,550.57,664.44,550.57z"/>
	</g>
	<g>
		<path class="st12" d="M651.45,545.5c-0.56,0-1.01-0.45-1.01-1.01c0-0.44,0.05-0.58,1.58-2.03c2.21-2.09,22.14-20.38,40.61-19.3
			c6.02,0.35,8.95,0.37,10.9,0.38c3.77,0.02,3.77,0.02,14.01,2.25l6.25,1.36c0.31,0.05,35.94,6.05,47.85,1.5
			c0.09-0.03,0.18-0.06,0.28-0.06c0.38-0.03,38.1-3.04,60.19-9.62c1-0.37,26.13-9.53,46.03-5.85c18.53,3.42,23.53,9.87,24.33,11.11
			c0.66,0.56,1.49,1.72,1.14,3.14c-0.78,3.13-6.93,5.47-18.82,7.17c-0.55,0.08-1.06-0.3-1.14-0.86c-0.08-0.55,0.3-1.06,0.86-1.14
			c15.11-2.16,16.94-4.87,17.15-5.65c0.16-0.63-0.54-1.17-0.55-1.18c-0.11-0.09-0.22-0.2-0.28-0.33
			c-0.03-0.06-4.07-6.78-23.05-10.29c-19.35-3.58-44.77,5.69-45.03,5.78c-21.66,6.46-57.95,9.5-60.53,9.71
			c-12.54,4.64-47.33-1.2-48.81-1.46l-6.3-1.37c-10.04-2.19-10.04-2.19-13.6-2.21c-1.96-0.01-4.93-0.03-11-0.38
			c-17.8-1.04-38.36,17.6-40.21,19.85C652.13,545.31,651.81,545.5,651.45,545.5z"/>
	</g>
	<g>
		<path class="st12" d="M884.23,534.48c-0.4,0-0.77-0.24-0.93-0.63l-8-19.66c-0.21-0.52,0.04-1.1,0.55-1.31
			c0.51-0.21,1.1,0.04,1.31,0.55l8,19.66c0.21,0.52-0.04,1.1-0.55,1.31C884.48,534.46,884.36,534.48,884.23,534.48z"/>
	</g>
	<g>
		<path class="st12" d="M666.11,550.52c-0.15,0-0.3-0.03-0.44-0.1c-0.5-0.24-0.71-0.85-0.47-1.35l10.85-22.29
			c0.24-0.5,0.85-0.71,1.35-0.47c0.5,0.24,0.71,0.85,0.47,1.35l-10.85,22.29C666.84,550.32,666.48,550.52,666.11,550.52z"/>
	</g>
	<g>
		<path class="st12" d="M772.02,530.61c-0.02,0-0.03,0-0.05,0c-0.56-0.03-0.98-0.5-0.96-1.06l1.24-25.42
			c0.03-0.51,0.43-0.92,0.94-0.96l24.75-1.66v-10.29c0-0.13,0.02-0.26,0.07-0.37c0.08-0.2,2.09-4.95,11.3-4.95
			c9.5,0,9.86,6.73,9.86,6.8l0,6.41l21.5-3.48c0.3-0.05,0.59,0.04,0.81,0.23c0.22,0.19,0.35,0.47,0.35,0.77v10.62h6.98
			c0.03-0.01,2.78-0.22,4.78,1.65c1.35,1.26,2.01,3.11,1.96,5.5c-0.01,0.56-0.47,1-1.03,0.99c-0.56-0.01-1-0.47-0.99-1.03
			c0.03-1.79-0.41-3.13-1.31-3.98c-1.34-1.26-3.32-1.13-3.34-1.13l-8.07,0c-0.56,0-1.01-0.45-1.01-1.01V497.8l-21.5,3.48
			c-0.29,0.05-0.59-0.04-0.81-0.23c-0.22-0.19-0.35-0.47-0.35-0.77v-7.56c-0.01-0.15-0.35-4.82-7.84-4.82
			c-6.93,0-8.96,2.84-9.36,3.55v10.99c0,0.53-0.41,0.97-0.94,1.01l-24.8,1.67l-1.2,24.53C772.99,530.19,772.55,530.61,772.02,530.61
			z"/>
	</g>
	<g>
		<path class="st12" d="M901.73,525.91c-0.36,0-0.71-0.19-0.89-0.54c-1.28-2.41-31.42-59.27-36.15-78.17
			c-0.81-3.25-1.66-6.83-2.53-10.54c-3.73-15.8-8.78-37.22-14.05-41.12c-0.3-0.18-0.53-0.32-0.67-0.41
			c-0.46-0.28-0.62-0.87-0.36-1.34c0.26-0.47,0.84-0.66,1.32-0.42c0.24,0.12,0.49,0.26,0.73,0.44c6.08,3.65,20.8,11.67,25.51,10.71
			c6.19-1.26,14.87-4.15,18.8-14.69c4.19-11.24,7.68-33.35,6.2-48.35c-1.54-15.67-9.73-59.63-13.88-66.05
			c-1.29-1.99-2.54-4.31-3.99-6.99c-3.5-6.49-8.29-15.37-18.11-28.22c-8.13-5.4-13.01-7.35-13.06-7.36
			c-0.24-0.09-0.43-0.28-0.54-0.51c-10.75-22.79-6.45-29.32-5.93-29.99c0.17-0.22,0.43-0.36,0.7-0.38c0.28-0.02,0.55,0.06,0.76,0.25
			c7.47,6.62,18.68,34.32,19.65,36.74c9.92,12.99,14.76,21.96,18.3,28.51c1.43,2.65,2.66,4.93,3.9,6.86
			c4.6,7.13,12.77,52.5,14.19,66.95c1.51,15.27-2.05,37.79-6.32,49.25c-4.28,11.48-13.63,14.61-20.28,15.97
			c-4.7,0.96-15.8-4.65-22.46-8.36c4.43,7.93,8.15,23.73,11.54,38.07c0.87,3.71,1.72,7.28,2.53,10.52
			c4.67,18.66,35.66,77.13,35.97,77.72c0.26,0.49,0.07,1.1-0.42,1.36C902.05,525.87,901.89,525.91,901.73,525.91z M851.73,231.12
			c1.15,0.49,4.82,2.16,10.48,5.74c-3.03-7.25-11.07-25.68-16.92-32.12C844.6,207.33,844.05,214.72,851.73,231.12z"/>
	</g>
	<g>
		<path class="st12" d="M866.93,404.92c-0.23,0-0.47-0.08-0.66-0.25c-6.89-5.96-9.08-10.61-15.57-24.39l-0.63-1.34
			c-7.24-15.37-6.55-56.43-5.06-70.17c1.42-13.11,0.48-28.01,0.26-31.08c-9.12-4.44-14-8.81-14.52-12.99
			c-0.36-2.92,1.58-4.56,1.66-4.63c0.05-0.04,0.11-0.08,0.17-0.12c0.73-0.38,1.63-0.68,2.62-0.92c-1.26-0.47-2.26-1.06-3-1.79
			c-1.89-1.84-1.89-4.11-1.89-6.12c0-4.85,6.35-6.32,6.62-6.38c0.1-0.02,0.2-0.03,0.3-0.02l0.16,0.01c-2.83-1.33-5.14-3.19-5.14-5.7
			c0-5.3,4.58-7.01,6.53-7.74c0.3-0.11,0.55-0.2,0.72-0.29c1.39-0.7,8.53-0.3,11.53-0.1c0.55,0.04,0.98,0.52,0.94,1.07
			c-0.04,0.56-0.52,0.98-1.07,0.94c-4.42-0.29-9.7-0.42-10.51-0.1c-0.2,0.1-0.51,0.22-0.9,0.36c-2.53,0.95-5.22,2.25-5.22,5.85
			c0,3.3,8.22,5.77,13.39,6.56c0.54,0.08,0.91,0.57,0.85,1.11c-0.06,0.54-0.52,0.93-1.08,0.89l-10.2-0.85
			c-0.81,0.21-4.91,1.45-4.91,4.38c0,1.76,0,3.43,1.28,4.68c1.42,1.38,4.25,2.2,8.61,2.46c2.95-0.09,5.37,0.05,5.58,0.07
			c0.54,0.03,0.95,0.48,0.95,1.02c-0.01,0.54-0.44,0.98-0.98,0.99c-2.05,0.05-3.89,0.03-5.54-0.06c-3.04,0.09-6.61,0.42-8.59,1.4
			c-0.24,0.24-1.1,1.22-0.88,2.82c0.27,1.98,2.43,6.13,13.91,11.63c0.32,0.15,0.54,0.47,0.57,0.83c0.01,0.17,1.39,17.22-0.22,32.04
			c-1.48,13.59-2.19,54.09,4.88,69.09l0.63,1.34c6.52,13.86,8.49,18.04,15.06,23.73c0.42,0.36,0.47,1,0.1,1.42
			C867.5,404.81,867.21,404.92,866.93,404.92z"/>
	</g>
	<g>
		<path class="st12" d="M845.03,330.94c-0.14,0-0.27-0.03-0.41-0.09l-71.88-31.74c-0.35-0.15-0.58-0.49-0.6-0.87l-1.13-21.7
			c-0.02-0.32,0.12-0.64,0.38-0.84c0.25-0.2,0.59-0.27,0.9-0.18c0.41,0.11,10.04,2.73,13.21-4.77c0.2-0.47,0.73-0.72,1.22-0.57
			c0.05,0.02,5.25,1.51,9-1.03c2.27-1.54,3.6-4.28,3.96-8.14c0.03-0.27,0.16-0.51,0.36-0.68c0.21-0.17,0.48-0.25,0.74-0.23
			c0.06,0.01,6.33,0.58,8.84-2.82c1.56-2.12,1.4-5.44-0.47-9.87c-0.13-0.31-0.1-0.66,0.08-0.93c0.18-0.28,0.48-0.45,0.81-0.46
			c0.06,0,5.85-0.24,7.57-3.57c1.1-2.13,0.35-5.2-2.23-9.12c-0.19-0.29-0.22-0.67-0.07-0.99c0.15-0.32,0.46-0.53,0.81-0.57
			c0.07-0.01,1.86-0.24,3.22-2.17c1.76-2.5,2.03-6.75,0.76-12.32c0,0,0,0,0,0c-0.02,0-2.73-6.52-6.43-5.11
			c-0.5,0.19-1.06-0.05-1.28-0.54c-0.21-0.49,0-1.07,0.48-1.31c0.03-0.01,2.72-1.38,3.48-4.1c0.51-1.86,0.03-3.97-1.45-6.27
			c-0.02-0.03-3.26-4.76-7.71-3.93c-0.34,0.06-0.67-0.05-0.91-0.29c-0.24-0.24-0.33-0.59-0.26-0.92c0.1-0.47,2.43-11.46-7.41-16.53
			c-0.19-0.12-5.39-3.88-10.57-3.14c-0.31,0.05-0.64-0.07-0.87-0.3c-0.22-0.23-0.32-0.56-0.27-0.88c0-0.03,0.5-3-1.18-4.99
			c-1.07-1.28-2.85-1.92-5.28-1.92h-11.01c-0.47,0-0.87-0.32-0.98-0.78c-0.01-0.05-1.15-4.73-4.96-6.19
			c-3.06-1.17-7.08-0.03-11.94,3.38c-0.38,0.27-0.9,0.24-1.25-0.07c-0.05-0.04-4.62-4.03-9.61-3.01c-3.38,0.69-6.26,3.5-8.57,8.36
			c-0.2,0.43-0.69,0.66-1.15,0.55c-0.09-0.02-9.4-2.22-14.43,2.81c-4.77,4.77-4.19,8.12-3.97,9.38l0.05,0.29
			c0.17,1.16-1,1.46-1.94,1.7c-2.53,0.65-7.23,1.87-7.12,10.9c0,0.09-0.01,0.19-0.04,0.28c-0.04,0.17-1.09,4.28,2.24,8.32
			c1.22,1.49,1.58,2.84,1.07,4.02c-0.92,2.14-4.39,2.56-5.21,2.63c-0.39,0.14-2,0.79-2.25,2.37c-0.28,1.71,0.85,5.71,11.55,13.3
			c0.25,0.18,0.41,0.47,0.42,0.78l0.29,7.78c1.04,0.42,1.82,1.85,2.44,4.5c0.02,0.1,0.03,0.21,0.02,0.32
			c-0.02,0.2-1.75,20.05-0.17,29.05c0.11,0.54,3.13,13.94,18.16,14.55c5.84,0.59,15.7,0.81,17.57-1.07c0.18-0.18,0.18-0.3,0.17-0.41
			c-0.06-0.55,0.34-1.05,0.89-1.11c0.57-0.06,1.05,0.34,1.11,0.89c0.08,0.76-0.18,1.47-0.74,2.04c-3.08,3.1-16.49,1.92-19.14,1.66
			c-16.56-0.67-19.96-16.03-19.99-16.18c-1.57-8.95-0.05-27.37,0.13-29.44c-0.47-1.94-0.91-2.62-1.1-2.84
			c-0.23,0.07-0.48,0.06-0.71-0.03c-0.36-0.15-0.59-0.5-0.61-0.89l-0.31-8.25c-8.58-6.15-12.6-11.2-11.96-15
			c0.51-3.01,3.63-3.95,3.76-3.98c0.07-0.02,0.14-0.03,0.21-0.04c1.25-0.09,3.27-0.6,3.63-1.43c0.25-0.57-0.38-1.46-0.77-1.94
			c-3.68-4.47-2.87-9.08-2.66-9.99c-0.08-10.49,6.02-12.07,8.63-12.75c0.11-0.03,0.23-0.06,0.35-0.09
			c-0.27-1.78-0.49-5.66,4.6-10.75c4.96-4.96,12.97-3.98,15.54-3.51c2.55-5.03,5.79-7.98,9.65-8.76c4.86-0.98,9.15,1.79,10.71,2.98
			c5.18-3.49,9.62-4.55,13.21-3.18c3.79,1.45,5.41,5.19,5.96,6.83h10.26c3.06,0,5.36,0.89,6.83,2.66c1.48,1.77,1.73,3.97,1.71,5.34
			c5.53-0.2,10.45,3.37,10.68,3.53c8.97,4.61,8.9,13.87,8.52,17.34c4.95-0.06,8.25,4.72,8.4,4.94c1.81,2.83,2.38,5.5,1.7,7.93
			c-0.4,1.44-1.18,2.57-1.98,3.41c3.54,1.2,5.61,6.21,5.72,6.49c1.48,6.42,1.1,11.13-1.07,14.14c-1.02,1.41-2.23,2.15-3.16,2.54
			c2.41,4.06,2.95,7.42,1.61,10.01c-1.66,3.21-5.73,4.21-7.9,4.52c1.67,4.53,1.58,8.09-0.27,10.59c-2.52,3.42-7.52,3.72-9.66,3.68
			c-0.55,4.01-2.14,6.92-4.74,8.67c-3.59,2.42-8,1.87-9.84,1.49c-3.3,6.45-10.82,5.94-13.9,5.42l1.03,19.78l71.32,31.49
			c0.51,0.22,0.74,0.82,0.51,1.33C845.79,330.71,845.42,330.94,845.03,330.94z M711.3,235.63
			C711.3,235.63,711.3,235.63,711.3,235.63C711.3,235.63,711.3,235.63,711.3,235.63z"/>
	</g>
	<g>
		<path class="st12" d="M659.13,514.27c-0.22,0-0.44-0.07-0.63-0.22c-0.36-0.29-36.2-29.16-52.76-60.25
			c-1.04-1.18-9.02-11.12-2.5-29.85c6.68-19.18,17.78-32.15,17.89-32.28c0.37-0.42,1-0.47,1.42-0.1c0.42,0.36,0.47,1,0.1,1.42
			c-0.11,0.13-10.97,12.83-17.52,31.63c-6.42,18.43,2.07,27.82,2.16,27.91c0.06,0.06,0.11,0.14,0.15,0.21
			c16.33,30.76,51.94,59.44,52.3,59.73c0.43,0.35,0.5,0.98,0.16,1.42C659.72,514.14,659.42,514.27,659.13,514.27z"/>
	</g>
	<g>
		<path class="st12" d="M665.1,458.54c-0.3,0-0.59-0.13-0.79-0.38l-18.16-23.1c-0.34-0.44-0.27-1.07,0.17-1.41
			c0.44-0.34,1.07-0.27,1.42,0.17l18.16,23.1c0.34,0.44,0.27,1.07-0.17,1.41C665.54,458.47,665.32,458.54,665.1,458.54z"/>
	</g>
	<g>
		<path class="st12" d="M649.05,438.12c-0.41,0-0.79-0.25-0.94-0.65c-0.2-0.52,0.06-1.1,0.58-1.3c0.09-0.03,9.05-3.48,11.65-7.67
			c0.29-0.47,0.91-0.62,1.39-0.33c0.47,0.29,0.62,0.91,0.33,1.39c-2.95,4.77-12.25,8.34-12.65,8.49
			C649.29,438.1,649.17,438.12,649.05,438.12z"/>
	</g>
	<g>
		<path class="st12" d="M667.1,434.08c-0.25,0-0.51-0.1-0.71-0.29c-0.18-0.18-18.46-18.03-30.69-24.15
			c-12.76-6.38-19.03-25.48-19.29-26.29c-0.18-0.46-4.6-12.61,9.12-25.44c13.24-12.39,21.53-19.81,21.61-19.88
			c0.18-0.17,0.42-0.26,0.67-0.26h13.39c0.56,0,1.01,0.45,1.01,1.01v8.2c0,0.13-0.03,0.26-0.08,0.39c-0.02,0.05-0.58,1.49,0.26,2.73
			c0.95,1.4,3.37,2.14,7.01,2.14c0.14,0.01,3.02,0.3,4.89-1.37c1.1-0.99,1.66-2.51,1.66-4.53v-8.85c0-0.56,0.45-1.01,1.01-1.01
			h25.62v-26.85c0-0.41,0.25-0.78,0.62-0.93l19.23-7.93c0.73-0.61,5.74-5.18,7.08-15.66c0.07-0.55,0.57-0.94,1.13-0.87
			c0.55,0.07,0.94,0.57,0.87,1.13c-1.55,12.16-7.69,16.89-7.95,17.09c-0.07,0.05-0.14,0.09-0.22,0.13l-18.74,7.73v27.18
			c0,0.56-0.45,1.01-1.01,1.01h-25.62v7.84c0,2.62-0.79,4.65-2.34,6.04c-2.55,2.27-6.18,1.89-6.33,1.87c-4.38,0-7.23-1.02-8.58-3.04
			c-1.2-1.8-0.73-3.75-0.52-4.39v-7.02h-11.99c-1.56,1.41-9.44,8.5-21.29,19.59c-12.69,11.87-8.77,22.84-8.6,23.31
			c0.08,0.24,6.3,19.15,18.29,25.15c12.52,6.26,30.45,23.77,31.2,24.52c0.4,0.39,0.4,1.03,0.01,1.42
			C667.62,433.98,667.36,434.08,667.1,434.08z"/>
	</g>
	<g>
		<path class="st12" d="M748.93,312.42c-12.48,0-24.7-3.98-28.06-9.77c-0.28-0.48-0.12-1.1,0.36-1.38c0.48-0.28,1.1-0.12,1.38,0.36
			c3.31,5.69,18.97,10.5,34.19,8.19c14-2.13,16.53-10.96,16.63-11.34c0.14-0.54,0.69-0.86,1.23-0.71c0.54,0.14,0.86,0.69,0.72,1.23
			c-0.11,0.43-2.9,10.47-18.28,12.81C754.43,312.22,751.67,312.42,748.93,312.42z"/>
	</g>
	<g>
		<path class="st12" d="M749.29,318.12c-15.39,0-27.46-4.45-34.41-12.82c-0.36-0.43-0.3-1.06,0.13-1.42
			c0.43-0.36,1.06-0.3,1.42,0.13c7.55,9.09,21.69,13.28,39.79,11.8c18.96-1.55,25.1-13.89,25.16-14.02c0.24-0.5,0.84-0.71,1.34-0.47
			c0.5,0.24,0.71,0.84,0.47,1.34c-0.26,0.55-6.71,13.51-26.81,15.15C753.95,318.02,751.58,318.12,749.29,318.12z"/>
	</g>
	<g>
		<path class="st12" d="M752.42,427.45c-0.52,0-0.95-0.39-1-0.92l-4.86-52.79c-0.02-0.27,0.06-0.54,0.24-0.75
			c0.18-0.21,0.43-0.33,0.7-0.35l21.1-1.34l-1.2-13.44c0,0,0,0,0,0c-0.01,0-0.74-3.01,1.26-5.67c1.78-2.36,5.06-3.62,9.76-3.74
			c0.05-0.02,4.62-0.77,8.01,1.79c1.93,1.46,3.07,3.67,3.38,6.56l0.5,12.07l24.42-2.28c0.54-0.05,1.03,0.35,1.1,0.89l1.74,15.77
			l10.94,0.55c-0.02-0.01,2.85-0.23,5.01,1.81c1.59,1.5,2.35,3.77,2.26,6.75c-0.25,8.22-3.01,9.02-7.19,9.3l-0.23,0.02l-9.34,1.1
			l1.78,20.32c0.02,0.27-0.06,0.54-0.24,0.75c-0.18,0.21-0.44,0.33-0.71,0.34l-67.37,3.24
			C752.45,427.45,752.44,427.45,752.42,427.45z M748.66,374.59l4.67,50.8l65.36-3.14L816.92,402c-0.05-0.54,0.35-1.03,0.89-1.09
			l10.64-1.23c3.29-0.22,5.1-0.34,5.31-7.35c0.07-2.38-0.48-4.14-1.63-5.23c-1.49-1.41-3.57-1.27-3.59-1.27l-11.93-0.59
			c-0.49-0.02-0.9-0.4-0.95-0.9l-1.73-15.64l-24.49,2.28c-0.28,0.03-0.55-0.06-0.76-0.24c-0.21-0.18-0.33-0.44-0.34-0.72
			l-0.54-13.06c-0.24-2.25-1.11-3.98-2.58-5.09c-2.69-2.04-6.58-1.41-6.61-1.4c-4.18,0.12-6.93,1.1-8.33,2.93
			c-1.44,1.88-0.93,4.05-0.91,4.14l1.32,14.62c0.02,0.27-0.06,0.54-0.24,0.75c-0.18,0.21-0.43,0.33-0.7,0.35L748.66,374.59z"/>
	</g>
	<g>
		<path class="st12" d="M645.61,301.14c-0.11,0-0.22,0-0.33,0c-9.19-0.18-10.91-7.52-10.92-7.59c-0.02-0.08-0.02-0.15-0.02-0.23
			l0.14-8.5l-23.48,0.7c-0.5,0.02-1.01-0.41-1.04-0.97l-0.89-22.91c-0.01-0.28,0.09-0.55,0.29-0.75c0.2-0.2,0.47-0.31,0.74-0.3
			l8.58,0.24c0.16-0.01,5.88-0.43,6.09-7.93c0.02-0.17,0.49-3.07-0.94-4.96c-0.7-0.92-1.73-1.45-3.15-1.61l-13.35,1.69
			c-0.29,0.04-0.58-0.05-0.79-0.24c-0.22-0.19-0.34-0.47-0.34-0.76v-15.98c0-0.54,0.43-0.99,0.97-1.01l64.99-2.38
			c0.27-0.01,0.54,0.09,0.74,0.28c0.2,0.19,0.31,0.45,0.31,0.73v15.83h10.54c0.61-0.13,3.01-0.5,4.95,1
			c1.61,1.24,2.44,3.38,2.46,6.34c0.15,0.69,0.7,3.82-1,6.16c-1.08,1.49-2.8,2.33-5.12,2.49l-11.25,1.19l0.78,21.49
			c0.01,0.28-0.09,0.55-0.29,0.74c-0.19,0.2-0.44,0.31-0.74,0.3l-17.91-0.38l0.15,9.97C655.76,294.04,654.59,301.14,645.61,301.14z
			 M636.35,293.22c0.22,0.8,1.87,5.77,8.97,5.91c0.1,0,0.19,0,0.29,0c7.2,0,8.13-5.24,8.17-5.47l-0.17-10.84
			c0-0.27,0.1-0.54,0.3-0.73c0.19-0.19,0.47-0.3,0.73-0.29l17.89,0.38l-0.78-21.36c-0.02-0.53,0.37-0.98,0.9-1.04l12.23-1.3
			c1.73-0.12,2.95-0.68,3.66-1.66c1.32-1.82,0.66-4.59,0.65-4.62c-0.02-0.08-0.03-0.16-0.03-0.24c0-2.37-0.56-4.01-1.68-4.86
			c-1.4-1.08-3.33-0.62-3.35-0.61c-0.08,0.02-0.17,0.03-0.25,0.03h-11.66c-0.56,0-1.01-0.45-1.01-1.01v-15.8l-62.98,2.3v13.86
			l12.33-1.56c0.07-0.01,0.15-0.01,0.23,0c2.04,0.21,3.61,1.02,4.66,2.42c1.96,2.59,1.35,6.21,1.33,6.37
			c-0.25,9.26-7.99,9.74-8.07,9.74l-7.58-0.21l0.81,20.84l23.54-0.7c0.29-0.01,0.54,0.1,0.74,0.29c0.2,0.19,0.31,0.46,0.3,0.73
			L636.35,293.22z"/>
	</g>
	<g>
		<path class="st12" d="M650.62,174.83c-0.19,0-0.39-0.06-0.56-0.17l-19.86-13.39c-0.25-0.17-0.42-0.45-0.44-0.76
			c-0.02-0.31,0.09-0.61,0.32-0.82l8.17-7.58l-8.93-6.41c-0.07-0.05-0.12-0.1-0.18-0.16c-0.04-0.05-4.34-5.2-0.06-11.38
			c1.17-1.69,2.66-2.65,4.44-2.88c3.72-0.47,7.26,2.56,7.41,2.69l5.55,4.4l9.73-8.92c0.38-0.35,0.95-0.35,1.34-0.02l16.19,14.03
			c0.42,0.36,0.47,0.99,0.11,1.41l-7.77,9.28c-0.31,0.38-0.85,0.47-1.28,0.22l-6.69-3.89c-0.07-0.04-0.14-0.1-0.2-0.16
			c-0.37-0.36-1.63-1.37-2.61-1.28c-0.25,0.02-0.63,0.12-1.04,0.7c-1.48,2.14,0.56,4.58,0.58,4.6l7.22,5.92
			c0.21,0.17,0.34,0.42,0.36,0.69c0.02,0.27-0.06,0.54-0.24,0.74l-10.8,12.74C651.19,174.71,650.9,174.83,650.62,174.83z
			 M632.37,160.31l18.06,12.17l9.55-11.27l-6.55-5.4c-1.2-1.37-2.72-4.46-0.84-7.18c0.82-1.18,1.82-1.5,2.52-1.57
			c1.89-0.17,3.64,1.32,4.1,1.76l5.85,3.4l6.59-7.87l-14.77-12.8l-9.7,8.89c-0.37,0.33-0.92,0.35-1.31,0.05l-6.26-4.97
			c-0.06-0.05-3.04-2.6-5.88-2.24c-1.2,0.15-2.2,0.82-3.03,2.03c-3.14,4.54-0.61,8.22-0.13,8.84l9.82,7.05
			c0.25,0.18,0.4,0.45,0.42,0.76c0.02,0.3-0.1,0.6-0.32,0.8L632.37,160.31z"/>
	</g>
	<g>
		<path class="st12" d="M823.78,191.45c-0.4,0-0.77-0.24-0.93-0.62l-8.9-21.51c-1.19,0.45-3.59,1.25-8.28,2.46
			c-8.4,2.16-10.7-5.15-10.72-5.22c-1.78-4.07-2.12-7.47-0.99-10.02c1.06-2.38,3.06-3.07,3.14-3.1l7.86-1.87l-9.93-17.84
			c-0.15-0.26-0.17-0.58-0.06-0.86c0.11-0.28,0.34-0.5,0.62-0.59l15.82-5.21l-6.42-9.92c-0.04-0.06-0.07-0.12-0.09-0.18
			c-1.18-3.03-1.16-5.55,0.06-7.49c1.91-3.03,6.02-3.37,6.2-3.38c3.72-0.85,6.94-0.48,9.42,1.12c3.19,2.05,3.92,5.37,3.95,5.51
			l2.33,9.11l21.03-5.77c0.48-0.13,0.98,0.1,1.18,0.55l9.07,19.86c0.13,0.28,0.12,0.6-0.01,0.87c-0.14,0.27-0.39,0.47-0.68,0.53
			l-9.72,2.16c-0.08,0.04-5.18,2.11-3.14,8.2c2.09,6.23,8.15,5.61,8.42,5.58l10.44-2.78c0.5-0.13,1.03,0.14,1.21,0.63l9.09,25.05
			c0.1,0.26,0.08,0.56-0.05,0.81c-0.13,0.25-0.36,0.43-0.63,0.51l-49.03,13.39C823.96,191.44,823.87,191.45,823.78,191.45z
			 M814.49,166.99c0.11,0,0.23,0.02,0.34,0.06c0.27,0.1,0.49,0.3,0.6,0.56l8.94,21.63l47.12-12.86l-8.4-23.15l-9.69,2.57
			c-0.22,0.04-8.09,0.9-10.7-6.92c-2.66-7.95,4.4-10.74,4.47-10.76l8.64-1.93l-8.2-17.95l-21.2,5.82c-0.26,0.07-0.54,0.04-0.77-0.1
			c-0.23-0.14-0.4-0.36-0.47-0.62l-2.59-10.15c-0.01-0.06-0.62-2.71-3.1-4.29c-2.01-1.28-4.7-1.55-8.01-0.81
			c-0.18,0.02-3.43,0.3-4.79,2.48c-0.85,1.35-0.82,3.23,0.08,5.58l7.07,10.92c0.17,0.26,0.21,0.59,0.1,0.88
			c-0.1,0.29-0.34,0.52-0.64,0.62l-15.9,5.23l9.99,17.93c0.15,0.28,0.17,0.61,0.04,0.9c-0.13,0.29-0.38,0.5-0.69,0.57l-9.07,2.16
			c0,0,0,0,0,0c0.02,0-1.2,0.47-1.88,2.04c-0.85,1.98-0.49,4.9,1.06,8.46c0.11,0.33,1.83,5.63,8.33,3.96
			c7.17-1.84,8.77-2.68,8.83-2.71C814.16,167.03,814.33,166.99,814.49,166.99z"/>
	</g>
	<g>
		<path class="st12" d="M772.01,277.5c-0.52,0-0.96-0.4-1-0.93c-0.05-0.59-1.12-14.4,1.37-20.23c2.58-6.01,10.76-8.54,11.16-8.66
			l0,0c-0.02,0,1.88-0.9,2.33-2.59c0.29-1.06-0.06-2.29-1.02-3.64c-0.03-0.05-0.67-0.99-1.75-1.14c-0.91-0.12-1.94,0.32-3.07,1.31
			c-0.37,0.33-0.92,0.33-1.3,0.02c-3.72-3.02-9.42-10.1-6.23-16.46c-1.98-0.46-5.37-1.63-6.91-4.37c-0.92-1.65-1.03-3.57-0.34-5.73
			c-2.39,0.02-6.61-0.37-8.81-3.3c-1.42-1.88-1.72-4.44-0.89-7.62c-1.97,1.24-4.79,2.53-7.73,2.3c-1.98-0.16-3.74-0.96-5.27-2.41
			c-0.5,1.4-1.46,3.24-3.21,4.43c-1.64,1.11-3.62,1.42-5.91,0.94c-1.02,0.46-4.12,1.68-6.93,0.99c0.46,1.74,0.69,4.02-0.54,5.64
			c-1.02,1.34-2.77,1.92-5.26,1.73c0.68,2.09,1.52,5.68,0.24,8.09c-0.64,1.2-1.75,1.98-3.2,2.26c-0.11,0.02-0.22,0.02-0.33,0.01
			l-7.23-1.03c-0.55-0.08-0.93-0.59-0.86-1.14c0.08-0.55,0.59-0.93,1.14-0.86l7.06,1c0.78-0.18,1.3-0.56,1.64-1.19
			c1.14-2.15-0.27-6.48-0.91-7.97c-0.15-0.34-0.09-0.74,0.14-1.03c0.23-0.29,0.6-0.43,0.97-0.36c1.77,0.33,4.08,0.47,5-0.74
			c1.18-1.55-0.05-4.96-0.58-6.03c-0.21-0.43-0.09-0.96,0.3-1.25c0.38-0.29,0.92-0.27,1.28,0.05c2.57,2.31,7.46-0.12,7.51-0.15
			c0.22-0.11,0.46-0.14,0.69-0.08c1.85,0.45,3.42,0.26,4.65-0.57c2.33-1.57,2.86-4.93,2.86-4.97c0.06-0.4,0.35-0.73,0.75-0.83
			c0.4-0.1,0.81,0.04,1.05,0.36c1.43,1.88,3.15,2.91,5.12,3.07c4.42,0.35,8.89-3.79,8.93-3.83c0.35-0.33,0.88-0.37,1.27-0.1
			c0.39,0.27,0.54,0.78,0.35,1.22c-1.71,3.99-1.87,6.95-0.47,8.82c2.36,3.15,8.54,2.42,8.6,2.42c0.36-0.04,0.73,0.11,0.94,0.41
			c0.22,0.3,0.25,0.69,0.1,1.02c-1.02,2.17-1.13,3.99-0.34,5.41c1.4,2.5,5.44,3.47,6.88,3.63c0.36,0.04,0.66,0.26,0.81,0.59
			c0.14,0.33,0.11,0.71-0.1,1c-4.16,5.79,2.37,12.57,4.46,14.5c1.36-1,2.71-1.42,4.01-1.23c2.01,0.29,3.07,1.94,3.11,2.01
			c1.3,1.82,1.75,3.62,1.29,5.3c-0.72,2.64-3.45,3.88-3.57,3.93c-0.19,0.07-7.8,2.41-10.01,7.57c-2.3,5.37-1.23,19.14-1.22,19.28
			c0.04,0.55-0.37,1.04-0.92,1.09C772.07,277.5,772.04,277.5,772.01,277.5z"/>
	</g>
	<g>
		<path class="st2" d="M731.24,184.86l-2.02-0.05c0.01-0.27,0.21-6.66,4.55-9.74c2.59-1.84,6.02-2.09,10.21-0.75l-0.62,1.92
			c-3.55-1.14-6.38-0.98-8.42,0.46C731.43,179.2,731.24,184.8,731.24,184.86z"/>
	</g>
	<g>
		<path class="st2" d="M806.31,231.88l-1.54-1.3c1.21-1.44,2.52-3.45,1.9-4.84c-0.82-1.81-4.71-2.3-6-2.33l-1.87-0.04l1.06-1.54
			c1.41-2.04,1.89-3.65,1.36-4.54c-0.86-1.45-4.31-1.45-5.45-1.33l-0.21-2c0.58-0.06,5.72-0.51,7.39,2.31
			c0.81,1.36,0.62,3.13-0.55,5.28c1.98,0.27,5.06,1.07,6.1,3.37C809.35,226.79,808.61,229.13,806.31,231.88z"/>
	</g>
	<g>
		<path class="st12" d="M754.85,235.61c-1.55,0-3.01-0.32-4.1-0.9c-1.42-0.76-2.2-1.94-2.2-3.35c0-0.56,0.45-1.01,1.01-1.01
			s1.01,0.45,1.01,1.01c0,0.24,0,0.96,1.13,1.57c0.79,0.42,1.94,0.66,3.15,0.66c2.11,0,3.96-0.74,3.96-1.58
			c0-0.56,0.45-1.01,1.01-1.01s1.01,0.45,1.01,1.01C760.82,234.48,757.73,235.61,754.85,235.61z"/>
	</g>
	<g>
		<path class="st12" d="M732.2,232.24c-1.55,0-3.01-0.32-4.1-0.9c-1.42-0.76-2.2-1.94-2.2-3.35c0-0.56,0.45-1.01,1.01-1.01
			s1.01,0.45,1.01,1.01c0,0.24,0,0.96,1.13,1.57c0.79,0.42,1.94,0.66,3.15,0.66c2.11,0,3.96-0.74,3.96-1.58
			c0-0.56,0.45-1.01,1.01-1.01s1.01,0.45,1.01,1.01C738.18,231.11,735.08,232.24,732.2,232.24z"/>
	</g>
	<g>
		<path class="st12" d="M737.81,248.35c-2.01,0-5.44-0.51-6.21-3.84c-0.58-2.49,0.75-3.36,2.04-4.2c1.34-0.87,3.01-1.96,4.22-5.45
			c0.18-0.53,0.76-0.8,1.28-0.62c0.53,0.18,0.8,0.76,0.62,1.28c-1.44,4.14-3.6,5.55-5.03,6.48c-1.19,0.78-1.44,0.94-1.18,2.05
			c0.67,2.89,5.38,2.21,5.43,2.21c0.55-0.08,1.06,0.3,1.15,0.85c0.08,0.55-0.3,1.06-0.85,1.15
			C739.21,248.27,738.63,248.35,737.81,248.35z"/>
	</g>
	<g>
		<path class="st12" d="M737.05,265.1c-2.47,0-4.51-0.7-5.92-2.09c-1.78-1.74-2.24-4.36-1.28-7.17c0.1-0.29,0.33-0.52,0.62-0.62
			c0.29-0.1,0.61-0.07,0.87,0.1c4.25,2.67,8.65,2.94,10.7,0.66c0.37-0.41,1.01-0.45,1.42-0.07c0.41,0.37,0.45,1.01,0.07,1.42
			c-2.9,3.22-7.95,2.56-12.09,0.37c-0.26,1.57,0.12,2.92,1.09,3.87c1.9,1.87,5.73,2,10.23,0.36c0.52-0.19,1.1,0.08,1.29,0.6
			c0.19,0.52-0.08,1.1-0.6,1.29C741.13,264.68,738.96,265.1,737.05,265.1z"/>
	</g>
	<g>
		<path class="st12" d="M754.41,149.57c-0.49,0-0.91-0.35-0.99-0.85c-0.09-0.55,0.28-1.07,0.83-1.16l14.85-2.43
			c0.55-0.09,1.07,0.28,1.16,0.83c0.09,0.55-0.28,1.07-0.83,1.16l-14.85,2.43C754.52,149.56,754.47,149.57,754.41,149.57z"/>
	</g>
	<g>
		<path class="st12" d="M781.73,120.9c-0.26,0-0.52-0.1-0.72-0.3l-8.58-8.74c-0.39-0.4-0.38-1.04,0.01-1.42
			c0.39-0.39,1.03-0.38,1.42,0.01l8.58,8.74c0.39,0.4,0.38,1.04-0.01,1.42C782.24,120.81,781.99,120.9,781.73,120.9z"/>
	</g>
	<g>
		<path class="st12" d="M805.7,99.04c-0.37,0-0.73-0.21-0.91-0.56l-5.18-10.53c-0.24-0.5-0.04-1.1,0.46-1.35
			c0.5-0.25,1.1-0.04,1.35,0.46l5.18,10.53c0.24,0.5,0.04,1.1-0.46,1.35C806,99.01,805.85,99.04,805.7,99.04z"/>
	</g>
	<g>
		<path class="st12" d="M863.83,115.24c-0.23,0-0.46-0.08-0.65-0.24c-0.42-0.36-0.47-1-0.11-1.42l8.98-10.53
			c0.36-0.42,1-0.47,1.42-0.11c0.42,0.36,0.47,1,0.11,1.42l-8.98,10.53C864.4,115.12,864.12,115.24,863.83,115.24z"/>
	</g>
	<g>
		<path class="st12" d="M880.68,151.02c-0.39,0-0.75-0.22-0.92-0.6c-0.23-0.51,0-1.1,0.51-1.33l13.76-6.15
			c0.51-0.23,1.1,0,1.33,0.51c0.23,0.51,0,1.1-0.51,1.33l-13.76,6.15C880.95,151,880.81,151.02,880.68,151.02z"/>
	</g>
	<g>
		<path class="st12" d="M772.01,556.21c-1.11,0-2.02-0.9-2.02-2.02v-7.49c0-1.11,0.9-2.02,2.02-2.02s2.02,0.9,2.02,2.02v7.49
			C774.03,555.31,773.13,556.21,772.01,556.21z"/>
	</g>
	<g>
		<g>
			<path class="st12" d="M835.89,521.8c-0.56,0-1.01-0.45-1.01-1.01v-2.02c0-0.56,0.45-1.01,1.01-1.01s1.01,0.45,1.01,1.01v2.02
				C836.9,521.35,836.45,521.8,835.89,521.8z"/>
		</g>
		<g>
			<path class="st12" d="M835.89,535.69c-0.56,0-1.01-0.45-1.01-1.01v-3.47c0-0.56,0.45-1.01,1.01-1.01s1.01,0.45,1.01,1.01v3.47
				C836.9,535.24,836.45,535.69,835.89,535.69z M835.89,528.74c-0.56,0-1.01-0.45-1.01-1.01v-3.47c0-0.56,0.45-1.01,1.01-1.01
				s1.01,0.45,1.01,1.01v3.47C836.9,528.29,836.45,528.74,835.89,528.74z"/>
		</g>
		<g>
			<path class="st12" d="M835.89,541.18c-0.25,0-0.49-0.09-0.68-0.26c-0.21-0.19-0.33-0.46-0.33-0.74v-2.02
				c0-0.56,0.45-1.01,1.01-1.01s1.01,0.45,1.01,1.01v0.92c0.26-0.02,0.57-0.04,0.92-0.07c0.56-0.04,1.04,0.38,1.08,0.93
				c0.04,0.56-0.38,1.04-0.93,1.08c-1.27,0.09-1.98,0.15-1.99,0.15C835.95,541.18,835.92,541.18,835.89,541.18z"/>
		</g>
		<g>
			<path class="st12" d="M883.17,543.04c-0.1,0-0.2-0.01-0.3-0.05c-1.07-0.33-2.28-0.64-3.58-0.91c-0.55-0.11-0.89-0.65-0.78-1.19
				c0.11-0.54,0.65-0.9,1.19-0.78c1.37,0.28,2.63,0.6,3.77,0.96c0.53,0.16,0.83,0.73,0.67,1.26
				C884,542.77,883.61,543.04,883.17,543.04z M875.76,541.46c-0.05,0-0.1,0-0.14-0.01c-1.21-0.17-2.45-0.32-3.72-0.45
				c-0.55-0.06-0.96-0.55-0.9-1.1c0.06-0.55,0.55-0.96,1.1-0.9c1.3,0.13,2.58,0.28,3.81,0.46c0.55,0.08,0.93,0.59,0.85,1.14
				C876.69,541.1,876.25,541.46,875.76,541.46z M841.67,540.79c-0.53,0-0.97-0.41-1-0.95c-0.03-0.56,0.39-1.03,0.95-1.06
				c1.14-0.06,2.42-0.13,3.8-0.19c0.56-0.03,1.03,0.41,1.05,0.96c0.02,0.56-0.41,1.03-0.96,1.05c-1.37,0.06-2.64,0.12-3.77,0.19
				C841.71,540.79,841.69,540.79,841.67,540.79z M868.21,540.69c-0.02,0-0.05,0-0.07,0c-1.24-0.08-2.5-0.15-3.76-0.2
				c-0.56-0.02-0.99-0.49-0.97-1.05c0.02-0.56,0.43-0.99,1.05-0.97c1.28,0.05,2.55,0.12,3.81,0.2c0.56,0.04,0.98,0.52,0.94,1.07
				C869.18,540.29,868.74,540.69,868.21,540.69z M849.25,540.46c-0.54,0-0.99-0.43-1.01-0.98c-0.02-0.56,0.42-1.02,0.98-1.04
				c1.22-0.04,2.5-0.07,3.81-0.09c0.01,0,0.01,0,0.02,0c0.55,0,1,0.44,1.01,0.99c0.01,0.56-0.44,1.01-0.99,1.02
				c-1.3,0.02-2.56,0.05-3.78,0.09C849.27,540.46,849.26,540.46,849.25,540.46z M860.63,540.38c-0.01,0-0.01,0-0.02,0
				c-1.27-0.02-2.53-0.04-3.78-0.04c-0.56,0-1.01-0.45-1.01-1.01c0-0.56,0.45-1.01,1.01-1.01c0,0,0,0,0,0
				c1.26,0,2.53,0.01,3.81,0.04c0.56,0.01,1,0.47,0.99,1.03C861.63,539.94,861.18,540.38,860.63,540.38z"/>
		</g>
		<g>
			<path class="st12" d="M888.42,545.5c-0.21,0-0.42-0.07-0.61-0.2c-0.45-0.34-0.97-0.66-1.57-0.97c-0.49-0.25-0.69-0.86-0.43-1.36
				c0.25-0.5,0.86-0.69,1.36-0.43c0.69,0.36,1.32,0.74,1.86,1.15c0.44,0.33,0.53,0.97,0.2,1.41
				C889.03,545.36,888.73,545.5,888.42,545.5z"/>
		</g>
	</g>
	<g>
		<g>
			<path class="st12" d="M727.27,531.89c-0.03,0-0.07,0-0.1-0.01c-0.55-0.06-0.96-0.55-0.9-1.1l0.2-2.01
				c0.06-0.55,0.55-0.96,1.1-0.9c0.55,0.06,0.96,0.55,0.9,1.1l-0.2,2.01C728.22,531.5,727.78,531.89,727.27,531.89z"/>
		</g>
		<g>
			<path class="st12" d="M725.93,545.19c-0.03,0-0.07,0-0.1-0.01c-0.55-0.06-0.96-0.55-0.9-1.1l0.34-3.33
				c0.06-0.55,0.54-0.96,1.1-0.9c0.55,0.06,0.96,0.55,0.9,1.1l-0.34,3.33C726.88,544.81,726.44,545.19,725.93,545.19z M726.6,538.54
				c-0.03,0-0.07,0-0.1-0.01c-0.55-0.06-0.96-0.55-0.9-1.1l0.34-3.33c0.06-0.55,0.54-0.96,1.1-0.9c0.55,0.06,0.96,0.55,0.9,1.1
				l-0.34,3.33C727.55,538.16,727.11,538.54,726.6,538.54z"/>
		</g>
		<g>
			<path class="st12" d="M725.39,550.52c-0.04,0-0.09,0-0.13-0.01c0,0-0.71-0.09-1.98-0.24c-0.55-0.06-0.95-0.56-0.89-1.12
				c0.06-0.55,0.56-0.95,1.12-0.89c0.38,0.04,0.7,0.08,0.98,0.12l0.1-0.98c0.06-0.55,0.56-0.96,1.1-0.9c0.55,0.06,0.96,0.55,0.9,1.1
				l-0.2,2.01c-0.03,0.27-0.16,0.52-0.38,0.69C725.84,550.45,725.61,550.52,725.39,550.52z"/>
		</g>
		<g>
			<path class="st12" d="M670.84,550.58c-0.45,0-0.85-0.3-0.97-0.75c-0.14-0.54,0.18-1.09,0.72-1.23c1.16-0.31,2.42-0.59,3.76-0.83
				c0.55-0.1,1.07,0.27,1.17,0.81c0.1,0.55-0.26,1.07-0.81,1.17c-1.29,0.23-2.5,0.5-3.6,0.79
				C671.01,550.57,670.92,550.58,670.84,550.58z M719.65,549.88c-0.03,0-0.07,0-0.1-0.01c-1.12-0.11-2.37-0.23-3.74-0.36
				c-0.55-0.05-0.96-0.54-0.91-1.09c0.05-0.55,0.54-0.96,1.09-0.91c1.38,0.12,2.64,0.24,3.77,0.36c0.55,0.06,0.96,0.55,0.9,1.1
				C720.6,549.49,720.16,549.88,719.65,549.88z M678.25,549.21c-0.5,0-0.94-0.37-1-0.88c-0.07-0.55,0.32-1.06,0.88-1.12
				c1.23-0.15,2.5-0.28,3.79-0.38c0.55-0.04,1.04,0.37,1.09,0.92c0.04,0.55-0.37,1.04-0.92,1.09c-1.27,0.1-2.51,0.23-3.71,0.38
				C678.33,549.21,678.29,549.21,678.25,549.21z M712.14,549.21c-0.03,0-0.05,0-0.08,0c-1.2-0.09-2.45-0.18-3.75-0.26
				c-0.55-0.04-0.98-0.51-0.94-1.07c0.04-0.56,0.48-0.98,1.07-0.94c1.3,0.08,2.57,0.17,3.77,0.27c0.55,0.04,0.97,0.53,0.93,1.08
				C713.1,548.81,712.66,549.21,712.14,549.21z M704.61,548.73c-0.02,0-0.03,0-0.05,0c-1.23-0.06-2.48-0.12-3.75-0.16
				c-0.56-0.02-0.99-0.49-0.97-1.04c0.02-0.56,0.49-0.99,1.04-0.97c1.28,0.05,2.54,0.1,3.78,0.16c0.56,0.03,0.98,0.5,0.96,1.06
				C705.59,548.31,705.15,548.73,704.61,548.73z M685.76,548.59c-0.53,0-0.98-0.42-1.01-0.96c-0.03-0.56,0.4-1.03,0.96-1.06
				c1.25-0.06,2.52-0.1,3.79-0.13c0.59,0,1.02,0.43,1.03,0.99c0.01,0.56-0.43,1.02-0.99,1.03c-1.26,0.03-2.51,0.07-3.74,0.13
				C685.8,548.59,685.78,548.59,685.76,548.59z M697.08,548.46c-0.01,0-0.01,0-0.02,0c-1.24-0.02-2.5-0.04-3.75-0.04
				c-0.56,0-1.01-0.45-1.01-1.01c0-0.56,0.45-1.01,1.01-1.01l0,0c1.27,0,2.53,0.01,3.79,0.04c0.56,0.01,1,0.47,0.99,1.03
				C698.07,548.02,697.62,548.46,697.08,548.46z"/>
		</g>
		<g>
			<path class="st12" d="M665.43,552.63c-0.36,0-0.7-0.19-0.89-0.53c-0.27-0.49-0.08-1.1,0.41-1.37c0.59-0.32,1.23-0.62,1.92-0.9
				c0.52-0.21,1.1,0.03,1.32,0.55c0.21,0.51-0.03,1.1-0.55,1.32c-0.61,0.25-1.19,0.52-1.72,0.81
				C665.76,552.59,665.59,552.63,665.43,552.63z"/>
		</g>
	</g>
</g>
</svg>
