<?xml version="1.0" encoding="utf-8"?>
<!-- Generator: Adobe Illustrator 27.1.0, SVG Export Plug-In . SVG Version: 6.00 Build 0)  -->
<svg version="1.1" xmlns="http://www.w3.org/2000/svg" xmlns:xlink="http://www.w3.org/1999/xlink" x="0px" y="0px" width="480px"
	 height="480px" viewBox="0 0 480 480" style="enable-background:new 0 0 480 480;" xml:space="preserve">
<style type="text/css">
	.st0{display:none;}
	.st1{display:inline;fill:#F78181;}
	.st2{display:inline;fill:#D1D8E0;}
	.st3{display:inline;fill:#49E250;}
	.st4{fill:#F2EBDF;}
	.st5{fill:none;}
	.st6{fill:#FFFFFF;}
	.st7{fill:#F2B705;}
	.st8{fill:#040423;}
	.st9{fill:#8C1F33;}
	.st10{fill:#5BA566;}
	.st11{fill:#F2E3CC;}
	.st12{fill:#F15A24;}
	.st13{fill:#400101;}
	.st14{fill:#FCFCFC;}
	.st15{fill:#122B05;}
	.st16{fill:#472FAD;}
	.st17{fill:#E5AE85;}
	.st18{fill:#A64F03;}
	.st19{fill:#050535;}
	.st20{fill:#D98E04;}
	.st21{fill:none;stroke:#FFFFFF;stroke-miterlimit:10;}
	.st22{fill:#F2F2F2;}
	.st23{fill:#2FD812;}
	.st24{fill:#AA8D30;}
	.st25{fill:#B0EAB7;}
	.st26{fill:#111147;}
	.st27{fill:none;stroke:#040423;stroke-width:2;stroke-miterlimit:10;}
	.st28{fill:none;stroke:#472FAD;stroke-width:0;stroke-linecap:round;stroke-linejoin:round;}
	.st29{fill:#F2B705;stroke:#472FAD;stroke-miterlimit:10;}
	.st30{fill:#231A56;}
	.st31{fill:#EA0070;}
	.st32{fill:#158035;}
	.st33{fill:#F9B331;}
	.st34{opacity:0.4;}
	.st35{fill:#0F0E0D;}
	.st36{fill:#E0245E;}
	.st37{display:inline;fill:#FCFCFC;}
	.st38{display:inline;}
	.st39{display:inline;fill:none;stroke:#FF0025;stroke-miterlimit:10;}
	.st40{opacity:0.5;}
</style>
<g id="Guias">
</g>
<g id="Layer_2">
	<rect y="0" class="st4" width="482.04" height="480"/>
	<g class="st40">
		<path class="st5" d="M143.25,224.8c0.21,0.08,0.47,0.16,0.71,0.24c0.21-0.11,0.44-0.23,0.65-0.34
			C144.17,224.74,143.72,224.78,143.25,224.8z"/>
		<path class="st5" d="M71.94,264.95l4.3-0.06C74.89,264.5,73.45,264.52,71.94,264.95z"/>
		<g>
			<path class="st18" d="M160.42,306.17c0.16,1.2,0.44,3.32,0.82,5.98c3.36-1.81,6.57-3.61,9.64-5.4c-0.12-0.74-0.22-1.35-0.28-1.8
				C164.56,305.64,160.65,306.14,160.42,306.17z"/>
		</g>
		<g>
			<g>
				<path class="st20" d="M249.8,410.91c-4.47-8.77-33.95-47.38-34.25-47.77c-15.65-19.56-31.88-23.6-32.05-23.63
					c-0.18-0.04-0.35-0.15-0.46-0.29c-7.05-8.65-10.5-23.34-11.85-30.68c-3.09,1.79-6.32,3.59-9.7,5.4
					c1.35,9.38,3.6,23.37,5.41,27.26c0.12,0.26,0.1,0.56-0.05,0.81c-0.36,0.58-9.14,14.32-36.17,22.56
					c-0.29,0.04-2.33,0.29-5.24,0.52c-5.54,0.45-14.25,0.85-20.2-0.28c1.3,2.16,1.75,4.15,1.79,4.32c0.59,2.08,1.04,4.09,1.38,6.04
					c0.43-0.65,1.35-1.23,2.85-2.14c1.17-0.71,2.62-1.59,4.16-2.73c0.81-0.6,1.74-0.76,2.69-0.48c3.63,1.09,6.67,8.49,6.69,8.57
					c0.38,1.05,0.43,2.9,0.48,4.69c0.01,0.49,0.03,0.97,0.05,1.41c0.08,1.9-2.05,2.29-4.11,2.65c-1.1,0.2-2.35,0.42-3.39,0.85
					c0.69,0.46,1.5,1.22,2.06,2.6c1.54,3.79,1.79,5.3-1.15,8.76c-1.33,1.57-2.06,2.38-2.79,2.44c-0.12,0.01-0.23,0-0.36-0.03
					c-0.76-0.18-0.94-0.94-1.15-1.81c-0.05-0.21-0.1-0.44-0.17-0.69c-0.38-1.45-1.52-3.68-2.26-5.16c-0.36-0.71-0.63-1.27-0.72-1.5
					c-0.13-0.36-1.3-2.31-2.54-4.31c-0.8,5.51-2.9,10.47-6.31,14.93c-2.66,3.48-5.74,5.4-9.15,5.69c-0.02,0-0.04,0-0.06,0.01
					c-3.2,0.26-5.98-0.97-7.74-2.05c0.94,4.92,0.69,12.95-1.49,20.31c-2.5,8.42-15.3,24.53-34.19,26.05
					c-0.18,0.01-0.37,0.01-0.55,0.02l2.63,32.62c0,0.02-0.01,0.03-0.01,0.05c115.83-2.54,175.68-25.54,198.31-74.63
					C250.03,411.2,249.89,411.08,249.8,410.91z M91.25,475.94c-0.58,4.06-4.66,5.16-7.72,5.41c-1.82,0.15-3.28-0.01-3.43-0.03
					c-0.22-0.02-0.42-0.13-0.56-0.3c-0.37-0.45-0.69-0.92-0.98-1.4c-0.03,0.64-0.06,1.04-0.06,1.12c-0.01,0.2-0.1,0.4-0.25,0.54
					c-0.12,0.12-2.7,2.67-5.67,2.91c-0.48,0.04-0.96,0.02-1.45-0.08c-1.98-0.4-3.53-1.97-4.61-4.65c-0.03-0.08-0.05-0.16-0.06-0.25
					c-0.02-0.31-0.59-7.5,0.71-10.5l0.19-0.43c1.37-3.16,2.93-6.74,5.46-6.49c2.42,0.24,2.7,0.87,4.27,4.35l0.24,0.53
					c0.04,0.09,0.08,0.2,0.12,0.3c0.31-0.29,0.64-0.53,0.96-0.76c0.57-0.41,1.11-0.8,1.17-1.22c0.07-0.47-0.09-1.36-0.25-2.3
					c-0.33-1.91-0.78-4.52-0.11-7.08c0.67-2.55,3.99-3.54,6.67-2.99c2.7,0.55,4.22,2.43,3.87,4.8c-0.32,2.17,0.18,5.12,0.72,8.24
					C91.07,469.2,91.69,472.83,91.25,475.94z M109.12,451.99c-0.25,0.45-0.53,0.95-0.57,1.1c-0.1,0.34-0.4,0.6-0.75,0.62
					c-0.01,0-0.02,0-0.03,0c-0.36,0.02-0.7-0.19-0.83-0.53c-1.37-3.55-3.19-6.84-4-7.25c-0.01,0.04-0.06,0.12-0.1,0.24
					c-0.1,0.25-0.31,0.44-0.58,0.5c-2.49,0.64-8.44,2.01-9.94,0.94c-0.32-0.23-0.51-0.56-0.54-0.94c-0.03-0.32-0.59-7.81,2.61-11.15
					c1.04-1.08,2.35-1.6,3.89-1.54c1,0.04,1.98,0.04,2.92,0.04c4.73,0,9.21,0.01,10.68,5.56
					C113.21,444.6,110.45,449.59,109.12,451.99z M149.61,461.26c-1.52,0.76-2.44,1.44-3.05,1.89c-0.57,0.42-1,0.75-1.52,0.79
					c-0.11,0.01-0.22,0-0.33-0.01c-0.76-0.12-1.21-0.74-2.29-2.23l-0.64-0.88c-2.07-2.83-1.97-4.33-1.81-6.61
					c0.11-1.6,0.25-3.59-0.32-6.92c-0.42-2.44-1.25-3.97-2.47-4.56c-1.5-0.72-3.23,0.23-3.24,0.24c-0.25,0.14-0.56,0.14-0.81,0.01
					c-0.26-0.14-0.43-0.39-0.45-0.68c-0.38-4.66,4.62-7.39,8.26-9.39l0.58-0.32c2.74-1.51,5.36,2.94,7.9,7.24
					c1.07,1.82,2.68,4.56,3.34,4.75c0,0,0.01,0,0.01,0c3.26-0.26,4.4,2.63,5.45,6.15C159.73,455.75,154.57,458.8,149.61,461.26z
					 M159.07,394.85c-0.54,0.71-1.21,1.58-2.3,2.7c-1.25,1.29-2.06,2.99-2.78,4.49c-0.82,1.72-1.46,3.08-2.62,3.44
					c-0.36,0.11-0.71,0.29-1.08,0.49c-0.53,0.28-1.16,0.61-1.85,0.67c-0.71,0.06-1.48-0.17-2.29-1.03c-1.68-1.79-1.71-4.54-1.73-7.2
					l-0.01-0.73c-0.03-2.42,2.46-5.29,3.69-6.55c-0.75-0.72-2.22-2.01-4.29-3.23c-1.09-0.65-1.67-1.3-1.82-2.07
					c-0.2-1.01,0.43-1.84,0.98-2.58c0.39-0.52,0.79-1.05,0.93-1.62c0.66-2.67,2.65-2.81,4.96-2.99l0.54-0.04
					c3.01-0.24,5.54,1.17,7.3,4.08c0.98,1.62,1.08,1.69,2.21,2.43c0.67,0.43,1.67,1.09,3.31,2.35c2.14,1.65,2.83,2.56,2.64,3.48
					c-0.19,0.95-1.2,1.21-2.17,1.46c-0.42,0.11-0.87,0.22-1.29,0.4C160.31,393.24,159.89,393.78,159.07,394.85z M176.44,439.53
					c-0.14,0.23-0.4,0.42-0.76,0.45c-0.21,0.02-0.47-0.02-0.76-0.15c-0.3-0.13-0.49-0.41-0.51-0.74c-0.01-0.18-0.02-0.36-0.03-0.54
					c-0.64-0.69-2.04-2.05-5.07-4.63c-3.96-3.37-5.7-5.98-5.32-7.97c0.22-1.16,1.13-1.75,1.63-1.92c0.16-0.06,0.32-0.04,0.48,0
					c0.47-0.41,1.16-0.53,1.16-0.53c-0.81-0.69-0.76-2.22-0.62-3.25c-0.11-0.04-0.22-0.1-0.3-0.19c-0.33-0.33-0.34-0.86-0.01-1.2
					c0.06-0.07,1.54-1.59,3.52-1.62c1.03-0.01,1.96,0.4,2.77,1.2c2.26,2.24,3.18,14.87,3.44,19.44
					C176.85,438.87,176.66,439.17,176.44,439.53z M195.49,368.77c-0.18,0-0.36-0.07-0.51-0.18l-7.94-6.2l-11.05,0.22
					c-0.36,0.01-0.69-0.21-0.81-0.55c-0.13-0.34-0.02-0.72,0.25-0.95l5.95-4.92c-0.74-1.99-2.69-8.33,1.45-10.55
					c1.11-0.6,2.25-0.68,3.29-0.24c2.25,0.96,3.54,4.16,4.17,6.23c0.23,0.02,0.55,0.03,0.85,0.04c3.28,0.15,10.96,0.48,12.48,7.75
					c0.57,2.7,0.17,4.9-1.18,6.53c-1.79,2.16-4.73,2.66-6.14,2.77C195.83,368.77,195.53,368.77,195.49,368.77z M216.79,434.08
					c-0.54,4.47-1.21,10.03-0.08,13.12c0.15,0.42-0.05,0.89-0.45,1.07c-0.09,0.04-0.18,0.06-0.28,0.07
					c-0.33,0.03-0.66-0.14-0.82-0.45c-0.03-0.06-3.37-6.33-9.16-9.57c-3.24-1.82-4.12-4.46-4.28-6.37
					c-0.27-3.21,1.31-6.79,3.93-8.92c1.85-1.5,4.34-1.74,6.83-0.67c2.62,1.12,4.58,3.45,4.76,5.65
					C217.36,429.36,217.09,431.54,216.79,434.08z M220.3,408.08c-0.56,0.5-1.18,0.7-1.75,0.74c-0.97,0.08-1.78-0.27-1.83-0.3
					c-0.23-0.1-0.4-0.3-0.47-0.54c-2.99-10.12-16.46-10.99-16.6-11c-0.27-0.02-0.51-0.16-0.66-0.38c-0.15-0.22-0.18-0.5-0.09-0.75
					c0.78-2.2,1.95-3.59,3.45-4.13c0.77-0.28,1.51-0.28,2.11-0.18c-0.53-4.11,1.14-6.17,2.51-7.85c0.65-0.8,1.26-1.55,1.56-2.43
					c0.47-1.36,1.5-2.24,2.91-2.46c2.08-0.33,4.73,0.83,6.14,2.71c1.89,2.52,2.03,11.16,2.04,12.68
					C222.06,401.74,222.28,406.29,220.3,408.08z"/>
			</g>
		</g>
		<g>
			<path class="st10" d="M201.94,359.78c-1.25-5.98-7.76-6.27-10.89-6.41c-1.38-0.06-2.07-0.09-2.28-0.83
				c-0.83-2.98-2.07-5.05-3.33-5.58c-0.56-0.24-1.15-0.18-1.82,0.17c-3.41,1.83-0.49,8.91-0.45,8.98c0.15,0.35,0.05,0.75-0.24,0.99
				l-4.54,3.76l8.91-0.18c0.19,0,0.39,0.06,0.54,0.18l7.94,6.2c0.89-0.04,3.79-0.31,5.34-2.19
				C202.12,363.66,202.4,361.95,201.94,359.78z"/>
		</g>
		<g>
			<path class="st10" d="M109.17,381.33c-0.04,0.4,0.18,2.86,0.42,5.07c0.83,1.33,3.04,4.89,3.3,5.62c0.08,0.21,0.32,0.69,0.64,1.31
				c0.78,1.54,1.96,3.88,2.39,5.5c0.07,0.26,0.13,0.51,0.18,0.73c0.01,0.05,0.03,0.11,0.04,0.17c0.44-0.45,1.03-1.14,1.3-1.47
				c2.43-2.86,2.23-3.67,0.87-7.02c-0.61-1.51-1.58-1.95-2.16-2.22c-0.36-0.16-0.9-0.41-0.9-1.04c0-0.69,0.53-0.93,1.7-1.46
				c1.26-0.57,2.7-0.82,3.96-1.05c1.15-0.21,2.73-0.49,2.71-0.91c-0.02-0.45-0.03-0.94-0.04-1.44c-0.04-1.5-0.09-3.36-0.37-4.15
				c-0.49-1.34-3.24-6.82-5.59-7.52c-0.44-0.13-0.81-0.07-1.19,0.21c-1.6,1.18-3.09,2.09-4.29,2.82c-1.02,0.62-2.17,1.32-2.34,1.62
				c-0.31,0.6-0.51,3.54-0.58,4.5C109.2,380.93,109.18,381.19,109.17,381.33z"/>
		</g>
		<g>
			<path class="st10" d="M162.26,390.73c0.25-0.06,0.59-0.15,0.81-0.24c-0.19-0.26-0.67-0.77-1.9-1.71
				c-1.59-1.22-2.56-1.86-3.2-2.28c-1.31-0.86-1.59-1.08-2.74-2.97c-1.43-2.36-3.35-3.46-5.71-3.27l-0.55,0.04
				c-0.13,0.01-0.26,0.02-0.39,0.03c-2.03,0.16-2.72,0.35-3.05,1.67c-0.22,0.9-0.75,1.61-1.22,2.23c-0.36,0.48-0.73,0.97-0.67,1.23
				c0.02,0.09,0.14,0.42,1.02,0.94c3.33,1.97,5.19,4.05,5.27,4.14c0.3,0.34,0.28,0.87-0.06,1.18c-1.06,0.99-3.8,3.97-3.77,5.9
				l0.01,0.74c0.02,2.33,0.04,4.75,1.27,6.05c0.69,0.73,1.03,0.6,2.12,0.03c0.4-0.21,0.86-0.45,1.37-0.61
				c0.44-0.14,1.08-1.47,1.59-2.54c0.73-1.54,1.64-3.45,3.09-4.94c1.01-1.04,1.65-1.87,2.16-2.54c0.87-1.14,1.5-1.96,3.01-2.6
				C161.24,390.99,161.78,390.85,162.26,390.73z"/>
		</g>
		<g>
			<path class="st10" d="M217.97,394.59c-0.03-0.08-0.04-0.17-0.04-0.26c-0.01-2.66-0.34-9.98-1.71-11.8
				c-1.02-1.36-3.05-2.26-4.52-2.05c-0.79,0.13-1.31,0.56-1.57,1.33c-0.4,1.17-1.14,2.08-1.85,2.96c-1.49,1.83-2.89,3.55-1.92,7.84
				c0.07,0.33-0.06,0.68-0.33,0.88c-0.28,0.2-0.64,0.22-0.93,0.04c-0.01-0.01-1.08-0.61-2.21-0.2c-0.78,0.29-1.44,0.98-1.98,2.08
				c3.53,0.44,13.82,2.52,16.82,11.67c0.38,0.09,1,0.14,1.43-0.26C219.81,406.22,220.98,403.86,217.97,394.59z"/>
		</g>
		<g>
			<path class="st10" d="M211.82,423.92c-0.94-0.4-1.87-0.57-2.73-0.5c-0.88,0.07-1.69,0.38-2.36,0.93
				c-2.17,1.75-3.53,4.82-3.31,7.45c0.18,2.14,1.36,3.88,3.42,5.03c3.38,1.89,5.93,4.65,7.59,6.84c-0.13-3.09,0.31-6.69,0.68-9.8
				c0.29-2.44,0.55-4.55,0.45-5.73C215.43,426.57,213.86,424.79,211.82,423.92z"/>
		</g>
		<g>
			<path class="st10" d="M166.71,424.56c0.15,0.44-0.08,0.92-0.52,1.07c-0.05,0.02-0.45,0.19-0.53,0.66
				c-0.1,0.6,0.16,2.42,4.76,6.34c1.66,1.41,2.9,2.51,3.81,3.36c-0.47-6.59-1.48-15.01-2.82-16.34c-0.48-0.48-0.99-0.71-1.55-0.71
				c-1.21,0.01-2.31,1.1-2.32,1.11c-0.24,0.24-0.59,0.31-0.9,0.2c-0.14,1.03-0.19,2.56,0.62,3.25c0,0-0.69,0.12-1.16,0.53
				C166.38,424.09,166.61,424.28,166.71,424.56z"/>
		</g>
		<g>
			<path class="st10" d="M152.84,446.27c-1.46,0.12-2.68-1.83-4.88-5.58c-1.61-2.74-4.3-7.33-5.61-6.62l-0.59,0.32
				c-2.86,1.56-6.66,3.64-7.3,6.56c0.32-0.08,0.68-0.15,1.06-0.19c0.74-0.06,1.57,0.02,2.39,0.41c1.76,0.83,2.91,2.79,3.43,5.81
				c0.6,3.54,0.45,5.73,0.34,7.33c-0.15,2.1-0.22,3.15,1.48,5.48l0.65,0.89c0.48,0.66,0.93,1.29,1.16,1.51
				c0.14-0.08,0.38-0.26,0.59-0.42c0.66-0.49,1.65-1.23,3.31-2.05c5.53-2.75,8.76-5.13,7.74-8.51
				C155.29,446.83,154.38,446.14,152.84,446.27z"/>
		</g>
		<g>
			<path class="st10" d="M107.82,450.84c1.27-2.31,3.52-6.66,2.42-10.8c-1.09-4.1-3.85-4.3-9.04-4.3c-0.96,0-1.96,0-2.99-0.04
				c-1.05-0.04-1.9,0.29-2.6,1.02c-2.13,2.22-2.29,7.43-2.16,9.58c1.02,0.26,4.76-0.35,8.01-1.16c0.39-0.68,0.89-0.89,1.3-0.92
				c0.05,0,0.09,0,0.14-0.01C104.64,444.22,106.54,447.83,107.82,450.84z"/>
		</g>
		<g>
			<path class="st10" d="M76.91,474.98c-0.33-1.81-0.36-3.48-0.37-4.71c-0.17-1.12-0.42-2.13-0.76-2.89l-0.24-0.53
				c-1.45-3.21-1.45-3.21-2.89-3.36c-1.34-0.12-2.82,3.38-3.73,5.47l-0.19,0.43c-0.92,2.12-0.75,7.49-0.59,9.56
				c0.85,2.04,1.97,3.22,3.32,3.5c2.21,0.45,4.63-1.49,5.36-2.15C76.87,479.5,76.97,477.36,76.91,474.98z"/>
		</g>
		<g>
			<path class="st10" d="M88.08,457.2c0.31-2.08-1.67-2.71-2.53-2.89c-1.9-0.39-4.29,0.24-4.69,1.75c-0.58,2.2-0.18,4.51,0.14,6.36
				c0.2,1.17,0.36,2.09,0.26,2.82c-0.16,1.14-1.07,1.79-1.87,2.36c-0.82,0.59-1.21,0.91-1.18,1.36c0.02,0.29,0.02,0.67,0.03,1.12
				c0,0.03,0,0.07,0,0.1c0.22,1.47,0.33,3.08,0.37,4.59c0.31,1.66,0.9,3.4,2.03,4.89c1.6,0.11,8.32,0.32,8.93-3.96
				c0.4-2.85-0.19-6.35-0.77-9.73C88.24,462.71,87.72,459.64,88.08,457.2z"/>
		</g>
		<g>
			<path class="st8" d="M-11.14,165.49c30.63,2.11,75.08-11.68,96.52-20.16c6.32-2.5,12.65-5.19,18.45-8.16
				c-0.05-0.1-0.09-0.22-0.09-0.34c-0.02-0.45,0.32-0.83,0.77-0.88c0.44-0.04,0.87-0.07,1.27-0.07c0.22-0.02,0.45-0.06,0.7-0.1
				c1.37-0.74,2.7-1.5,3.99-2.28c0.89-1.64,0.3-4.21-1.72-7.46c-0.04-0.03-11.44-13.18-33.58-9.98
				c-22.26,3.21-31.33,15.08-31.42,15.2c-0.26,0.35-0.74,0.45-1.11,0.23c-0.17-0.1-17.36-9.66-40.84,18.71
				c-0.04,0.05-0.08,0.09-0.13,0.13c-0.01,0.01-2.49,2.19-6,12.35c-0.1,0.29-0.36,0.51-0.66,0.56c-0.1,0.02-3.49,0.61-8.32,2.1
				C-12.59,165.38-11.88,165.44-11.14,165.49z"/>
		</g>
		<g>
			<path class="st8" d="M-18.83,217.25c2.01-0.75,9.95-3.12,21.97-6.7c15.9-4.74,38.59-11.51,61.05-18.59
				c-0.5-2.47-2.56-4.78-6.17-6.9c-0.29-0.17-0.45-0.49-0.41-0.82c0.03-0.33,0.26-0.61,0.57-0.72c6.76-2.27,24.37-9.54,24.76-15.79
				c0.12-1.95-1.58-3.79-5.06-5.45c-0.34-0.16-0.53-0.53-0.47-0.9c0.06-0.37,0.36-0.66,0.74-0.7c0.21-0.03,21.53-2.64,27.51-11.09
				c3.49-4.93,4.88-8.81,3.81-10.64c-0.52-0.89-1.64-1.23-2.83-1.32c-6.4,3.43-13.52,6.49-20.62,9.29
				c-17.82,7.05-51.49,17.74-80.09,20.05c-6.01,0.48-11.8,0.6-17.17,0.23c-2.09-0.14-4.09-0.33-6.03-0.54
				c-9.76,3.51-22.67,10.14-28.28,21.7c-6.14,12.65-4.2,24.57-0.95,33.08C-33.76,220.7-22.06,218.46-18.83,217.25z"/>
		</g>
		<g>
			<path class="st8" d="M-24.54,322.31c0.06-0.02,0.12-0.03,0.18-0.03c0.79-0.04,58.96-3.27,119.2-24.58
				c-0.01-0.03-0.02-0.06-0.03-0.09c-0.06-0.17-4.03-12.6-12.71-13.29c-0.38-0.03-0.69-0.31-0.77-0.68
				c-0.07-0.37,0.11-0.75,0.45-0.92c0.21-0.11,5.21-2.89,0.77-11.83c-0.04-0.08-2.11-4.69-6.18-5.95c-0.04-0.01-0.09-0.02-0.13-0.03
				l-4.3,0.06c-1.04,0.3-2.11,0.78-3.22,1.46c-0.4,0.25-0.91,0.13-1.16-0.26s-0.15-0.91,0.24-1.17c0.32-0.22,7.75-5.4,4.81-15.07
				c-0.02-0.04-0.24-0.42-0.62-0.95c-4.49,0.85-8.92,1.62-13.23,2.32c-18.69,3.04-37.25,5.1-53.24,6.39
				c-23.6,1.9-41.61,2.12-46.17,1.32c-0.46-0.08-0.77-0.52-0.69-0.98c0.08-0.46,0.51-0.78,0.98-0.69
				c7.04,1.23,59.88-0.42,111.09-9.85c-1.9-1.94-5.25-4.06-10.06-2.39c-0.23,0.08-0.49,0.06-0.7-0.07
				c-0.21-0.12-0.36-0.33-0.41-0.58l-0.53-2.77c-2.25,0.49-8.23,1.43-12.7-1.09c-2.34-1.32-3.91-3.38-4.67-6.14
				c-1.21-4.35,0.92-8.27,5.67-10.5c4.58-2.14,11.13-2.33,14.35,0.45c1.12-2.75,3.53-9.78,1.3-14.7c-1.06-2.34-3.1-3.93-6.04-4.74
				c-0.33-0.09-0.57-0.36-0.62-0.7c-0.05-0.33,0.11-0.67,0.39-0.84c0.07-0.05,7.04-4.43,7.54-9.71
				c-22.32,7.04-44.84,13.75-60.64,18.46c-11.55,3.44-19.9,5.93-21.85,6.67c-2.29,0.86-12.83,3.06-25.04,4.04
				c-0.85,0.07-1.72,0.13-2.59,0.19c1.89,4.48,4.06,7.85,5.33,9.64c0.22,0.31,0.21,0.72-0.02,1.01c-0.23,0.29-0.63,0.41-0.98,0.27
				c-0.06-0.02-6-2.27-11.96,0.41c-4.31,1.94-7.61,5.94-9.82,11.89c-6.75,18.19,10.71,31.22,10.89,31.35
				c0.31,0.23,0.43,0.63,0.29,0.99c-0.14,0.36-0.51,0.58-0.88,0.54c-0.81-0.08-19.66-1.76-22.74,22.71c0,0.09,0.04,13.21,6.68,20.66
				C-53.95,325.55-37.44,325.82-24.54,322.31z M-46.26,253.59c-9.97,4.16-10.78,6.58-10.67,7.42c0.22,1.69,4.49,3.02,7.45,3.43
				c0.46,0.06,0.79,0.49,0.73,0.96c-0.05,0.4-0.38,0.7-0.77,0.73c-0.06,0-0.12,0-0.18-0.01c-0.86-0.12-8.43-1.24-8.91-4.89
				c-0.37-2.8,3.35-5.73,11.7-9.21c0.44-0.18,0.93,0.02,1.11,0.46C-45.63,252.91-45.83,253.41-46.26,253.59z"/>
		</g>
		<g>
			<path class="st8" d="M101.1,402.19c6.64-8.68,8.04-19.36,4.29-32.65c-0.03-0.12-1.74-7.58-8.28-8.67
				c-0.39-0.06-0.69-0.39-0.71-0.79c-0.02-0.4,0.24-0.76,0.62-0.86c0.37-0.11,9.04-2.82,7.01-19.96c-0.01-0.08-0.02-0.14-0.03-0.21
				c-35.45,12.55-79.95,23.77-135.44,30.98c-0.01,0-0.03,0-0.04,0c-0.45,0.04-0.85-0.29-0.91-0.74c-0.06-0.47,0.27-0.89,0.73-0.95
				c55.54-7.22,100.03-18.45,135.43-31.01c-2.07-14.37-6.75-15.73-11.28-17.01c-0.42-0.12-0.83-0.24-1.25-0.36
				c-0.35-0.11-0.6-0.43-0.6-0.8c-0.01-0.37,0.22-0.7,0.57-0.82c0.03-0.01,2.96-1.08,4.62-4.65c1.69-3.63,1.53-8.47-0.43-14.39
				c-59.45,21.03-116.85,24.53-119.57,24.67c-4.19,1.13-8.76,1.88-13.54,2.26c-9.32,0.75-19.44,0.13-29.13-1.59
				c1.63,1.24,3.57,2.17,5.85,2.62c0.42,0.08,0.71,0.46,0.68,0.89c-0.03,0.42-0.36,0.76-0.78,0.79c0,0,0,0-0.01,0
				c-0.49,0.04-28.6,2.55-32.44,28.79c-1.09,7.41,0.3,13.75,4.11,18.85c7.24,9.68,20.94,11.73,21.08,11.75
				c0.31,0.04,0.58,0.26,0.68,0.56c0.1,0.3,0.03,0.63-0.19,0.86c-0.08,0.08-8.11,8.63-7.79,20.25c0.22,7.7,4,15.05,11.24,21.83
				c0.56,0.46,14.66,11.82,28.77-0.42c0.26-0.23,0.63-0.27,0.94-0.11c0.31,0.16,0.49,0.48,0.46,0.83c0,0.05-0.37,5.12,3.55,9.62
				c3.73,4.27,9.99,6.68,18.61,7.14c14.68,0.8,19-0.2,22.08-2.67c0.02-0.02,0.04-0.03,0.06-0.05c0.84-0.68,1.59-1.47,2.44-2.37
				c1.12-1.18,2.39-2.53,4.22-4.03c0.13-0.11,0.3-0.18,0.47-0.19c0.05,0,0.11,0,0.16,0c0.23,0.03,0.44,0.14,0.58,0.32
				c0.09,0.12,9.39,11.7,28.96,11.71c19.6,0,32.96-16.52,35.47-24.95c2.45-8.27,2.37-17.66,0.88-21.62c-0.14-0.37,0-0.78,0.32-1
				c0.33-0.22,0.76-0.19,1.05,0.08c0.04,0.04,3.83,3.45,8.47,3.08c0.02,0,0.04,0,0.07-0.01C96.07,406.96,98.74,405.27,101.1,402.19z
				 M-57.68,374.22c0.2-0.6,5.17-14.65,27.7-15.34c0.47-0.01,0.86,0.35,0.87,0.82c0.02,0.47-0.35,0.87-0.82,0.88
				c-18.84,0.57-24.73,11.02-25.91,13.61c13.74,9.39,26.95,3.93,27.09,3.87c0.43-0.18,0.93,0.02,1.11,0.45s-0.01,0.93-0.44,1.11
				c-0.07,0.03-3.08,1.28-7.73,1.66c-5.58,0.45-13.52-0.37-21.56-6.09C-57.67,374.97-57.79,374.58-57.68,374.22z M-37.55,412.75
				c-9.47,0.76-20.23-0.99-31.9-7.32c-0.41-0.22-0.57-0.74-0.34-1.15c0.22-0.41,0.74-0.56,1.15-0.34
				c40.51,21.97,69.86-12.85,70.16-13.2c0.3-0.36,0.83-0.41,1.2-0.12c0.36,0.3,0.41,0.83,0.12,1.2
				C2.61,392.08-13.14,410.79-37.55,412.75z M-18.47,441.9c-1.61,0.13-3.25,0.17-4.94,0.12c-0.47-0.01-0.84-0.41-0.82-0.87
				c0.01-0.47,0.42-0.84,0.87-0.82c35.59,1.03,54.74-41.53,54.93-41.96c0.19-0.43,0.7-0.63,1.12-0.44c0.43,0.19,0.62,0.69,0.44,1.12
				C32.94,399.47,15.09,439.19-18.47,441.9z M31.21,430.02c-0.11,0.06-0.23,0.09-0.34,0.1c-0.32,0.03-0.64-0.13-0.81-0.43
				c-0.23-0.41-0.08-0.93,0.33-1.15c44.71-24.86,39.4-67.06,39.34-67.48c-0.06-0.46,0.26-0.89,0.72-0.96
				c0.41-0.06,0.89,0.26,0.96,0.72C71.47,361.26,76.97,404.58,31.21,430.02z"/>
		</g>
		<g>
			<path class="st11" d="M47.56,453.31c-0.22,0-0.44,0.03-0.66,0.03c-17.9-0.01-27.38-9.09-29.73-11.69
				c-1.42,1.22-2.48,2.34-3.42,3.35c-0.77,0.82-1.48,1.56-2.23,2.22l1.43,49.13c0,0.05-0.02,0.1-0.02,0.15
				c19.65,3.07,34.32-7.51,37.48-10.03c-0.11-0.13-0.19-0.28-0.2-0.46L47.56,453.31z"/>
		</g>
		<path class="st6" d="M172.45,305.83c0.75-0.44,1.5-0.89,2.24-1.33c-0.83,0.09-1.63,0.18-2.4,0.26
			C172.33,305.05,172.39,305.41,172.45,305.83z"/>
		<g>
			<g>
				<path class="st11" d="M292.39,370.44c-10.72-11.39-22.53-31.55-22.65-31.75c-20-33.52-30.83-36.66-30.94-36.69
					c-13.34-2.13-41.48,0.14-60.16,2.08c-1.89,1.17-3.86,2.35-5.88,3.53c1.25,6.9,4.62,21.78,11.42,30.31
					c2.35,0.63,17.62,5.31,32.7,24.17c1.23,1.61,29.89,39.13,34.42,48.04c0.02,0.04,0.02,0.09,0.04,0.13
					c31.76-9.72,40.74-35.84,41.88-39.6c-0.05,0.01-0.1,0.03-0.15,0.04C292.83,370.73,292.58,370.64,292.39,370.44z M242.2,319.42
					c0,0-0.01,0-0.01,0c-0.46,0.04-0.87-0.3-0.91-0.77c-0.37-3.93-1.86-6.95-4.42-8.98c-4.87-3.85-12.06-2.9-12.14-2.89
					c-0.46,0.07-0.89-0.26-0.96-0.72c-0.07-0.46,0.26-0.89,0.72-0.96c0.32-0.04,7.99-1.06,13.42,3.24
					c2.94,2.32,4.64,5.74,5.05,10.15C243.01,318.96,242.67,319.38,242.2,319.42z"/>
			</g>
		</g>
		<g>
			<path class="st11" d="M111.37,139.38c0.51,2.58-0.95,6.4-4.34,11.18c-5.19,7.33-20.18,10.45-26.19,11.43
				c2.64,1.72,3.91,3.68,3.77,5.84c-0.46,7.52-18.3,14.57-24.24,16.72c3.05,2.09,4.85,4.4,5.41,6.9
				c22.2-7.02,43.99-14.32,58.56-20.23c4.02-1.63,7.6-3.32,10.81-5.02C126.26,145.3,115.26,140.46,111.37,139.38z"/>
		</g>
		<g>
			<path class="st11" d="M73.78,248.62c0.25,0.38,0.39,0.63,0.4,0.65c1.94,6.37-0.13,11.07-2.25,13.92
				c1.72-0.41,3.38-0.37,4.97,0.12c4.81,1.5,7.11,6.64,7.2,6.85c2.24,4.51,2.27,7.73,1.58,9.95c6.63,0.98,45.04,5.85,60.86-9.56
				c15.61-15.2,12.6-38.31,11.85-42.71c-0.02,0-0.04,0-0.06,0.01c-6.8,0.55-11.35-0.12-14.32-1
				C124.58,236.96,98.31,243.92,73.78,248.62z"/>
		</g>
		<g>
			<g>
				<path class="st11" d="M135.82,167.78c-3.23,1.7-6.82,3.39-10.84,5.01c-14.68,5.95-36.65,13.3-58.99,20.37
					c-0.02,4.87-4.57,8.92-6.96,10.72c2.58,1.05,4.42,2.77,5.49,5.12c3.15,6.94-1.62,16.89-1.83,17.31c-0.13,0.27-0.4,0.45-0.7,0.47
					c0,0,0,0,0,0c-0.3,0.02-0.59-0.12-0.76-0.36c-1.91-2.76-8.32-3.21-13.19-0.94c-1.89,0.89-6.15,3.49-4.76,8.5
					c0.64,2.3,1.94,4.02,3.87,5.11c4.89,2.76,12.23,0.74,12.3,0.72c0.23-0.07,0.47-0.03,0.68,0.1c0.2,0.12,0.34,0.33,0.39,0.56
					l0.52,2.71c5.73-1.55,9.61,1.6,11.59,3.92c25.65-4.83,50.75-11.62,69.3-21.01c-1.81-0.78-2.59-1.52-2.66-1.59
					c-0.25-0.25-0.32-0.63-0.17-0.95c0.15-0.32,0.48-0.51,0.83-0.49c3.67,0.24,6.72-0.22,9.16-0.93c2.24-1.36,4.35-2.77,6.32-4.22
					c-4.11-10.57,1.14-18.65,3.53-21.57C155.07,195.31,145.03,190.46,135.82,167.78z M58.92,235.66c-0.55,0.1-1.07,0.17-1.56,0.21
					c-2.12,0.17-3.69-0.23-4.68-1.21c-1.32-1.29-1.04-3.05-1.03-3.12c0.08-0.46,0.52-0.78,0.98-0.7c0.46,0.08,0.77,0.51,0.7,0.97
					c-0.01,0.06-0.13,1,0.55,1.65c0.8,0.77,2.43,0.95,4.73,0.52c0.43-0.08,0.9,0.22,0.99,0.68
					C59.68,235.13,59.38,235.58,58.92,235.66z M131.38,191.37c-0.06,0.25-0.24,0.46-0.48,0.57c-2.13,0.94-4.29,1.39-6.29,1.55
					c-4.84,0.39-8.75-0.9-8.98-0.98c-0.44-0.15-0.68-0.63-0.53-1.08c0.15-0.44,0.63-0.68,1.08-0.53c0.07,0.02,7.1,2.34,13.65-0.35
					c0.38-1.83,1.62-9.35-2.82-11.32c-0.43-0.19-0.62-0.69-0.43-1.12c0.19-0.43,0.69-0.62,1.12-0.43
					C134.04,180.49,131.49,190.93,131.38,191.37z"/>
			</g>
		</g>
		<g>
			<path class="st11" d="M133.46,283.17c-11.92,6.01-24.22,11.16-36.46,15.55c2.12,6.37,2.26,11.67,0.35,15.72
				c-1.05,2.22-2.5,3.61-3.66,4.44c4.59,1.33,9.56,3.46,11.72,17.86c21.27-7.63,39.21-15.74,54.24-23.73
				c-0.47-3.33-0.82-5.93-0.96-7.09C141.87,302.98,135.6,289.93,133.46,283.17z"/>
		</g>
		<g>
			<path class="st11" d="M116.38,283.02c-14.59,1.18-28.37-0.81-31.4-1.3c-0.28,0.47-0.58,0.87-0.87,1.2
				c8.5,2.15,12.15,13.61,12.32,14.13c0.01,0.02,0.01,0.04,0.02,0.07c12.27-4.4,24.6-9.57,36.53-15.61
				c-0.15-0.56-0.26-1.04-0.34-1.42C127.46,281.68,121.86,282.58,116.38,283.02z"/>
		</g>
		<g>
			<path class="st11" d="M130.33,362.91c23.84-7.27,33.25-19.23,34.83-21.44c-1.83-4.51-3.94-17.54-5.27-26.67
				c-15.07,7.97-33.01,16.06-54.26,23.66c0.03,0.2,0.06,0.38,0.08,0.59c1.59,13.47-3.18,18.79-6.12,20.75
				c1.72,0.68,3.05,1.73,4.09,2.89C111.88,365.11,130.15,362.93,130.33,362.91z"/>
		</g>
		<path class="st16" d="M127.69,177.68c-0.43-0.19-0.93,0-1.12,0.43c-0.19,0.43,0.01,0.93,0.43,1.12c4.45,1.96,3.2,9.49,2.82,11.32
			c-6.54,2.69-13.58,0.37-13.65,0.35c-0.45-0.15-0.93,0.09-1.08,0.53c-0.15,0.44,0.09,0.93,0.53,1.08c0.23,0.08,4.14,1.37,8.98,0.98
			c2-0.16,4.16-0.61,6.29-1.55c0.24-0.11,0.42-0.32,0.48-0.57C131.49,190.93,134.04,180.49,127.69,177.68z"/>
		<path class="st16" d="M293.63,369.28c-10.59-11.25-22.3-31.24-22.43-31.45c-20.53-34.4-31.54-37.36-32.06-37.49
			c-12.92-2.06-38.63-0.17-57.23,1.68c4.45-2.83,8.56-5.61,12.31-8.3c39.64-28.42,50.9-53.55,50.98-53.74
			c11.38-21.39,13.33-38.81,5.78-51.78c-12.79-21.98-47.83-23.21-49.31-23.25c-0.45-0.01-0.86,0.36-0.87,0.82
			c-0.01,0.47,0.36,0.86,0.83,0.87c0.35,0.01,35.58,1.24,47.9,22.41c7.23,12.42,5.27,29.29-5.84,50.18
			c-0.11,0.25-11.17,24.94-50.44,53.1c-4.53,3.25-9.55,6.62-15.11,10.07c-9.57,1-16.61,1.91-17.83,2.07
			c-17.43-2.39-23.43-15.58-25.34-22.06c8.83-4.52,17.43-9.53,25.62-15.07c0.39-0.26,0.49-0.79,0.23-1.18
			c-0.26-0.39-0.79-0.49-1.18-0.23c-8.03,5.44-16.47,10.35-25.12,14.8c-0.11-0.47-0.2-0.87-0.25-1.17c5.17-1.77,9.86-4.28,13.48-7.8
			c17.9-17.44,12.25-44.75,12.19-45.02c-0.09-0.42-0.44-0.7-0.91-0.67c-5.78,0.53-9.88,0.17-12.76-0.44c1.09-0.6,2.15-1.2,3.19-1.82
			c5.15-1.45,7.8-3.98,7.97-4.14c0.26-0.25,0.33-0.64,0.18-0.97c-0.05-0.1-0.07-0.2-0.12-0.3c4.86-3.73,8.83-7.8,11.59-12.24
			c10.58-16.99,13.61-30.39,9-39.85c-5.2-10.66-18.1-12.14-18.65-12.2c-0.46-0.05-0.88,0.29-0.93,0.75
			c-0.05,0.47,0.29,0.88,0.75,0.93c0.12,0.01,12.53,1.46,17.31,11.27c4.33,8.89,1.33,21.74-8.92,38.19
			c-2.59,4.15-6.26,7.99-10.79,11.54c-4.37-11.95,3.98-20.08,4.36-20.44c0.25-0.24,0.33-0.6,0.21-0.92
			c-0.12-0.32-0.43-0.54-0.77-0.55c-0.12,0-12.26-0.74-23.25-27.84c-0.02-0.04-0.03-0.07-0.05-0.11
			c27.86-15.3,26.7-32.29,26.62-33.1c-0.04-0.46-0.45-0.81-0.91-0.77c0,0-0.01,0-0.01,0c-0.47,0.04-0.81,0.46-0.77,0.92
			c0.02,0.19,1.14,16.54-25.6,31.36c-10.55-24.71-23.88-27.64-26.25-27.96c-0.28-0.31-0.6-0.58-0.99-0.8
			c0.88-0.43,1.68-1.05,2.27-1.9c11.98-7.31,20.27-16.22,18.88-27.67c-2.22-18.21-22.74-19.76-22.95-19.77
			c-0.46-0.03-0.87,0.32-0.9,0.79c-0.03,0.47,0.32,0.87,0.79,0.9c0.19,0.01,19.33,1.46,21.37,18.28
			c1.23,10.08-5.82,18.17-16.33,24.94c0.13-1.95-0.65-4.33-2.42-7.16c-0.12-0.14-12.07-14-35.19-10.67
			c-20.46,2.95-29.96,12.8-32.08,15.31c-3.51-1.64-20.17-7.34-42.31,19.37c-0.53,0.47-2.95,3.02-6.31,12.59
			c-1.53,0.29-6.16,1.24-11.88,3.26c-15.15-1.74-25.35-5.63-27.75-10.73c-0.91-1.94-0.61-3.99,0.9-6.09c0,0,0-0.01,0.01-0.02
			c11.23-6.32,25.46-12.17,43.72-17.69c0.45-0.14,0.7-0.61,0.57-1.06c-0.14-0.45-0.6-0.71-1.06-0.57
			c-18.38,5.56-32.76,11.54-44.14,18.03c-0.13,0.04-0.25,0.11-0.36,0.2c-26.57,15.26-36.47,33.35-41.66,55.5
			c-1.36,5.8-0.05,10.51,3.89,13.97c7.22,6.35,22.1,7.46,35.87,6.73c1.47,3.59,3.13,6.53,4.45,8.6c-2.49-0.51-6.67-0.85-10.96,1.07
			c-4.75,2.13-8.36,6.45-10.74,12.86c-0.34,0.92-0.62,1.82-0.85,2.71c-4.32,1.35-36.33,12.17-46.03,38.68
			c-2.52,6.89-0.96,13.69,4.53,19.66c7.27,7.91,21.44,14.04,37.14,17.26c1.45,1.55,3.19,2.87,5.28,3.8
			c-8.1,1.66-27.18,7.85-30.38,29.67c-1.15,7.88,0.34,14.65,4.44,20.13c6.29,8.41,16.8,11.31,20.7,12.13
			c-2.26,2.8-7.53,10.39-7.26,20.3c0.22,8.18,4.19,15.93,11.82,23.08c0.15,0.12,14.87,12.04,29.64,0.7c0.2,2.1,0.99,5.67,3.9,9.03
			c4.04,4.65,10.71,7.26,19.83,7.75c13.51,0.73,18.71-0.1,22.01-2.15l1.39,47.94c0.01,0.47,0.4,0.84,0.87,0.82c0.01,0,0.03,0,0.04,0
			c0.4-0.03,0.7-0.34,0.76-0.72c0.01-0.05,0.03-0.1,0.02-0.15l-1.43-49.13c0.75-0.66,1.46-1.4,2.23-2.22c0.95-1,2.01-2.12,3.42-3.35
			c2.35,2.6,11.83,11.68,29.73,11.69c0.22,0,0.44-0.02,0.66-0.03L50.2,486c0.01,0.18,0.1,0.33,0.2,0.46
			c0.17,0.21,0.42,0.34,0.71,0.32c0.45-0.04,0.78-0.42,0.77-0.87c0-0.02,0.01-0.03,0.01-0.05l-2.63-32.62
			c0.18-0.01,0.37-0.01,0.55-0.02C68.69,451.7,81.5,435.59,84,427.17c2.18-7.35,2.43-15.38,1.49-20.31
			c1.76,1.08,4.54,2.31,7.74,2.05c0.02,0,0.04,0,0.06-0.01c3.41-0.3,6.49-2.21,9.15-5.69c3.42-4.47,5.51-9.42,6.31-14.93
			c1.24,2.01,2.4,3.96,2.54,4.31c0.09,0.24,0.36,0.79,0.72,1.5c0.75,1.48,1.88,3.72,2.26,5.16c0.07,0.25,0.12,0.48,0.17,0.69
			c0.21,0.88,0.39,1.63,1.15,1.81c0.12,0.03,0.24,0.04,0.36,0.03c0.73-0.06,1.45-0.87,2.79-2.44c2.94-3.45,2.69-4.97,1.15-8.76
			c-0.56-1.38-1.37-2.15-2.06-2.6c1.04-0.43,2.28-0.65,3.39-0.85c2.06-0.37,4.19-0.75,4.11-2.65c-0.02-0.44-0.03-0.92-0.05-1.41
			c-0.05-1.79-0.09-3.64-0.48-4.69c-0.03-0.07-3.07-7.48-6.69-8.57c-0.96-0.28-1.89-0.12-2.69,0.48c-1.54,1.14-2.99,2.02-4.16,2.73
			c-1.5,0.91-2.42,1.49-2.85,2.14c-0.34-1.96-0.79-3.97-1.38-6.04c-0.04-0.17-0.49-2.15-1.79-4.32c5.95,1.13,14.66,0.73,20.2,0.28
			c2.91-0.23,4.95-0.48,5.24-0.52c27.03-8.23,35.81-21.98,36.17-22.56c0.15-0.24,0.17-0.55,0.05-0.81
			c-1.81-3.89-4.05-17.88-5.41-27.26c3.38-1.81,6.61-3.61,9.7-5.4c1.35,7.34,4.8,22.03,11.85,30.68c0.12,0.14,0.28,0.25,0.46,0.29
			c0.16,0.04,16.4,4.08,32.05,23.63c0.3,0.39,29.78,38.99,34.25,47.77c0.09,0.17,0.23,0.29,0.39,0.37c0.13,0.06,0.28,0.1,0.43,0.09
			c0.11-0.01,0.21-0.04,0.32-0.09c0.37-0.19,0.53-0.62,0.41-1.01c-0.01-0.04-0.02-0.09-0.04-0.13
			c-4.54-8.91-33.19-46.43-34.42-48.04c-15.09-18.86-30.35-23.54-32.7-24.17c-6.8-8.53-10.16-23.41-11.42-30.31
			c2.02-1.18,3.99-2.36,5.88-3.53c18.69-1.93,46.83-4.21,60.16-2.08c0.11,0.03,10.94,3.17,30.94,36.69
			c0.12,0.2,11.93,20.36,22.65,31.75c0.18,0.2,0.44,0.28,0.69,0.26c0.05,0,0.1-0.02,0.15-0.04c0.13-0.04,0.26-0.09,0.36-0.19
			C293.94,370.16,293.95,369.62,293.63,369.28z M93.09,407.22c-4.64,0.37-8.43-3.05-8.47-3.08c-0.29-0.27-0.72-0.3-1.05-0.08
			c-0.33,0.22-0.46,0.63-0.32,1c1.48,3.96,1.57,13.35-0.88,21.62c-2.5,8.43-15.87,24.96-35.47,24.95
			c-19.57-0.01-28.87-11.59-28.96-11.71c-0.14-0.18-0.35-0.3-0.58-0.32c-0.05-0.01-0.11-0.01-0.16,0c-0.17,0.01-0.34,0.08-0.47,0.19
			c-1.83,1.5-3.1,2.84-4.22,4.03c-0.85,0.9-1.6,1.69-2.44,2.37c-0.02,0.02-0.04,0.03-0.06,0.05c-3.08,2.47-7.4,3.46-22.08,2.67
			c-8.62-0.47-14.88-2.87-18.61-7.14c-3.92-4.5-3.56-9.57-3.55-9.62c0.03-0.34-0.15-0.67-0.46-0.83c-0.31-0.16-0.68-0.11-0.94,0.11
			c-14.12,12.25-28.22,0.88-28.77,0.42c-7.24-6.78-11.02-14.13-11.24-21.83c-0.33-11.62,7.71-20.17,7.79-20.25
			c0.22-0.23,0.29-0.56,0.19-0.86c-0.1-0.3-0.37-0.52-0.68-0.56c-0.14-0.02-13.84-2.07-21.08-11.75c-3.81-5.1-5.2-11.44-4.11-18.85
			c3.84-26.24,31.95-28.75,32.44-28.79c0.01,0,0.01,0,0.01,0c0.42-0.03,0.75-0.37,0.78-0.79c0.03-0.42-0.26-0.8-0.68-0.89
			c-2.29-0.46-4.22-1.39-5.85-2.62c9.69,1.72,19.81,2.34,29.13,1.59c4.78-0.38,9.34-1.13,13.54-2.26
			c2.72-0.15,60.12-3.64,119.57-24.67c1.96,5.92,2.12,10.76,0.43,14.39c-1.66,3.57-4.6,4.64-4.62,4.65
			c-0.35,0.12-0.58,0.45-0.57,0.82c0.01,0.37,0.25,0.69,0.6,0.8c0.41,0.13,0.83,0.24,1.25,0.36c4.53,1.28,9.21,2.63,11.28,17.01
			c-35.4,12.56-79.89,23.79-135.43,31.01c-0.46,0.06-0.79,0.49-0.73,0.95c0.06,0.45,0.46,0.77,0.91,0.74c0.01,0,0.03,0,0.04,0
			c55.49-7.21,99.99-18.43,135.44-30.98c0.01,0.07,0.02,0.14,0.03,0.21c2.03,17.14-6.65,19.86-7.01,19.96
			c-0.38,0.11-0.64,0.47-0.62,0.86c0.02,0.4,0.32,0.73,0.71,0.79c6.55,1.09,8.25,8.54,8.28,8.67c3.75,13.29,2.35,23.98-4.29,32.65
			c-2.36,3.08-5.03,4.78-7.94,5.03C93.14,407.22,93.12,407.22,93.09,407.22z M-75.76,301.88c3.08-24.47,21.93-22.79,22.74-22.71
			c0.37,0.04,0.74-0.18,0.88-0.54c0.14-0.36,0.02-0.76-0.29-0.99c-0.18-0.13-17.64-13.15-10.89-31.35
			c2.21-5.95,5.51-9.95,9.82-11.89c5.96-2.68,11.9-0.43,11.96-0.41c0.35,0.14,0.75,0.02,0.98-0.27c0.23-0.3,0.24-0.71,0.02-1.01
			c-1.27-1.79-3.43-5.16-5.33-9.64c0.87-0.06,1.73-0.12,2.59-0.19c12.21-0.98,22.75-3.18,25.04-4.04c1.95-0.73,10.3-3.22,21.85-6.67
			c15.8-4.71,38.31-11.42,60.64-18.46c-0.49,5.28-7.47,9.66-7.54,9.71c-0.29,0.18-0.44,0.51-0.39,0.84c0.05,0.33,0.29,0.61,0.62,0.7
			c2.94,0.8,4.97,2.39,6.04,4.74c2.23,4.92-0.18,11.95-1.3,14.7c-3.22-2.78-9.77-2.59-14.35-0.45c-4.76,2.23-6.88,6.15-5.67,10.5
			c0.76,2.75,2.34,4.82,4.67,6.14c4.47,2.52,10.45,1.58,12.7,1.09l0.53,2.77c0.05,0.24,0.2,0.45,0.41,0.58
			c0.21,0.12,0.47,0.15,0.7,0.07c4.81-1.68,8.16,0.45,10.06,2.39c-51.2,9.43-104.05,11.09-111.09,9.85
			c-0.48-0.09-0.9,0.23-0.98,0.69c-0.08,0.46,0.23,0.9,0.69,0.98c4.56,0.8,22.57,0.58,46.17-1.32c15.99-1.29,34.55-3.35,53.24-6.39
			c4.31-0.7,8.74-1.48,13.23-2.32c0.38,0.53,0.59,0.91,0.62,0.95c2.94,9.68-4.49,14.86-4.81,15.07c-0.38,0.26-0.49,0.78-0.24,1.17
			s0.76,0.51,1.16,0.26c1.1-0.68,2.18-1.16,3.22-1.46c1.51-0.43,2.95-0.45,4.3-0.06c0.04,0.01,0.09,0.02,0.13,0.03
			c4.07,1.26,6.14,5.87,6.18,5.95c4.44,8.94-0.56,11.72-0.77,11.83c-0.34,0.17-0.52,0.55-0.45,0.92c0.07,0.37,0.39,0.65,0.77,0.68
			c8.68,0.7,12.66,13.12,12.71,13.29c0.01,0.03,0.02,0.06,0.03,0.09c-60.24,21.32-118.41,24.54-119.2,24.58
			c-0.06,0-0.12,0.01-0.18,0.03c-12.91,3.51-29.42,3.25-44.55,0.24C-75.72,315.09-75.76,301.98-75.76,301.88z M-45.57,188.35
			c5.61-11.57,18.52-18.19,28.28-21.7c1.94,0.21,3.94,0.4,6.03,0.54c5.37,0.37,11.16,0.26,17.17-0.23
			c28.61-2.3,62.27-13,80.09-20.05c7.1-2.81,14.21-5.87,20.62-9.29c1.19,0.09,2.32,0.43,2.83,1.32c1.07,1.84-0.32,5.72-3.81,10.64
			c-5.98,8.45-27.3,11.06-27.51,11.09c-0.38,0.04-0.68,0.33-0.74,0.7c-0.06,0.37,0.13,0.74,0.47,0.9c3.47,1.67,5.17,3.5,5.06,5.45
			c-0.38,6.25-18,13.52-24.76,15.79c-0.31,0.11-0.54,0.39-0.57,0.72c-0.03,0.33,0.13,0.65,0.41,0.82c3.61,2.11,5.68,4.43,6.17,6.9
			c-22.45,7.09-45.15,13.85-61.05,18.59c-12.02,3.58-19.96,5.95-21.97,6.7c-3.22,1.21-14.92,3.45-27.69,4.18
			C-49.78,212.92-51.71,201-45.57,188.35z M-4.33,162.66c3.51-10.15,5.99-12.34,6-12.35c0.05-0.04,0.09-0.08,0.13-0.13
			c23.48-28.36,40.67-18.8,40.84-18.71c0.38,0.22,0.86,0.12,1.11-0.23c0.09-0.12,9.16-11.99,31.42-15.2
			c22.14-3.2,33.54,9.95,33.58,9.98c2.02,3.25,2.61,5.82,1.72,7.46c-1.29,0.78-2.62,1.54-3.99,2.28c-0.25,0.04-0.49,0.08-0.7,0.1
			c-0.4,0.01-0.83,0.03-1.27,0.07c-0.45,0.04-0.78,0.43-0.77,0.88c0,0.12,0.04,0.24,0.09,0.34c-5.81,2.97-12.14,5.66-18.45,8.16
			c-21.44,8.48-65.9,22.27-96.52,20.16c-0.74-0.05-1.45-0.11-2.17-0.17c4.83-1.48,8.22-2.08,8.32-2.1
			C-4.68,163.17-4.43,162.95-4.33,162.66z M155.41,217.91c-1.96,1.46-4.07,2.86-6.32,4.22c-2.44,0.71-5.5,1.18-9.16,0.93
			c-0.35-0.02-0.68,0.17-0.83,0.49c-0.15,0.32-0.08,0.7,0.17,0.95c0.07,0.08,0.85,0.81,2.66,1.59
			c-18.55,9.39-43.64,16.18-69.3,21.01c-1.98-2.32-5.86-5.47-11.59-3.92l-0.52-2.71c-0.05-0.23-0.19-0.44-0.39-0.56
			c-0.2-0.13-0.45-0.16-0.68-0.1c-0.07,0.02-7.41,2.04-12.3-0.72c-1.93-1.09-3.23-2.81-3.87-5.11c-1.39-5.02,2.86-7.62,4.76-8.5
			c4.87-2.28,11.28-1.82,13.19,0.94c0.17,0.25,0.46,0.39,0.76,0.36c0,0,0,0,0,0c0.3-0.02,0.56-0.2,0.7-0.47
			c0.2-0.42,4.98-10.38,1.83-17.31c-1.07-2.35-2.91-4.07-5.49-5.12c2.39-1.8,6.94-5.85,6.96-10.72
			c22.34-7.07,44.32-14.42,58.99-20.37c4.02-1.63,7.6-3.31,10.84-5.01c9.21,22.68,19.25,27.53,23.12,28.56
			C156.55,199.26,151.31,207.34,155.41,217.91z M158.39,227.84c0.74,4.4,3.75,27.51-11.85,42.71
			c-15.82,15.41-54.23,10.54-60.86,9.56c0.69-2.22,0.66-5.44-1.58-9.95c-0.1-0.22-2.39-5.36-7.2-6.85
			c-1.59-0.49-3.25-0.53-4.97-0.12c2.12-2.85,4.2-7.54,2.25-13.92c-0.01-0.01-0.15-0.27-0.4-0.65c24.53-4.71,50.8-11.67,70.23-21.78
			c2.96,0.88,7.52,1.55,14.32,1C158.35,227.84,158.37,227.84,158.39,227.84z M158.68,305.93c0.15,1.15,0.49,3.76,0.96,7.09
			c-15.03,7.99-32.97,16.09-54.24,23.73c-2.16-14.39-7.12-16.52-11.72-17.86c1.16-0.83,2.62-2.22,3.66-4.44
			c1.91-4.05,1.77-9.35-0.35-15.72c12.24-4.39,24.55-9.54,36.46-15.55C135.6,289.93,141.87,302.98,158.68,305.93z M99.59,359.8
			c2.95-1.96,7.72-7.28,6.12-20.75c-0.02-0.21-0.06-0.38-0.08-0.59c21.25-7.61,39.2-15.69,54.26-23.66
			c1.32,9.13,3.44,22.16,5.27,26.67c-1.58,2.21-10.99,14.17-34.83,21.44c-0.18,0.02-18.45,2.2-26.65-0.22
			C102.64,361.53,101.3,360.47,99.59,359.8z M96.44,297.12c-0.01-0.02-0.01-0.04-0.02-0.07c-0.16-0.52-3.82-11.98-12.32-14.13
			c0.29-0.33,0.59-0.73,0.87-1.2c3.03,0.48,16.81,2.47,31.4,1.3c5.49-0.44,11.08-1.34,16.25-2.93c0.08,0.38,0.19,0.86,0.34,1.42
			C121.04,287.56,108.71,292.72,96.44,297.12z M124.35,171.22c-14.56,5.91-36.36,13.2-58.56,20.23c-0.56-2.5-2.36-4.81-5.41-6.9
			c5.95-2.15,23.78-9.19,24.24-16.72c0.13-2.17-1.13-4.13-3.77-5.84c6.01-0.98,21-4.1,26.19-11.43c3.39-4.79,4.85-8.6,4.34-11.18
			c3.88,1.08,14.89,5.92,23.78,26.82C131.94,167.91,128.37,169.59,124.35,171.22z M143.25,224.8c0.47-0.02,0.91-0.06,1.36-0.1
			c-0.21,0.11-0.43,0.23-0.65,0.34C143.72,224.96,143.47,224.88,143.25,224.8z M-82.41,215.17c-3.49-3.06-4.58-7.09-3.36-12.31
			c5.07-21.6,14.2-38.69,38.57-53.23c-0.6,1.78-0.53,3.56,0.27,5.26c2.5,5.32,11.76,9.3,25.9,11.29
			c-9.5,3.83-20.74,10.45-26.06,21.43c-6.28,12.94-4.46,25.12-1.2,33.92C-61.67,222.13-75.82,220.97-82.41,215.17z M-106,305.61
			c-5.1-5.56-6.51-11.59-4.19-17.93c8.93-24.39,37.47-35.16,44.01-37.34c-2.39,13.38,6.87,23.46,10.93,27.15
			c-5.72,0.35-19.57,3.39-22.2,24.29c0,0.69,0.03,12.28,5.66,20.2C-86.31,318.74-99.24,312.98-106,305.61z M112.14,374.48
			c1.2-0.73,2.69-1.63,4.29-2.82c0.38-0.28,0.75-0.35,1.19-0.21c2.35,0.7,5.1,6.19,5.59,7.52c0.29,0.79,0.34,2.65,0.37,4.15
			c0.01,0.51,0.03,1,0.04,1.44c0.02,0.42-1.56,0.7-2.71,0.91c-1.26,0.23-2.7,0.48-3.96,1.05c-1.17,0.52-1.7,0.76-1.7,1.46
			c0,0.64,0.54,0.88,0.9,1.04c0.58,0.26,1.55,0.7,2.16,2.22c1.36,3.35,1.56,4.16-0.87,7.02c-0.28,0.32-0.87,1.02-1.3,1.47
			c-0.01-0.06-0.03-0.11-0.04-0.17c-0.05-0.22-0.11-0.46-0.18-0.73c-0.43-1.62-1.61-3.95-2.39-5.5c-0.32-0.63-0.56-1.11-0.64-1.31
			c-0.26-0.73-2.47-4.29-3.3-5.62c-0.24-2.22-0.45-4.68-0.42-5.07c0.01-0.14,0.03-0.4,0.05-0.73c0.07-0.96,0.27-3.9,0.58-4.5
			C109.97,375.8,111.12,375.1,112.14,374.48z M161.24,312.15c-0.38-2.65-0.66-4.78-0.82-5.98c0.23-0.03,4.14-0.54,10.17-1.22
			c0.07,0.45,0.16,1.06,0.28,1.8C167.81,308.54,164.6,310.34,161.24,312.15z M172.45,305.83c-0.07-0.42-0.13-0.78-0.17-1.07
			c0.77-0.09,1.58-0.17,2.4-0.26C173.96,304.94,173.21,305.39,172.45,305.83z"/>
		<path class="st16" d="M89.76,457.44c0.35-2.36-1.17-4.25-3.87-4.8c-2.68-0.55-6,0.44-6.67,2.99c-0.67,2.56-0.22,5.17,0.11,7.08
			c0.16,0.94,0.32,1.83,0.25,2.3c-0.06,0.42-0.6,0.81-1.17,1.22c-0.31,0.22-0.65,0.47-0.96,0.76c-0.04-0.1-0.07-0.21-0.12-0.3
			l-0.24-0.53c-1.57-3.48-1.86-4.11-4.27-4.35c-2.53-0.26-4.09,3.33-5.46,6.49l-0.19,0.43c-1.3,3-0.74,10.2-0.71,10.5
			c0.01,0.09,0.03,0.17,0.06,0.25c1.08,2.68,2.63,4.25,4.61,4.65c0.49,0.1,0.98,0.12,1.45,0.08c2.98-0.24,5.55-2.78,5.67-2.91
			c0.14-0.14,0.23-0.34,0.25-0.54c0.01-0.08,0.03-0.49,0.06-1.12c0.28,0.48,0.61,0.95,0.98,1.4c0.14,0.17,0.34,0.28,0.56,0.3
			c0.16,0.02,1.61,0.17,3.43,0.03c3.06-0.25,7.14-1.35,7.72-5.41c0.44-3.11-0.18-6.74-0.77-10.26
			C89.94,462.56,89.44,459.62,89.76,457.44z M89.57,475.7c-0.61,4.28-7.33,4.08-8.93,3.96c-1.13-1.49-1.71-3.23-2.03-4.89
			c-0.04-1.51-0.15-3.11-0.37-4.59c0-0.03,0-0.07,0-0.1c0-0.45-0.01-0.83-0.03-1.12c-0.03-0.45,0.36-0.78,1.18-1.36
			c0.8-0.57,1.71-1.22,1.87-2.36c0.1-0.73-0.06-1.66-0.26-2.82c-0.32-1.85-0.72-4.16-0.14-6.36c0.4-1.52,2.79-2.14,4.69-1.75
			c0.86,0.18,2.84,0.81,2.53,2.89c-0.36,2.44,0.17,5.52,0.72,8.77C89.38,469.36,89.97,472.86,89.57,475.7z M71.46,482.44
			c-1.36-0.28-2.47-1.45-3.32-3.5c-0.16-2.06-0.33-7.44,0.59-9.56l0.19-0.43c0.91-2.09,2.39-5.59,3.73-5.47
			c1.44,0.14,1.44,0.14,2.89,3.36l0.24,0.53c0.34,0.76,0.59,1.77,0.76,2.89c0.01,1.23,0.04,2.9,0.37,4.71
			c0.06,2.38-0.04,4.52-0.08,5.31C76.09,480.95,73.68,482.9,71.46,482.44z"/>
		<path class="st16" d="M101.2,434.04c-0.94,0-1.92,0-2.92-0.04c-1.55-0.06-2.85,0.46-3.89,1.54c-3.2,3.34-2.64,10.83-2.61,11.15
			c0.03,0.37,0.22,0.71,0.54,0.94c1.51,1.07,7.46-0.3,9.94-0.94c0.26-0.07,0.48-0.25,0.58-0.5c0.05-0.12,0.09-0.19,0.1-0.24
			c0.81,0.41,2.63,3.7,4,7.25c0.13,0.34,0.47,0.54,0.83,0.53c0.01,0,0.02,0,0.03,0c0.35-0.03,0.65-0.28,0.75-0.62
			c0.04-0.15,0.32-0.66,0.57-1.1c1.33-2.4,4.08-7.38,2.75-12.39C110.4,434.04,105.93,434.04,101.2,434.04z M102.76,444.21
			c-0.41,0.03-0.91,0.24-1.3,0.92c-3.25,0.81-6.99,1.42-8.01,1.16c-0.13-2.14,0.03-7.36,2.16-9.58c0.7-0.73,1.55-1.07,2.6-1.02
			c1.02,0.04,2.02,0.04,2.99,0.04c5.19,0,7.95,0.2,9.04,4.3c1.1,4.14-1.15,8.5-2.42,10.8c-1.28-3.01-3.18-6.62-4.92-6.63
			C102.85,444.21,102.8,444.21,102.76,444.21z"/>
		<path class="st16" d="M152.78,444.58c0,0-0.01,0-0.01,0c-0.66-0.19-2.27-2.93-3.34-4.75c-2.53-4.3-5.15-8.76-7.9-7.24l-0.58,0.32
			c-3.65,1.99-8.64,4.72-8.26,9.39c0.02,0.29,0.19,0.54,0.45,0.68c0.25,0.14,0.56,0.13,0.81-0.01c0.02-0.01,1.74-0.96,3.24-0.24
			c1.22,0.58,2.05,2.12,2.47,4.56c0.57,3.34,0.43,5.33,0.32,6.92c-0.16,2.27-0.27,3.77,1.81,6.61l0.64,0.88
			c1.08,1.5,1.53,2.12,2.29,2.23c0.12,0.02,0.23,0.02,0.33,0.01c0.51-0.04,0.95-0.37,1.52-0.79c0.61-0.45,1.53-1.14,3.05-1.89
			c4.96-2.46,10.11-5.5,8.62-10.52C157.18,447.21,156.04,444.32,152.78,444.58z M148.86,459.73c-1.66,0.83-2.65,1.56-3.31,2.05
			c-0.21,0.16-0.44,0.33-0.59,0.42c-0.23-0.22-0.69-0.85-1.16-1.51l-0.65-0.89c-1.71-2.33-1.63-3.38-1.48-5.48
			c0.11-1.6,0.27-3.79-0.34-7.33c-0.52-3.03-1.67-4.98-3.43-5.81c-0.82-0.39-1.65-0.47-2.39-0.41c-0.39,0.03-0.74,0.1-1.06,0.19
			c0.64-2.92,4.44-5,7.3-6.56l0.59-0.32c1.31-0.71,4,3.88,5.61,6.62c2.2,3.74,3.42,5.69,4.88,5.58c1.54-0.12,2.45,0.56,3.76,4.95
			C157.62,454.61,154.39,456.99,148.86,459.73z"/>
		<path class="st16" d="M172.6,418.44c-0.81-0.81-1.74-1.21-2.77-1.2c-1.97,0.03-3.46,1.55-3.52,1.62c-0.33,0.34-0.32,0.87,0.01,1.2
			c0.09,0.09,0.19,0.15,0.3,0.19c0.3,0.11,0.65,0.05,0.9-0.2c0.01-0.01,1.11-1.1,2.32-1.11c0.56,0,1.07,0.23,1.55,0.71
			c1.34,1.33,2.35,9.75,2.82,16.34c-0.91-0.86-2.15-1.95-3.81-3.36c-4.6-3.91-4.86-5.73-4.76-6.34c0.08-0.47,0.47-0.64,0.53-0.66
			c0.44-0.15,0.67-0.63,0.52-1.07c-0.1-0.28-0.33-0.47-0.6-0.54c-0.15-0.04-0.32-0.05-0.48,0c-0.5,0.17-1.41,0.76-1.63,1.92
			c-0.38,1.99,1.36,4.6,5.32,7.97c3.04,2.58,4.43,3.94,5.07,4.63c0.01,0.18,0.02,0.36,0.03,0.54c0.02,0.32,0.21,0.61,0.51,0.74
			c0.29,0.13,0.54,0.17,0.76,0.15c0.36-0.03,0.61-0.22,0.76-0.45c0.23-0.36,0.41-0.66-0.39-1.65
			C175.79,433.31,174.86,420.68,172.6,418.44z"/>
		<path class="st16" d="M162.69,392.37c0.97-0.25,1.98-0.51,2.17-1.46c0.19-0.92-0.51-1.83-2.64-3.48
			c-1.64-1.26-2.64-1.92-3.31-2.35c-1.14-0.74-1.23-0.81-2.21-2.43c-1.76-2.91-4.29-4.32-7.3-4.08l-0.54,0.04
			c-2.31,0.18-4.3,0.32-4.96,2.99c-0.14,0.57-0.54,1.1-0.93,1.62c-0.55,0.74-1.18,1.57-0.98,2.58c0.15,0.76,0.73,1.42,1.82,2.07
			c2.07,1.23,3.55,2.52,4.29,3.23c-1.22,1.26-3.72,4.13-3.69,6.55l0.01,0.73c0.02,2.66,0.05,5.41,1.73,7.2
			c0.81,0.86,1.59,1.09,2.29,1.03c0.69-0.06,1.32-0.39,1.85-0.67c0.37-0.19,0.72-0.38,1.08-0.49c1.16-0.36,1.8-1.72,2.62-3.44
			c0.71-1.5,1.52-3.2,2.78-4.49c1.08-1.11,1.75-1.99,2.3-2.7c0.82-1.07,1.23-1.61,2.32-2.07
			C161.81,392.6,162.27,392.48,162.69,392.37z M157.72,393.81c-0.51,0.67-1.15,1.5-2.16,2.54c-1.45,1.49-2.36,3.41-3.09,4.94
			c-0.51,1.07-1.15,2.41-1.59,2.54c-0.51,0.16-0.97,0.4-1.37,0.61c-1.08,0.57-1.42,0.7-2.12-0.03c-1.23-1.3-1.25-3.72-1.27-6.05
			l-0.01-0.74c-0.03-1.93,2.71-4.91,3.77-5.9c0.34-0.31,0.36-0.84,0.06-1.18c-0.08-0.09-1.94-2.17-5.27-4.14
			c-0.88-0.52-1.01-0.85-1.02-0.94c-0.05-0.26,0.32-0.75,0.67-1.23c0.47-0.62,1-1.33,1.22-2.23c0.33-1.33,1.01-1.51,3.05-1.67
			c0.12-0.01,0.25-0.02,0.39-0.03l0.55-0.04c2.36-0.19,4.28,0.91,5.71,3.27c1.15,1.9,1.43,2.12,2.74,2.97
			c0.64,0.42,1.61,1.06,3.2,2.28c1.22,0.94,1.7,1.46,1.9,1.71c-0.23,0.08-0.56,0.17-0.81,0.24c-0.48,0.12-1.02,0.26-1.53,0.48
			C159.23,391.85,158.6,392.67,157.72,393.81z"/>
		<path class="st16" d="M203.6,359.43c-1.52-7.27-9.2-7.61-12.48-7.75c-0.3-0.01-0.61-0.03-0.85-0.04
			c-0.62-2.07-1.91-5.27-4.17-6.23c-1.03-0.44-2.17-0.36-3.29,0.24c-4.14,2.22-2.19,8.55-1.45,10.55l-5.95,4.92
			c-0.28,0.23-0.38,0.61-0.25,0.95c0.13,0.34,0.45,0.56,0.81,0.55l11.05-0.22l7.94,6.2c0.14,0.11,0.32,0.18,0.51,0.18
			c0.05,0,0.34,0,0.8-0.03c1.41-0.11,4.35-0.61,6.14-2.77C203.77,364.33,204.17,362.14,203.6,359.43z M195.79,367.06l-7.94-6.2
			c-0.15-0.12-0.34-0.18-0.54-0.18l-8.91,0.18l4.54-3.76c0.29-0.24,0.39-0.64,0.24-0.99c-0.03-0.07-2.96-7.15,0.45-8.98
			c0.67-0.35,1.26-0.41,1.82-0.17c1.25,0.54,2.49,2.6,3.33,5.58c0.21,0.74,0.9,0.77,2.28,0.83c3.13,0.14,9.64,0.43,10.89,6.41
			c0.45,2.17,0.18,3.88-0.82,5.1C199.57,366.75,196.68,367.02,195.79,367.06z"/>
		<path class="st16" d="M217.58,381.51c-1.41-1.88-4.07-3.04-6.14-2.71c-1.41,0.22-2.44,1.1-2.91,2.46
			c-0.3,0.88-0.91,1.63-1.56,2.43c-1.37,1.68-3.04,3.74-2.51,7.85c-0.61-0.1-1.34-0.1-2.11,0.18c-1.5,0.54-2.66,1.93-3.45,4.13
			c-0.09,0.25-0.06,0.53,0.09,0.75c0.15,0.22,0.39,0.36,0.66,0.38c0.14,0.01,13.61,0.88,16.6,11c0.07,0.24,0.24,0.44,0.47,0.54
			c0.05,0.02,0.87,0.37,1.83,0.3c0.57-0.05,1.2-0.24,1.75-0.74c1.98-1.79,1.76-6.33-0.68-13.89
			C219.61,392.67,219.47,384.02,217.58,381.51z M217.74,407.07c-3-9.15-13.29-11.22-16.82-11.67c0.54-1.1,1.2-1.79,1.98-2.08
			c1.13-0.42,2.2,0.19,2.21,0.2c0.29,0.17,0.65,0.15,0.93-0.04c0.28-0.2,0.41-0.54,0.33-0.88c-0.97-4.29,0.43-6.01,1.92-7.84
			c0.71-0.88,1.45-1.79,1.85-2.96c0.26-0.77,0.78-1.21,1.57-1.33c1.47-0.21,3.5,0.69,4.52,2.05c1.37,1.83,1.7,9.14,1.71,11.8
			c0,0.09,0.01,0.18,0.04,0.26c3.01,9.27,1.84,11.63,1.2,12.22C218.73,407.21,218.12,407.16,217.74,407.07z"/>
		<path class="st16" d="M212.49,422.36c-2.49-1.07-4.98-0.82-6.83,0.67c-2.62,2.12-4.2,5.7-3.93,8.92c0.16,1.9,1.03,4.55,4.28,6.37
			c5.79,3.24,9.12,9.51,9.16,9.57c0.16,0.31,0.49,0.48,0.82,0.45c0.09-0.01,0.19-0.03,0.28-0.07c0.41-0.18,0.61-0.65,0.45-1.07
			c-1.13-3.08-0.46-8.65,0.08-13.12c0.3-2.53,0.57-4.72,0.46-6.07C217.07,425.8,215.11,423.48,212.49,422.36z M215.1,433.87
			c-0.37,3.1-0.81,6.71-0.68,9.8c-1.66-2.19-4.22-4.95-7.59-6.84c-2.05-1.15-3.23-2.89-3.42-5.03c-0.22-2.63,1.14-5.7,3.31-7.45
			c0.68-0.55,1.49-0.86,2.36-0.93c0.86-0.07,1.79,0.09,2.73,0.5c2.04,0.87,3.61,2.65,3.73,4.22
			C215.65,429.32,215.4,431.43,215.1,433.87z"/>
		<path class="st16" d="M224.49,305.11c-0.46,0.06-0.79,0.49-0.72,0.96c0.06,0.46,0.5,0.79,0.96,0.72
			c0.08-0.01,7.26-0.96,12.14,2.89c2.56,2.02,4.05,5.04,4.42,8.98c0.04,0.46,0.45,0.8,0.91,0.77c0,0,0.01,0,0.01,0
			c0.47-0.04,0.81-0.46,0.77-0.93c-0.42-4.41-2.12-7.83-5.05-10.15C232.48,304.05,224.81,305.07,224.49,305.11z"/>
		<path class="st16" d="M32.69,397.93c-0.42-0.19-0.93,0-1.12,0.44c-0.19,0.43-19.34,42.98-54.93,41.96
			c-0.45-0.02-0.86,0.35-0.87,0.82c-0.01,0.47,0.36,0.86,0.82,0.87c1.68,0.05,3.33,0,4.94-0.12c33.56-2.7,51.41-42.43,51.59-42.85
			C33.31,398.62,33.12,398.12,32.69,397.93z"/>
		<path class="st16" d="M2.83,391.82c0.3-0.36,0.25-0.9-0.12-1.2c-0.36-0.3-0.9-0.25-1.2,0.12c-0.29,0.35-29.65,35.17-70.16,13.2
			c-0.41-0.22-0.93-0.07-1.15,0.34c-0.22,0.41-0.07,0.93,0.34,1.15c11.67,6.33,22.43,8.08,31.9,7.32
			C-13.14,410.79,2.61,392.08,2.83,391.82z"/>
		<path class="st16" d="M-23.39,101.74c0.18-0.28,18.04-27.78,56.33-31.22c11.84-1,19.93,1.21,24.16,6.75
			c6.16,8.06,2.11,20.72,1.57,22.3c-1.41,1.4-16.05,14.95-52.43,14.49c-4.23-0.2-10.37-1.41-10.78-3.46
			c-0.17-0.84,0.51-3.31,10.41-8.02c17.49-8.32,21.64-9.73,22.6-9.96c0.33,0.14,0.72,0.06,0.97-0.22c0.27-0.3,0.3-0.83,0.06-1.15
			c-0.52-0.71-0.98-1.31-24.35,9.8c-8.31,3.95-11.91,7.09-11.35,9.89c0.82,4.07,10.44,4.73,12.39,4.82
			c4.53,0.06,8.72-0.09,12.59-0.41c29.56-2.38,40.74-14.18,41.25-14.75c0.08-0.08,0.13-0.17,0.17-0.28
			c0.22-0.6,5.37-14.76-1.75-24.08c-4.61-6.04-13.21-8.5-25.67-7.42c-39.11,3.52-57.43,31.71-57.61,32
			c-0.25,0.4-0.13,0.92,0.26,1.17C-24.17,102.26-23.64,102.14-23.39,101.74z"/>
		<path class="st16" d="M37.88,94.33c0.18,0.16,0.41,0.23,0.63,0.21c0.21-0.02,0.41-0.11,0.56-0.28l6.7-7.48
			c0.23-0.26,0.28-0.63,0.13-0.94c-0.15-0.31-0.48-0.5-0.83-0.47l-7.26,0.58c-0.47,0.04-0.82,0.45-0.78,0.91
			c0.04,0.47,0.45,0.82,0.91,0.78l5.14-0.41l-5.28,5.89C37.5,93.48,37.53,94.01,37.88,94.33z"/>
		<path class="st16" d="M171.23,263.39c-0.37,0.29-0.43,0.82-0.15,1.19c0.18,0.23,0.46,0.35,0.74,0.32
			c0.16-0.01,0.32-0.07,0.45-0.18c7.46-5.82,5.12-12.05,5.01-12.32c-0.06-0.15-0.15-0.27-0.28-0.37
			c-5.72-4.31-12.23,0.87-12.29,0.92c-0.36,0.29-0.42,0.83-0.12,1.19c0.29,0.36,0.83,0.42,1.19,0.13c0.22-0.18,5.4-4.27,9.99-1.04
			C176.09,254.31,176.98,258.9,171.23,263.39z"/>
		<path class="st16" d="M70.45,360.1c-0.46,0.06-0.79,0.49-0.72,0.96c0.06,0.42,5.37,42.62-39.34,67.48
			c-0.41,0.23-0.56,0.74-0.33,1.15c0.17,0.3,0.49,0.46,0.81,0.43c0.12-0.01,0.23-0.04,0.34-0.1c45.76-25.44,40.26-68.76,40.2-69.2
			C71.34,360.36,70.86,360.04,70.45,360.1z"/>
		<path class="st16" d="M58.61,233.99c-2.3,0.42-3.93,0.24-4.73-0.52c-0.68-0.66-0.56-1.6-0.55-1.65c0.07-0.46-0.24-0.89-0.7-0.97
			c-0.46-0.08-0.9,0.24-0.98,0.7c-0.01,0.07-0.29,1.83,1.03,3.12c0.99,0.97,2.56,1.38,4.68,1.21c0.49-0.04,1.01-0.11,1.56-0.21
			c0.46-0.09,0.77-0.53,0.68-0.99C59.51,234.21,59.04,233.91,58.61,233.99z"/>
	</g>
	<g class="st40">
		<path class="st12" d="M368.77,570.98l2.44-20.42l2.58-18.17l2.97-3.88l8.48-4.62c0,0,11.99-3.3,12.19-3.41
			c0.2-0.11,11.76-3.05,11.76-3.05l8.76-0.54l11.92-1.41l9.68-1.68l14.68-3.5l10.06-3.12l11.04-4.95L516,483.99l29.05-17.97
			L562.6,457l14.14-3.88l6.77,6.64l19.38,24.99C602.9,484.76,381.39,566.7,368.77,570.98z"/>
		<path class="st16" d="M367.47,572.57l2.64-22.14l2.62-18.48l3.49-4.41l8.6-4.68l0.12-0.03c4.59-1.27,11.62-3.21,12.09-3.38
			c0.01-0.02,0.16-0.1,11.87-3.08l8.96-0.57l11.86-1.4l9.62-1.68l14.61-3.49l9.99-3.1l51.6-23.14l28.92-17.9l17.73-9.11l14.86-4.07
			l7.22,7.09l20.4,26.28l-1.4,0.52c-2.22,0.82-221.67,82-234.16,86.23L367.47,572.57z M374.82,532.82l-2.54,17.89l-2.22,18.65
			c22.64-8.04,212.71-78.33,231.05-85.11l-18.47-23.8l-6.22-6.09l-13.43,3.68l-17.45,8.96l-28.97,17.93l-51.85,23.25l-10.18,3.17
			l-14.75,3.52l-9.75,1.7l-11.98,1.42l-8.82,0.54c-4.21,1.09-10.93,2.81-11.45,2.98c0.01,0.01-0.17,0.1-12.15,3.41l-8.17,4.45
			L374.82,532.82z"/>
		<g>
			<g>
				<polygon class="st10" points="449.67,80.3 467.09,103.49 420.29,133.01 403.49,112.58 391.36,119.97 385.46,118.51 
					382.2,114.89 379.63,109.22 380.15,105.42 383.81,102.43 390.17,98.7 373.11,82.28 389.09,71.02 377.45,60.81 376,55.29 
					378.37,51.66 382.99,49.13 387.57,48.08 391.71,48.99 395.07,51.78 401.94,62.22 422.37,48.82 437.96,66.71 428.56,72.16 
					425.83,78.3 428.78,84.4 432.09,86.75 436.15,87.36 442.18,84.78 				"/>
			</g>
		</g>
		<g>
			<g>
				<polygon class="st9" points="219.6,136.49 227.37,123.31 248.69,132.78 243.55,144.91 232.32,142.24 229.81,144.19 
					229.99,147.33 231.8,149.64 241.47,153.84 234.71,170.71 209.97,163.14 216.27,151 202.89,146.3 200.24,141.51 200.71,136.6 
					203.94,132.82 209.8,132.74 				"/>
			</g>
		</g>
		<g>
			<g>
				<polygon class="st7" points="212.77,260.71 207.7,244.07 273.82,220.42 279.96,238.49 294.98,233.98 299.87,236.02 300.7,239.5 
					301.92,242.76 301.49,245.7 298.73,248.52 285.38,254.22 293.35,277.32 273.62,283.34 276.57,292.52 276.79,297.54 
					272.93,302.81 266.9,304.65 260.65,303.44 256.54,300.29 253.45,290.17 228.59,298.55 220.1,275.1 227.26,273.09 231.36,270.93 
					234.01,267.54 233.49,259.49 230.93,255.02 226.87,254.42 				"/>
			</g>
		</g>
		<g>
			<path class="st26" d="M352.51,555.63l3.43-3.8l7.95-10.96l11.06-11c0,0,7.84-5.1,8.02-5.19c0.18-0.09,8.47-2.94,8.47-2.94
				l13.44-4.1l10.03-0.51l16.45-1.5l17.13-3.7l16.62-4.75l10.72-5.27l26.93-11.73l17.79-8.9l28.67-17.63l12.85-6.14l12.65-4.19
				l11.77-1.05l5.47,0l10.42,1.62l2.65-0.09l-4.92-5.01l-39.57-42.5l-14.57-18.58l-11.47-19.49l-12.69-19.87l-5.07-6.25l-3.78-3.87
				l5.37,1.18l5.83,1.08l5.13,0.18l-2.54-2.45l-15.04-14.34l-5.22-5.98l-6.8-11.65l-8.19-19.15l-3-9.89l-1.76-5.71l-6.9-0.83
				l-67.23-8.08l-1.29,4.14l-3.15,6.61l-7.66,6.98l-9.79,5.5l-10.67,3.65l-9.42,1.77l-11.78,0.13l-8.8-2.05l-5.91-2.58l-11.12,8.57
				l8.56,29.19l-27.44,8.27l3.05,9.98l-0.03,3.98l-3.13,3.77l-5.7,1.79l-4.17-0.02l-2.64-1.76l-1.14-4.1l-2.06-6.74l-13.44,3.51
				l-18.25,30.42l-2.94,10.85l0.44,9.39l5.1,8.58l6.26,7.24l4.93,4.09l11.78,5.8l6.64,1.84l8.89,2.33l7.41,3.38l11.2,4.45l7.66,3.01
				l3.22,13.76l4.61,21.57l4.89,25.29l3.9,20.44l0.58,4.74l-0.26,11.63l0.03,12.01l-0.03,7.89L352.51,555.63z"/>
		</g>
		<g>
			<g>
				<polygon class="st7" points="473.85,501.11 467.7,475.71 493.35,465.55 489.79,453.86 493.49,448.67 500.41,445.97 
					505.5,445.75 509.89,448.46 513.04,457.58 535.44,446.44 539.11,458.46 549.15,455.53 553.46,457.16 555.06,459.93 
					538.76,470.06 526.6,478.26 502.1,490.46 479.26,500.51 474.17,502.72 				"/>
			</g>
		</g>
		<g>
			<g>
				<polygon class="st20" points="441.53,330.72 466.7,320.58 474.67,337.07 490.9,333.56 494.75,336.81 496.12,341 496.62,346.29 
					495.05,349.44 485.19,353.83 481.33,355.37 490.27,376.52 420.67,401.49 399.12,347.93 421.43,339.37 415.36,323.07 
					415.3,318.66 420.04,313.95 425.94,312.15 430.62,311.78 437.51,319.26 				"/>
			</g>
		</g>
		<g>
			<g>
				<polygon class="st11" points="401.4,260.16 390.91,231.09 389.02,216.81 394.75,208.23 398.6,204.11 399.08,200.76 
					395.95,197.04 392.04,197.33 388.61,199.17 385.49,197.08 380.74,193.49 379.07,188.86 379.29,184.21 374.89,184.8 
					370.15,181.95 368.28,177.43 367.92,175.47 360.05,176.79 356.13,173.81 354.72,169.19 354.22,165.58 351.45,169.64 
					344.74,172.92 339.48,171.41 338.06,175.6 335.33,179.49 330.86,180.75 328.17,182.84 323.52,183.42 324.66,186.99 
					325.34,190.81 319.74,193.52 323.21,199.78 323.51,203.25 320.09,204.69 313.56,206.46 316.25,214.18 319.97,217.74 
					321.9,225.24 323.05,231.34 328.47,246.75 333.19,253.54 339.03,257.46 346.03,259.75 352.17,259.53 353.12,262.39 
					353.84,268.84 352.57,275.41 350.64,280.8 350.28,281.78 353.82,284.02 367.31,285.8 384.19,281.62 399.37,272.19 
					403.11,263.43 				"/>
			</g>
		</g>
		<g>
			<g>
				<polygon class="st11" points="531.74,341.47 538.52,341.55 548.19,336.45 554.9,327.98 557.25,318.53 557.29,310.84 
					556.6,301.63 555.18,291.4 552,276.85 549.43,268.43 543.06,254.3 535.69,239.54 529.06,227.04 522.32,215.1 515.94,205.04 
					508.88,197.6 501.97,190.83 487.08,177.87 479.56,172.18 476.53,169.19 461.06,151.71 455.2,145.96 446.3,139.33 446.59,144.07 
					450.19,151.72 455.08,160.28 458.56,163.84 461.24,166.93 457.44,168.62 450.32,171.03 446.12,175.26 445.35,179.27 
					448.02,183.07 454.97,184.09 462.06,183.77 450.5,187.2 447.26,192.82 450.37,198.02 454.89,200.15 466.5,197.71 453.58,202.34 
					451.73,205.39 454.19,209.94 460.58,213.34 466.73,214.78 471.38,216.13 477.31,234.04 480.21,245.12 483.21,258.72 
					486.17,269.67 488.49,277.2 492.39,288.6 497.45,302.17 501.63,309.58 507.39,319.04 513.94,326.63 521.06,333.67 				"/>
			</g>
		</g>
		<g>
			<g>
				<polygon class="st11" points="351.2,520.35 349.11,506.24 344.96,486.13 339.41,461.16 316.72,445.35 320.97,441 326.11,434.88 
					326.99,432.14 311.74,425.24 300.68,421.86 290.47,418.69 284.26,415.64 276.44,410.46 274.43,408.45 271.52,414.79 
					267.45,431.67 266.01,444.66 266.6,457.59 270.5,467.68 276.16,474.56 284.78,482.26 297.69,492.26 312.27,501.72 
					325.58,509.23 344.2,518.34 				"/>
			</g>
		</g>
		<g>
			<path class="st20" d="M313.49,206.21l-7.21-2.76l-6.15-3.44l-3.63-4.7l0.87-4.04l4.1-2.07l1.02-2.96l-1.71-1.76
				c0,0-3.48-3.38-3.69-3.72c-0.21-0.34-1.77-5.12-1.77-5.12l-1.01-5.23l0.79-4.82l2.16-3.68l3.54-2.13l-1.04-6.56l2.42-6.33
				l3.92-3.99l5.84-2.61l4.42-0.86l1.49-4.37l3.05-5.65l4.07-2.31l4.03-1.23l4.5,0.6l1.8,0.59l6.28-5.03l3.13-2.14l4.52-0.22
				l4.56,2.57l2.17,2.64l11.85-3.61l4.05-0.38l2.85,1.12l2.71,4.01l0.33,1.42l6.14-1.22l8.39,1.49l5.67,2.97l3.01,3.33l2.39,4.91
				l1.24,4.05l3.87-0.67l5.17,1.8l3.32,2.33l1.61,4.33l-0.51,4.14l-1.65,2.64l2.91-0.43l4.78,2.57l3.93,6.07l1.57,6.69l-1.41,5
				l-2.31,2.02l3.32,3.28l2.35,5.1l-0.7,3.22l-4.25,3.98l-2.6,1.22l2.51,3.53l1.41,3.33l-1.38,6.54l-6.71,3.96l-1.13,0.29l0.36,5.15
				l-1.51,4.64l-3.66,3.87l-6.84,1.31l-1.35,4.2l-3.16,3.26l-5.63,2.26l-2.99,0.91c0,0-1.25-5.16-1.3-5.33s-2.99-8.98-2.99-8.98
				l-0.55-3.82l0.87-7.02l5.54-6.42l3.14-2.8l0.85-3.15l-0.24-2.51l-2.28-2.25l-2.75-0.57l-2.75,1.23l-1.73,1.55l-2.98-1.86
				l-4.54-4.21l-2.14-2.97l-1.25-4.72l0.64-1.92l-5.17-0.02l-4.12-1.82l-1.48-2.44l0.01-4.18l-5.99,1.09l-5.83-0.99l-0.97-2.16
				l-0.91-8.2l-1.89,2.79l-4.06,3.08l-2.33,1.14l-4.46,0.13l-3.59-1.89l0.19,3.64l-1.43,2.98l-2.45,2.22l-3.07,0.81l-2.1,1.56
				l-3.98,1.65l-3.23-0.31l1.57,2.72l1.29,3.42l-0.92,2l-2.04,1.17l-3.04,0.93l1.16,2.59l1.56,2.9l0.57,1.85l0.19,2.03l-1.63,1.91
				L313.49,206.21z"/>
		</g>
		<g>
			<polygon class="st12" points="343.99,286.27 349.53,281.73 352.98,283.53 359.28,285.25 364.29,285.46 373.46,284.54 
				384.84,281.35 391.24,278.38 396.94,274.22 400.43,270.06 402.55,265.64 404.12,261.56 412.6,262.58 411,267.37 407.64,273.15 
				403.52,277.93 395.01,283.39 386.02,287.62 374.25,290.73 366.09,291.47 356.26,290.97 			"/>
		</g>
		<g>
			<path class="st16" d="M368.79,558.59c-3.3,1.01-10.38,2.73-14.69,0.55c-1.69-0.85-2.8-2.2-3.31-4.01
				c-1.3-4.61-0.97-11.29-0.63-18.37c0.29-5.81,0.58-11.82-0.01-17.01c-1.32-11.53-14.39-73.04-16.77-83.09
				c-2.53-10.71-9.81-67.84-10.12-70.26c-0.08-0.6,0.34-1.15,0.95-1.23c0.6-0.08,1.15,0.35,1.23,0.95
				c0.08,0.59,7.57,59.44,10.08,70.04c2.45,10.35,15.46,71.45,16.81,83.35c0.61,5.36,0.31,11.46,0.02,17.36
				c-0.34,6.89-0.66,13.4,0.55,17.67c0.34,1.21,1.06,2.08,2.19,2.65c4.78,2.42,14.62-1.2,14.72-1.24c0.55-0.2,1.2,0.08,1.41,0.64
				c0.21,0.57-0.08,1.2-0.64,1.41C370.47,558.03,369.81,558.28,368.79,558.59z"/>
		</g>
		<g>
			<path class="st16" d="M353.65,557.45c-0.58,0.18-1.19-0.15-1.37-0.73c-0.14-0.46-0.13-0.63,1-2.62
				c1.64-2.88,16.58-28.25,36.16-33c6.38-1.55,9.44-2.46,11.46-3.07c3.93-1.18,3.93-1.18,15.31-2.11l6.94-0.57
				c0.34-0.05,39.34-5.12,50.3-13.64c0.08-0.06,0.17-0.12,0.27-0.15c0.39-0.15,38.71-15.27,59.62-29.14
				c0.92-0.7,24.17-18.23,46.07-20.72c20.38-2.32,27.64,2.81,28.86,3.84c0.86,0.37,2.1,1.31,2.18,2.91
				c0.18,3.5-5.48,7.9-17.32,13.44c-0.55,0.26-1.2,0.02-1.46-0.53c-0.26-0.55-0.02-1.2,0.53-1.46
				c15.05-7.05,16.09-10.45,16.06-11.33c-0.03-0.71-0.93-1.05-0.94-1.05c-0.15-0.05-0.29-0.14-0.4-0.25
				c-0.05-0.05-6.39-5.77-27.27-3.39c-21.29,2.42-44.81,20.15-45.05,20.33c-20.51,13.61-57.32,28.3-59.94,29.34
				c-11.59,8.82-49.66,13.78-51.29,13.99l-7,0.58c-11.15,0.91-11.15,0.91-14.86,2.02c-2.05,0.61-5.14,1.54-11.58,3.1
				c-18.86,4.57-34.35,30.51-35.57,33.44C354.3,557.03,354.03,557.33,353.65,557.45z"/>
		</g>
		<g>
			<path class="st16" d="M474.45,503.63c-0.02,0.01-0.03,0.01-0.05,0.01c-0.59,0.15-1.18-0.21-1.33-0.79l-6.78-26.87
				c-0.14-0.54,0.15-1.1,0.67-1.29l25.25-9.6l-3.27-10.71c-0.04-0.13-0.06-0.27-0.04-0.41c0.02-0.24,0.6-5.82,10.19-8.75
				c9.89-3.02,12.4,3.88,12.43,3.95l2.04,6.67l21.28-10.46c0.29-0.14,0.63-0.15,0.92-0.02c0.29,0.13,0.52,0.38,0.61,0.69l3.38,11.06
				l7.27-2.22c0.03-0.02,2.83-1.11,5.51,0.2c1.8,0.88,3.08,2.6,3.79,5.11c0.17,0.58-0.17,1.18-0.75,1.36
				c-0.58,0.17-1.19-0.17-1.36-0.75c-0.53-1.87-1.42-3.13-2.63-3.73c-1.79-0.89-3.81-0.12-3.83-0.11l-8.4,2.57
				c-0.58,0.18-1.19-0.15-1.37-0.73l-3.32-10.88l-21.28,10.46c-0.29,0.14-0.63,0.15-0.92,0.02c-0.29-0.13-0.52-0.38-0.61-0.69
				l-2.4-7.87c-0.06-0.16-1.9-4.91-9.7-2.53c-7.21,2.2-8.43,5.81-8.62,6.67l3.49,11.45c0.17,0.55-0.12,1.14-0.66,1.35l-25.29,9.61
				l6.55,25.92C475.34,502.88,475.01,503.46,474.45,503.63z"/>
		</g>
		<g>
			<path class="st16" d="M608.02,457.54c-0.38,0.11-0.8,0.02-1.1-0.27c-2.1-2.1-51.54-51.73-62.47-69.91
				c-1.88-3.13-3.89-6.58-5.99-10.17c-8.9-15.26-20.96-35.96-27.69-38.35c-0.37-0.09-0.65-0.16-0.83-0.21
				c-0.57-0.15-0.92-0.71-0.8-1.28c0.12-0.57,0.67-0.95,1.24-0.86c0.29,0.05,0.59,0.12,0.9,0.22c7.49,1.87,25.36,5.55,29.97,3.05
				c6.04-3.28,14.16-9.05,14.9-21.27c0.79-13.04-2.6-37.17-8.9-52.31c-6.59-15.83-29.08-58.99-35.43-64.37
				c-1.97-1.67-4.01-3.68-6.37-6.02c-5.71-5.65-13.52-13.37-27.82-23.63c-10.18-3.04-15.88-3.52-15.93-3.52
				c-0.28-0.02-0.54-0.15-0.73-0.36c-18.43-20.32-16.03-28.47-15.7-29.34c0.11-0.28,0.33-0.51,0.61-0.62
				c0.28-0.11,0.59-0.11,0.87,0.02c9.88,4.52,30.35,29.8,32.13,32.01c14.46,10.37,22.34,18.17,28.11,23.87
				c2.33,2.3,4.34,4.29,6.24,5.9c7.06,5.96,29.97,50.61,36.04,65.2c6.42,15.42,9.87,40,9.06,53.29
				c-0.81,13.32-9.55,19.54-16.05,23.07c-4.59,2.49-17.93,0.18-26.04-1.57c7.13,6.85,16.03,22.12,24.1,35.97
				c2.09,3.58,4.1,7.03,5.97,10.15c10.79,17.95,61.63,68.98,62.14,69.49c0.43,0.43,0.43,1.12,0,1.55
				C608.34,457.39,608.19,457.49,608.02,457.54z M462.32,166.48c1.35,0.15,5.7,0.72,12.74,2.64c-5.46-6.58-19.68-23.22-27.83-28.07
				C447.33,143.97,449.11,151.85,462.32,166.48z"/>
		</g>
		<g>
			<path class="st16" d="M533.36,342.62c-0.24,0.07-0.51,0.06-0.76-0.05c-9.07-4.02-12.82-8.16-23.96-20.46l-1.09-1.2
				c-12.42-13.7-24.75-56.67-27.56-71.46c-2.68-14.1-8.4-29.32-9.61-32.45c-10.91-1.73-17.38-4.73-19.24-8.92
				c-1.3-2.92,0.2-5.25,0.26-5.35c0.04-0.06,0.09-0.12,0.14-0.18c0.63-0.63,1.48-1.23,2.44-1.79c-1.47-0.09-2.69-0.39-3.69-0.91
				c-2.55-1.32-3.27-3.68-3.91-5.77c-1.54-5.05,4.6-8.6,4.86-8.75c0.1-0.05,0.2-0.09,0.31-0.12l0.18-0.04
				c-3.36-0.49-6.37-1.68-7.17-4.3c-1.68-5.52,2.54-8.75,4.34-10.13c0.28-0.21,0.51-0.38,0.66-0.53c1.23-1.17,8.78-3.03,11.97-3.77
				c0.59-0.14,1.18,0.23,1.32,0.82c0.14,0.59-0.23,1.18-0.82,1.32c-4.7,1.1-10.23,2.65-10.97,3.24c-0.18,0.17-0.46,0.39-0.82,0.66
				c-2.33,1.79-4.72,4.01-3.58,7.75c1.05,3.43,10.39,3.4,16.03,2.58c0.58-0.09,1.13,0.31,1.24,0.89c0.11,0.58-0.24,1.14-0.85,1.27
				l-10.89,2.35c-0.78,0.48-4.65,3.06-3.72,6.12c0.56,1.84,1.09,3.57,2.82,4.46c1.92,0.99,5.13,0.93,9.74-0.18
				c3.05-1.03,5.61-1.65,5.83-1.7c0.57-0.14,1.15,0.2,1.31,0.77c0.16,0.56-0.15,1.16-0.71,1.34c-2.12,0.71-4.04,1.27-5.79,1.69
				c-3.14,1.06-6.75,2.54-8.49,4.19c-0.18,0.33-0.75,1.62-0.02,3.21c0.91,1.98,4.48,5.61,18.18,7.69c0.39,0.06,0.71,0.32,0.86,0.68
				c0.07,0.17,6.92,17.48,9.95,33.43c2.78,14.61,14.9,57.01,27.03,70.39l1.09,1.2c11.2,12.36,14.58,16.09,23.22,19.92
				c0.55,0.25,0.8,0.89,0.56,1.45C533.91,342.32,533.65,342.53,533.36,342.62z"/>
		</g>
		<g>
			<path class="st16" d="M487.05,272.54c-0.14,0.04-0.29,0.06-0.45,0.04l-84.93-10.21c-0.41-0.05-0.76-0.33-0.9-0.71l-8.07-22.23
				c-0.12-0.33-0.07-0.7,0.13-0.99c0.2-0.29,0.53-0.47,0.88-0.48c0.46-0.01,11.32-0.35,12.24-9.16c0.06-0.56,0.53-0.98,1.08-0.98
				c0.06,0,5.94-0.09,9.04-3.93c1.88-2.32,2.39-5.6,1.54-9.74c-0.06-0.29,0-0.58,0.16-0.83c0.16-0.24,0.42-0.41,0.7-0.47
				c0.06-0.01,6.78-1.41,8.31-5.75c0.95-2.7-0.27-6.11-3.63-10.13c-0.23-0.28-0.31-0.65-0.21-1c0.1-0.35,0.36-0.63,0.7-0.74
				c0.06-0.02,6.02-2.11,6.75-6.12c0.47-2.57-1.28-5.53-5.22-8.79c-0.3-0.25-0.44-0.63-0.38-1.01c0.06-0.38,0.31-0.7,0.66-0.85
				c0.07-0.03,1.86-0.84,2.66-3.28c1.04-3.16-0.04-7.68-3.13-13.06c0,0,0,0,0,0c-0.02,0.01-4.92-5.92-8.32-3.28
				c-0.46,0.36-1.12,0.29-1.5-0.16c-0.38-0.44-0.34-1.11,0.08-1.51c0.02-0.02,2.4-2.3,2.32-5.38c-0.06-2.1-1.23-4.14-3.5-6.07
				c-0.03-0.02-4.91-3.92-9.28-1.64c-0.33,0.17-0.72,0.16-1.04-0.01c-0.32-0.18-0.53-0.51-0.56-0.88
				c-0.04-0.52-1.11-12.71-12.97-14.86c-0.23-0.07-6.84-2.33-12,0.09c-0.31,0.15-0.69,0.13-1-0.03c-0.31-0.17-0.51-0.48-0.56-0.83
				c0-0.03-0.44-3.28-2.81-4.82c-1.52-0.99-3.58-1.1-6.11-0.32l-11.47,3.5c-0.49,0.15-1.01-0.06-1.27-0.5
				c-0.03-0.05-2.7-4.56-7.13-4.86c-3.55-0.24-7.38,2.22-11.36,7.31c-0.31,0.4-0.86,0.53-1.32,0.32c-0.06-0.03-6.09-2.73-10.96-0.08
				c-3.3,1.79-5.41,5.63-6.27,11.42c-0.08,0.51-0.5,0.9-1.02,0.93c-0.1,0.01-10.49,0.68-14.13,7.51c-3.45,6.48-1.78,9.78-1.16,11.03
				l0.14,0.29c0.54,1.15-0.58,1.84-1.48,2.39c-2.42,1.48-6.94,4.24-3.95,13.61c0.03,0.1,0.05,0.2,0.05,0.3
				c0.01,0.19,0.23,4.8,4.97,7.96c1.74,1.16,2.55,2.45,2.39,3.85c-0.28,2.52-3.76,4.06-4.59,4.39c-0.36,0.27-1.83,1.46-1.59,3.19
				c0.25,1.87,2.7,5.67,16.25,10.18c0.32,0.11,0.58,0.36,0.69,0.68l2.77,8.01c1.22,0.1,2.48,1.35,3.97,3.91
				c0.06,0.1,0.1,0.21,0.12,0.32c0.04,0.21,4.55,21.44,9.05,30.3c0.29,0.52,7.69,13.53,23.53,9.38c6.27-1.25,16.61-4.15,17.96-6.69
				c0.13-0.24,0.09-0.37,0.05-0.48c-0.24-0.56,0.02-1.2,0.58-1.44c0.57-0.24,1.2,0.02,1.44,0.58c0.33,0.77,0.28,1.59-0.13,2.37
				c-2.23,4.21-16.56,7.24-19.41,7.81c-17.46,4.57-25.87-10.35-25.96-10.5c-4.48-8.82-8.75-28.49-9.22-30.7
				c-1.1-1.87-1.78-2.44-2.05-2.61c-0.22,0.15-0.48,0.22-0.75,0.19c-0.42-0.05-0.78-0.33-0.91-0.73l-2.94-8.49
				c-10.89-3.68-16.68-7.66-17.22-11.82c-0.43-3.3,2.52-5.26,2.65-5.34c0.07-0.04,0.14-0.08,0.21-0.11
				c1.27-0.49,3.21-1.66,3.32-2.64c0.08-0.67-0.86-1.4-1.42-1.78c-5.25-3.49-5.87-8.55-5.94-9.55c-3.42-10.9,2.43-14.48,4.94-16.01
				c0.11-0.07,0.22-0.14,0.33-0.2c-0.85-1.76-2.31-5.74,1.37-12.66c3.59-6.74,12.24-8.27,15.06-8.59c1.05-6.05,3.5-10.14,7.27-12.18
				c4.75-2.56,10.09-1.04,12.1-0.3c4.29-5.27,8.57-7.8,12.74-7.5c4.41,0.31,7.29,3.68,8.38,5.21l10.68-3.26
				c3.19-0.97,5.87-0.77,7.96,0.59c2.1,1.37,3.06,3.59,3.48,5.02c5.7-1.97,11.96,0.19,12.24,0.29
				c10.81,1.95,13.67,11.61,14.38,15.34c5.13-1.63,10.09,2.29,10.31,2.48c2.79,2.37,4.23,4.97,4.29,7.72
				c0.04,1.62-0.42,3.05-0.98,4.18c4.07,0.12,7.82,4.69,8.02,4.94c3.58,6.22,4.68,11.24,3.38,15.06c-0.61,1.79-1.64,2.95-2.48,3.65
				c3.8,3.46,5.43,6.79,4.86,9.91c-0.71,3.87-4.63,6.2-6.79,7.21c3.18,4.19,4.22,7.92,3.09,11.11c-1.54,4.36-6.65,6.26-8.89,6.9
				c0.7,4.35-0.03,7.89-2.18,10.54c-2.97,3.66-7.74,4.48-9.77,4.67c-1.39,7.76-9.38,9.62-12.75,10.06l7.36,20.26l84.26,10.13
				c0.6,0.07,1.03,0.62,0.96,1.22C487.77,272.07,487.45,272.42,487.05,272.54z M317.53,215.79
				C317.53,215.79,317.53,215.79,317.53,215.79C317.53,215.79,317.53,215.79,317.53,215.79z"/>
		</g>
		<g>
			<path class="st16" d="M351.72,522.49c-0.23,0.07-0.48,0.07-0.72-0.03c-0.47-0.19-46.96-18.86-74.08-45.97
				c-1.45-0.9-12.92-8.71-12.08-30.28c0.86-22.09,8.3-39.13,8.38-39.3c0.25-0.56,0.9-0.8,1.45-0.56c0.55,0.24,0.8,0.89,0.56,1.45
				c-0.07,0.17-7.35,16.85-8.19,38.5c-0.83,21.23,11,28.31,11.12,28.38c0.08,0.05,0.16,0.11,0.23,0.18
				c26.78,26.84,72.97,45.39,73.43,45.58c0.56,0.22,0.84,0.86,0.61,1.42C352.29,522.16,352.03,522.39,351.72,522.49z"/>
		</g>
		<g>
			<path class="st16" d="M340.24,462.57c-0.31,0.1-0.66,0.05-0.95-0.15l-26.24-18.29c-0.5-0.35-0.62-1.03-0.27-1.53
				c0.35-0.5,1.03-0.62,1.53-0.27l26.24,18.29c0.5,0.35,0.62,1.03,0.27,1.53C340.67,462.35,340.47,462.5,340.24,462.57z"/>
		</g>
		<g>
			<path class="st16" d="M317.04,446.4c-0.42,0.13-0.9-0.01-1.19-0.38c-0.37-0.48-0.28-1.17,0.2-1.54c0.08-0.06,8.32-6.5,9.69-11.68
				c0.16-0.59,0.76-0.94,1.34-0.78c0.59,0.15,0.93,0.76,0.78,1.34c-1.56,5.9-10.11,12.57-10.47,12.86
				C317.28,446.3,317.16,446.36,317.04,446.4z"/>
		</g>
		<g>
			<path class="st16" d="M334.55,436.46c-0.27,0.08-0.56,0.06-0.83-0.08c-0.25-0.13-24.95-12.91-39.63-15.4
				c-15.31-2.59-27.91-20.48-28.44-21.24c-0.33-0.42-8.79-11.66,1.42-29.39c9.85-17.1,16.12-27.46,16.18-27.56
				c0.14-0.23,0.36-0.4,0.62-0.48l13.94-4.25c0.58-0.18,1.19,0.15,1.37,0.73l2.61,8.54c0.04,0.14,0.06,0.28,0.04,0.43
				c-0.01,0.06-0.13,1.74,1.14,2.76c1.43,1.15,4.19,1.15,7.98,0c0.15-0.04,3.24-0.65,4.65-2.98c0.83-1.38,0.93-3.15,0.29-5.24
				l-2.81-9.22c-0.18-0.58,0.15-1.19,0.73-1.37l26.68-8.14l-8.53-27.95c-0.13-0.42,0.01-0.89,0.35-1.17l17.5-14.37
				c0.56-0.87,4.33-7.22,2.39-18.55c-0.1-0.6,0.3-1.16,0.9-1.27c0.6-0.1,1.16,0.3,1.27,0.9c2.25,13.15-2.64,20.03-2.85,20.32
				c-0.05,0.07-0.12,0.14-0.19,0.2l-17.05,14l8.63,28.3c0.18,0.58-0.15,1.19-0.73,1.37l-26.68,8.14l2.49,8.17
				c0.83,2.73,0.66,5.1-0.52,7.04c-1.93,3.17-5.84,3.93-6,3.96c-4.56,1.39-7.85,1.24-9.9-0.44c-1.82-1.49-1.95-3.68-1.93-4.41
				l-2.23-7.31l-12.49,3.81c-1.18,1.96-7.12,11.85-15.94,27.16c-9.44,16.39-1.88,26.57-1.55,27c0.16,0.22,12.64,17.94,27.04,20.37
				c15.03,2.54,39.25,15.08,40.28,15.61c0.54,0.28,0.75,0.94,0.47,1.48C335.06,436.19,334.82,436.38,334.55,436.46z"/>
		</g>
		<g>
			<path class="st16" d="M381.1,283.78c-13,3.97-26.98,3.7-32.32-1.25c-0.44-0.41-0.47-1.11-0.06-1.55
				c0.41-0.44,1.11-0.47,1.55-0.06c5.25,4.87,23.08,4.91,38.21-2.34c13.9-6.67,13.73-16.66,13.72-17.09
				c-0.02-0.6,0.45-1.11,1.06-1.13c0.6-0.02,1.11,0.45,1.14,1.05c0.02,0.48,0.31,11.83-14.96,19.15
				C386.77,281.84,383.96,282.91,381.1,283.78z"/>
		</g>
		<g>
			<path class="st16" d="M383.29,289.6c-16.03,4.89-30,4.09-39.9-2.42c-0.51-0.33-0.65-1.01-0.31-1.52
				c0.33-0.51,1.01-0.65,1.52-0.31c10.75,7.07,26.8,6.94,45.18-0.36c19.25-7.64,21.72-22.44,21.74-22.59
				c0.09-0.6,0.65-1.01,1.25-0.92c0.6,0.09,1.01,0.65,0.92,1.25c-0.1,0.66-2.7,16.19-23.1,24.29
				C388.11,288.02,385.68,288.88,383.29,289.6z"/>
		</g>
		<g>
			<path class="st16" d="M421.28,402.45c-0.54,0.16-1.12-0.11-1.33-0.63l-21.83-53.42c-0.11-0.27-0.11-0.58,0.01-0.85
				c0.12-0.27,0.34-0.48,0.62-0.59l21.54-8.1l-5.52-13.61c0,0,0,0,0,0c-0.01,0-1.73-2.9-0.49-6.3c1.1-3.02,4.12-5.37,8.97-7
				c0.04-0.03,4.57-2.27,8.91-0.68c2.48,0.91,4.36,2.84,5.6,5.76l4.35,12.41l24.71-10.13c0.55-0.23,1.19,0.03,1.42,0.58l6.82,15.87
				l11.56-2.9c-0.02,0,2.9-1.15,5.8,0.29c2.13,1.06,3.64,3.18,4.5,6.31c2.35,8.64-0.26,10.35-4.53,11.97l-0.23,0.09l-9.38,4.11
				l8.31,20.59c0.11,0.28,0.11,0.59-0.02,0.86c-0.12,0.27-0.35,0.48-0.63,0.58l-69.11,24.77
				C421.31,402.44,421.3,402.45,421.28,402.45z M400.57,348.61l21.01,51.41l67.05-24.03l-8.28-20.52c-0.22-0.55,0.03-1.18,0.58-1.42
				l10.69-4.67c3.35-1.27,5.2-1.98,3.19-9.34c-0.68-2.5-1.81-4.16-3.36-4.93c-2-0.99-4.12-0.19-4.14-0.18l-12.61,3.17
				c-0.52,0.13-1.06-0.14-1.28-0.63l-6.77-15.74l-24.78,10.16c-0.28,0.11-0.59,0.11-0.87-0.01c-0.27-0.12-0.49-0.35-0.59-0.64
				l-4.71-13.43c-0.97-2.26-2.42-3.79-4.3-4.48c-3.45-1.27-7.3,0.62-7.33,0.64c-4.31,1.45-6.87,3.35-7.74,5.7
				c-0.9,2.42,0.32,4.51,0.37,4.6l6.02,14.8c0.11,0.27,0.11,0.58-0.01,0.85c-0.12,0.27-0.34,0.48-0.62,0.59L400.57,348.61z"/>
		</g>
		<g>
			<path class="st16" d="M269.94,304.87c-0.11,0.03-0.23,0.07-0.35,0.1c-9.62,2.74-13.75-4.36-13.79-4.44
				c-0.04-0.07-0.07-0.15-0.1-0.24l-2.55-8.89l-24.23,8.18c-0.52,0.18-1.19-0.11-1.39-0.68l-8.21-23.58
				c-0.1-0.29-0.08-0.6,0.06-0.87c0.14-0.27,0.39-0.47,0.68-0.55l9.01-2.47c0.16-0.07,5.98-2.31,3.82-10.19
				c-0.03-0.18-0.47-3.36-2.55-4.86c-1.02-0.73-2.26-0.96-3.79-0.68l-13.36,6c-0.29,0.13-0.62,0.13-0.9,0
				c-0.29-0.13-0.5-0.38-0.6-0.68l-5.08-16.64c-0.17-0.56,0.13-1.16,0.69-1.36l66.92-23.12c0.28-0.1,0.59-0.08,0.86,0.06
				c0.27,0.14,0.46,0.37,0.55,0.66l5.03,16.49l10.98-3.35c0.6-0.33,2.97-1.48,5.47-0.53c2.07,0.78,3.61,2.74,4.58,5.82
				c0.37,0.67,1.94,3.75,0.92,6.73c-0.65,1.9-2.18,3.32-4.54,4.22l-11.34,4.82l7.64,22.13c0.1,0.29,0.08,0.6-0.06,0.87
				c-0.14,0.27-0.36,0.46-0.68,0.55l-18.77,5.29l3.32,10.33C278.25,294.25,279.29,302.02,269.94,304.87z M257.78,299.56
				c0.48,0.76,3.78,5.42,11.22,3.3c0.1-0.03,0.2-0.06,0.3-0.09c7.5-2.29,6.8-8.04,6.77-8.29l-3.63-11.23
				c-0.09-0.28-0.06-0.59,0.08-0.85c0.14-0.26,0.39-0.46,0.67-0.54l18.75-5.28l-7.6-21.99c-0.19-0.54,0.08-1.14,0.61-1.37
				l12.32-5.23c1.76-0.67,2.85-1.64,3.28-2.89c0.8-2.31-0.78-4.99-0.79-5.02c-0.05-0.08-0.08-0.16-0.11-0.24
				c-0.75-2.47-1.86-3.99-3.29-4.53c-1.8-0.68-3.66,0.42-3.68,0.43c-0.08,0.05-0.16,0.09-0.25,0.12l-12.14,3.7
				c-0.58,0.18-1.19-0.15-1.37-0.73l-5.02-16.45l-64.84,22.4l4.4,14.43l12.35-5.54c0.07-0.03,0.16-0.06,0.24-0.08
				c2.19-0.43,4.08-0.08,5.63,1.04c2.86,2.07,3.38,6.04,3.4,6.21c2.68,9.72-5.23,12.68-5.31,12.71l-7.96,2.19l7.46,21.44l24.28-8.2
				c0.3-0.1,0.6-0.07,0.86,0.07c0.27,0.14,0.46,0.38,0.55,0.67L257.78,299.56z"/>
		</g>
		<g>
			<path class="st16" d="M235.03,171.76c-0.2,0.06-0.42,0.07-0.64,0l-24.94-7.63c-0.32-0.1-0.58-0.34-0.7-0.65
				c-0.12-0.31-0.1-0.66,0.07-0.95l6.09-10.49l-11.33-3.83c-0.08-0.03-0.16-0.07-0.24-0.11c-0.06-0.04-6.17-4.03-3.68-11.83
				c0.68-2.13,1.93-3.61,3.71-4.41c3.72-1.67,8.37,0.36,8.57,0.45l7.18,2.82l7.3-12.38c0.28-0.48,0.88-0.67,1.39-0.45l21.32,9.47
				c0.55,0.24,0.8,0.88,0.56,1.43l-5.14,12.14c-0.21,0.49-0.74,0.76-1.26,0.64l-8.2-1.92c-0.09-0.02-0.18-0.06-0.26-0.1
				c-0.49-0.26-2.13-0.91-3.12-0.5c-0.25,0.1-0.62,0.33-0.86,1.06c-0.86,2.7,2.04,4.59,2.07,4.6l9.4,3.88
				c0.27,0.11,0.49,0.33,0.6,0.6c0.11,0.27,0.11,0.58-0.01,0.85l-7.19,16.69C235.58,171.45,235.33,171.67,235.03,171.76z
				 M211.41,162.44l22.67,6.94l6.36-14.77l-8.54-3.54c-1.68-1.05-4.25-3.77-3.15-7.21c0.48-1.49,1.42-2.14,2.12-2.43
				c1.92-0.78,4.21,0.22,4.83,0.53l7.18,1.68l4.36-10.29l-19.44-8.63l-7.28,12.34c-0.27,0.46-0.85,0.66-1.35,0.46l-8.1-3.18
				c-0.08-0.03-3.99-1.74-6.83-0.47c-1.2,0.54-2.03,1.55-2.51,3.07c-1.83,5.73,1.98,8.75,2.67,9.24l12.46,4.22
				c0.31,0.11,0.56,0.35,0.68,0.65c0.12,0.31,0.09,0.65-0.08,0.94L211.41,162.44z"/>
		</g>
		<g>
			<path class="st16" d="M420.61,134.06c-0.42,0.13-0.88,0-1.17-0.35l-16.1-19.57c-1.09,0.85-3.34,2.44-7.84,5.19
				c-8.06,4.92-12.77-1.96-12.82-2.03c-3.14-3.67-4.58-7.11-4.21-10.12c0.35-2.82,2.21-4.17,2.29-4.23l7.59-4.45l-16.01-15.42
				c-0.24-0.23-0.36-0.55-0.33-0.87c0.02-0.33,0.19-0.62,0.46-0.81l14.81-10.44l-9.83-8.29c-0.06-0.05-0.11-0.1-0.15-0.16
				c-2.19-2.78-2.97-5.41-2.31-7.82c1.03-3.77,5.2-5.42,5.38-5.49c3.6-2.06,7.07-2.7,10.16-1.83c3.97,1.12,5.79,4.35,5.86,4.48
				l5.32,8.75l20.07-12.69c0.45-0.29,1.05-0.2,1.41,0.2l15.75,17.8c0.22,0.25,0.31,0.58,0.26,0.91c-0.05,0.33-0.25,0.61-0.54,0.77
				l-9.43,5.33c-0.07,0.07-4.72,3.84-0.66,9.53c4.15,5.83,10.27,3.25,10.54,3.14l9.99-6.21c0.48-0.3,1.12-0.18,1.46,0.27
				l17.42,23.19c0.18,0.25,0.26,0.56,0.2,0.86c-0.05,0.3-0.23,0.57-0.49,0.73l-46.8,29.52C420.79,133.99,420.7,134.03,420.61,134.06
				z M403.17,111.53c0.12-0.04,0.24-0.05,0.37-0.05c0.31,0.01,0.6,0.15,0.8,0.39l16.19,19.68l44.98-28.36l-16.1-21.44l-9.27,5.75
				c-0.21,0.11-8.14,3.5-13.34-3.8c-5.3-7.43,1.17-12.58,1.24-12.63l8.38-4.75l-14.24-16.09l-20.22,12.79
				c-0.25,0.16-0.55,0.21-0.84,0.14c-0.29-0.07-0.53-0.25-0.69-0.5l-5.92-9.74c-0.04-0.06-1.51-2.62-4.59-3.48
				c-2.5-0.69-5.39-0.12-8.6,1.7c-0.18,0.08-3.48,1.41-4.2,4.1c-0.45,1.68,0.17,3.62,1.85,5.79l10.83,9.13
				c0.26,0.22,0.4,0.55,0.39,0.89c-0.02,0.34-0.19,0.65-0.46,0.85l-14.89,10.5l16.1,15.5c0.25,0.24,0.37,0.58,0.33,0.92
				c-0.04,0.34-0.24,0.64-0.53,0.82l-8.76,5.13c0,0,0,0,0,0c0.02-0.01-1.1,0.87-1.31,2.72c-0.26,2.33,1.05,5.26,3.79,8.47
				c0.22,0.31,3.69,5.28,9.93,1.48c6.88-4.19,8.28-5.57,8.33-5.63C402.83,111.68,402.99,111.59,403.17,111.53z"/>
		</g>
		<g>
			<path class="st16" d="M394.04,240.09c-0.54,0.17-1.13-0.11-1.34-0.65c-0.24-0.59-5.75-14.64-5-21.5
				c0.77-7.08,8.49-12.32,8.87-12.57l0,0c-0.02,0.01,1.67-1.54,1.6-3.43c-0.04-1.2-0.79-2.36-2.22-3.46
				c-0.05-0.04-1.01-0.82-2.19-0.63c-0.98,0.16-1.92,0.95-2.78,2.34c-0.28,0.46-0.85,0.64-1.35,0.44
				c-4.83-1.97-13.02-7.53-11.71-15.17c-2.21,0.15-6.11,0.01-8.58-2.36c-1.48-1.42-2.21-3.39-2.17-5.86
				c-2.48,0.78-7.01,1.71-10.22-0.63c-2.08-1.51-3.2-4.08-3.35-7.65c-1.65,1.92-4.18,4.16-7.32,4.85c-2.11,0.47-4.2,0.18-6.26-0.83
				c-0.08,1.61-0.49,3.84-1.94,5.63c-1.35,1.67-3.32,2.63-5.85,2.86c-0.92,0.81-3.76,3.06-6.9,3.23c1.03,1.67,1.99,3.97,1.23,6.05
				c-0.63,1.71-2.28,2.88-4.92,3.47c1.38,1.96,3.39,5.43,2.82,8.35c-0.28,1.45-1.19,2.62-2.61,3.37c-0.11,0.06-0.22,0.09-0.34,0.11
				l-7.86,1.23c-0.6,0.09-1.16-0.32-1.25-0.91c-0.09-0.6,0.32-1.16,0.91-1.25l7.67-1.2c0.76-0.44,1.18-1,1.33-1.76
				c0.51-2.61-2.34-6.66-3.48-8.01c-0.26-0.31-0.33-0.74-0.18-1.11c0.15-0.38,0.49-0.64,0.9-0.69c1.95-0.22,4.39-0.81,4.97-2.36
				c0.73-1.99-1.63-5.14-2.52-6.09c-0.36-0.38-0.39-0.97-0.09-1.39c0.31-0.42,0.87-0.57,1.35-0.35c3.41,1.59,7.72-2.5,7.77-2.54
				c0.19-0.18,0.43-0.29,0.7-0.3c2.07-0.12,3.64-0.82,4.66-2.07c1.93-2.37,1.41-6.05,1.4-6.08c-0.06-0.44,0.14-0.87,0.51-1.1
				c0.38-0.23,0.85-0.21,1.21,0.04c2.09,1.5,4.21,2.03,6.3,1.57c4.71-1.03,8.05-6.77,8.08-6.83c0.26-0.45,0.8-0.66,1.29-0.5
				c0.5,0.16,0.81,0.65,0.75,1.16c-0.52,4.7,0.26,7.84,2.31,9.33c3.46,2.53,9.66-0.19,9.72-0.22c0.36-0.16,0.79-0.11,1.11,0.13
				c0.32,0.24,0.48,0.64,0.42,1.03c-0.37,2.58,0.09,4.51,1.37,5.74c2.25,2.16,6.77,1.88,8.31,1.59c0.38-0.07,0.78,0.06,1.03,0.36
				c0.25,0.29,0.34,0.7,0.21,1.07c-2.49,7.35,6.46,12.34,9.25,13.69c1.1-1.48,2.37-2.34,3.79-2.56c2.18-0.34,3.81,1.04,3.88,1.1
				c1.94,1.48,2.97,3.22,3.03,5.11c0.09,2.98-2.36,5.14-2.47,5.23c-0.18,0.13-7.35,4.99-8.01,11.06c-0.69,6.33,4.8,20.32,4.86,20.46
				c0.22,0.56-0.05,1.2-0.62,1.42C394.1,240.07,394.07,240.08,394.04,240.09z"/>
		</g>
		<g>
			<path class="st6" d="M322.16,156.59l-2.11,0.59c-0.08-0.28-1.9-7,1.64-11.59c2.11-2.74,5.6-4.09,10.39-4.02l-0.03,2.19
				c-4.06-0.06-6.95,1-8.62,3.16C320.56,150.63,322.15,156.53,322.16,156.59z"/>
		</g>
		<g>
			<path class="st6" d="M415.26,181.7l-2.02-0.86c0.8-1.89,1.53-4.4,0.44-5.64c-1.43-1.63-5.63-0.9-6.99-0.52l-1.96,0.55l0.61-1.94
				c0.81-2.57,0.81-4.4-0.02-5.16c-1.36-1.24-4.95-0.14-6.1,0.34l-0.85-2.02c0.59-0.25,5.79-2.34,8.43,0.06
				c1.27,1.16,1.64,3.06,1.1,5.67c2.15-0.34,5.6-0.49,7.42,1.57C416.81,175.43,416.79,178.11,415.26,181.7z"/>
		</g>
		<g>
			<path class="st16" d="M362.87,201.93c-1.62,0.49-3.24,0.62-4.56,0.36c-1.71-0.34-2.9-1.33-3.35-2.79
				c-0.18-0.58,0.15-1.19,0.73-1.37s1.19,0.15,1.37,0.73c0.08,0.25,0.31,1,1.67,1.27c0.96,0.19,2.23,0.08,3.49-0.31
				c2.2-0.67,3.89-2.03,3.62-2.91c-0.18-0.58,0.15-1.19,0.73-1.37c0.58-0.18,1.19,0.15,1.37,0.73
				C368.73,198.86,365.86,201.02,362.87,201.93z"/>
		</g>
		<g>
			<path class="st16" d="M338.21,205.61c-1.62,0.49-3.24,0.62-4.56,0.36c-1.71-0.34-2.9-1.33-3.35-2.79
				c-0.18-0.58,0.15-1.19,0.73-1.37s1.19,0.15,1.37,0.73c0.08,0.25,0.31,1,1.67,1.27c0.96,0.19,2.23,0.08,3.49-0.31
				c2.2-0.67,3.89-2.03,3.62-2.91c-0.18-0.58,0.15-1.19,0.73-1.37c0.58-0.18,1.19,0.15,1.37,0.73
				C344.08,202.54,341.21,204.7,338.21,205.61z"/>
		</g>
		<g>
			<path class="st16" d="M349.18,220.61c-2.09,0.64-5.82,1.2-7.69-2.02c-1.39-2.41-0.28-3.74,0.79-5.02c1.12-1.34,2.51-3,2.67-7.02
				c0.02-0.61,0.53-1.08,1.14-1.05c0.61,0.02,1.08,0.53,1.05,1.14c-0.19,4.77-1.98,6.92-3.18,8.34c-0.99,1.19-1.2,1.43-0.57,2.51
				c1.62,2.79,6.31,0.59,6.35,0.57c0.55-0.26,1.2-0.03,1.46,0.52c0.26,0.55,0.03,1.2-0.52,1.46
				C350.61,220.08,350.03,220.35,349.18,220.61z"/>
		</g>
		<g>
			<path class="st16" d="M353.7,238.29c-2.57,0.78-4.92,0.7-6.83-0.29c-2.4-1.25-3.72-3.82-3.61-7.06c0.01-0.33,0.17-0.65,0.44-0.85
				c0.27-0.2,0.61-0.26,0.94-0.18c5.28,1.42,9.94,0.31,11.35-2.71c0.26-0.55,0.91-0.79,1.46-0.53c0.55,0.26,0.78,0.91,0.53,1.46
				c-2,4.28-7.47,5.19-12.47,4.23c0.23,1.72,1.05,3,2.37,3.69c2.58,1.34,6.6,0.26,10.77-2.87c0.48-0.36,1.17-0.27,1.54,0.22
				c0.36,0.48,0.27,1.17-0.22,1.54C357.82,236.56,355.69,237.68,353.7,238.29z"/>
		</g>
		<g>
			<path class="st16" d="M335.08,112.48c-0.51,0.15-1.06-0.08-1.3-0.56c-0.27-0.54-0.04-1.2,0.5-1.47l14.69-7.25
				c0.55-0.27,1.2-0.04,1.47,0.5c0.27,0.54,0.04,1.2-0.5,1.47l-14.69,7.25C335.19,112.44,335.14,112.46,335.08,112.48z"/>
		</g>
		<g>
			<path class="st16" d="M354.42,73.96c-0.27,0.08-0.58,0.06-0.84-0.09l-11.72-6.38c-0.53-0.29-0.73-0.96-0.44-1.49
				c0.29-0.53,0.95-0.73,1.49-0.44l11.72,6.38c0.53,0.29,0.73,0.96,0.44,1.49C354.92,73.7,354.68,73.88,354.42,73.96z"/>
		</g>
		<g>
			<path class="st16" d="M372.43,43.58c-0.39,0.12-0.83,0.02-1.12-0.3l-8.74-9.31c-0.41-0.44-0.39-1.14,0.05-1.55
				c0.44-0.41,1.14-0.39,1.55,0.05l8.74,9.31c0.41,0.44,0.39,1.14-0.05,1.55C372.73,43.45,372.58,43.53,372.43,43.58z"/>
		</g>
		<g>
			<path class="st16" d="M438.1,41.97c-0.24,0.07-0.51,0.07-0.76-0.04c-0.56-0.24-0.81-0.89-0.57-1.44l6.01-13.81
				c0.24-0.56,0.89-0.81,1.44-0.57c0.56,0.24,0.81,0.89,0.57,1.44l-6.01,13.81C438.65,41.67,438.4,41.88,438.1,41.97z"/>
		</g>
		<g>
			<path class="st16" d="M467.01,73.89c-0.4,0.12-0.86,0.01-1.15-0.33c-0.4-0.46-0.35-1.15,0.11-1.55l12.38-10.78
				c0.46-0.4,1.15-0.35,1.55,0.11c0.4,0.46,0.35,1.15-0.11,1.55l-12.38,10.78C467.29,73.77,467.15,73.84,467.01,73.89z"/>
		</g>
	</g>
</g>
</svg>
