<?xml version="1.0" encoding="utf-8"?>
<!-- Generator: Adobe Illustrator 27.1.0, SVG Export Plug-In . SVG Version: 6.00 Build 0)  -->
<svg version="1.1" id="Capa_1" xmlns="http://www.w3.org/2000/svg" xmlns:xlink="http://www.w3.org/1999/xlink" x="0px" y="0px"
	 viewBox="0 0 48 48" style="enable-background:new 0 0 48 48;" xml:space="preserve">
<style type="text/css">
	.st0{fill:none;}
	.st1{fill:#FFFFFF;}
	.st2{fill:#F2B705;}
	.st3{fill:#040423;}
	.st4{fill:#8C1F33;}
	.st5{fill:#5BA566;}
	.st6{fill:#F2E3CC;}
	.st7{fill:#F15A24;}
	.st8{fill:#400101;}
	.st9{fill:#FCFCFC;}
	.st10{fill:#122B05;}
	.st11{fill:#472FAD;}
	.st12{fill:#A64F03;}
	.st13{fill:#D98E04;}
	.st14{fill:none;stroke:#FFFFFF;stroke-miterlimit:10;}
	.st15{fill:#F2F2F2;}
	.st16{fill:#2FD812;}
	.st17{fill:#AA8D30;}
	.st18{fill:#B0EAB7;}
	.st19{fill:#111147;}
	.st20{fill:none;stroke:#472FAD;stroke-width:0;stroke-linecap:round;stroke-linejoin:round;}
	.st21{fill:#F2B705;stroke:#472FAD;stroke-miterlimit:10;}
	.st22{fill:#231A56;}
	.st23{fill:#EA0070;}
	.st24{fill:#158035;}
	.st25{fill:#F9B331;}
	.st26{opacity:0.4;}
	.st27{fill:#0F0E0D;}
	.st28{fill:#E0245E;}
	.st29{fill:#050535;}
	.st30{fill:#F2EBDF;}
	.st31{fill:#1E1E1E;}
</style>
<g>
	<g>
		<path class="st30" d="M26.62,38.9h-6.78V25.4h-2.68v-5.94h2.66l0.05-3.56c0.08-1.79,1.23-5.15,5.03-5.2c4.19-0.06,5.32,0,5.37,0
			l0.58,0.03v5.85h-3.96c-0.11,0.02-0.2,0.18-0.2,0.45c-0.02,0.66-0.03,1.77-0.03,2.46h4.25l-0.51,5.91h-3.73L26.62,38.9z
			 M21.06,37.68h4.34l0.03-13.5h3.83l0.3-3.47h-4.14V20.1c0-0.08,0-2.09,0.03-3.1c0.03-1.17,0.86-1.62,1.4-1.64l2.76,0V11.9
			c-0.7-0.01-2.11-0.02-4.71,0.02c-3.6,0.05-3.82,3.85-3.82,4.02l-0.07,4.75h-2.64v3.49h2.68V37.68z"/>
	</g>
	<g>
		<path class="st30" d="M24,48C10.77,48,0,37.23,0,24C0,10.77,10.77,0,24,0c13.23,0,24,10.77,24,24C48,37.23,37.23,48,24,48z
			 M24,1.83C11.78,1.83,1.83,11.78,1.83,24c0,12.22,9.94,22.17,22.17,22.17c12.22,0,22.17-9.94,22.17-22.17
			C46.17,11.78,36.22,1.83,24,1.83z"/>
	</g>
</g>
</svg>
