<?xml version="1.0" encoding="utf-8"?>
<!-- Generator: Adobe Illustrator 27.1.0, SVG Export Plug-In . SVG Version: 6.00 Build 0)  -->
<svg version="1.1" id="Capa_1" xmlns="http://www.w3.org/2000/svg" xmlns:xlink="http://www.w3.org/1999/xlink" x="0px" y="0px"
	 width="140px" height="140px" viewBox="0 0 140 140" style="enable-background:new 0 0 140 140;" xml:space="preserve">
<style type="text/css">
	.st0{fill:none;}
	.st1{fill:#FFFFFF;}
	.st2{fill:#F2B705;}
	.st3{fill:#040423;}
	.st4{fill:#8C1F33;}
	.st5{fill:#5BA566;}
	.st6{fill:#F2E3CC;}
	.st7{fill:#F15A24;}
	.st8{fill:#400101;}
	.st9{fill:#FCFCFC;}
	.st10{fill:#122B05;}
	.st11{fill:#472FAD;}
	.st12{fill:#A64F03;}
	.st13{fill:#D98E04;}
	.st14{fill:#F2F2F2;}
	.st15{fill:#2FD812;}
	.st16{fill:#AA8D30;}
	.st17{fill:#B0EAB7;}
	.st18{fill:#111147;}
	.st19{fill:none;stroke:#472FAD;stroke-width:0;stroke-linecap:round;stroke-linejoin:round;}
	.st20{fill:#F2B705;stroke:#472FAD;stroke-miterlimit:10;}
	.st21{fill:#231A56;}
	.st22{fill:#EA0070;}
	.st23{fill:#158035;}
	.st24{fill:#F9B331;}
	.st25{opacity:0.4;}
	.st26{fill:#0F0E0D;}
	.st27{fill:#E0245E;}
	.st28{fill:#050535;}
	.st29{fill:#F2EBDF;}
</style>
<g>
	<path class="st0" d="M73.5,68.11c4.11-0.95,8.05-1.88,10.77-2.54c-1.17-2.2-2.57-4.17-4.16-5.89c-1.5,2.11-3.05,4.02-4.56,5.87
		C74.85,66.42,74.16,67.26,73.5,68.11z"/>
	<path class="st1" d="M114.97,2.83c-1.97-0.24-3.93-0.36-5.86-0.36c-11.29,0-21.8,4.06-30.69,11.92
		c-6.7,5.92-10.45,12.26-11.45,14.06c-0.03,0.06-0.07,0.11-0.1,0.16c-2.07,2.69-12.89,17.42-22.03,43.68
		c-0.02,0.07-0.05,0.13-0.08,0.19c-4.13,7.48-18.07,33.67-23.9,56.51c-0.93,3.66,1.29,7.4,4.95,8.34c0.56,0.14,1.13,0.21,1.7,0.21
		c3.13,0,5.86-2.12,6.63-5.16c3.43-13.45,10.22-28.71,15.32-39.14c0.21-0.44,0.67-0.71,1.15-0.69c0.49,0.02,0.92,0.32,1.1,0.77
		c4.61,11.41,11.5,27.47,18.09,39.15c0.9,1.59,2.37,2.74,4.13,3.23c1.76,0.49,3.61,0.27,5.21-0.64c1.59-0.9,2.74-2.37,3.23-4.13
		c0.49-1.76,0.27-3.61-0.63-5.21c-6.72-11.92-13.99-29.17-18.91-41.55c-0.1-0.24-0.11-0.51-0.05-0.76l0.12-0.46
		c0.09-0.33,0.32-0.6,0.62-0.76c0.3-0.16,0.66-0.18,0.98-0.07c0.88,0.31,1.84,0.37,2.71,0.17c11.18-2.4,28.05-6.56,28.19-6.6
		c2.6-0.64,4.23-3.19,3.73-5.81c-0.1-0.54-2.7-13.36-13.69-22.28c-0.11-0.08-0.22-0.18-0.35-0.26c-0.35-0.24-0.55-0.63-0.55-1.04
		c-1.22-2.79-4.36-6.43-9.11-10.56c-0.48-0.42-0.56-1.14-0.19-1.66c0.15-0.21,0.29-0.43,0.41-0.66c0.37-0.69,3.6-6.53,9.72-11.84
		c8.25-7.15,17.81-10.13,28.4-8.84c2.75,0.33,5.23-1.62,5.57-4.36c0.16-1.33-0.2-2.64-1.03-3.69
		C117.48,3.66,116.29,2.99,114.97,2.83z M78.92,57.06c0.2-0.3,0.53-0.5,0.89-0.53c0.37-0.04,0.72,0.08,0.98,0.34
		c2.58,2.47,4.73,5.5,6.38,9.01c0.16,0.34,0.16,0.72,0,1.06c-0.16,0.33-0.46,0.58-0.82,0.67c-3.22,0.78-9.52,2.28-15.61,3.66
		c-0.09,0.02-0.18,0.03-0.27,0.03c-0.41,0-0.8-0.2-1.03-0.55c-0.28-0.43-0.27-0.99,0.03-1.4c1.33-1.85,2.77-3.63,4.16-5.34
		C75.39,61.83,77.22,59.58,78.92,57.06z"/>
	<path class="st11" d="M120.24,3.19c-1.23-1.57-3-2.57-4.98-2.81c-14.23-1.73-27.54,2.48-38.48,12.16
		c-6.89,6.1-10.82,12.64-11.93,14.64c-2.25,2.93-13.13,17.88-22.32,44.2c-4.23,7.67-18.2,33.97-24.08,57
		c-1.27,4.98,1.75,10.07,6.73,11.34c0.76,0.19,1.54,0.29,2.31,0.29c4.26,0,7.97-2.89,9.02-7.02c3.12-12.22,9.08-26,13.94-36.18
		c4.6,11.23,11.01,25.93,17.18,36.86c1.22,2.17,3.22,3.73,5.62,4.4c2.4,0.67,4.92,0.36,7.08-0.86c2.17-1.22,3.73-3.22,4.4-5.62
		c0.67-2.4,0.36-4.91-0.86-7.08c-6.37-11.29-13.26-27.49-18.12-39.64c0.67,0.04,1.35-0.02,1.98-0.16
		c11.32-2.44,28.16-6.59,28.27-6.61c3.86-0.95,6.3-4.76,5.55-8.67c-0.11-0.58-2.88-14.25-14.58-23.74
		c-0.01-0.01-0.03-0.02-0.04-0.03c-1.23-3.07-4.3-6.79-9.11-11.07c0-0.01,0.01-0.01,0.01-0.02c0.33-0.61,3.35-6.08,9.15-11.11
		c7.7-6.68,16.61-9.45,26.49-8.26c4.08,0.49,7.82-2.43,8.31-6.51C122.02,6.71,121.47,4.76,120.24,3.19z M119.33,8.4
		c-0.33,2.74-2.82,4.69-5.57,4.36c-10.59-1.28-20.15,1.69-28.4,8.84c-6.13,5.31-9.36,11.16-9.72,11.84
		c-0.12,0.23-0.26,0.45-0.41,0.66c-0.38,0.52-0.29,1.24,0.19,1.66c4.75,4.13,7.89,7.77,9.11,10.56c0,0.41,0.19,0.8,0.55,1.04
		c0.12,0.08,0.24,0.18,0.35,0.26c11,8.92,13.59,21.74,13.69,22.28c0.5,2.62-1.13,5.16-3.73,5.81c-0.14,0.03-17.01,4.19-28.19,6.6
		c-0.87,0.19-1.83,0.14-2.71-0.17c-0.32-0.11-0.68-0.09-0.98,0.07c-0.3,0.16-0.53,0.43-0.62,0.76l-0.12,0.46
		c-0.07,0.25-0.05,0.52,0.05,0.76c4.91,12.38,12.18,29.63,18.91,41.55c0.9,1.59,1.13,3.44,0.63,5.21c-0.49,1.76-1.64,3.23-3.23,4.13
		c-1.6,0.9-3.45,1.13-5.21,0.64c-1.76-0.49-3.23-1.64-4.13-3.23c-6.59-11.68-13.47-27.74-18.09-39.15c-0.18-0.45-0.61-0.75-1.1-0.77
		c-0.49-0.02-0.94,0.25-1.15,0.69c-5.09,10.43-11.88,25.69-15.32,39.14c-0.78,3.04-3.5,5.16-6.63,5.16c-0.57,0-1.15-0.07-1.7-0.21
		c-3.66-0.93-5.88-4.68-4.95-8.34c5.83-22.83,19.77-49.02,23.9-56.51c0.03-0.06,0.06-0.12,0.08-0.19
		c9.15-26.25,19.96-40.99,22.03-43.68c0.04-0.05,0.07-0.1,0.1-0.16c0.99-1.8,4.75-8.14,11.45-14.06C87.3,6.53,97.81,2.47,109.1,2.47
		c1.93,0,3.89,0.12,5.86,0.36c1.33,0.16,2.51,0.83,3.33,1.88C119.12,5.76,119.49,7.07,119.33,8.4z"/>
	<path class="st11" d="M69.47,69.35c-0.3,0.42-0.31,0.97-0.03,1.4c0.23,0.35,0.62,0.55,1.03,0.55c0.09,0,0.18-0.01,0.27-0.03
		c6.09-1.38,12.4-2.89,15.61-3.66c0.36-0.09,0.66-0.33,0.82-0.67c0.16-0.33,0.16-0.72,0-1.06c-1.66-3.51-3.8-6.54-6.38-9.01
		c-0.26-0.25-0.62-0.38-0.98-0.34c-0.36,0.04-0.69,0.23-0.89,0.53c-1.71,2.52-3.53,4.77-5.29,6.94
		C72.24,65.72,70.8,67.5,69.47,69.35z M84.27,65.57c-2.72,0.65-6.66,1.59-10.77,2.54c0.67-0.84,1.35-1.69,2.05-2.55
		c1.51-1.86,3.05-3.77,4.56-5.87C81.7,61.4,83.09,63.37,84.27,65.57z"/>
	<path class="st1" d="M108.87,35.44c0-5.78-4.7-10.48-10.48-10.48c-5.78,0-10.48,4.7-10.48,10.48c0,5.78,4.7,10.48,10.48,10.48
		C104.16,45.92,108.87,41.22,108.87,35.44z"/>
	<path class="st11" d="M98.38,22.48c-7.14,0-12.95,5.81-12.95,12.95c0,7.14,5.81,12.95,12.95,12.95c7.14,0,12.95-5.81,12.95-12.95
		C111.33,28.29,105.52,22.48,98.38,22.48z M87.9,35.44c0-5.78,4.7-10.48,10.48-10.48c5.78,0,10.48,4.7,10.48,10.48
		c0,5.78-4.7,10.48-10.48,10.48C92.6,45.92,87.9,41.22,87.9,35.44z"/>
</g>
</svg>
