<?xml version="1.0" encoding="utf-8"?>
<!-- Generator: Adobe Illustrator 27.1.0, SVG Export Plug-In . SVG Version: 6.00 Build 0)  -->
<svg version="1.1" id="Capa_1" xmlns="http://www.w3.org/2000/svg" xmlns:xlink="http://www.w3.org/1999/xlink" x="0px" y="0px"
	 viewBox="0 0 48 48" style="enable-background:new 0 0 48 48;" xml:space="preserve">
<style type="text/css">
	.st0{fill:none;}
	.st1{fill:#FFFFFF;}
	.st2{fill:#F2B705;}
	.st3{fill:#040423;}
	.st4{fill:#8C1F33;}
	.st5{fill:#5BA566;}
	.st6{fill:#F2E3CC;}
	.st7{fill:#F15A24;}
	.st8{fill:#400101;}
	.st9{fill:#FCFCFC;}
	.st10{fill:#122B05;}
	.st11{fill:#472FAD;}
	.st12{fill:#A64F03;}
	.st13{fill:#D98E04;}
	.st14{fill:none;stroke:#FFFFFF;stroke-miterlimit:10;}
	.st15{fill:#F2F2F2;}
	.st16{fill:#2FD812;}
	.st17{fill:#AA8D30;}
	.st18{fill:#B0EAB7;}
	.st19{fill:#111147;}
	.st20{fill:none;stroke:#472FAD;stroke-width:0;stroke-linecap:round;stroke-linejoin:round;}
	.st21{fill:#F2B705;stroke:#472FAD;stroke-miterlimit:10;}
	.st22{fill:#231A56;}
	.st23{fill:#EA0070;}
	.st24{fill:#158035;}
	.st25{fill:#F9B331;}
	.st26{opacity:0.4;}
	.st27{fill:#0F0E0D;}
	.st28{fill:#E0245E;}
	.st29{fill:#050535;}
	.st30{fill:#F2EBDF;}
	.st31{fill:#1E1E1E;}
</style>
<g>
	<g>
		<path class="st30" d="M38.29,36.44h-6.8V25.93c0-1.32-1.08-2.4-2.4-2.4c-1.07,0-2.01,0.7-2.31,1.72v11.19h-6.91V18.08h6.91v1.28
			c0.89-0.8,2.37-1.62,4.69-1.62c6.19,0,6.81,6.82,6.81,6.89L38.29,36.44z M32.71,35.22h4.36V24.68c-0.02-0.19-0.54-5.72-5.59-5.72
			c-3.64,0-4.7,2.32-4.74,2.42l-1.17,2.68l0-4.76H21.1v15.91h4.46l0.02-10.21c0.42-1.59,1.86-2.7,3.51-2.7c2,0,3.62,1.63,3.62,3.62
			V35.22z M17.89,36.44h-6.89V18.08h6.89V36.44z M12.23,35.22h4.44V19.3h-4.44V35.22z M14.5,17.02c-2.08,0-3.77-1.58-3.77-3.52
			s1.69-3.52,3.77-3.52c2.08,0,3.77,1.58,3.77,3.52S16.58,17.02,14.5,17.02z M14.5,11.21c-1.4,0-2.54,1.03-2.54,2.3
			s1.14,2.3,2.54,2.3c1.4,0,2.54-1.03,2.54-2.3S15.9,11.21,14.5,11.21z"/>
	</g>
	<g>
		<path class="st30" d="M24,48C10.77,48,0,37.23,0,24C0,10.77,10.77,0,24,0s24,10.77,24,24C48,37.23,37.23,48,24,48z M24,1.83
			C11.78,1.83,1.83,11.78,1.83,24c0,12.22,9.94,22.17,22.17,22.17S46.17,36.22,46.17,24C46.17,11.78,36.22,1.83,24,1.83z"/>
	</g>
</g>
</svg>
