<?xml version="1.0" encoding="utf-8"?>
<!-- Generator: Adobe Illustrator 27.1.0, SVG Export Plug-In . SVG Version: 6.00 Build 0)  -->
<svg version="1.1" id="Capa_1" xmlns="http://www.w3.org/2000/svg" xmlns:xlink="http://www.w3.org/1999/xlink" x="0px" y="0px"
	 viewBox="0 0 48 48" style="enable-background:new 0 0 48 48;" xml:space="preserve">
<style type="text/css">
	.st0{fill:none;}
	.st1{fill:#FFFFFF;}
	.st2{fill:#F2B705;}
	.st3{fill:#040423;}
	.st4{fill:#8C1F33;}
	.st5{fill:#5BA566;}
	.st6{fill:#F2E3CC;}
	.st7{fill:#F15A24;}
	.st8{fill:#400101;}
	.st9{fill:#FCFCFC;}
	.st10{fill:#122B05;}
	.st11{fill:#472FAD;}
	.st12{fill:#A64F03;}
	.st13{fill:#D98E04;}
	.st14{fill:none;stroke:#FFFFFF;stroke-miterlimit:10;}
	.st15{fill:#F2F2F2;}
	.st16{fill:#2FD812;}
	.st17{fill:#AA8D30;}
	.st18{fill:#B0EAB7;}
	.st19{fill:#111147;}
	.st20{fill:none;stroke:#472FAD;stroke-width:0;stroke-linecap:round;stroke-linejoin:round;}
	.st21{fill:#F2B705;stroke:#472FAD;stroke-miterlimit:10;}
	.st22{fill:#231A56;}
	.st23{fill:#EA0070;}
	.st24{fill:#158035;}
	.st25{fill:#F9B331;}
	.st26{opacity:0.4;}
	.st27{fill:#0F0E0D;}
	.st28{fill:#E0245E;}
	.st29{fill:#050535;}
	.st30{fill:#F2EBDF;}
	.st31{fill:#1E1E1E;}
</style>
<g>
	<g>
		<g>
			<path class="st30" d="M37.09,12.81l-1.01,0.57c-0.81,0.45-1.53,0.79-2.15,1c-0.4,0.14-0.67,0.19-0.82,0.21
				c-1.09-1.01-2.5-1.56-4-1.56c-3.24,0-5.88,2.64-5.88,5.88c0,0.17,0.01,0.33,0.02,0.49c-6.56-0.79-9.76-5.1-9.79-5.14l-0.57-0.79
				l-0.46,0.85c-1.47,2.72-0.6,4.95,0.37,6.32c-0.22-0.08-0.36-0.13-0.36-0.13l-0.91-0.37l0.06,0.98c0.15,2.34,1.25,3.77,2.34,4.62
				l-0.67-0.1l0.26,0.91c0.69,2.43,2.66,3.48,3.98,3.92c-2.14,1.27-5.99,1.22-6.19,1.22l-2.18-0.03l1.84,1.16
				c2.42,1.52,5.19,2.33,8,2.33c9.46,0,15.58-6.05,15.99-15.77c0,0,0-0.01,0-0.01c1.45-1.25,2.59-2.83,2.64-2.9l0.97-1.35l-3.6,1.23
				C36.5,15.2,37.09,12.81,37.09,12.81z M34.02,16.77l1.47,0.36c-0.43,0.48-0.94,1-1.49,1.45l-0.21,0.17l-0.01,0.27
				c0,0.08-0.01,0.16-0.02,0.27c-0.38,9.15-5.9,14.61-14.77,14.61c-1.86,0-3.71-0.38-5.42-1.12c1.9-0.2,4.46-0.75,5.73-2.24
				l0.74-0.87l-1.14-0.13c-0.03,0-2.7-0.34-3.86-2.51c0,0,0,0,0,0c0.46,0,1-0.04,1.48-0.19l2.21-0.68l-2.27-0.5
				c-0.13-0.03-2.86-0.66-3.52-3.69c0.48,0.14,1.07,0.28,1.62,0.32l2.09,0.14l-1.69-1.24c-0.13-0.1-2.96-2.22-1.84-5.44
				c1.37,1.46,4.89,4.5,10.8,4.94l0.83,0.06l-0.19-0.81c-0.08-0.33-0.12-0.68-0.12-1.04c0-2.57,2.09-4.66,4.66-4.66
				c1.26,0,2.44,0.5,3.32,1.39l0.15,0.15l0.21,0.03c0.12,0.01,0.58,0.03,1.52-0.29c0.26-0.09,0.53-0.19,0.82-0.32
				C34.88,15.56,34.02,16.77,34.02,16.77z"/>
		</g>
	</g>
	<g>
		<path class="st30" d="M24,48C10.77,48,0,37.23,0,24C0,10.77,10.77,0,24,0s24,10.77,24,24C48,37.23,37.23,48,24,48z M24,1.83
			C11.78,1.83,1.83,11.78,1.83,24c0,12.22,9.94,22.17,22.17,22.17S46.17,36.22,46.17,24C46.17,11.78,36.22,1.83,24,1.83z"/>
	</g>
</g>
</svg>
