<?xml version="1.0" encoding="utf-8"?>
<!-- Generator: Adobe Illustrator 27.1.0, SVG Export Plug-In . SVG Version: 6.00 Build 0)  -->
<svg version="1.1" id="Capa_1" xmlns="http://www.w3.org/2000/svg" xmlns:xlink="http://www.w3.org/1999/xlink" x="0px" y="0px"
	 width="16px" height="16px" viewBox="0 0 16 16" style="enable-background:new 0 0 16 16;" xml:space="preserve">
<style type="text/css">
	.st0{fill:none;}
	.st1{fill:#FFFFFF;}
	.st2{fill:#F2B705;}
	.st3{fill:#040423;}
	.st4{fill:#8C1F33;}
	.st5{fill:#5BA566;}
	.st6{fill:#F2E3CC;}
	.st7{fill:#F15A24;}
	.st8{fill:#400101;}
	.st9{fill:#FCFCFC;}
	.st10{fill:#122B05;}
	.st11{fill:#472FAD;}
	.st12{fill:#A64F03;}
	.st13{fill:#D98E04;}
	.st14{fill:#F2F2F2;}
	.st15{fill:#2FD812;}
	.st16{fill:#AA8D30;}
	.st17{fill:#B0EAB7;}
	.st18{fill:#111147;}
	.st19{fill:none;stroke:#472FAD;stroke-width:0;stroke-linecap:round;stroke-linejoin:round;}
	.st20{fill:#F2B705;stroke:#472FAD;stroke-miterlimit:10;}
	.st21{fill:#231A56;}
	.st22{fill:#EA0070;}
	.st23{fill:#158035;}
	.st24{fill:#F9B331;}
	.st25{opacity:0.4;}
	.st26{fill:#0F0E0D;}
	.st27{fill:#E0245E;}
	.st28{fill:#050535;}
	.st29{fill:#F2EBDF;}
</style>
<path class="st8" d="M4.47,0.91c2.1,0,3.15,0.43,3.15,1.3c0,0.24-0.05,0.43-0.16,0.57C7.34,2.93,7.14,3.1,6.84,3.28
	c-0.26,0.16-0.43,0.37-0.5,0.64S6.23,4.7,6.23,5.5c0,0.47,0.09,0.76,0.26,0.87c0.1,0.07,0.25,0.11,0.46,0.12
	c0.2,0.01,0.69,0.02,1.45,0.02c0.69,0,1.12-0.04,1.29-0.11c0.17-0.07,0.25-0.26,0.25-0.55c0-0.89-0.04-1.51-0.12-1.86
	C9.74,3.64,9.58,3.4,9.35,3.28c-0.3-0.17-0.49-0.31-0.58-0.43C8.67,2.73,8.62,2.57,8.62,2.38c0-0.28,0.1-0.53,0.31-0.75
	C9.14,1.4,9.41,1.25,9.75,1.17c0.7-0.17,1.58-0.25,2.63-0.25c1.24,0,2.15,0.11,2.74,0.34C15.71,1.48,16,1.83,16,2.31
	c0,0.4-0.21,0.71-0.63,0.91c-0.26,0.12-0.43,0.24-0.51,0.35s-0.14,0.32-0.19,0.62c-0.03,0.17-0.06,0.91-0.1,2.24
	c-0.04,1.32-0.06,2.38-0.06,3.16c0,1.36,0.05,2.23,0.15,2.6c0.05,0.2,0.11,0.34,0.18,0.4c0.07,0.07,0.28,0.2,0.64,0.4
	c0.26,0.14,0.38,0.36,0.38,0.65c0,0.51-0.3,0.88-0.91,1.11c-0.61,0.23-1.59,0.35-2.96,0.35c-1.2,0-2.08-0.12-2.65-0.35
	c-0.52-0.22-0.78-0.55-0.78-1c0-0.38,0.2-0.68,0.59-0.9c0.19-0.11,0.33-0.22,0.4-0.32c0.07-0.11,0.14-0.31,0.21-0.59
	c0.12-0.56,0.18-1.26,0.18-2.08c0-0.42-0.06-0.69-0.19-0.79c-0.12-0.1-0.45-0.15-0.97-0.15c-1.2,0-1.97,0.07-2.3,0.2
	C6.35,9.17,6.26,9.33,6.23,9.59c-0.04,0.32-0.06,0.72-0.06,1.19c0,0.77,0.11,1.32,0.32,1.65c0.07,0.11,0.25,0.25,0.52,0.41
	c0.28,0.16,0.42,0.43,0.42,0.8c0,0.47-0.33,0.83-0.98,1.08c-0.65,0.25-1.58,0.37-2.79,0.37c-1.1,0-2-0.11-2.7-0.34
	c-0.3-0.1-0.54-0.24-0.71-0.43C0.09,14.14,0,13.93,0,13.71c0-0.22,0.05-0.39,0.16-0.51c0.11-0.12,0.34-0.28,0.71-0.46
	c0.19-0.09,0.32-0.22,0.4-0.36c0.08-0.15,0.14-0.4,0.18-0.75c0.1-0.79,0.15-1.81,0.15-3.09c0-0.24,0-0.51-0.01-0.84
	C1.56,6.09,1.54,5.17,1.54,4.94C1.55,4.36,1.5,3.98,1.4,3.8c-0.1-0.18-0.38-0.39-0.82-0.61c-0.3-0.14-0.44-0.35-0.44-0.64
	c0-0.68,0.66-1.15,1.98-1.41C2.87,0.98,3.66,0.91,4.47,0.91z"/>
</svg>
