<?xml version="1.0" encoding="utf-8"?>
<!-- Generator: Adobe Illustrator 27.1.0, SVG Export Plug-In . SVG Version: 6.00 Build 0)  -->
<svg version="1.1" id="Capa_1" xmlns="http://www.w3.org/2000/svg" xmlns:xlink="http://www.w3.org/1999/xlink" x="0px" y="0px"
	 width="140px" height="140px" viewBox="0 0 140 140" style="enable-background:new 0 0 140 140;" xml:space="preserve">
<style type="text/css">
	.st0{fill:none;}
	.st1{fill:#FFFFFF;}
	.st2{fill:#F2B705;}
	.st3{fill:#040423;}
	.st4{fill:#8C1F33;}
	.st5{fill:#5BA566;}
	.st6{fill:#F2E3CC;}
	.st7{fill:#F15A24;}
	.st8{fill:#400101;}
	.st9{fill:#FCFCFC;}
	.st10{fill:#122B05;}
	.st11{fill:#472FAD;}
	.st12{fill:#A64F03;}
	.st13{fill:#D98E04;}
	.st14{fill:#F2F2F2;}
	.st15{fill:#2FD812;}
	.st16{fill:#AA8D30;}
	.st17{fill:#B0EAB7;}
	.st18{fill:#111147;}
	.st19{fill:none;stroke:#472FAD;stroke-width:0;stroke-linecap:round;stroke-linejoin:round;}
	.st20{fill:#F2B705;stroke:#472FAD;stroke-miterlimit:10;}
	.st21{fill:#231A56;}
	.st22{fill:#EA0070;}
	.st23{fill:#158035;}
	.st24{fill:#F9B331;}
	.st25{opacity:0.4;}
	.st26{fill:#0F0E0D;}
	.st27{fill:#E0245E;}
	.st28{fill:#050535;}
	.st29{fill:#F2EBDF;}
</style>
<g>
	<path class="st1" d="M30.33,122.16c29.11,24.4,67.32,8.3,77.21,0c2.83-2.37,4.35-4.67,4.29-6.47c-0.02-0.57-0.19-1.05-0.41-1.44
		c-6.14,3.57-14.99,7.88-27.16,12.07c-1.23,0.42-2.57-0.19-3.05-1.4c-0.48-1.21,0.07-2.58,1.25-3.11l28.16-12.77
		c4.44-2.7,7.08-4.8,8.24-5.8c-0.06-1.32-0.45-2.35-1.16-3.14c-0.99-1.1-2.46-1.52-3.3-1.68c-6.13,3.94-14.97,8.14-26.47,12.56
		c-1.22,0.47-2.59-0.11-3.11-1.31s0.01-2.59,1.18-3.15l26.7-12.78c5.05-3.37,6.58-5.67,7.03-6.86c0.23-0.61,0.17-0.91,0.14-1
		c-0.14-0.17-0.26-0.37-0.35-0.57c-1.71-3.9-6.3-3.79-7.73-3.65c-5.27,3.41-13.34,7.55-25.67,12.73c-1.21,0.51-2.6-0.04-3.15-1.23
		c-0.55-1.19-0.05-2.6,1.13-3.19l25.66-12.77c1.41-0.93,2.61-1.82,3.61-2.66c3.34-2.83,3.32-4.19,3.3-5.19l0-0.34
		c0-3.06-3.52-5.12-9.66-5.67c-8.11-0.72-20.61,0.83-24.67,1.38c-0.71,1.61-1.52,3.28-2.46,5.02c-0.17,0.31-0.41,0.59-0.69,0.8
		c-0.41,0.33-1.68,1.6-0.75,3.89c0.69,0.35,3.24,1.18,9.52-0.76c8.47-2.61,10.55-4.98,10.57-5c-0.05,0.06-0.07,0.09-0.07,0.09
		l3.98,2.8c-0.41,0.58-2.97,3.65-13.04,6.76c-3.43,1.06-6.12,1.44-8.21,1.44c-4.5,0-6.21-1.76-6.6-2.25
		c-0.1-0.13-0.19-0.26-0.26-0.4c-2.42-4.73-0.29-8.43,1.49-10.06c7.25-13.7,6.38-22.11,4.36-26.76c-1.71-3.93-4.27-5.34-4.71-5.46
		c-0.64-0.14-2.41,1.39-3.57,3.03c-4.48,13.76-15.61,31.24-25.24,35.57c-8.79,3.96-21.07,3.16-21.59,3.13
		c-0.69-0.05-1.29-0.38-1.7-0.87c-5.01,6.29-17.04,25.68,3.18,47.4c0.09-0.21,0.2-0.42,0.36-0.6
		C27.77,121.43,29.3,121.29,30.33,122.16z"/>
	<path class="st11" d="M124.63,87.45c0.41-1.91-0.11-3.48-0.79-4.41c-1.46-3.08-3.94-4.75-6.48-5.59c3.68-3.41,4.21-5.96,4.17-8.19
		l0-0.25c0-2.78-1.37-9.38-14.09-10.51c-7.3-0.65-17.5,0.37-23.1,1.06c3.41-10.28,2.12-17.31,0.07-21.71
		c-2.09-4.47-5.58-7.3-7.95-7.79c-4.4-0.91-8.11,4.31-8.81,5.37c-0.12,0.19-0.22,0.39-0.29,0.6c-4.43,13.89-15.26,29.6-22.72,32.95
		c-7.67,3.45-19.14,2.72-19.26,2.71c-1.34-0.09-2.5,0.92-2.59,2.26c-0.04,0.65,0.17,1.25,0.56,1.72c0.41,0.49,1.01,0.83,1.7,0.87
		c0.52,0.04,12.8,0.83,21.59-3.13c9.63-4.33,20.76-21.81,25.24-35.57c1.16-1.64,2.93-3.16,3.57-3.03c0.43,0.11,3,1.53,4.71,5.46
		c2.02,4.66,2.89,13.07-4.36,26.76c-1.78,1.63-3.91,5.33-1.49,10.06c0.07,0.14,0.16,0.28,0.26,0.4c0.39,0.49,2.1,2.25,6.6,2.25
		c2.09,0,4.78-0.38,8.21-1.44c10.08-3.11,12.63-6.18,13.04-6.76l-3.98-2.8c0,0,0.02-0.03,0.07-0.09c-0.02,0.02-2.09,2.39-10.57,5
		c-6.28,1.94-8.83,1.11-9.52,0.76c-0.94-2.29,0.34-3.56,0.75-3.89c0.29-0.21,0.52-0.49,0.69-0.8c0.94-1.74,1.75-3.41,2.46-5.02
		c4.06-0.55,16.56-2.1,24.67-1.38c6.14,0.55,9.66,2.61,9.66,5.67l0,0.34c0.02,1,0.04,2.36-3.3,5.19c-1,0.84-2.2,1.73-3.61,2.66
		L84.1,89.96c-1.17,0.58-1.67,2-1.13,3.19c0.55,1.19,1.94,1.74,3.15,1.23c12.32-5.18,20.4-9.32,25.67-12.73
		c1.44-0.14,6.02-0.25,7.73,3.65c0.09,0.21,0.21,0.4,0.35,0.57c0.03,0.08,0.09,0.39-0.14,1c-0.45,1.19-1.98,3.49-7.03,6.86
		l-26.7,12.78c-1.18,0.56-1.7,1.96-1.18,3.15s1.88,1.78,3.11,1.31c11.5-4.42,20.33-8.62,26.47-12.56c0.84,0.16,2.31,0.59,3.3,1.68
		c0.72,0.79,1.1,1.82,1.16,3.14c-1.16,1-3.8,3.1-8.24,5.8l-28.16,12.77c-1.18,0.54-1.74,1.91-1.25,3.11
		c0.48,1.21,1.82,1.82,3.05,1.4c12.17-4.2,21.02-8.51,27.16-12.07c0.22,0.39,0.39,0.88,0.41,1.44c0.06,1.8-1.47,4.1-4.29,6.47
		c-9.89,8.3-48.1,24.4-77.21,0c-1.03-0.86-2.56-0.73-3.42,0.3c-0.16,0.19-0.27,0.39-0.36,0.6c-0.41,0.96-0.18,2.11,0.66,2.82
		C40.36,136.91,54.68,140,66.61,140c3.84,0,7.42-0.32,10.65-0.8c14.63-2.17,27.57-8.43,33.4-13.32c4.16-3.49,6.19-7.02,6.02-10.48
		c-0.07-1.5-0.54-2.74-1.12-3.71c4.99-3.25,7.24-5.46,7.44-5.65c0.42-0.42,0.67-0.98,0.71-1.58c0.18-3.11-0.63-5.68-2.41-7.64
		c-0.69-0.76-1.45-1.35-2.22-1.8C122.27,92.37,124.13,89.84,124.63,87.45z"/>
	<path class="st11" d="M51.06,28.56c0.48,0.59,1.18,0.89,1.89,0.89c0.54,0,1.08-0.18,1.54-0.55c1.04-0.85,1.2-2.38,0.35-3.42
		l-6.46-7.92c-0.85-1.04-2.38-1.2-3.42-0.35c-1.04,0.85-1.2,2.38-0.35,3.42L51.06,28.56z"/>
	<path class="st11" d="M75.21,18.38c0.12,0.02,0.24,0.03,0.35,0.03c1.19,0,2.23-0.87,2.4-2.08l1.97-13.54
		c0.19-1.33-0.73-2.56-2.06-2.76c-1.33-0.19-2.56,0.73-2.76,2.06l-1.97,13.54C72.96,16.95,73.88,18.19,75.21,18.38z"/>
	<path class="st11" d="M89.83,32.16c0.47,0,0.94-0.13,1.35-0.41l13.34-8.96c1.11-0.75,1.41-2.26,0.66-3.37
		c-0.75-1.11-2.26-1.41-3.37-0.66l-13.34,8.96c-1.11,0.75-1.41,2.26-0.66,3.37C88.28,31.78,89.04,32.16,89.83,32.16z"/>
</g>
</svg>
