<?xml version="1.0" encoding="utf-8"?>
<!-- Generator: Adobe Illustrator 27.1.0, SVG Export Plug-In . SVG Version: 6.00 Build 0)  -->
<svg version="1.1" id="Capa_1" xmlns="http://www.w3.org/2000/svg" xmlns:xlink="http://www.w3.org/1999/xlink" x="0px" y="0px"
	 width="48px" height="48px" viewBox="0 0 48 48" style="enable-background:new 0 0 48 48;" xml:space="preserve">
<style type="text/css">
	.st0{fill:none;}
	.st1{fill:#FFFFFF;}
	.st2{fill:#F2B705;}
	.st3{fill:#040423;}
	.st4{fill:#8C1F33;}
	.st5{fill:#5BA566;}
	.st6{fill:#F2E3CC;}
	.st7{fill:#F15A24;}
	.st8{fill:#400101;}
	.st9{fill:#FCFCFC;}
	.st10{fill:#122B05;}
	.st11{fill:#472FAD;}
	.st12{fill:#A64F03;}
	.st13{fill:#D98E04;}
	.st14{fill:#F2F2F2;}
	.st15{fill:#2FD812;}
	.st16{fill:#AA8D30;}
	.st17{fill:#B0EAB7;}
	.st18{fill:#111147;}
	.st19{fill:none;stroke:#472FAD;stroke-width:0;stroke-linecap:round;stroke-linejoin:round;}
	.st20{fill:#F2B705;stroke:#472FAD;stroke-miterlimit:10;}
	.st21{fill:#231A56;}
	.st22{fill:#EA0070;}
	.st23{fill:#158035;}
	.st24{fill:#F9B331;}
	.st25{opacity:0.4;}
	.st26{fill:#0F0E0D;}
	.st27{fill:#E0245E;}
	.st28{fill:#050535;}
	.st29{fill:#F2EBDF;}
</style>
<g>
	<g>
		<path class="st28" d="M0,4L0,4c0-2.21,1.79-4,4-4h40c2.21,0,4,1.79,4,4v0c0,2.21-1.79,4-4,4H4C1.79,8,0,6.21,0,4z"/>
	</g>
	<g>
		<path class="st28" d="M1.85,24L1.85,24c0-2.21,1.65-4,3.69-4h36.91c2.04,0,3.69,1.79,3.69,4v0c0,2.21-1.65,4-3.69,4H5.55
			C3.51,28,1.85,26.21,1.85,24z"/>
	</g>
	<g>
		<path class="st28" d="M0,44L0,44c0-2.21,1.79-4,4-4h40c2.21,0,4,1.79,4,4v0c0,2.21-1.79,4-4,4H4C1.79,48,0,46.21,0,44z"/>
	</g>
</g>
</svg>
