<?xml version="1.0" encoding="utf-8"?>
<!-- Generator: Adobe Illustrator 27.1.0, SVG Export Plug-In . SVG Version: 6.00 Build 0)  -->
<svg version="1.1" id="Capa_1" xmlns="http://www.w3.org/2000/svg" xmlns:xlink="http://www.w3.org/1999/xlink" x="0px" y="0px"
	 viewBox="0 0 48 48" style="enable-background:new 0 0 48 48;" xml:space="preserve">
<style type="text/css">
	.st0{fill:none;}
	.st1{fill:#FFFFFF;}
	.st2{fill:#F2B705;}
	.st3{fill:#040423;}
	.st4{fill:#8C1F33;}
	.st5{fill:#5BA566;}
	.st6{fill:#F2E3CC;}
	.st7{fill:#F15A24;}
	.st8{fill:#400101;}
	.st9{fill:#FCFCFC;}
	.st10{fill:#122B05;}
	.st11{fill:#472FAD;}
	.st12{fill:#A64F03;}
	.st13{fill:#D98E04;}
	.st14{fill:none;stroke:#FFFFFF;stroke-miterlimit:10;}
	.st15{fill:#F2F2F2;}
	.st16{fill:#2FD812;}
	.st17{fill:#AA8D30;}
	.st18{fill:#B0EAB7;}
	.st19{fill:#111147;}
	.st20{fill:none;stroke:#472FAD;stroke-width:0;stroke-linecap:round;stroke-linejoin:round;}
	.st21{fill:#F2B705;stroke:#472FAD;stroke-miterlimit:10;}
	.st22{fill:#231A56;}
	.st23{fill:#EA0070;}
	.st24{fill:#158035;}
	.st25{fill:#F9B331;}
	.st26{opacity:0.4;}
	.st27{fill:#0F0E0D;}
	.st28{fill:#E0245E;}
	.st29{fill:#050535;}
	.st30{fill:#F2EBDF;}
	.st31{fill:#1E1E1E;}
</style>
<g>
	<g>
		<path class="st30" d="M24,30.11c-3.37,0-6.11-2.74-6.11-6.11c0-3.37,2.74-6.11,6.11-6.11s6.11,2.74,6.11,6.11
			C30.11,27.37,27.37,30.11,24,30.11z M24,19.12c-2.69,0-4.88,2.19-4.88,4.88c0,2.69,2.19,4.88,4.88,4.88s4.88-2.19,4.88-4.88
			C28.88,21.31,26.69,19.12,24,19.12z"/>
	</g>
	<g>
		<path class="st30" d="M29.67,35.46H18.33c-3.19,0-5.79-2.6-5.79-5.79V18.33c0-3.19,2.6-5.79,5.79-5.79h11.34
			c3.19,0,5.79,2.6,5.79,5.79v11.34C35.46,32.86,32.86,35.46,29.67,35.46z M18.33,13.76c-2.52,0-4.56,2.05-4.56,4.56v11.34
			c0,2.52,2.05,4.57,4.56,4.57h11.34c2.52,0,4.56-2.05,4.56-4.57V18.33c0-2.52-2.05-4.56-4.56-4.56H18.33z M30.82,19.47
			c-1.24,0-2.24-1.01-2.24-2.24s1.01-2.24,2.24-2.24c1.24,0,2.24,1.01,2.24,2.24S32.06,19.47,30.82,19.47z M30.82,16.21
			c-0.56,0-1.02,0.46-1.02,1.02s0.46,1.02,1.02,1.02c0.56,0,1.02-0.46,1.02-1.02S31.38,16.21,30.82,16.21z"/>
	</g>
	<g>
		<path class="st30" d="M24,48C10.77,48,0,37.23,0,24C0,10.77,10.77,0,24,0s24,10.77,24,24C48,37.23,37.23,48,24,48z M24,1.83
			C11.78,1.83,1.83,11.78,1.83,24c0,12.22,9.94,22.17,22.17,22.17S46.17,36.22,46.17,24C46.17,11.78,36.22,1.83,24,1.83z"/>
	</g>
</g>
</svg>
