<?xml version="1.0" encoding="utf-8"?>
<!-- Generator: Adobe Illustrator 27.1.0, SVG Export Plug-In . SVG Version: 6.00 Build 0)  -->
<svg version="1.1" id="Capa_1" xmlns="http://www.w3.org/2000/svg" xmlns:xlink="http://www.w3.org/1999/xlink" x="0px" y="0px"
	 width="140px" height="140px" viewBox="0 0 140 140" style="enable-background:new 0 0 140 140;" xml:space="preserve">
<style type="text/css">
	.st0{fill:none;}
	.st1{fill:#FFFFFF;}
	.st2{fill:#F2B705;}
	.st3{fill:#040423;}
	.st4{fill:#8C1F33;}
	.st5{fill:#5BA566;}
	.st6{fill:#F2E3CC;}
	.st7{fill:#F15A24;}
	.st8{fill:#400101;}
	.st9{fill:#FCFCFC;}
	.st10{fill:#122B05;}
	.st11{fill:#472FAD;}
	.st12{fill:#A64F03;}
	.st13{fill:#D98E04;}
	.st14{fill:#F2F2F2;}
	.st15{fill:#2FD812;}
	.st16{fill:#AA8D30;}
	.st17{fill:#B0EAB7;}
	.st18{fill:#111147;}
	.st19{fill:none;stroke:#472FAD;stroke-width:0;stroke-linecap:round;stroke-linejoin:round;}
	.st20{fill:#F2B705;stroke:#472FAD;stroke-miterlimit:10;}
	.st21{fill:#231A56;}
	.st22{fill:#EA0070;}
	.st23{fill:#158035;}
	.st24{fill:#F9B331;}
	.st25{opacity:0.4;}
	.st26{fill:#0F0E0D;}
	.st27{fill:#E0245E;}
	.st28{fill:#050535;}
	.st29{fill:#F2EBDF;}
</style>
<g>
	<path class="st1" d="M39.54,81.33c-0.26-6.53,1.01-12.91,3.65-18.6c-5.15,3.18-10.03,7.11-14.56,11.78
		c-3.49,3.62-6.91,7.63-9.73,11.81l0.02,0.02c7.11,7.19,16.6,11.49,26.3,14.1C41.79,94.76,39.82,88.23,39.54,81.33z"/>
	<path class="st1" d="M128.78,73.56c-8.25-6.55-17.57-11.92-27.3-15.65c-0.2-0.08-0.41-0.15-0.61-0.22c4.1,6,6.47,13.19,6.78,20.86
		c0.23,5.74-0.75,11.41-2.81,16.59c1.42-0.67,2.81-1.37,4.12-2.11C117.03,88.56,125.18,82.28,128.78,73.56z"/>
	<path class="st1" d="M81.11,102.92c6.19-1.43,13.48-3.45,20.17-6.21c2.7-5.5,4-11.72,3.75-18.06c-0.35-8.51-3.39-16.37-8.63-22.5
		c-17.14-5.24-34-3.62-48.88,4.12c-3.75,6.13-5.64,13.43-5.33,20.94c0.3,7.38,2.66,14.31,6.8,20.1
		C59.38,103.6,70.54,103.75,81.11,102.92z M97.38,65.38c0.6-0.41,1.42-0.25,1.83,0.36c0.21,0.31,5.05,7.65,1.89,16.23
		c-0.2,0.53-0.7,0.86-1.24,0.86c-0.15,0-0.31-0.03-0.46-0.08c-0.68-0.25-1.03-1.01-0.78-1.69c2.7-7.33-1.56-13.78-1.6-13.85
		C96.62,66.61,96.78,65.79,97.38,65.38z M60.26,78.6c0-9.01,6.31-16.31,14.09-16.31c0.26,0,0.52,0.03,0.78,0.05
		c1.13-1.47,2.89-2.43,4.89-2.43c3.42,0,6.2,2.77,6.2,6.2c0,0.96-0.24,1.87-0.63,2.68c1.78,2.73,2.86,6.13,2.86,9.82
		c0,9.01-6.31,16.31-14.09,16.31S60.26,87.61,60.26,78.6z"/>
	<path class="st11" d="M139.5,53.88c0.86-1.18,0.6-2.83-0.58-3.68c-1.18-0.86-2.83-0.6-3.68,0.58l-10.88,14.96
		c-3.13-2.59-6.44-4.96-9.91-7.09l8.63-16.57c1.01-1.94,0.26-4.32-1.68-5.33c-1.94-1.01-4.32-0.26-5.33,1.68l-8.54,16.39
		c-1.32-0.66-2.66-1.29-4.02-1.89c-2.5-1.12-5.05-2.06-7.64-2.87l7.7-18.95c0.69-1.69-0.13-3.61-1.81-4.29
		c-1.68-0.68-3.61,0.13-4.29,1.81l-8.04,19.78c-3.98-0.82-8.01-1.29-12.05-1.38V25.01c0-2.55-2.07-4.61-4.61-4.61
		s-4.61,2.07-4.61,4.61v22.5c-5.52,0.66-10.94,2.03-16.12,4.14l-9.86-17.65c-0.89-1.59-2.89-2.16-4.48-1.27
		c-1.59,0.89-2.16,2.89-1.27,4.48l9.64,17.25c-2.86,1.54-5.64,3.3-8.27,5.33c-2.27,1.68-4.42,3.51-6.47,5.45L17.95,47.96
		c-1.11-1.44-3.18-1.71-4.62-0.59c-1.44,1.11-1.7,3.18-0.59,4.62l13.95,18.05c-2.32,2.64-4.46,5.43-6.4,8.36
		c-0.33,0.5-0.64,1-0.96,1.51L4.15,69.24c-1.19-0.84-2.84-0.55-3.67,0.64c-0.84,1.19-0.55,2.84,0.64,3.67l15.46,10.86
		c0.05,0.04,0.11,0.05,0.16,0.08c-0.14,0.28-0.29,0.55-0.42,0.83c-0.21,0.37-0.35,0.83-0.38,1.24c0.08,0.39,0.41,0.89,0.68,1.15
		c0.87,0.98,1.83,1.88,2.81,2.73c5.59,4.72,11.96,8.15,18.73,10.58c-0.46,0.15-0.87,0.46-1.13,0.91l-4.61,8.21
		c-0.53,0.95-0.2,2.16,0.76,2.69c0.31,0.17,0.64,0.25,0.97,0.25c0.69,0,1.36-0.36,1.73-1.01l4.61-8.21c0.39-0.69,0.31-1.5-0.12-2.11
		c2.57,0.83,5.18,1.53,7.83,2.1c0.01,0,0.01,0,0.02,0c0,0,0,0,0,0c8.04,1.72,16.38,2.31,24.48,2.18l8.65-0.5
		c4.42-0.99,10.65-2.61,14.87-4.06c2.02-0.73,4.08-1.53,6.15-2.41c0.26-0.03,0.51-0.13,0.71-0.31
		c11.96-5.17,23.98-13.03,28.57-25.31c0.14-0.44,0.01-0.94-0.35-1.26c-0.97-1.02-1.97-2.02-3-2.98c0.06-0.06,0.12-0.12,0.17-0.19
		L139.5,53.88z M18.91,86.32c2.81-4.17,6.24-8.19,9.73-11.81c4.53-4.68,9.41-8.61,14.56-11.78c-2.64,5.69-3.91,12.07-3.65,18.6
		c0.28,6.89,2.25,13.43,5.69,19.1c-9.7-2.6-19.19-6.91-26.3-14.1L18.91,86.32z M48.97,101.33c-4.14-5.79-6.49-12.72-6.8-20.1
		c-0.3-7.52,1.59-14.82,5.33-20.94c14.88-7.74,31.74-9.36,48.88-4.12c5.24,6.12,8.28,13.99,8.63,22.5
		c0.25,6.33-1.05,12.56-3.75,18.06c-6.69,2.75-13.98,4.78-20.17,6.21C70.54,103.75,59.38,103.6,48.97,101.33z M107.66,78.55
		c-0.31-7.67-2.68-14.85-6.78-20.86c0.2,0.08,0.41,0.14,0.61,0.22c9.73,3.72,19.05,9.09,27.3,15.65c-3.6,8.72-11.75,15-19.82,19.46
		c-1.31,0.75-2.7,1.44-4.12,2.11C106.91,89.95,107.89,84.29,107.66,78.55z"/>
	<path class="st11" d="M88.43,78.6c0-3.69-1.07-7.08-2.86-9.82c0.39-0.81,0.63-1.72,0.63-2.68c0-3.42-2.77-6.2-6.2-6.2
		c-2,0-3.76,0.96-4.89,2.43c-0.26-0.02-0.52-0.05-0.78-0.05c-7.78,0-14.09,7.3-14.09,16.31s6.31,16.31,14.09,16.31
		S88.43,87.61,88.43,78.6z M80.54,61.78c1.93,0,3.49,1.56,3.49,3.49c0,1.92-1.56,3.49-3.49,3.49s-3.49-1.56-3.49-3.49
		C77.05,63.34,78.61,61.78,80.54,61.78z"/>
	<path class="st1" d="M80.54,68.75c1.93,0,3.49-1.56,3.49-3.49c0-1.92-1.56-3.49-3.49-3.49s-3.49,1.56-3.49,3.49
		C77.05,67.19,78.61,68.75,80.54,68.75z"/>
	<path class="st11" d="M98.63,81.06c-0.25,0.68,0.1,1.44,0.78,1.69c0.15,0.06,0.3,0.08,0.46,0.08c0.54,0,1.04-0.33,1.24-0.86
		c3.16-8.58-1.68-15.92-1.89-16.23c-0.41-0.6-1.23-0.76-1.83-0.36c-0.6,0.41-0.76,1.23-0.36,1.83
		C97.07,67.27,101.33,73.73,98.63,81.06z"/>
	<path class="st11" d="M59.95,106.35c-1.08-0.2-2.11,0.5-2.31,1.58l-1.73,9.14c-0.2,1.07,0.5,2.11,1.57,2.31
		c0.12,0.02,0.25,0.03,0.37,0.03c0.93,0,1.76-0.66,1.94-1.61l1.73-9.14C61.73,107.59,61.02,106.55,59.95,106.35z"/>
	<path class="st11" d="M79.1,106.86c-1.09,0.03-1.95,0.94-1.92,2.04l0.26,8.79c0.03,1.07,0.91,1.92,1.98,1.92c0.02,0,0.04,0,0.06,0
		c1.09-0.03,1.95-0.94,1.92-2.04l-0.26-8.79C81.11,107.69,80.18,106.83,79.1,106.86z"/>
	<path class="st11" d="M101.78,103.87c-0.5-0.97-1.69-1.35-2.66-0.85c-0.97,0.5-1.35,1.69-0.85,2.66l3.87,7.51
		c0.35,0.68,1.04,1.07,1.76,1.07c0.3,0,0.61-0.07,0.9-0.22c0.97-0.5,1.35-1.69,0.85-2.66L101.78,103.87z"/>
	<path class="st11" d="M114.58,96.82c-0.79-0.76-2.04-0.73-2.8,0.06c-0.76,0.79-0.73,2.04,0.06,2.8l5.3,5.08
		c0.38,0.37,0.88,0.55,1.37,0.55c0.52,0,1.04-0.2,1.43-0.61c0.76-0.79,0.73-2.04-0.06-2.8L114.58,96.82z"/>
</g>
</svg>
