<?xml version="1.0" encoding="utf-8"?>
<!-- Generator: Adobe Illustrator 27.1.0, SVG Export Plug-In . SVG Version: 6.00 Build 0)  -->
<svg version="1.1" id="Capa_1" xmlns="http://www.w3.org/2000/svg" xmlns:xlink="http://www.w3.org/1999/xlink" x="0px" y="0px"
	 viewBox="0 0 48 48" style="enable-background:new 0 0 48 48;" xml:space="preserve">
<style type="text/css">
	.st0{fill:none;}
	.st1{fill:#FFFFFF;}
	.st2{fill:#F2B705;}
	.st3{fill:#040423;}
	.st4{fill:#8C1F33;}
	.st5{fill:#5BA566;}
	.st6{fill:#F2E3CC;}
	.st7{fill:#F15A24;}
	.st8{fill:#400101;}
	.st9{fill:#FCFCFC;}
	.st10{fill:#122B05;}
	.st11{fill:#472FAD;}
	.st12{fill:#A64F03;}
	.st13{fill:#D98E04;}
	.st14{fill:#F2F2F2;}
	.st15{fill:#2FD812;}
	.st16{fill:#AA8D30;}
	.st17{fill:#B0EAB7;}
	.st18{fill:#111147;}
	.st19{fill:none;stroke:#472FAD;stroke-width:0;stroke-linecap:round;stroke-linejoin:round;}
	.st20{fill:#F2B705;stroke:#472FAD;stroke-miterlimit:10;}
	.st21{fill:#231A56;}
	.st22{fill:#EA0070;}
	.st23{fill:#158035;}
	.st24{fill:#F9B331;}
	.st25{opacity:0.4;}
	.st26{fill:#0F0E0D;}
	.st27{fill:#E0245E;}
	.st28{fill:#050535;}
</style>
<g>
	<g>
		<line class="st28" x1="3.97" y1="44.03" x2="44.03" y2="3.97"/>
		<path class="st28" d="M1.76,46.24L1.76,46.24c-2.22-2.22-2.36-5.68-0.31-7.72L38.52,1.45c2.05-2.05,5.51-1.91,7.72,0.31l0,0
			c2.22,2.22,2.36,5.68,0.31,7.72L9.48,46.55C7.44,48.6,3.98,48.46,1.76,46.24z"/>
	</g>
	<g>
		<line class="st28" x1="3.97" y1="3.97" x2="44.03" y2="44.03"/>
		<path class="st28" d="M1.76,1.76L1.76,1.76C3.98-0.46,7.44-0.6,9.48,1.45l37.07,37.07c2.05,2.05,1.91,5.51-0.31,7.72l0,0
			c-2.22,2.22-5.68,2.36-7.72,0.31L1.45,9.48C-0.6,7.44-0.46,3.98,1.76,1.76z"/>
	</g>
</g>
</svg>
