<?xml version="1.0" encoding="utf-8"?>
<!-- Generator: Adobe Illustrator 27.1.0, SVG Export Plug-In . SVG Version: 6.00 Build 0)  -->
<svg version="1.1" id="Capa_1" xmlns="http://www.w3.org/2000/svg" xmlns:xlink="http://www.w3.org/1999/xlink" x="0px" y="0px"
	 width="450px" height="450px" viewBox="0 0 450 450" style="enable-background:new 0 0 450 450;" xml:space="preserve">
<style type="text/css">
	.st0{fill:none;}
	.st1{fill:#FFFFFF;}
	.st2{fill:#F2B705;}
	.st3{fill:#040423;}
	.st4{fill:#8C1F33;}
	.st5{fill:#5BA566;}
	.st6{fill:#F2E3CC;}
	.st7{fill:#F15A24;}
	.st8{fill:#400101;}
	.st9{fill:#FCFCFC;}
	.st10{fill:#122B05;}
	.st11{fill:#472FAD;}
	.st12{fill:#A64F03;}
	.st13{fill:#D98E04;}
	.st14{fill:#F2F2F2;}
	.st15{fill:#2FD812;}
	.st16{fill:#AA8D30;}
	.st17{fill:#B0EAB7;}
	.st18{fill:#111147;}
	.st19{fill:none;stroke:#472FAD;stroke-width:0;stroke-linecap:round;stroke-linejoin:round;}
	.st20{fill:#F2B705;stroke:#472FAD;stroke-miterlimit:10;}
	.st21{fill:#231A56;}
	.st22{fill:#EA0070;}
	.st23{fill:#158035;}
	.st24{fill:#F9B331;}
	.st25{opacity:0.4;}
	.st26{fill:#0F0E0D;}
	.st27{fill:#E0245E;}
	.st28{fill:#050535;}
	.st29{fill:#F2EBDF;}
</style>
<g>
	<g>
		<path class="st4" d="M160.16,446.01c-6.56-0.43-12.89-2.42-17.96-6.98c-2.97-2.41-6.01-4.67-7.94-8.11
			c-0.23-2-0.36-3.98-0.42-5.98c-0.03-1.16-0.03-2.32-0.01-3.48c0.02-3.82,0.42-7.63,1.59-11.24c0.02-0.06,0.04-0.12,0.06-0.18
			c0.23-0.7,0.49-1.4,0.78-2.08c0.41-0.98,1.02-1.93,1.74-2.77c1.06-3.58-2.98-5.94-5.87-6.98c-11.68-3.57-23.37-9.4-32.98-17.31
			c-1.54-1.27-3.94-3.66-5.7-4.61c-9.64-5.44-7.84,17.86-7.45,22.78c2.25,14.7,11.74,27.6,23.52,36.36
			c8.79,7.93,20.44,12.35,32.09,13.85c3.11,0.3,6.57,0.52,9.69,0.45c2.09,0,4.5-0.32,6.42-0.38
			C158.82,448.51,159.62,447.28,160.16,446.01z"/>
	</g>
	<g>
		<path class="st18" d="M203.08,439.69c12.76-2.3,25.46-4.98,38.05-8.13c6.6-1.71,13.17-3.56,19.71-5.48
			c19-5.73,37.74-12.46,55.75-20.83c8.86-4.29,17.94-8.54,25.83-14.46c0.06-0.06,0.14-0.07,0.21-0.1
			c7.95-6.78,14.4-15.18,21.22-23.05c0.08-0.09,0.18-0.15,0.29-0.19c0,0,0.62-0.2,0.77-0.25c1.34-1.7,2.53-3.52,3.59-5.41
			c4.71-8.56,7.43-18.11,9.23-27.67c1-11.88-7.01-23.1-17.67-27.78c-5.06-2.35-9.76-3.63-15.21-4.61
			c-16.56-2.69-36.14,1.65-50.02,7.69c0,0,0.17-0.03,0.17-0.03l-0.28,0.12l-0.02,0.01c-1.66,0.37-3.28,0.93-4.87,1.6
			c-0.05,0.05-0.09,0.1-0.16,0.13c-2.5,1.11-4.94,2.37-7.33,3.71c-13.42,7.78-24.06,17.08-36.01,26.65
			c-19.03,15.04-38.9,30.59-58.79,44.38c-14.92,10.68-31.82,19.02-50.05,22.08c-0.82,1.61-1.36,3.38-1.75,5.18
			c-1.15,5.72-1.03,11.69-0.45,17.48c2.56,3.75,7.67,7.86,11.98,10.64c4.62,2.91,10.24,3.68,15.64,3.71
			c3.64-0.01,7.32-0.38,10.88-1.11C183.62,443.13,193.37,441.46,203.08,439.69z"/>
	</g>
	<g>
		<path class="st18" d="M302.47,435.15c0.02-0.1,0.07-0.19,0.19-0.23c1.21-0.46,2.41-0.96,3.53-1.56
			c12.07-7.26,24.14-15.8,32.08-27.63c0.27-0.42,0.53-0.86,0.78-1.29c2.14-3.87,3.36-7.88,3.21-11.92
			c-7.69,5.74-16.5,9.77-25.09,13.96c-18.09,8.36-36.97,14.85-56.05,20.52c-9.06,2.59-18.16,5.06-27.34,7.2
			c5.26,1.33,10.59,2.36,15.96,3.19C267.06,439.79,285.85,441.25,302.47,435.15z"/>
	</g>
	<path class="st1" d="M300.4,436.06c0.77-0.24,1.46-0.48,2.08-0.71c0-0.01-0.01-0.01-0.01-0.02
		C301.78,435.58,301.09,435.83,300.4,436.06z"/>
	<g>
		<path class="st18" d="M154.87,402.62c6.47-2.52,15.15-6.26,21.73-10.48c6.9-4.3,13.57-8.99,20.19-13.72
			c13.11-9.42,26.04-19.34,38.78-29.19c-7.93-7.09-16.19-14.02-25.65-18.95c-3.23-1.69-6.68-2.89-10.19-3.34l-2.1-1.25
			c-0.15-0.08-0.23-0.21-0.26-0.35c-10.36-6.1-20.99-11.84-32.2-16.18c-4.1-1.55-8.33-2.84-12.59-3.21
			c-10.5-3.93-21.96-6.36-33.6-5.65c-13.05,0.93-26.68,3.05-37.22,11.3c-5.22,3.89-9.55,9.22-10.85,15.68
			c-1.39,6.49,1.07,13.15,5.44,18.02c4.26,7.11,9.23,13.85,14.65,20.14c6.86,7.76,14.49,15.06,23.63,20.03
			C127.57,392.22,141.28,397.39,154.87,402.62z"/>
	</g>
	<path class="st13" d="M359.02,418.16c-0.69,0.63-1.4,1.24-2.11,1.84C357.58,419.46,358.29,418.84,359.02,418.16z"/>
	<g>
		<path class="st4" d="M379.31,378.12c-0.18-4.97-2.62-11.75-8.03-11.54c0,0-5.54,1.79-6.54,2.12c-0.24,0.26-1.4,1.52-1.4,1.52
			c-5.82,7.24-12.55,15.05-19.92,21.33c0.92,10.78-7.35,19.65-14.65,26.52c-3.87,3.52-8.02,6.7-12.31,9.67
			c-4,2.63-7.96,5.5-12.39,7.36c18.33,2.98,37.03-3.81,51.86-14.42C366.84,411.76,380.08,392.61,379.31,378.12z"/>
	</g>
	<path class="st11" d="M378.47,369.68c-1.41-2.61-4.33-4.78-7.61-4.39c0,0-4.03,1.31-5.59,1.81c1.27-1.64,2.42-3.4,3.41-5.2
		c4.7-8.6,7.42-18.15,9.2-27.75c1.11-11.98-6.91-23.37-17.63-28.17c-1.48-0.58-2.79-1.33-4.42-1.91c-3.49-1.18-7.24-2.22-10.87-2.86
		c-14.89-2.62-33.57,0.8-46.56,5.81c4.37-2.75,8.68-5.61,13.01-8.43c5.34-3.7,11.02-7,15.8-11.42c4.23-4.98,10.41-11.55,8.57-18.66
		c-0.82-2.27-2.81-3.76-3.78-5.96c-1.51-2.93-2.73-6.01-3.86-9.14c4.81-4.83,9.79-9.99,12.79-16.16c2.32-4.6,0.56-6.25-2.45-6.5
		c-18.92-38.83-39.81-78.82-51.24-81.18c-12.91-3.72-35.12-4.19-35.2-4.18c-1.68-0.35-3.78-0.66-6.24-0.94
		c-0.19-0.02-0.39,0.04-0.53,0.17c-0.11,0.1-0.17,0.24-0.2,0.38l-4.7-0.56c7.3-5.67,16.15-10.28,20.53-18.85l1.03-11.26
		c0.14,0.02,0.28,0.02,0.41,0.02c0.05,0.03,0.1,0.07,0.13,0.08c0.06,0.03,0.05-0.02,0.03-0.08c0.02,0,0.04,0,0.06,0
		c7.84,0,14.22-8.13,14.22-18.12c0-8.44-4.59-15.76-10.98-17.64l-0.04-19.32c1.19-0.33,2.34-0.87,3.2-1.8
		c1.02-1.14,1.16-2.75,1.01-4.17c-0.43-1.52,0.82-2.62,1.84-3.55c1.09-0.95,2.25-1.76,3.49-2.56c1.47-3.6,2.14-8.28-0.82-11.33
		c-0.83-0.88-1.84-1.54-2.97-1.99c1.77-1.64,3.03-4,2.59-6.46c-0.14-0.86-0.42-1.67-0.9-2.44c-0.06-0.11-0.2-0.17-0.33-0.15
		c-10.09,0.43-20.34-0.68-29.66-4.84c-9.78-3.2-20.05-4.38-30.32-4.11c-10.42,0.57-19.99,6.26-26.89,13.86
		c-3.45,3.81-6.46,8.02-8.79,12.62c-1.31,2.29-1.87,4.98-1.77,7.59c0.03,2.41,0.32,4.78,0.7,7.13c-0.02,0.12-0.04,0.23-0.06,0.35
		c-1.11,7.51-1.03,16.61-0.91,20.78c-7.32,0.74-12.96,8-12.96,16.86c0,9.35,6.37,16.95,14.21,16.95c0.52,0,1.03-0.04,1.54-0.11
		c0.98,2.88,1.99,5.74,3.06,8.59c1.79,4.48,3.24,9.44,6.88,12.86c2.61,2.82,6.76,6.77,9.41,9.08c-1.48-0.01-3.52-0.02-3.93-0.02
		c-0.1-0.05-0.2-0.09-0.31-0.1c-15.44-0.15-27.86-0.03-27.99-0.03c-0.1,0-0.19,0.02-0.28,0.06c-21.65,9.84-57.84,54.75-59.28,56.57
		c-6.14,5.32-6,10.62-5.46,13.14c-1.1,0.83,0.79,5.95,1.37,6.68c2.8,5.47,8.07,8.84,12.98,12.21c-0.95,4.51-1.46,9.1-1.54,13.71
		c-0.44,15.59,5.88,30.58,15.3,42.76c4.06,5.21,8.75,10.14,14.19,13.92c-7.56-1.92-15.45-2.87-23.49-2.4
		c-13.18,0.92-27.23,3.16-37.9,11.65c-5.36,4.01-9.93,9.72-11.22,16.46c-1.52,6.64,1.42,14.27,5.65,18.77
		c11.03,17.57,25.13,34.56,44.42,43.19c11,5.01,22.25,9.66,33.62,13.71c-4.92,1.71-9.96,3.07-15.08,4.03
		c0.25-0.34,0.51-0.67,0.78-1.01c1.27-3.23-1.23-6.23-3.93-7.63c-0.88-0.48-1.78-0.87-2.71-1.22c-4.69-1.38-9.31-3.24-13.77-5.33
		c-7.8-3.66-15.21-8.29-21.64-14.04c-14.02-12.27-13,13.53-12.08,21.63c2.33,14.91,12.19,28.12,24.02,36.72
		c8.99,7.97,20.71,12.29,32.51,13.72c3.13,0.29,6.61,0.46,9.73,0.36c2.18-0.07,4.36-0.29,6.52-0.47c1.12-0.95,1.95-2.09,2.44-3.49
		c4.59,0.29,9.28-0.18,13.73-1.1c9.5-0.84,19.63-2.6,29.23-4.37c9.65-1.76,19.26-3.76,28.81-6c0.01,0,0.01,0.01,0.01,0.01
		c5.79,1.49,11.67,2.62,17.58,3.43c16.41,2.06,34.77,3.34,50.75-1.93c0.7-0.23,1.39-0.48,2.08-0.73c0,0.01,0.01,0.01,0.01,0.02
		c0.04,0.11,0.11,0.21,0.25,0.23c18.86,3.22,38.09-3.85,53.29-14.8c0.31-0.25,0.59-0.52,0.89-0.78c0.71-0.6,1.42-1.21,2.11-1.84
		c8.33-7.61,14.89-17.23,19.27-27.6C380.86,383.97,381.84,376.23,378.47,369.68z M151.31,449.74c-3.12,0.07-6.57-0.15-9.69-0.45
		c-11.65-1.5-23.31-5.92-32.09-13.85c-11.78-8.76-21.28-21.66-23.52-36.36c-0.39-4.93-2.19-28.22,7.45-22.78
		c1.76,0.95,4.16,3.34,5.7,4.61c9.61,7.91,21.3,13.74,32.98,17.31c2.89,1.03,6.93,3.4,5.87,6.98c-0.72,0.84-1.33,1.79-1.74,2.77
		c-0.29,0.68-0.55,1.38-0.78,2.08c-0.02,0.06-0.04,0.12-0.06,0.18c-1.17,3.61-1.57,7.42-1.59,11.24c-0.02,1.16-0.02,2.32,0.01,3.48
		c0.06,2,0.19,3.98,0.42,5.98c1.94,3.44,4.98,5.7,7.94,8.11c5.07,4.56,11.4,6.55,17.96,6.98c-0.54,1.27-1.34,2.51-2.43,3.35
		C155.81,449.42,153.4,449.73,151.31,449.74z M147.29,441.4c-4.31-2.78-9.41-6.9-11.98-10.64c-0.58-5.79-0.7-11.75,0.45-17.48
		c0.39-1.8,0.93-3.57,1.75-5.18c18.23-3.06,35.13-11.4,50.05-22.08c19.89-13.79,39.76-29.34,58.79-44.38
		c11.96-9.57,22.59-18.87,36.01-26.65c2.39-1.35,4.82-2.6,7.33-3.71c0.06-0.03,0.11-0.08,0.16-0.13c1.59-0.67,3.21-1.24,4.87-1.6
		l0.02-0.01l0.28-0.12c0,0-0.17,0.03-0.17,0.03c13.88-6.03,33.46-10.38,50.02-7.69c5.45,0.98,10.14,2.26,15.21,4.61
		c10.66,4.67,18.67,15.9,17.67,27.78c-1.8,9.56-4.53,19.11-9.23,27.67c-1.05,1.89-2.25,3.71-3.59,5.41
		c-0.16,0.05-0.77,0.25-0.77,0.25c-0.11,0.03-0.21,0.1-0.29,0.19c-6.82,7.87-13.26,16.27-21.22,23.05c-0.07,0.02-0.15,0.04-0.21,0.1
		c-7.89,5.92-16.98,10.16-25.83,14.46c-18.01,8.37-36.74,15.1-55.75,20.83c-6.54,1.91-13.11,3.77-19.71,5.48
		c-12.59,3.15-25.29,5.84-38.05,8.13c-9.71,1.76-19.46,3.44-29.27,4.3c-3.55,0.73-7.23,1.1-10.88,1.11
		C157.53,445.08,151.91,444.31,147.29,441.4z M91.01,365.44c-5.42-6.3-10.39-13.03-14.65-20.14c-4.37-4.87-6.82-11.53-5.44-18.02
		c1.3-6.46,5.63-11.79,10.85-15.68c10.54-8.24,24.16-10.37,37.22-11.3c11.63-0.72,23.1,1.71,33.6,5.65
		c4.26,0.37,8.49,1.66,12.59,3.21c11.21,4.34,21.84,10.09,32.2,16.18c0.03,0.14,0.11,0.27,0.26,0.35l2.1,1.25
		c3.51,0.44,6.96,1.65,10.19,3.34c9.46,4.93,17.72,11.86,25.65,18.95c-12.74,9.85-25.67,19.78-38.78,29.19
		c-6.62,4.74-13.29,9.43-20.19,13.72c-6.58,4.21-15.26,7.95-21.73,10.48c-13.6-5.23-27.31-10.41-40.23-17.15
		C105.5,380.5,97.87,373.2,91.01,365.44z M128.98,286.83c-14.51-18.7-18.54-41.4-10.98-63.82c6.93,2.51,14.67,2.44,21.17,6.05
		c6.64,3.61,11.78,9.62,15.45,16.15c-1.1,9.79-1.93,19.69-2.7,29.53c-0.75,9.7-1.42,19.41-2.01,29.12c-1.25-0.4-4.56-1.46-4.56-1.46
		C139.86,298.95,133.3,292.74,128.98,286.83z M188.64,132.68c-3.53-3.36-4.83-8.12-6.58-12.56c-1.02-2.79-1.98-5.61-2.92-8.43
		c1.56-0.35,3.04-1.02,4.43-1.98c0.42,1.92,0.78,3.93,2.19,5.41c2.52,2.03,5.36,3.59,7.98,5.38c4.11,2.89,9.15,5.93,11.16,10.62
		c0.1,0.27,0.36,0.46,0.67,0.45c1.21-0.03,2.49,0.05,3.72,0.19c3.44,0.46,7.55,1.38,9.3,4.66c0.09,0.19,0.26,0.33,0.48,0.36
		c4.25,0.32,9.38,1.19,13.01-1.6c3.02-3.01,6.05-6.15,9.7-8.32c3.13,0.26,8.98-0.4,12.42-2.56c2.66-2.5,4.32-5.94,6.53-8.81
		c0.33-0.41,0.67-0.8,1.03-1.17c0.04,0,0.08,0.01,0.12,0.01c0,0,0,0,0,0c-0.18,1.63-1.23,11.23-1.23,11.23
		c-4.46,8.43-13.62,13.1-21.04,18.8c-4.3,2.87-8.94,5.7-13.57,8.16c-2.81,1.98-6.59,2.19-9.87,1.51
		c-6.21-2.39-11.99-6.88-17.1-11.28C196.49,140.56,191.69,136.05,188.64,132.68z M176.92,46.28c1.96-5.9,5.96-11.04,10.04-15.66
		c6.77-7.3,15.94-12.84,26.03-13.38c9.98-0.22,20.3,0.85,29.87,3.83c4.7,1.79,9.7,3.43,14.77,3.99c5,0.65,10.03,0.81,15.07,0.51
		c1.42,2.33,0.81,5.41-1.03,7.36l-0.84,0.85c-0.04,0.03-0.06,0.08-0.08,0.12c-0.04,0.15,0.04,0.31,0.19,0.35
		c5.85,1.84,6.21,7.9,4.27,12.87c-1.96,1.39-4.62,2.72-5.46,5.12c0.42,3.92-0.61,6.04-4.52,6.91c1.42-14.88-10.55-26.55-22.33-33.7
		c-12.82-6.72-28.93-4.46-41.62,0.32C190.26,27.79,185.13,39,179.4,47.33c-1.35,2.08-2.05,4.39-2.55,6.76
		C176.55,51.47,176.43,48.84,176.92,46.28z M175.92,79.53c0.37-0.02,0.66-0.33,0.65-0.7c-0.12-3.77-0.27-13.37,0.88-21.19
		c0.66-4.54,1.65-7.77,2.93-9.62c0.97-1.4,1.94-2.93,2.96-4.55c4.48-7.09,9.55-15.13,18.13-16.59c0.05-0.01,0.1-0.02,0.15-0.04
		c0.23-0.1,23-9.56,40.29-0.81c0.24,0.13,23.66,13.1,22.49,31.27l0.04,21.85c0,0.31,0.22,0.59,0.52,0.66
		c6.06,1.49,10.46,8.41,10.46,16.45c0,9.23-5.77,16.75-12.85,16.75c-0.18,0-0.34,0-0.56-0.03c-6.88-0.38-12.27-7.73-12.27-16.72
		c0-8.68,5.18-16.01,11.8-16.68c0.32-0.03,0.58-0.29,0.61-0.61c0.48-5.04,0.56-9.5,0.22-13.25c-0.21-2.37-0.59-4.44-1.12-6.16
		c-0.36-1.17-0.78-2.16-1.28-3.03c-0.95-1.69-1.82-3.42-2.74-5.25c-3.61-7.2-7.34-14.65-16.09-18.85c-0.11-0.06-7.72-4.2-18.39-4.2
		c-3.28,0-6.85,0.41-10.58,1.43c-2.49,0.65-4.92,1.52-7.24,2.62c-2.5,1.13-6.99,3.58-11.11,8.03c-0.71,0.75-1.36,1.52-1.96,2.33
		c-2.25,2.93-4.24,6.54-5.53,10.96l-1.38,4.71c-0.46,1.56-0.83,2.82-1.12,3.84c-1.29,4.43-1.29,4.62-1.27,5.67
		c0.01,0.42,0.01,0.99-0.09,2.17l-0.12,1.35c-0.26,2.89-0.56,6.17-0.7,9.11c0,0.28,0.25,0.59,0.51,0.7
		c4.41,2.64,7.15,7.99,7.15,13.95c0,5.23-2.15,10.09-5.76,13c-1.62,1.3-3.4,2.11-5.29,2.43c-0.6,0.1-1.18,0.15-1.8,0.15
		c-7.08,0-12.84-6.99-12.84-15.59C163.59,86.67,169.01,79.84,175.92,79.53z M242.87,34.72c5.37,3.16,9,8.43,11.85,13.88
		c2.77,5.66,6.54,10.58,6.91,17.11c-2.03,0.14-4.31,0.42-5.96,1.75c-0.84-1.76-2.61-2.75-4.24-3.6c-1.61-0.92-3.67-1.29-5.03-2.53
		c-2.64-2.8-6.32-4.68-10.21-4.77c-1.95-0.09-3.83,0.45-5.7,0.44c-3.96,0.33-7.15-2.03-10.77-3.2c-1.94-0.61-3.96-0.16-5.79,0.35
		c-3.7,1.14-7.08,2.99-10.36,4.95c-1.61,0.88-3.09,2.25-4.87,2.71c-3.84,0.82-7.99-2.14-10.7,2.45c-1.07,1.68-1.67,3.56-2.08,5.46
		c-0.55,2.92-1.75,5.69-2.94,8.43c0.33-4.03,0.98-12.01,0.98-12.01c2.69-9,4.47-18.99,11.57-25.73
		C207.69,28.38,228.16,26.18,242.87,34.72z M241.5,126.34c-1.92,1.06-3.59,2.45-5.23,3.86c-1.63,1.42-3.19,2.93-4.72,4.44
		c-3.41,2.49-8.39,1.6-12.36,1.25c-1.48-4.07-8.84-5.39-13.47-5.33c-2.25-5-7.14-7.89-11.41-10.94c-2.22-1.5-4.53-2.89-6.7-4.4
		c-1.13-0.7-1.9-1.56-2.27-2.88c-0.36-1.07-0.63-2.18-0.87-3.3c3.87-3.18,6.17-8.39,6.17-13.98c0-6.3-2.88-11.98-7.46-14.88
		c1.41-3.35,3.02-6.66,3.69-10.26c0.75-3.2,2.17-7.78,6.21-7.35c1.76,0.11,3.78,0.74,5.85,0.2c1.01-0.23,1.97-0.8,2.74-1.32
		c3.93-2.53,8.1-4.98,12.53-6.37c1.76-0.5,3.61-0.88,5.23-0.36c3.53,1.16,7.11,3.57,11.07,3.18c1.86-0.04,3.79-0.49,5.65-0.47
		c3.68,0.08,7.1,1.82,9.63,4.47c0.36,0.41,0.88,0.72,1.35,0.94c2.68,1.31,6.49,2.28,7.89,4.99c0.18,0.43,0.78,0.53,1.09,0.17
		c1.29-1.05,3.19-1.41,4.91-1.59c0.26,3.41,0.2,7.38-0.2,11.85c-7.04,1.08-12.47,8.84-12.47,17.97c0,9.59,5.8,17.44,13.21,18.05
		c-2.86,2.96-4.6,6.93-7.63,9.68C250.23,126.06,245.69,126.41,241.5,126.34z M199.81,144.82c4.87,4.09,10.02,8,16.08,10.18
		c2.72,0.54,5.54,0.47,8.16-0.48c2.8-1.31,5.29-3.06,8.04-4.7c0.08-0.05,0.16-0.11,0.24-0.16c1.73-1.05,3.43-2.13,5.12-3.24
		c-0.49,5.06-2.28,10.47-6.29,13.86c-8.13,6.65-21.7,5.84-28.78-1.98C199.31,154.86,197.43,149.02,199.81,144.82z M198.52,143.7
		c0.1,0.09,0.15,0.13,0.3,0.26c-0.07,0.12-0.15,0.23-0.21,0.35c-1.24,2.26-1.39,4.99-0.84,7.39c3.09,14.48,23.56,18.23,33.89,9.15
		c3.97-3.41,6.28-10.31,6-14.56c0,0,0.1-0.07,0.11-0.08c0.72-0.48,1.44-0.95,2.15-1.44c0.31,0.02,5.75,0.39,5.75,0.39
		c-0.03,11.86-5.88,23.97-18.07,27.2c-3.73,1.09-7.68,1.59-11.57,1.44c-13.25-0.13-27.81-11.2-25.14-25.51
		c0.43-1.75,1.31-3.33,2.48-4.7L198.52,143.7z M191.65,143.68c-5.91,8.14,1.26,19.33,1.34,19.44c0.09,0.14,7.85,11.79,24.21,11.78
		c2.7,0,5.64-0.32,8.81-1.06c18.09-4.2,20.23-21.57,20.38-27.96c2.1,0.25,3.92,0.53,5.49,0.85c0.22,0,22.25,0.48,35.03,4.16
		c12.21,2.53,38.31,55.79,49.92,79.6c-1.16,0.13-2.51,0.4-4.04,0.82c-0.32,0.09-0.67,0.21-1,0.31c-1.64,0.44-3.14,0.97-4.2,1.43
		c-1.33,0.51-2.63,1.09-3.91,1.7c-0.68,0.31-1.36,0.61-2.07,0.95c-11.52,5.57-24.26,14.28-31.46,19.46v-26.72
		c0-0.28-0.17-0.53-0.43-0.64c-6.2-2.42-126.32-3.1-131.43-3.12c0,0,0,0,0,0c-0.2,0-0.4,0.09-0.52,0.25
		c-0.75,0.9-1.92,3.78-3.53,18.06c-3.88-6.6-11.49-16.13-23.95-18.3c-4.37-0.75-8.57-1.82-12.47-3.17
		c-2.48-0.86-4.63-1.77-6.51-2.66c-3.35-1.91-6.57-4.03-9.69-6.32c-0.53-1.55-1.7-6.93,4.92-12.66
		c0.37-0.46,37.36-46.38,58.74-56.21C166.65,143.65,177.78,143.56,191.65,143.68z M327.1,287.08c-9.66,8.34-22.02,14.95-32.23,21.6
		c-0.03-0.01-0.07,0.01-0.11,0.03l-0.01,0c0,0-0.01,0-0.01,0c0,0,0,0,0,0c-0.03,0.01-0.33,0.14-0.33,0.14
		c-1.28,0.21-3.14,0.85-4.63,1.44l0.24-53.5c10.06-7.14,20.43-13.97,31.47-19.49c1.25,4.26,2.58,8.49,4.1,12.67
		c1.61,4.43,3.3,8.85,5.65,13c1,2.12,3.05,3.6,3.94,5.76C337.14,275.65,331.2,282.07,327.1,287.08z M259.96,329.13
		c-0.24-0.19-12.82-1.04-26.59-1.94c-7.7-0.66-15.02-1.26-19.63-1.56c-5.25-0.4-10.52-0.72-15.76-1.05
		c-0.11-0.01-0.2,0.01-0.28,0.05c-6.18-3.82-14.31-8.15-21.38-11.6c-7.35-3.41-15.53-7.26-23.37-7.93c0,0-1.85-0.7-2.32-0.87
		c0.53-9.82,1.08-19.64,1.73-29.46c0.28-4.2,0.58-8.39,0.9-12.57c0.44-5.45,0.92-10.9,1.47-16.35c0.02,0,0.05,0.01,0.07,0.01
		c0.3-0.06,0.52-0.3,0.55-0.6c1.5-13.98,2.66-18.08,3.29-19.21c29.89,0.16,78.47,0.66,107.26,1.56c7.95,0.33,15.51,0.75,22.46,1.27
		c0,0,0.21,0.05,0.43,0.1v27.52c0,0.05,0.03,0.1,0.04,0.15l0.08,53.75C278.38,315.21,269.12,322.17,259.96,329.13z M254.7,333.9
		c-6.22,4.92-14.18,11.15-18.82,14.75c-5.18-4.82-10.58-9.42-16.34-13.56c-5.37-3.8-12.78-8.4-18.67-9.07
		c17.8,1.41,41.95,2.61,59.29,3.54c-0.47,0.38-0.98,0.79-1.52,1.22C257.23,331.88,255.91,332.93,254.7,333.9z M326.77,249.56
		c-1.42-4.26-2.76-8.56-4.03-12.87c5.09-2.17,22.98-10.83,18.07,0.51c-2.87,6.11-8.17,10.77-12.96,15.41
		C327.48,251.59,327.12,250.57,326.77,249.56z M101.2,213.97c4.78,3.48,10.07,6.44,15.75,8.05c-0.97,2.71-1.77,5.49-2.39,8.3
		c-4.54-3.5-9.58-6.8-12.04-12.13C101.87,216.86,101.33,215.38,101.2,213.97z M233.77,434.19c9.18-2.13,18.28-4.61,27.34-7.2
		c19.08-5.67,37.96-12.15,56.05-20.52c8.59-4.19,17.4-8.22,25.09-13.96c0.15,4.04-1.08,8.05-3.21,11.92
		c-0.25,0.44-0.51,0.87-0.78,1.29c-7.94,11.83-20.01,20.37-32.08,27.63c-1.12,0.6-2.32,1.1-3.53,1.56
		c-0.12,0.04-0.17,0.13-0.19,0.23c-16.63,6.1-35.41,4.64-52.74,2.23C244.37,436.56,239.03,435.52,233.77,434.19z M304.07,435.09
		c4.43-1.86,8.4-4.72,12.39-7.36c4.29-2.97,8.44-6.15,12.31-9.67c7.3-6.86,15.57-15.74,14.65-26.52
		c7.36-6.28,14.09-14.08,19.92-21.33c0,0,1.16-1.26,1.4-1.52c1-0.32,6.54-2.12,6.54-2.12c5.41-0.21,7.85,6.57,8.03,11.54
		c0.78,14.49-12.47,33.64-23.37,42.54C341.1,431.28,322.4,438.07,304.07,435.09z"/>
	<path class="st1" d="M216.07,271.62c-0.33,1.26-1.35,2.42-2.24,3.44c-0.57,0.65-1.11,1.27-1.37,1.78c-0.67,1.36-1.8,6.91-0.07,9.13
		c1.8,2.32,6.85,3.19,7.81,3.13c0.93-0.06,2.96-1.19,4.71-4.04c0,0,0,0,0,0c1.73-2.78,1.34-7.08-0.01-9.47
		c-1.43-2.56-1.39-9-1.38-10.07c-0.25-0.62-0.56-1.16-0.92-1.58c-0.19-0.22-0.39-0.4-0.6-0.56c-0.03-0.02-0.07-0.03-0.1-0.06
		c-0.18-0.12-0.37-0.23-0.58-0.31c-0.08-0.03-0.18-0.04-0.26-0.06c-0.16-0.04-0.32-0.09-0.5-0.11c-0.11-0.01-0.24,0-0.35,0
		c-0.14,0-0.28,0-0.43,0.01c-0.04,0.01-0.07,0.03-0.11,0.04c-0.51,0.1-1.17,0.27-1.74,0.54c-0.09,0.04-0.18,0.09-0.27,0.13
		c-0.37,0.22-0.68,0.49-0.85,0.83c-0.27,0.69-0.42,1.49-0.51,2.32c-0.14,1.37-0.16,2.87-0.17,3.6
		C216.13,271.14,216.12,271.43,216.07,271.62z"/>
	<path class="st1" d="M223.34,262.72c4.15-1.44,5.02-5.66,5.2-7.44c-3.19,0.49-5.49,1.4-6.87,2.71c-0.93,0.93-1.49,2.13-1.45,3.47
		C221.43,261.46,222.48,261.89,223.34,262.72z"/>
	<g>
		<g>
			<path class="st3" d="M288.91,310.4l-0.08-53.75c-0.01-0.05-0.04-0.1-0.04-0.15v-27.52c-0.21-0.05-0.43-0.1-0.43-0.1
				c-6.95-0.52-14.51-0.94-22.46-1.27c-28.79-0.9-77.36-1.4-107.26-1.56c-0.63,1.13-1.79,5.23-3.29,19.21
				c-0.03,0.3-0.26,0.54-0.55,0.6c-0.03,0-0.05-0.01-0.07-0.01c-0.55,5.44-1.03,10.89-1.47,16.35c-0.32,4.18-0.62,8.37-0.9,12.57
				c-0.65,9.81-1.2,19.64-1.73,29.46c0.47,0.18,2.32,0.87,2.32,0.87c7.84,0.67,16.02,4.52,23.37,7.93
				c7.07,3.45,15.21,7.78,21.38,11.6c0.08-0.04,0.18-0.07,0.28-0.05c5.24,0.33,10.5,0.65,15.76,1.05c4.61,0.3,11.93,0.9,19.63,1.56
				c13.77,0.9,26.35,1.75,26.59,1.94C269.12,322.17,278.38,315.21,288.91,310.4z M218.82,261.65c-0.15-2.09,1.36-4.8,3.5-5.76
				c2.14-1.19,4.53-1.64,6.91-1.93c0.28-0.03,0.54,0.17,0.58,0.45c-0.1,3.97-2.4,8.16-6.42,9.19c0.39,0.55,0.68,1.14,0.9,1.79
				c0.02,2.72,0.14,5.42,0.74,8.03c2.5,5.39,3.23,10.73-1.63,15.12c-1.03,0.93-2.44,1.84-3.9,1.61c-2.77-0.37-5.57-1.1-7.67-3.09
				c-2.36-2.79-1.57-6.98-0.68-10.22c0.69-1.94,2.69-3.27,3.47-5c0.12-0.29,0.22-0.5,0.2-0.73c0.12-2.64-0.29-5.35,1.05-7.84
				C216.63,262.39,217.7,261.92,218.82,261.65z"/>
		</g>
	</g>
	<path class="st11" d="M214.81,271.1c0.02,0.23-0.08,0.44-0.2,0.73c-0.77,1.73-2.77,3.06-3.47,5c-0.88,3.24-1.68,7.43,0.68,10.22
		c2.1,1.99,4.9,2.72,7.67,3.09c1.46,0.23,2.86-0.68,3.9-1.61c4.86-4.38,4.14-9.73,1.63-15.12c-0.6-2.61-0.72-5.32-0.74-8.03
		c-0.22-0.65-0.51-1.24-0.9-1.79c4.02-1.02,6.32-5.21,6.42-9.19c-0.04-0.28-0.29-0.49-0.58-0.45c-2.38,0.29-4.76,0.74-6.91,1.93
		c-2.14,0.96-3.65,3.67-3.5,5.76c-1.12,0.27-2.19,0.74-2.96,1.62C214.52,265.76,214.93,268.46,214.81,271.1z M216.82,264.41
		c0.17-0.34,0.48-0.62,0.85-0.83c0.08-0.05,0.18-0.09,0.27-0.13c0.57-0.28,1.23-0.44,1.74-0.54c0.04,0,0.07-0.03,0.11-0.04
		c0.15-0.02,0.29-0.01,0.43-0.01c0.12,0,0.24-0.01,0.35,0c0.17,0.02,0.33,0.07,0.5,0.11c0.09,0.02,0.18,0.03,0.26,0.06
		c0.2,0.08,0.39,0.18,0.58,0.31c0.03,0.02,0.07,0.03,0.1,0.06c0.22,0.15,0.42,0.34,0.6,0.56c0.35,0.43,0.66,0.96,0.92,1.58
		c-0.02,1.07-0.05,7.51,1.38,10.07c1.36,2.39,1.75,6.7,0.01,9.47c0,0,0,0,0,0c-1.76,2.85-3.78,3.98-4.71,4.04
		c-0.96,0.07-6.01-0.81-7.81-3.13c-1.72-2.22-0.6-7.78,0.07-9.13c0.26-0.51,0.8-1.13,1.37-1.78c0.89-1.02,1.91-2.18,2.24-3.44
		c0.05-0.19,0.05-0.48,0.06-1.3c0.01-0.73,0.03-2.22,0.17-3.6C216.4,265.9,216.54,265.09,216.82,264.41z M221.67,257.99
		c1.37-1.31,3.68-2.22,6.87-2.71c-0.18,1.78-1.05,6-5.2,7.44c-0.85-0.83-1.91-1.26-3.11-1.26
		C220.19,260.13,220.75,258.92,221.67,257.99z"/>
	<path class="st13" d="M260.16,329.56c-17.33-0.93-41.49-2.13-59.29-3.54c5.88,0.67,13.3,5.27,18.67,9.07
		c5.76,4.14,11.16,8.74,16.34,13.56c4.65-3.6,12.6-9.83,18.82-14.75c1.21-0.97,2.52-2.02,3.94-3.12
		C259.18,330.35,259.69,329.93,260.16,329.56z"/>
	<path class="st13" d="M106.52,199.87c-6.61,5.74-5.45,11.11-4.92,12.66c3.12,2.29,6.34,4.41,9.69,6.32
		c1.88,0.89,4.03,1.8,6.51,2.66c3.9,1.35,8.1,2.42,12.47,3.17c12.46,2.17,20.08,11.69,23.95,18.3c1.61-14.29,2.78-17.17,3.53-18.06
		c0.13-0.16,0.32-0.25,0.52-0.25c0,0,0,0,0,0c5.11,0.03,125.23,0.7,131.43,3.12c0.26,0.1,0.43,0.36,0.43,0.64v26.72
		c7.2-5.18,19.94-13.89,31.46-19.46c0.71-0.34,1.39-0.64,2.07-0.95c1.29-0.6,2.58-1.18,3.91-1.7c1.06-0.46,2.56-0.99,4.2-1.43
		c0.33-0.1,0.68-0.22,1-0.31c1.53-0.42,2.88-0.7,4.04-0.82c-11.6-23.8-37.7-77.07-49.92-79.6c-12.78-3.68-34.81-4.15-35.03-4.16
		c-1.58-0.32-3.39-0.6-5.49-0.85c-0.16,6.39-2.29,23.75-20.38,27.96c-3.17,0.74-6.11,1.06-8.81,1.06
		c-16.36,0-24.12-11.65-24.21-11.78c-0.08-0.12-7.25-11.31-1.34-19.44c-13.87-0.12-25-0.03-26.39-0.02
		C143.88,153.49,106.89,199.41,106.52,199.87z"/>
	<g>
		<path class="st3" d="M193.36,143.6c-1.16,1.37-2.04,2.95-2.48,4.7c-2.66,14.31,11.89,25.37,25.14,25.51
			c3.89,0.15,7.84-0.35,11.57-1.44c12.19-3.23,18.04-15.34,18.07-27.2c0,0-5.44-0.37-5.75-0.39c-0.71,0.49-1.43,0.96-2.15,1.44
			c-0.01,0.01-0.11,0.08-0.11,0.08c0.28,4.25-2.03,11.15-6,14.56c-10.33,9.07-30.8,5.33-33.89-9.15c-0.55-2.4-0.4-5.13,0.84-7.39
			c0.06-0.12,0.14-0.23,0.21-0.35c-0.15-0.13-0.2-0.18-0.3-0.26L193.36,143.6z"/>
	</g>
	<g>
		<path class="st12" d="M340.8,237.19c4.91-11.34-12.97-2.68-18.07-0.51c1.28,4.31,2.61,8.61,4.03,12.87
			c0.35,1.01,0.71,2.03,1.07,3.04C332.64,247.96,337.94,243.31,340.8,237.19z"/>
	</g>
	<g>
		<path class="st6" d="M325.59,249.97c-1.52-4.18-2.85-8.41-4.1-12.67c-11.04,5.52-21.4,12.36-31.47,19.49l-0.24,53.5
			c1.49-0.59,3.34-1.23,4.63-1.44c0,0,0.3-0.13,0.33-0.14c0,0,0,0,0,0c0,0,0.01,0,0.01,0l0.01,0c0.04-0.02,0.08-0.03,0.11-0.03
			c10.21-6.66,22.57-13.26,32.23-21.6c4.1-5.01,10.04-11.43,8.08-18.35c-0.89-2.15-2.94-3.64-3.94-5.76
			C328.89,258.82,327.2,254.4,325.59,249.97z"/>
	</g>
	<g>
		<path class="st6" d="M202.38,158.31c7.08,7.82,20.65,8.63,28.78,1.98c4.01-3.39,5.8-8.8,6.29-13.86
			c-1.69,1.11-3.39,2.19-5.12,3.24c-0.08,0.05-0.17,0.11-0.24,0.16c-2.75,1.64-5.24,3.39-8.04,4.7c-2.62,0.95-5.44,1.01-8.16,0.48
			c-6.06-2.19-11.21-6.09-16.08-10.18C197.43,149.02,199.31,154.86,202.38,158.31z"/>
	</g>
	<path class="st13" d="M199.06,142.75c5.11,4.4,10.89,8.9,17.1,11.28c3.28,0.68,7.06,0.48,9.87-1.51c4.63-2.46,9.27-5.29,13.57-8.16
		c7.43-5.71,16.58-10.37,21.04-18.8c0,0,1.05-9.6,1.23-11.23c0,0,0,0,0,0c-0.04,0-0.08-0.01-0.12-0.01
		c-0.36,0.38-0.7,0.77-1.03,1.17c-2.22,2.87-3.87,6.3-6.53,8.81c-3.44,2.15-9.28,2.82-12.42,2.56c-3.65,2.17-6.68,5.32-9.7,8.32
		c-3.62,2.79-8.75,1.92-13.01,1.6c-0.22-0.03-0.39-0.17-0.48-0.36c-1.75-3.28-5.86-4.21-9.3-4.66c-1.23-0.14-2.5-0.21-3.72-0.19
		c-0.3,0.01-0.57-0.18-0.67-0.45c-2.01-4.69-7.05-7.73-11.16-10.62c-2.62-1.79-5.46-3.35-7.98-5.38c-1.41-1.48-1.77-3.5-2.19-5.41
		c-1.38,0.96-2.87,1.62-4.43,1.98c0.94,2.82,1.9,5.64,2.92,8.43c1.75,4.44,3.05,9.2,6.58,12.56
		C191.69,136.05,196.49,140.56,199.06,142.75z"/>
	<g>
		<path class="st6" d="M261.57,114.29c-7.41-0.61-13.21-8.45-13.21-18.05c0-9.13,5.43-16.89,12.47-17.97
			c0.41-4.47,0.47-8.44,0.2-11.85c-1.71,0.19-3.62,0.54-4.91,1.59c-0.31,0.36-0.91,0.26-1.09-0.17c-1.39-2.72-5.2-3.68-7.89-4.99
			c-0.47-0.21-0.99-0.53-1.35-0.94c-2.53-2.65-5.95-4.4-9.63-4.47c-1.86-0.02-3.79,0.43-5.65,0.47c-3.96,0.39-7.54-2.03-11.07-3.18
			c-1.62-0.51-3.47-0.14-5.23,0.36c-4.42,1.39-8.59,3.84-12.53,6.37c-0.77,0.52-1.73,1.09-2.74,1.32c-2.07,0.54-4.09-0.08-5.85-0.2
			c-4.04-0.43-5.46,4.14-6.21,7.35c-0.68,3.6-2.28,6.92-3.69,10.26c4.58,2.91,7.46,8.58,7.46,14.88c0,5.59-2.31,10.8-6.17,13.98
			c0.24,1.12,0.51,2.24,0.87,3.3c0.36,1.32,1.13,2.18,2.27,2.88c2.17,1.51,4.48,2.9,6.7,4.4c4.27,3.05,9.16,5.94,11.41,10.94
			c4.63-0.06,11.99,1.26,13.47,5.33c3.97,0.35,8.95,1.24,12.36-1.25c1.52-1.51,3.08-3.02,4.72-4.44c1.64-1.41,3.31-2.8,5.23-3.86
			c4.2,0.06,8.73-0.28,12.45-2.37C256.98,121.22,258.71,117.25,261.57,114.29z"/>
	</g>
	<g>
		<path class="st12" d="M114.56,230.33c0.62-2.82,1.42-5.59,2.39-8.3c-5.68-1.61-10.98-4.58-15.75-8.05
			c0.13,1.4,0.67,2.89,1.32,4.23C104.98,223.53,110.02,226.83,114.56,230.33z"/>
	</g>
	<g>
		<path class="st6" d="M145.34,302.4c0,0,3.31,1.06,4.56,1.46c0.59-9.71,1.26-19.42,2.01-29.12c0.77-9.84,1.6-19.74,2.7-29.53
			c-3.67-6.53-8.81-12.54-15.45-16.15c-6.49-3.61-14.24-3.53-21.17-6.05c-7.56,22.42-3.53,45.12,10.98,63.82
			C133.3,292.74,139.86,298.95,145.34,302.4z"/>
	</g>
	<g>
		<path class="st3" d="M176.43,110.66c0.61,0,1.2-0.05,1.8-0.15c1.9-0.32,3.68-1.13,5.29-2.43c3.61-2.91,5.76-7.77,5.76-13
			c0-5.96-2.74-11.3-7.15-13.95c-0.26-0.1-0.51-0.42-0.51-0.7c0.14-2.94,0.44-6.22,0.7-9.11l0.12-1.35c0.1-1.17,0.1-1.75,0.09-2.17
			c-0.01-1.05-0.02-1.25,1.27-5.67c0.29-1.02,0.66-2.28,1.12-3.84l1.38-4.71c1.29-4.43,3.29-8.04,5.53-10.96
			c0.6-0.81,1.26-1.58,1.96-2.33c4.12-4.45,8.61-6.91,11.11-8.03c2.32-1.1,4.75-1.97,7.24-2.62c3.73-1.02,7.3-1.43,10.58-1.43
			c10.67,0,18.28,4.14,18.39,4.2c8.76,4.2,12.49,11.65,16.09,18.85c0.92,1.84,1.79,3.57,2.74,5.25c0.5,0.87,0.92,1.86,1.28,3.03
			c0.53,1.71,0.91,3.79,1.12,6.16c0.34,3.75,0.27,8.21-0.22,13.25c-0.03,0.32-0.29,0.58-0.61,0.61c-6.62,0.68-11.8,8.01-11.8,16.68
			c0,9,5.39,16.34,12.27,16.72c0.23,0.03,0.39,0.03,0.56,0.03c7.09,0,12.85-7.51,12.85-16.75c0-8.05-4.4-14.97-10.46-16.45
			c-0.31-0.07-0.52-0.35-0.52-0.66l-0.04-21.85c1.18-18.17-22.25-31.14-22.49-31.27c-17.29-8.75-40.06,0.71-40.29,0.81
			c-0.05,0.02-0.1,0.04-0.15,0.04c-8.58,1.47-13.65,9.5-18.13,16.59c-1.02,1.62-1.99,3.14-2.96,4.55c-1.28,1.85-2.27,5.09-2.93,9.62
			c-1.15,7.82-1,17.43-0.88,21.19c0.01,0.37-0.28,0.69-0.65,0.7c-6.91,0.32-12.32,7.14-12.32,15.55
			C163.59,103.67,169.35,110.66,176.43,110.66z"/>
	</g>
	<g>
		<path class="st2" d="M183.96,66.15c0,0-0.65,7.98-0.98,12.01c1.19-2.74,2.39-5.51,2.94-8.43c0.42-1.89,1.01-3.77,2.08-5.46
			c2.71-4.59,6.86-1.63,10.7-2.45c1.78-0.46,3.26-1.83,4.87-2.71c3.28-1.96,6.66-3.81,10.36-4.95c1.83-0.51,3.85-0.96,5.79-0.35
			c3.62,1.17,6.81,3.52,10.77,3.2c1.87,0.01,3.74-0.53,5.7-0.44c3.89,0.09,7.57,1.98,10.21,4.77c1.36,1.24,3.42,1.62,5.03,2.53
			c1.63,0.84,3.4,1.83,4.24,3.6c1.65-1.32,3.93-1.61,5.96-1.75c-0.37-6.53-4.14-11.45-6.91-17.11c-2.84-5.45-6.47-10.71-11.85-13.88
			c-14.7-8.54-35.17-6.35-47.34,5.69C188.43,47.16,186.64,57.14,183.96,66.15z"/>
	</g>
	<g>
		<path class="st2" d="M179.4,47.33c5.74-8.33,10.86-19.54,21.89-21.56c12.69-4.78,28.8-7.04,41.62-0.32
			c11.78,7.15,23.75,18.82,22.33,33.7c3.91-0.87,4.95-3,4.52-6.91c0.85-2.4,3.5-3.74,5.46-5.12c1.94-4.97,1.58-11.03-4.27-12.87
			c-0.15-0.04-0.24-0.2-0.19-0.35c0.01-0.05,0.04-0.09,0.08-0.12l0.84-0.85c1.84-1.95,2.45-5.02,1.03-7.36
			c-5.03,0.3-10.07,0.14-15.07-0.51c-5.07-0.56-10.07-2.2-14.77-3.99c-9.57-2.98-19.89-4.05-29.87-3.83
			c-10.09,0.54-19.26,6.08-26.03,13.38c-4.08,4.63-8.09,9.76-10.04,15.66c-0.49,2.56-0.38,5.2-0.07,7.81
			C177.35,51.72,178.05,49.41,179.4,47.33z"/>
	</g>
	<path class="st11" d="M294.2,24.23c1.46-4.05,2.95-8.09,4.52-12.09c1.66-3.99,3.31-8,4.46-12.15c-0.01,0.02-0.03,0.03-0.04,0.05
		l0-0.01c0,0,0,0.01-0.01,0.01c-2.73,3.28-4.17,7.65-5.45,11.72c-1.34,4.1-2.54,8.24-3.62,12.42
		C294.04,24.28,294.17,24.31,294.2,24.23z"/>
	<path class="st11" d="M302.09,24.26c0.52-0.43,1.06-0.84,1.59-1.26l8.87-6.6c1.98-1.38,4.12-2.94,5.78-4.21
		c0.06-0.04,0.01-0.14-0.05-0.13c-3.42,0.73-6.27,2.88-8.83,5.13c-2.61,2.19-5.09,4.52-7.45,6.96
		C301.93,24.23,302.03,24.32,302.09,24.26z"/>
	<path class="st11" d="M315.57,28.18c-3.51,1.33-6.93,2.85-10.26,4.55c-0.08,0.04-0.02,0.16,0.06,0.12
		c0.31-0.12,0.63-0.22,0.94-0.34l20.11-5.8c0.1-0.01,0.19-0.04,0.29-0.05c-0.02-0.01-0.04-0.01-0.06-0.02l0,0c0,0,0,0,0,0
		C323.11,25.3,318.97,26.92,315.57,28.18z"/>
	<path class="st1" d="M132.39,89.14c-1.78,2.72-4.34,4.81-7.22,6.28c-2.91,1.6-6.14,2.65-9.42,2.83c4.31,3.32,10.42,3.38,15.97,1.89
		C133.45,96.53,133.39,92.77,132.39,89.14z"/>
	<path class="st1" d="M112.11,93.74c0.22,0.44,0.45,0.85,0.7,1.24c0.02,0,0.05-0.01,0.07-0.02l16.94-10.35
		c0.21-0.15,0.42-0.3,0.64-0.44c-0.78-1.56-1.66-3.07-2.59-4.5c-4.18,4.88-10.77,10.25-17.22,9.94c-0.01,0-0.01,0-0.02,0.01
		C110.9,91.05,111.41,92.45,112.11,93.74z"/>
	<path class="st1" d="M115.58,98.1c0.01,0,0.01,0,0.02,0l16.57-9.24c0.04-0.03,0.09-0.06,0.13-0.09c-0.44-1.49-1.03-2.96-1.72-4.38
		c-1.97,2.93-4.67,5.27-7.72,7.04c-2.6,1.58-6.91,3.7-9.79,3.57c-0.08,0.01-0.15,0.03-0.23,0.04
		C113.63,96.27,114.55,97.28,115.58,98.1z"/>
	<path class="st13" d="M110.06,50.94c-2.91,0.9-5.56,1.85-8.19,3.32c-2.51,1.53-4.73,3.58-6.69,5.86
		c8.48,7.36,17.43,15.15,23.08,24.93l1.72-1.01c-2.2-5.01-3.7-10.4-5.14-15.68c-1.4-5.39-3.41-11.35-4.51-16.55
		c-0.09-0.3-0.18-0.61-0.26-0.89C110.07,50.92,110.07,50.93,110.06,50.94z"/>
	<g>
		<path class="st2" d="M96.55,72.8c1.75,0.5,3.7,0.96,5.29,1.85c4.48,2.47,7.35,7.05,8.62,11.86c-0.09,0.99-0.03,2,0.15,2.99
			c0.1-0.04,0.2-0.09,0.3-0.13l7.02-4.12c-3.65-3.93-6.99-8.18-10.5-12.26c-3.71-4.45-8.57-8.88-12.24-12.86
			c-0.01,0.01-0.03,0.03-0.04,0.04c-0.05,0.06-0.16-0.01-0.11-0.08c3.26-4.86,8.6-10.35,15.02-9.28c0.06,0.01,0.06,0.09,0.02,0.12
			l0.21,0.7c-0.05-0.26-0.12-0.52-0.16-0.77c3.44,10.95,8,21.75,10.2,32.99l7.41-4.36c-0.3-0.46-0.61-0.91-0.92-1.36
			c-1.63-2.19-2.86-4.62-3.72-7.23c-1.36-2.71-1.54-6.65-1.65-9.88c-0.12-3.31,0-6.69-0.07-9.92c-0.28-6.25-2.83-13.16-8.59-16.22
			c-12.46-7.86-25.77-5.1-33.09,7.96C75.69,55.78,83.72,68.59,96.55,72.8z M98.4,35.66c0.08-0.03,8.45-2.65,12.62,5.92
			c0.16,0.34,0.02,0.75-0.32,0.91c-0.1,0.05-0.2,0.07-0.3,0.07c-0.25,0-0.5-0.14-0.62-0.38c-3.64-7.48-10.67-5.31-10.97-5.22
			c-0.36,0.12-0.74-0.08-0.86-0.44C97.84,36.16,98.04,35.78,98.4,35.66z"/>
	</g>
	<path class="st11" d="M96.34,73.46c1.71,0.47,3.64,0.9,5.2,1.75c4.3,2.29,7.18,6.74,8.46,11.4c-0.26,2.15,0.56,5.21,1.77,7.31
		c3.94,7.69,12.47,8.49,20.03,6.32c2.56-4.84,2.05-10.82-0.35-15.59c-1.97-4.89-5.81-8.95-7.3-14.06c-1.34-2.92-1.37-6.3-1.46-9.6
		c-0.08-3.34,0.12-6.58,0.05-9.95c-0.3-6.67-3.08-14.03-9.26-17.32c-13.04-8.18-27.22-4.99-34.69,8.67
		C74.56,56.02,83.19,69.29,96.34,73.46z M112.79,34.88c5.76,3.06,8.31,9.97,8.59,16.22c0.07,3.23-0.05,6.61,0.07,9.92
		c0.11,3.23,0.3,7.17,1.65,9.88c0.86,2.61,2.09,5.04,3.72,7.23c0.31,0.44,0.61,0.9,0.92,1.36l0.12-0.07
		c-2.2,2.14-4.65,4.03-7.31,5.55c-0.07-0.38-0.15-0.75-0.23-1.12c-2.2-11.24-6.76-22.04-10.2-32.99c0.05,0.25,0.11,0.51,0.16,0.77
		c0.01,0.06,0.03,0.13,0.04,0.19c1.1,5.2,3.12,11.16,4.51,16.55c1.44,5.29,2.94,10.67,5.14,15.68c0.15,0.33,0.3,0.66,0.45,0.99
		c-0.21,0.12-0.41,0.25-0.62,0.37c-0.33,0.17-0.68,0.35-1.05,0.53c-0.16-0.29-0.33-0.59-0.49-0.88
		c-5.66-9.78-14.6-17.57-23.08-24.93c1.96-2.28,4.18-4.33,6.69-5.86c2.64-1.47,5.28-2.42,8.19-3.32c0.01,0,0.01-0.01,0.01-0.02
		c0-0.02-0.01-0.04-0.01-0.05l0.02,0.05c0.04-0.03,0.04-0.11-0.02-0.12c-6.43-1.06-11.76,4.43-15.02,9.28
		c-0.05,0.07,0.06,0.14,0.11,0.08c0.01-0.01,0.03-0.03,0.04-0.04c3.67,3.99,8.53,8.42,12.24,12.86c3.51,4.08,6.85,8.33,10.5,12.26
		c0.23,0.25,0.45,0.5,0.69,0.75c-2.39,1.15-5.38,2.34-7.71,3.38c-0.1,0.04-0.2,0.09-0.3,0.13c-0.18-0.99-0.24-2-0.15-2.99
		c-1.27-4.81-4.14-9.39-8.62-11.86c-1.59-0.89-3.53-1.35-5.29-1.85c-12.83-4.21-20.85-17.02-16.85-29.96
		C87.02,29.78,100.32,27.03,112.79,34.88z M115.75,98.25c3.28-0.18,6.52-1.23,9.42-2.83c2.88-1.46,5.45-3.56,7.22-6.28
		c1,3.63,1.06,7.39-0.68,10.99C126.17,101.63,120.05,101.56,115.75,98.25z M110.51,89.6c0.05,0,0.09,0,0.14,0
		c6.45,0.32,13.03-5.06,17.22-9.94c0.93,1.43,1.82,2.93,2.59,4.5c-0.21,0.15-0.43,0.29-0.64,0.44c-5.42,3.87-10.17,9.06-16.94,10.35
		c-0.02,0-0.05,0.01-0.07,0.02c-0.25-0.39-0.48-0.8-0.7-1.24c-0.7-1.29-1.21-2.69-1.48-4.13c-0.08,0.02-0.15,0.04-0.23,0.06
		L110.51,89.6z M112.81,95c0.08,0.01,0.18,0,0.27,0c2.87,0.13,7.19-1.99,9.79-3.57c3.05-1.76,5.74-4.1,7.72-7.04
		c0.69,1.42,1.28,2.89,1.72,4.38c-0.04,0.03-0.09,0.06-0.13,0.09c-5.2,3.73-9.97,8.3-16.57,9.24c-0.01,0-0.01,0-0.02,0
		c-1.03-0.82-1.95-1.83-2.73-3.06c-0.05,0.01-0.1,0.02-0.15,0.03L112.81,95z"/>
	<path class="st1" d="M118.61,86c-0.23-0.25-0.46-0.5-0.69-0.75l-7.02,4.12C113.23,88.34,116.23,87.14,118.61,86z"/>
	<path class="st1" d="M118.76,85.93c0.37-0.18,0.72-0.35,1.05-0.53c0.21-0.11,0.41-0.25,0.62-0.37c-0.15-0.33-0.3-0.66-0.45-0.99
		l-1.72,1.01C118.43,85.34,118.6,85.63,118.76,85.93z"/>
	<path class="st1" d="M120.55,84.96c2.66-1.52,5.11-3.4,7.31-5.55l-0.12,0.07l-7.41,4.36C120.4,84.21,120.49,84.58,120.55,84.96z"/>
	<path class="st1" d="M110.63,89.61c0.01,0,0.01,0,0.02-0.01c-0.05,0-0.09,0-0.14,0l-0.11,0.06
		C110.48,89.65,110.55,89.63,110.63,89.61z"/>
	<path class="st1" d="M129.82,84.61l-16.94,10.35C119.66,93.67,124.4,88.48,129.82,84.61z"/>
	<path class="st1" d="M112.85,95.05c0.08-0.01,0.15-0.03,0.23-0.04c-0.09,0-0.18,0-0.27,0l-0.11,0.07
		C112.75,95.06,112.8,95.05,112.85,95.05z"/>
	<path class="st1" d="M132.17,88.87L115.6,98.1C122.2,97.17,126.96,92.59,132.17,88.87z"/>
	<path class="st1" d="M110.06,50.87c0,0.02,0.01,0.03,0.01,0.05c0.08,0.28,0.17,0.59,0.26,0.89c-0.01-0.06-0.03-0.13-0.04-0.19
		l-0.21-0.7L110.06,50.87z"/>
	<path class="st11" d="M98.82,36.96c0.3-0.1,7.33-2.26,10.97,5.22c0.12,0.24,0.36,0.38,0.62,0.38c0.1,0,0.2-0.02,0.3-0.07
		c0.34-0.16,0.48-0.57,0.32-0.91c-4.17-8.57-12.54-5.94-12.62-5.92c-0.36,0.12-0.55,0.5-0.44,0.86
		C98.08,36.88,98.46,37.07,98.82,36.96z"/>
	<path class="st1" d="M325.4,126.94l-5.43-6.49c-0.08-0.1-0.11-0.23-0.09-0.34c0,0,2.93-13.71,3.38-15.79l-8.66,12.71
		c-3.1,0.45-6.26,0.94-9.47,1.36c1.99,2.22,3.97,4.44,5.93,6.69c0.14,0.16,0.18,0.38,0.12,0.57c-0.71,2.47-1.45,4.94-2.21,7.4
		c2.53-2.28,6.69-6.03,6.69-6.03c0.11-0.1,0.24-0.14,0.37-0.14L325.4,126.94z"/>
	<path class="st11" d="M324,103.2c0.02-0.09-0.02-0.2-0.1-0.25c-0.11-0.07-0.26-0.04-0.33,0.07l-9.03,13.88
		c-3.48,0.26-6.89,0.47-10.25,0.77c-0.32,0.02-0.49,0.44-0.27,0.67c1.95,2.43,3.94,4.84,5.93,7.23c-1.07,3.15-2.09,6.3-3.07,9.47
		c-0.24,0.66,0.65,1.23,1.15,0.73l8.24-7.79c0.43,0,10.17-0.08,10.17-0.08c0.4,0.02,0.63-0.5,0.37-0.79l-6.08-7.05L324,103.2z
		 M308.97,133.03c0.76-2.46,1.5-4.92,2.21-7.4c0.06-0.19,0.03-0.4-0.12-0.57c-1.96-2.25-3.94-4.47-5.93-6.69
		c3.2-0.43,6.36-0.91,9.47-1.36l8.66-12.71c-0.45,2.08-3.38,15.79-3.38,15.79c-0.02,0.12,0,0.25,0.09,0.34l5.43,6.49l-9.37-0.08
		c-0.13,0-0.27,0.05-0.37,0.14C315.66,127,311.5,130.75,308.97,133.03z"/>
</g>
</svg>
