<?xml version="1.0" encoding="utf-8"?>
<!-- Generator: Adobe Illustrator 27.1.0, SVG Export Plug-In . SVG Version: 6.00 Build 0)  -->
<svg version="1.1" id="Capa_1" xmlns="http://www.w3.org/2000/svg" xmlns:xlink="http://www.w3.org/1999/xlink" x="0px" y="0px"
	 width="450px" height="450px" viewBox="0 0 450 450" style="enable-background:new 0 0 450 450;" xml:space="preserve">
<style type="text/css">
	.st0{fill:none;}
	.st1{fill:#FFFFFF;}
	.st2{fill:#F2B705;}
	.st3{fill:#040423;}
	.st4{fill:#8C1F33;}
	.st5{fill:#5BA566;}
	.st6{fill:#F2E3CC;}
	.st7{fill:#F15A24;}
	.st8{fill:#400101;}
	.st9{fill:#FCFCFC;}
	.st10{fill:#122B05;}
	.st11{fill:#472FAD;}
	.st12{fill:#A64F03;}
	.st13{fill:#D98E04;}
	.st14{fill:#F2F2F2;}
	.st15{fill:#2FD812;}
	.st16{fill:#AA8D30;}
	.st17{fill:#B0EAB7;}
	.st18{fill:#111147;}
	.st19{fill:none;stroke:#472FAD;stroke-width:0;stroke-linecap:round;stroke-linejoin:round;}
	.st20{fill:#F2B705;stroke:#472FAD;stroke-miterlimit:10;}
	.st21{fill:#231A56;}
	.st22{fill:#EA0070;}
	.st23{fill:#158035;}
	.st24{fill:#F9B331;}
	.st25{opacity:0.4;}
	.st26{fill:#0F0E0D;}
	.st27{fill:#E0245E;}
	.st28{fill:#050535;}
	.st29{fill:#F2EBDF;}
</style>
<g>
	<path class="st0" d="M120.78,316.38c12.1,1.46,25.18,5.1,38.28,9.92c6.08-4.51,15.79-9.92,22.9-13.88
		c4.22-2.35,8.58-4.78,9.05-5.35c1.15-1.41,3.17-5.56,3.62-6.5c-1.05-7.04-8.01-25.66-12.76-38.02c-0.28,1.09-0.66,2.43-1.18,4.01
		c-1.1,3.3-5.71,7.08-10.16,10.73c-2.05,1.68-3.99,3.27-5.52,4.75c-4.88,4.73-37.38,21.74-38.76,22.46
		c-1.16,0.82-2.34,1.61-3.54,2.37c0,0,0,0,0,0c0,0-0.01,0-0.02,0.01c-6.13,3.9-12.65,7.08-18.4,9.52
		C111.83,316.07,120.67,316.38,120.78,316.38z"/>
	<path class="st0" d="M282.76,306.75l37.21,27.83c1.73-1.1,2.85-1.81,3.13-1.98c18.36-14.23,44.53-18.43,51.88-19.37
		c-9.24-5.89-33.32-20.96-40.49-22.57c-0.08-0.02-0.16-0.05-0.23-0.09c-0.15-0.1-15.27-9.77-22.38-11.77
		c-6.43-1.81-15.77-13.93-18.53-17.66c-1.24,2.87-2.62,6.09-4,9.42c0,0.01-0.01,0.01-0.01,0.02c-4.95,11.87-10.09,25.21-10.29,29.79
		C280.78,301.18,283.22,303.28,282.76,306.75z"/>
	<path class="st1" d="M56.76,182.51c5.41-5.27,8.31-10.74,9.74-15.75c-1,0.07-2.64,0.14-4.7,0.14c-9.18,0-26.65-1.58-33.02-12.91
		C31.58,167.83,42.57,178.94,56.76,182.51z"/>
	<g>
		<path class="st2" d="M28.08,147.04c0,0.26,0.02,0.52,0.02,0.78c3.32,19.13,34.31,17.77,38.78,17.47c0.81-3.46,0.96-6.66,0.8-9.37
			c-4.65-1.23-33.18-9.78-30-33.07C31.71,129.32,28.08,137.78,28.08,147.04z"/>
	</g>
	<g>
		<path class="st3" d="M39.43,121.07c-4.82,22.92,22.32,31.75,28.12,33.36c-0.41-3.81-1.35-6.4-1.57-6.97
			c-0.6-0.57-3.37-3.31-6.31-7.94c-0.03-0.03-0.07-0.05-0.1-0.09c-0.04-0.05-0.05-0.11-0.07-0.17c-1.73-2.77-3.51-6.21-4.9-10.23
			c0,0-0.01,0-0.01-0.01c-0.07-0.1-0.1-0.21-0.11-0.32c-1.52-4.49-2.55-9.7-2.55-15.56C47.23,114.99,42.98,117.7,39.43,121.07z"/>
	</g>
	<g>
		<path class="st2" d="M72.23,183.32c9.4-11.95,8.03-36.67,7.65-41.68c-6.24,2.03-10.98,4.8-12.43,5.7c0.4,1.13,1.25,3.88,1.57,7.62
			c0.14,0.16,0.21,0.38,0.16,0.61c-0.02,0.09-0.05,0.16-0.1,0.23c0.18,2.92,0.02,6.37-0.88,10.1c0,0,0,0,0,0.01
			c0.02,0.16-0.03,0.31-0.11,0.43c-1.35,5.24-4.21,10.99-9.69,16.54c2.64,0.55,5.38,0.84,8.19,0.84
			C68.5,183.72,70.38,183.58,72.23,183.32z"/>
	</g>
	<path class="st1" d="M92.91,139.35c-4.1,0.04-8.08,0.8-11.65,1.86c0.37,4.27,2.04,28.64-7.03,41.78c3.95-0.76,7.68-2.11,11.09-3.93
		C93.91,170.4,93.12,143.92,92.91,139.35z"/>
	<g>
		<path class="st3" d="M105.07,147.04c0-1.85-0.15-3.67-0.43-5.45c-3.38-1.46-6.87-2.11-10.31-2.23c0.22,4.54,0.91,26.8-5.73,37.72
			C98.55,170.45,105.07,159.46,105.07,147.04z"/>
	</g>
	<g>
		<path class="st3" d="M56.07,128.9c1.26,3.55,2.81,6.62,4.36,9.15c3.46-2.04,20.54-11.16,41.17-6.21c-1.1-2.3-2.44-4.46-3.99-6.48
			C76.9,117.19,59.17,127.01,56.07,128.9z"/>
	</g>
	<g>
		<path class="st1" d="M61.18,139.25c2.39,3.67,4.62,6.04,5.49,6.9c1.55-0.96,6.7-3.96,13.44-6.06c0.1-0.07,0.2-0.12,0.32-0.13
			c0.03,0,0.05,0.01,0.08,0.01c3.92-1.19,8.35-2.05,12.92-2.03c0.04-0.01,0.07-0.03,0.11-0.03c0.09,0,0.17,0.01,0.25,0.03
			c3.5,0.05,7.08,0.63,10.55,1.99c-0.46-2.23-1.14-4.38-2.01-6.45C81.76,128.07,64.58,137.24,61.18,139.25z"/>
	</g>
	<g>
		<path class="st2" d="M66.58,110.37c-4.64,0-9.09,0.79-13.22,2.23c-0.07,5.6,0.85,10.6,2.24,14.93
			c3.79-2.24,20.45-10.97,40.18-4.33C88.72,115.35,78.25,110.37,66.58,110.37z"/>
	</g>
	<g>
		<path class="st4" d="M304.82,160.85c0.98,0.78,2.75,0.6,3.65,0.41l13.84-34.06c0.29-2.83-0.18-4.76-1.38-5.72
			c-1.31-1.05-3.23-0.72-3.98-0.53L304,158.57C303.97,159.65,304.24,160.39,304.82,160.85z"/>
	</g>
	<g>
		<path class="st4" d="M297.41,173.39c0.24,0.76,0.82,1.37,1.77,1.86c1.39,0.71,2.64,0.9,3.71,0.55c1.43-0.47,2.26-1.77,2.63-2.51
			c0.41-0.83,0.99-4.55,0.04-6.63c-0.29-0.63-0.68-1-1.18-1.13c-2.59-0.66-4.95,1.25-5.44,2.42c-0.09,0.21-0.23,0.48-0.4,0.8
			C297.93,169.91,296.92,171.85,297.41,173.39z"/>
	</g>
	<path class="st1" d="M332.23,116.35c0,4.49,2.37,9.54,6.04,12.86c2.66,2.41,5.7,3.58,8.56,3.3c10.88-1.07,16.07-6.6,15.45-16.42
		c-0.49-7.6-10.17-13.73-17.86-13.73C337.24,102.36,332.23,108.11,332.23,116.35z"/>
	<path class="st1" d="M386.08,155.3c8.89,0,14.64-5.98,14.64-15.25c0-8.15-8.69-16.46-17.22-16.46c-7.99,0-14.49,7.11-14.49,15.86
		C369.01,149.37,377.69,155.3,386.08,155.3z"/>
	<g>
		<path class="st4" d="M433.83,112.74c0-2.31-1.12-4.8-2.92-4.8c-2.31,0-5.25,4.05-5.25,7.22c0,1.93,1.1,2.91,3.27,2.91
			c1.62,0,2.89-0.55,3.75-1.64C433.42,115.5,433.83,114.18,433.83,112.74z"/>
	</g>
	<g>
		<path class="st4" d="M426.68,65.22c-0.31-0.07-8.17-1.69-11.99,7.78c-0.02,0.05-0.05,0.09-0.07,0.14
			c-0.04,0.06-1.07,1.63,0.01,3.32c0.27,0.41,0.56,0.64,0.91,0.69c0.58,0.09,1.23-0.32,1.49-0.51l4.06-4.81c0,0,2.66-3.6,8.45-0.79
			c4.84,2.35,1.81,8.71-0.86,14.32c-0.69,1.44-1.33,2.8-1.83,4.06c-0.02,0.13-1.32,5.56-1.71,6.92c-0.4,1.4-1.01,3.49-0.08,7.5
			c0.75,0.29,2.79,0.91,4.52,0.06c1.35-0.67,2.27-2.12,2.74-4.31c-0.06-1.18-0.46-11.67,2.49-18.75l0,0c-0.01,0,0.99-5.14,0.56-8.45
			C435.37,72.07,435.28,67.46,426.68,65.22z"/>
	</g>
	<path class="st1" d="M49.22,87.07c-0.02,0.19-0.12,0.36-0.27,0.48l-2.39,1.82l3.29-0.96c0.07-0.02,0.13-0.03,0.2-0.03
		c0.24,0,0.46,0.12,0.6,0.33l2.23,3.49l-1.45-4.58c-0.07-0.21-0.03-0.44,0.09-0.62l2.86-4.11l-4.41,1.7
		c-0.21,0.08-0.46,0.06-0.65-0.07l-4.09-2.73l3.85,4.75C49.19,86.69,49.25,86.88,49.22,87.07z"/>
	<g>
		<path class="st5" d="M172.23,91.49c0.19,0.11,0.36,0.22,0.54,0.33l9.09-13.51l-6.7-0.18l-6.07,11.85
			C170.05,90.37,171.09,90.85,172.23,91.49z"/>
	</g>
	<g>
		<path class="st5" d="M163.54,88.79c1.03-0.04,2.35,0.12,3.99,0.63l2.48-17.31c-1.07-1.33-4-0.56-5.09-0.22L163.54,88.79z"/>
	</g>
	<g>
		<polygon class="st5" points="180.98,94.81 183.76,93.9 183.72,93.6 		"/>
	</g>
	<g>
		<path class="st5" d="M174.12,92.8c0.85,0.74,1.52,1.57,1.99,2.5l23.6-13.93c-0.7-0.85-3.11-2.52-5.86-4.03L174.12,92.8z"/>
	</g>
	<path class="st1" d="M415.97,38.94l3.42,3.27c0.17,0.16,0.25,0.39,0.21,0.62l-0.73,4.86l2.65-5.5c0.16-0.34,0.57-0.5,0.93-0.34
		l4.97,2.2l-4.42-3.26c-0.25-0.18-0.35-0.51-0.25-0.8l1.65-4.74l-2.79,4.22c-0.15,0.23-0.43,0.36-0.71,0.31L415.97,38.94z"/>
	<g>
		<g>
			<path class="st2" d="M211.07,125.36v-7.19c0-0.39,0.32-0.71,0.71-0.71h11.16c0.97-0.23,11.66-3.01,15.69-12.19
				c0.11-0.25,0.35-0.41,0.62-0.42c0.3-0.01,0.52,0.14,0.65,0.38c0.05,0.1,5.31,9.81,15.81,14.38l11.44,1.05
				c0.36,0.03,0.64,0.34,0.64,0.71v6.65l3.22,0.33c0.87-2.59,5.24-17.06-0.19-32.36c-2.19-6.16-5.48-10.58-8.86-13.74
				c-0.09-0.05-0.16-0.12-0.22-0.2c-6.44-5.88-13.14-7.24-13.24-7.25c-0.39-0.05-0.66-0.41-0.61-0.8c0.05-0.39,0.4-0.66,0.8-0.61
				c0.11,0.01,7.16,1.43,13.91,7.54c0.99,0.04,5.11,0.02,7.86-2.85c0.46-0.48,1-1,1.58-1.55c3.62-3.48,8.58-8.25,5.44-14.9
				c-0.16-0.33-0.03-0.73,0.28-0.92c0.05-0.03,5.12-3.21,5.12-14.89c0-0.06,0.07-4.66-2.41-6.64c-1.15-0.92-2.73-1.14-4.68-0.65
				c-0.2,0.05-0.41,0.01-0.57-0.1c-0.17-0.11-0.28-0.3-0.3-0.5c-0.01-0.04-0.6-4.39-4.45-7.17c-3.24-2.34-7.83-2.94-13.63-1.8
				c-0.34,0.07-0.67-0.12-0.8-0.44c-0.02-0.06-2.81-6.65-15.79-7.3c-10.39-0.52-14.76,3.67-16.14,5.45l4.71,1.13
				c0.36,0.09,0.59,0.44,0.53,0.8c-0.06,0.37-0.38,0.63-0.76,0.59c-0.85-0.07-20.79-1.55-23.17,15.8
				c-0.23,1.08-5.08,25.3,18.59,33.76c2.02-0.58,3.33-0.81,3.39-0.82c0.39-0.06,0.75,0.2,0.82,0.58c0.06,0.39-0.2,0.75-0.58,0.82
				c-0.23,0.04-23.06,4.03-27.23,22.71c-0.01,0.09-1.86,15.15,5.33,23.3H211.07z M256.94,88.3c0.15-0.36,0.57-0.53,0.93-0.38
				c0.27,0.11,6.7,2.96,6.7,16.72c0,0.39-0.32,0.71-0.71,0.71c-0.39,0-0.71-0.32-0.71-0.71c0-12.83-5.78-15.39-5.83-15.42
				C256.96,89.08,256.79,88.66,256.94,88.3z M270.45,43.17c0.21-0.33,0.65-0.42,0.98-0.21c0.3,0.19,7.24,4.91,2.34,19.4
				c-0.1,0.3-0.38,0.48-0.67,0.48c-0.08,0-0.15-0.01-0.23-0.04c-0.37-0.13-0.57-0.53-0.44-0.9c4.56-13.45-1.7-17.71-1.77-17.76
				C270.33,43.94,270.24,43.5,270.45,43.17z"/>
		</g>
	</g>
	<g>
		<path class="st6" d="M250.29,162.1c8.91-3.15,12.52-14.36,12.55-14.47c0.09-0.3,0.37-0.5,0.68-0.5c0,0,0,0,0,0
			c0.31,0,0.58,0.2,0.68,0.49c0.01,0.04,1.21,3.8,3.95,3.61c0.06,0,0.12,0,0.18,0.01c0.01,0,0.69,0.1,1.3-0.58
			c0.96-1.05,2.19-4.33-0.34-14.55c-0.03-0.2-0.38-3.12,1.12-6.41l-3.4-0.35c-0.36-0.04-0.64-0.34-0.64-0.71v-6.65l-10.91-1
			c-0.07-0.01-0.15-0.03-0.22-0.05c-8.94-3.85-14.14-11.06-15.92-13.89c-4.86,9.24-15.69,11.7-16.17,11.8
			c-0.05,0.01-0.1,0.02-0.15,0.02h-10.54v7.19c0,0.39-0.32,0.71-0.71,0.71l-5.67,0v3.85c0,0.14-0.04,0.27-0.12,0.39
			c-0.07,0.11-7.08,11.01-3.06,17.65c1.19-0.68,4.52-3.66,3.81-15.49c-0.01-0.21,0.07-0.42,0.22-0.56c0.15-0.14,0.37-0.21,0.57-0.19
			c0.85,0.11,2.44,0.77,2.44,2.53c0,1.2,2.52,16.64,10.49,24.38c2.67,2.59,5.69,4.03,8.98,4.32l0.07-0.11
			c0.2-0.34,0.64-0.44,0.97-0.24c0.16,0.09,0.26,0.24,0.31,0.41c0.11,0,0.22,0.01,0.33,0.01
			C231.37,163.74,241.23,165.31,250.29,162.1z M231.7,149.77c2.58,1.07,4.87,1.84,7.09,1.79c2.43,0.02,4.64-1.04,6.93-1.88
			c0.09-0.03,0.19,0.01,0.22,0.1C243.48,155.93,234.23,155.61,231.7,149.77z M253.53,129.63c-1.74-0.2-3.18-0.72-4.85-0.79
			c-1.41-0.06-3.02,0.29-5.05,0.76C245.06,125.12,252.9,124.37,253.53,129.63z M236.72,134.74c0.06-0.39,0.42-0.65,0.81-0.59
			c0.39,0.06,0.65,0.42,0.59,0.81c-0.3,1.96-1.67,3.37-2.77,4.5c-1.38,1.43-1.85,2.05-1.29,2.84c1.4,1.99,4.49,0.47,4.52,0.46
			c0.35-0.17,0.78-0.03,0.95,0.32c0.18,0.35,0.03,0.78-0.32,0.95c-0.71,0.35-1.82,0.71-2.98,0.71c-1.22,0-2.48-0.4-3.34-1.62
			c-1.29-1.83,0.15-3.33,1.43-4.65C235.34,137.44,236.49,136.25,236.72,134.74z M229.36,127.73c-1.41-0.06-3.02,0.29-5.05,0.76
			c1.43-4.48,9.27-5.24,9.89,0.02C232.47,128.32,231.03,127.8,229.36,127.73z"/>
	</g>
	<g>
		<path class="st6" d="M238.82,181.9c10.28-0.19,14.35-2.5,15.94-4.41c0.79-0.95,0.98-1.81,1.01-2.31
			c-1.21-0.27-1.92-0.41-1.96-0.42c-0.21-0.04-0.39-0.18-0.48-0.36l-5.34-10.11c-3.85,0.99-7.63,1.28-10.63,1.28
			c-3.61,0-6.11-0.4-6.31-0.43c-0.27,0.01-0.54-0.01-0.8-0.01l-5.18,8.64C225.68,181.15,238.69,181.89,238.82,181.9z"/>
	</g>
	<path class="st1" d="M362.81,82.26c2.57-0.61,5.11-2.2,7.79-3.88c3.28-2.05,6.67-4.17,10.65-4.9c0.78-2.61,3.94-7.48,7.87-13.55
		c6.67-10.28,15.75-24.31,17.45-34.23c-2.56-1.32-7.29-2.62-12.72-4.11c-11.11-3.05-26.27-7.21-37.11-15.24
		c-2.44,3.12-4.64,9.12-7.18,16.02c-5.24,14.25-12.36,33.61-27.54,44.86c7.37,1.58,14.89,4.81,22.19,7.94
		C350.29,77.78,356.56,80.47,362.81,82.26z M360.2,25.12c0.42,0.15,10.26,3.68,13.67,5.39c1.9,0.95,5.19,1.23,8.38,1.51
		c2.32,0.2,4.72,0.41,6.73,0.87l-0.32,1.38c-1.92-0.44-4.26-0.64-6.54-0.84c-3.48-0.3-6.76-0.58-8.9-1.65
		c-3.34-1.67-13.42-5.29-13.52-5.32L360.2,25.12z M356.33,36.81c0.42,0.15,10.26,3.68,13.67,5.39c1.9,0.95,5.19,1.23,8.38,1.51
		c2.32,0.2,4.72,0.41,6.73,0.87l-0.32,1.38c-1.92-0.44-4.26-0.64-6.54-0.84c-3.48-0.3-6.76-0.58-8.9-1.65
		c-3.34-1.67-13.42-5.29-13.52-5.32L356.33,36.81z M349.62,46.79c0.42,0.15,10.26,3.68,13.67,5.39c1.9,0.95,5.19,1.23,8.38,1.51
		c2.32,0.2,4.72,0.41,6.73,0.87l-0.32,1.38c-1.92-0.44-4.26-0.64-6.54-0.84c-3.48-0.3-6.76-0.58-8.9-1.65
		c-3.34-1.67-13.42-5.29-13.52-5.32L349.62,46.79z M343.88,58.6c0.42,0.15,10.26,3.68,13.67,5.39c1.9,0.95,5.19,1.23,8.38,1.51
		c2.32,0.2,4.72,0.41,6.73,0.87l-0.32,1.38c-1.92-0.44-4.26-0.64-6.54-0.84c-3.48-0.3-6.76-0.58-8.9-1.65
		c-3.34-1.67-13.42-5.29-13.52-5.32L343.88,58.6z"/>
	<g>
		<polygon class="st3" points="396.81,235.63 397.65,242.24 400.17,243.42 404.94,238.52 		"/>
	</g>
	<g>
		<polygon class="st3" points="399.12,244.49 397.86,243.91 398.07,245.57 		"/>
	</g>
	<g>
		<path class="st4" d="M418.62,178.51c-3.82-0.73-6.64,4.43-7.12,5.37c1.84,0.29,6.19,1.14,8.7,3.04c0.46-1.61,1.21-5.38,0.07-7.28
			C419.9,179.02,419.36,178.66,418.62,178.51z"/>
	</g>
	<path class="st7" d="M411.06,185.26l-0.83,2.86c1.77,0.48,6.42,1.8,8.76,3.03l0.78-2.73C417.64,186.39,412.74,185.51,411.06,185.26
		z"/>
	<g>
		<path class="st2" d="M405.74,237.3l12.85-44.77c-1.81-1.06-6.39-2.42-8.76-3.06l-13.01,44.66L405.74,237.3z M412.58,199.81
			c0.36,0.16,0.52,0.57,0.37,0.93c-3.2,7.36-5.48,19.78-5.5,19.9c-0.06,0.34-0.36,0.58-0.7,0.58c-0.04,0-0.08,0-0.13-0.01
			c-0.39-0.07-0.64-0.44-0.57-0.82c0.09-0.52,2.33-12.7,5.59-20.21C411.8,199.82,412.21,199.65,412.58,199.81z"/>
	</g>
	<path class="st4" d="M63.06,247.44L60.63,234c-0.05-0.3,0.09-0.6,0.35-0.74c0.26-0.15,0.59-0.11,0.82,0.09l16.4,14.52l-2.75-24.15
		c-0.04-0.32,0.15-0.63,0.46-0.75c0.31-0.11,0.65,0,0.83,0.27l6.68,9.93v-5.65c0-0.29,0.18-0.56,0.45-0.66
		c0.27-0.11,0.58-0.03,0.78,0.18l4.13,4.54l1.03-0.75c1.54-13.96-3.79-16.06-3.86-16.09c-12.29-3.05-14.95,5.15-14.97,5.23
		l-0.96,7.18c-0.05,0.35-0.35,0.61-0.7,0.61H58.73c-1.06,0.42-8.66,3.72-6.06,12.31c0.97,3.2,4.86,5.81,9.56,7.86L63.06,247.44z"/>
	<path class="st4" d="M63.87,248.61c7.57,3,16.51,4.64,18.72,5.02c2.42-4.98,5.41-13.05,5.44-13.14c0.71-2.88,1.21-5.44,1.54-7.72
		l-0.46,0.34c-0.29,0.21-0.7,0.18-0.95-0.09l-3.32-3.66l0,6.14c0,0.31-0.2,0.59-0.5,0.68c-0.3,0.09-0.62-0.02-0.8-0.28l-6.36-9.44
		l2.63,23.1c0.03,0.29-0.12,0.57-0.38,0.71c-0.26,0.14-0.58,0.1-0.8-0.1l-16.25-14.39l2.15,11.91c0.05,0.29-0.08,0.59-0.34,0.74
		L63.87,248.61z"/>
	<g>
		<path class="st8" d="M96.68,49.94l26.61-11.94c-1.85-3.89-3.37-7.64-4.76-11.17L90.7,38.68C93.04,42.49,95.14,46.46,96.68,49.94z"
			/>
	</g>
	<g>
		<path class="st3" d="M129.15,46c7.82-1.69,12.02-4.9,16.46-8.29c2.2-1.68,4.47-3.41,7.23-4.99c-0.43-1.95-2.13-9.33-4.71-16.59
			c-2.03-5.43-4.42-10.46-6.76-13.36c0,0-0.01-0.01-0.01-0.01c0,0,0,0,0,0c-0.35-0.43-0.7-0.83-1.04-1.16
			c-5.82-1.05-15.49,4.66-22.57,8.85c-1.31,0.78-2.56,1.51-3.72,2.17c1.73,3.23,3.22,7.06,4.93,11.45
			C121.54,30.69,124.46,38.19,129.15,46z M135.22,5c0.31-0.23,0.76-0.17,0.99,0.14c0.56,0.74,13.54,18.34,6.22,26.58
			c-0.14,0.16-0.34,0.24-0.53,0.24c-0.17,0-0.34-0.06-0.47-0.18c-0.29-0.26-0.32-0.71-0.06-1c6.56-7.38-6.17-24.61-6.3-24.79
			C134.84,5.68,134.91,5.23,135.22,5z"/>
	</g>
	<g>
		<path class="st3" d="M58.39,40.05c-0.01,0.49,0.03,1.02,0.08,1.55c0.54,2.58,3.81,15.99,15.5,28.46c0.33,0.28,0.67,0.56,0.98,0.78
			c9.28-1.62,22.49-7.96,22.61-14.44c-1.77-6.95-10.04-21.8-16.62-28.49l-1,0.2C73.11,29.49,61.72,31.77,58.39,40.05z"/>
	</g>
	<g>
		<path class="st3" d="M66.98,73.33c3.98-1,5.27-2.04,5.68-2.52c-5.91-5.38-14.39-19.28-15.55-28.54c-2.81,1.27-4.59,3.87-5.06,4.62
			C54.96,62.79,65.21,71.87,66.98,73.33z"/>
	</g>
	<g>
		<path class="st3" d="M157.91,27.7c1.85-8.12-9.5-23.34-10.65-24.86c-0.71-0.31-2.49-0.23-4.03-0.04c2.49,3.31,4.65,8.26,6.39,13.2
			c2,5.4,3.61,11.11,4.48,15.6L157.91,27.7z"/>
	</g>
	<path class="st7" d="M150.29,120.77c1.88,0.82,3.09,3.03,3.66,4.31c11.83-9.72,19.52-19.79,19.65-19.95c0-0.01,2.65-4.06,1.73-7.85
		c-0.46-1.88-1.73-3.41-3.79-4.55c-3.63-2.02-6.11-2.54-7.7-2.54c-1.7,0-2.39,0.6-2.41,0.61c-0.05,0.04-0.11,0.09-0.16,0.12
		c-3.83,2-7.36,5-10.57,8.56c1.16,0.7,3.11,2.29,3.92,5.45c0.1,0.38-0.13,0.77-0.51,0.86c-0.06,0.02-0.12,0.02-0.18,0.02
		c-0.32,0-0.6-0.21-0.69-0.53c-0.76-2.94-2.64-4.26-3.5-4.73c-6.57,7.62-11.76,17.47-15.35,25.57c1.21,0.2,3.07,0.83,3.54,2.83
		c0.09,0.38-0.15,0.76-0.53,0.85c-0.05,0.01-0.11,0.02-0.16,0.02c-0.32,0-0.61-0.22-0.69-0.55c-0.32-1.37-1.94-1.71-2.75-1.8
		c-2.44,5.65-4.07,10.29-4.79,12.48c8.81-3.18,16.95-8.46,23.8-13.95c-0.41-0.99-1.48-3.23-3.08-3.93
		c-0.36-0.16-0.52-0.58-0.37-0.93C149.51,120.78,149.93,120.62,150.29,120.77z"/>
	<g>
		<path class="st3" d="M391.38,298.93c-15.62-14.31-33.11-37.92-53.48-72.2c-0.78-1.31-1.54-2.55-2.3-3.76
			c-2.19,1.91-4.95,2.97-7.89,2.97c-6.63,0-12.03-5.4-12.03-12.03c0-3.98,2-7.69,5.25-9.91c-6.94-6.79-13.07-9.71-19.4-12.72
			c-2.26-1.08-4.61-2.19-7.02-3.49c-8.9-4.81-23-8.78-32.06-11.03c-1.93,13.21-20.86,13.4-21.06,13.4
			c-11.19-0.09-18.78-2.62-22.56-7.51c-2.57-3.32-2.61-6.78-2.44-8.45c-1.96,0.31-4.26,0.88-6.87,1.88
			c0.04,0.31,0.06,0.64,0.06,0.98c0,4.96-4.03,8.99-8.99,8.99c-3.25,0-6.16-1.72-7.76-4.5l-16.43,5.24
			c-1.06,0.75-11.76,8.41-15.87,16.32c-2.22,4.27-8.85,14.54-15.28,24.11c2.51,2.51,3.95,5.93,3.95,9.52
			c0,7.43-6.04,13.47-13.47,13.47c-2.02,0-4.02-0.48-5.83-1.36c-5.01,6.35-22.98,28.76-33.34,37.19
			c-10.43,8.48-18.83,21.88-20.81,25.18c2.66,0.91,10.52,4.04,11.94,9.67c3.32-1.78,7.79-3.73,12.08-4.18c0.8-0.32,1.62-0.65,2.47-1
			c-0.23-0.92-0.38-1.87-0.38-2.84c0-6.42,5.22-11.64,11.64-11.64c3.48,0,6.68,1.51,8.89,4.14c1.04-0.67,2.08-1.37,3.09-2.08
			c0.32-0.17,20.31-10.64,31.57-17.5c-1.42-1.63-2.19-3.67-2.19-5.85c0-4.92,4-8.92,8.91-8.92c2.98,0,5.72,1.49,7.36,3.92
			c3.66-3.03,7.34-6.27,8.19-8.83c0.92-2.76,1.39-4.8,1.61-5.94c-0.42-1.08-0.81-2.09-1.17-3.03c-2.77-7.17-2.77-7.17-2.11-7.48
			c0.33-0.16,0.8,0.05,0.98,0.37c1.23,2.15,3.74,8.64,3.85,8.91c0.04,0.11,0.06,0.22,0.04,0.34c0,0.03-0.04,0.29-0.12,0.76
			c2.1,5.44,4.78,12.47,7.21,19.27c0.39-0.04,0.79-0.08,1.17-0.08c6.61,0,11.99,5.38,11.99,11.99c0,4.34-2.28,8.22-5.93,10.35
			c10.2,0.3,52.94,1.44,72.57-0.1c0.01,0,0.01-0.01,0.02-0.01c0.01,0,0.01,0,0.02,0c3.63-0.29,6.47-0.66,8.15-1.16
			c0.24-4.75,5.13-17.61,9.97-29.29c-3.85-0.28-6.91-3.46-6.91-7.38c0-4.1,3.33-7.43,7.43-7.43c1.78,0,3.48,0.65,4.84,1.8
			c0.9-2.53,2.86-7.69,4.37-9.32c0.24-0.26,0.62-0.3,0.91-0.11c0.29,0.19,0.4,0.57,0.25,0.88c-0.06,0.13-1.94,4.27-4.5,10.16
			c1.79,2.46,11.89,16.02,18.26,17.81c7.08,1.99,21.19,10.94,22.65,11.87c8.57,2.05,37.86,20.81,43.6,24.52
			c1.35,0.68,8.97,3.89,15.23,3.17l1.18-0.14c4.39-0.52,6.97-0.82,12.19,1.27C402.91,310.82,397.39,304.3,391.38,298.93z
			 M115.13,289.65c-2.57,0-4.66-2.09-4.66-4.66c0-2.57,2.09-4.66,4.66-4.66c2.57,0,4.66,2.09,4.66,4.66
			C119.79,287.56,117.7,289.65,115.13,289.65z M165.05,213.21c-1.26,0-2.28-1.02-2.28-2.28s1.02-2.28,2.28-2.28
			c1.26,0,2.28,1.02,2.28,2.28S166.31,213.21,165.05,213.21z M172.11,263.75c-1.09,0-1.97-0.88-1.97-1.97s0.88-1.97,1.97-1.97
			c1.09,0,1.97,0.88,1.97,1.97S173.2,263.75,172.11,263.75z M187.33,244.35c-1.29,0-2.34-1.05-2.34-2.34c0-1.29,1.05-2.34,2.34-2.34
			c1.29,0,2.34,1.05,2.34,2.34C189.67,243.3,188.62,244.35,187.33,244.35z M186.4,221.91c-4.41,0-8-3.59-8-8s3.59-8,8-8
			c4.41,0,8,3.59,8,8C194.4,218.32,190.81,221.91,186.4,221.91z M212.73,196.51c0.99,0,1.79,0.8,1.79,1.79
			c0,0.99-0.8,1.79-1.79,1.79c-0.99,0-1.79-0.8-1.79-1.79C210.94,197.31,211.74,196.51,212.73,196.51z M207.83,254.2
			c-4.37,0-7.93-3.56-7.93-7.93c0-4.37,3.56-7.93,7.93-7.93c4.37,0,7.93,3.56,7.93,7.93C215.75,250.65,212.2,254.2,207.83,254.2z
			 M215.96,287.76c-1.01,0-1.83-0.82-1.83-1.83c0-1.01,0.82-1.83,1.83-1.83s1.83,0.82,1.83,1.83
			C217.78,286.95,216.96,287.76,215.96,287.76z M233.96,252.76c-1.94,0-3.52-1.58-3.52-3.52c0-1.94,1.58-3.52,3.52-3.52
			c1.94,0,3.52,1.58,3.52,3.52C237.49,251.18,235.91,252.76,233.96,252.76z M236.84,203.64c-0.79,0-1.43-0.64-1.43-1.43
			c0-0.79,0.64-1.43,1.43-1.43c0.79,0,1.43,0.64,1.43,1.43C238.27,203,237.63,203.64,236.84,203.64z M270.33,264.61
			c0,1.31-1.06,2.37-2.36,2.37c-1.31,0-2.36-1.06-2.36-2.37c0-1.31,1.06-2.37,2.36-2.37C269.27,262.24,270.33,263.3,270.33,264.61z
			 M259.84,193.2c0.67,0,1.22,0.54,1.22,1.22c0,0.67-0.54,1.22-1.22,1.22s-1.22-0.54-1.22-1.22
			C258.62,193.75,259.16,193.2,259.84,193.2z M250.27,231.99c0-5,4.07-9.07,9.07-9.07c5,0,9.07,4.07,9.07,9.07
			c0,5-4.07,9.07-9.07,9.07C254.34,241.06,250.27,236.99,250.27,231.99z M265.91,294.55c-4.73,0-8.57-3.85-8.57-8.57
			c0-4.73,3.85-8.57,8.57-8.57c4.73,0,8.57,3.85,8.57,8.57C274.49,290.71,270.64,294.55,265.91,294.55z M274.08,201.36
			c-1.96,0-3.56-1.6-3.56-3.56c0-1.96,1.6-3.56,3.56-3.56c1.96,0,3.56,1.6,3.56,3.56C277.64,199.76,276.05,201.36,274.08,201.36z
			 M289.28,241.06c-1.77,0-3.22-1.44-3.22-3.22s1.44-3.22,3.22-3.22c1.77,0,3.22,1.44,3.22,3.22S291.05,241.06,289.28,241.06z
			 M304.7,205.86c-0.97,0-1.75-0.79-1.75-1.75c0-0.97,0.79-1.75,1.75-1.75c0.97,0,1.75,0.79,1.75,1.75
			C306.46,205.07,305.67,205.86,304.7,205.86z M318.08,251.9c-1.13,0-2.05-0.92-2.05-2.05c0-1.13,0.92-2.05,2.05-2.05
			c1.13,0,2.05,0.92,2.05,2.05C320.13,250.98,319.21,251.9,318.08,251.9z M334.26,245.07c2.17,0,3.94,1.77,3.94,3.94
			s-1.77,3.94-3.94,3.94s-3.94-1.77-3.94-3.94S332.09,245.07,334.26,245.07z M339.28,282.24c-4.33,0-7.85-3.52-7.85-7.85
			c0-4.33,3.52-7.85,7.85-7.85c4.33,0,7.85,3.52,7.85,7.85C347.13,278.72,343.6,282.24,339.28,282.24z"/>
	</g>
	<path class="st1" d="M147.81,236.74c0-3.12-1.21-6.1-3.34-8.32c-6.1,9.05-11.83,17.23-13.2,18.72c-0.01,0.02-0.18,0.23-0.44,0.57
		c1.54,0.7,3.23,1.09,4.93,1.09C142.4,248.79,147.81,243.38,147.81,236.74z"/>
	<path class="st1" d="M292.47,259.49c-1.16-1.17-2.71-1.86-4.33-1.86c-3.32,0-6.01,2.7-6.01,6.01c0,3.32,2.7,6.01,6.01,6.01
		c0.01,0,0.03,0,0.04,0c1.49-3.58,2.96-7,4.27-10.01C292.45,259.59,292.46,259.54,292.47,259.49z"/>
	<path class="st1" d="M317.11,213.92c0,5.85,4.76,10.61,10.61,10.61c2.67,0,5.17-0.99,7.12-2.77c-4.69-7.35-8.92-12.69-12.88-16.74
		C318.97,206.97,317.11,210.32,317.11,213.92z"/>
	<path class="st1" d="M200.61,184.63c4.18,0,7.57-3.4,7.57-7.57c0-0.15-0.03-0.27-0.04-0.42c-0.1,0.04-0.2,0.08-0.3,0.12
		l-13.61,4.34C195.61,183.29,197.98,184.63,200.61,184.63z"/>
	<path class="st9" d="M201.38,291.21c0-5.83-4.74-10.57-10.57-10.57c-0.22,0-0.46,0.03-0.68,0.05c2.88,8.12,5.33,15.73,5.91,19.72
		C199.33,298.55,201.38,295.09,201.38,291.21z"/>
	<path class="st9" d="M163.79,272.44c-4.13,0-7.49,3.37-7.49,7.5c0,1.91,0.74,3.68,2.03,5.08c2.69-1.68,4.75-3.09,5.69-3.99
		c1.57-1.52,3.53-3.13,5.6-4.83c0.14-0.12,0.29-0.23,0.43-0.35C168.68,273.74,166.34,272.44,163.79,272.44z"/>
	<path class="st1" d="M113.53,302.65c-5.64,0-10.23,4.59-10.23,10.23c0,0.78,0.11,1.55,0.28,2.29c5.49-2.33,11.72-5.34,17.63-9.02
		C119.27,303.92,116.52,302.65,113.53,302.65z"/>
	<g>
		<path class="st6" d="M408.2,320.07c-0.08-0.01-0.15-0.02-0.23-0.05c-5.87-2.59-8.21-2.31-12.88-1.76l-1.19,0.14
			c-2.29,0.26-4.99-0.01-7.56-0.52c2,0.66,3.57,1.02,3.6,1.02c0.12,0.03,0.23,0.08,0.32,0.16c6.05,5.33,9.33,16.23,10.58,21.25
			c1.79-7.17,0.58-15.05,0.56-15.14c-0.06-0.35,0.16-0.7,0.51-0.79c0.34-0.1,0.71,0.08,0.85,0.41c6.27,14.94,6.39,37.56,6.2,45.7
			c0,0.01,0,0.02,0,0.03c0,0.03,0,0.06,0,0.08C418.51,352.56,416.08,334.81,408.2,320.07z"/>
	</g>
	<g>
		<path class="st6" d="M67.06,365.12c-4.48-41.2,8.29-44.78,8.84-44.91c0.3-0.07,0.61,0.06,0.77,0.32c0.16,0.26,0.13,0.6-0.07,0.83
			c-6.55,7.63-4.95,13.39-3.64,15.92c1.71-5.43,9.24-12.89,9.6-13.24c0.18-0.13,1.64-1.16,3.83-2.42c-1.01-5.46-9.6-8.57-11.5-9.19
			C64.39,322.5,59.03,332.94,59,343.47C58.96,354.01,64.39,361.88,67.06,365.12z"/>
	</g>
	<path class="st4" d="M180.1,437.39c0.16,0.06,15.73,5.6,29.45,6.65c11.31,0.86,19.47,1.45,23.36,1.44
		c-12.51-11.19-15.99-26.03-16.57-28.98c-5.08-0.72-48.62-6.86-58-8.13c-1.49-0.03-5.95,0.19-7.65,1.66
		c-0.45,0.39-0.9,1.95-0.47,4.19C151.01,418.32,155.5,428.8,180.1,437.39z"/>
	<g>
		<path class="st5" d="M228.17,407.2c-4.86,4.2-8.78,7.56-10.45,8.95c0.5,2.61,3.99,18.07,17.22,29.19c0.89-0.24,3.5-1.12,7.15-2.39
			C228.83,427.86,228.03,412.28,228.17,407.2z"/>
	</g>
	<path class="st4" d="M342.29,410.74c-1.43,0.52-2.37,0.85-2.63,0.94c-17.16,4.33-54.86,17.66-80.64,26.8
		c10.2,13.93,38.21,9.27,38.5,9.22c33.52-7.42,41.96-22.73,42.04-22.88c0.03-0.07,0.08-0.13,0.13-0.18
		C344.98,419.46,343.03,412.74,342.29,410.74z"/>
	<g>
		<path class="st10" d="M256.95,380.36c-4.73-3.3-80.89-55.86-136.28-62.57c-0.07,0-12.66-0.45-20.52,0.3
			c-5.68,2.23-10.12,3.61-11.92,4.14c-2.79,1.51-4.71,2.85-4.75,2.88c-0.01,0.02-9.29,9.21-9.43,14.03
			c-0.01,0.29-0.19,0.55-0.47,0.65c-0.28,0.1-0.58,0.02-0.77-0.2c-0.06-0.07-4.64-5.46-0.94-13.58c-3.03,5.28-6.04,16.68-3.16,40.95
			c25.13,26.59,114.52,43.4,115.44,43.57c0,0,0,0,0,0c14.68,2.06,30.21,4.25,32.59,4.59C221.63,411.05,247.67,388.43,256.95,380.36z
			"/>
	</g>
	<g>
		<path class="st10" d="M407.55,370.24c0.16-7.33,0.05-25.69-4.31-39.92c0.09,3.65-0.2,8.6-1.84,13c-0.11,0.3-0.39,0.49-0.72,0.46
			c-0.32-0.03-0.58-0.26-0.64-0.57c-0.03-0.16-3.2-16.29-10.58-22.96c-1.19-0.28-7.61-1.87-10.84-4.67
			c-0.04-0.02-0.68-0.44-1.76-1.14c-2.81,0.28-32.7,3.63-52.95,19.32c-0.09,0.05-1.32,0.83-3.36,2.13c0,0,0,0.01-0.01,0.01
			c-0.11,0.14-0.26,0.23-0.42,0.26c-12.33,7.87-50.95,32.9-58.87,42.32c-0.32,0.29-18.59,16.19-31.6,27.43
			c-0.2,2.32-1.12,19.78,13.87,36.53c3.76-1.32,8.4-2.96,13.33-4.71c25.82-9.16,64.85-22.99,82.4-27.42
			C339.76,410.14,395.99,390.47,407.55,370.24z"/>
	</g>
	<g>
		<path class="st10" d="M282.23,308.13c-0.81,1.13-3.04,2.99-9.23,4.18c-0.68,0.13-1.66,0.26-2.89,0.39c-0.02,0-0.03,0.01-0.04,0.01
			c-0.01,0-0.03,0-0.04,0c0,0-0.01,0-0.01,0c-2.15,0.22-5.07,0.43-8.49,0.63c-0.03,0.01-0.06,0.02-0.09,0.02c-0.01,0-0.02,0-0.03,0
			c-0.02,0-0.04-0.01-0.06-0.01c-3.71,0.21-8.02,0.4-12.62,0.56c-0.01,0-0.02,0.01-0.04,0.01c-0.03,0-0.07,0.01-0.1,0.01
			c-0.02,0-0.05-0.01-0.07-0.01c-4.61,0.16-9.51,0.29-14.4,0.38c-0.01,0-0.03,0.01-0.04,0.01c-0.01,0-0.01,0-0.02,0
			c-0.01,0-0.03-0.01-0.04-0.01c-4.36,0.08-8.71,0.12-12.83,0.12c-0.91,0-1.81,0-2.7-0.01c-0.01,0-0.03,0.01-0.04,0.01
			c-0.02,0-0.03-0.01-0.05-0.01c-8.92-0.04-16.47-0.31-20.25-0.88c-0.32-0.08-5.66-1.53-6.99-4.79c-1.37,0.93-4.09,2.46-8.5,4.92
			c-6.79,3.78-15.95,8.88-21.99,13.23c48.43,18.16,96.73,52.04,97.34,52.48c0.02,0.01,0.02,0.03,0.04,0.04
			c1.34-1.16,2.15-1.87,2.2-1.92c7.95-9.48,45.41-33.78,58.44-42.1L282.23,308.13z"/>
	</g>
	<g>
		<path class="st8" d="M192.32,307.7c0.46,2.44,4.53,4.03,6.11,4.45c1.66,0.25,4.07,0.44,6.99,0.58v-9.51
			c-5.26-0.13-9.02-0.25-10.37-0.29C194.27,304.48,193.16,306.56,192.32,307.7z"/>
	</g>
	<g>
		<path class="st8" d="M249.2,312.5c4.16-0.15,8.04-0.32,11.46-0.51l-0.39-8.61c-3.83,0.14-8.01,0.22-12.35,0.27L249.2,312.5z"/>
	</g>
	<g>
		<path class="st8" d="M234.56,303.68l0.19,9.21c4.42-0.08,8.83-0.2,13.02-0.34l-1.28-8.89c-2.31,0.02-4.65,0.03-7.01,0.03
			C237.85,303.69,236.2,303.68,234.56,303.68z"/>
	</g>
	<g>
		<path class="st8" d="M217.74,313.01v-9.53c-3.98-0.07-7.68-0.15-10.89-0.23v9.53C210.02,312.92,213.73,312.99,217.74,313.01z"/>
	</g>
	<g>
		<path class="st8" d="M219.15,313.02c4.5,0.02,9.32-0.02,14.18-0.11l-0.2-9.24c-4.82-0.03-9.56-0.09-13.99-0.16L219.15,313.02z"/>
	</g>
	<g>
		<path class="st8" d="M262.08,311.9c2.83-0.17,5.29-0.35,7.2-0.53l-0.45-8.44c-2.16,0.16-4.56,0.29-7.14,0.39L262.08,311.9z"/>
	</g>
	<g>
		<path class="st8" d="M270.7,311.22c0.84-0.1,1.52-0.2,2.04-0.3c7.81-1.51,8.55-3.96,8.56-4c0.69-3.43-2.19-4.98-3-5.34
			c-1.64,0.52-4.44,0.93-8.05,1.23L270.7,311.22z"/>
	</g>
	<path class="st7" d="M255.9,178.33c-2.56,3.15-8.31,4.83-17.1,4.99c-0.63-0.03-14.08-0.81-15.11-9.14
		c-0.8-0.18-2.81-0.49-5.83-0.18c-0.17,1.24-0.34,4.63,2.13,7.8c3.46,4.45,10.87,6.85,21.43,6.94c0.18,0,18.01-0.19,19.67-12.32
		c-1.5-0.37-2.83-0.68-3.93-0.93C257.07,176.21,256.78,177.24,255.9,178.33z"/>
	<path class="st11" d="M392.33,297.88c-15.51-14.21-32.92-37.71-53.21-71.87c-15.26-25.68-25.8-30.7-36.97-36.01
		c-2.25-1.07-4.57-2.17-6.95-3.46c-13.21-7.14-37.66-12.45-40.78-13.11l-5.04-9.54c0.46-0.14,0.92-0.28,1.39-0.44
		c7.52-2.66,11.42-10.35,12.82-13.75c0.79,1.37,2.25,3.08,4.57,2.96c0.56,0.07,1.6-0.06,2.47-0.98c2.09-2.2,2.11-7.55,0.05-15.82
		c0-0.03-0.38-3.11,1.44-6.41c0-0.01,0.01-0.02,0.01-0.03c0.01-0.02,0.02-0.04,0.03-0.06c0.06-0.16,6.18-16.48,0.01-33.85
		c-2.03-5.72-4.99-9.99-8.13-13.19c1.94-0.14,5.07-0.78,7.44-3.25c0.45-0.47,0.97-0.97,1.53-1.51c3.62-3.48,9.05-8.7,5.98-15.99
		c1.44-1.17,5.3-5.28,5.3-15.72c0-0.22,0.09-5.34-2.94-7.76c-1.36-1.09-3.1-1.45-5.18-1.08c-0.35-1.51-1.49-4.93-4.86-7.37
		c-3.47-2.52-8.25-3.24-14.22-2.16c-0.96-1.75-4.86-7.07-16.78-7.66c-13.99-0.7-17.84,6.69-17.99,7c-0.1,0.19-0.1,0.42-0.01,0.62
		c0.09,0.2,0.27,0.34,0.48,0.39l0.61,0.15c-6.72,0.76-17.61,3.99-19.37,16.8c-0.06,0.26-5.09,25.24,17.82,34.69
		c-7.36,2.5-19.79,8.67-22.84,22.36c-0.09,0.65-1.97,15.91,5.69,24.53v4.08c-1.01,1.6-7.55,12.56-2.6,19.54
		c0.16,0.23,0.45,0.34,0.72,0.28c0.25-0.05,6.01-1.38,5.41-16.04c0.2,0.17,0.35,0.41,0.35,0.76c0,1.44,2.52,17.25,10.92,25.4
		c2.75,2.67,5.85,4.21,9.17,4.64l-4.67,7.79c-1.7-0.38-7.17-1.14-15.37,2.13c0,0,0,0,0,0c-0.03,0.01-0.05,0.02-0.07,0.03
		c-0.39,0.16-0.78,0.31-1.19,0.49l-31.46,10.03c-0.07,0.02-0.13,0.05-0.19,0.09c-0.49,0.33-11.94,8.29-16.41,16.9
		c-4.55,8.75-26.73,41.19-29.11,43.77c-0.22,0.29-22.54,29-34.5,38.71c-11.68,9.49-20.81,24.99-21.55,26.25
		c-10.96,10.42-16.53,21.29-16.56,32.3c-0.03,13.03,7.65,21.88,9.53,23.84c17.79,19.68,68.71,33.81,97.13,40.42
		c-2.46-0.34-4.46-0.62-5.78-0.8c-0.25-0.01-6.23-0.13-8.69,2c-1.04,0.9-1.41,3.07-0.94,5.53c0.83,4.35,5.5,15.41,30.79,24.24
		c0.16,0.06,15.9,5.67,29.82,6.73c11.46,0.87,19.35,1.45,23.35,1.45c0.85,0,1.53-0.03,2.02-0.08c0.57-0.06,3.39-1.01,8.74-2.88
		c0,0,0,0,0,0c3.49-1.22,8.04-2.83,13.77-4.86c0.1-0.04,0.2-0.07,0.3-0.11c6.36,9.12,19.28,10.99,28.77,10.99
		c6.18,0,10.9-0.79,11.39-0.87c33.21-7.35,42.14-22.02,42.97-23.51c5.75-5.71,3.69-13.05,2.85-15.32
		c12.69-4.71,51.84-20.3,63.86-37.26c-0.01,0.29-0.02,0.46-0.02,0.48c-0.02,0.33,0.19,0.62,0.5,0.72c0.07,0.02,0.14,0.03,0.21,0.03
		c0.25,0,0.48-0.13,0.61-0.35C426.24,344.28,411.73,315.21,392.33,297.88z M339.56,424.81c-0.08,0.15-8.53,15.47-42.04,22.88
		c-0.29,0.05-28.29,4.71-38.5-9.22c25.78-9.14,63.48-22.46,80.64-26.8c0.26-0.09,1.2-0.42,2.63-0.94c0.75,2,2.7,8.72-2.59,13.9
		C339.64,424.68,339.59,424.74,339.56,424.81z M150.7,410.02c1.7-1.47,6.15-1.69,7.65-1.66c9.38,1.28,52.92,7.42,58,8.13
		c0.59,2.95,4.07,17.79,16.57,28.98c-3.89,0.01-12.05-0.58-23.36-1.44c-13.72-1.04-29.29-6.59-29.45-6.65
		c-24.6-8.59-29.09-19.07-29.87-23.17C149.8,411.98,150.24,410.42,150.7,410.02z M184.14,410.54c-0.91-0.17-90.3-16.98-115.44-43.57
		c-2.88-24.27,0.13-35.67,3.16-40.95c-3.7,8.11,0.89,13.51,0.94,13.58c0.19,0.22,0.5,0.3,0.77,0.2c0.27-0.1,0.46-0.36,0.47-0.65
		c0.14-4.82,9.42-14.01,9.43-14.03c0.04-0.03,1.95-1.37,4.75-2.88c1.8-0.53,6.24-1.91,11.92-4.14c7.86-0.74,20.46-0.3,20.52-0.3
		c55.4,6.71,131.55,59.27,136.28,62.57c-9.28,8.07-35.32,30.69-40.21,34.76C214.35,414.79,198.82,412.6,184.14,410.54
		C184.14,410.54,184.14,410.54,184.14,410.54z M234.93,445.34c-13.23-11.13-16.71-26.59-17.22-29.19c1.67-1.39,5.59-4.75,10.45-8.95
		c-0.14,5.08,0.67,20.66,13.91,35.75C238.43,444.22,235.82,445.11,234.93,445.34z M103.3,312.87c0-5.64,4.59-10.23,10.23-10.23
		c3,0,5.75,1.27,7.68,3.49c-5.91,3.69-12.13,6.69-17.63,9.02C103.41,314.42,103.3,313.66,103.3,312.87z M122.69,306.88
		c0,0,0.01,0,0.02-0.01c0,0,0,0,0,0c1.2-0.76,2.38-1.55,3.54-2.37c1.38-0.72,33.88-17.73,38.76-22.46c1.53-1.48,3.47-3.07,5.52-4.75
		c4.46-3.65,9.06-7.43,10.16-10.73c0.53-1.58,0.91-2.92,1.18-4.01c4.74,12.36,11.71,30.97,12.76,38.02
		c-0.45,0.94-2.46,5.09-3.62,6.5c-0.47,0.58-4.83,3-9.05,5.35c-7.11,3.96-16.82,9.37-22.9,13.88c-13.1-4.82-26.18-8.45-38.28-9.92
		c-0.11,0-8.95-0.31-16.49,0.02C110.04,313.96,116.55,310.78,122.69,306.88z M169.63,276.2c-2.07,1.7-4.03,3.31-5.6,4.83
		c-0.93,0.91-2.99,2.32-5.69,3.99c-1.3-1.4-2.03-3.17-2.03-5.08c0-4.14,3.36-7.5,7.49-7.5c2.55,0,4.89,1.3,6.26,3.41
		C169.91,275.96,169.77,276.08,169.63,276.2z M196.04,300.42c-0.58-3.99-3.03-11.6-5.91-19.72c0.22-0.01,0.46-0.05,0.68-0.05
		c5.83,0,10.57,4.74,10.57,10.57C201.38,295.09,199.33,298.55,196.04,300.42z M288.14,269.66c-3.32,0-6.01-2.7-6.01-6.01
		c0-3.32,2.7-6.01,6.01-6.01c1.63,0,3.18,0.69,4.33,1.86c-0.01,0.05-0.03,0.1-0.03,0.15c-1.31,3.01-2.78,6.44-4.27,10.01
		C288.16,269.65,288.15,269.66,288.14,269.66z M289.34,270.57c0-0.01,0.01-0.01,0.01-0.02c1.39-3.33,2.76-6.55,4-9.42
		c2.76,3.74,12.1,15.86,18.53,17.66c7.11,2,22.22,11.67,22.38,11.77c0.07,0.05,0.15,0.08,0.23,0.09
		c7.16,1.61,31.25,16.69,40.49,22.57c-7.34,0.93-33.52,5.14-51.88,19.37c-0.28,0.18-1.4,0.88-3.13,1.98l-37.21-27.83
		c0.46-3.47-1.98-5.58-3.71-6.39C279.25,295.78,284.39,282.45,289.34,270.57z M260.24,377.5c-0.05,0.05-0.87,0.75-2.2,1.92
		c-0.01-0.01-0.02-0.03-0.04-0.04c-0.62-0.44-48.92-34.31-97.34-52.48c6.04-4.35,15.21-9.45,21.99-13.23
		c4.41-2.46,7.13-3.98,8.5-4.92c1.33,3.27,6.67,4.71,6.99,4.79c3.79,0.57,11.33,0.83,20.25,0.88c0.02,0,0.03,0.01,0.05,0.01
		c0.02,0,0.03-0.01,0.04-0.01c0.89,0,1.79,0.01,2.7,0.01c4.12,0,8.47-0.04,12.83-0.12c0.01,0,0.03,0.01,0.04,0.01c0,0,0.01,0,0.02,0
		c0.02,0,0.03-0.01,0.04-0.01c4.89-0.09,9.79-0.22,14.4-0.38c0.02,0,0.05,0.01,0.07,0.01c0.03,0,0.07,0,0.1-0.01
		c0.01,0,0.02-0.01,0.04-0.01c4.6-0.16,8.9-0.35,12.62-0.56c0.02,0,0.04,0.01,0.06,0.01c0.01,0,0.02,0,0.03,0
		c0.03,0,0.06-0.02,0.09-0.02c3.42-0.2,6.34-0.41,8.49-0.63c0,0,0.01,0,0.01,0c0.01,0,0.03,0,0.04,0c0.02,0,0.03-0.01,0.04-0.01
		c1.23-0.13,2.21-0.26,2.89-0.39c6.19-1.19,8.43-3.05,9.23-4.18l36.45,27.26C305.66,343.71,268.2,368.02,260.24,377.5z
		 M217.74,303.48v9.53c-4-0.02-7.72-0.09-10.89-0.22v-9.53C210.06,303.33,213.75,303.41,217.74,303.48z M246.5,303.66l1.28,8.89
		c-4.19,0.14-8.6,0.26-13.02,0.34l-0.19-9.21c1.64,0.01,3.29,0.01,4.93,0.01C241.85,303.69,244.19,303.68,246.5,303.66z
		 M268.83,302.93l0.45,8.44c-1.91,0.19-4.37,0.36-7.2,0.53l-0.39-8.58C264.27,303.22,266.68,303.09,268.83,302.93z M278.29,301.58
		c0.81,0.36,3.68,1.91,3,5.34c-0.01,0.04-0.74,2.49-8.56,4c-0.51,0.1-1.2,0.2-2.04,0.3l-0.45-8.41
		C273.86,302.51,276.65,302.11,278.29,301.58z M260.27,303.38l0.39,8.61c-3.42,0.19-7.31,0.36-11.46,0.51l-1.27-8.85
		C252.27,303.6,256.44,303.51,260.27,303.38z M233.14,303.67l0.2,9.24c-4.86,0.08-9.69,0.12-14.18,0.11l0-9.51
		C223.58,303.58,228.32,303.64,233.14,303.67z M205.42,312.73c-2.92-0.14-5.33-0.33-6.99-0.58c-1.59-0.42-5.66-2.01-6.11-4.45
		c0.84-1.14,1.95-3.22,2.73-4.77c1.35,0.04,5.12,0.16,10.37,0.29V312.73z M74.9,312.43c1.9,0.62,10.49,3.73,11.5,9.19
		c-2.19,1.25-3.65,2.28-3.83,2.42c-0.36,0.35-7.89,7.81-9.6,13.24c-1.31-2.52-2.91-8.29,3.64-15.92c0.2-0.23,0.23-0.57,0.07-0.83
		c-0.16-0.26-0.47-0.39-0.77-0.32c-0.56,0.13-13.32,3.71-8.84,44.91c-2.67-3.23-8.1-11.1-8.06-21.65
		C59.03,332.94,64.39,322.5,74.9,312.43z M339.25,410.32c-17.55,4.43-56.57,18.26-82.4,27.42c-4.94,1.75-9.58,3.39-13.33,4.71
		c-14.99-16.76-14.07-34.21-13.87-36.53c13.01-11.24,31.28-27.14,31.6-27.43c7.91-9.42,46.54-34.45,58.87-42.32
		c0.16-0.03,0.32-0.12,0.42-0.26c0,0,0-0.01,0.01-0.01c2.03-1.3,3.27-2.08,3.36-2.13c20.25-15.69,50.15-19.04,52.95-19.32
		c1.09,0.7,1.73,1.11,1.76,1.14c3.23,2.8,9.65,4.4,10.84,4.67c7.38,6.67,10.55,22.8,10.58,22.96c0.06,0.31,0.32,0.55,0.64,0.57
		c0.33,0.03,0.61-0.16,0.72-0.46c1.64-4.4,1.92-9.35,1.84-13c4.36,14.23,4.47,32.59,4.31,39.92
		C395.99,390.47,339.76,410.14,339.25,410.32z M408.97,370.52c0-0.01,0-0.02,0-0.03c0.19-8.14,0.07-30.76-6.2-45.7
		c-0.14-0.33-0.5-0.51-0.85-0.41c-0.35,0.1-0.56,0.44-0.51,0.79c0.01,0.09,1.23,7.97-0.56,15.14c-1.25-5.02-4.53-15.92-10.58-21.25
		c-0.09-0.08-0.2-0.14-0.32-0.16c-0.03-0.01-1.61-0.36-3.6-1.02c2.56,0.51,5.27,0.78,7.56,0.52l1.19-0.14
		c4.67-0.56,7.01-0.84,12.88,1.76c0.07,0.03,0.15,0.04,0.23,0.05c7.87,14.74,10.3,32.49,0.76,50.54
		C408.97,370.58,408.97,370.55,408.97,370.52z M394.93,316.86l-1.18,0.14c-6.26,0.72-13.88-2.48-15.23-3.17
		c-5.74-3.71-35.03-22.48-43.6-24.52c-1.47-0.94-15.58-9.88-22.65-11.87c-6.36-1.79-16.46-15.34-18.26-17.81
		c2.57-5.9,4.44-10.03,4.5-10.16c0.14-0.32,0.04-0.69-0.25-0.88c-0.29-0.19-0.68-0.15-0.91,0.11c-1.51,1.63-3.47,6.79-4.37,9.32
		c-1.36-1.15-3.06-1.8-4.84-1.8c-4.1,0-7.43,3.33-7.43,7.43c0,3.92,3.06,7.1,6.91,7.38c-4.84,11.68-9.73,24.54-9.97,29.29
		c-1.69,0.49-4.52,0.87-8.15,1.16c-0.01,0-0.01,0-0.02,0c-0.01,0-0.02,0-0.02,0.01c-19.63,1.54-62.37,0.4-72.57,0.1
		c3.65-2.13,5.93-6.01,5.93-10.35c0-6.61-5.38-11.99-11.99-11.99c-0.38,0-0.78,0.04-1.17,0.08c-2.44-6.8-5.12-13.83-7.21-19.27
		c0.08-0.47,0.11-0.73,0.12-0.76c0.01-0.11,0-0.23-0.04-0.34c-0.11-0.27-2.62-6.76-3.85-8.91c-0.18-0.32-0.65-0.53-0.98-0.37
		c-0.66,0.31-0.66,0.31,2.11,7.48c0.36,0.93,0.75,1.95,1.17,3.03c-0.22,1.14-0.69,3.18-1.61,5.94c-0.85,2.55-4.53,5.8-8.19,8.83
		c-1.64-2.43-4.39-3.92-7.36-3.92c-4.91,0-8.91,4-8.91,8.92c0,2.18,0.77,4.23,2.19,5.85c-11.26,6.86-31.25,17.33-31.57,17.5
		c-1.01,0.72-2.05,1.41-3.09,2.08c-2.21-2.63-5.41-4.14-8.89-4.14c-6.42,0-11.64,5.22-11.64,11.64c0,0.97,0.15,1.92,0.38,2.84
		c-0.84,0.35-1.67,0.68-2.47,1c-4.29,0.45-8.76,2.4-12.08,4.18c-1.42-5.63-9.28-8.76-11.94-9.67c1.99-3.31,10.38-16.71,20.81-25.18
		c10.37-8.42,28.33-30.84,33.34-37.19c1.81,0.88,3.81,1.36,5.83,1.36c7.43,0,13.47-6.04,13.47-13.47c0-3.59-1.44-7.01-3.95-9.52
		c6.43-9.58,13.06-19.85,15.28-24.11c4.12-7.91,14.81-15.58,15.87-16.32l16.43-5.24c1.6,2.78,4.51,4.5,7.76,4.5
		c4.96,0,8.99-4.03,8.99-8.99c0-0.35-0.03-0.67-0.06-0.98c2.6-1,4.9-1.57,6.87-1.88c-0.17,1.67-0.12,5.14,2.44,8.45
		c3.78,4.89,11.37,7.42,22.56,7.51c0.2,0,19.13-0.19,21.06-13.4c9.06,2.25,23.16,6.23,32.06,11.03c2.41,1.3,4.75,2.42,7.02,3.49
		c6.33,3.01,12.46,5.93,19.4,12.72c-3.25,2.23-5.25,5.93-5.25,9.91c0,6.63,5.4,12.03,12.03,12.03c2.94,0,5.7-1.05,7.89-2.97
		c0.75,1.2,1.52,2.45,2.3,3.76c20.36,34.28,37.85,57.89,53.48,72.2c6.01,5.37,11.53,11.89,15.74,19.2
		C401.9,316.03,399.32,316.33,394.93,316.86z M131.26,247.14c1.37-1.49,7.11-9.67,13.2-18.72c2.12,2.22,3.34,5.2,3.34,8.32
		c0,6.65-5.41,12.06-12.06,12.06c-1.7,0-3.39-0.39-4.93-1.09C131.09,247.37,131.25,247.16,131.26,247.14z M207.84,176.76
		c0.1-0.04,0.2-0.08,0.3-0.12c0.01,0.14,0.04,0.26,0.04,0.42c0,4.18-3.4,7.57-7.57,7.57c-2.63,0-5-1.34-6.38-3.53L207.84,176.76z
		 M230.49,163.31c-0.34-0.2-0.77-0.09-0.97,0.24l-0.07,0.11c-3.29-0.29-6.31-1.73-8.98-4.32c-7.98-7.74-10.49-23.18-10.49-24.38
		c0-1.76-1.6-2.42-2.44-2.53c-0.21-0.03-0.42,0.04-0.57,0.19c-0.15,0.14-0.24,0.35-0.22,0.56c0.71,11.83-2.62,14.81-3.81,15.49
		c-4.03-6.65,2.99-17.54,3.06-17.65c0.08-0.11,0.12-0.25,0.12-0.39v-3.85l5.67,0c0.39,0,0.71-0.32,0.71-0.71v-7.19h10.54
		c0.05,0,0.1-0.01,0.15-0.02c0.48-0.1,11.32-2.56,16.17-11.8c1.78,2.83,6.98,10.04,15.92,13.89c0.07,0.03,0.14,0.05,0.22,0.05
		l10.91,1v6.65c0,0.36,0.27,0.67,0.64,0.71l3.4,0.35c-1.51,3.29-1.16,6.21-1.12,6.41c2.53,10.22,1.3,13.5,0.34,14.55
		c-0.62,0.68-1.29,0.58-1.3,0.58c-0.06-0.01-0.13-0.02-0.18-0.01c-2.74,0.19-3.94-3.57-3.95-3.61c-0.09-0.29-0.37-0.49-0.68-0.49
		c0,0,0,0,0,0c-0.31,0-0.58,0.2-0.68,0.5c-0.04,0.11-3.64,11.32-12.55,14.47c-9.06,3.2-18.93,1.64-19.16,1.61
		c-0.11,0-0.22-0.01-0.33-0.01C230.75,163.55,230.65,163.4,230.49,163.31z M200.39,102.07c4.17-18.67,27-22.67,27.23-22.71
		c0.39-0.06,0.65-0.43,0.58-0.82c-0.06-0.39-0.42-0.65-0.82-0.58c-0.06,0.01-1.36,0.24-3.39,0.82
		c-23.67-8.46-18.82-32.68-18.59-33.76c2.39-17.35,22.32-15.87,23.17-15.8c0.38,0.03,0.7-0.23,0.76-0.59
		c0.06-0.37-0.17-0.72-0.53-0.8l-4.71-1.13c1.38-1.78,5.75-5.97,16.14-5.45c12.98,0.65,15.76,7.24,15.79,7.3
		c0.12,0.32,0.46,0.51,0.8,0.44c5.8-1.14,10.39-0.54,13.63,1.8c3.85,2.78,4.44,7.12,4.45,7.17c0.03,0.2,0.14,0.38,0.3,0.5
		c0.17,0.11,0.38,0.15,0.57,0.1c1.96-0.49,3.53-0.27,4.68,0.65c2.48,1.98,2.41,6.58,2.41,6.64c0,11.67-5.07,14.86-5.12,14.89
		c-0.32,0.19-0.44,0.58-0.28,0.92c3.14,6.65-1.82,11.42-5.44,14.9c-0.58,0.55-1.11,1.07-1.58,1.55c-2.75,2.87-6.87,2.89-7.86,2.85
		c-6.76-6.11-13.81-7.53-13.91-7.54c-0.39-0.05-0.74,0.22-0.8,0.61c-0.05,0.39,0.22,0.74,0.61,0.8c0.1,0.01,6.81,1.36,13.24,7.25
		c0.06,0.08,0.13,0.15,0.22,0.2c3.39,3.15,6.68,7.58,8.86,13.74c5.43,15.3,1.06,29.76,0.19,32.36l-3.22-0.33v-6.65
		c0-0.37-0.28-0.67-0.64-0.71l-11.44-1.05c-10.5-4.57-15.76-14.28-15.81-14.38c-0.13-0.24-0.35-0.39-0.65-0.38
		c-0.27,0.01-0.51,0.17-0.62,0.42c-4.03,9.18-14.72,11.95-15.69,12.19h-11.16c-0.39,0-0.71,0.32-0.71,0.71v7.19h-5.35
		C198.53,117.22,200.38,102.16,200.39,102.07z M231.04,165.13c0.2,0.03,2.7,0.43,6.31,0.43c3,0,6.78-0.29,10.63-1.28l5.34,10.11
		c0.1,0.19,0.28,0.32,0.48,0.36c0.04,0.01,0.75,0.16,1.96,0.42c-0.03,0.5-0.22,1.36-1.01,2.31c-1.59,1.91-5.65,4.23-15.94,4.41
		c-0.13-0.01-13.14-0.75-13.77-8.15l5.18-8.64C230.5,165.12,230.77,165.13,231.04,165.13z M241.42,188.73
		c-10.56-0.09-17.97-2.48-21.43-6.94c-2.46-3.17-2.29-6.56-2.13-7.8c3.01-0.31,5.02,0,5.83,0.18c1.03,8.33,14.48,9.11,15.11,9.14
		c8.79-0.16,14.55-1.84,17.1-4.99c0.88-1.09,1.17-2.11,1.25-2.84c1.1,0.25,2.42,0.56,3.93,0.93
		C259.43,188.55,241.59,188.73,241.42,188.73z M321.96,205.02c3.96,4.05,8.19,9.39,12.88,16.74c-1.95,1.78-4.45,2.77-7.12,2.77
		c-5.85,0-10.61-4.76-10.61-10.61C317.11,210.32,318.97,206.97,321.96,205.02z"/>
	<path class="st11" d="M253.53,129.63c-0.62-5.26-8.47-4.51-9.89-0.02c2.03-0.48,3.64-0.83,5.05-0.76
		C250.35,128.91,251.79,129.43,253.53,129.63z"/>
	<path class="st11" d="M224.31,128.49c2.03-0.48,3.64-0.83,5.05-0.76c1.67,0.07,3.11,0.59,4.85,0.79
		C233.59,123.26,225.74,124.01,224.31,128.49z"/>
	<path class="st11" d="M232.91,143.13c0.86,1.22,2.12,1.62,3.34,1.62c1.15,0,2.27-0.36,2.98-0.71c0.35-0.18,0.49-0.6,0.32-0.95
		c-0.17-0.35-0.6-0.49-0.95-0.32c-0.03,0.02-3.12,1.53-4.52-0.46c-0.56-0.8-0.09-1.41,1.29-2.84c1.1-1.14,2.47-2.55,2.77-4.5
		c0.06-0.39-0.21-0.75-0.59-0.81c-0.38-0.06-0.75,0.21-0.81,0.59c-0.23,1.51-1.38,2.69-2.39,3.73
		C233.06,139.8,231.61,141.29,232.91,143.13z"/>
	<path class="st11" d="M245.71,149.67c-2.29,0.84-4.5,1.91-6.93,1.88c-2.21,0.05-4.5-0.72-7.09-1.79
		c2.53,5.84,11.79,6.16,14.23,0.01C245.91,149.68,245.8,149.64,245.71,149.67z"/>
	<path class="st11" d="M298.53,176.51c1.14,0.58,2.22,0.88,3.24,0.88c0.54,0,1.06-0.08,1.55-0.24c1.92-0.63,2.99-2.29,3.46-3.23
		c0.58-1.17,1.21-5.34,0.07-7.85c-0.47-1.02-1.2-1.68-2.12-1.91c-3.46-0.88-6.42,1.61-7.1,3.25c-0.07,0.18-0.2,0.41-0.34,0.69
		c-0.71,1.36-1.9,3.62-1.23,5.74C296.41,174.95,297.24,175.85,298.53,176.51z M304.38,165.53c0.51,0.13,0.89,0.5,1.18,1.13
		c0.95,2.07,0.37,5.8-0.04,6.63c-0.37,0.74-1.2,2.04-2.63,2.51c-1.07,0.35-2.32,0.17-3.71-0.55c-0.95-0.49-1.53-1.09-1.77-1.86
		c-0.49-1.55,0.53-3.49,1.14-4.65c0.17-0.32,0.31-0.59,0.4-0.8C299.42,166.78,301.78,164.87,304.38,165.53z"/>
	<path class="st11" d="M306.94,162.84c1.19,0,2.18-0.28,2.26-0.3c0.21-0.06,0.38-0.21,0.46-0.41l14.02-34.48
		c0.02-0.06,0.04-0.13,0.05-0.19c0.36-3.4-0.28-5.79-1.9-7.08c-2.27-1.8-5.51-0.72-5.64-0.67c-0.21,0.07-0.37,0.23-0.44,0.44
		l-13.11,38.07c-0.02,0.06-0.04,0.13-0.04,0.2c-0.07,1.59,0.39,2.79,1.36,3.56C304.82,162.65,305.95,162.84,306.94,162.84z
		 M320.94,121.49c1.2,0.96,1.67,2.89,1.38,5.72l-13.84,34.06c-0.91,0.19-2.67,0.37-3.65-0.41c-0.58-0.46-0.85-1.2-0.82-2.28
		l12.95-37.62C317.71,120.77,319.63,120.44,320.94,121.49z"/>
	<path class="st11" d="M127.21,140.89c-0.08,0.25-0.01,0.53,0.18,0.71c0.14,0.13,0.31,0.2,0.49,0.2c0.08,0,0.15-0.01,0.23-0.04
		c9.61-3.21,18.47-8.93,25.84-14.87c0.1-0.05,0.19-0.12,0.25-0.2c12.34-10,20.41-20.55,20.55-20.74c0.12-0.18,2.72-4.14,2.09-8.3
		l7.92-2.59c0.32-0.11,0.53-0.43,0.48-0.76l-0.23-1.82c-0.03-0.22-0.16-0.42-0.35-0.53c-0.01-0.01-0.03-0.02-0.04-0.02l16.35-9.65
		c0.23-0.14,0.37-0.39,0.35-0.66c-0.13-1.76-5.09-4.6-7.21-5.74c-0.25-0.13-0.55-0.11-0.77,0.07l-17.27,13.54l7.7-11.45
		c0.14-0.21,0.16-0.49,0.04-0.72s-0.35-0.38-0.61-0.38l-8.43-0.23c-0.31-0.01-0.53,0.14-0.65,0.39l-4.69,9.16l2.03-14.21
		c0.02-0.16-0.01-0.32-0.09-0.46c-1.77-2.99-7.13-0.96-7.36-0.87c-0.25,0.1-0.43,0.33-0.45,0.6l-1.45,17.67
		c-0.85,0.22-1.35,0.55-1.55,0.71C139.6,100.7,127.71,139.25,127.21,140.89z M170.01,72.11l-2.48,17.31
		c-1.65-0.51-2.96-0.67-3.99-0.63l1.38-16.9C166.01,71.55,168.94,70.78,170.01,72.11z M181.86,78.31l-9.09,13.51
		c-0.18-0.11-0.35-0.23-0.54-0.33c-1.14-0.64-2.18-1.12-3.13-1.51l6.07-11.85L181.86,78.31z M199.7,81.37l-23.6,13.93
		c-0.47-0.93-1.14-1.76-1.99-2.5l19.72-15.46C196.59,78.85,199,80.52,199.7,81.37z M180.98,94.81l2.74-1.21l0.04,0.3L180.98,94.81z
		 M149.72,122.07c1.61,0.7,2.68,2.94,3.08,3.93c-6.85,5.49-14.99,10.76-23.8,13.95c0.73-2.18,2.35-6.83,4.79-12.48
		c0.81,0.08,2.43,0.42,2.75,1.8c0.08,0.33,0.37,0.55,0.69,0.55c0.05,0,0.11-0.01,0.16-0.02c0.38-0.09,0.62-0.47,0.53-0.85
		c-0.47-1.99-2.32-2.62-3.54-2.83c3.6-8.11,8.79-17.95,15.35-25.57c0.86,0.47,2.75,1.79,3.5,4.73c0.08,0.32,0.37,0.53,0.69,0.53
		c0.06,0,0.12-0.01,0.18-0.02c0.38-0.1,0.61-0.48,0.51-0.86c-0.81-3.17-2.76-4.76-3.92-5.45c3.22-3.56,6.75-6.56,10.57-8.56
		c0.05-0.03,0.12-0.08,0.16-0.12c0.01-0.01,0.71-0.61,2.41-0.61c1.59,0,4.07,0.52,7.7,2.54c2.06,1.14,3.33,2.67,3.79,4.55
		c0.92,3.79-1.73,7.85-1.73,7.85c-0.12,0.16-7.82,10.23-19.65,19.95c-0.57-1.28-1.79-3.49-3.66-4.31c-0.36-0.16-0.78,0.01-0.93,0.37
		C149.2,121.5,149.36,121.92,149.72,122.07z"/>
	<path class="st11" d="M66.38,74.67c0.12,0.09,0.28,0.14,0.43,0.14c0.06,0,0.11-0.01,0.17-0.02c4.29-1.03,6.05-2.21,6.78-3.07
		c0.22,0.17,0.43,0.32,0.64,0.46c0.12,0.08,0.25,0.12,0.39,0.12c0.04,0,0.08,0,0.12-0.01c10.05-1.67,24.07-8.55,24.07-15.97
		c0-0.06-0.01-0.12-0.02-0.17c-0.34-1.38-0.93-3.05-1.71-4.91l26.66-11.96c1.26,2.58,2.67,5.21,4.29,7.88
		c0.13,0.21,0.36,0.34,0.61,0.34c0.05,0,0.09,0,0.14-0.01c8.46-1.72,12.87-5.09,17.53-8.66c2.28-1.74,4.63-3.54,7.52-5.14
		c0.02-0.01,0.02-0.03,0.04-0.04c0.04-0.03,0.09-0.05,0.13-0.09l4.9-5.01c0.09-0.09,0.15-0.2,0.18-0.32
		c2.34-9.12-10.41-25.68-10.95-26.38c-0.05-0.07-0.12-0.13-0.2-0.17c-1.34-0.8-4.6-0.37-5.9-0.16c-0.35-0.41-0.7-0.79-1.05-1.11
		c-0.09-0.09-0.21-0.15-0.33-0.17c-6.32-1.33-16,4.39-23.77,8.98c-1.54,0.91-2.99,1.76-4.3,2.5c-0.34,0.19-0.46,0.62-0.27,0.96
		c1.83,3.27,3.38,7.27,5.18,11.89c0.12,0.31,0.25,0.63,0.37,0.95L89.94,37.46c-2.67-4.23-5.59-8.15-8.28-10.82
		c-0.17-0.17-0.41-0.24-0.64-0.19l-1.37,0.28c-7.14,1.43-19.08,3.83-22.63,12.92c-0.03,0.08-0.05,0.16-0.05,0.24
		c-0.01,0.29,0,0.59,0.01,0.9c-4.02,1.57-6.21,5.45-6.3,5.62c-0.08,0.14-0.11,0.31-0.08,0.47C53.81,64.94,66.25,74.57,66.38,74.67z
		 M57.11,42.26c1.16,9.26,9.64,23.16,15.55,28.54c-0.41,0.48-1.7,1.52-5.68,2.52c-1.76-1.46-12.01-10.53-14.93-26.44
		C52.52,46.13,54.3,43.53,57.11,42.26z M80.93,27.92c6.58,6.7,14.85,21.54,16.62,28.49c-0.12,6.48-13.33,12.82-22.61,14.44
		c-0.31-0.22-0.64-0.49-0.98-0.78C62.28,57.6,59.01,44.19,58.47,41.61c-0.05-0.53-0.09-1.06-0.08-1.55
		c3.33-8.28,14.72-10.57,21.54-11.94L80.93,27.92z M117.75,10.43c7.09-4.18,16.76-9.89,22.57-8.85c0.35,0.33,0.69,0.72,1.04,1.16
		c0,0,0,0,0,0c0,0,0.01,0.01,0.01,0.01c2.34,2.9,4.73,7.94,6.76,13.36c2.58,7.26,4.28,14.64,4.71,16.59
		c-2.76,1.58-5.03,3.31-7.23,4.99c-4.44,3.4-8.64,6.61-16.46,8.29c-4.69-7.8-7.61-15.31-10.19-21.94c-1.71-4.39-3.2-8.22-4.93-11.45
		C115.19,11.95,116.44,11.21,117.75,10.43z M143.23,2.8c1.54-0.19,3.32-0.27,4.03,0.04c1.15,1.52,12.51,16.74,10.65,24.86l-3.81,3.9
		c-0.87-4.48-2.48-10.19-4.48-15.6C147.87,11.06,145.71,6.11,143.23,2.8z M123.28,38.01L96.68,49.94
		c-1.54-3.48-3.64-7.45-5.98-11.26l27.83-11.84C119.91,30.37,121.43,34.12,123.28,38.01z"/>
	<path class="st11" d="M141.37,30.78c-0.26,0.29-0.23,0.74,0.06,1c0.14,0.12,0.3,0.18,0.47,0.18c0.2,0,0.39-0.08,0.53-0.24
		c7.32-8.24-5.67-25.83-6.22-26.58c-0.23-0.31-0.68-0.38-0.99-0.14c-0.31,0.23-0.38,0.68-0.14,0.99
		C135.2,6.16,147.93,23.4,141.37,30.78z"/>
	<path class="st11" d="M320.15,68.3c7.73,1.39,15.39,4.68,23.5,8.17c6.17,2.65,12.55,5.39,18.94,7.2c0.06,0.02,0.13,0.03,0.19,0.03
		c0.05,0,0.1-0.01,0.15-0.02c2.87-0.63,5.56-2.32,8.41-4.1c3.29-2.06,6.69-4.18,10.58-4.78c0.29-0.05,0.53-0.27,0.59-0.56
		c0.44-2.2,3.85-7.45,7.79-13.54c6.84-10.56,16.22-25.03,17.75-35.28c0.04-0.29-0.09-0.57-0.35-0.72c-2.59-1.5-7.4-2.82-13.48-4.48
		c-11.19-3.07-26.51-7.27-37.16-15.41c-0.29-0.22-0.71-0.18-0.96,0.09c-2.78,3.14-5.03,9.24-7.87,16.97
		c-5.32,14.48-12.62,34.32-28.36,45.14c-0.24,0.16-0.35,0.45-0.29,0.73C319.65,68.04,319.87,68.25,320.15,68.3z M349.57,22.37
		c2.54-6.9,4.74-12.9,7.18-16.02c10.84,8.04,25.99,12.19,37.11,15.24c5.43,1.49,10.16,2.79,12.72,4.11
		c-1.7,9.92-10.79,23.94-17.45,34.23c-3.93,6.07-7.09,10.94-7.87,13.55c-3.97,0.73-7.36,2.85-10.65,4.9
		c-2.68,1.68-5.22,3.27-7.79,3.88c-6.25-1.79-12.52-4.48-18.6-7.09c-7.29-3.13-14.81-6.36-22.19-7.94
		C337.21,55.98,344.33,36.62,349.57,22.37z"/>
	<path class="st11" d="M436.79,72.29c0-0.24,0.01-5.91-9.77-8.46c-0.09-0.02-9.32-1.98-13.61,8.57c-0.27,0.43-1.43,2.54,0.04,4.81
		c0.62,0.96,1.38,1.25,1.9,1.33c1.36,0.2,2.52-0.76,2.65-0.87c0.03-0.02,0.06-0.05,0.08-0.08l4.13-4.9
		c0.08-0.11,2.04-2.66,6.72-0.39c3.32,1.61,1.46,6.17-1.52,12.44c-0.7,1.46-1.35,2.84-1.9,4.24c-0.01,0.06-1.35,5.62-1.77,7.09
		c-0.41,1.44-1.11,3.84,0.03,8.44c0.05,0.2,0.19,0.38,0.38,0.47c0.09,0.04,1.6,0.76,3.44,0.76c0.84,0,1.74-0.15,2.62-0.58
		c1.78-0.88,2.97-2.69,3.53-5.39c0.01-0.06,0.02-0.12,0.01-0.18c-0.01-0.11-0.56-11.17,2.42-18.36
		C436.21,81.01,437.25,75.76,436.79,72.29z M434.81,80.82L434.81,80.82c-2.95,7.09-2.55,17.57-2.49,18.75
		c-0.47,2.19-1.39,3.64-2.74,4.31c-1.73,0.86-3.77,0.23-4.52-0.06c-0.93-4-0.33-6.1,0.08-7.5c0.39-1.37,1.69-6.79,1.71-6.92
		c0.5-1.25,1.15-2.61,1.83-4.06c2.67-5.61,5.69-11.97,0.86-14.32c-5.79-2.81-8.45,0.79-8.45,0.79l-4.06,4.81
		c-0.25,0.2-0.91,0.6-1.49,0.51c-0.35-0.05-0.64-0.28-0.91-0.69c-1.08-1.69-0.06-3.25-0.01-3.32c0.03-0.04,0.05-0.09,0.07-0.14
		c3.82-9.47,11.68-7.85,11.99-7.78c8.6,2.24,8.68,6.86,8.69,7.16C435.8,75.68,434.8,80.82,434.81,80.82z"/>
	<path class="st11" d="M430.91,106.52c-3.37,0-6.67,4.95-6.67,8.64c0,1.25,0.38,2.31,1.11,3.06c0.82,0.84,2.02,1.27,3.58,1.27
		c2.05,0,3.73-0.75,4.86-2.18c0.94-1.19,1.46-2.81,1.46-4.58C435.25,109.68,433.63,106.52,430.91,106.52z M425.66,115.16
		c0-3.17,2.94-7.22,5.25-7.22c1.81,0,2.92,2.49,2.92,4.8c0,1.45-0.41,2.76-1.15,3.7c-0.86,1.09-2.12,1.64-3.75,1.64
		C426.76,118.07,425.66,117.09,425.66,115.16z"/>
	<path class="st11" d="M431.44,124.3c-0.88-0.58-1.97-0.2-2.53,0.15l-27.61,10.97c-2.48-7.12-10.2-13.25-17.81-13.25
		c-4.71,0-8.94,2.25-11.85,5.8c-0.68-1.56-1.7-2.74-3.07-3.48c-2.06-1.11-4.38-0.99-5.8-0.76c0.78-2.24,1.11-4.81,0.92-7.74
		c-0.47-7.41-8.37-13.36-16-14.75l30.83-8.9c0.07-0.01,7.44-1.14,11,2.53c0.27,0.28,0.72,0.29,1,0.01c0.28-0.27,0.29-0.72,0.02-1
		c-4.09-4.21-11.91-2.99-12.33-2.92l-34.73,10.02c-7.5,0.48-12.66,6.65-12.66,15.36c0,4.87,2.55,10.33,6.5,13.92
		c2.66,2.41,5.7,3.71,8.67,3.71c0.33,0,0.66-0.02,0.98-0.05c7.62-0.75,12.71-3.69,15.14-8.6c0.77-0.2,3.53-0.79,5.8,0.42
		c1.3,0.7,2.21,1.91,2.74,3.58c-1.91,2.85-3.05,6.34-3.05,10.13c0,10.81,9.4,17.27,18.49,17.27c9.75,0,16.06-6.54,16.06-16.67
		c0-1.09-0.15-2.19-0.41-3.27l27.78-11.04c0.04-0.02,0.09-0.04,0.13-0.07c0.14-0.09,0.73-0.39,1.04-0.19
		c0.16,0.11,0.94,0.87,0.15,5.1c-0.07,0.39,0.18,0.76,0.57,0.83c0.38,0.07,0.75-0.18,0.83-0.57
		C432.9,127.17,432.65,125.09,431.44,124.3z M344.42,102.36c7.69,0,17.37,6.12,17.86,13.73c0.63,9.83-4.57,15.35-15.45,16.42
		c-2.86,0.28-5.9-0.89-8.56-3.3c-3.67-3.32-6.04-8.37-6.04-12.86C332.23,108.11,337.24,102.36,344.42,102.36z M383.5,123.59
		c8.53,0,17.22,8.31,17.22,16.46c0,9.26-5.75,15.25-14.64,15.25c-8.39,0-17.07-5.93-17.07-15.86
		C369.01,130.71,375.51,123.59,383.5,123.59z"/>
	<path class="st11" d="M82.88,255.11c0.04,0.01,0.07,0.01,0.11,0.01c0.27,0,0.51-0.15,0.63-0.39c2.5-4.99,5.7-13.66,5.75-13.82
		c0.87-3.53,1.43-6.6,1.76-9.3l25.56-18.8c0.32-0.23,0.38-0.68,0.15-0.99s-0.68-0.38-0.99-0.15L91.33,229.7
		c1.2-14.11-4.64-16.22-4.98-16.33c-13.64-3.39-16.7,6.08-16.75,6.29l-0.91,6.68H58.6c-0.08,0-0.16,0.01-0.24,0.04
		c-0.1,0.04-10.17,3.77-7.05,14.09c1.03,3.41,4.83,6.16,9.44,8.32l-16.19,9.56c-0.34,0.2-0.45,0.63-0.25,0.97
		c0.13,0.22,0.37,0.35,0.61,0.35c0.12,0,0.25-0.03,0.36-0.1l17.06-10.07C71.2,253.26,82.15,255,82.88,255.11z M52.67,240.07
		c-2.59-8.58,5-11.89,6.06-12.31h10.58c0.35,0,0.66-0.26,0.7-0.61l0.96-7.18c0.03-0.08,2.68-8.29,14.97-5.23
		c0.06,0.02,5.39,2.13,3.86,16.09l-1.03,0.75l-4.13-4.54c-0.2-0.22-0.51-0.29-0.78-0.18c-0.27,0.11-0.45,0.37-0.45,0.66v5.65
		l-6.68-9.93c-0.18-0.27-0.53-0.38-0.83-0.27c-0.31,0.11-0.5,0.42-0.46,0.75l2.75,24.15l-16.4-14.52c-0.23-0.2-0.55-0.24-0.82-0.09
		c-0.26,0.15-0.4,0.45-0.35,0.74l2.42,13.44l-0.83,0.49C57.53,245.88,53.63,243.27,52.67,240.07z M62.39,235.76l16.25,14.39
		c0.22,0.2,0.54,0.23,0.8,0.1c0.26-0.14,0.41-0.42,0.38-0.71l-2.63-23.1l6.36,9.44c0.17,0.26,0.5,0.37,0.8,0.28
		c0.3-0.09,0.5-0.37,0.5-0.68l0-6.14l3.32,3.66c0.24,0.27,0.65,0.31,0.95,0.09l0.46-0.34c-0.33,2.28-0.83,4.84-1.54,7.72
		c-0.03,0.08-3.01,8.16-5.44,13.14c-2.21-0.38-11.15-2.02-18.72-5.02l0.34-0.2c0.25-0.15,0.39-0.44,0.34-0.74L62.39,235.76z"/>
	<path class="st11" d="M418.89,177.12c-5.27-1-8.61,6.02-8.79,6.42l-14.82,50.83c-0.01,0.04,0,0.07-0.01,0.11
		c-0.01,0.05-0.02,0.1-0.01,0.16c0,0.01,0,0.02,0,0.02l1.6,12.54c0.03,0.27,0.22,0.5,0.48,0.58c0.07,0.02,0.15,0.04,0.23,0.04
		c0.19,0,0.37-0.07,0.51-0.21l8.66-8.89c0.05-0.05,0.08-0.13,0.11-0.2c0.01-0.02,0.04-0.04,0.05-0.06c0-0.01,0-0.02,0-0.03
		c0-0.01,0.01-0.01,0.01-0.02l13.2-46.01c0,0,0,0,0-0.01l1.38-4.8c0.07-0.23,1.78-5.72,0.01-8.69
		C420.9,177.94,420.03,177.34,418.89,177.12z M410.23,188.11l0.83-2.86c1.67,0.25,6.57,1.13,8.71,3.16l-0.78,2.73
		C416.66,189.91,412,188.59,410.23,188.11z M409.84,189.47c2.36,0.64,6.95,2,8.76,3.06l-12.85,44.77l-8.92-3.17L409.84,189.47z
		 M399.12,244.49l-1.05,1.07l-0.21-1.66L399.12,244.49z M400.17,243.42l-2.52-1.17l-0.84-6.61l8.13,2.89L400.17,243.42z
		 M420.2,186.93c-2.51-1.9-6.86-2.75-8.7-3.04c0.48-0.94,3.3-6.1,7.12-5.37c0.74,0.14,1.28,0.51,1.65,1.13
		C421.41,181.55,420.66,185.32,420.2,186.93z"/>
	<path class="st11" d="M406.62,221.22c0.04,0.01,0.09,0.01,0.13,0.01c0.34,0,0.64-0.24,0.7-0.58c0.02-0.12,2.3-12.54,5.5-19.9
		c0.16-0.36-0.01-0.78-0.37-0.93c-0.36-0.16-0.78,0.01-0.93,0.37c-3.26,7.51-5.5,19.7-5.59,20.21
		C405.98,220.78,406.23,221.15,406.62,221.22z"/>
	<path class="st11" d="M349.77,175.53c-0.3-0.25-0.74-0.22-1,0.08l-4.7,5.46l-5.97-2.46c-0.36-0.15-0.78,0.02-0.93,0.39
		c-0.15,0.36,0.02,0.78,0.39,0.93l5.54,2.28l-4.59,5.34c-0.26,0.3-0.22,0.74,0.07,1c0.13,0.11,0.3,0.17,0.46,0.17
		c0.2,0,0.4-0.08,0.54-0.25l4.89-5.69l5.24,2.16c0.09,0.04,0.18,0.05,0.27,0.05c0.28,0,0.54-0.17,0.66-0.44
		c0.15-0.36-0.02-0.78-0.39-0.93l-4.81-1.98l4.39-5.11C350.1,176.24,350.06,175.79,349.77,175.53z"/>
	<path class="st11" d="M361.26,170.32c-0.32-0.22-0.76-0.14-0.99,0.18l-1.32,1.92l-0.9-0.59c-0.33-0.21-0.77-0.12-0.98,0.2
		c-0.21,0.33-0.12,0.77,0.2,0.98l0.87,0.57l-1.07,1.55c-0.22,0.32-0.14,0.76,0.18,0.99c0.12,0.08,0.26,0.13,0.4,0.13
		c0.23,0,0.45-0.11,0.58-0.31l1.08-1.57l0.6,0.4c0.12,0.08,0.25,0.12,0.39,0.12c0.23,0,0.46-0.11,0.59-0.32
		c0.21-0.33,0.12-0.77-0.2-0.98l-0.58-0.38l1.3-1.89C361.66,170.98,361.58,170.54,361.26,170.32z"/>
	<path class="st11" d="M155.43,160.69c-0.18-0.35-0.6-0.49-0.95-0.32l-2.35,1.17l-1.92-4.74c-0.15-0.36-0.56-0.54-0.92-0.39
		c-0.36,0.15-0.54,0.56-0.39,0.92l1.96,4.84l-6.3,3.15c-0.35,0.17-0.49,0.6-0.32,0.95c0.12,0.25,0.37,0.39,0.64,0.39
		c0.11,0,0.21-0.02,0.32-0.08l6.2-3.1l1.89,4.67c0.11,0.28,0.38,0.44,0.66,0.44c0.09,0,0.18-0.02,0.27-0.05
		c0.36-0.15,0.54-0.56,0.39-0.92l-1.93-4.77l2.45-1.22C155.46,161.47,155.6,161.04,155.43,160.69z"/>
	<path class="st11" d="M161.45,140.75c-0.19-0.34-0.62-0.47-0.96-0.28l-1.84,1.01c-0.72-1.9-1.39-3.43-1.44-3.55
		c-0.16-0.36-0.58-0.52-0.93-0.36c-0.36,0.16-0.52,0.58-0.36,0.93c0.01,0.03,0.73,1.68,1.48,3.67l-2.66,1.46
		c-0.34,0.19-0.47,0.62-0.28,0.96c0.13,0.23,0.37,0.37,0.62,0.37c0.12,0,0.23-0.03,0.34-0.09l2.47-1.36
		c0.45,1.28,0.85,2.58,1.05,3.61c0.07,0.34,0.36,0.57,0.7,0.57c0.05,0,0.09,0,0.14-0.01c0.38-0.08,0.64-0.45,0.56-0.83
		c-0.23-1.17-0.69-2.63-1.19-4.03l2.03-1.11C161.52,141.52,161.64,141.09,161.45,140.75z"/>
	<path class="st11" d="M24.21,68.79l-4.85,2.37l-3.31-7.27c-0.16-0.36-0.59-0.51-0.94-0.35c-0.36,0.16-0.51,0.58-0.35,0.94
		l3.33,7.31l-4.59,2.25c-0.35,0.17-0.5,0.6-0.33,0.95c0.12,0.25,0.38,0.4,0.64,0.4c0.1,0,0.21-0.02,0.31-0.07l4.55-2.23l2.47,5.42
		c0.12,0.26,0.38,0.42,0.65,0.42c0.1,0,0.2-0.02,0.29-0.06c0.36-0.16,0.51-0.58,0.35-0.94l-2.48-5.45l4.89-2.39
		c0.35-0.17,0.5-0.6,0.33-0.95C24.99,68.77,24.56,68.62,24.21,68.79z"/>
	<path class="st11" d="M27.37,67.18c0.16,0,0.31-0.05,0.44-0.16l1.43-1.14l1.47,3.27c0.12,0.26,0.38,0.42,0.65,0.42
		c0.1,0,0.2-0.02,0.29-0.06c0.36-0.16,0.52-0.58,0.36-0.94l-1.62-3.6l1.42-1.14c0.31-0.24,0.36-0.69,0.11-1
		c-0.25-0.31-0.69-0.36-1-0.11l-1.13,0.91l-0.85-1.9c-0.16-0.36-0.58-0.52-0.94-0.36c-0.36,0.16-0.52,0.58-0.36,0.94l1,2.23
		l-1.71,1.37c-0.31,0.24-0.36,0.69-0.11,1C26.96,67.08,27.16,67.18,27.37,67.18z"/>
	<path class="st11" d="M28.28,46.32c0.14,0,0.29-0.04,0.42-0.14l2.65-1.94l1.44,2.52c0.13,0.23,0.37,0.36,0.62,0.36
		c0.12,0,0.24-0.03,0.35-0.09c0.34-0.19,0.46-0.63,0.26-0.97l-1.52-2.65l2.12-1.55c0.32-0.23,0.39-0.67,0.15-0.99
		c-0.23-0.32-0.68-0.39-0.99-0.15l-1.99,1.46l-1.82-3.17c-0.19-0.34-0.63-0.46-0.97-0.26c-0.34,0.19-0.46,0.63-0.26,0.97l1.9,3.31
		l-2.78,2.03c-0.32,0.23-0.39,0.68-0.15,0.99C27.85,46.22,28.06,46.32,28.28,46.32z"/>
	<path class="st11" d="M66.58,185.14c7.03,0,13.63-1.75,19.37-4.8c0.07-0.02,0.14-0.06,0.21-0.11
		c12.13-6.54,20.34-18.96,20.34-33.18c0-5.08-1.05-9.92-2.95-14.35c-0.02-0.06-0.04-0.13-0.08-0.18c-1.24-2.87-2.84-5.55-4.75-8.02
		c-0.04-0.09-0.1-0.16-0.17-0.23c-7.29-9.29-18.91-15.31-31.97-15.31c-4.98,0-9.74,0.88-14.14,2.48c-0.02,0.01-0.05,0.02-0.07,0.03
		c-5.28,1.93-10.03,4.89-13.96,8.63c-0.09,0.05-0.16,0.13-0.22,0.22c-7.12,6.88-11.53,16.33-11.53,26.74c0,0.22,0.01,0.44,0.02,0.65
		c-0.01,0.07-0.02,0.15-0.01,0.22c0,0.03,0.01,0.05,0.02,0.08C27.22,168.56,44.9,185.14,66.58,185.14z M68.08,166.33
		c0.08-0.13,0.13-0.27,0.11-0.43c0,0,0,0,0-0.01c0.91-3.73,1.06-7.18,0.88-10.1c0.05-0.07,0.08-0.15,0.1-0.23
		c0.05-0.23-0.02-0.44-0.16-0.61c-0.32-3.74-1.17-6.49-1.57-7.62c1.45-0.9,6.19-3.67,12.43-5.7c0.39,5.01,1.75,29.73-7.65,41.68
		c-1.85,0.26-3.73,0.4-5.65,0.4c-2.81,0-5.55-0.3-8.19-0.84C63.86,177.33,66.73,171.57,68.08,166.33z M81.27,141.21
		c3.57-1.05,7.55-1.82,11.65-1.86c0.21,4.57,1,31.05-7.58,39.71c-3.41,1.82-7.14,3.17-11.09,3.93
		C83.3,169.85,81.64,145.48,81.27,141.21z M94.34,139.37c3.44,0.11,6.93,0.77,10.31,2.23c0.28,1.78,0.43,3.6,0.43,5.45
		c0,12.42-6.52,23.41-16.46,30.05C95.24,166.17,94.55,143.91,94.34,139.37z M93.79,137.94c-0.08-0.02-0.16-0.04-0.25-0.03
		c-0.04,0-0.07,0.02-0.11,0.03c-4.57-0.02-9,0.84-12.92,2.03c-0.03,0-0.05-0.01-0.08-0.01c-0.12,0.01-0.23,0.06-0.32,0.13
		c-6.74,2.1-11.89,5.1-13.44,6.06c-0.87-0.86-3.1-3.23-5.49-6.9c3.41-2.01,20.59-11.18,41.16-5.76c0.87,2.07,1.54,4.22,2.01,6.45
		C100.86,138.57,97.29,137.99,93.79,137.94z M60.42,138.05c-1.55-2.53-3.09-5.6-4.36-9.15c3.1-1.89,20.83-11.71,41.54-3.53
		c1.55,2.01,2.89,4.18,3.99,6.48C80.96,126.89,63.88,136.01,60.42,138.05z M55.6,127.53c-1.39-4.33-2.31-9.33-2.24-14.93
		c4.12-1.44,8.57-2.23,13.22-2.23c11.67,0,22.14,4.98,29.21,12.82C76.05,116.56,59.39,125.28,55.6,127.53z M54.49,128.69
		c0.01,0.11,0.04,0.22,0.11,0.32c0,0,0.01,0,0.01,0.01c1.4,4.02,3.17,7.46,4.9,10.23c0.02,0.06,0.03,0.12,0.07,0.17
		c0.03,0.04,0.07,0.06,0.1,0.09c2.93,4.63,5.71,7.37,6.31,7.94c0.22,0.57,1.17,3.16,1.57,6.97c-5.81-1.61-32.94-10.44-28.12-33.36
		c3.56-3.37,7.8-6.08,12.51-7.94C51.93,118.99,52.96,124.21,54.49,128.69z M67.67,155.93c0.16,2.71,0.02,5.91-0.8,9.37
		c-4.47,0.3-35.45,1.66-38.78-17.47c-0.01-0.26-0.02-0.52-0.02-0.78c0-9.26,3.63-17.73,9.6-24.19
		C34.49,146.15,63.02,154.7,67.67,155.93z M61.79,166.9c2.06,0,3.7-0.08,4.7-0.14c-1.43,5.02-4.33,10.49-9.74,15.75
		c-14.18-3.57-25.18-14.67-27.98-28.52C35.15,165.32,52.62,166.9,61.79,166.9z"/>
	<path class="st11" d="M418.15,42.98l-1.36,9.13c-0.05,0.35,0.16,0.68,0.49,0.78c0.07,0.02,0.14,0.03,0.21,0.03
		c0.27,0,0.52-0.15,0.64-0.4l4.38-9.1l10.25,4.53c0.33,0.15,0.72,0.02,0.9-0.29c0.18-0.31,0.1-0.71-0.19-0.93l-9.2-6.77l3.35-9.61
		c0.12-0.34-0.03-0.71-0.35-0.87c-0.32-0.16-0.71-0.05-0.91,0.24l-5.67,8.58l-6.76-1.14c-0.31-0.05-0.61,0.1-0.75,0.38
		c-0.14,0.28-0.08,0.62,0.14,0.83L418.15,42.98z M424.42,35.24l-1.65,4.74c-0.1,0.29,0,0.62,0.25,0.8l4.42,3.26l-4.97-2.2
		c-0.35-0.16-0.76,0-0.93,0.34l-2.65,5.5l0.73-4.86c0.03-0.23-0.05-0.46-0.21-0.62l-3.42-3.27l4.94,0.83
		c0.28,0.05,0.55-0.07,0.71-0.31L424.42,35.24z"/>
	<path class="st11" d="M47.51,86.87l-4.84,3.69c-0.27,0.21-0.36,0.58-0.2,0.88c0.15,0.3,0.5,0.46,0.83,0.36l6.44-1.87l4.85,7.58
		c0.13,0.21,0.36,0.33,0.6,0.33c0.1,0,0.2-0.02,0.3-0.07c0.32-0.15,0.48-0.52,0.38-0.86l-2.98-9.38l3.98-5.72
		c0.18-0.26,0.17-0.6-0.02-0.84c-0.19-0.25-0.52-0.34-0.81-0.22l-6.23,2.4l-7.68-5.12c-0.29-0.19-0.68-0.15-0.92,0.11
		c-0.24,0.26-0.25,0.65-0.03,0.92L47.51,86.87z M49.31,84.53c0.19,0.13,0.43,0.16,0.65,0.07l4.41-1.7l-2.86,4.11
		c-0.13,0.18-0.16,0.41-0.09,0.62l1.45,4.58l-2.23-3.49c-0.13-0.21-0.36-0.33-0.6-0.33c-0.07,0-0.13,0.01-0.2,0.03l-3.29,0.96
		l2.39-1.82c0.15-0.12,0.25-0.29,0.27-0.48c0.02-0.19-0.03-0.38-0.15-0.53l-3.85-4.75L49.31,84.53z"/>
	<circle class="st9" cx="186.4" cy="213.91" r="6.59"/>
	<path class="st11" d="M186.4,205.91c-4.41,0-8,3.59-8,8s3.59,8,8,8c4.41,0,8-3.59,8-8C194.4,209.5,190.81,205.91,186.4,205.91z
		 M186.4,220.49c-3.63,0-6.59-2.95-6.59-6.59s2.95-6.59,6.59-6.59s6.59,2.95,6.59,6.59S190.03,220.49,186.4,220.49z"/>
	<path class="st9" d="M214.34,246.28c0-3.59-2.92-6.51-6.51-6.51c-3.59,0-6.51,2.92-6.51,6.51c0,3.59,2.92,6.51,6.51,6.51
		C211.42,252.79,214.34,249.87,214.34,246.28z"/>
	<path class="st11" d="M207.83,238.35c-4.37,0-7.93,3.56-7.93,7.93c0,4.37,3.56,7.93,7.93,7.93c4.37,0,7.93-3.56,7.93-7.93
		C215.75,241.91,212.2,238.35,207.83,238.35z M201.32,246.28c0-3.59,2.92-6.51,6.51-6.51c3.59,0,6.51,2.92,6.51,6.51
		c0,3.59-2.92,6.51-6.51,6.51C204.24,252.79,201.32,249.87,201.32,246.28z"/>
	<path class="st9" d="M251.69,231.99c0,4.22,3.43,7.65,7.65,7.65c4.22,0,7.65-3.43,7.65-7.65c0-4.22-3.43-7.65-7.65-7.65
		C255.12,224.34,251.69,227.78,251.69,231.99z"/>
	<path class="st11" d="M268.41,231.99c0-5-4.07-9.07-9.07-9.07c-5,0-9.07,4.07-9.07,9.07c0,5,4.07,9.07,9.07,9.07
		C264.34,241.06,268.41,236.99,268.41,231.99z M266.99,231.99c0,4.22-3.43,7.65-7.65,7.65c-4.22,0-7.65-3.43-7.65-7.65
		c0-4.22,3.43-7.65,7.65-7.65C263.56,224.34,266.99,227.78,266.99,231.99z"/>
	<path class="st9" d="M345.71,274.39c0-3.55-2.89-6.43-6.43-6.43s-6.43,2.89-6.43,6.43s2.89,6.43,6.43,6.43
		S345.71,277.94,345.71,274.39z"/>
	<path class="st11" d="M339.28,266.54c-4.33,0-7.85,3.52-7.85,7.85c0,4.33,3.52,7.85,7.85,7.85c4.33,0,7.85-3.52,7.85-7.85
		C347.13,270.06,343.6,266.54,339.28,266.54z M332.84,274.39c0-3.55,2.89-6.43,6.43-6.43s6.43,2.89,6.43,6.43
		c0,3.55-2.89,6.43-6.43,6.43S332.84,277.94,332.84,274.39z"/>
	<circle class="st9" cx="265.91" cy="285.98" r="7.15"/>
	<path class="st11" d="M265.91,277.41c-4.73,0-8.57,3.85-8.57,8.57c0,4.73,3.85,8.57,8.57,8.57c4.73,0,8.57-3.85,8.57-8.57
		C274.49,281.25,270.64,277.41,265.91,277.41z M265.91,293.13c-3.95,0-7.15-3.21-7.15-7.15c0-3.95,3.21-7.15,7.15-7.15
		c3.95,0,7.15,3.21,7.15,7.15C273.07,289.92,269.86,293.13,265.91,293.13z"/>
	<circle class="st9" cx="334.26" cy="249.01" r="2.52"/>
	<path class="st11" d="M334.26,252.95c2.17,0,3.94-1.77,3.94-3.94s-1.77-3.94-3.94-3.94c-2.17,0-3.94,1.77-3.94,3.94
		S332.09,252.95,334.26,252.95z M334.26,246.49c1.39,0,2.52,1.13,2.52,2.52c0,1.39-1.13,2.52-2.52,2.52c-1.39,0-2.52-1.13-2.52-2.52
		C331.74,247.62,332.87,246.49,334.26,246.49z"/>
	<circle class="st9" cx="318.08" cy="249.85" r="2.05"/>
	<path class="st9" d="M291.08,237.84c0-0.99-0.81-1.8-1.8-1.8c-0.99,0-1.8,0.81-1.8,1.8c0,0.99,0.81,1.8,1.8,1.8
		C290.27,239.64,291.08,238.84,291.08,237.84z"/>
	<path class="st11" d="M289.28,234.63c-1.77,0-3.22,1.44-3.22,3.22s1.44,3.22,3.22,3.22c1.77,0,3.22-1.44,3.22-3.22
		S291.05,234.63,289.28,234.63z M287.48,237.84c0-0.99,0.81-1.8,1.8-1.8c0.99,0,1.8,0.81,1.8,1.8c0,0.99-0.81,1.8-1.8,1.8
		C288.29,239.64,287.48,238.84,287.48,237.84z"/>
	<path class="st9" d="M276.22,197.8c0-1.18-0.96-2.14-2.14-2.14c-1.18,0-2.14,0.96-2.14,2.14s0.96,2.14,2.14,2.14
		C275.26,199.94,276.22,198.98,276.22,197.8z"/>
	<path class="st11" d="M274.08,194.24c-1.96,0-3.56,1.6-3.56,3.56c0,1.96,1.6,3.56,3.56,3.56c1.96,0,3.56-1.6,3.56-3.56
		C277.64,195.84,276.05,194.24,274.08,194.24z M271.94,197.8c0-1.18,0.96-2.14,2.14-2.14c1.18,0,2.14,0.96,2.14,2.14
		s-0.96,2.14-2.14,2.14C272.9,199.94,271.94,198.98,271.94,197.8z"/>
	<path class="st9" d="M236.84,200.78c-0.79,0-1.43,0.64-1.43,1.43c0,0.79,0.64,1.43,1.43,1.43c0.79,0,1.43-0.64,1.43-1.43
		C238.27,201.42,237.63,200.78,236.84,200.78z"/>
	<path class="st9" d="M259.84,195.64c0.67,0,1.22-0.54,1.22-1.22c0-0.67-0.54-1.22-1.22-1.22s-1.22,0.54-1.22,1.22
		C258.62,195.09,259.16,195.64,259.84,195.64z"/>
	<path class="st9" d="M212.73,200.08c0.99,0,1.79-0.8,1.79-1.79c0-0.99-0.8-1.79-1.79-1.79c-0.99,0-1.79,0.8-1.79,1.79
		C210.94,199.28,211.74,200.08,212.73,200.08z"/>
	<path class="st9" d="M165.05,208.65c-1.26,0-2.28,1.02-2.28,2.28s1.02,2.28,2.28,2.28c1.26,0,2.28-1.02,2.28-2.28
		S166.31,208.65,165.05,208.65z"/>
	<path class="st9" d="M187.33,239.68c-1.29,0-2.34,1.05-2.34,2.34c0,1.29,1.05,2.34,2.34,2.34s2.34-1.05,2.34-2.34
		C189.67,240.72,188.62,239.68,187.33,239.68z"/>
	<circle class="st9" cx="172.11" cy="261.79" r="1.97"/>
	<circle class="st9" cx="115.13" cy="284.99" r="3.24"/>
	<path class="st11" d="M115.13,280.33c-2.57,0-4.66,2.09-4.66,4.66c0,2.57,2.09,4.66,4.66,4.66c2.57,0,4.66-2.09,4.66-4.66
		C119.79,282.42,117.7,280.33,115.13,280.33z M115.13,288.23c-1.79,0-3.24-1.45-3.24-3.24c0-1.79,1.45-3.24,3.24-3.24
		c1.79,0,3.24,1.45,3.24,3.24C118.37,286.78,116.92,288.23,115.13,288.23z"/>
	<path class="st9" d="M265.6,264.61c0,1.31,1.06,2.37,2.36,2.37c1.31,0,2.36-1.06,2.36-2.37c0-1.31-1.06-2.37-2.36-2.37
		C266.66,262.24,265.6,263.3,265.6,264.61z"/>
	<path class="st9" d="M236.07,249.24c0-1.16-0.94-2.1-2.1-2.1s-2.1,0.94-2.1,2.1s0.94,2.1,2.1,2.1
		C235.12,251.34,236.07,250.4,236.07,249.24z"/>
	<path class="st11" d="M233.96,245.72c-1.94,0-3.52,1.58-3.52,3.52c0,1.94,1.58,3.52,3.52,3.52c1.94,0,3.52-1.58,3.52-3.52
		C237.49,247.3,235.91,245.72,233.96,245.72z M231.86,249.24c0-1.16,0.94-2.1,2.1-2.1s2.1,0.94,2.1,2.1s-0.94,2.1-2.1,2.1
		C232.8,251.34,231.86,250.4,231.86,249.24z"/>
	<path class="st9" d="M215.96,284.11c-1.01,0-1.83,0.82-1.83,1.83c0,1.01,0.82,1.83,1.83,1.83s1.83-0.82,1.83-1.83
		C217.78,284.93,216.96,284.11,215.96,284.11z"/>
	<path class="st9" d="M304.7,202.35c-0.97,0-1.75,0.79-1.75,1.75c0,0.97,0.79,1.75,1.75,1.75c0.97,0,1.75-0.79,1.75-1.75
		C306.46,203.13,305.67,202.35,304.7,202.35z"/>
	<path class="st11" d="M270.66,44.15c0.06,0.04,6.32,4.3,1.77,17.76c-0.13,0.37,0.07,0.77,0.44,0.9c0.08,0.03,0.15,0.04,0.23,0.04
		c0.3,0,0.57-0.19,0.67-0.48c4.91-14.49-2.04-19.21-2.34-19.4c-0.33-0.21-0.77-0.12-0.98,0.21
		C270.24,43.5,270.33,43.94,270.66,44.15z"/>
	<path class="st11" d="M257.32,89.23c0.06,0.02,5.83,2.59,5.83,15.42c0,0.39,0.32,0.71,0.71,0.71c0.39,0,0.71-0.32,0.71-0.71
		c0-13.76-6.43-16.61-6.7-16.72c-0.36-0.15-0.78,0.02-0.93,0.38C256.79,88.66,256.96,89.08,257.32,89.23z"/>
	<path class="st11" d="M382.14,33.43c2.27,0.2,4.62,0.4,6.54,0.84l0.32-1.38c-2.01-0.46-4.41-0.67-6.73-0.87
		c-3.19-0.28-6.49-0.56-8.38-1.51c-3.42-1.71-13.26-5.24-13.67-5.39l-0.48,1.34c0.1,0.04,10.18,3.65,13.52,5.32
		C375.38,32.85,378.67,33.13,382.14,33.43z"/>
	<path class="st11" d="M378.27,45.12c2.27,0.2,4.62,0.4,6.54,0.84l0.32-1.38c-2.01-0.46-4.41-0.67-6.73-0.87
		c-3.19-0.28-6.49-0.56-8.38-1.51c-3.42-1.71-13.26-5.24-13.67-5.39l-0.48,1.34c0.1,0.04,10.18,3.65,13.52,5.32
		C371.51,44.53,374.79,44.82,378.27,45.12z"/>
	<path class="st11" d="M371.56,55.1c2.27,0.2,4.62,0.4,6.54,0.84l0.32-1.38c-2.01-0.46-4.41-0.67-6.73-0.87
		c-3.19-0.28-6.49-0.56-8.38-1.51c-3.42-1.71-13.26-5.24-13.67-5.39l-0.48,1.34c0.1,0.04,10.18,3.65,13.52,5.32
		C364.8,54.51,368.08,54.8,371.56,55.1z"/>
	<path class="st11" d="M365.82,66.91c2.27,0.2,4.62,0.4,6.54,0.84l0.32-1.38c-2.01-0.46-4.41-0.67-6.73-0.87
		c-3.19-0.28-6.49-0.56-8.38-1.51c-3.42-1.71-13.26-5.24-13.67-5.39l-0.48,1.34c0.1,0.04,10.18,3.65,13.52,5.32
		C359.06,66.33,362.34,66.61,365.82,66.91z"/>
</g>
</svg>
