<?xml version="1.0" encoding="utf-8"?>
<!-- Generator: Adobe Illustrator 27.1.0, SVG Export Plug-In . SVG Version: 6.00 Build 0)  -->
<svg version="1.1" id="Capa_1" xmlns="http://www.w3.org/2000/svg" xmlns:xlink="http://www.w3.org/1999/xlink" x="0px" y="0px"
	 width="150px" height="150px" viewBox="0 0 150 150" style="enable-background:new 0 0 150 150;" xml:space="preserve">
<style type="text/css">
	.st0{fill:none;}
	.st1{fill:#FFFFFF;}
	.st2{fill:#F2B705;}
	.st3{fill:#040423;}
	.st4{fill:#8C1F33;}
	.st5{fill:#5BA566;}
	.st6{fill:#F2E3CC;}
	.st7{fill:#F15A24;}
	.st8{fill:#400101;}
	.st9{fill:#FCFCFC;}
	.st10{fill:#122B05;}
	.st11{fill:#472FAD;}
	.st12{fill:#A64F03;}
	.st13{fill:#D98E04;}
	.st14{fill:#F2F2F2;}
	.st15{fill:#2FD812;}
	.st16{fill:#AA8D30;}
	.st17{fill:#B0EAB7;}
	.st18{fill:#111147;}
	.st19{fill:none;stroke:#472FAD;stroke-width:0;stroke-linecap:round;stroke-linejoin:round;}
	.st20{fill:#F2B705;stroke:#472FAD;stroke-miterlimit:10;}
	.st21{fill:#231A56;}
	.st22{fill:#EA0070;}
	.st23{fill:#158035;}
	.st24{fill:#F9B331;}
	.st25{opacity:0.4;}
	.st26{fill:#0F0E0D;}
	.st27{fill:#E0245E;}
	.st28{fill:#050535;}
	.st29{fill:#F2EBDF;}
</style>
<g>
	<path class="st0" d="M77.77,96.46c-5.4,0.18-7.83,6.47-8.53,8.74c0,0,0,0,0.01,0L77.77,96.46z"/>
	<path class="st0" d="M57.5,87.89l-0.74,0.95C57.13,88.63,57.38,88.28,57.5,87.89z"/>
	<path class="st0" d="M62.48,1.86l-0.16,0.32l0.32-0.27c0.05-0.04,0.12-0.06,0.18-0.04L63.39,2l-0.46-0.38
		c-0.08-0.06-0.1-0.17-0.05-0.26L62.9,1.3l-0.1,0.09c-0.06,0.05-0.14,0.07-0.21,0.04l-0.63-0.22l0.46,0.4
		C62.5,1.67,62.52,1.77,62.48,1.86z"/>
	<path class="st0" d="M76.61,104.42c-0.21,0.12-0.41,0.26-0.6,0.42C76.2,104.71,76.4,104.57,76.61,104.42z"/>
	<path class="st0" d="M83.06,75.83c0,0,0.01,0,0.02-0.01c-0.64-1.03-1.72-2.36-3.34-3.16c0,0-0.02-0.02-0.06-0.05c0,0,0,0,0,0
		c-0.04,0.04-0.09,0.06-0.14,0.06c0.05,1.5-0.05,3.9-0.15,5.74c0.02,0.03,0.04,0.06,0.06,0.09L83.06,75.83z"/>
	<path class="st0" d="M58.26,83.42c0-0.02,0-0.03,0-0.05c-0.02-0.05-0.04-0.1-0.06-0.14c-0.01,0-0.02,0-0.03,0c0,0,0,0,0,0
		c-0.12,0-0.21-0.09-0.21-0.21c0-0.06,0.03-0.12,0.08-0.16c-0.13-0.28-0.27-0.56-0.41-0.84c-0.03,0.02-0.06,0.02-0.09,0.02
		c-0.08,0-0.15-0.04-0.19-0.12c-0.03-0.06-0.07-0.13-0.1-0.19c-0.01,0-0.02-0.01-0.03-0.01c0-0.01,0-0.02,0-0.04
		c-0.27-0.52-0.56-1.05-0.87-1.59c0,0-0.01,0-0.01-0.01c-0.1-0.23-0.24-0.44-0.42-0.61c-0.02-0.25-0.08-0.5-0.2-0.74
		c-0.1-0.2-0.2-0.41-0.29-0.62C54.64,76.85,54.05,76,54.05,76c-0.92-1.05-1.37-2.65-1.37-2.65c-0.17-0.45-0.14-1.39-0.08-2.07
		c-0.12-0.04-0.25-0.07-0.38-0.09c-0.5,0.66-1.26,1.41-2.09,2.15c-0.02,0.05-0.04,0.1-0.07,0.14c-0.18,0.29-0.5,0.47-0.77,0.67
		c-0.42,0.32-0.81,0.68-1.23,0.99c-0.15,0.11-0.3,0.2-0.46,0.29c-1.16,0.9-2.06,1.54-2.06,1.54c-0.49,0.35-1.02,0.69-1.56,1
		c0,0,0,0,0,0c0.06,0.1,0.02,0.23-0.08,0.29c-1.67,0.95-3.45,1.71-4.65,2.17c-0.03,0.01-0.05,0.01-0.08,0.01
		c-0.08,0-0.16-0.05-0.2-0.13c-0.81,0.31-1.34,0.48-1.34,0.48c-0.27-0.02-0.5-0.02-0.7-0.02c-0.43,0.12-0.84,0.27-1.23,0.44
		c0.01,0.09,0.06,0.16,0.06,0.16c-0.13,1.69-1.24,1.72-1.7,1.66c-0.02,0.08-0.07,0.14-0.15,0.16c-0.02,0-0.04,0.01-0.05,0.01
		c-0.08,0-0.15-0.05-0.18-0.13c-0.05,0.03-0.09,0.07-0.13,0.11c-0.11,0.24-0.18,0.49-0.23,0.74c0.02,0.03,0.03,0.07,0.03,0.1
		c-0.01,0.86,0.36,1.81,1.09,2.86c0.02,0.02,0.04,0.03,0.06,0.05c0,0.02,0.01,0.03,0.01,0.05c0.11,0.15,0.23,0.3,0.35,0.46
		c0,0,0,0,0,0c1.34,1.66,3.28,3.18,4.66,4.15c0,0,0,0,0,0c0,0,0,0,0,0c0.71,0.5,1.26,0.85,1.51,1.01l-0.01-0.09
		c-0.01-0.05-0.19-1.32-0.15-2.08c0-0.01-0.01-0.02-0.01-0.03c0-0.02,0.01-0.05,0.01-0.07c0.02-0.22,0.06-0.46,0.21-0.57
		c0.11-0.16,0.55-0.69,1.54-1.22c1.31-0.7,3.76-1.48,8.03-1.18c0.14-0.01,3.47-0.12,5.19,1.67c0.03,0,0.06,0.01,0.09,0.01
		c0.04,0,0.08-0.01,0.12-0.01l2.53-3.22c0.03-0.04,0.08-0.06,0.12-0.07c-0.27-1.24-0.37-1.97-0.4-2.14
		C58.31,83.53,58.29,83.47,58.26,83.42z"/>
	<path class="st0" d="M75.58,54.26C75.58,54.26,75.59,54.26,75.58,54.26c-0.06,0-0.13,0.01-0.2,0.03c0.07,0.01,0.14,0.02,0.21,0.04
		C75.59,54.31,75.58,54.29,75.58,54.26z"/>
	<path class="st1" d="M35.72,81.19c0.39-0.17,0.81-0.32,1.23-0.44C35.87,80.76,35.7,81.01,35.72,81.19z"/>
	<path class="st1" d="M52.68,70.47c-0.11,0.22-0.26,0.46-0.46,0.71c0.13,0.02,0.25,0.05,0.38,0.09
		C52.63,70.82,52.68,70.47,52.68,70.47z"/>
	<path class="st1" d="M56.55,71.52c1.47-0.45,1.59-1.59,1.59-1.59c0.18-0.43-0.75-0.77-0.75-0.77c-0.05-0.3,0.47-0.63,0.47-0.63
		c0.18-0.77-0.25-1.5-0.25-1.5c-0.5-0.55-1.97-0.23-1.97-0.23c-0.22-0.22,0.28-0.47,0.28-0.47c0.34-0.48,0-1.54,0-1.54
		c-0.61-0.68-2.06-0.16-2.06-0.16c-0.45-0.09-1,0.73-1,0.73c-0.47,0.54-0.09,2.92-0.09,2.92c0.45,0.07,0.39,1.13,0.39,1.13
		c-0.18,0.36-0.47,0.43-0.47,0.43c-0.34,0.11,0,0.63,0,0.63c0.59,0.38,1.81,1.02,1.81,1.02L56.55,71.52z"/>
	<path class="st1" d="M40.85,78.73c-1.53-0.3-1.68,0.78-1.68,1.26c1.15-0.44,2.81-1.15,4.38-2.03
		C41.25,77.07,40.85,78.73,40.85,78.73z"/>
	<path class="st1" d="M33.22,83.79c0.02,0.02,0.05,0.04,0.07,0.06c0.02,0.02,0.03,0.04,0.04,0.06c0.05-0.26,0.13-0.5,0.23-0.74
		C33.39,83.34,33.28,83.6,33.22,83.79z"/>
	<path class="st1" d="M34.46,86.86c0.02,0.03,0.04,0.07,0.07,0.1c0-0.02-0.01-0.03-0.01-0.05C34.5,86.9,34.48,86.88,34.46,86.86z"/>
	<path class="st1" d="M49.3,74.14c0.27-0.2,0.58-0.38,0.77-0.67c0.03-0.04,0.05-0.09,0.07-0.14c-0.83,0.75-1.74,1.48-2.52,2.09
		c0.16-0.09,0.31-0.18,0.46-0.29C48.49,74.82,48.88,74.46,49.3,74.14z"/>
	<polygon class="st1" points="39.54,91.57 39.54,91.57 39.54,91.57 	"/>
	<path class="st1" d="M55.86,89.02c0.04,0.04,0.08,0.08,0.11,0.12l0.1-0.12c-0.04,0-0.08,0.01-0.12,0.01
		C55.92,89.03,55.89,89.02,55.86,89.02z"/>
	<path class="st1" d="M56.38,79.35c0.03,0.02,0.06,0.05,0.07,0.09c0,0,0,0,0,0c0.46,0.79,0.88,1.56,1.26,2.3
		c0.02,0.05,0.03,0.1,0.01,0.14c1.68,0.36,2.59-0.2,2.59-0.2s0.3-0.35,0.57-1c0.27-0.66-0.54-0.57-0.54-0.57s-0.12,0.86,0-1.47
		c0.11-2.34-2.17-0.51-2.17-0.51c0.95-1.87-0.57-2.1-0.57-2.1c-1.19-0.37-1.32,2.46-1.34,3.28c0.04,0,0.07,0.01,0.11,0.03
		C56.37,79.35,56.38,79.35,56.38,79.35z"/>
	<path class="st1" d="M57.21,81.73c0.01,0,0.02,0.01,0.03,0.01c-0.01-0.02-0.02-0.03-0.03-0.05C57.2,81.7,57.21,81.72,57.21,81.73z"
		/>
	<path class="st1" d="M55.91,79.49c0.18,0.17,0.32,0.38,0.42,0.61c0,0,0.01,0,0.01,0.01c-0.09-0.16-0.17-0.31-0.27-0.47
		c0,0,0-0.01,0-0.01c-0.02-0.03-0.03-0.06-0.03-0.1v0c0-0.08,0.04-0.14,0.11-0.18c-0.25-0.43-0.5-0.85-0.73-1.22
		c0.1,0.21,0.2,0.42,0.29,0.62C55.83,78.98,55.89,79.24,55.91,79.49z"/>
	<path class="st1" d="M58.34,83.58c0-0.02,0-0.04,0-0.04c-0.02-0.06-0.05-0.11-0.08-0.17c0,0.02,0,0.03,0,0.05
		C58.29,83.47,58.31,83.53,58.34,83.58z"/>
	<path class="st1" d="M41.74,44.21c0,0,0.01,0.01,0.01,0.01c0-0.01-0.01-0.02-0.01-0.02C41.75,44.2,41.74,44.21,41.74,44.21z"/>
	<path class="st1" d="M105.38,99.8c0.06-0.3,0.12-0.61,0.18-0.92C105.5,99.19,105.44,99.49,105.38,99.8z"/>
	<path class="st1" d="M35.44,134.02c0.01,0,0.01,0.01,0.02,0.01C35.45,134.02,35.45,134.02,35.44,134.02
		C35.44,134.01,35.44,134.01,35.44,134.02z"/>
	<path class="st1" d="M29.58,91.9c0.01,0,0.01,0.01,0.02,0.01C29.6,91.91,29.59,91.9,29.58,91.9C29.58,91.9,29.58,91.9,29.58,91.9z"
		/>
	<path class="st1" d="M36.35,63.74c-0.38,0.23-0.72,0.5-1.08,0.74c0,0,0,0.01,0,0.01c0.47-0.32,0.93-0.64,1.4-0.95
		C36.55,63.62,36.45,63.68,36.35,63.74z"/>
	<path class="st1" d="M81.62,92.42c-0.03,0.06-0.08,0.09-0.14,0.11c0.16,0.56,0.38,0.82,0.38,0.82c1.1,0.99,1.79-0.2,1.79-0.2
		c0.28-1.36-0.82-0.85-0.82-0.85l0.34-0.36c1.07-1.11,0.09-1.64-0.36-1.81c-0.01,0.02-0.01,0.04-0.02,0.05
		C82.33,90.89,81.9,91.79,81.62,92.42z"/>
	<path class="st1" d="M46.69,57.32c-0.11,0.04-0.14,0.15-0.27,0.16c-0.1,0.01-0.14,0.02-0.22,0.07c-0.26,0.16-0.54,0.36-0.77,0.56
		c-0.03,0.02-0.05,0.04-0.08,0.06c0.54-0.31,1.06-0.61,1.53-0.87C46.81,57.31,46.75,57.32,46.69,57.32z"/>
	<path class="st1" d="M103.79,114.28c0.01,0.01,0.02,0.01,0.03,0.02c0.01,0.01,0.02,0.02,0.03,0.04c-0.02-0.06-0.04-0.12-0.05-0.18
		C103.79,114.19,103.79,114.24,103.79,114.28z"/>
	<path class="st1" d="M103.82,111.32c0,0,0,0.01,0.01,0.01c0-0.03,0-0.05,0.01-0.08C103.83,111.28,103.83,111.3,103.82,111.32z"/>
	<path class="st1" d="M66.24,46.92c0-0.01-0.01-0.02-0.01-0.03c-0.03,0.05-0.07,0.1-0.1,0.14C66.17,46.99,66.2,46.95,66.24,46.92z"
		/>
	<path class="st1" d="M51.02,55.06c-0.04,0-0.08-0.01-0.11-0.02c-0.02,0.06-0.04,0.12-0.08,0.17c0,0,0,0,0,0
		c0.15-0.06,0.3-0.11,0.46-0.16C51.19,55.06,51.1,55.07,51.02,55.06z"/>
	<path class="st1" d="M126.37,90.51c-0.01-0.02-0.01-0.04-0.02-0.05c0,0.02,0.01,0.05,0.01,0.07
		C126.37,90.52,126.37,90.52,126.37,90.51z"/>
	<path class="st1" d="M82.43,57.05c-0.08-0.01-0.16-0.04-0.24-0.08c-0.37-0.21-0.75-0.39-1.13-0.57c0.5,0.26,1,0.54,1.5,0.83
		C82.5,57.18,82.46,57.12,82.43,57.05z"/>
	<path class="st1" d="M92.29,68.02c-0.14,0-0.27-0.03-0.37-0.07c0.04,0.1,0.08,0.21,0.12,0.31C92.09,68.21,92.17,68.13,92.29,68.02z
		"/>
	<path class="st1" d="M89.38,63.25c-0.01-0.03-0.03-0.06-0.04-0.09c-0.06-0.06-0.12-0.11-0.18-0.17c-0.03-0.02-0.05-0.05-0.08-0.08
		c0.12,0.16,0.25,0.32,0.37,0.48C89.42,63.35,89.4,63.3,89.38,63.25z"/>
	<path class="st1" d="M42.11,40.84c0.01,0.01,0.01,0.01,0.02,0.01c-0.01-0.02-0.01-0.04-0.02-0.05
		C42.1,40.82,42.11,40.83,42.11,40.84z"/>
	<g>
		<path class="st6" d="M80.97,93.93c0,0-1.1,1.05-2.55,2.46c0,0,0,0,0,0.01l-9.46,9.7c-0.01,0.01-0.02,0.01-0.03,0.02
			c-0.01,0.01-0.02,0.02-0.03,0.02l-4.05,2.06c-0.03,0.02-0.06,0.02-0.1,0.02c0,0-0.25,0.01-0.38,0.18
			c-0.13,0.17-0.1,0.45-0.05,0.65c0.09,0.38,0.09,0.72,0.08,1.06c-0.01,0.7-0.03,1.43,0.79,2.63l0.72,0.92l0.61,0.83
			c1.23-0.15,3.13-0.47,3.68-0.78c-0.76-0.82-1.2-1.95-1.19-3.07c0.49,1,0.92,1.94,1.34,2.94c0.49-0.49,1.31-1.68,1.46-1.9
			c0.13-0.65,1-4.74,2.15-5.45c0.15-0.09,0.93-0.64,2.01-1.4c0.19-0.16,0.39-0.3,0.6-0.42c3.03-2.14,7.6-5.39,7.66-5.44
			c0.72-0.76,1.37-1.44,1.85-1.95c-1.25-1.08-3.17-2.53-5.09-3.19C81.01,93.88,81,93.91,80.97,93.93z M65.75,110.65
			c0.57,1.16,1.05,2.22,1.54,3.41C66.32,113.22,65.74,111.93,65.75,110.65z M67.29,110.65c0.57,1.16,1.05,2.22,1.54,3.41
			C67.86,113.22,67.28,111.93,67.29,110.65z M65.75,109.1c1.24-0.2,2.55-0.07,3.72,0.37C68.25,109.17,67,109.05,65.75,109.1z"/>
	</g>
	<path class="st1" d="M73.7,53.6c-0.05,0.01-0.1,0.02-0.15,0.03c0.06,0.01,0.11,0.03,0.17,0.04C73.72,53.65,73.71,53.62,73.7,53.6z"
		/>
	<path class="st1" d="M104.58,93.72c0.02-0.01,0.03-0.01,0.05-0.01c0.01-0.02,0.02-0.05,0.03-0.07c-0.05,0.04-0.1,0.07-0.15,0.11
		C104.53,93.74,104.55,93.73,104.58,93.72z"/>
	<path class="st1" d="M107.79,90.68c0.01,0,0.02,0.01,0.04,0.01c0.01-0.03,0.02-0.06,0.03-0.09
		C107.84,90.63,107.81,90.66,107.79,90.68z"/>
	<path class="st1" d="M44.32,45.66c-0.83-1.26-1.27-2.28-1.41-2.61c-0.16-0.02-0.53,0.01-0.85,0.46c0.02,0.24,0.12,1.09,0.74,1.65
		C43.17,45.5,43.69,45.66,44.32,45.66z"/>
	<path class="st1" d="M77.24,127.59c0-0.01,0-0.01,0-0.02c-0.01,0.01-0.01,0.01-0.02,0.02L77.24,127.59z"/>
	<g>
		<path class="st6" d="M63.74,52.55c-0.09,0-0.16-0.05-0.2-0.13l-1.09-2.45c-0.04-0.1-0.01-0.21,0.08-0.27
			c1.44-0.89,2.61-1.99,3.48-3.25c-0.03-2.96-1.85-4.6-1.87-4.62c-0.05-0.05-0.08-0.12-0.07-0.19c0.01-0.07,0.06-0.13,0.12-0.16
			c1.37-0.6,0.89-2.73,0.84-2.96c-0.38-0.73-0.76-1.11-1.12-1.11c0,0,0,0-0.01,0c-0.39,0-0.73,0.47-0.87,0.72
			c0.34,1.53-0.23,3.93-0.26,4.03c-0.02,0.09-0.11,0.16-0.2,0.16c-0.1,0-0.18-0.06-0.21-0.15c-2-7.13-4.12-9.56-5.39-10.38
			c1.61,1.78,1.46,5.07,1.45,5.23c0,0.07-0.04,0.13-0.1,0.17c-0.06,0.04-0.13,0.04-0.19,0.02c-2.25-0.85-6.55,0.4-6.6,0.41
			c-0.06,0.02-0.12,0.01-0.17-0.02c-0.05-0.03-0.09-0.08-0.1-0.14c-0.21-1.14-1.21-3.17-1.8-4.28l0.14,4.99
			c0,0.07-0.03,0.13-0.08,0.17c-0.05,0.04-0.12,0.06-0.18,0.04c-2.36-0.58-5.27,1.54-5.3,1.56c-0.05,0.04-0.12,0.05-0.18,0.03
			c-0.06-0.02-0.11-0.06-0.14-0.12c-0.4-0.98-0.58-3.11-0.65-4.27c-0.54,1.4-0.27,3.2-0.27,3.22c0.07,0.34-0.23,1.51-0.32,1.87
			c0.09,0.27,0.47,1.43,0.75,2.1c0.01,0.02,0.52,1.35,1.63,2.96c0,0,0.01,0.01,0.01,0.01c0,0,0,0,0,0
			c2.31,3.36,6.48,7.04,13.24,5.55c0.28-0.06,0.58-0.13,0.87-0.22c0.11-0.03,0.23,0.03,0.26,0.15c0.03,0.11-0.03,0.23-0.15,0.26
			c-0.23,0.07-0.46,0.12-0.69,0.17c0.13,0.6,0.32,2.33-1.17,3.62c0.85,0.48,1.68,1.02,1.68,1.02c1.49,0.17,3.16,0,3.16,0
			c2.37-0.55,3.8-2.94,4.18-3.65C64.72,52.54,63.75,52.55,63.74,52.55z M47.15,41.93c-0.27,0.43-0.6,0.68-0.98,0.73
			c-0.06,0.01-0.11,0.01-0.17,0.01c-0.49,0-0.85-0.31-0.87-0.32c-0.09-0.08-0.1-0.21-0.02-0.3s0.21-0.1,0.3-0.02
			c0.01,0.01,0.33,0.27,0.7,0.21c0.25-0.04,0.48-0.22,0.68-0.54c0.06-0.1,0.19-0.13,0.29-0.07C47.18,41.7,47.21,41.84,47.15,41.93z
			 M48.6,44.55c-0.03,0.02-0.07,0.03-0.1,0.03c-0.04,0-0.09-0.01-0.13-0.04c-0.07-0.05-0.1-0.13-0.08-0.21c0.29-1.39,0-3.59,0-3.62
			c-0.02-0.12,0.07-0.22,0.18-0.24c0.12-0.02,0.22,0.07,0.24,0.18c0.01,0.08,0.26,1.93,0.07,3.36c0.4-0.16,1.03-0.35,1.52-0.21
			c0.11,0.03,0.18,0.15,0.14,0.26c-0.03,0.11-0.15,0.18-0.26,0.14C49.69,44.05,48.87,44.4,48.6,44.55z M53.97,48.6
			c-0.03,0.08-0.11,0.13-0.2,0.13c-0.02,0-0.04,0-0.06-0.01c-0.41-0.13-1.09-0.29-1.31-0.24c-0.11,0.03-0.23-0.04-0.26-0.15
			c-0.03-0.11,0.04-0.23,0.15-0.26c0.33-0.09,1,0.08,1.35,0.18c0.29-1.04-0.24-2.69-0.52-3.43c-1.07,1.55-2.81,1.65-2.89,1.66
			c-0.11,0.01-0.22-0.08-0.22-0.2c-0.01-0.12,0.08-0.22,0.2-0.22c0.02,0,1.85-0.12,2.77-1.81c0.04-0.07,0.1-0.11,0.2-0.11
			c0.08,0,0.15,0.05,0.18,0.13C53.4,44.39,54.57,47.11,53.97,48.6z M54.79,39.72c-0.38,1.06-1.74,1.17-2.26,1.17
			c-0.11,0-0.19,0-0.2-0.01c-0.12-0.01-0.2-0.11-0.2-0.23c0.01-0.12,0.11-0.2,0.23-0.2c0.02,0,1.68,0.11,2.03-0.88
			c0.04-0.11,0.16-0.17,0.27-0.13C54.77,39.48,54.83,39.61,54.79,39.72z"/>
	</g>
	<path class="st1" d="M79.55,55.89c-0.03,0-0.06-0.01-0.09-0.02c-0.01,0-0.01-0.01-0.02-0.01c-0.07-0.03-0.15-0.06-0.22-0.1
		c-0.01,0-0.01,0-0.02-0.01c-1.02-0.45-2.11-0.86-3.25-1.22c-0.05-0.01-0.12-0.04-0.18-0.06c-0.08-0.01-0.13-0.06-0.16-0.13
		c-0.07-0.01-0.14-0.03-0.21-0.04c-0.31,0.08-0.73,0.32-1.22,0.9c0,0-0.7,2.47,1.36,1.86c0,0-0.47,2.09,0.48,2.54
		c0,0,1.9,0.77,2.01-1.11c0,0,1.09,1.82,2.13-0.25c0.7-1.38,0.07-2.12-0.43-2.45C79.68,55.85,79.62,55.89,79.55,55.89z"/>
	<g>
		<path class="st6" d="M125.48,120.1c0-0.06,0.02-0.12,0.07-0.16c0.34-0.3,0.19-1.9-0.03-3.04c-0.04,0-0.07,0-0.11,0
			c-2.6-0.05-5.52-0.04-5.85,0.07l-0.34,0.26l0.75,3.14c0,0.01,0,0.01,0,0.02c1.46-0.22,3.43-0.29,5.25-0.29
			C125.31,120.1,125.4,120.1,125.48,120.1z"/>
	</g>
	<path class="st1" d="M56.9,55.1c0.01-0.04,0.03-0.08,0.06-0.11c0,0,0.01-0.01,0.01-0.01c-0.03,0-0.05,0.01-0.08,0.01
		c0,0.03-0.01,0.07-0.03,0.1C56.88,55.09,56.89,55.09,56.9,55.1z"/>
	<path class="st1" d="M69.25,105.2c0,0.01,0,0.01-0.01,0.02L69.25,105.2C69.25,105.2,69.25,105.2,69.25,105.2z"/>
	<path class="st1" d="M119.41,119.85c0.03,0.21,0.08,0.41,0.13,0.62c0,0,0.01,0,0.01,0L119.41,119.85z"/>
	<path class="st1" d="M41.7,60.33C41.7,60.33,41.7,60.34,41.7,60.33c0.47-0.28,0.93-0.56,1.38-0.83c-0.44,0.2-0.88,0.39-1.3,0.62
		c-0.07,0.04-0.15,0.08-0.22,0.12C41.62,60.25,41.67,60.28,41.7,60.33z"/>
	<path class="st1" d="M73.75,65.29c-0.1-0.01-0.18-0.08-0.19-0.18c-0.25-1.54-0.9-2.4-1.82-2.44c-0.98-0.04-1.99,0.87-2.2,1.68
		c-0.1,0.41-0.06,0.98,0.72,1.36c0.1,0.05,0.14,0.16,0.11,0.26c-0.03,0.1-0.14,0.16-0.24,0.14c-0.45-0.09-0.81-0.02-1.08,0.19
		c-0.57,0.45-0.6,1.4-0.6,1.41c0,0.02,0,0.04-0.01,0.05c-0.09,0.29-0.06,0.52,0.08,0.69c0.37,0.45,1.48,0.44,1.87,0.4
		c0.01,0,0.01,0,0.02,0c0.08,0,0.16,0.05,0.2,0.13c0.69,1.66,2.07,1.99,2.36,2.04c1.4-0.64,1.1-1.85,1.08-1.91
		c-0.03-0.09,0.02-0.2,0.1-0.24c1.21-0.66,1.77-1.37,1.63-2.06C75.59,65.98,74.44,65.34,73.75,65.29z"/>
	<path class="st1" d="M85.43,74.77c0.69,0.27,1.32,0.26,1.47,0.08c0.04-0.05,0.1-0.07,0.16-0.07c0.02,0,0.04,0,0.06,0.01
		c0.08,0.02,0.14,0.09,0.15,0.17c0.22,1.24,2.03,1.07,2.33,1.03c0.38-0.24,0.6-0.52,0.65-0.84c0.09-0.56-0.35-1.08-0.35-1.08
		c-0.06-0.07-0.07-0.17-0.02-0.24c0.73-1.25,0.96-2.15,0.65-2.53c-0.39-0.47-1.6-0.19-2.03-0.04c-0.07,0.02-0.15,0.01-0.2-0.03
		c-1.25-1.01-1.61-0.9-1.69-0.84c-0.25,0.18-0.07,1.14,0.16,1.76c0.02,0.06,0.02,0.12-0.01,0.17c-0.03,0.05-0.07,0.09-0.13,0.11
		c-1.99,0.57-2.23,1.16-2.24,1.38C84.36,74.12,84.78,74.51,85.43,74.77z"/>
	<path class="st1" d="M42.51,72.42c0.45,0.3,0.87,0.4,1.26,0.31c0.58-0.13,0.91-0.66,0.91-0.67c0.04-0.06,0.11-0.1,0.18-0.1
		c0.01,0,0.01,0,0.02,0c0.08,0.01,0.15,0.06,0.18,0.14c0.18,0.47,0.83,0.9,0.83,0.9c0.01,0.01,0.03,0.02,0.04,0.03
		c0.28,0.29,0.56,0.43,0.83,0.41c0.41-0.02,0.7-0.39,0.7-0.39c0.01-0.01,0.02-0.03,0.04-0.04c0.22-0.17,0.33-0.38,0.33-0.63
		c0.02-0.95-1.36-2.16-1.37-2.17c-0.05-0.04-0.07-0.1-0.07-0.16c0-0.06,0.03-0.12,0.07-0.16c0.57-0.5,0.82-0.95,0.74-1.3
		c-0.07-0.32-0.44-0.59-1.04-0.75c-0.25-0.07-0.48-0.05-0.69,0.08c-0.57,0.33-0.82,1.23-0.83,1.24c-0.02,0.08-0.09,0.14-0.18,0.15
		c-0.08,0.01-0.17-0.03-0.21-0.11c-0.25-0.44-0.52-0.68-0.8-0.72c-0.35-0.05-0.63,0.22-0.63,0.22c-0.16,0.2-0.24,0.4-0.21,0.59
		c0.05,0.27,0.31,0.44,0.32,0.44c0.06,0.04,0.1,0.1,0.1,0.17s-0.02,0.14-0.08,0.18c-0.01,0.01-1,0.82-0.96,1.58
		C42.01,71.95,42.18,72.2,42.51,72.42z"/>
	<g>
		<path class="st6" d="M78.47,137.5c0.31-2.72,0.79-6.34,1.4-8.94l-2.98-0.61c-2.63,3.11-3.64,7.88-3.86,9.09
			C74.6,136.85,78.24,137.46,78.47,137.5z"/>
	</g>
	<path class="st1" d="M86.13,59.8c0,0,0.01-0.01,0.02-0.01c-0.95-0.86-1.99-1.66-3.12-2.27C84.1,58.18,85.15,58.94,86.13,59.8
		C86.13,59.8,86.13,59.8,86.13,59.8z"/>
	<path class="st1" d="M41.63,60.62c-1.15,0.71-2.16,1.34-3.07,1.93c-0.04,0.02-0.08,0.03-0.11,0.03c-0.02,0-0.04-0.01-0.07-0.02
		c-0.13,0.43-0.25,1.41,1.4,1.05c1.62-0.36,1.36-1.3,1.17-1.71c-0.03,0.02-0.07,0.03-0.1,0.03c-0.05,0-0.11-0.02-0.15-0.06
		c-0.01-0.01-0.02-0.03-0.03-0.04c-0.06-0.08-0.05-0.2,0.02-0.27c0.08-0.08,0.21-0.09,0.3-0.01l0,0c0.01,0.01,0.02,0.03,0.03,0.04
		c0.06,0.08,0.05,0.19-0.02,0.26c0.24,0.19,0.69,0.41,1.11-0.16c0.44-0.61-0.1-1.01-0.4-1.18C41.69,60.57,41.67,60.6,41.63,60.62z"
		/>
	<path class="st1" d="M56.57,55.16c-0.49-0.24-0.81-0.37-0.97-0.38c-0.51-0.02-1.77-0.08-3.2,0.2c-0.01,0-0.02,0-0.03,0
		c0,0-0.01,0-0.01,0c-0.01,0-0.01,0-0.02,0c-0.02,0-0.04-0.01-0.06-0.02c-0.01,0-0.02-0.01-0.02-0.01
		c-0.02-0.01-0.04-0.03-0.06-0.05c-0.62,0.49-2.29,1.97-1.92,3.19c0,0,0.77,1.38,2.29,0.57c0,0,0.18,1.82,1.61,0.68
		c0,0,1,0.88,2.31-0.11c0,0,0.74-1.77-0.14-1.98c0,0,0.94-1.35,0.47-2.1c-0.04,0.03-0.09,0.05-0.13,0.05
		C56.65,55.2,56.61,55.18,56.57,55.16z"/>
	<path class="st1" d="M30.52,68.24c-2.29,1.82-4.1,3.5-5.39,5c-0.02,0.02-0.04,0.04-0.07,0.05c0.29,0.56,1.27,2.21,2.62,2.15
		c1.63-0.07,2.02-1.79,2.02-1.79c1.86,1.18,2.83,0.21,3.61-0.63c0.78-0.84-1.23-1.9-1.23-1.9C33.2,70.68,33.32,69,33.32,69
		c0.13-1.34-2.04-1.07-2.72-0.96C30.61,68.12,30.59,68.19,30.52,68.24z"/>
	<path class="st1" d="M24.84,73.27C24.84,73.27,24.84,73.27,24.84,73.27c-0.02-0.02-0.04-0.04-0.05-0.06
		c-0.12,0.19-0.22,0.4-0.3,0.61c0.16-0.27,0.25-0.44,0.25-0.44C24.78,73.34,24.81,73.3,24.84,73.27z"/>
	<g>
		<g>
			<path class="st18" d="M66.45,114.93c-0.07,0-0.13-0.03-0.17-0.09l-0.68-0.93l-0.72-0.92c-0.91-1.33-0.89-2.16-0.88-2.89
				c0.01-0.32,0.01-0.63-0.07-0.95c-0.11-0.43-0.06-0.77,0.13-1.01c0.21-0.27,0.52-0.32,0.65-0.33l3.92-2
				c0.26-1.01,2.72-9.92,9.55-9.77c1.42-1.39,2.5-2.42,2.5-2.42c0.06-0.06,0.15-0.07,0.22-0.04c0.08-0.22,0.24-0.59,0.44-1.05
				c0,0,0,0,0,0c-0.11-0.05-0.16-0.17-0.11-0.28c0.29-0.65,0.73-1.57,1.21-2.29c0.06-0.1,0.2-0.12,0.29-0.06c0,0,0,0,0.01,0.01
				c0.21-0.3,0.42-0.54,0.63-0.71c-0.06-0.08-0.05-0.19,0.02-0.27c0.01-0.01,0.01-0.02,0.02-0.02c0,0,0,0,0,0c0,0,0,0,0,0
				c0,0,0,0,0,0c0,0,0,0,0,0c-0.61-0.84-1.01-1.97-0.17-3.07c-0.01-0.01-0.03-0.02-0.04-0.03c-0.07-0.09-0.05-0.21,0.03-0.29
				c-0.38-0.45-1.32-1.84-0.13-3.48c0,0,0.2-0.15,0.54-0.28c0,0,0,0,0,0c0,0,0,0,0,0c0-0.01,0-0.02,0-0.02
				c0-0.01-0.01-0.03-0.01-0.04v0c0,0,0,0,0-0.01c0-0.02,0.01-0.03,0.01-0.04c0-0.01,0-0.02,0.01-0.04
				c0.01-0.01,0.01-0.02,0.02-0.03c0.01-0.01,0.01-0.02,0.02-0.03c0.01-0.01,0.02-0.01,0.03-0.02c0.01-0.01,0.03-0.02,0.04-0.02
				c0,0,0,0,0,0c-0.12-0.35-0.32-1.11-0.12-1.84c0,0,0.8-0.77,0.2-2.36c0,0-0.17-0.45-0.54-1.1l-3.8,2.8
				c-0.01,0.01-0.02,0-0.03,0.01c-0.01,0-0.02,0.01-0.03,0.02c-0.01,0-0.02,0-0.03,0c-0.01,0-0.02,0.01-0.03,0.01c0,0-0.01,0-0.01,0
				c-0.07,1.13-0.12,1.92-0.12,1.92c-0.72,0.86-3.26,1.72-3.26,1.72c-1.68,0.18-7.16,1.54-7.16,1.54c-4.83,1.15-8.89,1.6-9.83,1.69
				c0,0.05-0.01,0.11-0.04,0.15l-1.44,1.84c-0.12,0.39-0.37,0.74-0.74,0.95l-0.51,0.65c0.13,0.19,0.25,0.4,0.34,0.63c0,0,0,0,0,0
				c0,0,0,0,0,0c0,0,0,0,0,0.01c0,0,0,0,0,0c0.05,0.11,0.08,0.21,0.12,0.33c0,0.02,0.01,0.03,0.01,0.05
				c0.02,0.27,0.37,6.74,0.2,8.08c0,0.03-0.3,2,0.2,3.6c0.05,0.18,0.46,1.76-0.04,2.37c-0.04,0.05-0.09,0.07-0.15,0.08
				c-0.07,0-5.72,0.35-10.43,0.35c-1.42,0-2.75-0.03-3.83-0.11c-0.39,0.66-2.08,2.5-4.76,5.18c-0.03,0.04-4.58,6.16-5.18,8.94
				c-0.88,4.12-1.1,9.99,2.88,14.57c3.93,4.52,10.13,9.86,23.32,11.01c0.09,0,10.28-0.01,13.63-1.16c-0.07-1.21-0.29-5.43,0.02-6.17
				c0.09-0.56,1.16-7.03,4.82-10.43c0,0,0.07-0.09,0.19-0.24c0.41-0.54,1.17-1.58,1.6-2.55c0.02-0.03,0.04-0.06,0.07-0.08
				c0.01-0.01,0.25-0.19,0.21-0.46c-0.03-0.22-0.29-0.68-1.66-1.21c-0.14-0.07-2.97-1.45-4.2-2.41c-0.02-0.01-0.03-0.03-0.04-0.05
				c-0.02-0.03-1.79-2.61-3.66-4.95c-0.07-0.09-0.06-0.22,0.03-0.3c0.03-0.03,0.07-0.04,0.11-0.04c-0.01-0.09,0-0.19,0.02-0.27
				c-1.07,0.38-3.1,0.63-3.58,0.69C66.47,114.93,66.46,114.93,66.45,114.93z M68.9,98.99c0.09-0.08,0.22-0.08,0.3,0.01
				c0.08,0.09,0.08,0.22-0.01,0.3c-0.03,0.03-2.82,2.67-2.26,5.42c0.02,0.11-0.05,0.23-0.17,0.25c-0.01,0-0.03,0-0.04,0
				c-0.1,0-0.19-0.07-0.21-0.17C65.91,101.82,68.77,99.1,68.9,98.99z M41.16,129.05c-0.04,0.04-0.1,0.06-0.15,0.06
				c-0.05,0-0.11-0.02-0.15-0.06c-4.16-4.19-0.9-8.61-0.87-8.65c0.07-0.09,0.2-0.11,0.3-0.04c0.09,0.07,0.11,0.2,0.04,0.3
				c-0.13,0.17-3.06,4.17,0.83,8.1C41.25,128.83,41.25,128.97,41.16,129.05z M66.51,138.71c0.03,0.11-0.03,0.23-0.15,0.26
				c-0.21,0.06-3.12,0.85-6.53,0.85c-2.54,0-5.35-0.44-7.54-1.93c-0.1-0.07-0.12-0.2-0.06-0.29c0.07-0.1,0.2-0.12,0.29-0.06
				c4.98,3.4,13.63,1.05,13.72,1.03C66.37,138.53,66.48,138.6,66.51,138.71z"/>
		</g>
	</g>
	<g>
		<path class="st6" d="M41.11,93.05c-0.01,0-0.01,0.01-0.02,0.01c-0.04,0-0.07-0.01-0.11-0.03c-0.04-0.02-4.01-2.42-6.33-5.23
			c-2.07,0.75-4.61,2.77-5.31,3.35c2.88,2.43,6.75,4.6,6.79,4.62c0.92,0.6,3.24,1.55,3.26,1.56c0.02,0.01,0.05,0.02,0.06,0.04
			l2.51,2.35L41.11,93.05z"/>
	</g>
	<g>
		<g>
			<path class="st18" d="M94.66,77.55c0,0,0.3,1.43,0.84,2.93c0.38,0.44,0.8,1.2,1.15,2.04c0.12,0.19,0.23,0.37,0.35,0.52l0.04,0.08
				c0.01,0.03,0.16,0.69,0.25,1.53l0,0c0.08,0.5,0.09,0.95-0.01,1.27c-0.02,0.07-0.07,0.11-0.14,0.13
				c-0.02,0.54-0.11,1.04-0.32,1.38l-0.03,0.58l-0.15,2.42c0,0-1.27,2.45-2.36,3.63c0,0-0.59,1.68-0.99,2.04
				c0,0-1.47,0.05-2.91-0.26c-0.02,0.09-0.1,0.17-0.2,0.17c-0.02,0-0.03-0.01-0.04-0.01c-0.13,0.51-0.52,1.86-1.28,2.37
				c0,0-0.77,0.45-1.32,0c0,0-0.42-0.43-1.11-1.05c0,0,0,0,0,0c-0.4,0.43-0.93,0.98-1.53,1.61c14.83-0.51,21.02-6.06,23.51-9.78
				c0.48-1.19,1.02-2.33,1.61-3.41c0.05-0.09,0.16-0.13,0.26-0.1c0.1,0.04,0.16,0.14,0.14,0.24c-0.01,0.04-0.33,1.5-1.62,3.45
				c-3.53,8.69-4.39,19.83-4.69,23.81c-0.11,1.45,0.96,2.75,2.44,2.97c6.6,0.96,11.72,0.85,12.36,0.84l0.41-0.32
				c0.05-0.05,0.25-0.25,6.09-0.15c2.41,0,7.18-1.31,8.29-1.63c-0.06-0.14-0.14-0.3-0.22-0.48c-1.52-3.37-5.54-12.34-7.06-20.54
				c-0.67-3.53-1.7-14.11-1.93-17.82c-0.23-3.81-3.41-9.96-6.35-13.71c-3.01-3.84-9.39-2.79-9.45-2.78
				c-7.83,0.58-16.35,9.01-16.43,9.1c-0.02,0.02-0.04,0.03-0.06,0.04C92.66,69.74,94.9,75.11,94.66,77.55z M109.4,97.22
				c-0.02,0.07-1.86,7.55-1.17,13.4c0.01,0.12-0.07,0.22-0.19,0.23c-0.01,0-0.02,0-0.03,0c-0.11,0-0.2-0.08-0.21-0.19
				c-0.7-5.93,1.16-13.47,1.18-13.55c0.03-0.11,0.14-0.18,0.26-0.15C109.36,97,109.43,97.11,109.4,97.22z M113.21,61.15
				c3.65-0.66,4.54,3.61,4.55,3.66c0.02,0.11-0.05,0.23-0.17,0.25c-0.01,0-0.03,0-0.04,0c-0.1,0-0.19-0.07-0.21-0.17
				c-0.03-0.16-0.82-3.91-4.06-3.32c-0.11,0.02-0.23-0.06-0.25-0.17C113.01,61.28,113.09,61.17,113.21,61.15z M104.3,89.37
				c0.06-0.1,0.19-0.14,0.29-0.08c0.1,0.06,0.14,0.19,0.08,0.29c-2.88,5.01-8.13,5.63-8.19,5.64c-0.01,0-0.02,0-0.02,0
				c-0.11,0-0.2-0.08-0.21-0.19c-0.01-0.12,0.07-0.22,0.19-0.23C96.49,94.8,101.53,94.19,104.3,89.37z"/>
		</g>
	</g>
	<path class="st1" d="M42.13,104.82c-0.02,0.06-0.04,0.11-0.06,0.17c0.05-0.06,0.09-0.12,0.12-0.17
		C42.17,104.82,42.15,104.82,42.13,104.82z"/>
	<path class="st1" d="M88.21,62.17c-0.02-0.01-0.03-0.03-0.05-0.05c0,0-0.01-0.01-0.01-0.01c-0.6-0.7-1.28-1.38-2-2.02
		c-0.02-0.02-0.03-0.04-0.04-0.06c-2.83,1.59,0.18,2.86,0.18,2.86c1.51,0.65,1.9-0.26,2.01-0.7c-0.02,0-0.04-0.01-0.06-0.02
		C88.23,62.18,88.22,62.18,88.21,62.17z"/>
	<path class="st1" d="M88.46,62.16c0.06,0.07,0.12,0.15,0.19,0.22c-0.07-0.15-0.08-0.3-0.07-0.45c-0.02,0-0.04-0.01-0.05-0.01
		c0.01,0.02,0.01,0.05,0.01,0.07C88.54,62.06,88.51,62.12,88.46,62.16z"/>
	<path class="st1" d="M72.68,143.81c0.07-0.01,0.14-0.02,0.21-0.03c0-0.02,0-0.03,0-0.05c-0.01,0.01-0.02,0.02-0.03,0.03
		C72.8,143.78,72.74,143.8,72.68,143.81z"/>
	<path class="st1" d="M79.98,128.15c0-0.02,0.01-0.04,0.01-0.06c-0.04,0.01-0.08,0.02-0.12,0.03L79.98,128.15
		C79.97,128.15,79.97,128.15,79.98,128.15z"/>
	<g>
		<path class="st8" d="M138.75,122.92c-0.45-0.18-5.09-2.01-8.81-2.27c-0.02,0-2.23-0.13-4.72-0.13c-2.74,0-4.79,0.15-5.98,0.44
			v5.58h19.87c0.27-0.28,0.93-1.08,0.86-1.95C139.92,123.98,139.51,123.42,138.75,122.92z"/>
	</g>
	<path class="st11" d="M138.95,122.54c0,0-4.96-2.04-8.98-2.31c0,0-1.8-0.1-4.01-0.12c0.42-0.69,0.14-2.47-0.01-3.22
		c2.91-0.18,7.88-1.63,8.11-1.69c0.06-0.02,0.11-0.06,0.13-0.11c0.03-0.06,0.03-0.12,0-0.17c-0.08-0.19-0.19-0.42-0.32-0.71
		c-1.51-3.36-5.52-12.29-7.03-20.45c-0.15-0.78-0.31-1.91-0.48-3.23c0-0.02-0.01-0.05-0.01-0.07c-0.6-4.63-1.26-11.61-1.43-14.47
		c-0.24-3.89-3.46-10.15-6.44-13.95c-3.17-4.04-9.59-2.98-9.84-2.94c-7.11,0.52-14.74,7.38-16.36,8.91
		c-0.12,0.11-0.2,0.19-0.25,0.24c-0.04,0.04-0.06,0.06-0.07,0.07c-0.08,0.08-0.08,0.22,0,0.3c0.06,0.06,0.16,0.08,0.23,0.04
		c0.02-0.01,0.05-0.02,0.06-0.04c0.09-0.09,8.6-8.52,16.43-9.1c0.06-0.01,6.44-1.06,9.45,2.78c2.94,3.75,6.12,9.9,6.35,13.71
		c0.23,3.7,1.26,14.29,1.93,17.82c1.52,8.21,5.54,17.17,7.06,20.54c0.08,0.18,0.15,0.34,0.22,0.48c-1.11,0.31-5.88,1.63-8.29,1.63
		c-5.85-0.1-6.04,0.09-6.09,0.15l-0.41,0.32c-0.64,0.02-5.75,0.12-12.36-0.84c-1.48-0.21-2.55-1.52-2.44-2.97
		c0.3-3.98,1.16-15.12,4.69-23.81c1.29-1.94,1.61-3.4,1.62-3.45c0.02-0.1-0.04-0.2-0.14-0.24c-0.1-0.04-0.21,0.01-0.26,0.1
		c-0.59,1.07-1.12,2.22-1.61,3.41c-2.49,3.72-8.68,9.28-23.51,9.78c0.6-0.63,1.13-1.18,1.53-1.61c0,0,0,0,0,0
		c0.08-0.09,0.07-0.22-0.01-0.29c-0.09-0.08-0.22-0.08-0.3,0.01c0,0,0,0-0.01,0.01c-0.48,0.51-1.13,1.19-1.85,1.95
		c-0.07,0.05-4.64,3.3-7.66,5.44c-0.21,0.15-0.41,0.29-0.6,0.42c-1.07,0.76-1.86,1.31-2.01,1.4c-1.15,0.71-2.02,4.8-2.15,5.45
		c-0.15,0.22-0.98,1.4-1.46,1.9c-0.43-1-0.85-1.94-1.34-2.94c-0.01,1.12,0.43,2.24,1.19,3.07c-0.55,0.31-2.45,0.63-3.68,0.78
		l-0.61-0.83l-0.72-0.92c-0.82-1.21-0.81-1.93-0.79-2.63c0.01-0.34,0.01-0.69-0.08-1.06c-0.05-0.2-0.08-0.48,0.05-0.65
		c0.13-0.17,0.38-0.18,0.38-0.18c0.03,0,0.07-0.01,0.1-0.02l4.05-2.06c0.01-0.01,0.02-0.02,0.03-0.02c0.01-0.01,0.02-0.01,0.03-0.02
		l9.46-9.7c0,0,0,0,0-0.01c1.44-1.41,2.55-2.46,2.55-2.46c0.02-0.02,0.04-0.05,0.05-0.08c0.03-0.07,0.01-0.16-0.04-0.22
		c-0.02-0.02-0.05-0.04-0.08-0.05c-0.07-0.03-0.16-0.02-0.22,0.04c0,0-1.08,1.03-2.5,2.42c-6.83-0.15-9.29,8.76-9.55,9.77l-3.92,2
		c-0.13,0.01-0.45,0.07-0.65,0.33c-0.19,0.24-0.23,0.59-0.13,1.01c0.08,0.32,0.07,0.63,0.07,0.95c-0.01,0.73-0.03,1.56,0.88,2.89
		l0.72,0.92l0.68,0.93c0.04,0.05,0.1,0.09,0.17,0.09c0.01,0,0.02,0,0.02,0c0.48-0.06,2.51-0.31,3.58-0.69
		c0.2-0.07,0.36-0.15,0.48-0.23c0.02,0.01,0.03,0.03,0.05,0.04c-0.01-0.02-0.02-0.04-0.03-0.06c0.02-0.02,0.05-0.03,0.07-0.05
		c0.55-0.53,1.55-1.99,1.59-2.05c0.02-0.02,0.03-0.05,0.03-0.08c0.25-1.27,1.1-4.68,1.97-5.21c0.54-0.33,9.21-6.5,10.24-7.24
		c10.03-0.27,16.23-2.81,20.05-5.62c0.05-0.04,0.1-0.07,0.15-0.11c1.32-0.99,2.34-2,3.14-2.96c0.02-0.03,0.05-0.05,0.07-0.08
		c-0.01,0.03-0.02,0.06-0.03,0.09c-0.96,2.65-1.69,5.46-2.26,8.19c-0.06,0.31-0.12,0.61-0.18,0.92c-0.88,4.5-1.31,8.69-1.54,11.46
		c0,0.03,0,0.05-0.01,0.08c-0.06,0.69-0.1,1.28-0.14,1.77c-0.03,0.36,0.01,0.71,0.1,1.04c0.02,0.06,0.03,0.12,0.05,0.18
		c0.38,1.13,1.38,2.01,2.65,2.19c5.18,0.75,9.46,0.85,11.39,0.85c0.44,0,0.76-0.01,0.94-0.01l0.59,2.48l0.15,0.62c0,0-0.01,0-0.01,0
		c-0.27,0.05-0.51,0.11-0.73,0.17v6.32h20.47C139.29,126.96,142.01,124.52,138.95,122.54z M69.25,105.2
		c0.7-2.27,3.12-8.56,8.53-8.74L69.25,105.2l-0.01,0.02C69.24,105.21,69.24,105.2,69.25,105.2z M119.24,126.54v-5.58
		c1.19-0.29,3.24-0.44,5.98-0.44c2.5,0,4.7,0.13,4.72,0.13c3.72,0.25,8.36,2.08,8.81,2.27c0.76,0.5,1.17,1.06,1.22,1.67
		c0.07,0.87-0.59,1.67-0.86,1.95H119.24z M119.98,120.38l-0.75-3.14l0.34-0.26c0.33-0.11,3.25-0.12,5.85-0.07c0.03,0,0.07,0,0.11,0
		c0.23,1.14,0.37,2.74,0.03,3.04c-0.05,0.04-0.07,0.1-0.07,0.16c-0.09,0-0.17,0-0.26,0c-1.81,0-3.79,0.07-5.25,0.29
		C119.98,120.39,119.98,120.38,119.98,120.38z"/>
	<g>
		<path class="st8" d="M80.72,127.07c-1.32,3.99-2.21,14.18-2.22,14.28c-0.54,6.07,2.74,7.97,3.27,8.23c0.54,0,1.53-0.59,2.07-0.98
			c1.51-2.02,2.42-16.25,2.67-22.17l-5.32,0h-0.02l-0.01,0C81.05,126.47,80.83,126.79,80.72,127.07z"/>
	</g>
	<g>
		<path class="st4" d="M42.26,39.9c0.1-0.47,0.17-0.89,0.15-1.01c-0.02-0.12-0.4-2.65,0.69-4.2c0.05-0.07,0.15-0.11,0.23-0.08
			c0.09,0.03,0.15,0.1,0.15,0.2c0,0.03,0.12,3.2,0.57,4.64c0.73-0.49,3.04-1.89,5.15-1.53l-0.16-5.61c0-0.1,0.06-0.18,0.16-0.21
			c0.09-0.03,0.19,0.02,0.24,0.1c0.08,0.14,1.8,3.23,2.22,4.97c0.89-0.24,4.23-1.06,6.37-0.43c0-1.01-0.18-4.41-2.32-5.36
			c-0.09-0.04-0.14-0.13-0.12-0.22c0.01-0.09,0.08-0.17,0.18-0.18c0.15-0.02,3.61-0.45,6.8,10.26c0.14-0.85,0.29-2.16,0.07-3.06
			c-0.01-0.05-0.01-0.1,0.01-0.14c0.02-0.04,0.5-1.02,1.28-1.02c0.54-0.01,1.05,0.45,1.52,1.36c0.01,0.01,0.01,0.03,0.02,0.04
			c0.03,0.1,0.63,2.43-0.8,3.34c0.47,0.5,1.58,1.9,1.77,4.11c0.75-1.27,0.92-2.24,0.93-2.25c2.82-8.65-4.37-13.61-4.45-13.66
			c-0.07-0.04-0.1-0.12-0.09-0.2l0.09-0.91c0-0.05,0.03-0.09,0.06-0.13c6.58-6.75,0.7-13.22,0.45-13.49
			c-8.91-10.48-19.09-2.68-19.74-2.17c-6.02,7.54,2,14.36,2.34,14.65c0.06,0.05,0.09,0.12,0.07,0.2s-0.06,0.14-0.14,0.16
			c-0.05,0.02-5.12,1.93-5.26,7.79c0,0-0.01,0.64,0.19,1.51C41.61,37.97,42.1,38.87,42.26,39.9z M58.91,13.32
			c0.08-0.09,0.21-0.09,0.3-0.01c0.21,0.2,5.23,4.94,5.01,8.83c-0.07,1.18-0.61,2.16-1.62,2.92c-0.04,0.03-0.08,0.04-0.13,0.04
			c-0.06,0-0.13-0.03-0.17-0.08c-0.07-0.09-0.05-0.23,0.04-0.3c0.9-0.68,1.39-1.55,1.45-2.6c0.2-3.69-4.83-8.45-4.88-8.5
			C58.83,13.54,58.83,13.4,58.91,13.32z M46.98,29.79c0.12,0,0.21,0.1,0.21,0.22c0,0.12-0.11,0.21-0.22,0.21
			c-2.89-0.08-3.46,3.13-3.48,3.27c-0.02,0.1-0.11,0.18-0.21,0.18c-0.01,0-0.02,0-0.04,0c-0.12-0.02-0.19-0.13-0.17-0.24
			C43.07,33.38,43.72,29.7,46.98,29.79z"/>
	</g>
	<path class="st20" d="M22.49,78.84c0.23,0.22,0.49,0.43,0.78,0.62c0.23,0.08,2.11,0.7,3.93,0.84c0.02,0,0.05,0.01,0.07,0.02
		c0.15,0.07,3.78,1.69,5.94,3.46c0.06-0.19,0.17-0.44,0.35-0.63c0.04-0.04,0.08-0.08,0.13-0.11c-0.01-0.01-0.02-0.02-0.02-0.03
		c-0.07-0.28-0.08-0.63-0.08-1.04c-0.01-0.75-0.01-1.59-0.45-2.06c-0.08-0.09-0.07-0.22,0.01-0.3c0.09-0.08,0.22-0.07,0.3,0.01
		c0.54,0.59,0.55,1.56,0.56,2.34c0,0.37,0.01,0.72,0.07,0.94c0.01,0.03,0.01,0.06,0,0.09c0.46,0.06,1.57,0.04,1.7-1.66
		c0,0-0.05-0.07-0.06-0.16c-0.02-0.18,0.14-0.43,1.23-0.44c0.2,0,0.43,0,0.7,0.02c0,0,0.53-0.17,1.34-0.48c0,0,0,0,0,0
		c-0.04-0.11,0.01-0.23,0.12-0.27c0.02-0.01,0.04-0.02,0.06-0.02c-0.01-0.48,0.15-1.56,1.68-1.26c0,0,0.4-1.66,2.7-0.77
		c0.05-0.03,0.1-0.05,0.15-0.08c0.1-0.06,0.23-0.02,0.29,0.08c0.54-0.32,1.07-0.65,1.56-1c0,0,0.9-0.63,2.06-1.54
		c0.78-0.61,1.69-1.34,2.52-2.09c0.83-0.74,1.59-1.49,2.09-2.15c0.19-0.25,0.35-0.49,0.46-0.71c0,0-0.34-0.52,0-0.63
		c0,0,0.29-0.07,0.47-0.43c0,0,0.07-1.06-0.39-1.13c0,0-0.39-2.38,0.09-2.92c0,0,0.55-0.82,1-0.73c0,0,1.45-0.52,2.06,0.16
		c0,0,0.34,1.06,0,1.54c0,0-0.5,0.25-0.28,0.47c0,0,1.48-0.32,1.97,0.23c0,0,0.43,0.72,0.25,1.5c0,0-0.52,0.34-0.47,0.63
		c0,0,0.93,0.34,0.75,0.77c0,0-0.11,1.13-1.59,1.59l-2.06-0.03c0,0-1.22-0.63-1.81-1.02c0,0-0.05,0.34-0.08,0.8
		c-0.05,0.68-0.09,1.62,0.08,2.07c0,0,0.45,1.6,1.37,2.65c0,0,0.59,0.85,1.37,2.12c0.23,0.37,0.48,0.79,0.73,1.22
		c0.03-0.02,0.07-0.03,0.1-0.03c0,0,0,0,0,0c0.02-0.82,0.15-3.65,1.34-3.28c0,0,1.52,0.23,0.57,2.1c0,0,2.29-1.83,2.17,0.51
		c-0.11,2.34,0,1.47,0,1.47s0.81-0.09,0.54,0.57c-0.27,0.66-0.57,1-0.57,1s-0.91,0.56-2.59,0.2c-0.01,0.06-0.05,0.11-0.11,0.14
		c0,0,0,0,0,0c0.14,0.28,0.28,0.56,0.41,0.84c0.04-0.03,0.08-0.05,0.14-0.05c3.38-0.01,7.02-1.11,7.06-1.12
		c1.75-0.72,6.1-1.56,6.28-1.59c2.36-0.31,6.49-2.06,6.53-2.07c0.33-0.14,0.64-0.15,0.91-0.03c0.21,0.09,0.36,0.25,0.46,0.4
		c0.1-1.83,0.2-4.23,0.15-5.74c0,0-0.01,0-0.01,0c-0.06,0-0.11-0.02-0.15-0.06c-0.65-0.67-2.21-2.43-2.62-4.25
		c-0.03-0.11,0.05-0.23,0.16-0.25c0.11-0.03,0.23,0.05,0.25,0.16c0.38,1.72,1.88,3.4,2.51,4.05c0.08,0.08,0.08,0.22,0,0.3
		c0.04,0.04,0.06,0.05,0.06,0.05c1.61,0.8,2.69,2.14,3.34,3.16c0.09-0.06,0.21-0.04,0.28,0.05c0.07,0.09,0.05,0.23-0.04,0.3
		l-0.02,0.01c0.37,0.64,0.54,1.1,0.54,1.1c0.61,1.59-0.2,2.36-0.2,2.36c-0.2,0.73,0,1.49,0.12,1.84c0,0,0,0,0.01,0
		c0.73-0.25,1.86-0.38,3.06,0.38c0.1,0.06,0.13,0.19,0.06,0.29c-0.04,0.06-0.11,0.1-0.18,0.1c-0.04,0-0.08-0.01-0.11-0.03
		c-1.05-0.67-2.03-0.56-2.68-0.34c0,0-0.01,0-0.01,0c0,0,0,0-0.01,0c0,0-0.01,0-0.01,0c-0.02,0.01-0.04,0.01-0.06,0.01
		c0,0-0.01,0-0.01,0c0,0,0,0-0.01,0c-0.05-0.01-0.1-0.03-0.14-0.07c0,0,0,0,0,0c-0.02-0.02-0.03-0.04-0.04-0.06
		c-0.34,0.14-0.54,0.28-0.54,0.28c-1.19,1.63-0.25,3.02,0.13,3.48c0,0,0.01-0.01,0.01-0.01c1.54-1.2,6.95,2.9,7.56,3.37
		c0.09,0.07,0.11,0.2,0.04,0.3c-0.04,0.05-0.1,0.08-0.17,0.08c-0.05,0-0.09-0.01-0.13-0.04c-2.21-1.7-6.08-4.12-7.04-3.37
		c-0.08,0.06-0.18,0.05-0.26,0c-0.85,1.1-0.44,2.23,0.17,3.07c0.04-0.03,0.07-0.05,0.11-0.07c0.11-0.04,0.23,0.01,0.27,0.12
		c0.01,0.04,0.01,0.07,0.01,0.11c0.5,0.6,1.05,1,1.05,1.01c0.09,0.07,0.12,0.2,0.05,0.3c-0.04,0.06-0.11,0.09-0.17,0.09
		c-0.04,0-0.09-0.01-0.12-0.04c-0.03-0.02-0.67-0.49-1.24-1.21c0,0,0,0,0-0.01c-0.21,0.16-0.42,0.41-0.63,0.71
		c0.08,0.05,0.1,0.15,0.08,0.24c0.45,0.17,1.43,0.69,0.36,1.81l-0.34,0.36c0,0,1.1-0.51,0.82,0.85c0,0-0.69,1.19-1.79,0.2
		c0,0-0.23-0.26-0.38-0.82c-0.02,0-0.03,0.02-0.05,0.02c-0.03,0-0.06-0.01-0.08-0.02c-0.2,0.46-0.35,0.83-0.44,1.05
		c0.03,0.01,0.05,0.03,0.08,0.05c0.06,0.06,0.07,0.15,0.04,0.22c1.92,0.66,3.84,2.11,5.09,3.19c0,0,0,0,0.01-0.01
		c0.08-0.09,0.21-0.09,0.3-0.01c0.08,0.08,0.09,0.21,0.01,0.29c0.68,0.61,1.11,1.05,1.11,1.05c0.54,0.45,1.32,0,1.32,0
		c0.77-0.51,1.16-1.85,1.28-2.37c-0.01,0-0.02,0-0.03-0.01c-1.16-0.27-1.96-0.71-2.38-1.31c-0.07-0.1-0.04-0.23,0.05-0.29
		c0.1-0.07,0.23-0.04,0.29,0.05c0.36,0.51,1.1,0.91,2.15,1.15c0.01,0,0.01,0.01,0.02,0.01c0.01,0,0.02,0.01,0.03,0.01
		c0.01,0.01,0.03,0.02,0.04,0.03c0.01,0.01,0.02,0.01,0.02,0.02c0.01,0.01,0.02,0.03,0.03,0.04c0,0.01,0.01,0.01,0.01,0.02
		c0.01,0.02,0.02,0.05,0.02,0.08c0,0.02-0.01,0.03-0.01,0.05c1.45,0.3,2.91,0.26,2.91,0.26c0.41-0.36,0.99-2.04,0.99-2.04
		c1.09-1.18,2.36-3.63,2.36-3.63l0.15-2.42l0.03-0.58c0.21-0.34,0.3-0.84,0.32-1.38c-0.02,0.01-0.04,0.02-0.07,0.02
		c-0.02,0-0.04,0-0.06-0.01c-0.11-0.03-0.17-0.15-0.14-0.26c0.03-0.1,0.04-0.22,0.05-0.36c-0.4,0.54-0.93,0.63-1.23,0.63
		c-0.1,0-0.17-0.01-0.21-0.02c-0.19,0-1.42,0-1.83-0.71c-0.22-0.37-0.16-0.85,0.16-1.43c-0.34-0.29-1.03-0.97-0.82-1.52
		c0.17-0.43,0.78-0.6,1.92-0.54c0.13-0.23,0.35-0.49,0.63-0.57c-0.13-0.2-0.26-0.38-0.38-0.53c-0.22-0.25-0.35-0.3-0.39-0.29
		c-0.12,0.02-0.22-0.06-0.24-0.18c-0.02-0.12,0.06-0.22,0.18-0.24c0.24-0.04,0.49,0.1,0.78,0.43l0,0c-0.53-1.51-0.84-2.93-0.84-2.93
		c0.24-2.44-2-7.81-2.46-8.88c-0.08,0.03-0.17,0.02-0.23-0.04c-0.08-0.08-0.08-0.22,0-0.3c0,0,0.03-0.03,0.07-0.07
		c-0.04-0.11-0.08-0.21-0.12-0.31c-0.66-1.69-1.5-3.2-2.47-4.54c-0.12-0.16-0.24-0.32-0.37-0.48c-0.14-0.18-0.28-0.36-0.43-0.54
		c-0.06-0.07-0.12-0.15-0.19-0.22c-0.04,0.03-0.08,0.05-0.13,0.05c-0.01,0-0.02,0-0.03-0.01c-0.1,0.44-0.5,1.35-2.01,0.7
		c0,0-3.01-1.28-0.18-2.86c-0.04-0.08-0.04-0.17,0.02-0.24c-0.98-0.86-2.03-1.62-3.1-2.29c-0.16-0.1-0.31-0.19-0.47-0.28
		c-0.49-0.29-0.99-0.57-1.5-0.83c-0.44-0.23-0.88-0.44-1.32-0.64c0,0,0,0.01,0,0.01c0,0-0.01,0.01-0.01,0.01
		c0.49,0.33,1.13,1.07,0.43,2.45c-1.04,2.06-2.13,0.25-2.13,0.25c-0.11,1.88-2.01,1.11-2.01,1.11c-0.95-0.45-0.48-2.54-0.48-2.54
		c-2.06,0.61-1.36-1.86-1.36-1.86c0.49-0.58,0.91-0.82,1.22-0.9c0.07-0.02,0.14-0.03,0.2-0.04c0-0.02,0.01-0.04,0.01-0.06
		c-0.63-0.2-1.26-0.37-1.88-0.53c-0.06-0.01-0.11-0.03-0.17-0.04c-2.72-0.68-5.18-1-6.95-1.15c-0.01,0.11-0.1,0.19-0.21,0.19
		c-0.01,0-0.01,0-0.02,0c-0.03,0-0.06,0-0.09-0.01c-0.38,0.71-1.81,3.1-4.18,3.65c0,0-1.67,0.17-3.16,0c0,0-0.83-0.54-1.68-1.02
		c-0.01,0.01-0.01,0.01-0.02,0.02c-0.04,0.03-0.09,0.05-0.14,0.05c-0.06,0-0.12-0.03-0.16-0.07c-0.05-0.05-0.06-0.13-0.04-0.19
		c-0.01-0.01-0.02-0.01-0.03-0.02c-0.01,0.02-0.02,0.04-0.03,0.05c-0.01,0.01-0.01,0.01-0.02,0.01c0.47,0.75-0.47,2.1-0.47,2.1
		c0.88,0.21,0.14,1.98,0.14,1.98c-1.32,1-2.31,0.11-2.31,0.11c-1.43,1.13-1.61-0.68-1.61-0.68c-1.52,0.82-2.29-0.57-2.29-0.57
		c-0.37-1.22,1.3-2.7,1.92-3.19c0,0-0.01-0.01-0.01-0.01c0,0,0,0,0,0c-0.01-0.02-0.01-0.03-0.02-0.05c0-0.01-0.01-0.01-0.01-0.02
		c-0.29,0.06-0.58,0.14-0.87,0.23c-0.15,0.05-0.3,0.1-0.46,0.16c-0.31,0.12-0.62,0.25-0.92,0.41c-0.47,0.25-1.55,0.84-3.02,1.67
		c-0.47,0.27-0.98,0.56-1.53,0.87c-0.71,0.41-1.47,0.86-2.27,1.34c-0.45,0.27-0.91,0.55-1.38,0.83c0.04,0.06,0.04,0.14,0.01,0.2
		c0.31,0.17,0.85,0.57,0.4,1.18c-0.41,0.57-0.87,0.34-1.11,0.16c0,0,0,0.01-0.01,0.01c-0.01,0.01-0.03,0.02-0.05,0.03
		c0.2,0.41,0.45,1.35-1.17,1.71c-1.65,0.36-1.53-0.61-1.4-1.05c-0.04-0.01-0.08-0.04-0.11-0.08c-0.53,0.35-1.07,0.7-1.61,1.06
		c-0.47,0.31-0.93,0.63-1.4,0.95c-1.62,1.11-3.21,2.27-4.7,3.45c0.02,0.03,0.03,0.06,0.04,0.09c0.68-0.11,2.85-0.38,2.72,0.96
		c0,0-0.11,1.68-1.23,2.11c0,0,2.01,1.07,1.23,1.9c-0.78,0.84-1.75,1.82-3.61,0.63c0,0-0.39,1.72-2.02,1.79
		c-1.36,0.06-2.33-1.59-2.62-2.15c-0.03,0.02-0.06,0.02-0.09,0.02c-0.05,0-0.1-0.02-0.13-0.05c-0.03,0.04-0.06,0.07-0.09,0.11
		c0,0-0.09,0.17-0.25,0.44c-0.46,0.77-1.5,2.31-2.56,2.67c0,0-0.98,1.01,0.27,2.36c0.02-0.02,0.05-0.04,0.07-0.05
		C22.35,78.77,22.43,78.79,22.49,78.84z M86.29,72.06c-0.17-0.52-0.45-1.66,0.07-2.03c0.4-0.29,1.07-0.04,2.11,0.78
		c0.43-0.13,1.81-0.49,2.38,0.21c0.44,0.54,0.26,1.48-0.54,2.89c0.16,0.23,0.45,0.73,0.36,1.3c-0.07,0.46-0.37,0.85-0.89,1.16
		c-0.02,0.01-0.05,0.02-0.08,0.03c-0.17,0.03-0.38,0.04-0.6,0.04c-0.82,0-1.84-0.24-2.17-1.12c-0.43,0.17-1.11,0.06-1.66-0.16
		c-0.85-0.33-1.34-0.86-1.32-1.4C83.99,73.09,84.77,72.52,86.29,72.06z M76.18,66.73c0.13,0.6-0.07,1.51-1.71,2.44
		c0.06,0.44,0.06,1.63-1.41,2.26c-0.03,0.01-0.05,0.02-0.08,0.02c-0.01,0-0.02,0-0.02,0c-0.08-0.01-1.82-0.23-2.7-2.17
		c-0.43,0.02-1.59,0.03-2.08-0.56c-0.23-0.28-0.29-0.63-0.17-1.05c0.01-0.18,0.1-1.17,0.76-1.7c0.2-0.16,0.44-0.26,0.7-0.3
		c-0.36-0.38-0.48-0.87-0.35-1.42c0.28-1.11,1.51-2.05,2.62-2c0.65,0.03,1.78,0.41,2.19,2.64C74.8,65.03,75.97,65.74,76.18,66.73z
		 M42.5,69.91c-0.12-0.12-0.26-0.31-0.3-0.56c-0.05-0.31,0.05-0.63,0.31-0.94c0.03-0.03,0.44-0.44,1-0.36
		c0.32,0.04,0.62,0.24,0.88,0.57c0.15-0.35,0.43-0.83,0.87-1.08c0.31-0.18,0.65-0.22,1.02-0.12c0.76,0.21,1.23,0.58,1.34,1.06
		c0.11,0.48-0.13,1-0.7,1.55c0.4,0.39,1.36,1.41,1.35,2.34c-0.01,0.37-0.17,0.69-0.47,0.94c-0.08,0.1-0.45,0.5-0.99,0.54
		c-0.02,0-0.05,0-0.07,0c-0.37,0-0.73-0.18-1.08-0.52c-0.1-0.07-0.54-0.38-0.81-0.78c-0.19,0.21-0.51,0.48-0.96,0.58
		c-0.51,0.12-1.04-0.01-1.59-0.37c-0.45-0.3-0.69-0.67-0.71-1.1C41.54,70.93,42.17,70.23,42.5,69.91z"/>
	<path class="st20" d="M79.21,78.95c0,0-0.01-0.01-0.01-0.01c-0.01-0.02-0.02-0.04-0.03-0.05c0,0,0-0.01-0.01-0.01
		c0,0,0-0.01,0-0.01c0,0,0,0,0,0c-0.02-0.06-0.14-0.36-0.4-0.48c-0.16-0.07-0.35-0.06-0.57,0.03c-0.17,0.07-4.22,1.78-6.63,2.1
		c-0.03,0.01-4.48,0.87-6.21,1.57c-0.06,0.02-3.74,1.12-7.17,1.14c0.02,0.05,0.04,0.1,0.06,0.14c0.02,0.06,0.05,0.11,0.08,0.17
		c0,0,0,0.01,0,0.04c0.02,0.16,0.13,0.89,0.4,2.14c0.06-0.01,0.12,0,0.17,0.04c0.05,0.04,0.07,0.09,0.08,0.15
		c0.94-0.09,5-0.54,9.83-1.69c0,0,5.48-1.36,7.16-1.54c0,0,2.54-0.86,3.26-1.72c0,0,0.05-0.79,0.12-1.92
		C79.31,79.02,79.26,78.99,79.21,78.95C79.22,78.95,79.21,78.95,79.21,78.95z"/>
	<g>
		<g>
			<path class="st12" d="M42.81,90.42c-0.21-0.05-0.41-0.1-0.62-0.16c-0.18-0.05-0.35-0.11-0.52-0.16c0.11-0.14,0.49-0.56,1.28-0.98
				c0.99-0.53,2.8-1.16,5.88-1.16c0.56,0,1.16,0.02,1.81,0.07l0.17,0c0.63,0,3.72,0.1,4.91,1.9l-0.76,0.2l-0.3,0.07
				c-1.34-1.05-2.68-1.59-4-1.59c-1.02,0.01-1.7,0.37-2.3,0.7c-0.54,0.29-1.02,0.55-1.68,0.55c-0.12,0-0.24-0.01-0.37-0.03
				c-0.26-0.03-0.51-0.1-0.76-0.16c-0.37-0.09-0.73-0.18-1.1-0.18c-0.36,0-0.67,0.09-0.96,0.26C43.22,89.9,43,90.13,42.81,90.42z
				 M41.57,90.27C41.57,90.27,41.57,90.27,41.57,90.27z"/>
			<path class="st11" d="M48.84,88.2c0.57,0,1.17,0.02,1.79,0.07l0.03,0l0.03,0l0.13,0c0.57,0,3.25,0.08,4.49,1.51l-0.25,0.06
				l-0.15,0.04l-0.18,0.04c-1.35-1.04-2.72-1.57-4.1-1.57c-1.05,0.01-1.75,0.39-2.38,0.73c-0.51,0.28-0.96,0.52-1.56,0.52
				c-0.11,0-0.22-0.01-0.34-0.02c-0.24-0.03-0.49-0.09-0.74-0.16c-0.37-0.09-0.76-0.19-1.15-0.19c-0.4,0-0.76,0.1-1.09,0.3
				c-0.25,0.15-0.48,0.36-0.66,0.61c-0.15-0.04-0.3-0.08-0.44-0.12c-0.04-0.01-0.08-0.03-0.13-0.04c0.19-0.18,0.5-0.41,0.94-0.65
				C44.04,88.82,45.81,88.2,48.84,88.2 M48.84,87.7c-3.08,0-4.94,0.62-6,1.19c-1.05,0.56-1.41,1.11-1.41,1.12
				c-0.02,0.03-0.04,0.05-0.07,0.07c-0.01,0.02-0.02,0.06-0.04,0.16c0.26,0.09,0.53,0.18,0.8,0.26c0,0,0,0,0.01,0
				c0.27,0.08,0.54,0.15,0.81,0.21c0.17-0.33,0.4-0.59,0.69-0.76c0.28-0.17,0.55-0.23,0.83-0.23c0.34,0,0.68,0.09,1.03,0.17
				c0.26,0.06,0.52,0.13,0.79,0.17c0.14,0.02,0.28,0.03,0.4,0.03c0.73,0,1.25-0.28,1.8-0.58c0.6-0.33,1.22-0.66,2.14-0.67
				c0.01,0,0.02,0,0.03,0c1.29,0,2.62,0.54,3.94,1.61c0.04-0.01,0.07-0.02,0.11-0.03c0.11-0.02,0.21-0.05,0.31-0.07
				c0.05-0.01,0.1-0.02,0.15-0.04c0.09-0.02,0.18-0.04,0.26-0.07c0.04-0.01,0.08-0.02,0.11-0.03c0.11-0.03,0.21-0.06,0.3-0.08
				c0.02,0,0.03-0.01,0.04-0.01c0.07-0.02,0.14-0.04,0.19-0.05c0.01,0,0.01,0,0.02-0.01c-1.1-2.18-4.53-2.3-5.29-2.3
				c-0.09,0-0.14,0-0.15,0C50.01,87.72,49.4,87.7,48.84,87.7L48.84,87.7z"/>
		</g>
		<g>
			<path class="st12" d="M46.5,104.3c-1.61,0-2.93-0.04-3.92-0.12l-0.05,0c0.15-0.95,0.39-2.75,0.17-3.98l-0.99-7.8
				c-0.02-0.15-0.1-0.75-0.14-1.32l0.24,0.06l1.12,0.26l0.12,0.02c0.3,0.07,0.65,0.14,1.01,0.2l0.3,0.05
				c0.31,0.05,0.63,0.09,0.94,0.12l0.17,0.02c0.36,0.04,0.72,0.06,1.08,0.08l0.21,0.01c0.35,0.01,0.64,0.02,0.93,0.02l0.16,0
				c0.4,0,0.71-0.01,1.01-0.02l0.12-0.01c0.27-0.01,0.53-0.03,0.79-0.04c0,0,0.7-0.06,0.9-0.08l0.28-0.03
				c0.22-0.02,0.82-0.1,0.82-0.1c0.26-0.04,0.52-0.07,0.77-0.11l0.95-0.16l0.56-0.11c0.28-0.06,0.47-0.1,0.64-0.14l0.94-0.21
				l-0.01-0.01c0.18-0.05,0.34-0.09,0.47-0.13c0.08,1.21,0.35,6.57,0.2,7.71c-0.01,0.08-0.32,2.12,0.22,3.88
				c0.14,0.53,0.23,1.25,0.15,1.6C55.34,104.05,50.59,104.3,46.5,104.3z M52.83,102.84c-0.16,0-0.3,0.08-0.39,0.21
				c-0.14,0.21-0.08,0.5,0.13,0.64c0.19,0.13,0.5,0.18,0.97,0.18c0.75,0,1.68-0.16,1.95-0.21c0.16-0.03,0.3-0.15,0.35-0.3
				c0.17-0.49,0.15-1.94,0.09-3.92c-0.02-0.63-0.03-1.18-0.02-1.47c0.02-0.98,0.06-4.63,0.06-4.63l0-0.25l-0.92-0.01l0,0.25
				c0,0-0.04,3.65-0.06,4.62c-0.01,0.3,0.01,0.85,0.02,1.48c0.03,1.12,0.07,2.7,0,3.39c-0.57,0.09-1.14,0.14-1.53,0.14
				c-0.33,0-0.41-0.04-0.42-0.04C53.01,102.86,52.92,102.84,52.83,102.84z"/>
			<path class="st11" d="M55.83,91.12c0.03,0.51,0.06,1.1,0.08,1.71l-0.17,0l-0.42,0l-0.5-0.01l-0.01,0.5c0,0-0.04,3.64-0.06,4.62
				c-0.01,0.32,0.01,0.88,0.03,1.54c0.02,0.92,0.06,2.36,0.02,3.12c-0.49,0.07-0.96,0.11-1.29,0.11c-0.19,0-0.28-0.01-0.32-0.02
				c-0.11-0.06-0.23-0.09-0.35-0.09c-0.24,0-0.46,0.12-0.6,0.32c-0.21,0.33-0.12,0.77,0.21,0.98c0.01,0.01,0.03,0.02,0.04,0.03
				c-1.83,0.07-3.99,0.13-5.99,0.13c-1.48,0-2.72-0.03-3.68-0.1c0.15-1.01,0.33-2.64,0.13-3.77l-1-7.82c0-0.01-0.07-0.45-0.11-0.95
				l0.96,0.22c0.06,0.02,0.12,0.03,0.18,0.04c0.34,0.08,0.68,0.14,1.03,0.2l0.3,0.05c0.32,0.05,0.64,0.09,0.95,0.12l0.06,0.01
				l0.1,0.01c0.37,0.04,0.73,0.06,1.09,0.08l0.18,0.01l0.09,0c0.29,0.01,0.58,0.02,0.87,0.02l0.06,0l0.1,0l0.08,0
				c0.32,0,0.63-0.01,0.94-0.02l0.07,0l0.05,0c0.27-0.01,0.54-0.03,0.8-0.04L50,92.09l0.05,0c0.21-0.02,0.41-0.03,0.62-0.05
				l0.08-0.01l0.2-0.02c0.22-0.02,0.44-0.05,0.66-0.08l0.07-0.01l0.1-0.01c0.27-0.04,0.52-0.07,0.77-0.11l0.11-0.02l0.08-0.01
				c0.18-0.03,0.36-0.06,0.54-0.09l0.23-0.04c0.16-0.03,0.31-0.06,0.51-0.1l0.14-0.03c0.2-0.04,0.39-0.08,0.57-0.12l0.43-0.1
				L55.83,91.12 M56.22,102.42c0,0,0,0.01,0,0.01c0.13,0.49,0.19,1,0.17,1.31c-0.15,0.01-0.33,0.02-0.54,0.03
				c0.1-0.08,0.19-0.2,0.23-0.33C56.16,103.23,56.2,102.9,56.22,102.42 M56.27,90.46c-0.23,0.07-0.66,0.19-1.24,0.33l0,0l-0.43,0.1
				c0,0,0,0,0,0c-0.17,0.04-0.36,0.08-0.56,0.12c-0.06,0.01-0.12,0.02-0.18,0.04c-0.15,0.03-0.3,0.06-0.45,0.09
				c-0.07,0.01-0.15,0.03-0.22,0.04c-0.17,0.03-0.35,0.06-0.53,0.09c-0.06,0.01-0.12,0.02-0.19,0.03c-0.25,0.04-0.5,0.08-0.76,0.11
				c-0.05,0.01-0.11,0.01-0.16,0.02c-0.21,0.03-0.43,0.05-0.65,0.08c-0.09,0.01-0.18,0.02-0.27,0.03c-0.2,0.02-0.4,0.04-0.61,0.05
				c-0.09,0.01-0.19,0.02-0.28,0.02c-0.26,0.02-0.52,0.03-0.78,0.04c-0.04,0-0.08,0-0.12,0.01c-0.3,0.01-0.61,0.02-0.92,0.02
				c-0.03,0-0.05,0-0.08,0c-0.05,0-0.1,0-0.15,0c-0.28,0-0.57-0.01-0.86-0.02c-0.09,0-0.18-0.01-0.27-0.01
				c-0.35-0.02-0.71-0.04-1.07-0.08c-0.05-0.01-0.11-0.01-0.16-0.02c-0.31-0.03-0.62-0.07-0.93-0.12c-0.1-0.01-0.19-0.03-0.29-0.05
				c-0.35-0.06-0.7-0.12-1.04-0.2c0,0,0,0,0,0c-0.03,0-0.06-0.01-0.09-0.02l-1.09-0.25l0.1-0.01c-0.22-0.07-0.44-0.13-0.66-0.2
				c0.01,0.73,0.15,1.74,0.16,1.75l1,7.81c0.23,1.34-0.1,3.46-0.22,4.16c0.1,0.01,0.21,0.02,0.32,0.03c0,0,0,0,0,0c0,0,0,0,0,0
				c0,0,0,0,0,0c1.09,0.09,2.47,0.12,3.94,0.12c4.35,0,9.5-0.29,10.3-0.34c0.2-0.39,0.06-1.36-0.09-1.92
				c-0.52-1.69-0.22-3.69-0.21-3.77c0.16-1.26-0.18-7.52-0.2-7.97C56.29,90.52,56.28,90.49,56.27,90.46L56.27,90.46z M53.5,103.2
				c0.47,0,1.14-0.07,1.75-0.17c0.11-0.59,0.06-2.36,0.03-3.57c-0.02-0.64-0.03-1.2-0.03-1.51c0.02-0.97,0.06-4.62,0.06-4.62l0.42,0
				c0,0-0.04,3.65-0.06,4.63c-0.01,0.3,0.01,0.85,0.02,1.49c0.05,1.9,0.08,3.38-0.08,3.84c-0.02,0.07-0.09,0.13-0.16,0.14
				c-0.25,0.05-1.18,0.2-1.91,0.2c-0.36,0-0.67-0.04-0.83-0.14c-0.1-0.06-0.13-0.19-0.06-0.29c0.04-0.06,0.11-0.1,0.18-0.1
				c0.04,0,0.08,0.01,0.12,0.03C53.03,103.17,53.23,103.2,53.5,103.2L53.5,103.2z"/>
		</g>
	</g>
	<path class="st11" d="M43.05,91.17c0.35,0.08,0.7,0.14,1.04,0.2C43.74,91.32,43.4,91.25,43.05,91.17
		C43.05,91.17,43.05,91.17,43.05,91.17z"/>
	<path class="st11" d="M52.46,91.3c-0.25,0.04-0.5,0.08-0.76,0.11C51.97,91.37,52.22,91.34,52.46,91.3z"/>
	<path class="st11" d="M51.54,91.43c-0.21,0.03-0.43,0.05-0.65,0.08C51.11,91.48,51.33,91.46,51.54,91.43z"/>
	<path class="st11" d="M49.73,91.61c-0.26,0.02-0.52,0.03-0.78,0.04C49.21,91.64,49.47,91.63,49.73,91.61z"/>
	<path class="st11" d="M50.62,91.53c-0.2,0.02-0.4,0.04-0.61,0.05C50.22,91.57,50.42,91.55,50.62,91.53z"/>
	<path class="st11" d="M54.6,90.89c-0.17,0.04-0.36,0.08-0.56,0.12C54.24,90.97,54.43,90.93,54.6,90.89z"/>
	<path class="st11" d="M53.18,91.18c-0.17,0.03-0.35,0.06-0.53,0.09C52.83,91.24,53.01,91.21,53.18,91.18z"/>
	<path class="st11" d="M53.86,91.05c-0.15,0.03-0.3,0.06-0.45,0.09C53.56,91.11,53.71,91.08,53.86,91.05z"/>
	<path class="st11" d="M47.67,91.67c-0.28,0-0.57-0.01-0.86-0.02C47.1,91.66,47.39,91.67,47.67,91.67z"/>
	<path class="st11" d="M46.54,91.64c-0.35-0.02-0.71-0.04-1.07-0.08C45.83,91.6,46.19,91.62,46.54,91.64z"/>
	<path class="st11" d="M45.31,91.54c-0.31-0.03-0.62-0.07-0.93-0.12C44.69,91.47,45,91.51,45.31,91.54z"/>
	<path class="st11" d="M48.83,91.66c-0.3,0.01-0.61,0.02-0.92,0.02C48.22,91.67,48.52,91.67,48.83,91.66z"/>
	<path class="st1" d="M89.94,17.97c-0.63-0.01-1.25-0.02-1.88-0.02c0.14,0.32,0.27,0.64,0.37,0.97
		C88.83,18.67,89.41,18.28,89.94,17.97z"/>
	<path class="st1" d="M43.24,33.66c0.01,0,0.02,0,0.04,0c0.1,0,0.19-0.07,0.21-0.18c0.02-0.14,0.6-3.35,3.48-3.27
		c0.11,0,0.21-0.09,0.22-0.21c0-0.12-0.09-0.21-0.21-0.22c-3.26-0.1-3.91,3.58-3.91,3.62C43.05,33.53,43.12,33.64,43.24,33.66z"/>
	<path class="st11" d="M96.25,95.03c0.01,0.11,0.1,0.19,0.21,0.19c0.01,0,0.02,0,0.02,0c0.05-0.01,5.31-0.63,8.19-5.64
		c0.06-0.1,0.02-0.23-0.08-0.29c-0.1-0.06-0.23-0.02-0.29,0.08c-2.77,4.82-7.81,5.42-7.86,5.43C96.32,94.81,96.24,94.92,96.25,95.03
		z"/>
	<path class="st11" d="M66.72,104.98c0.01,0,0.03,0,0.04,0c0.11-0.02,0.19-0.13,0.17-0.25c-0.56-2.75,2.23-5.4,2.26-5.42
		c0.09-0.08,0.09-0.21,0.01-0.3c-0.08-0.09-0.21-0.09-0.3-0.01c-0.12,0.11-2.99,2.83-2.39,5.82
		C66.53,104.91,66.62,104.98,66.72,104.98z"/>
	<path class="st11" d="M66.25,138.56c-0.09,0.02-8.74,2.37-13.72-1.03c-0.1-0.07-0.23-0.04-0.29,0.06c-0.07,0.1-0.04,0.23,0.06,0.29
		c2.19,1.5,5.01,1.93,7.54,1.93c3.41,0,6.32-0.79,6.53-0.85c0.11-0.03,0.18-0.15,0.15-0.26C66.48,138.6,66.37,138.53,66.25,138.56z"
		/>
	<path class="st11" d="M109.25,96.97c-0.11-0.03-0.23,0.04-0.26,0.15c-0.02,0.08-1.88,7.62-1.18,13.55c0.01,0.11,0.1,0.19,0.21,0.19
		c0.01,0,0.02,0,0.03,0c0.12-0.01,0.2-0.12,0.19-0.23c-0.69-5.85,1.15-13.32,1.17-13.4C109.43,97.11,109.36,97,109.25,96.97z"/>
	<path class="st11" d="M86.13,59.8c-0.06,0.07-0.06,0.16-0.02,0.24c0.01,0.02,0.02,0.04,0.04,0.06c0.72,0.64,1.4,1.32,2,2.02
		c0,0.01,0.01,0.01,0.01,0.01c0.01,0.02,0.03,0.03,0.05,0.05c0.01,0.01,0.01,0.01,0.02,0.02c0.02,0.01,0.04,0.01,0.06,0.02
		c0.01,0,0.02,0.01,0.03,0.01c0.05,0,0.1-0.02,0.13-0.05c0.05-0.04,0.08-0.1,0.08-0.16c0-0.03,0-0.05-0.01-0.07c0,0,0,0,0,0
		c0-0.01-0.01-0.02-0.02-0.03c-0.01-0.01-0.01-0.02-0.02-0.03c-0.62-0.72-1.31-1.42-2.06-2.08c-0.08-0.07-0.2-0.07-0.28,0.01
		C86.14,59.79,86.14,59.79,86.13,59.8C86.13,59.8,86.13,59.8,86.13,59.8z"/>
	<path class="st11" d="M81.48,92.53c0.06-0.02,0.11-0.05,0.14-0.11c0.28-0.63,0.71-1.53,1.17-2.23c0.01-0.02,0.02-0.03,0.02-0.05
		c0.03-0.09,0-0.18-0.08-0.24c0,0,0,0-0.01-0.01c-0.1-0.06-0.23-0.04-0.29,0.06c-0.48,0.73-0.92,1.65-1.21,2.29
		c-0.05,0.11,0,0.23,0.11,0.28c0,0,0,0,0,0c0.03,0.01,0.06,0.02,0.08,0.02C81.44,92.55,81.46,92.54,81.48,92.53z"/>
	<path class="st11" d="M90.38,95.83c0-0.02,0.01-0.03,0.01-0.05c0-0.03-0.01-0.05-0.02-0.08c0-0.01-0.01-0.01-0.01-0.02
		c-0.01-0.01-0.02-0.03-0.03-0.04c-0.01-0.01-0.01-0.01-0.02-0.02c-0.01-0.01-0.02-0.02-0.04-0.03c-0.01,0-0.02-0.01-0.03-0.01
		c-0.01,0-0.01-0.01-0.02-0.01c-1.05-0.24-1.8-0.64-2.15-1.15c-0.07-0.1-0.2-0.12-0.29-0.05c-0.1,0.07-0.12,0.2-0.05,0.29
		c0.42,0.6,1.22,1.04,2.38,1.31c0.01,0,0.02,0,0.03,0.01c0.01,0,0.03,0.01,0.04,0.01C90.28,96,90.36,95.93,90.38,95.83z"/>
	<path class="st11" d="M84.6,90.41c0.04,0.03,0.08,0.04,0.12,0.04c0.07,0,0.13-0.03,0.17-0.09c0.07-0.09,0.05-0.23-0.05-0.3
		c-0.01,0-0.55-0.4-1.05-1.01c0.01-0.04,0.01-0.07-0.01-0.11c-0.04-0.11-0.17-0.16-0.27-0.12c-0.04,0.02-0.08,0.04-0.11,0.07
		c0,0,0,0,0,0c0,0,0,0,0,0c0,0,0,0,0,0c0,0,0,0,0,0c-0.01,0.01-0.01,0.02-0.02,0.02c-0.07,0.07-0.08,0.18-0.02,0.27c0,0,0,0,0,0.01
		C83.93,89.92,84.58,90.39,84.6,90.41z"/>
	<path class="st11" d="M83.5,85.83c0.96-0.75,4.83,1.67,7.04,3.37c0.04,0.03,0.08,0.04,0.13,0.04c0.06,0,0.13-0.03,0.17-0.08
		c0.07-0.09,0.05-0.23-0.04-0.3c-0.61-0.47-6.02-4.57-7.56-3.37c0,0-0.01,0.01-0.01,0.01c-0.08,0.07-0.1,0.2-0.03,0.29
		c0.01,0.01,0.03,0.02,0.04,0.03C83.31,85.89,83.42,85.89,83.5,85.83z"/>
	<path class="st11" d="M83.68,81.81c0.03,0.04,0.08,0.06,0.14,0.07c0,0,0,0,0.01,0c0,0,0.01,0,0.01,0c0.02,0,0.04-0.01,0.06-0.01
		c0,0,0.01,0,0.01,0c0,0,0,0,0.01,0c0,0,0.01,0,0.01,0c0.65-0.22,1.63-0.33,2.68,0.34c0.04,0.02,0.07,0.03,0.11,0.03
		c0.07,0,0.14-0.03,0.18-0.1c0.06-0.1,0.03-0.23-0.06-0.29c-1.2-0.77-2.32-0.63-3.06-0.38c0,0,0,0-0.01,0c0,0,0,0,0,0
		c-0.01,0.01-0.03,0.01-0.04,0.02c-0.01,0.01-0.02,0.01-0.03,0.02c-0.01,0.01-0.02,0.02-0.02,0.03c-0.01,0.01-0.02,0.02-0.02,0.03
		c-0.01,0.01-0.01,0.02-0.01,0.04c0,0.01-0.01,0.03-0.01,0.04c0,0,0,0,0,0.01v0c0,0.01,0.01,0.03,0.01,0.04c0,0.01,0,0.02,0,0.02
		c0,0,0,0,0,0c0,0,0,0,0,0C83.65,81.77,83.66,81.79,83.68,81.81C83.68,81.81,83.68,81.81,83.68,81.81z"/>
	<path class="st11" d="M79.69,72.6c0.08-0.08,0.08-0.21,0-0.3c-0.63-0.65-2.12-2.33-2.51-4.05c-0.03-0.11-0.14-0.19-0.25-0.16
		c-0.11,0.03-0.19,0.14-0.16,0.25c0.41,1.82,1.97,3.58,2.62,4.25c0.04,0.04,0.1,0.06,0.15,0.06c0,0,0.01,0,0.01,0
		C79.6,72.66,79.65,72.64,79.69,72.6C79.68,72.6,79.68,72.6,79.69,72.6z"/>
	<path class="st11" d="M56.9,55.1c-0.02,0.07-0.01,0.14,0.04,0.19c0.04,0.05,0.1,0.07,0.16,0.07c0.05,0,0.1-0.02,0.14-0.05
		c0.01-0.01,0.01-0.01,0.02-0.02c1.49-1.29,1.3-3.02,1.17-3.62c0.23-0.05,0.45-0.1,0.69-0.17c0.11-0.03,0.18-0.15,0.15-0.26
		c-0.03-0.11-0.15-0.18-0.26-0.15c-0.3,0.08-0.59,0.15-0.87,0.22c-6.76,1.49-10.93-2.19-13.24-5.55c0,0,0,0,0,0
		c0,0-0.01-0.01-0.01-0.01c-1.1-1.61-1.62-2.94-1.63-2.96c-0.27-0.67-0.66-1.83-0.75-2.1c0.09-0.36,0.39-1.53,0.32-1.87
		c0-0.02-0.27-1.82,0.27-3.22c0.07,1.15,0.25,3.29,0.65,4.27c0.02,0.06,0.08,0.11,0.14,0.12c0.06,0.02,0.13,0.01,0.18-0.03
		c0.03-0.02,2.94-2.15,5.3-1.56c0.06,0.02,0.13,0,0.18-0.04c0.05-0.04,0.08-0.1,0.08-0.17l-0.14-4.99c0.58,1.11,1.59,3.15,1.8,4.28
		c0.01,0.06,0.05,0.11,0.1,0.14c0.05,0.03,0.11,0.04,0.17,0.02c0.04-0.01,4.34-1.26,6.6-0.41c0.06,0.02,0.13,0.02,0.19-0.02
		c0.06-0.04,0.09-0.1,0.1-0.17c0.01-0.16,0.15-3.45-1.45-5.23c1.27,0.82,3.39,3.25,5.39,10.38c0.03,0.09,0.11,0.16,0.21,0.15
		c0.1,0,0.18-0.07,0.2-0.16c0.03-0.1,0.6-2.5,0.26-4.03c0.14-0.25,0.48-0.72,0.87-0.72c0,0,0,0,0.01,0c0.36,0,0.74,0.38,1.12,1.11
		c0.06,0.23,0.53,2.36-0.84,2.96c-0.07,0.03-0.11,0.09-0.12,0.16c-0.01,0.07,0.02,0.14,0.07,0.19c0.02,0.02,1.84,1.65,1.87,4.62
		c-0.86,1.26-2.03,2.36-3.48,3.25c-0.09,0.06-0.13,0.17-0.08,0.27l1.09,2.45c0.03,0.08,0.11,0.13,0.2,0.13
		c0.01,0,0.98-0.01,2.55,0.11c0.03,0,0.06,0,0.09,0.01c0.01,0,0.01,0,0.02,0c0.11,0,0.2-0.08,0.21-0.19c0,0,0,0,0,0
		c0.01-0.12-0.08-0.22-0.19-0.23c-1.29-0.1-2.2-0.12-2.53-0.12l-0.96-2.16c1.3-0.83,2.38-1.82,3.21-2.95
		c0.03-0.05,0.07-0.1,0.1-0.14c0.05-0.07,0.11-0.14,0.16-0.22c0,0,0-0.01,0.01-0.01c0,0,0,0,0.01-0.01c1.1-1.62,1.34-2.92,1.34-2.95
		c2.73-8.35-3.61-13.37-4.51-14.04l0.07-0.71c6.78-7.03,0.47-13.96,0.41-14.02c-9.28-10.91-20.22-2.29-20.33-2.2
		c-0.01,0.01-0.02,0.02-0.03,0.03c-5.69,7.09,0.75,13.74,2.14,15.03c-1.16,0.54-5.1,2.77-5.22,8.04c0,0.03-0.01,0.72,0.21,1.68
		c0.01,0.05,0.04,0.09,0.07,0.12c0.8,0.65,1.3,1.69,1.35,2.84c0,0.05,0.02,0.09,0.05,0.12L42,40.66c0.03,0.04,0.07,0.09,0.11,0.13
		c0,0,0,0.01,0,0.01c0,0.01,0.01,0.03,0.02,0.05c0.09,0.29,0.37,1.13,0.62,1.77c-0.3,0.02-0.72,0.17-1.08,0.71
		c-0.02,0.04-0.04,0.08-0.04,0.12c0,0.03,0.01,0.34,0.12,0.74c0,0.01,0.01,0.02,0.01,0.02c0.12,0.4,0.33,0.87,0.75,1.25
		c0.46,0.41,1.06,0.62,1.8,0.62c0.09,0,0.19-0.01,0.29-0.01c1.69,2.43,5.1,5.99,10.59,5.99c0.89,0,1.84-0.1,2.84-0.3
		c0.11,0.52,0.31,2.04-1.05,3.22c0,0-0.01,0.01-0.01,0.01C56.93,55.02,56.92,55.06,56.9,55.1z M42.91,43.05
		c0.13,0.33,0.58,1.35,1.41,2.61c-0.63,0-1.14-0.16-1.52-0.5c-0.62-0.55-0.72-1.41-0.74-1.65C42.38,43.06,42.74,43.03,42.91,43.05z
		 M40.69,35.84c0.13-5.85,5.2-7.77,5.26-7.79c0.07-0.03,0.12-0.09,0.14-0.16s-0.01-0.15-0.07-0.2c-0.34-0.29-8.36-7.11-2.34-14.65
		c0.64-0.51,10.82-8.32,19.74,2.17c0.25,0.27,6.13,6.74-0.45,13.49c-0.03,0.03-0.05,0.08-0.06,0.13l-0.09,0.91
		c-0.01,0.08,0.03,0.15,0.09,0.2c0.07,0.05,7.27,5,4.45,13.66c0,0.01-0.18,0.98-0.93,2.25c-0.2-2.21-1.3-3.6-1.77-4.11
		c1.44-0.91,0.83-3.24,0.8-3.34c0-0.01-0.01-0.03-0.02-0.04c-0.47-0.91-0.97-1.37-1.52-1.36c-0.78,0.01-1.26,0.98-1.28,1.02
		c-0.02,0.04-0.03,0.1-0.01,0.14c0.22,0.9,0.07,2.21-0.07,3.06c-3.18-10.71-6.65-10.28-6.8-10.26c-0.09,0.02-0.16,0.09-0.18,0.18
		c-0.01,0.09,0.04,0.18,0.12,0.22c2.15,0.95,2.32,4.36,2.32,5.36c-2.13-0.63-5.47,0.19-6.37,0.43c-0.42-1.74-2.14-4.83-2.22-4.97
		c-0.05-0.08-0.15-0.13-0.24-0.1c-0.09,0.03-0.16,0.11-0.16,0.21l0.16,5.61c-2.11-0.36-4.42,1.04-5.15,1.53
		c-0.45-1.44-0.57-4.61-0.57-4.64c0-0.09-0.06-0.17-0.15-0.2c-0.09-0.03-0.18,0.01-0.23,0.08c-1.08,1.55-0.7,4.08-0.69,4.2
		c0.02,0.12-0.05,0.54-0.15,1.01c-0.17-1.02-0.66-1.93-1.39-2.55C40.68,36.48,40.69,35.85,40.69,35.84z"/>
	<path class="st11" d="M33.88,83.18c0.02,0,0.04,0,0.05-0.01c0.08-0.02,0.14-0.09,0.15-0.16c0.01-0.03,0.01-0.06,0-0.09
		c-0.06-0.22-0.06-0.57-0.07-0.94c-0.01-0.78-0.02-1.75-0.56-2.34c-0.08-0.09-0.21-0.09-0.3-0.01c-0.09,0.08-0.09,0.21-0.01,0.3
		c0.43,0.47,0.44,1.32,0.45,2.06c0,0.41,0.01,0.77,0.08,1.04c0,0.01,0.02,0.02,0.02,0.03C33.73,83.12,33.8,83.18,33.88,83.18z"/>
	<path class="st11" d="M39.19,80.43c0.03,0,0.05,0,0.08-0.01c1.2-0.46,2.98-1.21,4.65-2.17c0.1-0.06,0.14-0.19,0.08-0.29
		c0,0,0,0,0,0c-0.06-0.1-0.19-0.14-0.29-0.08c-0.05,0.03-0.1,0.05-0.15,0.08c-1.58,0.89-3.23,1.59-4.38,2.03
		c-0.02,0.01-0.04,0.02-0.06,0.02c-0.11,0.04-0.16,0.16-0.12,0.27c0,0,0,0,0,0C39.03,80.38,39.11,80.43,39.19,80.43z"/>
	<path class="st11" d="M83.36,75.87c-0.07-0.09-0.19-0.11-0.28-0.05c0,0-0.01,0-0.02,0.01l-3.61,2.66
		c-0.02-0.03-0.04-0.06-0.06-0.09c-0.1-0.15-0.25-0.3-0.46-0.4c-0.27-0.12-0.58-0.11-0.91,0.03c-0.04,0.02-4.17,1.76-6.53,2.07
		c-0.18,0.04-4.53,0.88-6.28,1.59c-0.04,0.01-3.68,1.1-7.06,1.12c-0.05,0-0.1,0.02-0.14,0.05c-0.05,0.04-0.08,0.09-0.08,0.16
		c0,0.12,0.1,0.21,0.21,0.21c0,0,0,0,0,0c0.01,0,0.02,0,0.03,0c3.43-0.02,7.11-1.12,7.17-1.14c1.73-0.71,6.17-1.57,6.21-1.57
		c2.4-0.32,6.45-2.03,6.63-2.1c0.22-0.09,0.41-0.11,0.57-0.03c0.26,0.12,0.38,0.41,0.4,0.48c0,0,0,0,0,0c0,0,0,0.01,0,0.01
		c0,0,0,0.01,0.01,0.01c0.01,0.02,0.01,0.04,0.03,0.05c0,0,0.01,0.01,0.01,0.01c0,0,0,0,0,0c0.04,0.04,0.09,0.07,0.14,0.07
		c0,0,0.01,0,0.01,0c0.01,0,0.02-0.01,0.03-0.01c0.01,0,0.02,0,0.03,0c0.01,0,0.02-0.01,0.03-0.02c0.01-0.01,0.02,0,0.03-0.01
		l3.8-2.8l0.02-0.01C83.41,76.1,83.43,75.96,83.36,75.87z"/>
	<path class="st11" d="M38.38,62.57c0.02,0.01,0.04,0.02,0.07,0.02c0.04,0,0.08-0.01,0.11-0.03c0.92-0.59,1.92-1.22,3.07-1.93
		c0.04-0.02,0.06-0.05,0.08-0.09c0.03-0.06,0.03-0.14-0.01-0.2c0,0,0,0,0,0c-0.03-0.05-0.08-0.08-0.14-0.1
		c-0.05-0.01-0.11,0-0.15,0.03c-1.15,0.71-2.16,1.34-3.08,1.94c-0.1,0.06-0.13,0.19-0.06,0.29c0,0,0,0,0,0
		C38.3,62.54,38.34,62.56,38.38,62.57z"/>
	<path class="st11" d="M24.84,73.27c0.04,0.03,0.09,0.05,0.13,0.05c0.03,0,0.06-0.01,0.09-0.02c0.02-0.01,0.05-0.03,0.07-0.05
		c1.28-1.5,3.1-3.18,5.39-5c0.06-0.05,0.09-0.13,0.07-0.2c-0.01-0.03-0.02-0.06-0.04-0.09c0,0,0,0,0,0
		c-0.07-0.09-0.21-0.11-0.3-0.03c-2.31,1.84-4.14,3.54-5.45,5.05c-0.06,0.07-0.06,0.17-0.02,0.24
		C24.81,73.23,24.82,73.25,24.84,73.27C24.84,73.27,24.84,73.27,24.84,73.27z"/>
	<g>
		<path class="st10" d="M41.86,90.9l1.09,0.25c0.03,0.01,0.06,0.02,0.09,0.02c0,0,0,0,0,0c0,0,0,0,0,0c0.35,0.08,0.69,0.15,1.04,0.2
			c0.1,0.02,0.19,0.03,0.29,0.05c0.31,0.05,0.62,0.09,0.93,0.12c0.05,0.01,0.11,0.01,0.16,0.02c0.36,0.04,0.71,0.06,1.07,0.08
			c0.09,0,0.18,0.01,0.27,0.01c0.29,0.01,0.57,0.02,0.86,0.02c0.05,0,0.1,0,0.15,0c0.03,0,0.05,0,0.08,0c0.31,0,0.62-0.01,0.92-0.02
			c0.04,0,0.08,0,0.12-0.01c0.27-0.01,0.53-0.03,0.78-0.04c0.1-0.01,0.19-0.01,0.28-0.02c0.2-0.02,0.41-0.03,0.61-0.05
			c0.09-0.01,0.18-0.02,0.27-0.03c0.22-0.02,0.44-0.05,0.65-0.08c0.05-0.01,0.11-0.01,0.16-0.02c0.26-0.04,0.52-0.07,0.76-0.11
			c0.06-0.01,0.12-0.02,0.19-0.03c0.18-0.03,0.36-0.06,0.53-0.09c0.08-0.01,0.15-0.03,0.22-0.04c0.16-0.03,0.31-0.06,0.45-0.09
			c0.06-0.01,0.12-0.02,0.18-0.04c0.2-0.04,0.38-0.08,0.56-0.12c0,0,0,0,0,0l0.43-0.1l0,0l-0.34-0.27
			c-0.23-0.19-0.68-0.31-1.26-0.38c-0.95-0.58-1.89-0.87-2.79-0.87c-0.82,0.01-1.36,0.3-1.95,0.62c-0.2,0.11-0.41,0.22-0.63,0.32
			c-0.77,0.06-1.54,0.14-2.24,0.21c-0.15-0.03-0.29-0.07-0.44-0.1c-0.61-0.15-1.09-0.27-1.54,0c-0.15,0.09-0.28,0.22-0.39,0.38
			c-0.15,0.02-0.3,0.04-0.42,0.06l-1.07,0.14L41.86,90.9z"/>
	</g>
	<path class="st2" d="M26.47,88.49c0.27-0.67,1.67-0.99,3.62-1.44c1.11-0.26,2.34-0.55,3.42-0.93c-0.19-0.36-0.32-0.72-0.42-1.06
		c-2.1-0.37-5.25-0.01-5.28,0c-1.23-0.08-3.88,0.47-4.51,0.61c-0.06,0.39-0.16,1.59,0.56,2.39c0.53,0.59,1.4,0.85,2.59,0.79
		C26.42,88.7,26.44,88.58,26.47,88.49z"/>
	<path class="st2" d="M27.8,84.63c0.09-0.01,3.05-0.35,5.2-0.02c-0.03-0.17-0.05-0.34-0.05-0.5c-2.01-1.64-5.43-3.21-5.8-3.38
		c-1.98-0.17-3.94-0.84-4.03-0.87c-0.02-0.01-0.03-0.01-0.05-0.02c-0.2-0.13-0.4-0.28-0.57-0.42c-0.26,1.74-0.51,5.26,0.65,5.85
		C23.66,85.14,26.48,84.54,27.8,84.63z"/>
	<path class="st2" d="M26.87,88.65c-0.02,0.05-0.04,0.13,0.05,0.27l-0.01,0c0.01,0.01,0.02,0.02,0.02,0.03
		c0.5,1.2,1.67,1.79,2.03,1.95c0.55-0.46,3.16-2.59,5.4-3.45c-0.25-0.33-0.47-0.65-0.65-0.96c-1.11,0.4-2.39,0.7-3.53,0.97
		C28.65,87.81,27.06,88.18,26.87,88.65z"/>
	<path class="st21" d="M26.91,88.92L26.91,88.92c-0.08-0.14-0.07-0.23-0.05-0.27c0.19-0.47,1.78-0.83,3.32-1.19
		c1.14-0.26,2.42-0.56,3.53-0.97c0.06-0.02,0.11-0.04,0.17-0.06l-0.15-0.4c-0.07,0.03-0.15,0.05-0.23,0.08
		c-1.08,0.38-2.31,0.68-3.42,0.93c-1.94,0.45-3.34,0.77-3.62,1.44c-0.04,0.09-0.05,0.21-0.03,0.35c0.02,0.09,0.05,0.2,0.12,0.31
		L26.91,88.92z"/>
	<path class="st21" d="M27.81,85.05c0.03,0,3.18-0.36,5.28,0c0.04,0.01,0.08,0.01,0.13,0.02l0.08-0.42c-0.1-0.02-0.2-0.03-0.3-0.05
		c-2.15-0.33-5.1,0.01-5.2,0.02c-1.31-0.09-4.14,0.51-4.65,0.63c-0.04,0.01-0.07,0.02-0.08,0.02l0.09,0.41c0,0,0.06-0.01,0.14-0.03
		C23.93,85.52,26.58,84.97,27.81,85.05z"/>
	<path class="st1" d="M96.86,84.65c-0.11-0.59-0.32-1.28-0.59-1.93c-0.18-0.3-0.36-0.65-0.54-1.04c-0.26,0.02-0.49,0.48-0.49,0.49
		l-0.06,0.13l-0.15-0.01c-1.39-0.1-1.61,0.17-1.64,0.26c-0.1,0.26,0.44,0.84,0.83,1.15l0.15,0.12l-0.1,0.16
		c-0.31,0.5-0.4,0.89-0.24,1.15c0.25,0.44,1.14,0.51,1.47,0.5l0.03,0l0.03,0.01C95.6,85.64,96.45,85.82,96.86,84.65z"/>
	<path class="st11" d="M85.27,75.16c0.55,0.22,1.22,0.33,1.66,0.16c0.33,0.88,1.35,1.12,2.17,1.12c0.22,0,0.42-0.02,0.6-0.04
		c0.03,0,0.05-0.01,0.08-0.03c0.52-0.31,0.82-0.7,0.89-1.16c0.09-0.57-0.2-1.08-0.36-1.3c0.8-1.41,0.98-2.36,0.54-2.89
		c-0.57-0.7-1.95-0.34-2.38-0.21c-1.04-0.82-1.71-1.07-2.11-0.78c-0.52,0.37-0.23,1.51-0.07,2.03c-1.52,0.46-2.3,1.04-2.33,1.7
		C83.93,74.3,84.42,74.83,85.27,75.16z M86.62,72.4c0.06-0.02,0.1-0.06,0.13-0.11c0.03-0.05,0.03-0.11,0.01-0.17
		c-0.23-0.62-0.41-1.58-0.16-1.76c0.08-0.06,0.44-0.17,1.69,0.84c0.06,0.05,0.13,0.06,0.2,0.03c0.43-0.15,1.64-0.43,2.03,0.04
		c0.31,0.38,0.08,1.28-0.65,2.53c-0.05,0.08-0.04,0.18,0.02,0.24c0,0.01,0.44,0.53,0.35,1.08c-0.05,0.32-0.27,0.6-0.65,0.84
		c-0.29,0.04-2.11,0.21-2.33-1.03c-0.01-0.08-0.07-0.15-0.15-0.17c-0.02,0-0.04-0.01-0.06-0.01c-0.06,0-0.12,0.03-0.16,0.07
		c-0.15,0.18-0.78,0.19-1.47-0.08c-0.65-0.26-1.06-0.65-1.05-0.99C84.39,73.55,84.63,72.97,86.62,72.4z"/>
	<path class="st11" d="M71.75,62.24c-1.12-0.05-2.34,0.89-2.62,2c-0.14,0.55-0.01,1.04,0.35,1.42c-0.26,0.04-0.5,0.14-0.7,0.3
		c-0.66,0.53-0.75,1.52-0.76,1.7c-0.12,0.42-0.06,0.78,0.17,1.05c0.49,0.59,1.66,0.59,2.08,0.56c0.88,1.94,2.62,2.16,2.7,2.17
		c0.01,0,0.02,0,0.02,0c0.03,0,0.06-0.01,0.08-0.02c1.47-0.63,1.46-1.82,1.41-2.26c1.64-0.93,1.83-1.84,1.71-2.44
		c-0.21-0.99-1.39-1.7-2.24-1.84C73.54,62.66,72.4,62.27,71.75,62.24z M74.14,68.87c-0.09,0.05-0.13,0.15-0.1,0.24
		c0.01,0.05,0.32,1.27-1.08,1.91c-0.29-0.05-1.67-0.38-2.36-2.04c-0.03-0.08-0.11-0.13-0.2-0.13c-0.01,0-0.01,0-0.02,0
		c-0.39,0.04-1.5,0.05-1.87-0.4c-0.14-0.17-0.17-0.39-0.08-0.69c0-0.02,0.01-0.03,0.01-0.05c0-0.01,0.04-0.96,0.6-1.41
		c0.27-0.22,0.64-0.28,1.08-0.19c0.1,0.02,0.21-0.04,0.24-0.14c0.03-0.1-0.01-0.21-0.11-0.26c-0.78-0.38-0.82-0.94-0.72-1.36
		c0.2-0.81,1.21-1.72,2.2-1.68c0.93,0.04,1.57,0.91,1.82,2.44c0.02,0.1,0.1,0.17,0.19,0.18c0.69,0.05,1.84,0.69,2.02,1.52
		C75.92,67.5,75.35,68.21,74.14,68.87z"/>
	<path class="st11" d="M52.18,54.9C52.18,54.9,52.18,54.9,52.18,54.9c0,0.01,0.01,0.01,0.01,0.01c0.02,0.02,0.04,0.04,0.06,0.05
		c0.01,0,0.02,0.01,0.02,0.01c0.02,0.01,0.04,0.01,0.06,0.02c0.01,0,0.01,0,0.02,0c0,0,0.01,0,0.01,0c0.01,0,0.02,0,0.03,0
		c1.43-0.29,2.7-0.23,3.2-0.2c0.16,0.01,0.48,0.13,0.97,0.38c0.04,0.02,0.08,0.04,0.12,0.04c0.05,0,0.09-0.02,0.13-0.05
		c0.01-0.01,0.01-0.01,0.02-0.01c0.01-0.02,0.02-0.03,0.03-0.05c0.02-0.03,0.03-0.06,0.03-0.1c0-0.06-0.02-0.11-0.06-0.15
		c0,0,0,0,0,0l0,0c-0.07-0.07-0.16-0.13-0.27-0.18c-0.04-0.02-0.09-0.02-0.13-0.02c-0.38-0.17-0.64-0.26-0.84-0.27
		c-0.47-0.02-1.69-0.07-3.11,0.18c-0.07-0.02-0.14-0.02-0.2,0.03c0,0-0.02,0.01-0.05,0.03c0,0,0,0,0,0
		c-0.02,0.02-0.04,0.04-0.06,0.06c-0.01,0.01-0.01,0.03-0.02,0.04c0,0.01-0.01,0.02-0.01,0.03c-0.01,0.03-0.01,0.06,0,0.08
		c0,0,0,0,0,0c0,0,0,0,0,0.01c0,0.01,0.01,0.01,0.01,0.02C52.16,54.86,52.17,54.88,52.18,54.9z"/>
	<path class="st11" d="M42.28,72.77c0.55,0.36,1.09,0.49,1.59,0.37c0.45-0.1,0.77-0.37,0.96-0.58c0.28,0.4,0.71,0.71,0.81,0.78
		c0.34,0.35,0.7,0.52,1.08,0.52c0.02,0,0.05,0,0.07,0c0.54-0.03,0.91-0.43,0.99-0.54c0.3-0.25,0.46-0.57,0.47-0.94
		c0.02-0.93-0.94-1.95-1.35-2.34c0.58-0.55,0.81-1.08,0.7-1.55c-0.11-0.49-0.57-0.85-1.34-1.06c-0.36-0.1-0.71-0.06-1.02,0.12
		c-0.44,0.25-0.72,0.73-0.87,1.08c-0.26-0.33-0.56-0.53-0.88-0.57c-0.56-0.08-0.97,0.33-1,0.36c-0.26,0.32-0.36,0.63-0.31,0.94
		c0.04,0.25,0.18,0.43,0.3,0.56c-0.33,0.31-0.96,1.02-0.93,1.76C41.6,72.1,41.83,72.47,42.28,72.77z M42.96,70.07
		c0.05-0.04,0.08-0.11,0.08-0.18s-0.04-0.13-0.1-0.17c0,0-0.27-0.17-0.32-0.44c-0.03-0.18,0.04-0.39,0.21-0.59
		c0,0,0.29-0.27,0.63-0.22c0.29,0.04,0.56,0.28,0.8,0.72c0.04,0.07,0.13,0.12,0.21,0.11c0.09-0.01,0.16-0.07,0.18-0.15
		c0-0.01,0.25-0.91,0.83-1.24c0.21-0.12,0.44-0.15,0.69-0.08c0.59,0.16,0.96,0.43,1.04,0.75c0.08,0.35-0.18,0.8-0.74,1.3
		c-0.05,0.04-0.07,0.1-0.07,0.16c0,0.06,0.03,0.12,0.07,0.16c0.01,0.01,1.39,1.22,1.37,2.17c-0.01,0.25-0.11,0.46-0.33,0.63
		c-0.01,0.01-0.03,0.02-0.04,0.04c0,0-0.29,0.37-0.7,0.39c-0.27,0.01-0.55-0.12-0.83-0.41C45.92,73.01,45.91,73,45.9,73
		c-0.01,0-0.66-0.43-0.83-0.9c-0.03-0.08-0.1-0.13-0.18-0.14c-0.01,0-0.01,0-0.02,0c-0.07,0-0.14,0.04-0.18,0.1
		c0,0.01-0.33,0.54-0.91,0.67c-0.39,0.09-0.81-0.02-1.26-0.31c-0.33-0.22-0.5-0.47-0.52-0.77C41.96,70.89,42.95,70.08,42.96,70.07z"
		/>
	<path class="st11" d="M56.04,79.52L56.04,79.52c0,0.04,0.01,0.07,0.03,0.1c0,0,0,0.01,0,0.01c0.09,0.16,0.18,0.31,0.27,0.47
		c0.31,0.54,0.6,1.07,0.87,1.59c0.01,0.02,0.02,0.03,0.03,0.05c0.03,0.06,0.07,0.13,0.1,0.19c0.04,0.07,0.11,0.12,0.19,0.12
		c0.03,0,0.06-0.01,0.09-0.02c0,0,0,0,0,0c0.06-0.03,0.09-0.08,0.11-0.14c0.01-0.05,0.01-0.1-0.01-0.14
		c-0.37-0.74-0.8-1.51-1.26-2.3c0,0,0,0,0,0c-0.01-0.04-0.04-0.06-0.07-0.09c-0.01,0-0.01-0.01-0.01-0.01
		c-0.03-0.02-0.07-0.03-0.11-0.03c0,0,0,0,0,0c-0.04,0-0.07,0.01-0.1,0.03C56.09,79.38,56.04,79.44,56.04,79.52z"/>
	<path class="st11" d="M75.58,54.26c0,0.02,0.01,0.05,0.01,0.07c0.02,0.07,0.08,0.12,0.16,0.13c0.06,0.02,0.13,0.04,0.18,0.06
		c1.14,0.37,2.23,0.78,3.25,1.22c0.01,0,0.01,0,0.02,0.01c0.08,0.04,0.15,0.07,0.22,0.1c0.01,0.01,0.02,0.01,0.02,0.01
		c0.03,0.02,0.06,0.02,0.09,0.02c0.07,0,0.14-0.04,0.18-0.1c0,0,0.01-0.01,0.01-0.01c0,0,0-0.01,0-0.01
		c0.01-0.02,0.02-0.05,0.02-0.07c0-0.02,0-0.04-0.01-0.06c0-0.01,0-0.02,0-0.02c0-0.02-0.01-0.03-0.02-0.04
		c0-0.01-0.01-0.02-0.01-0.03c-0.01-0.01-0.03-0.02-0.04-0.03c-0.01-0.01-0.01-0.01-0.02-0.02c0,0,0,0,0,0c0,0,0,0,0,0c0,0,0,0,0,0
		c-0.01-0.01-0.02-0.01-0.02-0.01c-0.13-0.06-0.22-0.1-0.24-0.11c-0.01,0-0.02-0.01-0.03-0.01c-1.02-0.45-2.11-0.86-3.26-1.23
		c-0.03-0.02-0.1-0.04-0.2-0.06c0,0-0.01,0-0.01,0c-0.02-0.01-0.04-0.01-0.07-0.01h0c-0.09,0-0.18,0.06-0.21,0.15
		C75.59,54.22,75.59,54.24,75.58,54.26C75.59,54.26,75.58,54.26,75.58,54.26z"/>
	<path class="st11" d="M41.02,61.61c-0.01-0.02-0.02-0.03-0.03-0.04l0,0c-0.08-0.08-0.22-0.08-0.3,0.01
		c-0.07,0.07-0.08,0.19-0.02,0.27c0.01,0.02,0.02,0.03,0.03,0.04c0.04,0.04,0.09,0.06,0.15,0.06c0.04,0,0.07-0.01,0.1-0.03
		c0.02-0.01,0.03-0.02,0.05-0.03c0,0,0-0.01,0.01-0.01C41.07,61.8,41.08,61.69,41.02,61.61z"/>
	<path class="st1" d="M52.72,103.48c0.16,0.11,0.47,0.14,0.83,0.14c0.73,0,1.66-0.16,1.91-0.2c0.08-0.01,0.14-0.07,0.16-0.14
		c0.16-0.45,0.13-1.94,0.08-3.84c-0.02-0.64-0.03-1.19-0.02-1.49c0.02-0.98,0.06-4.63,0.06-4.63l-0.42,0c0,0-0.04,3.65-0.06,4.62
		c-0.01,0.31,0.01,0.86,0.03,1.51c0.03,1.21,0.08,2.98-0.03,3.57c-0.96,0.16-2.07,0.24-2.3,0.1c-0.1-0.06-0.23-0.04-0.29,0.06
		C52.59,103.28,52.62,103.41,52.72,103.48z"/>
	<path class="st11" d="M69.89,114.85c1.88,2.35,3.65,4.93,3.66,4.95c0.01,0.02,0.03,0.03,0.04,0.05c1.23,0.95,4.07,2.34,4.2,2.41
		c1.37,0.53,1.62,0.99,1.66,1.21c0.04,0.27-0.2,0.45-0.21,0.46c-0.03,0.02-0.05,0.05-0.07,0.08c-0.43,0.97-1.19,2.01-1.6,2.55
		c-0.12,0.15-0.19,0.24-0.19,0.24c-3.66,3.4-4.73,9.87-4.82,10.43c-0.31,0.74-0.09,4.96-0.02,6.17c-3.35,1.14-13.55,1.16-13.63,1.16
		c-13.2-1.15-19.4-6.49-23.32-11.01c-3.98-4.58-3.76-10.45-2.88-14.57c0.6-2.78,5.16-8.9,5.18-8.94c2.68-2.68,4.37-4.52,4.76-5.18
		c1.08,0.08,2.41,0.11,3.83,0.11c4.72,0,10.36-0.34,10.43-0.35c0.06,0,0.11-0.03,0.15-0.08c0.49-0.61,0.09-2.19,0.04-2.37
		c-0.49-1.6-0.2-3.57-0.2-3.6c0.17-1.34-0.19-7.81-0.2-8.08c0-0.02,0-0.03-0.01-0.05c-0.04-0.12-0.07-0.22-0.12-0.33c0,0,0,0,0,0
		c0,0,0,0,0-0.01c0,0,0,0,0,0c0,0,0,0,0,0c-0.09-0.23-0.21-0.44-0.34-0.63l0.51-0.65l0.74-0.95l1.44-1.84
		c0.03-0.04,0.05-0.1,0.04-0.15c-0.01-0.06-0.03-0.11-0.08-0.15c-0.05-0.04-0.11-0.05-0.17-0.04c-0.05,0.01-0.09,0.03-0.12,0.07
		l-2.53,3.22l-0.1,0.12c-0.04-0.04-0.08-0.08-0.11-0.12c-1.73-1.79-5.05-1.68-5.19-1.67c-4.27-0.3-6.73,0.47-8.03,1.18
		c-0.99,0.53-1.43,1.06-1.54,1.22c-0.15,0.11-0.19,0.35-0.21,0.57c-0.01,0.02-0.01,0.04-0.01,0.07c0,0.01,0.01,0.02,0.01,0.03
		c-0.04,0.76,0.15,2.03,0.15,2.08l0.01,0.09c-0.25-0.15-0.8-0.51-1.51-1.01c0,0,0,0,0,0c-1.38-0.97-3.33-2.49-4.66-4.15c0,0,0,0,0,0
		c-0.12-0.15-0.24-0.31-0.35-0.46c-0.02-0.03-0.04-0.07-0.07-0.1c-0.74-1.04-1.1-2-1.09-2.86c0-0.04-0.01-0.07-0.03-0.1
		c-0.01-0.02-0.03-0.04-0.04-0.06c-0.02-0.02-0.05-0.04-0.07-0.06c-2.16-1.77-5.79-3.39-5.94-3.46c-0.02-0.01-0.05-0.02-0.07-0.02
		c-1.83-0.15-3.7-0.77-3.93-0.84c-0.29-0.19-0.56-0.4-0.78-0.62c-0.06-0.05-0.14-0.07-0.21-0.05c-0.03,0.01-0.05,0.03-0.07,0.05
		c-0.03,0.03-0.06,0.07-0.07,0.12c-0.1,0.59-0.92,5.65,0.74,6.64c-0.07,0.46-0.17,1.79,0.66,2.73c0.64,0.72,1.67,1.03,3.07,0.93
		c0.65,1.38,2.04,1.98,2.29,2.08c0.22,0.19,0.45,0.38,0.68,0.57c0.01,0.01,0.01,0.01,0.02,0.02c2.83,2.27,6.28,4.2,6.31,4.22
		c0.89,0.58,2.97,1.45,3.28,1.57l2.85,2.67c0.24,1.53-0.26,4.15-0.27,4.18c-0.01,0.06,0,0.12,0.04,0.16
		c0.03,0.05,0.09,0.08,0.15,0.09c0.05,0.01,0.11,0.01,0.17,0.02c0.02,0,0.04,0,0.06,0.01c-0.03,0.05-0.07,0.1-0.12,0.17
		c-0.44,0.56-1.56,1.86-4.48,4.78c-0.19,0.25-4.66,6.26-5.28,9.13c-0.74,3.45-1.34,9.98,2.97,14.94c0.05,0.06,0.1,0.12,0.16,0.18
		c0.01,0.01,0.01,0.01,0.02,0.02c3.99,4.54,10.27,9.81,23.45,10.96c0.43,0,10.35-0.01,13.77-1.18c0.06-0.02,0.12-0.04,0.17-0.06
		c0.01-0.01,0.02-0.02,0.03-0.03c0.06-0.04,0.11-0.11,0.1-0.18c-0.15-2.57-0.22-5.46-0.05-6.06c1.35-0.26,5.44,0.43,5.48,0.44
		c0,0,0.01,0,0.01,0c-0.22,1.98-0.34,3.39-0.34,3.39c-0.61,6.87,3.58,8.68,3.58,8.68c0.03,0,0.07,0,0.1,0c0.9,0,2.37-1.09,2.37-1.09
		c1.99-2.45,2.81-22.9,2.81-22.9l-5.76,0c-0.01,0-0.02,0-0.03,0c-0.48,0-0.83,0.91-0.83,0.91c-0.12,0.35-0.23,0.75-0.34,1.18
		c0,0.02-0.01,0.04-0.01,0.06c0,0,0,0-0.01,0l-0.09-0.02l-2.64-0.54l-0.02,0c0.01-0.01,0.01-0.01,0.02-0.02
		c0.15-0.16,0.3-0.32,0.46-0.47c0,0,0.08-0.1,0.22-0.27c0.42-0.54,1.18-1.59,1.63-2.59c0.11-0.1,0.39-0.39,0.33-0.81
		c-0.07-0.56-0.72-1.09-1.91-1.55c-0.03-0.01-2.88-1.41-4.09-2.34c-0.2-0.29-1.88-2.72-3.66-4.95c-0.05-0.06-0.12-0.08-0.19-0.07
		c-0.04,0-0.08,0.02-0.11,0.04C69.83,114.63,69.82,114.76,69.89,114.85z M42.45,100.24l-1-7.81c0-0.01-0.15-1.02-0.16-1.75
		c0.22,0.07,0.44,0.14,0.66,0.2l1.07-0.14c0.13-0.02,0.27-0.04,0.42-0.06c0.11-0.16,0.24-0.29,0.39-0.38c0.46-0.28,0.94-0.16,1.54,0
		c0.14,0.04,0.29,0.07,0.44,0.1c0.71-0.07,1.47-0.15,2.24-0.21c0.22-0.1,0.42-0.21,0.63-0.32c0.58-0.32,1.13-0.61,1.95-0.62
		c0.9-0.01,1.84,0.29,2.79,0.87c0.58,0.07,1.03,0.2,1.26,0.38l0.34,0.27c0.59-0.14,1.01-0.26,1.24-0.33
		c0.01,0.03,0.02,0.06,0.03,0.09c0.03,0.46,0.36,6.71,0.2,7.97c-0.01,0.08-0.31,2.09,0.21,3.77c0.15,0.55,0.29,1.52,0.09,1.92
		c-1.07,0.06-9.93,0.56-14.24,0.22c0,0,0,0,0,0c0,0,0,0,0,0c0,0,0,0,0,0c-0.11-0.01-0.22-0.02-0.32-0.03
		C42.36,103.71,42.69,101.58,42.45,100.24z M39.39,97.33c-0.02-0.01-2.34-0.96-3.26-1.56c-0.04-0.02-3.91-2.19-6.79-4.62
		c0.7-0.58,3.24-2.59,5.31-3.35c2.32,2.81,6.29,5.2,6.33,5.23c0.03,0.02,0.07,0.03,0.11,0.03c0.01,0,0.01,0,0.02-0.01l0.85,6.66
		l-2.51-2.35C39.43,97.35,39.41,97.34,39.39,97.33z M41.43,90.01c0-0.01,0.36-0.56,1.41-1.12c1.26-0.68,3.63-1.42,7.83-1.13
		c0.04,0,4.2-0.14,5.44,2.3c-0.01,0-0.01,0-0.02,0.01c-0.05,0.02-0.12,0.03-0.19,0.05c-0.02,0-0.03,0.01-0.04,0.01
		c-0.09,0.02-0.19,0.05-0.3,0.08c-0.04,0.01-0.08,0.02-0.11,0.03c-0.08,0.02-0.17,0.04-0.26,0.07c-0.05,0.01-0.1,0.02-0.15,0.04
		c-0.1,0.02-0.2,0.05-0.31,0.07c-0.04,0.01-0.07,0.02-0.11,0.03c-1.32-1.07-2.65-1.61-3.94-1.61c-0.01,0-0.02,0-0.03,0
		c-0.92,0.01-1.54,0.34-2.14,0.67c-0.64,0.35-1.25,0.68-2.21,0.55c-0.27-0.04-0.54-0.1-0.79-0.17c-0.65-0.16-1.26-0.32-1.87,0.05
		c-0.28,0.17-0.51,0.42-0.69,0.76c-0.27-0.06-0.54-0.13-0.81-0.21c0,0,0,0-0.01,0c-0.27-0.08-0.53-0.17-0.8-0.26
		c0.01-0.09,0.03-0.14,0.04-0.16C41.39,90.06,41.41,90.04,41.43,90.01z M26.56,89.15c-0.07-0.11-0.1-0.21-0.12-0.31
		c-1.19,0.06-2.06-0.2-2.59-0.79c-0.71-0.8-0.61-2-0.56-2.39c-0.08,0.02-0.14,0.03-0.14,0.03l-0.09-0.41c0.01,0,0.04-0.01,0.08-0.02
		c-1.17-0.58-0.91-4.11-0.65-5.85c0.18,0.15,0.37,0.29,0.57,0.42c0.01,0.01,0.03,0.02,0.05,0.02c0.08,0.03,2.04,0.7,4.03,0.87
		c0.37,0.17,3.79,1.74,5.8,3.38c0,0.16,0.02,0.33,0.05,0.5c0.1,0.02,0.2,0.03,0.3,0.05l-0.08,0.42c-0.04-0.01-0.08-0.01-0.13-0.02
		c0.09,0.34,0.23,0.7,0.42,1.06c0.07-0.03,0.16-0.05,0.23-0.08l0.15,0.4c-0.05,0.02-0.11,0.04-0.17,0.06
		c0.18,0.31,0.4,0.63,0.65,0.96c-2.24,0.86-4.85,2.99-5.4,3.45c-0.36-0.16-1.54-0.76-2.03-1.95c-0.01-0.01-0.02-0.02-0.02-0.03
		L26.56,89.15z M81.17,126.43h0.02l5.32,0c-0.25,5.91-1.16,20.14-2.67,22.17c-0.54,0.39-1.53,0.97-2.07,0.98
		c-0.52-0.26-3.81-2.15-3.27-8.23c0.01-0.1,0.9-10.29,2.22-14.28c0.11-0.28,0.33-0.6,0.43-0.64L81.17,126.43z M79.88,128.56
		c-0.61,2.6-1.09,6.22-1.4,8.94c-0.24-0.04-3.88-0.65-5.44-0.46c0.22-1.21,1.23-5.99,3.86-9.09L79.88,128.56z"/>
	<path class="st11" d="M40.33,120.65c0.07-0.09,0.05-0.23-0.04-0.3c-0.09-0.07-0.23-0.05-0.3,0.04c-0.03,0.04-3.29,4.46,0.87,8.65
		c0.04,0.04,0.1,0.06,0.15,0.06c0.05,0,0.11-0.02,0.15-0.06c0.08-0.08,0.08-0.22,0-0.3C37.27,124.82,40.2,120.82,40.33,120.65z"/>
	<path class="st11" d="M47.09,41.64c-0.1-0.06-0.23-0.03-0.29,0.07c-0.2,0.32-0.43,0.5-0.68,0.54c-0.37,0.06-0.69-0.2-0.7-0.21
		c-0.09-0.08-0.22-0.07-0.3,0.02s-0.07,0.22,0.02,0.3c0.02,0.01,0.38,0.32,0.87,0.32c0.05,0,0.11,0,0.17-0.01
		c0.38-0.06,0.71-0.3,0.98-0.73C47.21,41.84,47.18,41.7,47.09,41.64z"/>
	<path class="st11" d="M54.66,39.45c-0.11-0.04-0.23,0.02-0.27,0.13c-0.35,0.99-2.01,0.88-2.03,0.88c-0.11-0.01-0.22,0.08-0.23,0.2
		c-0.01,0.12,0.08,0.22,0.2,0.23c0.01,0,0.09,0.01,0.2,0.01c0.52,0,1.88-0.1,2.26-1.17C54.83,39.61,54.77,39.48,54.66,39.45z"/>
	<path class="st11" d="M50.44,44.06c0.03-0.11-0.03-0.23-0.14-0.26c-0.49-0.15-1.12,0.05-1.52,0.21c0.19-1.43-0.05-3.27-0.07-3.36
		c-0.02-0.12-0.12-0.2-0.24-0.18c-0.12,0.02-0.2,0.12-0.18,0.24c0,0.02,0.3,2.23,0,3.62c-0.02,0.08,0.01,0.16,0.08,0.21
		c0.04,0.03,0.08,0.04,0.13,0.04c0.03,0,0.07-0.01,0.1-0.03c0.27-0.15,1.08-0.49,1.57-0.34C50.29,44.23,50.41,44.17,50.44,44.06z"/>
	<path class="st11" d="M53.17,44.15c-0.09,0-0.16,0.04-0.2,0.11c-0.91,1.69-2.75,1.81-2.77,1.81c-0.12,0.01-0.21,0.11-0.2,0.22
		c0.01,0.12,0.11,0.21,0.22,0.2c0.08,0,1.82-0.11,2.89-1.66c0.28,0.74,0.81,2.38,0.52,3.43c-0.35-0.1-1.02-0.27-1.35-0.18
		c-0.11,0.03-0.18,0.15-0.15,0.26c0.03,0.11,0.15,0.18,0.26,0.15c0.22-0.06,0.89,0.1,1.31,0.24c0.02,0.01,0.04,0.01,0.06,0.01
		c0.08,0,0.16-0.05,0.2-0.13c0.6-1.49-0.56-4.21-0.61-4.33C53.32,44.2,53.25,44.15,53.17,44.15z"/>
	<path class="st1" d="M63.8,22.11c-0.06,1.05-0.55,1.93-1.45,2.6c-0.09,0.07-0.11,0.2-0.04,0.3c0.04,0.06,0.11,0.08,0.17,0.08
		c0.04,0,0.09-0.01,0.13-0.04c1.01-0.75,1.55-1.74,1.62-2.92c0.22-3.89-4.8-8.63-5.01-8.83c-0.09-0.08-0.22-0.08-0.3,0.01
		c-0.08,0.09-0.08,0.22,0.01,0.3C58.97,13.66,64,18.42,63.8,22.11z"/>
	<path class="st1" d="M95.71,115.44c-0.01-0.06,0-0.12,0.04-0.17l0.99-1.26l-1.71,0.87c-0.07,0.04-0.16,0.03-0.23-0.02
		c-0.06-0.05-0.1-0.13-0.08-0.21l0.24-1.11l-0.88,1c-0.05,0.06-0.13,0.08-0.2,0.07c-0.07-0.02-0.14-0.07-0.16-0.14l-0.53-1.66
		l-0.11,2.14c0,0.07-0.05,0.14-0.11,0.17c-0.06,0.04-0.14,0.03-0.21,0l-1-0.57l0.73,0.85c0.04,0.04,0.06,0.1,0.05,0.16
		c0,0.06-0.03,0.11-0.08,0.15l-0.75,0.62l1.03-0.47c0.06-0.03,0.14-0.02,0.2,0.01c0.06,0.04,0.1,0.11,0.1,0.18v0.84l0.4-0.52
		c0.04-0.05,0.1-0.08,0.17-0.08c0.08,0,0.13,0.03,0.17,0.08l1.16,1.53l-0.45-1.53c-0.02-0.08,0-0.17,0.07-0.22
		c0.06-0.05,0.16-0.06,0.23-0.03l0.4,0.2l-0.14-0.23c-0.04-0.07-0.04-0.16,0.01-0.23c0.05-0.07,0.13-0.1,0.22-0.08l1.23,0.27
		l-0.71-0.45C95.76,115.55,95.72,115.49,95.71,115.44z"/>
	<path class="st11" d="M97.78,116.32l-1.55-0.97l1.44-1.83c0.06-0.08,0.06-0.19,0-0.27c-0.06-0.08-0.17-0.1-0.26-0.05l-2.17,1.11
		l0.31-1.47c0.02-0.09-0.03-0.19-0.11-0.23c-0.09-0.04-0.19-0.02-0.25,0.05l-1.17,1.33l-0.77-2.42c-0.03-0.1-0.13-0.16-0.23-0.15
		c-0.1,0.01-0.18,0.1-0.18,0.2l-0.15,2.96l-1.76-1c-0.09-0.05-0.2-0.03-0.27,0.05c-0.07,0.08-0.06,0.19,0,0.27l1.39,1.61l-1.82,1.51
		c-0.08,0.07-0.1,0.19-0.04,0.28c0.06,0.09,0.17,0.12,0.27,0.08l2.2-1v1.13c0,0.09,0.06,0.17,0.14,0.2c0.09,0.03,0.18,0,0.24-0.07
		l0.61-0.79l1.7,2.23c0.04,0.05,0.1,0.08,0.17,0.08c0.03,0,0.07-0.01,0.1-0.02c0.09-0.05,0.14-0.15,0.11-0.25l-0.65-2.17l0.63,0.32
		c0.08,0.04,0.19,0.02,0.25-0.05c0.06-0.07,0.07-0.17,0.02-0.25l-0.27-0.44l1.93,0.43c0.1,0.02,0.2-0.03,0.24-0.13
		C97.9,116.48,97.86,116.37,97.78,116.32z M95.29,115.75c-0.08-0.02-0.17,0.01-0.22,0.08c-0.05,0.07-0.05,0.16-0.01,0.23l0.14,0.23
		l-0.4-0.2c-0.08-0.04-0.17-0.03-0.23,0.03c-0.06,0.05-0.09,0.14-0.07,0.22l0.45,1.53l-1.16-1.53c-0.04-0.05-0.09-0.08-0.17-0.08
		c-0.07,0-0.13,0.03-0.17,0.08l-0.4,0.52v-0.84c0-0.07-0.04-0.14-0.1-0.18c-0.06-0.04-0.14-0.04-0.2-0.01l-1.03,0.47l0.75-0.62
		c0.04-0.04,0.07-0.09,0.08-0.15c0-0.06-0.01-0.11-0.05-0.16l-0.73-0.85l1,0.57c0.06,0.04,0.14,0.04,0.21,0
		c0.06-0.04,0.11-0.1,0.11-0.17l0.11-2.14l0.53,1.66c0.02,0.07,0.08,0.13,0.16,0.14c0.08,0.02,0.15-0.01,0.2-0.07l0.88-1l-0.24,1.11
		c-0.02,0.08,0.01,0.16,0.08,0.21c0.06,0.05,0.15,0.06,0.23,0.02l1.71-0.87l-0.99,1.26c-0.04,0.05-0.05,0.11-0.04,0.17
		s0.05,0.11,0.1,0.14l0.71,0.45L95.29,115.75z"/>
	<path class="st1" d="M32.82,101.42l-0.28-0.47c-0.04-0.06-0.04-0.14-0.01-0.2c0.03-0.06,0.09-0.11,0.17-0.12l0.52-0.06l-0.33-0.2
		c-0.06-0.03-0.09-0.09-0.1-0.16c-0.01-0.07,0.02-0.13,0.06-0.18l0.91-0.88l-0.93,0.4c-0.08,0.03-0.17,0.02-0.23-0.04
		c-0.06-0.06-0.08-0.15-0.05-0.23l0.07-0.18l-0.04,0.03c-0.07,0.05-0.16,0.06-0.23,0.02c-0.07-0.04-0.12-0.12-0.11-0.21l0.07-0.73
		l-0.17,0.36c-0.03,0.05-0.07,0.09-0.13,0.11c-0.06,0.02-0.12,0.01-0.17-0.02l-0.9-0.55l0.72,1.08c0.05,0.07,0.05,0.16,0.01,0.23
		c-0.04,0.07-0.12,0.11-0.2,0.1l-0.72-0.07l0.72,0.5c0.06,0.04,0.1,0.12,0.09,0.19c-0.01,0.08-0.05,0.14-0.12,0.17l-1.02,0.46
		l1.43-0.09c0,0,0.01,0,0.01,0c0.07,0,0.13,0.03,0.17,0.09c0.04,0.06,0.05,0.14,0.02,0.2l-0.25,0.59l0.42-0.46
		c0.04-0.04,0.09-0.07,0.15-0.07c0.06,0,0.11,0.02,0.15,0.06L32.82,101.42z"/>
	<path class="st11" d="M33.68,102.84c0.04,0.04,0.09,0.06,0.15,0.06c0.05,0,0.09-0.02,0.13-0.05c0.08-0.07,0.1-0.18,0.05-0.27
		l-0.95-1.56l0.81-0.09c0.09-0.01,0.16-0.08,0.18-0.17s-0.02-0.18-0.1-0.23l-0.62-0.37l1.55-1.49c0.07-0.07,0.09-0.18,0.03-0.27
		c-0.06-0.09-0.17-0.12-0.26-0.08l-1.54,0.66l0.15-0.42c0.03-0.09,0-0.19-0.08-0.24c-0.08-0.06-0.18-0.05-0.25,0.01L32.7,98.5
		l0.15-1.44c0.01-0.1-0.05-0.2-0.15-0.22c-0.1-0.03-0.2,0.02-0.25,0.11l-0.6,1.25l-1.52-0.93c-0.08-0.05-0.19-0.04-0.26,0.03
		c-0.07,0.07-0.08,0.18-0.02,0.26l1.01,1.52l-1.08-0.1c-0.1-0.01-0.19,0.05-0.22,0.14c-0.03,0.09,0,0.19,0.08,0.25l1.08,0.74
		l-1.75,0.79c-0.09,0.04-0.14,0.14-0.12,0.24c0.02,0.1,0.12,0.17,0.22,0.16l2.25-0.14l-0.59,1.4c-0.04,0.09-0.01,0.2,0.08,0.26
		c0.09,0.06,0.2,0.04,0.27-0.03l1.1-1.2L33.68,102.84z M32.21,101.14l-0.42,0.46l0.25-0.59c0.03-0.07,0.02-0.15-0.02-0.2
		c-0.04-0.06-0.1-0.09-0.17-0.09c0,0-0.01,0-0.01,0l-1.43,0.09l1.02-0.46c0.07-0.03,0.12-0.1,0.12-0.17
		c0.01-0.08-0.03-0.15-0.09-0.19l-0.72-0.5l0.72,0.07c0.08,0.01,0.16-0.03,0.2-0.1c0.04-0.07,0.04-0.16-0.01-0.23l-0.72-1.08
		l0.9,0.55c0.05,0.03,0.11,0.04,0.17,0.02c0.06-0.02,0.1-0.06,0.13-0.11l0.17-0.36l-0.07,0.73c-0.01,0.08,0.03,0.17,0.11,0.21
		c0.07,0.04,0.17,0.03,0.23-0.02l0.04-0.03l-0.07,0.18c-0.03,0.08-0.01,0.17,0.05,0.23c0.06,0.06,0.15,0.07,0.23,0.04l0.93-0.4
		l-0.91,0.88c-0.05,0.05-0.07,0.11-0.06,0.18c0.01,0.07,0.04,0.12,0.1,0.16l0.33,0.2l-0.52,0.06c-0.07,0.01-0.13,0.05-0.17,0.12
		c-0.03,0.06-0.03,0.14,0.01,0.2l0.28,0.47l-0.31-0.29c-0.04-0.04-0.1-0.06-0.15-0.06C32.3,101.07,32.25,101.1,32.21,101.14z"/>
	<path class="st1" d="M75.55,22.5c0.06,0.04,0.1,0.11,0.1,0.18v2.81l1.46-1.89c0.04-0.05,0.1-0.08,0.17-0.08c0,0,0,0,0,0
		c0.07,0,0.13,0.03,0.17,0.08l3.7,4.86l-1.52-5.11c-0.02-0.08,0-0.17,0.07-0.22c0.06-0.05,0.16-0.06,0.23-0.03l1.85,0.93l-0.87-1.41
		c-0.04-0.07-0.04-0.16,0.01-0.23c0.05-0.07,0.13-0.1,0.22-0.08l4.52,1l-3.08-1.94c-0.05-0.03-0.09-0.08-0.1-0.14s0-0.12,0.04-0.17
		l3.14-4l-5.19,2.66c-0.07,0.04-0.16,0.03-0.23-0.02c-0.06-0.05-0.1-0.13-0.08-0.21l0.78-3.7l-2.8,3.18
		c-0.05,0.06-0.13,0.08-0.2,0.07c-0.07-0.02-0.14-0.07-0.16-0.14l-1.72-5.43l-0.35,6.62c0,0.07-0.05,0.14-0.11,0.17
		c-0.06,0.04-0.14,0.03-0.21,0l-3.8-2.15l2.81,3.26c0.04,0.04,0.06,0.1,0.05,0.16c0,0.06-0.03,0.11-0.08,0.15l-3.45,2.85l4.42-2.02
		C75.41,22.46,75.49,22.46,75.55,22.5z"/>
	<path class="st11" d="M69.64,25.56l5.58-2.55v3.1c0,0.09,0.06,0.17,0.14,0.2c0.09,0.03,0.18,0,0.24-0.07l1.67-2.16l4.23,5.56
		c0.04,0.05,0.1,0.08,0.17,0.08c0.03,0,0.07-0.01,0.1-0.02c0.09-0.05,0.14-0.15,0.11-0.25l-1.71-5.75l2.08,1.04
		c0.08,0.04,0.19,0.02,0.25-0.05c0.06-0.07,0.07-0.17,0.02-0.25l-1-1.62l5.22,1.15c0.1,0.02,0.2-0.03,0.24-0.13
		c0.04-0.1,0-0.2-0.08-0.26l-3.92-2.46l3.6-4.58c0.06-0.08,0.06-0.19,0-0.27c-0.06-0.08-0.17-0.1-0.26-0.05l-5.66,2.89l0.86-4.05
		c0.02-0.09-0.03-0.19-0.11-0.23c-0.09-0.04-0.19-0.02-0.25,0.05l-3.08,3.51l-1.96-6.19c-0.03-0.1-0.13-0.16-0.23-0.15
		c-0.1,0.01-0.18,0.1-0.18,0.2l-0.39,7.45l-4.56-2.59c-0.09-0.05-0.2-0.03-0.27,0.05c-0.07,0.08-0.06,0.19,0,0.27l3.46,4.02
		l-4.53,3.74c-0.08,0.07-0.1,0.19-0.04,0.28C69.43,25.57,69.54,25.6,69.64,25.56z M74.38,21.65c0.04-0.04,0.07-0.09,0.08-0.15
		c0-0.06-0.01-0.11-0.05-0.16l-2.81-3.26l3.8,2.15c0.06,0.04,0.14,0.04,0.21,0c0.06-0.04,0.11-0.1,0.11-0.17l0.35-6.62l1.72,5.43
		c0.02,0.07,0.08,0.13,0.16,0.14c0.08,0.02,0.15-0.01,0.2-0.07l2.8-3.18l-0.78,3.7c-0.02,0.08,0.01,0.16,0.08,0.21
		c0.06,0.05,0.15,0.06,0.23,0.02l5.19-2.66l-3.14,4c-0.04,0.05-0.05,0.11-0.04,0.17s0.05,0.11,0.1,0.14l3.08,1.94l-4.52-1
		c-0.08-0.02-0.17,0.01-0.22,0.08c-0.05,0.07-0.05,0.16-0.01,0.23l0.87,1.41l-1.85-0.93c-0.08-0.04-0.17-0.03-0.23,0.03
		c-0.06,0.05-0.09,0.14-0.07,0.22l1.52,5.11l-3.7-4.86c-0.04-0.05-0.1-0.08-0.17-0.08c0,0,0,0,0,0c-0.07,0-0.13,0.03-0.17,0.08
		l-1.46,1.89v-2.81c0-0.07-0.04-0.14-0.1-0.18c-0.06-0.04-0.14-0.04-0.2-0.01l-4.42,2.02L74.38,21.65z"/>
	<path class="st1" d="M82.66,112.84c0.03,0,0.05,0,0.08,0.01c0.05,0.02,0.1,0.06,0.12,0.11l0.39,0.9l0.07-0.89
		c0.01-0.11,0.1-0.19,0.21-0.19h1.71l-1.46-0.64c-0.08-0.03-0.13-0.11-0.13-0.19v-1.16l-0.52,0.91c-0.03,0.06-0.09,0.09-0.15,0.1
		c-0.06,0.01-0.13-0.01-0.18-0.05l-0.65-0.6l0.33,1.16c0.02,0.07,0,0.15-0.05,0.2l-0.72,0.74l0.86-0.39
		C82.61,112.84,82.64,112.84,82.66,112.84z"/>
	<path class="st11" d="M80.63,114.01c0.06,0.08,0.17,0.11,0.26,0.07l1.67-0.75l0.64,1.48c0.03,0.08,0.11,0.13,0.19,0.13
		c0.01,0,0.02,0,0.03,0c0.1-0.02,0.17-0.1,0.18-0.19l0.12-1.54h2.53c0.1,0,0.19-0.07,0.21-0.17c0.02-0.1-0.03-0.2-0.12-0.24
		l-2.27-0.99v-1.82c0-0.1-0.06-0.18-0.16-0.2c-0.09-0.03-0.19,0.02-0.24,0.1l-0.78,1.36l-1.01-0.94c-0.07-0.07-0.17-0.08-0.25-0.03
		c-0.08,0.05-0.12,0.15-0.09,0.24l0.5,1.78l-1.4,1.44C80.58,113.81,80.57,113.92,80.63,114.01z M82.44,112.5
		c0.05-0.05,0.07-0.13,0.05-0.2l-0.33-1.16l0.65,0.6c0.05,0.04,0.11,0.06,0.18,0.05c0.06-0.01,0.12-0.05,0.15-0.1l0.52-0.91v1.16
		c0,0.08,0.05,0.16,0.13,0.19l1.46,0.64h-1.71c-0.11,0-0.2,0.08-0.21,0.19l-0.07,0.89l-0.39-0.9c-0.02-0.05-0.06-0.09-0.12-0.11
		c-0.02-0.01-0.05-0.01-0.08-0.01c-0.03,0-0.06,0.01-0.09,0.02l-0.86,0.39L82.44,112.5z"/>
	<path class="st1" d="M104.99,45.65v-3.42l-1.58,2.75c-0.03,0.06-0.09,0.09-0.15,0.1c-0.07,0.01-0.13-0.01-0.18-0.05l-2.03-1.9
		l0.95,3.35c0.02,0.07,0,0.15-0.05,0.2l-2.43,2.51l3.01-1.35c0.03-0.01,0.06-0.02,0.09-0.02c0.03,0,0.05,0,0.08,0.01
		c0.05,0.02,0.1,0.06,0.12,0.11l1.23,2.83l0.23-2.9c0.01-0.11,0.1-0.19,0.21-0.19h4.86l-4.23-1.84
		C105.04,45.81,104.99,45.73,104.99,45.65z"/>
	<path class="st11" d="M105.41,41.43c0-0.1-0.06-0.18-0.16-0.2c-0.09-0.02-0.19,0.02-0.24,0.1l-1.84,3.2l-2.39-2.23
		c-0.07-0.07-0.17-0.08-0.25-0.03c-0.08,0.05-0.12,0.15-0.09,0.24l1.12,3.96l-3.11,3.21c-0.07,0.07-0.08,0.19-0.02,0.27
		c0.06,0.08,0.17,0.11,0.26,0.07l3.82-1.71l1.48,3.41c0.03,0.08,0.11,0.13,0.19,0.13c0.01,0,0.02,0,0.03,0
		c0.1-0.02,0.17-0.1,0.18-0.19l0.29-3.55h5.68c0.1,0,0.19-0.07,0.21-0.17c0.02-0.1-0.03-0.2-0.12-0.24l-5.03-2.19V41.43z
		 M104.48,47.68c-0.11,0-0.2,0.08-0.21,0.19l-0.23,2.9l-1.23-2.83c-0.02-0.05-0.06-0.09-0.12-0.11c-0.02-0.01-0.05-0.01-0.08-0.01
		c-0.03,0-0.06,0.01-0.09,0.02l-3.01,1.35l2.43-2.51c0.05-0.05,0.07-0.13,0.05-0.2l-0.95-3.35l2.03,1.9
		c0.05,0.04,0.11,0.06,0.18,0.05c0.06-0.01,0.12-0.05,0.15-0.1l1.58-2.75v3.42c0,0.08,0.05,0.16,0.13,0.19l4.23,1.84H104.48z"/>
	<path class="st1" d="M20.55,42.97l-4.23-1.84c-0.08-0.03-0.13-0.11-0.13-0.19v-3.42l-1.58,2.75c-0.03,0.06-0.09,0.09-0.15,0.1
		c-0.07,0.01-0.13-0.01-0.18-0.05l-2.03-1.9l0.95,3.35c0.02,0.07,0,0.15-0.05,0.2l-2.43,2.51l3.01-1.35
		c0.03-0.01,0.06-0.02,0.09-0.02c0.03,0,0.05,0,0.08,0.01c0.05,0.02,0.1,0.06,0.12,0.11l1.23,2.83l0.23-2.9
		c0.01-0.11,0.1-0.19,0.21-0.19H20.55z"/>
	<path class="st11" d="M21.77,43.22c0.02-0.1-0.03-0.2-0.12-0.24l-5.03-2.19v-4.08c0-0.1-0.06-0.18-0.16-0.2
		c-0.09-0.02-0.19,0.02-0.24,0.1l-1.84,3.21l-2.39-2.23c-0.07-0.07-0.17-0.08-0.25-0.03c-0.08,0.05-0.12,0.15-0.09,0.24l1.12,3.96
		l-3.11,3.21c-0.07,0.07-0.08,0.19-0.02,0.27c0.06,0.08,0.17,0.11,0.26,0.07l3.82-1.71l1.48,3.41c0.03,0.08,0.11,0.13,0.19,0.13
		c0.01,0,0.02,0,0.03,0c0.1-0.02,0.17-0.09,0.18-0.19l0.29-3.55h5.68C21.66,43.39,21.75,43.32,21.77,43.22z M15.47,43.16l-0.23,2.9
		l-1.23-2.83c-0.02-0.05-0.06-0.09-0.12-0.11c-0.02-0.01-0.05-0.01-0.08-0.01c-0.03,0-0.06,0.01-0.09,0.02l-3.01,1.35l2.43-2.51
		c0.05-0.05,0.07-0.13,0.05-0.2l-0.95-3.35l2.03,1.9c0.05,0.04,0.11,0.06,0.18,0.05c0.06-0.01,0.12-0.05,0.15-0.1l1.58-2.75v3.42
		c0,0.08,0.05,0.16,0.13,0.19l4.23,1.84h-4.86C15.58,42.97,15.48,43.05,15.47,43.16z"/>
	<path class="st1" d="M38.27,5.38l-1.94,3.8l3.41-2.89c0.05-0.04,0.12-0.06,0.18-0.04l4.58,1.06L40.86,4.3
		c-0.08-0.06-0.1-0.17-0.05-0.26l1.5-2.94l-2.66,2.34c-0.06,0.05-0.14,0.07-0.21,0.04l-5.29-1.89l4.08,3.54
		C38.29,5.19,38.31,5.3,38.27,5.38z"/>
	<path class="st11" d="M37.81,5.34l-2.34,4.59c-0.05,0.09-0.02,0.2,0.06,0.26c0.04,0.03,0.08,0.05,0.13,0.05
		c0.05,0,0.1-0.02,0.14-0.05l4.13-3.5l5.35,1.24c0.1,0.02,0.19-0.02,0.24-0.11c0.04-0.09,0.02-0.19-0.05-0.26l-4.21-3.48l1.93-3.78
		c0.05-0.09,0.02-0.2-0.06-0.26c-0.08-0.06-0.19-0.06-0.27,0.01l-3.4,2.99l-6.23-2.22c-0.1-0.03-0.2,0-0.25,0.09
		c-0.05,0.09-0.03,0.2,0.04,0.27L37.81,5.34z M39.43,3.48c0.07,0.03,0.15,0.01,0.21-0.04l2.66-2.34l-1.5,2.94
		c-0.05,0.09-0.02,0.2,0.05,0.26l3.65,3.01l-4.58-1.06c-0.07-0.02-0.13,0-0.18,0.04l-3.41,2.89l1.94-3.8
		c0.04-0.09,0.02-0.19-0.05-0.26l-4.08-3.54L39.43,3.48z"/>
	<path class="st11" d="M62.02,1.82l-0.57,1.11c-0.05,0.09-0.02,0.2,0.06,0.26c0.04,0.03,0.08,0.05,0.13,0.05
		c0.05,0,0.1-0.02,0.14-0.05l1.04-0.88l1.35,0.31c0.1,0.02,0.19-0.02,0.24-0.11c0.04-0.09,0.02-0.19-0.05-0.26L63.33,1.4l0.46-0.89
		c0.05-0.09,0.02-0.2-0.06-0.26c-0.08-0.06-0.19-0.06-0.27,0.01l-0.83,0.73l-1.57-0.56c-0.1-0.03-0.2,0-0.25,0.09
		c-0.05,0.09-0.03,0.2,0.04,0.27L62.02,1.82z M62.6,1.43c0.07,0.03,0.15,0.01,0.21-0.04l0.1-0.09l-0.03,0.06
		c-0.05,0.09-0.02,0.2,0.05,0.26L63.39,2l-0.58-0.13c-0.07-0.01-0.13,0-0.18,0.04l-0.32,0.27l0.16-0.32
		c0.04-0.09,0.02-0.19-0.05-0.26l-0.46-0.4L62.6,1.43z"/>
	<path class="st1" d="M95.17,37.28l-0.73,1.44l1.31-1.11c0.05-0.04,0.12-0.06,0.18-0.04L97.79,38l-1.49-1.23
		c-0.08-0.06-0.1-0.17-0.05-0.26l0.5-0.99l-0.92,0.81c-0.06,0.05-0.14,0.07-0.21,0.04l-2.13-0.76l1.62,1.41
		C95.19,37.09,95.21,37.19,95.17,37.28z"/>
	<path class="st11" d="M94.72,37.24l-1.14,2.23c-0.05,0.09-0.02,0.2,0.06,0.26c0.04,0.03,0.08,0.05,0.13,0.05
		c0.05,0,0.1-0.02,0.14-0.05L95.94,38l2.64,0.61c0.1,0.02,0.19-0.02,0.24-0.11c0.04-0.09,0.02-0.19-0.05-0.26l-2.05-1.69l0.93-1.82
		c0.05-0.09,0.02-0.2-0.06-0.26c-0.08-0.06-0.19-0.06-0.27,0.01l-1.66,1.46l-3.07-1.1c-0.1-0.03-0.2,0-0.25,0.09
		c-0.05,0.09-0.03,0.2,0.04,0.27L94.72,37.24z M95.63,36.38c0.07,0.03,0.15,0.01,0.21-0.04l0.92-0.81l-0.5,0.99
		c-0.05,0.09-0.02,0.2,0.05,0.26L97.79,38l-1.87-0.43c-0.07-0.02-0.13,0-0.18,0.04l-1.31,1.11l0.73-1.44
		c0.04-0.09,0.02-0.19-0.05-0.26l-1.62-1.41L95.63,36.38z"/>
	<path class="st1" d="M38.04,52.86l-1.14-1.15l0.65,1.59c0.03,0.06,0.02,0.13-0.02,0.19l-0.99,1.64l1.63-1.03
		c0.08-0.05,0.19-0.04,0.26,0.03l0.78,0.79l-0.48-1.13c-0.03-0.07-0.02-0.15,0.03-0.21l1.38-1.79l-1.84,1.1
		C38.22,52.94,38.11,52.93,38.04,52.86z"/>
	<path class="st11" d="M41.16,50.89c-0.07-0.08-0.18-0.09-0.27-0.04l-2.67,1.6l-1.77-1.78c-0.07-0.07-0.18-0.08-0.27-0.03
		c-0.08,0.06-0.12,0.16-0.08,0.26l1,2.47l-1.4,2.31c-0.05,0.08-0.04,0.19,0.03,0.26s0.18,0.08,0.26,0.03l2.24-1.42L39.69,56
		c0.04,0.04,0.1,0.06,0.15,0.06c0.04,0,0.08-0.01,0.12-0.04c0.08-0.06,0.12-0.17,0.08-0.26l-0.87-2.03l2-2.58
		C41.23,51.08,41.22,50.97,41.16,50.89z M38.76,53.57c-0.05,0.06-0.06,0.14-0.03,0.21l0.48,1.13l-0.78-0.79
		c-0.07-0.07-0.18-0.08-0.26-0.03l-1.63,1.03l0.99-1.64c0.03-0.06,0.04-0.13,0.02-0.19l-0.65-1.59l1.14,1.15
		c0.07,0.07,0.18,0.08,0.26,0.03l1.84-1.1L38.76,53.57z"/>
	<path class="st1" d="M29.05,30.4c0.05,0,0.11,0.02,0.14,0.06l1.4,1.31l-0.67-1.81c-0.03-0.09,0-0.2,0.08-0.25l0.93-0.6l-1.21,0.24
		c-0.07,0.01-0.15-0.01-0.2-0.07l-1.46-1.73l0.7,2.03c0.03,0.09,0,0.19-0.09,0.25l-1.36,0.88l1.69-0.3
		C29.03,30.4,29.04,30.4,29.05,30.4z"/>
	<path class="st11" d="M26.36,31.31l2.62-0.47l1.97,1.85c0.04,0.04,0.09,0.06,0.14,0.06c0.04,0,0.08-0.01,0.12-0.04
		c0.08-0.05,0.12-0.16,0.08-0.25l-0.92-2.49l1.72-1.11c0.09-0.05,0.12-0.16,0.08-0.26c-0.04-0.09-0.14-0.15-0.24-0.13l-2.17,0.43
		l-2.1-2.49c-0.07-0.08-0.18-0.1-0.27-0.05c-0.09,0.05-0.13,0.16-0.1,0.25l1.01,2.94l-2.1,1.36c-0.08,0.05-0.12,0.16-0.08,0.26
		C26.16,31.27,26.26,31.32,26.36,31.31z M28.68,29.83c0.08-0.05,0.12-0.15,0.09-0.25l-0.7-2.03l1.46,1.73
		c0.05,0.06,0.13,0.09,0.2,0.07l1.21-0.24l-0.93,0.6c-0.08,0.05-0.12,0.16-0.08,0.25l0.67,1.81l-1.4-1.31
		c-0.04-0.04-0.09-0.06-0.14-0.06c-0.01,0-0.02,0-0.04,0l-1.69,0.3L28.68,29.83z"/>
	<path class="st1" d="M79.11,42.31l-1.14-1.15l0.65,1.59c0.02,0.06,0.02,0.13-0.02,0.19l-0.99,1.64l1.63-1.03
		c0.08-0.05,0.19-0.04,0.26,0.03l0.78,0.79l-0.48-1.13c-0.03-0.07-0.02-0.15,0.03-0.21l1.38-1.79l-1.84,1.1
		C79.29,42.39,79.18,42.38,79.11,42.31z"/>
	<path class="st11" d="M82.23,40.34c-0.07-0.08-0.18-0.09-0.27-0.04l-2.67,1.6l-1.77-1.78c-0.07-0.07-0.18-0.08-0.27-0.03
		c-0.08,0.06-0.12,0.16-0.08,0.26l1,2.47l-1.4,2.31c-0.05,0.08-0.04,0.19,0.03,0.26c0.07,0.07,0.18,0.08,0.26,0.03L79.32,44
		l1.44,1.45c0.04,0.04,0.1,0.06,0.15,0.06c0.04,0,0.08-0.01,0.12-0.04c0.08-0.06,0.12-0.17,0.08-0.26l-0.87-2.03l2-2.58
		C82.3,40.53,82.3,40.41,82.23,40.34z M79.83,43.02c-0.05,0.06-0.06,0.14-0.03,0.21l0.48,1.13l-0.78-0.79
		c-0.07-0.07-0.18-0.08-0.26-0.03l-1.63,1.03l0.99-1.64c0.03-0.06,0.04-0.13,0.02-0.19l-0.65-1.59l1.14,1.15
		c0.07,0.07,0.18,0.08,0.26,0.03l1.84-1.1L79.83,43.02z"/>
	<path class="st1" d="M25.51,103.42c-0.07-0.02-0.13-0.08-0.15-0.15l-0.55-2.19l-0.27,2.13c-0.01,0.1-0.09,0.17-0.18,0.18
		l-1.61,0.19l1.65,0.47c0.06,0.02,0.12,0.07,0.14,0.13l0.68,1.79l0.19-1.92c0.01-0.1,0.09-0.18,0.19-0.19l1.1-0.13L25.51,103.42z"/>
	<path class="st11" d="M27.87,103.61l-2.14-0.57l-0.8-3.16c-0.03-0.1-0.12-0.17-0.22-0.16c-0.1,0.01-0.18,0.08-0.2,0.18l-0.39,3.08
		l-2.49,0.3c-0.1,0.01-0.18,0.09-0.19,0.19c-0.01,0.1,0.06,0.19,0.15,0.22l2.56,0.73l0.96,2.53c0.03,0.08,0.11,0.14,0.2,0.14
		c0.01,0,0.02,0,0.03,0c0.1-0.01,0.17-0.09,0.18-0.19l0.27-2.64l2.03-0.24c0.1-0.01,0.18-0.09,0.19-0.2
		C28.04,103.73,27.97,103.64,27.87,103.61z M25.41,104.05l-0.19,1.92l-0.68-1.79c-0.02-0.06-0.08-0.11-0.14-0.13l-1.65-0.47
		l1.61-0.19c0.1-0.01,0.17-0.09,0.18-0.18l0.27-2.13l0.55,2.19c0.02,0.07,0.08,0.13,0.15,0.15l1.19,0.32l-1.1,0.13
		C25.5,103.88,25.42,103.96,25.41,104.05z"/>
	<path class="st1" d="M93.66,59.06c0.06,0.02,0.12,0.07,0.14,0.13l0.68,1.79l0.19-1.92c0.01-0.1,0.09-0.18,0.19-0.19l1.1-0.13
		l-1.19-0.32c-0.07-0.02-0.13-0.08-0.15-0.15l-0.55-2.19l-0.27,2.13c-0.01,0.1-0.09,0.17-0.18,0.18l-1.61,0.19L93.66,59.06z"/>
	<path class="st11" d="M90.88,58.71l2.56,0.73l0.96,2.53c0.03,0.08,0.11,0.14,0.2,0.14c0.01,0,0.02,0,0.03,0
		c0.1-0.01,0.17-0.09,0.18-0.19l0.27-2.64l2.03-0.24c0.1-0.01,0.18-0.09,0.19-0.2c0.01-0.1-0.06-0.19-0.16-0.22L95,58.05l-0.8-3.16
		c-0.03-0.1-0.12-0.17-0.22-0.16c-0.1,0.01-0.18,0.08-0.2,0.18L93.4,58l-2.49,0.3c-0.1,0.01-0.18,0.09-0.19,0.19
		C90.72,58.59,90.78,58.68,90.88,58.71z M93.8,58.21l0.27-2.13l0.55,2.19c0.02,0.07,0.08,0.13,0.15,0.15l1.19,0.32l-1.1,0.13
		c-0.1,0.01-0.18,0.09-0.19,0.19l-0.19,1.92l-0.68-1.79c-0.02-0.06-0.08-0.11-0.14-0.13l-1.65-0.47l1.61-0.19
		C93.71,58.39,93.79,58.31,93.8,58.21z"/>
	<path class="st11" d="M25.31,59.44c0.65-0.1,0.95-1.68,0.95-1.68c-0.24-1.17,0.07-4-0.02-4.74c-0.08-0.75,0.6-2.18,0.6-2.18
		c-0.65-1.9-2.26-1-2.4-0.78c-0.14,0.22,0,2.3-0.1,2.87c-0.1,0.58-0.88,1.15-0.88,1.15c-0.91,1.5,0.23,4.13,0.23,4.13
		C23.78,59.04,24.67,59.54,25.31,59.44z"/>
	<path class="st11" d="M131.42,77.83c0.65-0.1,0.95-1.68,0.95-1.68c-0.24-1.17,0.07-4-0.02-4.74c-0.09-0.75,0.6-2.18,0.6-2.18
		c-0.65-1.9-2.26-1-2.4-0.78c-0.14,0.22,0,2.3-0.1,2.87c-0.1,0.58-0.88,1.15-0.88,1.15c-0.91,1.5,0.23,4.13,0.23,4.13
		C129.88,77.43,130.77,77.93,131.42,77.83z"/>
	<path class="st11" d="M113.28,61.57c3.24-0.59,4.03,3.16,4.06,3.32c0.02,0.1,0.11,0.17,0.21,0.17c0.01,0,0.03,0,0.04,0
		c0.11-0.02,0.19-0.13,0.17-0.25c-0.01-0.04-0.9-4.32-4.55-3.66c-0.12,0.02-0.19,0.13-0.17,0.25
		C113.06,61.51,113.17,61.59,113.28,61.57z"/>
	<path class="st11" d="M106.83,23.34c0,0,0.14-2.72,2.04-6.26c0,0,0.88-3.67-1.7-2.24c0,0-2.75,2.66-2.11,6.53
		c0,0-1.36,4.08-5.1,5.3C99.96,26.67,103.97,29.39,106.83,23.34z"/>
	<path class="st11" d="M21.91,133.63c0.64-3.87-2.11-6.53-2.11-6.53c-2.58-1.43-1.7,2.24-1.7,2.24c1.9,3.54,2.04,6.26,2.04,6.26
		c2.86,6.05,6.87,3.33,6.87,3.33C23.27,137.71,21.91,133.63,21.91,133.63z"/>
	<path class="st11" d="M85.7,50.09c0,0,2.04,1,2.95,0c0,0,1.13-5.26-2.4-3.04C86.25,47.05,83.3,48.01,85.7,50.09z"/>
	<path class="st11" d="M12.05,80.54c0,0-2.95,0.95-0.54,3.04c0,0,2.04,1,2.95,0C14.45,83.58,15.59,78.32,12.05,80.54z"/>
	<path class="st11" d="M92.66,106.69c0.18-3.9-3.45-1.36-3.45-1.36l0.85-0.48C90.96,109.13,92.66,106.69,92.66,106.69z"/>
	<path class="st11" d="M22.12,17.34c0.18-3.9-3.45-1.36-3.45-1.36l0.85-0.48C20.42,19.79,22.12,17.34,22.12,17.34z"/>
	<path class="st11" d="M67.29,114.06c-0.49-1.19-0.98-2.25-1.54-3.41C65.74,111.93,66.32,113.22,67.29,114.06z"/>
	<path class="st11" d="M68.83,114.06c-0.49-1.19-0.98-2.25-1.54-3.41C67.28,111.93,67.86,113.22,68.83,114.06z"/>
	<path class="st11" d="M65.75,109.1c1.26-0.05,2.5,0.07,3.72,0.37C68.29,109.04,66.99,108.91,65.75,109.1z"/>
	<path class="st11" d="M97.28,85.92c0.1-0.32,0.09-0.77,0.01-1.27l0,0c-0.09-0.84-0.25-1.5-0.25-1.53L97,83.04
		c-0.12-0.15-0.23-0.33-0.35-0.52c-0.35-0.84-0.78-1.6-1.15-2.04l0,0c-0.29-0.33-0.54-0.47-0.78-0.43
		c-0.12,0.02-0.19,0.13-0.18,0.24c0.02,0.12,0.13,0.19,0.24,0.18c0.04-0.01,0.18,0.05,0.39,0.29c0.13,0.14,0.25,0.32,0.38,0.53
		c-0.28,0.09-0.5,0.34-0.63,0.57c-1.15-0.07-1.76,0.11-1.92,0.54c-0.21,0.55,0.48,1.23,0.82,1.52c-0.32,0.58-0.37,1.06-0.16,1.43
		c0.41,0.71,1.64,0.71,1.83,0.71c0.04,0.01,0.11,0.02,0.21,0.02c0.3,0,0.82-0.09,1.23-0.63c-0.01,0.13-0.02,0.26-0.05,0.36
		c-0.03,0.11,0.03,0.23,0.14,0.26c0.02,0.01,0.04,0.01,0.06,0.01c0.02,0,0.04-0.01,0.07-0.02C97.21,86.03,97.26,85.99,97.28,85.92z
		 M95.56,85.63l-0.03-0.01l-0.03,0c-0.32,0.01-1.21-0.05-1.47-0.5c-0.15-0.26-0.07-0.65,0.24-1.15l0.1-0.16l-0.15-0.12
		c-0.4-0.31-0.93-0.89-0.83-1.15c0.03-0.09,0.25-0.35,1.64-0.26l0.15,0.01l0.06-0.13c0-0.01,0.23-0.47,0.49-0.49
		c0.17,0.39,0.35,0.74,0.54,1.04c0.27,0.65,0.48,1.34,0.59,1.93C96.45,85.82,95.6,85.64,95.56,85.63z"/>
</g>
</svg>
