<?xml version="1.0" encoding="utf-8"?>
<!-- Generator: Adobe Illustrator 27.1.0, SVG Export Plug-In . SVG Version: 6.00 Build 0)  -->
<svg version="1.1" id="Capa_1" xmlns="http://www.w3.org/2000/svg" xmlns:xlink="http://www.w3.org/1999/xlink" x="0px" y="0px"
	 width="450px" height="450px" viewBox="0 0 450 450" style="enable-background:new 0 0 450 450;" xml:space="preserve">
<style type="text/css">
	.st0{fill:none;}
	.st1{fill:#FFFFFF;}
	.st2{fill:#F2B705;}
	.st3{fill:#040423;}
	.st4{fill:#8C1F33;}
	.st5{fill:#5BA566;}
	.st6{fill:#F2E3CC;}
	.st7{fill:#F15A24;}
	.st8{fill:#400101;}
	.st9{fill:#FCFCFC;}
	.st10{fill:#122B05;}
	.st11{fill:#472FAD;}
	.st12{fill:#A64F03;}
	.st13{fill:#D98E04;}
	.st14{fill:#F2F2F2;}
	.st15{fill:#2FD812;}
	.st16{fill:#AA8D30;}
	.st17{fill:#B0EAB7;}
	.st18{fill:#111147;}
	.st19{fill:none;stroke:#472FAD;stroke-width:0;stroke-linecap:round;stroke-linejoin:round;}
	.st20{fill:#F2B705;stroke:#472FAD;stroke-miterlimit:10;}
	.st21{fill:#231A56;}
	.st22{fill:#EA0070;}
	.st23{fill:#158035;}
	.st24{fill:#F9B331;}
	.st25{opacity:0.4;}
	.st26{fill:#0F0E0D;}
	.st27{fill:#E0245E;}
	.st28{fill:#050535;}
	.st29{fill:#F2EBDF;}
</style>
<g>
	<path class="st0" d="M292.87,168.89c-0.1,0.21-0.19,0.43-0.28,0.64C292.68,169.31,292.77,169.1,292.87,168.89z"/>
	<path class="st0" d="M290.19,180.2c-0.52,1.69-1.1,3.41-1.67,5.2C289.09,183.67,289.66,181.94,290.19,180.2z"/>
	<path class="st0" d="M448.42,244.62c0.01,0.03,0.02,0.07,0.03,0.1C448.44,244.69,448.43,244.66,448.42,244.62z"/>
	<polygon class="st0" points="380.38,326.86 380.38,326.86 380.38,326.86 	"/>
	<polygon class="st0" points="346.21,244.19 346.21,244.19 346.21,244.2 346.21,244.2 	"/>
	<path class="st0" d="M154.44,257.49c-0.12-0.02-0.31,0.05-0.48,0.16c0.06,0,0.13,0.01,0.19,0.01L154.44,257.49z"/>
	<path class="st0" d="M389.11,401.6L389.11,401.6c-0.07-0.89-0.12-1.78-0.16-2.68C388.99,399.84,389.04,400.74,389.11,401.6z"/>
	<path class="st0" d="M125.09,94.37c0.21,0.24,0.43,0.48,0.64,0.73v0C125.73,95.09,125.51,94.83,125.09,94.37z"/>
	<polygon class="st0" points="371.02,186.21 371.02,186.21 371.02,186.21 	"/>
	<path class="st0" d="M101.39,171.33c0.16-0.07,0.31-0.15,0.47-0.22c0,0,0,0,0,0C101.7,171.18,101.54,171.25,101.39,171.33z"/>
	<path class="st0" d="M292.02,171.76L292.02,171.76L292.02,171.76c0.09-0.75,0.28-1.47,0.54-2.16
		C292.27,170.35,292.07,171.07,292.02,171.76z"/>
	<polygon class="st0" points="103.8,170.5 103.8,170.5 103.8,170.5 	"/>
	<path class="st0" d="M101.85,171.11c0.02-0.42,0.09-0.86,0.18-1.3C101.88,170.37,101.8,170.84,101.85,171.11z"/>
	<path class="st0" d="M308.33,84.48c-0.14,0.32-0.3,0.64-0.46,0.97C308.03,85.13,308.18,84.8,308.33,84.48z"/>
	<path class="st0" d="M299.1,128.71c0.11,1.2,0.17,2.51,0.15,3.94c0,0,0,0,0,0c0,0,0,0,0,0
		C299.28,131.37,299.24,130.04,299.1,128.71z"/>
	<path class="st15" d="M293.06,168.5c-0.03,0.05-0.05,0.11-0.08,0.16C293.01,168.61,293.03,168.56,293.06,168.5z"/>
	<path class="st15" d="M281.04,216.21c0.02-0.05,0.03-0.09,0.05-0.14C281.07,216.11,281.05,216.16,281.04,216.21
		C281.04,216.21,281.04,216.21,281.04,216.21z"/>
	<g>
		<path class="st6" d="M280.98,216.14c1.06-3.26,1.97-6.56,2.74-9.9c0.91-3.84,1.64-7.72,2.36-11.6c0.51-3.16,1.45-6.21,2.43-9.24
			c0.57-1.79,1.14-3.51,1.67-5.2c0.84-2.76,1.54-5.55,1.83-8.44h0c0.05-0.69,0.25-1.42,0.54-2.16c0.01-0.03,0.02-0.05,0.03-0.08
			c0.09-0.21,0.18-0.42,0.28-0.64c0.83-1.8,2.09-3.43,3.26-5c2.73-3.56,5.96-6.8,7.98-10.83c1.39-2.5,1.3-6.69-2.07-7.36
			c-1.19-0.34-2.75-0.09-3.91,0.1c-0.88,4.85-2.36,9.57-4.78,13.93c-4.87,7.82-10.66,18.15-21.51,15.68
			c-7.53-2.97-13.53-9.48-15.64-17.29c-0.14-0.57-0.47-1.98-0.6-2.52c-0.08-0.57-0.22-1.98-0.29-2.57c-0.18-1.68-0.1-3.45-0.06-5.13
			c0.17-3.24,0.68-6.59,1.55-9.83c-6.75-2.53-14.41-1.11-21.08,1.16c-0.12,0.04-0.24,0.04-0.35,0.03c-0.5,3.74-1.86,7.3-3.3,10.77
			c-2.35,5.49-4.61,11.57-9.85,14.97c-2.69,1.77-5.82,2.36-8.94,2.09c-0.18-0.01-0.36-0.04-0.54-0.06c-0.25-0.03-0.5-0.06-0.75-0.1
			c-0.26-0.04-0.53-0.09-0.8-0.14c-0.41-0.08-0.81-0.18-1.21-0.29c-0.04-0.01-0.08-0.02-0.12-0.03c-0.25-0.07-0.5-0.16-0.75-0.24
			c-0.11-0.04-0.22-0.07-0.34-0.11c-1.59-0.53-3.12-1.22-4.57-2.14c-2.1-1.94-3.89-4.11-5.55-6.4c-4.28-5.98-7.15-13.11-7.52-20.5
			c-0.01-0.69,0-1.37,0.01-2.03c-4.14,0.69-8.2,2.03-12.19,3.36c-0.77,1.74-1.61,3.44-2.5,5.12c-1.67,3.09-3.47,6.08-5.62,8.93
			c-0.2,0.26-0.53,0.37-0.83,0.31c-1.17-0.2-2.43-0.64-3.46-1.4c-0.04-0.04-0.08-0.07-0.12-0.1c-0.97-0.65-1.87-1.43-2.71-2.08
			c-1.65-1.05-3.43-1.79-5.44-2.3c-0.42,0.2-1.59,0.75-1.59,0.75c-0.35,0.16-0.74,0.08-1-0.17c-0.31-0.07-0.58-0.33-0.61-0.67
			c0,0-0.03-0.29-0.07-0.59c-4.12-0.1-7.38,3.15-8.85,6.87c-0.92,2.21-1.51,4.67-1.58,7.07c0.11,1.84,1,3.52,1.92,5.12
			c4.72,7.55,11.35,13.97,17.84,20.04c3.48,7.22,6.2,14.8,8.72,22.41c1.81,5.67,3.35,11.43,4.29,17.33
			c1.4,9.87,0.45,19.95-1.31,29.67c-0.08,0.4-0.16,0.8-0.24,1.2c-0.28,2.43-0.66,4.86-1.05,7.26c-0.03,0.27-0.21,0.47-0.44,0.57
			c-0.39,2-0.8,4-1.26,5.98c-0.31,1.66-0.67,3.3-1.13,4.89c-0.04,0.16-0.15,0.25-0.27,0.32c-0.25,0.81-0.52,1.61-0.81,2.4
			c5.32,5.81,12.63,9.72,19.51,13.49c3.15,1.73,7.74,3.84,11.05,5.34c3.13,1.39,8.05,3.76,11.22,5l5.66,2.34
			c5.61,2.08,11.88,2.82,17.75,1.57c7.87-1.64,13.78-7.97,18.63-14.07c-2.32-5.67-4.36-11.63-4.16-17.86
			c0.22-5.26,3.45-11.53,8.39-14.02c0.58-0.32,1.19-0.58,1.81-0.77c5.81-7.99,13.02-14.98,21.34-20.33
			c-0.05-0.13-1.22-3.12-1.83-4.67c-0.94-2.31-1.84-4.52-2.69-6.6c-0.07-0.01-0.15-0.03-0.22-0.06c-1.51,3.35-3.41,6.55-5.87,9.34
			c-2.73,2.88-5.32,5.72-7.84,8.78c-2.5,3.07-5.61,5.93-9.24,7.63c-3.61,1.82-7.39,3.11-11.17,4.34c-7.37,1.53-14.98,2.1-22.43,0.87
			c-12.6-5.72-24.65-13.96-32.38-25.63c8.17,10.71,21.22,18.8,32.68,23.91c7.08,1.11,14.94,0.45,21.66-0.89
			c7.38-2.31,14.92-4.85,19.89-11.1c2.6-2.93,5.4-5.79,8.26-8.44c2.57-2.56,4.6-5.63,6.39-8.83c-0.15-0.09-0.28-0.22-0.34-0.4
			c0,0-3.67-9.18-4.46-11.14l-30.54-9.31c-0.06-0.01-0.12-0.02-0.19-0.04l-5.06,10.54h0h0l0,0c0,0,0,0,0,0
			c-5.66,0.48-12.35-0.82-15.71-5.9c-1.13-1.73-1.62-3.8-1.72-5.8c-0.03-0.52,0.4-0.96,0.92-0.96c7.4,0.04,14.82-0.28,22.17-1.22
			c0.08-0.17,0.25-0.53,0.25-0.53c0.12-0.25,0.35-0.43,0.6-0.49c1.27-0.32,2.52-0.69,3.73-1.13c0.1-0.07,0.21-0.13,0.34-0.15
			c0.03-0.01,0.07-0.01,0.1-0.02c0,0-0.01-0.01-0.01-0.01c0.02,0,0.03,0,0.05,0.01c0.95-0.22,2.04-0.02,2.81-0.3
			c-0.29,0.12-0.6,0.46-0.93,0.83c8.06,3.18,22.41,8.84,29.74,11.75c0.2,0.08,0.34,0.24,0.42,0.42l1.2,3.09
			C280.8,215.96,280.9,216.04,280.98,216.14z M153.28,154.48c-3.23,3.21-0.69,5.9,0.8,9.25
			C149.95,162.27,147.61,155.41,153.28,154.48z M256.97,178.81c0.09,0.39-0.1,0.78-0.45,0.95c-1.88,0.91-3.79,1.74-5.86,2.2
			c1.33-1.33,2.84-2.4,4.41-3.39c-0.6-3.09,0.69-6.31,2.63-8.69C257.32,172.84,256.34,175.97,256.97,178.81z"/>
	</g>
	<path class="st15" d="M292.02,171.76c-0.19,1.96-0.57,3.87-1.06,5.76C291.48,175.58,291.88,173.67,292.02,171.76z"/>
	<path class="st15" d="M290.86,177.91c-0.03,0.11-0.06,0.22-0.09,0.32C290.81,178.12,290.83,178.01,290.86,177.91z"/>
	<path class="st15" d="M293.67,167.41c-0.05,0.09-0.11,0.17-0.16,0.26C293.56,167.58,293.62,167.49,293.67,167.41z"/>
	<path class="st11" d="M290.19,180.2c-0.53,1.74-1.1,3.47-1.67,5.2c-0.99,3.04-1.92,6.09-2.43,9.24c-0.72,3.88-1.46,7.76-2.36,11.6
		c-0.78,3.34-1.69,6.64-2.74,9.9c0.02,0.02,0.04,0.04,0.05,0.07c0.02-0.05,0.03-0.09,0.05-0.14c2.4-6.7,3.7-14.32,5.07-21.41
		c0.9-5.63,3.14-10.94,4.62-16.43c0.03-0.11,0.06-0.21,0.09-0.32c0.03-0.13,0.07-0.25,0.1-0.38c0.48-1.89,0.87-3.81,1.06-5.76
		c0,0,0,0,0,0h0C291.73,174.65,291.03,177.44,290.19,180.2z"/>
	<path class="st16" d="M303.05,91.79c-0.13,0.12-0.27,0.23-0.41,0.35C302.78,92.02,302.91,91.91,303.05,91.79z"/>
	<path class="st16" d="M297.48,95.29c-0.11,0.05-0.22,0.1-0.33,0.15C297.26,95.39,297.37,95.34,297.48,95.29z"/>
	<path class="st16" d="M307.64,85.9c-0.08,0.15-0.16,0.3-0.24,0.45C307.48,86.21,307.56,86.06,307.64,85.9z"/>
	<path class="st16" d="M169.82,150.94c1.92-2.57,3.64-5.38,5.19-8.23c0.79-1.46,1.53-2.95,2.22-4.46c-5.54,3-11.35,5.46-17.4,7.21
		c1.8,0.54,3.54,1.29,5.12,2.34C166.71,149.04,167.81,150.48,169.82,150.94z"/>
	<path class="st16" d="M308.85,83.26c-0.13,0.35-0.29,0.69-0.44,1.04C308.57,83.95,308.72,83.6,308.85,83.26z"/>
	<g>
		<path class="st13" d="M308.85,68.48c-11.4-1.82-22.99-3.43-33.89-7.36c-2.15-0.86-4.3-1.68-6.52-2.34
			c-9.39-2.74-19.06-5.02-28.83-5.68c-3.2,0.18-8.87,0.11-12.14,0.1c-11.43,0.16-23.24,0.53-33.97,4.82
			c-18.27,8.74-32.59,27.44-35.99,47.42c-2.13,12.99-1.77,26.3-0.47,39.38c0.31-0.07,0.61,0.03,0.84,0.29
			c0.12-0.06,0.25-0.12,0.38-0.06c0.31,0.07,0.62,0.17,0.93,0.25c5.51-3.67,11.74-6.3,18.26-7.5c0.03-0.06,0.05-0.12,0.08-0.17
			c-0.01-0.13,0.01-0.26,0.07-0.39c1.66-3.78,3.03-7.69,4.05-11.69c0.51-1.99,0.93-4.01,1.25-6.05c0-0.01,0-0.02,0-0.03
			c0.06-0.36,0.09-0.72,0.14-1.09c0.18-1.39,0.3-2.78,0.38-4.18c-0.46,0.14-0.95-0.15-1.19-0.89c0.33-0.71,0.79-0.99,1.21-0.85
			c-0.31-0.74-0.06-1.6,0.78-2.14c0.89,0.53,1.12,1.5,0.72,2.27c4.95-0.13,10.12-0.76,14.89-2.36c0.03-0.03,0.05-0.07,0.08-0.1
			c3.01-1.24,6.16-2.55,8.75-4.59c0.02-0.01,0.04-0.03,0.05-0.04c0.21-0.17,0.41-0.35,0.61-0.53c-0.01-0.23,0.06-0.47,0.26-0.65
			c3.93-3.51,6.99-9.24,3.59-14.11c-0.6-0.76,0.35-1.85,1.18-1.31c14.71,8.96,32.58,10.62,41.55-6.75c0.21-0.42,0.8-0.51,1.13-0.17
			c2.3,2.29,4.82,4.44,7.42,6.43c7.64,5.73,17.14,11.28,26.97,8.58c0.16-0.04,0.32,0.05,0.37,0.2c2.35-0.6,4.65-1.47,6.81-2.47
			c4.05-1.93,7.25-5.28,9.27-9.26c0.16-0.33,0.31-0.65,0.46-0.97c0.18-0.4,0.37-0.8,0.52-1.22c0.32-0.91,0.55-1.84,0.71-2.79
			C310.21,76.49,309.52,72.24,308.85,68.48z M180.27,77.26c-1.33,2.23-2.34,4.69-3.19,7.27c0.26-11.99,11.13-20.35,22.77-18.44
			C192.07,66.88,184.31,70.31,180.27,77.26z"/>
	</g>
	<path class="st16" d="M307.03,87c-0.95,1.56-2.09,3-3.4,4.26C305.08,89.9,306.18,88.44,307.03,87z"/>
	<path class="st16" d="M308.85,83.26c0.5-1.23,0.77-2.66,0.89-4.15c-0.05,0.46-0.1,0.91-0.18,1.36
		C309.41,81.42,309.18,82.35,308.85,83.26z"/>
	<path class="st11" d="M308.85,83.26c0.33-0.91,0.56-1.84,0.71-2.79C309.4,81.42,309.17,82.35,308.85,83.26z"/>
	<g>
		<path class="st6" d="M234.74,138.74c0.42-5.61-1.44-11.98-2.62-17.56c-1.59-10.79-8.23-17.08-19.37-15.55c0,0-0.06,0.01-0.06,0.01
			l-0.08,0.01c-0.01,0-2.26,0.23-2.27,0.24c-0.09,0.01-0.16,0-0.24-0.01c-2.65,2.41-5.8,4.14-9.12,5.41
			c-1.42,1.7-2.57,3.65-3.51,5.69c-0.01,0.01-0.02,0.02-0.02,0.04c-2.81,6.63-4.65,14.07-4.2,21.32
			c0.74,9.38,5.54,18.28,12.11,24.91c2.9,1.89,7.23,3.44,11.05,3.06c6.17-0.42,10.64-5.55,13.08-10.85
			c2.44-5.2,5.04-10.49,5.88-16.22C235.08,139.2,234.84,139.02,234.74,138.74z M203.62,140.55c1.07-5.48,5.63-10.85,11.68-10.7
			c6.33,0.4,9.59,7.55,8.85,13.12c-1.89-1.89-3.37-3.8-4.93-5.25c-1.31-1.19-2.61-2.24-4.24-2.31
			C211.26,135.39,207.32,138.64,203.62,140.55z"/>
	</g>
	<path class="st11" d="M153.28,154.48c-5.67,0.93-3.33,7.79,0.8,9.25C152.59,160.38,150.05,157.69,153.28,154.48z"/>
	<polygon class="st1" points="125.73,95.09 125.73,95.09 125.73,95.09 	"/>
	<g>
		<path class="st2" d="M101.81,58.43C85.63,53,71.01,58.35,63.57,73.42c5.03-1.78,10.35-2.83,15.7-2.76
			c17.89,0.15,34.26,10.63,45.82,23.71c0.42,0.46,0.64,0.73,0.64,0.73C125.36,79.4,115.85,64.85,101.81,58.43z M80.57,63.46
			c16.72-3.79,33.13,8.08,39.19,23.28C110.99,72.82,97.63,62.71,80.57,63.46z"/>
	</g>
	<path class="st11" d="M62.18,75.82c10.85-4.67,23.32-4.57,34.33-0.48c11.11,4.1,21.05,11.19,29.21,19.75
		c-0.21-0.24-0.43-0.48-0.64-0.73c-11.56-13.08-27.93-23.56-45.82-23.71c-5.35-0.07-10.67,0.98-15.7,2.76
		C71.01,58.35,85.63,53,101.81,58.43c14.03,6.42,23.54,20.97,23.91,36.66v0v0c0,0,0,0,0,0c0.47-16.05-8.98-31.2-23.43-38.14
		c-14.77-5.17-29.89-1.59-38.39,12.15c-1.12,1.77-2.08,3.58-2.86,5.59C60.75,75.38,61.51,76.13,62.18,75.82z"/>
	<path class="st11" d="M80.57,63.46c17.06-0.75,30.42,9.36,39.19,23.28C113.7,71.54,97.29,59.68,80.57,63.46z"/>
	<path class="st11" d="M344.2,39.11c3.21-3.74,6.42-7.65,8.32-12.25c-6.22,7.42-13.36,14.57-19.1,22.38
		C337.4,46.27,340.89,42.78,344.2,39.11z"/>
	<path class="st11" d="M379.43,122.75c0.71-0.46,1.39-0.96,2.04-1.5c-0.84,0.18-1.61,0.45-2.41,0.67
		c-5.48,1.6-10.88,2.55-16.69,2.22C367.7,126.87,374.44,125.75,379.43,122.75z"/>
	<g>
		<path class="st4" d="M371.02,186.21L371.02,186.21L371.02,186.21c-2.3,1.76-4.54,4.29-0.92,6.05c0.77,0.43,1.63,0.76,2.5,1.05
			c1.58,0.08,3.02-1.02,3.33-2.62c0.12-0.46,0.17-1.16,0.19-1.67c-0.21-0.72-0.58-1.49-1-2.15c-0.91-1.44-2.33-2.51-4.08-2.61
			c-0.9-0.11-1.81,0.08-2.71,0.24h0L371.02,186.21C371.02,186.21,371.02,186.21,371.02,186.21L371.02,186.21z"/>
	</g>
	<path class="st11" d="M369.28,193.6c0.99,0.61,1.99,1.14,3.06,1.47c2.54,0.29,4.93-1.49,5.35-3.99c0.16-0.66,0.17-1.57,0.16-2.24
		c-0.83-2.93-3.59-5.75-6.81-5.28c-0.97,0.07-1.86,0.5-2.7,0.93c0,0,0,0,0,0c0.9-0.16,1.81-0.35,2.71-0.24
		c1.75,0.1,3.18,1.17,4.08,2.61c0.41,0.67,0.79,1.44,1,2.15c-0.03,0.51-0.08,1.21-0.19,1.67c-0.3,1.6-1.75,2.7-3.33,2.62
		c-0.87-0.29-1.73-0.62-2.5-1.05c-3.62-1.76-1.39-4.29,0.92-6.05c0,0,0,0,0,0h0c0,0,0,0,0,0
		C367.23,187.54,365.21,190.99,369.28,193.6z"/>
	<g>
		<path class="st12" d="M448.42,244.62c-3.03-9.69-9.58-16.15-18.61-21c-1.47-0.87-3-1.77-4.29-2.9c-0.66-0.49-1.49-0.75-2.31-0.93
			c-7.63-1.14-15.42,0.83-22.84,2.55c-7.49,1.76-12.52,4.04-15.28,11.7c-1.27,1.71-2.55,3.4-3.87,5.07
			c-1.27,1.64-2.68,2.99-3.44,5.03c-1.53,3.82-2.37,7.97-2.95,12.1c-0.69,6.12-1.09,12.55,0.66,18.5
			c1.86,6.07,6.55,10.31,11.2,14.54c1.07,1,2.15,2.1,3.08,3.26c4.94,4.68,24.9,5.24,32.17,5.56c7.28-1.31,14.07-7.17,18.9-12.76
			c6.6-11.52,11.08-25.38,8.15-38.68c-0.17-0.67-0.35-1.32-0.55-1.95C448.44,244.69,448.43,244.66,448.42,244.62z M442.62,272.67
			c-4.32,19.41-21.2,25.49-39.29,21.57c-0.35-0.08-0.59-0.35-0.67-0.67c-0.87-0.2-1.74-0.42-2.61-0.67
			c-10.72-3.05-17.67-12.55-20.46-22.98c-0.19-0.48-0.22-1.24-0.32-1.75c-0.12-1.05-0.21-2.1-0.28-3.16
			c-0.11-1.29-0.16-2.58-0.16-3.88c-0.02-2.14,0.08-4.27,0.33-6.4c0.06-0.54,0.13-1.08,0.21-1.62c0.01-0.05,0.01-0.09,0.02-0.14
			c0.24-1.64,0.58-3.28,1.08-4.86c0.01-0.02,0.01-0.05,0.02-0.07c0.07-0.23,0.16-0.46,0.24-0.7c0.03-0.1,0.06-0.19,0.1-0.29
			c0.34-0.95,0.75-1.88,1.25-2.78c0.07-0.13,0.15-0.27,0.23-0.4c0.17-0.29,0.34-0.58,0.53-0.86c0.21-0.32,0.43-0.62,0.66-0.92
			c0.06-0.08,0.11-0.16,0.17-0.23c0.06-0.07,0.12-0.14,0.18-0.21c0.19-0.23,0.39-0.46,0.6-0.68c1.25-1.39,2.45-2.6,3.65-4.08
			c1.4-1.66,2.85-3.37,4.44-4.96c0.04-0.1,0.1-0.18,0.18-0.26c7.86-8.32,20.38-8.69,30.73-4.4c4.33,1.72,8.28,4.22,11.35,7.23
			c0.33-0.16,0.73-0.1,0.98,0.16c4.83,4.8,8.25,11.22,7.98,18.17C444.09,259.42,444.48,266.26,442.62,272.67z"/>
	</g>
	<path class="st1" d="M441.48,232.24c0.09,0.1,0.19,0.2,0.28,0.31C441.66,232.44,441.57,232.34,441.48,232.24z"/>
	<path class="st1" d="M444.65,236.39c0.1,0.16,0.2,0.32,0.3,0.48C444.86,236.71,444.75,236.55,444.65,236.39z"/>
	<path class="st1" d="M449,246.68c0.75,3.23,1.04,6.49,0.98,9.74C450.08,253.19,449.81,249.9,449,246.68z"/>
	<path class="st1" d="M442.32,233.21c0.25,0.3,0.49,0.6,0.72,0.9C442.81,233.8,442.56,233.5,442.32,233.21z"/>
	<path class="st1" d="M443.48,234.69c0.23,0.31,0.46,0.63,0.68,0.95C443.94,235.32,443.71,235,443.48,234.69z"/>
	<path class="st1" d="M449.96,257.22c0-0.07,0.01-0.13,0.01-0.2C449.97,257.08,449.96,257.15,449.96,257.22z"/>
	<path class="st11" d="M449.98,256.42c0.06-3.25-0.23-6.51-0.98-9.74c2.93,13.3-1.55,27.16-8.15,38.68
		c-4.84,5.59-11.62,11.45-18.9,12.76c-7.27-0.32-27.23-0.88-32.17-5.56c-0.93-1.16-2.01-2.26-3.08-3.26
		c-4.66-4.23-9.35-8.47-11.2-14.54c-1.75-5.95-1.35-12.38-0.66-18.5c0.58-4.13,1.42-8.28,2.95-12.1c0.75-2.04,2.16-3.39,3.44-5.03
		c1.32-1.67,2.6-3.36,3.87-5.07c2.76-7.67,7.78-9.94,15.28-11.7c7.42-1.72,15.21-3.69,22.84-2.55c0.82,0.18,1.64,0.44,2.31,0.93
		c1.29,1.13,2.81,2.03,4.29,2.9c9.02,4.85,15.58,11.31,18.61,21c0.01,0.03,0.02,0.07,0.03,0.1c0.2,0.64,0.38,1.29,0.55,1.95
		c-0.89-3.68-2.26-6.92-4.05-9.81c-0.1-0.16-0.2-0.32-0.3-0.48c-0.16-0.25-0.33-0.5-0.49-0.75c-0.22-0.32-0.45-0.64-0.68-0.95
		c-0.14-0.2-0.29-0.39-0.44-0.58c-0.24-0.3-0.48-0.6-0.72-0.9c-0.19-0.22-0.38-0.44-0.57-0.66c-0.09-0.1-0.18-0.2-0.28-0.31
		c-3.13-3.48-7.02-6.37-11.53-8.85c-1.49-0.89-2.93-1.77-4.21-2.95c-0.72-0.55-1.58-0.84-2.43-1.05c-7.72-1.33-15.6,0.48-23.16,2.06
		c-3.38,0.88-6.91,1.52-9.86,3.55c-2.82,1.71-5.67,5.99-6.3,8.22c-1.29,1.66-2.61,3.32-3.95,4.94c-1.4,1.65-2.99,3.37-3.73,5.37
		c-3.12,8.08-4.16,16.74-3.71,25.34c0.23,9.5,6.22,15.89,12.96,21.65c1.05,0.97,2.05,1.96,2.94,3.05
		c5.02,5.37,25.84,5.33,33.44,5.52c7.95-1.6,14.23-7.49,19.29-13.5c4.69-8.65,8.36-18.47,8.72-28.38c0-0.07,0.01-0.13,0.01-0.2
		C449.98,256.82,449.98,256.62,449.98,256.42z"/>
	<g>
		<path class="st2" d="M410.8,250.33c0.44,0.06,0.87,0.2,1.27,0.4c0.09-0.1,0.18-0.19,0.28-0.28c3.37-2.74,7.01-5.59,10.52-8.13
			c3.76-2.69,7.59-5.29,11.6-7.63c-5.59-4.8-12.64-7.79-19.95-8.43c-7.36-0.83-14.75,0.85-20.02,6.19
			c4.08,6.59,8.12,13.21,12.11,19.85C407.52,250.93,409.1,250,410.8,250.33z"/>
	</g>
	<g>
		<path class="st2" d="M427.86,266.27c-4.27-2.82-8.98-4.99-14.06-5.49c-0.6,0.9-1.58,1.58-2.64,1.82
			c-0.01,4.57-0.1,9.26-1.63,13.63c-2.2,5.29-3.51,10.88-4.89,16.44c3.67,0.75,7.44,1.13,11.19,0.97
			c13.4-0.39,23.04-8.14,26.79-20.98C437.53,270.98,432.5,269.02,427.86,266.27z"/>
	</g>
	<g>
		<path class="st2" d="M442.56,252.92c0,0-0.19-2.48-0.19-2.48c-0.52-5.39-3.6-10.23-7.34-14.05c-3.79,2.31-7.48,4.8-11.07,7.43
			c-3.46,2.48-7.06,5.26-10.4,7.93c0.38,0.46,0.67,0.96,0.88,1.47c0.73,1.97,0.8,4.1,0.09,6.08c5.07,0.75,9.81,3.13,13.87,6.11
			c4.43,2.94,9.33,5.17,14.22,7.25C443.94,266.11,443.18,259.52,442.56,252.92z"/>
	</g>
	<path class="st11" d="M435.77,234.67c-0.25-0.26-0.65-0.32-0.98-0.16c-3.07-3.01-7.02-5.51-11.35-7.23
		c-10.34-4.3-22.87-3.92-30.73,4.4c-0.08,0.08-0.14,0.17-0.18,0.26c-1.59,1.59-3.03,3.3-4.44,4.96c-1.2,1.48-2.4,2.69-3.65,4.08
		c-0.21,0.22-0.41,0.45-0.6,0.68c-0.06,0.07-0.12,0.14-0.18,0.21c-0.06,0.07-0.11,0.16-0.17,0.23c-0.23,0.3-0.45,0.61-0.66,0.92
		c-0.19,0.28-0.36,0.57-0.53,0.86c-0.08,0.13-0.15,0.26-0.23,0.4c-0.5,0.9-0.91,1.83-1.25,2.78c-0.03,0.09-0.07,0.19-0.1,0.29
		c-0.08,0.23-0.17,0.46-0.24,0.7c-0.01,0.02-0.01,0.05-0.02,0.07c-0.49,1.58-0.83,3.22-1.08,4.86c-0.01,0.05-0.01,0.09-0.02,0.14
		c-0.08,0.54-0.15,1.08-0.21,1.62c-0.25,2.13-0.35,4.26-0.33,6.4c0,1.3,0.05,2.59,0.16,3.88c0.07,1.05,0.16,2.11,0.28,3.16
		c0.1,0.51,0.13,1.27,0.32,1.75c2.8,10.42,9.74,19.92,20.46,22.98c0.87,0.25,1.74,0.47,2.61,0.67c0.08,0.32,0.32,0.59,0.67,0.67
		c18.08,3.91,34.97-2.17,39.29-21.57c-3.76,12.84-13.39,20.58-26.79,20.98c-3.75,0.15-7.52-0.22-11.19-0.97
		c1.38-5.56,2.68-11.16,4.89-16.44c1.53-4.37,1.63-9.06,1.63-13.63c1.06-0.24,2.04-0.92,2.64-1.82c5.08,0.5,9.79,2.67,14.06,5.49
		c4.64,2.75,9.67,4.71,14.77,6.39c-4.9-2.08-9.79-4.32-14.22-7.25c-4.06-2.98-8.8-5.36-13.87-6.11c0.71-1.98,0.64-4.11-0.09-6.08
		c-0.21-0.51-0.5-1.02-0.88-1.47c3.33-2.67,6.94-5.45,10.4-7.93c3.59-2.63,7.29-5.12,11.07-7.43c3.74,3.82,6.82,8.65,7.34,14.05
		c0,0,0.19,2.48,0.19,2.48c0.62,6.59,1.38,13.19,0.06,19.74c1.85-6.41,1.47-13.25,1.13-19.82
		C444.02,245.89,440.6,239.48,435.77,234.67z M394.5,232.45c5.27-5.34,12.66-7.01,20.02-6.19c7.31,0.64,14.36,3.62,19.95,8.43
		c-4.01,2.34-7.84,4.94-11.6,7.63c-3.51,2.54-7.15,5.39-10.52,8.13c-0.09,0.09-0.18,0.18-0.28,0.28c-0.4-0.2-0.84-0.34-1.27-0.4
		c-1.7-0.32-3.29,0.6-4.19,1.97C402.62,245.66,398.58,239.04,394.5,232.45z M409.54,262.37c-0.02,2.51-0.14,5.03-0.45,7.51
		c-0.29,2.68-0.9,5.12-2.04,7.57c-1.87,5.11-3.12,10.31-4.37,15.57c-11.81-2.85-19.33-12.77-21.7-24.4
		c-0.3-2.79-0.44-5.65-0.38-8.51c-0.29-0.03-0.58-0.05-0.87-0.09c0.29-0.04,0.58-0.06,0.87-0.1c0.1-4.17,0.66-8.33,1.94-12.24
		c0.89-3.03,2.97-5.34,5.1-7.6c1.91-2.21,3.68-4.48,5.59-6.57l12.78,19.94c0.58-1.44,1.63-2.56,3.14-2.84
		c3.46-0.6,5.17,2.93,5.02,5.86C414.29,259.59,412.65,262.64,409.54,262.37z"/>
	<path class="st11" d="M409.45,251.72c-2.32,1.08-2.2,4.25-1.95,6.5c0.26,2.4,2.14,3.96,4.46,2.92c1.63-0.86,2.23-2.9,2.23-4.66
		C414.32,253.88,412.39,250.58,409.45,251.72z"/>
	<path class="st11" d="M407.77,261.74c-0.47-0.33-0.87-0.75-1.2-1.25c-4.23,0.3-8.46,0.44-12.68,0.4L407.77,261.74z"/>
	<g>
		<path class="st2" d="M79.65,106.55c0.87,0.56,1.98,1.08,2.73,0.15c1.12-1.59-0.01-3.71-1.47-5.02c-1.39-1.32-3.24-0.54-4.51,0.68
			l0,0C76.82,104.27,78.04,105.56,79.65,106.55z"/>
	</g>
	<polygon class="st1" points="76.39,102.36 76.39,102.36 76.39,102.36 	"/>
	<path class="st11" d="M76.39,102.36c1.27-1.22,3.12-2,4.51-0.68c1.46,1.31,2.59,3.43,1.47,5.02c-0.74,0.93-1.86,0.42-2.73-0.15
		C78.04,105.56,76.82,104.27,76.39,102.36L76.39,102.36c-0.89,3.86,5.31,9.5,7.91,4.75C86.34,102.34,79.06,96.53,76.39,102.36
		C76.39,102.36,76.39,102.36,76.39,102.36L76.39,102.36L76.39,102.36z"/>
	<path class="st11" d="M8.18,110c-0.5-1.11-1.53-1.75-2.6-2.03c-1.93-0.5-3.8-0.34-5.58,0.11c1.79,0.31,3.59,0.6,5.09,1.25
		c0.73,0.34,1.31,0.8,1.45,1.28c0.29,0.77,0.88,1.15,1.34,1.42c3.95,1.7,8.36,1.22,12.42,0.37c-3.48-0.62-7.14-0.74-10.48-1.59
		C9.04,110.64,8.25,110.2,8.18,110z"/>
	<path class="st11" d="M34.02,80.37c-4.08-4.14-9.06-7.36-14.52-9.35C23.57,75.17,28.56,78.37,34.02,80.37z"/>
	<g>
		<path class="st2" d="M152.37,370.68c0.14-2.94,0.11-5.78,0.14-8.75c0.33-8.81,1.73-17.54,3.66-26.12
			c-0.97,10.14-2.11,20.33-1.87,30.52c-0.21,12.95-1.41,25.87-3.54,38.63c1.1-0.01,2.2-0.01,3.28,0c1.85-1.56,3.99-2.77,5.98-4.17
			c1.09-0.69,2.19-1.44,3.43-2.04c1.03-0.36,1.94-1,2.88-1.56c10.14-6.48,20.14-13.33,29.82-20.49
			c14.04-12.01,34.49-26.1,47.82-38.72c0.82-0.84,1.7-1.74,2.2-2.59c1.19-1.13,2.58-2.16,3.74-3.38c2.96-2.72,6.42-7.58,7.51-10.81
			c-1.62,0.9-3.32,1.67-5.05,2.35c-0.17,0.07-0.36-0.03-0.43-0.19c-0.08,0.03-0.17,0.05-0.25,0.08c-4.23,1.65-8.73,2.62-13.27,3.03
			c-0.12,0.1-0.28,0.18-0.45,0.18c-3.39,0.23-6.8,0.18-10.17-0.16c-3.38-0.31-6.71-0.97-10.02-1.72c-0.19-0.04-0.35-0.14-0.47-0.28
			c-6.03-1.32-11.91-3.27-17.6-5.65c-0.18-0.07-0.33-0.2-0.43-0.36c-5.02-1.92-9.86-4.36-14.57-6.96c-0.19-0.11-0.32-0.27-0.39-0.46
			c-5.63-2.9-10.97-6.43-16.01-10.3c-0.16-0.12-0.26-0.28-0.31-0.46c-2.98-2.18-5.53-5.02-7.89-7.85c-2.53-2.96-4.87-6.13-6.66-9.62
			c-0.07-0.14-0.09-0.29-0.09-0.44c-3.67-6.71-4.56-14.21-1.32-21.28c0.01-0.09,0.04-0.18,0.09-0.27c0,0,0.47-0.89,0.89-1.7
			c-1.28,0.12-2.59,0.43-3.87,0.81c-8.81,2.9-16.75,7.91-24.86,12.35c-3.57,1.9-6.96,4.07-10.92,5.2c-0.58,0.21-1.27,0.34-1.83,0.65
			c-5.8,2.78-10.64,7.23-15.43,11.48c-4.84,4.3-11.23,11.08-16,15.6c0,0-7.97,7.85-7.97,7.85c-0.34,0.41-1.61,1.48-1.88,1.92
			c-0.44,0.6-0.84,1.44-1.18,2.26c-3.29,8.64-5.08,17.81-7.14,26.85c-3.11,14.39-5.86,28.86-8.46,43.36
			c9.49,7.25,20.05,13.21,31.29,17.29c11.36,4.18,23.61,6.04,35.68,4.82c8.86-3.32,19.98-4.53,30.25-4.63
			C151.19,394.68,152,380.64,152.37,370.68z"/>
	</g>
	<path class="st1" d="M157.04,144.81c-0.31,0.07-0.62,0.32-0.84,0.76c0.4,1.24,1.24,1.39,2.03,0.35c-0.05-0.36-0.18-0.63-0.35-0.82
		C157.65,144.84,157.35,144.73,157.04,144.81z"/>
	<path class="st1" d="M184.22,110.31c-0.84,0.54-1.09,1.4-0.78,2.14c-0.42-0.14-0.88,0.15-1.21,0.85c0.24,0.74,0.74,1.03,1.19,0.89
		c0.02-0.01,0.05-0.01,0.07-0.01c0.02-0.29,0.05-0.57,0.07-0.86c0-0.35,0.29-0.63,0.64-0.63c0.22,0,0.45,0,0.67,0
		c0.02-0.04,0.04-0.07,0.06-0.11C185.34,111.81,185.11,110.85,184.22,110.31z"/>
	<path class="st15" d="M296.63,120.83c0.61,0.92,1.1,1.93,1.48,3.01C297.72,122.68,297.22,121.68,296.63,120.83z"/>
	<path class="st15" d="M298.15,123.95c0.09,0.26,0.17,0.53,0.24,0.79C298.32,124.47,298.23,124.21,298.15,123.95z"/>
	<g>
		<path class="st6" d="M299.1,128.71c-0.51-4.97-2.4-9.82-7.36-11.44c-0.22-0.07-0.45-0.12-0.68-0.18
			c-0.27-0.07-0.53-0.14-0.81-0.19c-2.16-0.47-4.4-0.42-6.6-0.27c-4.38,0.35-8.82,1.1-12.64,3.34c-7.8,4.35-11.79,13-13.22,21.51
			c-0.7,4.27-1.07,8.69-0.44,12.99c0.88,8.56,7.5,16.33,14.91,19.55c4.44,1.18,9.04-0.32,12.24-3.58c3.23-3.24,5.97-7.13,8.44-10.97
			c4.86-8,6.2-17.59,6.32-26.82c0,0,0,0,0,0C299.27,131.23,299.21,129.92,299.1,128.71z M278.77,144.33
			c-3.72-0.02-7.66,3.23-11.36,5.14c1.07-5.48,5.63-10.85,11.68-10.7c6.33,0.39,9.59,7.55,8.85,13.12c-1.89-1.89-3.37-3.8-4.93-5.25
			C281.7,145.46,280.4,144.41,278.77,144.33z"/>
	</g>
	<path class="st11" d="M219.22,137.72c1.56,1.45,3.04,3.36,4.93,5.25c0.74-5.58-2.52-12.73-8.85-13.12
		c-6.05-0.15-10.62,5.23-11.68,10.7c3.7-1.91,7.64-5.16,11.36-5.14C216.61,135.49,217.91,136.53,219.22,137.72z"/>
	<path class="st11" d="M279.09,138.77c-6.05-0.15-10.62,5.23-11.68,10.7c3.7-1.91,7.64-5.16,11.36-5.14
		c1.63,0.08,2.93,1.13,4.24,2.31c1.56,1.45,3.04,3.36,4.93,5.25C288.68,146.32,285.42,139.17,279.09,138.77z"/>
	<g>
		<path class="st6" d="M291.25,97.68c-9.91,2.87-19.73-2.61-27.55-8.29c-2.43-1.8-4.75-3.71-6.98-5.79
			c-8.73,16.54-26.08,16.12-40.78,8.24c0.17,0.54,0.31,1.09,0.39,1.66c0.59,3.88-1.22,7.48-3.73,10.33
			c11.96-1.57,19.5,5.43,21.12,17.01c1.04,5.32,2.83,10.99,2.59,16.56c3.31-1.02,6.73-1.73,10.2-1.95
			c3.62-0.22,7.38,0.13,10.81,1.53c2.12-7.43,6.65-14.58,13.79-17.99c5.06-2.6,15.21-4.01,21.12-1.61c0.19,0.08,0.38,0.15,0.56,0.24
			c0.15,0.07,0.29,0.14,0.43,0.22c0.3,0.16,0.59,0.32,0.87,0.51C294.07,111.46,292.85,104.38,291.25,97.68z"/>
	</g>
	<g>
		<path class="st6" d="M184.84,113.95c-0.12,6.15-1.27,12.28-3.25,18.1c-0.46,1.37-0.98,2.72-1.52,4.05
			c3.75-1.2,7.53-2.31,11.47-2.79c0.69-5.83,2.18-11.6,4.85-16.84c0.01-0.01,0.02-0.02,0.03-0.03c1.1-2.1,2.41-4.11,4.07-5.8
			C195.52,112.7,190.19,113.68,184.84,113.95z"/>
	</g>
	<path class="st1" d="M250.22,199.81c-0.77,0.28-1.87,0.08-2.81,0.3c-0.02,0-0.03,0-0.05-0.01c0,0,0,0.01,0.01,0.01
		c-0.03,0.01-0.07,0.01-0.1,0.02c-0.13,0.02-0.24,0.08-0.34,0.15c0.14-0.05,0.29-0.09,0.43-0.15c0.21-0.08,0.46-0.08,0.67,0
		c0.4,0.16,0.83,0.33,1.27,0.5C249.62,200.27,249.93,199.93,250.22,199.81z"/>
	<polygon class="st1" points="236.69,216.31 236.69,216.31 236.69,216.31 	"/>
	<g>
		<path class="st10" d="M341.76,234.21c-0.38-0.82-1.1-1.5-1.84-2.04c-0.92-0.81-1.9-1.54-2.88-2.27
			c-10.47-8.05-23.84-2.62-35.13,0.56c-4.59,1.26-8.98,2.98-13.21,5.09c0.04,0.1,0.08,0.2,0.12,0.3l9.64,23.14l1.56-3.01
			c1.15-2.94,2.91-6.58,4.61-9.58c2.71-4.62,5.78-9.42,10.11-12.72c3.22-2,6.38-0.64,7.54,2.88c1.09,2.64,0.9,5.7,0.27,8.31
			c-0.8,3.53-1.99,6.89-3.24,10.21c-1.25,3.32-2.62,6.59-4.01,9.84c-1.39,3.25-2.8,6.49-4.12,9.75c-0.85,2.33-1.96,4.71-2.54,7.15
			c3.68-7.31,7.45-14.57,11.59-21.62c1.22-1.94,2.34-4.03,3.78-5.84c0.35-0.46,0.71-0.91,1.11-1.33c0.15-0.12,0.29-0.25,0.43-0.37
			c0.25-0.23,0.5-0.46,0.77-0.67c0.01-0.01,0.02-0.02,0.03-0.03c1.24-1.2,2.34-2.53,3.46-3.85c2.02-2.38,4.16-4.75,6.97-5.89
			c0.1-0.04,0.2-0.08,0.3-0.12c0.12-0.04,0.24-0.09,0.36-0.12c0.22-0.07,0.44-0.14,0.66-0.19c0.06-0.01,0.12-0.03,0.19-0.04
			c0.11-0.02,0.21-0.05,0.32-0.07c-0.02-0.19,0.03-0.36,0.13-0.51c0.98-1.93,2.26-3.87,2.4-6.05c0-0.02,0.01-0.04,0.01-0.06h-0.04
			c0.01,0,0.03,0,0.04,0C341.12,234.61,341.41,234.31,341.76,234.21z"/>
	</g>
	<path class="st15" d="M341.79,234.2c-0.14-0.33-0.33-0.64-0.58-0.92c-0.07-0.08-0.14-0.14-0.21-0.21
		C341.32,233.41,341.59,233.79,341.79,234.2C341.78,234.2,341.78,234.2,341.79,234.2z"/>
	<g>
		<path class="st10" d="M342.44,237.71c-0.4,1.12-1.01,2.19-1.64,3.2c2.18,0.31,4.44,1.31,5.41,3.29c0,0,0,0,0,0
			C345.16,241.85,343.71,239.84,342.44,237.71z"/>
	</g>
	<polygon class="st15" points="346.21,244.2 346.21,244.2 346.21,244.19 346.21,244.2 	"/>
	<path class="st1" d="M341.13,235.05l0.89,0l0.93,0C342.49,235.04,341.6,235.04,341.13,235.05c-0.01,0-0.03,0-0.04,0H341.13z"/>
	<g>
		<path class="st10" d="M351.19,256.28c-0.26-0.58-2.85-6.29-3.98-8.78c-0.19,1.52-0.82,2.99-1.39,4.38
			c-0.87,2.03-1.92,3.9-2.93,5.81c-3.58,6.63-7.34,13.21-11.15,19.71c-0.49,0.77-1.09,1.96-1.5,2.78c-0.3,0.63-0.59,1.27-0.89,1.9
			c4.11-5.81,8.44-11.46,13.06-16.87c0.55-0.63,1.1-1.26,1.66-1.88c1.75-2.11,3.53-4.19,5.39-6.2
			C349.94,256.8,350.55,256.5,351.19,256.28z"/>
	</g>
	<path class="st15" d="M380.37,326.86c-0.32,0.55-0.65,1.1-0.98,1.65C380.01,327.5,380.37,326.87,380.37,326.86z"/>
	<polygon class="st15" points="380.38,326.86 380.37,326.85 380.38,326.86 	"/>
	<g>
		<path class="st10" d="M354.54,265.96c-1.06,3.05-2.25,6.02-3.58,8.96c-1.48,3.19-3.79,7.55-5.74,9.66
			c-1.96,3.47-3.89,6.97-5.7,10.52c-0.77,1.61-1.63,3.23-2.39,4.88c1.39-1.94,2.87-3.82,4.48-5.62c1.89-1.9,3.86-4.27,6.81-4.43
			c2.57,0.14,3.87,2.99,4.06,5.14c0.3,2.39,0.08,4.71-0.28,6.99c-0.35,2.31-0.98,4.66-2.25,6.65c-3.49,5.9-7.53,11.43-12.43,16.25
			c-5.07,4.52-10.76,8.28-16.16,12.4c-7.16,5.2-14.32,10.38-21.96,14.88c0.21,0.47,6.12,13.95,7.22,16.45
			c3.09,0.9,6.55,0.47,9.43-0.88c16.12-5.15,30.88-13.9,45.17-22.84c0,0,7.14-4.57,7.14-4.57c2.24-1.53,4.17-3.6,5.94-5.75
			c0.2-0.26,0.56-0.31,0.83-0.16c1.93-2.41,3.64-5.03,5.24-7.61l0,0C372.69,309.04,362.14,283.96,354.54,265.96z"/>
	</g>
	<g>
		<path class="st2" d="M297.34,407.02c2.48-17.81,1.29-35.95,0.36-53.86c-0.28,0.15-0.55,0.32-0.83,0.47
			c-0.9,0.4-1.74,0.88-2.54,1.44c-0.04,0.02-0.07,0.05-0.1,0.08c-0.26,0.18-0.51,0.38-0.76,0.58c-0.34,0.27-0.66,0.55-0.98,0.84
			c-0.12,0.11-0.24,0.21-0.36,0.32c-0.07,0.06-0.13,0.13-0.2,0.19c-0.75,0.73-1.49,1.48-2.23,2.24
			c-11.77,12.73-21.94,26.89-32.31,40.79c-3.69,5.12-7.36,10.24-11.1,15.27c-0.74,1.04-1.49,2.08-2.23,3.12
			c17.19-5.99,35.26-8.97,53.27-11.24C297.32,407.18,297.32,407.1,297.34,407.02z"/>
	</g>
	<path class="st1" d="M242.15,420.19c-0.05,0.01-0.1,0.02-0.15,0.03c0.25,0.19,0.5,0.35,0.66,0.41c0.01,0,0.02,0.01,0.03,0.02
		c-0.01-0.01-0.01-0.01-0.02-0.02C242.55,420.48,242.4,420.38,242.15,420.19z"/>
	<path class="st1" d="M346.21,244.2L346.21,244.2L346.21,244.2L346.21,244.2l0.5,1.21c0.13-0.07,0.24-0.14,0.34-0.22
		C347.76,244.59,347.31,243.83,346.21,244.2L346.21,244.2L346.21,244.2z"/>
	<g>
		<path class="st2" d="M390.54,370.11c-1.82-12.56-7.8-24.23-15.74-34.03c-1.65,2.01-3.44,3.92-5.63,5.47
			c-16.54,10.91-33.65,21.72-52.59,27.93c-2.61,1.37-7.5,2.05-10.9,0.81c-0.26-0.08-0.45-0.27-0.55-0.5c0,0-3.31-7.55-5.42-12.39
			c0.79,16.27,1.52,32.65-0.68,48.83c29.86-3.9,59.99-5.32,90.09-4.64c-0.07-0.86-0.12-1.76-0.16-2.68
			C388.45,389.32,389.39,379.17,390.54,370.11z"/>
	</g>
	<path class="st11" d="M375.32,334.63c1.48-1.95,2.82-4.02,4.08-6.12c0.33-0.55,0.66-1.1,0.98-1.65c0,0,0,0,0,0c0,0,0,0,0,0
		c-1.61,2.58-3.32,5.19-5.24,7.61c-0.28-0.15-0.63-0.1-0.83,0.16c-1.77,2.15-3.7,4.21-5.94,5.75c0,0-7.14,4.57-7.14,4.57
		c-14.29,8.95-29.04,17.69-45.17,22.84c-2.88,1.35-6.34,1.79-9.43,0.88c-1.1-2.5-7.01-15.98-7.22-16.45
		c7.64-4.51,14.8-9.68,21.96-14.88c5.4-4.12,11.09-7.88,16.16-12.4c4.89-4.82,8.94-10.35,12.43-16.25c1.27-1.99,1.9-4.34,2.25-6.65
		c0.36-2.28,0.58-4.59,0.28-6.99c-0.19-2.15-1.49-5-4.06-5.14c-2.96,0.16-4.93,2.54-6.81,4.43c-1.62,1.8-3.09,3.68-4.48,5.62
		c0.77-1.65,1.62-3.26,2.39-4.88c1.81-3.55,3.75-7.05,5.7-10.52c1.95-2.11,4.26-6.47,5.74-9.66c1.34-2.94,2.53-5.91,3.58-8.96
		c7.59,18.01,18.15,43.09,25.83,60.9l0,0l0,0c0,0,0-0.01,0-0.01c-7.53-18.27-17.36-44.42-25.32-62.38c0.01-0.02,0.02-0.04,0.02-0.07
		c0,0-0.02,0-0.05,0c-0.02-0.05-0.05-0.11-0.07-0.16c0.66-2.04,1.1-4.15,0.75-6.29c-0.51-2.24-2.65-2.3-4.49-1.67
		c-0.74-1.98-4.11-10.98-4.11-10.98c-0.01-0.04-0.04-0.08-0.06-0.11c-0.09,0.08-0.2,0.15-0.34,0.22c0,0.01,0.01,0.03,0.01,0.04l0,0
		c0.05,0.25,0.08,0.51,0.1,0.76c-0.01-0.26-0.04-0.51-0.1-0.76l0.01,0.01c0.08,0.37,0.1,0.75,0.09,1.15c0-0.13,0.01-0.26,0-0.39
		c0.08,1.79-0.78,3.77-1.55,5.43c-0.9,1.96-2,3.81-3.04,5.7c-2.13,3.75-4.29,7.47-6.48,11.19c-1.93,3.34-4.71,7.8-6.49,11.19
		c-1.91,3.87-3.69,7.79-5.47,11.72c-0.11,0.24,0.24,0.43,0.38,0.2c7.83-11.85,16.13-23.51,25.81-33.92c0.59-0.33,1.24-0.6,1.89-0.79
		c8.65-2.65-3.33,20.64-5.16,23.43c-0.78,1.27-1.65,2.52-2.59,3.58c-3.46,6.12-6.98,12.23-9.63,18.76
		c-0.35,0.96-0.71,1.91-0.84,3.04c-0.02,0.21,0.07,0.42,0.26,0.53c0.26,0.17,0.61,0.09,0.77-0.17c3.3-4.97,6.68-10.35,11.52-13.91
		c1.65-1.2,3.35-1.03,4.2,0.86c1.37,3.56,0.53,7.96-0.34,11.63c-1.29,3.8-3.89,7-6.13,10.28c-3.01,4.05-6.23,8-10.19,11.12
		c-8.91,6.71-18.01,13.56-27.25,19.77c-4.21,2.95-8.71,5.42-13.13,7.93c-2.53,1.88-4.65,4.17-6.77,6.44
		c-5.53,6.09-10.61,12.51-15.64,18.96c-9.31,12.38-21.46,27.97-28.57,39.2c-25.74,6.37-53.24,2.23-77.23-8.55
		c-2.98-1.34-5.91-2.78-8.82-4.27c2.55-1.79,5.19-3.66,7.88-5.12c1.12-0.41,2.09-1.08,3.09-1.68c8.21-5.21,16.14-10.72,24.06-16.33
		c4.09-2.8,7.66-5.72,11.43-8.99l22.88-17.84c3.8-3,7.58-6.02,11.31-9.13c3.72-3.3,7.73-6.12,10.66-10.25
		c3.84-2.76,9.86-9.28,11.59-15.29c1.37-4.3,2.24-12.1,1.36-17.71c-0.45-4.3-2.31-8.69-4.16-12.59c-1.67-3.96-3.12-8.09-3.82-12.32
		c-0.45-2.8-0.56-5.68,0.13-8.36c2.06-7.28,9.48-14.63,16.4-7.81c4.02,5,4.84,11.9,5.82,18.09c0.41,2.22,0.14,4.52,0.97,6.65
		c2.39,4.88,7.58-0.63,9.42-3.21c4.9-6.54,10.13-16.29,13.53-22.57l2.35-4.52c1.31-3.25,2.86-6.45,4.6-9.51
		c2.87-5.08,13.18-21.27,15.85-7.58c0.38,5.18-1.85,10.29-3.48,15.16c-2.45,6.63-5.29,13.1-7.85,19.68
		c-1.16,3.35-2.82,6.67-2.82,10.29c0.02,0.25,0.38,0.33,0.49,0.08c4.53-9.34,9.05-18.72,14.42-27.61c0.87-1.36,1.73-2.74,2.84-3.92
		c0.73-0.62,1.5-1.27,2.13-2c3.4-3.69,6.4-8.83,11.8-9.53c0.89-0.06,1.84-0.01,2.77,0.16c0.15,0.03,0.31,0.07,0.45,0.1
		c0.03,0.01,0.06,0.02,0.09,0.02c0.59,0.16,1.1,0.34,1.55,0.55c0.84,0.41,1.59,0.96,2.16,1.72c-0.38-0.52-0.85-0.95-1.38-1.3
		c0.61,0.38,1.06,0.82,1.38,1.3l0,0c0,0,0,0,0,0c-0.97-1.98-3.23-2.98-5.41-3.29c0.63-1.01,1.24-2.07,1.64-3.2
		c1.27,2.13,2.73,4.14,3.77,6.49c0,0,0,0,0,0h0h0c0,0,0,0,0,0c-1.27-3.03-1.95-6.49-3.38-9.52c-0.2-0.45-0.65-0.58-1.04-0.48
		c0,0,0,0-0.01,0c-0.19-0.41-0.46-0.79-0.78-1.13c-0.32-0.34-0.68-0.66-1.05-0.93c-0.91-0.82-1.89-1.56-2.87-2.3
		c-3.95-2.95-8.81-4.64-13.77-4.36c-7.37,0.3-14.5,2.55-21.58,4.41c-4.31,1.1-10.05,3-13.36,4.85c-1.86-4.8-3.72-9.56-5.51-14.15
		c0-0.01-0.26-0.58-0.58-1.24c0,0.07,0.01,0.15,0.01,0.22c-0.03,0.68-0.12,1.1-0.06,1.25c-0.45-0.38-0.89-0.72-1.29-1.13
		c0.37,0.76,0.72,1.46,0.72,1.46c5.22,12.65,10.93,26.27,16.42,39.04c-0.13,0.25-0.21,0.4-0.21,0.4c-0.8,1.46-2.07,3.77-3.46,6.25
		c-1.5-3.97-2.98-7.94-4.48-11.9c-0.24-0.68-0.48-1.33-0.7-1.95c-1.83-4.96-3.69-9.93-5.59-14.91c-0.05-0.15-0.16-0.25-0.28-0.33
		c-2.32-6.05-4.79-12.49-4.79-12.49c-0.09-0.27-0.32-0.42-0.57-0.46c-0.6-1.54-4.16-10.64-4.16-10.64
		c-0.09-0.22-0.28-0.41-0.52-0.48l-29.89-9.3c0.28-0.6,0.47-0.98,0.61-1.29c1.21-0.32,2.42-0.69,3.61-1.14l15.24,5.89l15.25,5.88
		c0.25,0.59,0.8,1.94,1.23,2.96c0.04-0.24,0.19-0.52,0.47-0.8c0.32-0.03,0.58-0.01,0.79,0.06l-1.2-3.09
		c-0.07-0.18-0.22-0.34-0.42-0.42c-7.33-2.91-21.67-8.57-29.74-11.75c-0.44-0.17-0.87-0.34-1.27-0.5c-0.21-0.08-0.45-0.09-0.67,0
		c-0.14,0.05-0.29,0.1-0.43,0.15c-1.21,0.44-2.46,0.81-3.73,1.13c-0.25,0.06-0.48,0.24-0.6,0.49c0,0-0.17,0.36-0.25,0.53
		c-7.35,0.94-14.77,1.26-22.17,1.22c-0.52-0.01-0.95,0.43-0.92,0.96c0.1,2,0.59,4.07,1.72,5.8c3.36,5.08,10.05,6.38,15.71,5.9
		c0,0,0,0,0,0h0h0c-6.5-0.6-14.85-3.48-15.52-10.81c7.1-0.07,14.27-0.71,21.06-2.83c-0.11,0.22-0.13,0.27-0.26,0.54
		c0.16-0.14,0.32-0.25,0.46-0.34c0.53-0.32,0.9-0.46,0.99-0.56c0.05,0.93,0.06,2.12-0.42,3.02c-0.2,0.45-0.63,0.56-1.06,0.49
		l30.54,9.31c0.78,1.96,4.46,11.14,4.46,11.14c0.06,0.19,0.18,0.32,0.34,0.4c-1.78,3.2-3.82,6.27-6.39,8.83
		c-2.86,2.65-5.66,5.51-8.26,8.44c-4.97,6.25-12.51,8.79-19.89,11.1c-6.72,1.34-14.58,2-21.66,0.89
		c-11.46-5.11-24.51-13.19-32.68-23.91c7.73,11.67,19.78,19.91,32.38,25.63c7.45,1.22,15.06,0.66,22.43-0.87
		c3.78-1.22,7.55-2.52,11.17-4.34c3.63-1.7,6.74-4.55,9.24-7.63c2.52-3.06,5.11-5.9,7.84-8.78c2.46-2.8,4.36-6,5.87-9.34
		c0.07,0.03,0.14,0.05,0.22,0.06c0.85,2.08,1.75,4.29,2.69,6.6c0.61,1.55,1.78,4.54,1.83,4.67c-8.32,5.35-15.53,12.34-21.34,20.33
		c-0.63,0.19-1.24,0.45-1.81,0.77c-4.93,2.49-8.17,8.76-8.39,14.02c-0.2,6.22,1.84,12.19,4.16,17.86
		c-4.86,6.1-10.76,12.43-18.63,14.07c-5.87,1.25-12.14,0.51-17.75-1.57l-5.66-2.34c-3.17-1.24-8.09-3.61-11.22-5
		c-3.31-1.5-7.9-3.6-11.05-5.34c-6.88-3.77-14.19-7.69-19.51-13.49c0.28-0.8,0.56-1.6,0.81-2.4c0.13-0.07,0.23-0.16,0.27-0.32
		c0.45-1.59,0.82-3.23,1.13-4.89c0.47-1.98,0.88-3.98,1.26-5.98c0.22-0.1,0.4-0.3,0.44-0.57c0.39-2.4,0.77-4.83,1.05-7.26
		c0.08-0.4,0.15-0.8,0.24-1.2c1.75-9.72,2.71-19.8,1.31-29.67c-0.93-5.9-2.48-11.66-4.29-17.33c-2.51-7.61-5.23-15.19-8.72-22.41
		c-6.49-6.07-13.12-12.49-17.84-20.04c-0.92-1.6-1.81-3.29-1.92-5.12c0.07-2.41,0.66-4.86,1.58-7.07c1.47-3.72,4.73-6.97,8.85-6.87
		c0.03,0.3,0.07,0.59,0.07,0.59c0.03,0.34,0.3,0.6,0.61,0.67c0.26,0.25,0.66,0.33,1,0.17c0,0,1.17-0.56,1.59-0.75
		c2.01,0.51,3.78,1.25,5.44,2.3c0.84,0.64,1.73,1.42,2.71,2.08c0.04,0.04,0.08,0.07,0.12,0.1c1.03,0.76,2.29,1.2,3.46,1.4
		c0.3,0.06,0.63-0.05,0.83-0.31c2.15-2.85,3.95-5.83,5.62-8.93c0.89-1.67,1.73-3.38,2.5-5.12c3.99-1.33,8.04-2.67,12.19-3.36
		c-0.01,0.66-0.02,1.34-0.01,2.03c0.37,7.39,3.24,14.52,7.52,20.5c1.65,2.29,3.45,4.46,5.55,6.4c1.45,0.92,2.97,1.61,4.57,2.14
		c0.11,0.04,0.22,0.07,0.34,0.11c0.25,0.08,0.49,0.17,0.75,0.24c0.04,0.01,0.08,0.02,0.12,0.03c0.4,0.11,0.81,0.21,1.21,0.29
		c0.27,0.06,0.53,0.1,0.8,0.14c0.25,0.04,0.5,0.07,0.75,0.1c0.18,0.02,0.36,0.05,0.54,0.06c3.11,0.27,6.25-0.32,8.94-2.09
		c5.24-3.4,7.49-9.48,9.85-14.97c1.44-3.47,2.8-7.03,3.3-10.77c0.12,0.02,0.24,0.01,0.35-0.03c6.67-2.27,14.33-3.69,21.08-1.16
		c-0.87,3.24-1.37,6.59-1.55,9.83c-0.04,1.68-0.12,3.45,0.06,5.13c0.07,0.59,0.21,2,0.29,2.57c0.13,0.54,0.46,1.96,0.6,2.52
		c2.12,7.81,8.11,14.32,15.64,17.29c10.85,2.47,16.63-7.86,21.51-15.68c2.42-4.35,3.9-9.07,4.78-13.93c1.16-0.19,2.72-0.44,3.91-0.1
		c3.38,0.67,3.47,4.87,2.07,7.36c-2.03,4.03-5.26,7.28-7.98,10.83c-1.17,1.56-2.44,3.2-3.26,5c-0.1,0.21-0.2,0.42-0.28,0.64
		c-0.01,0.03-0.02,0.05-0.03,0.08c-0.26,0.69-0.45,1.41-0.54,2.16c0.13-1.1,0.48-2.12,0.96-3.1c0.03-0.05,0.05-0.11,0.08-0.16
		c0.14-0.28,0.3-0.56,0.46-0.84c0.05-0.09,0.11-0.17,0.16-0.26c0.75-1.23,1.64-2.38,2.48-3.5c2.74-3.55,5.98-6.78,8.02-10.82
		c1.43-2.57,1.32-6.75-2.11-7.48c-1.27-0.27-2.65-0.19-3.91,0.1c0.77-4.3,1.07-8.71,1.1-13.06c0,0,0,0,0,0
		c-0.11,9.23-1.46,18.82-6.32,26.82c-2.48,3.84-5.22,7.73-8.44,10.97c-3.2,3.26-7.8,4.76-12.24,3.58
		c-7.41-3.23-14.02-11-14.91-19.55c-0.62-4.3-0.26-8.72,0.44-12.99c1.42-8.51,5.42-17.16,13.22-21.51
		c3.82-2.24,8.27-2.99,12.64-3.34c2.2-0.15,4.44-0.19,6.6,0.27c0.28,0.05,0.54,0.13,0.81,0.19c0.23,0.06,0.46,0.11,0.68,0.18
		c4.96,1.62,6.84,6.47,7.36,11.44c0.14,1.32,0.18,2.66,0.15,3.94c0.08-2.58-0.13-5.37-0.86-7.91c-0.08-0.27-0.15-0.53-0.24-0.79
		c-0.01-0.04-0.02-0.07-0.04-0.11c-0.38-1.08-0.87-2.09-1.48-3.01c-0.67-1.01-1.5-1.89-2.51-2.6c0.22-6.95-0.86-14.15-2.3-20.96
		c1.82-0.47,3.61-1.11,5.32-1.84c0.11-0.05,0.22-0.1,0.33-0.15c0.39-0.17,0.78-0.34,1.16-0.52c1.46-0.7,2.78-1.6,4-2.63
		c0.14-0.11,0.27-0.23,0.41-0.35c0.2-0.17,0.39-0.34,0.58-0.53c1.31-1.26,2.45-2.7,3.4-4.26c0.13-0.21,0.25-0.43,0.37-0.64
		c0.08-0.15,0.16-0.3,0.24-0.45c0.28-0.53,0.54-1.06,0.77-1.61c0.15-0.34,0.31-0.68,0.44-1.04c-0.16,0.41-0.34,0.81-0.52,1.22
		c-0.15,0.33-0.3,0.65-0.46,0.97c-2.02,3.97-5.21,7.32-9.27,9.26c-2.17,1-4.46,1.87-6.81,2.47c-0.05-0.15-0.22-0.24-0.37-0.2
		c-9.83,2.7-19.33-2.86-26.97-8.58c-2.6-1.99-5.12-4.14-7.42-6.43c-0.33-0.33-0.92-0.25-1.13,0.17
		c-8.97,17.37-26.84,15.7-41.55,6.75c-0.83-0.54-1.78,0.55-1.18,1.31c3.39,4.88,0.34,10.6-3.59,14.11c-0.2,0.18-0.27,0.42-0.26,0.65
		c-0.2,0.18-0.4,0.36-0.61,0.53c-0.02,0.01-0.04,0.03-0.05,0.04c-2.59,2.04-5.73,3.35-8.75,4.59c-0.03,0.03-0.05,0.07-0.08,0.1
		c-4.76,1.61-9.93,2.23-14.89,2.36c-0.02,0.04-0.04,0.07-0.06,0.11c-0.22,0-0.45,0-0.67,0c-0.35-0.01-0.64,0.28-0.64,0.63
		c-0.02,0.29-0.05,0.57-0.07,0.86c-0.02,0.01-0.05,0.01-0.07,0.01c-0.08,1.4-0.2,2.79-0.38,4.18c-0.05,0.36-0.09,0.73-0.14,1.09
		c0,0.01,0,0.02,0,0.03c-0.32,2.03-0.74,4.05-1.25,6.05c-1.02,4-2.39,7.91-4.05,11.69c-0.06,0.13-0.08,0.26-0.07,0.39
		c-0.03,0.06-0.05,0.12-0.08,0.17c-6.51,1.19-12.75,3.83-18.26,7.5c-0.31-0.09-0.62-0.18-0.93-0.25c-0.13-0.06-0.25,0-0.38,0.06
		c0.17,0.19,0.3,0.46,0.35,0.82c-0.8,1.03-1.63,0.89-2.03-0.35c0.22-0.44,0.53-0.69,0.84-0.76c-1.3-13.08-1.66-26.38,0.47-39.38
		c3.41-19.98,17.73-38.68,35.99-47.42c10.73-4.28,22.54-4.66,33.97-4.82c3.27,0,8.94,0.08,12.14-0.1
		c9.77,0.66,19.44,2.94,28.83,5.68c2.22,0.67,4.37,1.48,6.52,2.34c10.9,3.94,22.49,5.55,33.89,7.36c0.67,3.76,1.37,8.01,0.72,11.99
		c0.08-0.45,0.13-0.91,0.18-1.36c0.36-3.56-0.18-7.26-0.89-10.7c-11.38-1.87-22.95-3.54-33.81-7.51c-2.14-0.87-4.31-1.71-6.53-2.38
		c-9.42-2.8-19.07-5.26-28.9-6.02c-3.23,0.13-8.86,0.01-12.15-0.05c-12.65,0.09-26.06,0.17-37.62,5.99
		c-13.25,7.42-24.1,19.22-30.04,33.25c-3.73,8.62-5.02,18.07-5.46,27.38c-0.34,8.53-0.12,17.1,0.87,25.57
		c-7.54-0.29-11.74,7.99-12.2,14.62c-0.44,5.9,6.82,13.41,10.52,17.7c2.66,2.87,7.42,7.79,9.46,9.36
		c6.1,14.27,11.96,29.19,13.12,44.8c0.35,6.48-0.19,12.99-1.16,19.44c-3.64-1.69-7.98-2.3-11.76-0.78
		c-0.02,0.02-0.03,0.05-0.05,0.07c-3.9,1.37-7.1,4.33-9.27,7.79c-1.7-0.05-4.51,0.72-5.13,0.91c-8.98,2.85-17.01,7.91-25.22,12.37
		c-3.4,1.8-6.82,3.95-10.49,5.01c-1.67,0.44-3.24,1.2-4.7,2.06c-10.98,6.81-20.09,17.2-29.43,26.03l-8,7.83c0,0-1,0.98-1,0.98
		c-1.08,0.91-2,2.49-2.46,3.76c-3.38,8.78-5.2,18.04-7.3,27.15c-3.15,14.6-5.88,29.28-8.49,43.98c-0.05,0.31,0.06,0.64,0.33,0.85
		c9.78,7.5,20.63,13.6,32.22,17.79c11.59,4.24,24.1,6.1,36.42,4.82c10.64-3.78,22.06-4.87,33.33-4.83c0.05,0.04,0.1,0.09,0.16,0.13
		c3.38,1.78,6.8,3.47,10.29,5.02c23.91,10.7,51.19,14.87,76.89,8.89c0.18,0.34,0.58,0.57,0.98,0.39c0.13-0.05,0.27-0.1,0.4-0.15
		c-0.16-0.06-0.4-0.23-0.66-0.41c0.05-0.01,0.1-0.02,0.15-0.03c0.24,0.19,0.39,0.29,0.52,0.44c17.53-6.78,36.2-10.17,54.67-13.35
		c0.07,0.4,0.46,0.71,0.88,0.65c30.07-4.36,60.51-6.12,90.88-6.33c0,0,0.01,0,0.01,0l0,0l0,0c-30.09-0.68-60.23,0.74-90.09,4.64
		c2.2-16.18,1.47-32.56,0.68-48.83c2.12,4.84,5.42,12.39,5.42,12.39c0.09,0.23,0.29,0.42,0.55,0.5c3.4,1.24,8.29,0.56,10.9-0.81
		c18.94-6.21,36.05-17.02,52.59-27.93c2.19-1.54,3.98-3.46,5.63-5.47c7.94,9.8,13.92,21.46,15.74,34.03
		c-1.15,9.06-2.09,19.21-1.59,28.81c0.05,0.9,0.09,1.8,0.16,2.68c-0.55-10.56,0.7-21.15,2.17-31.58
		C389.69,356.96,383.51,344.79,375.32,334.63z M246.29,415.37c3.73-5.03,7.4-10.16,11.1-15.27c10.37-13.9,20.53-28.06,32.31-40.79
		c0.73-0.75,1.47-1.5,2.23-2.24c0.07-0.06,0.13-0.13,0.2-0.19c0.12-0.11,0.24-0.21,0.36-0.32c0.32-0.29,0.65-0.57,0.98-0.84
		c0.25-0.2,0.5-0.4,0.76-0.58c0.04-0.03,0.07-0.05,0.1-0.08c0.8-0.55,1.65-1.03,2.54-1.44c0.28-0.15,0.55-0.31,0.83-0.47
		c0.93,17.9,2.12,36.05-0.36,53.86c-0.02,0.08-0.01,0.16,0,0.23c-18.02,2.27-36.08,5.25-53.27,11.24
		C244.8,417.45,245.54,416.41,246.29,415.37z M342.4,265.21c-4.62,5.42-8.95,11.07-13.06,16.87c0.3-0.63,0.59-1.27,0.89-1.9
		c0.41-0.83,1.01-2.01,1.5-2.78c3.81-6.5,7.57-13.08,11.15-19.71c1.01-1.91,2.07-3.79,2.93-5.81c0.57-1.39,1.21-2.86,1.39-4.38
		c1.13,2.49,3.72,8.2,3.98,8.78c-0.64,0.22-1.25,0.52-1.74,0.84c-1.86,2.01-3.65,4.09-5.39,6.2
		C343.5,263.95,342.95,264.58,342.4,265.21z M84.76,404.78c-11.23-4.08-21.79-10.04-31.29-17.29c2.6-14.5,5.35-28.98,8.46-43.36
		c2.06-9.03,3.85-18.21,7.14-26.85c0.34-0.82,0.74-1.66,1.18-2.26c0.27-0.43,1.55-1.51,1.88-1.92c0,0,7.97-7.85,7.97-7.85
		c4.77-4.51,11.16-11.3,16-15.6c4.79-4.25,9.64-8.7,15.43-11.48c0.56-0.31,1.25-0.44,1.83-0.65c3.96-1.13,7.36-3.3,10.92-5.2
		c8.11-4.44,16.05-9.45,24.86-12.35c1.28-0.38,2.58-0.69,3.87-0.81c-0.42,0.8-0.89,1.7-0.89,1.7c-0.05,0.09-0.07,0.18-0.09,0.27
		c-3.24,7.07-2.34,14.56,1.32,21.28c-0.01,0.15,0.01,0.3,0.09,0.44c1.78,3.49,4.13,6.66,6.66,9.62c2.36,2.82,4.92,5.67,7.89,7.85
		c0.05,0.18,0.15,0.34,0.31,0.46c5.03,3.87,10.37,7.4,16.01,10.3c0.07,0.19,0.2,0.35,0.39,0.46c4.71,2.6,9.55,5.04,14.57,6.96
		c0.1,0.16,0.24,0.29,0.43,0.36c5.69,2.38,11.57,4.34,17.6,5.65c0.12,0.14,0.28,0.24,0.47,0.28c3.31,0.75,6.64,1.41,10.02,1.72
		c3.38,0.34,6.79,0.39,10.17,0.16c0.17-0.01,0.33-0.08,0.45-0.18c4.53-0.41,9.03-1.37,13.27-3.03c0.08-0.03,0.17-0.05,0.25-0.08
		c0.07,0.16,0.26,0.26,0.43,0.19c1.74-0.68,3.43-1.45,5.05-2.35c-1.09,3.23-4.55,8.09-7.51,10.81c-1.17,1.22-2.55,2.25-3.74,3.38
		c-0.5,0.85-1.38,1.75-2.2,2.59c-13.32,12.62-33.77,26.71-47.82,38.72c-9.68,7.16-19.68,14.01-29.82,20.49
		c-0.95,0.56-1.86,1.2-2.88,1.56c-1.24,0.61-2.34,1.35-3.43,2.04c-1.98,1.39-4.12,2.61-5.98,4.17c-1.08-0.01-2.17-0.02-3.28,0
		c2.13-12.77,3.33-25.69,3.54-38.63c-0.24-10.19,0.9-20.38,1.87-30.52c-1.93,8.58-3.33,17.3-3.66,26.12
		c-0.03,2.97-0.01,5.81-0.14,8.75c-0.37,9.96-1.18,24-1.69,34.29c-10.26,0.11-21.39,1.32-30.25,4.63
		C108.37,410.83,96.12,408.97,84.76,404.78z M237.1,315.72c0.03,2.49,0.08,4.97,0.14,7.46c-0.02,0.66-0.04,1.32-0.05,1.97
		c-4.73,0.1-9.46-0.31-14.12-1.15c-1.39-0.26-2.77-0.56-4.15-0.85c0.07-5.86,1.98-11.63,4.89-16.71c4.39,0.72,8.93,0.62,13.2-0.63
		C237.03,309.12,237.04,312.42,237.1,315.72z M217.09,322.87c-5.47-1.46-10.82-3.32-16.06-5.48c0.49-6.31,3.93-12.13,9.06-15.83
		c4.19,1.49,8.31,3.35,12.71,4.08C219.49,310.76,217.26,316.71,217.09,322.87z M238.57,325.26c0.08-3.18,0.16-6.35,0.19-9.53
		c0.06-3.17,0.07-6.34,0.08-9.51c4.04-1.23,7.6-3.81,10.65-6.7c4.09,6.57,2.96,16.32,2.42,23.71c0,0.03,0.01,0.06,0.02,0.1
		C247.56,324.49,243.08,325.11,238.57,325.26z M199.24,316.77c-4.45-1.99-8.8-4.18-13.06-6.54c0.9-6.1,5.36-11.14,10.13-14.89
		c4.29,1.79,8.6,3.41,12.97,5.23C203.77,304.14,199.93,310.21,199.24,316.77z M184.44,309.41c-4.96-2.96-9.81-6.13-14.4-9.63
		c2.62-5.09,7.55-8.68,12.1-12.04c4.31,2.47,8.79,4.62,13.36,6.55C190.34,297.92,185.64,303.01,184.44,309.41z M168.5,298.77
		c-1.17-0.99-2.33-2.01-3.33-3.09l-3.68-4.36c-2.23-2.69-4.28-5.49-5.96-8.49c4.77-2.37,10.22-3.07,15.5-3.52
		c3.09,2.97,6.69,5.23,10.41,7.27C176.51,289.84,171.34,293.45,168.5,298.77z M257.66,320.41c-0.04,0.2-0.1,0.41-0.17,0.62
		c-1.57,0.65-3.17,1.22-4.79,1.71c1.31-7.68,2.58-17.63-1.84-24.46c1.7-1.67,3.27-3.47,4.74-5.34c0.44,0.97,0.96,2.1,0.96,2.1
		c0.65,1.41,1.18,2.87,1.61,4.35C260,306.21,259.53,313.64,257.66,320.41z M289.2,275.73c-0.53,0.81-1.05,1.64-1.58,2.47
		c-1.49,0.63-3.05,1.08-4.63,1.41c-2.22,0.35-4.47,0.52-6.73,0.6c-1.02-8.37-2.88-22.06-12.87-22.33
		c5.41-7.05,11.86-13.34,19.21-18.36c3.73,9.07,7.75,18.53,11.68,27.55C292.53,270.17,290.61,273.5,289.2,275.73z M280.71,286.41
		c-0.98,0.58-1.94,1.21-2.83,0.65c-0.62-0.58-0.87-1.66-0.96-2.52c-0.09-0.88-0.18-1.78-0.27-2.67c3.59-0.35,7.24-1.1,10.41-2.82
		c-1.03,1.58-2.09,3.14-3.29,4.58C282.77,284.73,281.73,285.72,280.71,286.41z M170.67,278.09c-5.51,0.17-11.09,0.71-16.12,3.19
		c-2.93-6.08-3.69-12.82-0.99-19.13c7.57,0.3,13.24,6.65,17.62,12.33c-0.3,1.09-0.56,2.16-0.84,3.19l0,0l0,0l0,0h0c0,0,0,0,0,0l0,0
		L170.67,278.09z M173.64,261.17c-2.6-3.64-5.35-7.18-8.43-10.42c3.57-1.03,7.47-0.62,11.02,0.45h0
		C175.35,254.41,174.45,257.87,173.64,261.17z M163.46,251.27c0.79,0.89,1.54,1.81,2.32,2.72c2.5,3.03,5.17,6.45,7.62,9.55
		c0.11,0.15,0.26,0.23,0.42,0.26c-0.72,3.16-1.54,6.26-2.58,9.32c-3.07-4.72-6.95-9.14-12.17-11.52c-1.44-0.64-3.01-1.09-4.62-1.24
		l0.77-1.51l-0.02,0.01c0.01-0.02,0.03-0.04,0.04-0.06c-0.01,0.02-0.01,0.04-0.01,0.04C157.17,255.6,159.95,252.77,163.46,251.27z
		 M340.54,241.58c-0.04,0-0.08-0.01-0.12-0.01c0.02,0,0.03,0,0.05,0C340.49,241.58,340.52,241.58,340.54,241.58z M344.39,242.64
		c0.13,0.07,0.24,0.13,0.36,0.2C344.64,242.77,344.51,242.71,344.39,242.64z M342.94,235.05l-0.93,0l-0.89,0
		c0,0.02-0.01,0.04-0.01,0.06c-0.13,2.18-1.42,4.12-2.4,6.05c-0.09,0.15-0.14,0.32-0.13,0.51c-0.11,0.02-0.21,0.05-0.32,0.07
		c-0.06,0.01-0.12,0.03-0.19,0.04c-0.22,0.05-0.44,0.12-0.66,0.19c-0.12,0.04-0.24,0.08-0.36,0.12c-0.1,0.04-0.2,0.08-0.3,0.12
		c-2.81,1.14-4.95,3.51-6.97,5.89c-1.12,1.32-2.22,2.65-3.46,3.85c-0.01,0.01-0.02,0.02-0.03,0.03c-0.27,0.21-0.52,0.44-0.77,0.67
		c-0.14,0.12-0.29,0.24-0.43,0.37c-0.4,0.42-0.76,0.87-1.11,1.33c-1.43,1.81-2.56,3.91-3.78,5.84c-4.14,7.06-7.91,14.32-11.59,21.62
		c0.58-2.44,1.69-4.83,2.54-7.15c1.32-3.26,2.73-6.5,4.12-9.75c1.4-3.25,2.76-6.51,4.01-9.84c1.25-3.32,2.44-6.68,3.24-10.21
		c0.63-2.61,0.82-5.67-0.27-8.31c-1.16-3.52-4.31-4.88-7.54-2.88c-4.33,3.3-7.4,8.1-10.11,12.72c-1.7,3-3.46,6.64-4.61,9.58
		l-1.56,3.01l-9.64-23.14c-0.04-0.1-0.08-0.2-0.12-0.3c4.23-2.11,8.63-3.83,13.21-5.09c11.29-3.18,24.66-8.61,35.13-0.56
		c0.98,0.73,1.97,1.45,2.88,2.27c0.74,0.54,1.46,1.23,1.84,2.04c-0.35,0.1-0.64,0.4-0.63,0.84
		C341.6,235.04,342.49,235.04,342.94,235.05z M176.22,251.2C176.22,251.2,176.22,251.19,176.22,251.2
		C176.22,251.19,176.22,251.19,176.22,251.2L176.22,251.2z M196.41,116.44c-0.01,0.01-0.02,0.02-0.03,0.03
		c-2.68,5.24-4.16,11.01-4.85,16.84c-3.94,0.48-7.72,1.58-11.47,2.79c0.54-1.34,1.06-2.69,1.52-4.05c1.98-5.82,3.14-11.95,3.25-18.1
		c5.35-0.27,10.69-1.25,15.65-3.3C198.82,112.34,197.51,114.35,196.41,116.44z M229.47,155.46c-2.45,5.3-6.91,10.44-13.08,10.85
		c-3.82,0.38-8.15-1.17-11.05-3.06c-6.57-6.63-11.37-15.53-12.11-24.91c-0.44-7.25,1.39-14.69,4.2-21.32
		c0.01-0.01,0.02-0.02,0.02-0.04c0.94-2.04,2.09-3.98,3.51-5.69c3.32-1.28,6.47-3.01,9.12-5.41c0.08,0.01,0.16,0.02,0.24,0.01
		c0.01,0,2.26-0.23,2.27-0.24l0.08-0.01c0,0,0.06-0.01,0.06-0.01c11.14-1.53,17.77,4.75,19.37,15.55
		c1.19,5.57,3.04,11.94,2.62,17.56c0.1,0.28,0.34,0.46,0.61,0.5C234.5,144.97,231.91,150.26,229.47,155.46z M293.25,117.83
		c-0.14-0.08-0.28-0.15-0.43-0.22c-0.18-0.09-0.37-0.16-0.56-0.24c-5.92-2.4-16.06-0.98-21.12,1.61
		c-7.14,3.41-11.67,10.56-13.79,17.99c-3.43-1.41-7.18-1.75-10.81-1.53c-3.48,0.22-6.89,0.93-10.2,1.95
		c0.24-5.57-1.55-11.24-2.59-16.56c-1.63-11.58-9.17-18.58-21.12-17.01c2.51-2.86,4.32-6.45,3.73-10.33
		c-0.09-0.57-0.23-1.12-0.39-1.66c14.71,7.88,32.05,8.3,40.78-8.24c2.22,2.08,4.54,3.99,6.98,5.79c7.82,5.69,17.64,11.16,27.55,8.29
		c1.6,6.7,2.82,13.78,2.87,20.66C293.84,118.16,293.55,117.99,293.25,117.83z M177.23,138.25c-0.7,1.51-1.43,3-2.22,4.46
		c-1.55,2.85-3.28,5.66-5.19,8.23c-2.01-0.46-3.11-1.9-4.86-3.14c-1.58-1.05-3.33-1.8-5.12-2.34
		C165.89,143.71,171.69,141.26,177.23,138.25z M154.44,257.49l-0.3,0.17c-0.06-0.01-0.12-0.01-0.19-0.01
		C154.13,257.53,154.32,257.46,154.44,257.49z"/>
	<g>
		<path class="st3" d="M280,218.04c-0.03-0.04-0.06-0.08-0.09-0.13c0,0-0.1-0.25-0.26-0.63c-0.22-0.14-0.31-0.37-0.26-0.63
			c-0.42-1.02-0.98-2.37-1.23-2.96l-15.25-5.88l-15.24-5.89c-1.19,0.45-2.4,0.82-3.61,1.14c-0.15,0.31-0.33,0.69-0.61,1.29
			l29.89,9.3c0.25,0.08,0.44,0.26,0.52,0.48c0,0,3.55,9.1,4.16,10.64c0.25,0.05,0.48,0.2,0.57,0.46c0,0,2.47,6.44,4.79,12.49
			c0.12,0.08,0.22,0.19,0.28,0.33c1.89,4.98,3.76,9.95,5.59,14.91c0.22,0.61,0.45,1.27,0.7,1.95c1.49,3.97,2.98,7.94,4.48,11.9
			c1.39-2.48,2.66-4.79,3.46-6.25c0,0,0.08-0.15,0.21-0.4c-5.49-12.76-11.2-26.39-16.42-39.04c0,0-0.34-0.7-0.72-1.46
			c-0.34-0.34-0.64-0.73-0.87-1.24C280.01,218.31,279.99,218.17,280,218.04z"/>
	</g>
	<path class="st11" d="M280,218.04c0.01-0.2,0.07-0.4,0.15-0.59c-0.2-0.02-0.37-0.08-0.49-0.17c0.16,0.38,0.26,0.63,0.26,0.63
		C279.93,217.96,279.97,217.99,280,218.04z"/>
	<path class="st1" d="M241.93,205.81c0.42,0.07,0.86-0.04,1.06-0.49c0.48-0.9,0.48-2.09,0.42-3.02c-0.08,0.1-0.45,0.24-0.99,0.56
		c-0.14,0.09-0.3,0.21-0.46,0.34c0.13-0.27,0.15-0.32,0.26-0.54c-6.79,2.13-13.96,2.77-21.06,2.83c0.67,7.33,9.02,10.21,15.52,10.81
		l5.06-10.54C241.81,205.78,241.87,205.8,241.93,205.81z"/>
	<g>
		<path class="st10" d="M282.6,239.51c-7.35,5.02-13.79,11.31-19.21,18.36c9.99,0.27,11.84,13.96,12.87,22.33
			c2.26-0.08,4.51-0.25,6.73-0.6c1.59-0.33,3.15-0.78,4.63-1.41c0.53-0.83,1.05-1.65,1.58-2.47c1.41-2.23,3.33-5.55,5.08-8.66
			C290.35,258.05,286.34,248.59,282.6,239.51z"/>
	</g>
	<g>
		<path class="st10" d="M287.07,279.05c-3.17,1.72-6.83,2.47-10.41,2.82c0.1,0.89,0.18,1.79,0.27,2.67
			c0.09,0.86,0.33,1.94,0.96,2.52c0.89,0.56,1.85-0.07,2.83-0.65c1.02-0.69,2.06-1.68,3.07-2.78
			C284.98,282.19,286.05,280.63,287.07,279.05z"/>
	</g>
	<g>
		<path class="st13" d="M155.24,258.81c-0.01,0.02-0.03,0.04-0.04,0.06l0.02-0.01l-0.77,1.51c1.61,0.15,3.17,0.6,4.62,1.24
			c5.21,2.38,9.09,6.8,12.17,11.52c1.04-3.06,1.86-6.16,2.58-9.32c-0.16-0.04-0.31-0.12-0.42-0.26c-2.46-3.1-5.12-6.52-7.62-9.55
			c-0.77-0.91-1.53-1.83-2.32-2.72c-3.5,1.5-6.28,4.33-8.23,7.58C155.23,258.85,155.23,258.82,155.24,258.81z"/>
	</g>
	<polygon class="st15" points="176.22,251.2 176.22,251.2 176.22,251.19 	"/>
	<g>
		<path class="st13" d="M165.21,250.75c3.08,3.25,5.83,6.78,8.43,10.42c0.81-3.3,1.72-6.75,2.59-9.97h0
			C172.67,250.12,168.78,249.71,165.21,250.75z"/>
	</g>
	<g>
		<path class="st13" d="M170.34,277.67L170.34,277.67c0.27-1.03,0.53-2.1,0.84-3.19c-4.38-5.68-10.05-12.03-17.62-12.33
			c-2.7,6.31-1.94,13.05,0.99,19.13c5.03-2.48,10.61-3.02,16.12-3.19L170.34,277.67L170.34,277.67L170.34,277.67z"/>
	</g>
	<polygon class="st15" points="170.34,277.67 170.34,277.67 170.34,277.67 	"/>
	<g>
		<path class="st13" d="M171.03,279.31c-5.28,0.45-10.74,1.15-15.5,3.52c1.68,3,3.74,5.8,5.96,8.49l3.68,4.36
			c1,1.08,2.16,2.1,3.33,3.09c2.84-5.33,8.01-8.93,12.93-12.19C177.71,284.54,174.12,282.28,171.03,279.31z"/>
	</g>
	<g>
		<path class="st13" d="M182.14,287.73c-4.55,3.37-9.48,6.95-12.1,12.04c4.59,3.5,9.44,6.67,14.4,9.63
			c1.2-6.4,5.9-11.49,11.06-15.12C190.93,292.36,186.46,290.2,182.14,287.73z"/>
	</g>
	<g>
		<path class="st13" d="M196.31,295.34c-4.77,3.75-9.23,8.79-10.13,14.89c4.26,2.36,8.61,4.55,13.06,6.54
			c0.69-6.56,4.53-12.63,10.05-16.21C204.91,298.74,200.6,297.13,196.31,295.34z"/>
	</g>
	<g>
		<path class="st13" d="M201.04,317.4c5.24,2.15,10.59,4.01,16.06,5.48c0.16-6.16,2.4-12.11,5.72-17.23
			c-4.41-0.73-8.52-2.59-12.71-4.08C204.96,305.27,201.53,311.09,201.04,317.4z"/>
	</g>
	<g>
		<path class="st13" d="M223.82,306.44c-2.91,5.09-4.83,10.85-4.89,16.71c1.38,0.29,2.76,0.59,4.15,0.85
			c4.65,0.83,9.39,1.24,14.12,1.15c0.02-0.66,0.04-1.31,0.05-1.97c-0.06-2.49-0.12-4.97-0.14-7.46c-0.06-3.3-0.07-6.61-0.08-9.91
			C232.75,307.06,228.2,307.16,223.82,306.44z"/>
	</g>
	<g>
		<path class="st13" d="M251.91,323.23c0.55-7.39,1.68-17.14-2.42-23.71c-3.05,2.89-6.6,5.47-10.65,6.7
			c-0.01,3.17-0.03,6.34-0.08,9.51c-0.03,3.18-0.11,6.36-0.19,9.53c4.51-0.14,8.99-0.77,13.36-1.93
			C251.92,323.29,251.91,323.26,251.91,323.23z"/>
	</g>
	<g>
		<path class="st13" d="M255.6,292.94c-1.47,1.87-3.04,3.66-4.74,5.34c4.42,6.84,3.15,16.78,1.84,24.46
			c1.62-0.48,3.22-1.06,4.79-1.71c0.07-0.22,0.13-0.43,0.17-0.62c1.87-6.77,2.34-14.2,0.5-21.02c-0.43-1.48-0.96-2.93-1.61-4.35
			C256.56,295.04,256.04,293.91,255.6,292.94z"/>
	</g>
	<path class="st11" d="M255.07,178.56c-1.57,1-3.08,2.06-4.41,3.39c2.07-0.46,3.97-1.29,5.86-2.2c0.34-0.17,0.54-0.56,0.45-0.95
		c-0.63-2.84,0.35-5.97,0.73-8.94C255.76,172.25,254.47,175.47,255.07,178.56z"/>
	<path class="st11" d="M177.08,84.53c0.85-2.58,1.86-5.03,3.19-7.27c4.04-6.95,11.8-10.38,19.58-11.17
		C188.2,64.18,177.34,72.55,177.08,84.53z"/>
	<g>
		<path class="st5" d="M57.26,195.91c-2.75,8.03-3.37,16.59-5.17,24.87c-0.65,3.57-1.57,7.12-2.15,10.69
			c-0.48,3.57-0.56,7.21-0.78,10.83c0,0-0.27,4.89-0.35,6.33c1.55,0,10.46,0.03,11.71,0.03c-0.55-3.42-0.73-6.87-0.68-10.32
			c0.33-11.25,3.08-22.32,7.17-32.76c1.75-4.67,3.93-9.16,6.17-13.59c2.05-2.94,4.25-5.74,6.52-8.49c4.53-5.43,9.36-10.68,14.98-15
			c2.82-2.14,5.8-4.13,9.14-5.38c0.01,0,0.01,0,0.02,0c-1.08-3.79-2.79-8.77-5.28-11.03c-4.32,2.19-8.42,4.82-12.35,7.66
			C73.57,168.89,62.46,181.05,57.26,195.91z"/>
	</g>
	<g>
		<g>
			<path class="st11" d="M61.52,250.38c0,0,0.06-0.02,0.11-0.03c0.06-0.01,0.11,0,0.17-0.02c0.5-0.18,0.62-0.39,0.91-0.64l0.49-0.5
				c0.65-0.68,1.39-1.3,2.22-1.7c0.02,0.24,0.03,0.47,0.05,0.71c0.04,0.52,0.56,0.89,1.07,0.75c16.07-4.18,32.47-7.12,48.96-9.11
				c5.5-0.63,11.02-1.13,16.54-1.53c0.6-0.03,0.95-0.74,0.62-1.24c-12.69-20.61-23.37-42.88-28.87-66.56c0,0,0,0,0,0l0,0l0,0
				c3.5,18.11,10.24,35.41,18.73,51.78c-0.33-0.13-0.68-0.21-1-0.23c-0.41,0-0.88,0.08-1.29,0.26c-0.72,0.04-1.34,0.38-1.49,1.29
				c0.12,1.94,2.55,1.6,3.71,0.91c0.41,0,0.8-0.06,1.05-0.36c2.27,4.28,4.64,8.49,7.12,12.63c-21.43,1.46-42.76,4.72-63.53,10.23
				c-0.57-7.26-0.14-14.61,0.27-21.89c0.13-3.76,1.2-7.39,2.66-10.88c1.48-3.55,3.42-6.94,5.53-10.14
				c4.6-14.3,14.6-26.97,28.23-33.6c0,0,0,0,0,0c-4.83,2.07-9.29,5.06-13.25,8.63c3.31-3.21,7.07-5.96,11.3-8.02
				c-0.16,0.07-0.31,0.15-0.47,0.22c-13.36,6.01-22.35,18.81-26.99,32.38c-2.73,3.7-6,9.7-7.51,14.82c-0.51,1.82-0.9,3.69-1.05,5.61
				c-0.48,7.11-1.34,14.31-0.77,21.59c-1.1,0.44-2.05,1.14-2.88,1.95c-0.42-3.07-0.54-6.19-0.52-9.29
				c0.34-14.75,4.93-29.13,11.18-42.4c-0.05,0.09,1.47-3.09,1.55-3.28c5.96-8.61,12.67-16.9,20.7-23.67
				c2.66-2.16,5.49-4.19,8.65-5.53c0.09,0.33,0.26,0.98,0.26,0.98c-0.61,1.35-1.59,3.4-1.99,5.31c-0.09,0.44-0.16,0.88-0.18,1.3h0
				c0,0,0,0,0,0s0,0,0,0l0,0c0.2-2.33,1.53-4.46,2.46-6.58c0.05-0.08-0.26-1.23-0.27-1.32c-0.03-0.08-0.12-0.12-0.2-0.1
				c-0.78-3.05-1.64-6.12-3.15-8.91c-0.54-0.93-1.14-1.87-2.12-2.5c-0.06-0.04-0.13-0.04-0.19-0.01c-4.42,2.1-8.61,4.62-12.64,7.37
				c-12.04,8.33-22.71,19.31-28.61,32.87c-1.97,4.5-3.27,9.35-4.07,14.17c-1.38,8.43-3.21,16.72-4.89,25.09
				c-0.77,6.08-0.86,12.2-1.22,18.29c-0.03,0.52,0.39,0.96,0.91,0.96c0.02,0,13.43-0.04,13.44-0.04
				C61.37,250.41,61.45,250.4,61.52,250.38z M120.45,224.02c0.02-0.02,0.05-0.04,0.07-0.06c-0.01,0.01-0.02,0.04-0.03,0.05
				C120.45,224.05,120.44,224.04,120.45,224.02z M120.47,223.33c-0.01-0.02,0-0.03,0.04,0.01c0.01,0.01,0.02,0.03,0.03,0.05
				C120.52,223.37,120.49,223.35,120.47,223.33z M120.91,223.69c0.18-0.09,0.37-0.18,0.57-0.26c0.53-0.2,1.58-0.38,1.76,0.35h0
				C122.89,224.62,121.65,224.19,120.91,223.69z M123.18,223.58c0.04,0.07,0.07,0.13,0.06,0.2
				C123.24,223.71,123.21,223.65,123.18,223.58z M123.16,223.98c0.04-0.06,0.07-0.12,0.08-0.2l0,0
				C123.24,223.86,123.21,223.92,123.16,223.98z M103.83,163.11c-0.01,0-0.01,0-0.02,0c-3.34,1.25-6.32,3.25-9.14,5.38
				c-5.62,4.33-10.45,9.57-14.98,15c-2.27,2.75-4.46,5.55-6.52,8.49c-2.24,4.44-4.42,8.92-6.17,13.59
				c-4.08,10.44-6.84,21.51-7.17,32.76c-0.06,3.45,0.13,6.9,0.68,10.32c-1.25,0-10.15-0.03-11.71-0.03
				c0.08-1.44,0.35-6.33,0.35-6.33c0.21-3.62,0.3-7.26,0.78-10.83c0.58-3.56,1.5-7.12,2.15-10.69c1.8-8.27,2.42-16.84,5.17-24.87
				c5.2-14.87,16.3-27.02,28.94-36.17c3.92-2.84,8.03-5.47,12.35-7.66C101.04,154.34,102.75,159.32,103.83,163.11z"/>
		</g>
	</g>
	<g>
		<path class="st17" d="M101.85,171.11c-0.05-0.27,0.03-0.74,0.18-1.3c0.4-1.91,1.38-3.97,1.99-5.31c0,0-0.17-0.65-0.26-0.98
			c-3.17,1.34-5.99,3.36-8.65,5.53c-8.03,6.77-14.75,15.05-20.7,23.67c-0.08,0.19-1.59,3.37-1.55,3.28
			c-6.26,13.27-10.85,27.65-11.18,42.4c-0.02,3.1,0.1,6.22,0.52,9.29c0.83-0.81,1.78-1.51,2.88-1.95
			c-0.57-7.27,0.29-14.48,0.77-21.59c0.15-1.92,0.54-3.79,1.05-5.61c1.51-5.12,4.77-11.12,7.51-14.82
			c4.63-13.57,13.63-26.37,26.99-32.38C101.54,171.25,101.7,171.18,101.85,171.11L101.85,171.11z"/>
	</g>
	<g>
		<path class="st4" d="M75.57,204.1c-2.11,3.2-4.05,6.59-5.53,10.14c-1.47,3.5-2.53,7.13-2.66,10.88
			c-0.41,7.28-0.84,14.63-0.27,21.89c20.77-5.51,42.1-8.78,63.53-10.23c-2.47-4.14-4.85-8.36-7.12-12.63
			c-0.25,0.3-0.64,0.36-1.05,0.36c-1.16,0.7-3.6,1.03-3.71-0.91c0.15-0.91,0.76-1.26,1.49-1.29c0.41-0.18,0.88-0.26,1.29-0.26
			c0.32,0.02,0.67,0.1,1,0.23c-8.5-16.36-15.23-33.67-18.73-51.78c0,0,0,0,0,0C90.18,177.13,80.18,189.81,75.57,204.1z
			 M99.37,182.84c0.28,0.33,0.48,0.8,0.54,1.28c0.31,0.59,0.31,1.28-0.33,1.88c-1.58,1.09-2.95-0.86-2.95-2.27
			c-0.24-0.42-0.36-0.88-0.03-1.35C97.41,181.56,98.75,182.1,99.37,182.84z M92.95,198.47c0.04-0.13,0.1-0.27,0.19-0.4
			c0.11-0.12,0.22-0.21,0.34-0.29c2.17-1.53,6.23,1.4,4.4,3.95C95.87,204.16,92.01,200.95,92.95,198.47z M84.38,200.38
			c-0.08,0.88-0.66,1.26-1.35,1.34c-0.39,0.23-0.84,0.37-1.22,0.33c-0.64,0-1.3-0.24-1.77-0.75c-0.47-0.44-0.48-1.33,0.23-1.54
			c0.18-0.06,0.37-0.09,0.56-0.1C81.88,198.87,84.21,198.53,84.38,200.38z M79.36,234.19c-0.86-0.13-0.4-1.13,0.14-1.45
			c0.42-0.29,0.95-0.26,1.35,0c0.55-0.01,1.05,0.35,1.07,1.05c-0.04,0.67-0.55,1.04-1.08,1.02c-0.36-0.03-0.85-0.34-1.18-0.66
			C79.56,234.17,79.46,234.19,79.36,234.19z M78.03,231.37c-0.41-0.11-0.87-0.14-1.26-0.39c-1.16-1,0.81-2.13,1.77-1.77
			c1.02,0.11,2.3,1.99,0.81,2.37C78.87,231.63,78.45,231.45,78.03,231.37z M79.39,219.87c-0.09,1.71-2.2,1.64-3.12,0.7
			c-0.68-0.17-1.16-0.64-0.72-1.52c0.57-0.98,1.92-1.14,2.76-0.51C78.9,218.67,79.36,219.09,79.39,219.87z M82.43,238.49
			c-0.27,0.22-0.43,0.16-0.62,0.07c-0.17-0.12-0.32-0.27-0.46-0.42c-0.11-0.04-0.22-0.09-0.33-0.14c-0.79-0.18-1.7-0.36-2.09-1.15
			c-0.49-1.03,0.63-1.91,1.55-1.35c0.16,0.09,0.3,0.21,0.42,0.34c0.86,0.27,1.54,0.99,1.68,1.93
			C82.62,238,82.66,238.24,82.43,238.49z M82.56,208.93c-0.21-0.4-0.29-0.85,0-1.39c1.32-1.58,3.57-0.04,3.71,1.56
			c0.25,0.57,0.21,1.22-0.32,1.81C84.49,212.26,82.59,210.52,82.56,208.93z M83.35,216.38c0.62-2.28,4.13-1,4.01,0.93
			C86.61,219.08,82.91,218.69,83.35,216.38z M89.65,187.49c1.15-1.77,3.48,0.12,2.74,1.6C91.46,190.45,88.66,189.36,89.65,187.49z
			 M97.5,231.87C97.5,231.87,97.5,231.87,97.5,231.87c-1.07,1.08-3.7,3.49-5.03,1.61c-0.32-1.06,0.35-1.74,1.28-2.19
			c0.39-0.38,0.85-0.69,1.33-0.93c0.91-0.43,1.95-0.67,2.97-0.44c0.17,0.06,0.48,0.12,0.68,0.53
			C98.93,231.31,98.03,231.55,97.5,231.87z M100.14,224.64c-0.71,0.95-2.18,0.66-2.84-0.12c-0.35-0.36-0.56-0.89-0.58-1.41
			c-0.23-0.57-0.17-1.21,0.4-1.77c1.53-1.27,3.17,0.51,3.09,1.99C100.39,223.72,100.43,224.16,100.14,224.64z M103.73,208.15
			c-1.3-0.06-3.19-1.35-2.1-2.8c1.31-1.25,2.81,0.46,3.04,1.74c0.08,0.31,0.18,0.67-0.02,0.93
			C104.42,208.24,104.05,208.18,103.73,208.15z M108.44,217.15c-0.02,0.09-0.06,0.18-0.11,0.27c-0.08,0.07-0.16,0.11-0.25,0.15
			c-1.66,0.86-4.67-1.23-3.22-3.12C106.51,212.74,109.04,215.37,108.44,217.15z M115.59,228.83c1.24-0.66,2.9-0.47,3.87,0.6
			c0.89,1.24,0.08,1.86-0.96,2.09c0,0,0,0-0.01,0c-1.38,0.88-4.26,1.27-4.54-1.03C114.09,229.46,114.77,228.97,115.59,228.83z
			 M108.12,200.51c1.91-0.99,3.17,1.53,3.17,3.09c0.26,0.53,0.37,1.08-0.08,1.61c-1.1,0.77-2.45-0.18-3.05-1.09
			c-0.26-0.41-0.47-0.96-0.53-1.51C107.32,201.89,107.36,201.12,108.12,200.51z M105.45,198.59c-0.68,0.18-1.2-0.03-1.61-0.39
			c-1.74-0.59-3.06-3.25-1.17-4.44c0.79-0.41,1.53-0.26,2.1,0.18C106.5,194.63,107.54,197.58,105.45,198.59z"/>
	</g>
	<path class="st1" d="M79.78,237.15c-0.03,0-0.06,0-0.03,0.01c0.05,0.01,0.1,0.01,0.16,0.01C79.87,237.16,79.83,237.15,79.78,237.15
		z"/>
	<polygon class="st1" points="103.8,170.5 103.8,170.5 103.8,170.5 	"/>
	<path class="st3" d="M91.24,188.32c0.02,0.02,0.03,0.06,0,0.11c-0.03,0.06-0.08,0.06-0.1,0.04c-0.11,0.59,0.81,1.28,1.23,0.61
		C92.75,188.39,91.7,187.94,91.24,188.32z"/>
	<path class="st1" d="M80.33,234.33c0.08,0.05,0.14,0.05,0.1-0.05c0,0,0-0.01,0-0.01C80.39,234.3,80.36,234.32,80.33,234.33z"/>
	<g>
		<g>
			<path class="st3" d="M80.84,234.81c0.54,0.02,1.04-0.35,1.08-1.02c-0.02-0.7-0.52-1.06-1.07-1.05c-0.41-0.25-0.94-0.29-1.35,0
				c-0.54,0.32-0.99,1.32-0.14,1.45c0.1,0,0.2-0.02,0.3-0.04C79.98,234.47,80.47,234.77,80.84,234.81z M80.43,234.28
				c0.04,0.1-0.02,0.11-0.1,0.05C80.36,234.32,80.39,234.3,80.43,234.28C80.42,234.27,80.43,234.28,80.43,234.28z M80.53,233.78
				c0.09-0.24,0.21-0.14,0.19-0.07c-0.02,0.11-0.09,0.2-0.19,0.27C80.52,233.92,80.52,233.86,80.53,233.78z M79.63,233.7
				c-0.02-0.06,0.07-0.18,0.18,0.05c0.01,0.09,0.01,0.16,0.01,0.21C79.72,233.9,79.65,233.81,79.63,233.7z"/>
		</g>
	</g>
	<g>
		<path class="st3" d="M80.91,235.84c-0.12-0.13-0.26-0.25-0.42-0.34c-0.93-0.56-2.05,0.32-1.55,1.35c0.4,0.79,1.3,0.97,2.09,1.15
			c0.11,0.06,0.22,0.1,0.33,0.14c0.14,0.15,0.28,0.3,0.46,0.42c0.19,0.09,0.35,0.14,0.62-0.07c0.23-0.25,0.19-0.49,0.16-0.72
			C82.44,236.83,81.76,236.11,80.91,235.84z M81.42,237.85c-0.1-0.13-0.19-0.28-0.28-0.43c0.43,0.12,0.93,0.32,0.95,0.76l0,0
			C81.84,238.29,81.59,238.01,81.42,237.85z M82.08,238c0.03,0.08,0.04,0.14,0.01,0.18C82.1,238.11,82.09,238.06,82.08,238z
			 M79.75,237.16c-0.03-0.01,0-0.01,0.03-0.01c0.04,0.01,0.08,0.01,0.12,0.02C79.85,237.17,79.8,237.16,79.75,237.16z M82.08,238.18
			C82.08,238.18,82.09,238.18,82.08,238.18C82.09,238.18,82.09,238.18,82.08,238.18C82.09,238.18,82.08,238.18,82.08,238.18z"/>
	</g>
	<g>
		<path class="st3" d="M85.94,210.9c0.53-0.58,0.57-1.23,0.32-1.81c-0.13-1.6-2.39-3.14-3.71-1.56c-0.29,0.54-0.21,0.99,0,1.39
			C82.59,210.52,84.49,212.26,85.94,210.9z M83.28,209.87C83.28,209.86,83.28,209.86,83.28,209.87
			C83.28,209.86,83.28,209.86,83.28,209.87C83.28,209.86,83.28,209.86,83.28,209.87C83.28,209.86,83.27,209.86,83.28,209.87
			C83.27,209.86,83.28,209.86,83.28,209.87C83.27,209.86,83.27,209.86,83.28,209.87c-0.07-0.08-0.13-0.14-0.19-0.21
			c-0.32-0.47-0.43-1.34,0.11-1.46c0.35,0.03,0.68,0.4,1.02,0.72c0.32,0.35,0.68,0.67,0.72,1.01c-0.12,0.55-0.98,0.44-1.46,0.12
			C83.41,209.99,83.35,209.93,83.28,209.87z"/>
	</g>
	<g>
		<path class="st3" d="M98.06,229.92c-1.02-0.24-2.07,0.01-2.97,0.44c-0.48,0.24-0.93,0.55-1.33,0.93c-0.94,0.45-1.6,1.13-1.28,2.19
			c1.32,1.89,3.96-0.53,5.02-1.61c0,0,0,0,0,0c0.53-0.32,1.43-0.56,1.24-1.42C98.55,230.03,98.23,229.98,98.06,229.92z M98.28,230.9
			c0.03-0.08,0.04-0.17,0.03-0.26c0.04,0.51-0.58,0.8-0.96,1.02c-0.61,0.31-1.55,0.5-2.34,0.59c0.57-0.57,1.29-1.2,1.91-1.49
			c0.41-0.16,1.02-0.48,1.39-0.12c-0.07-0.07-0.15-0.11-0.23-0.14c0.11,0.03,0.19,0.07,0.23,0.14
			C98.35,230.71,98.33,230.8,98.28,230.9z"/>
	</g>
	<g>
		<path class="st3" d="M97.12,221.33c-0.57,0.56-0.63,1.21-0.4,1.77c0.02,0.53,0.23,1.06,0.58,1.41c0.67,0.78,2.14,1.07,2.84,0.12
			c0.29-0.49,0.25-0.92,0.07-1.32C100.29,221.85,98.65,220.07,97.12,221.33z M99.6,222.42C99.6,222.42,99.6,222.42,99.6,222.42
			C99.6,222.42,99.6,222.42,99.6,222.42c0.09,0.1,0.15,0.22,0.22,0.33c0.21,0.47,0.18,1.14-0.3,1.21c-0.35-0.06-0.56-0.41-0.85-0.69
			c-0.25-0.31-0.57-0.56-0.61-0.9c0.12-0.52,0.92-0.44,1.35-0.12C99.47,222.3,99.54,222.36,99.6,222.42
			C99.59,222.42,99.6,222.42,99.6,222.42C99.6,222.42,99.6,222.42,99.6,222.42C99.6,222.42,99.6,222.42,99.6,222.42
			C99.6,222.42,99.6,222.42,99.6,222.42z"/>
	</g>
	<g>
		<path class="st3" d="M104.78,193.94c-0.58-0.44-1.31-0.59-2.1-0.18c-1.9,1.19-0.57,3.85,1.17,4.44c0.42,0.36,0.93,0.57,1.61,0.39
			C107.54,197.58,106.5,194.63,104.78,193.94z M105.21,198.19c-0.19,0.11-0.4,0.14-0.63,0.12c0.09,0,0.18-0.01,0.27-0.02
			c-1.29,0.16-2.03-2.13-1.27-2.91c1.07-0.26,2.68,1.52,1.88,2.56c0.06-0.07,0.11-0.15,0.16-0.22
			C105.54,197.92,105.4,198.08,105.21,198.19z"/>
	</g>
	<path class="st3" d="M77.17,220.64c0.38,0,0.84-0.21,0.93-0.59c0.02-0.11-0.04-0.19-0.1-0.19c-0.21,0.11-0.51,0.15-0.83,0.15
		c-0.32,0-0.62-0.06-0.83-0.15c-0.32,0.17,0.14,0.67,0.62,0.77C77.03,220.63,77.09,220.64,77.17,220.64
		C77.17,220.64,77.17,220.64,77.17,220.64z"/>
	<g>
		<path class="st3" d="M75.56,219.05c-0.44,0.88,0.04,1.34,0.72,1.52c0.92,0.94,3.03,1.01,3.12-0.7c-0.04-0.78-0.5-1.19-1.07-1.32
			C77.47,217.91,76.13,218.07,75.56,219.05z M76.34,219.86c0.21,0.09,0.52,0.15,0.83,0.15c0.31,0,0.62-0.04,0.83-0.15
			c0.06,0,0.12,0.08,0.1,0.19c-0.09,0.38-0.55,0.59-0.93,0.59c0,0,0,0,0,0c-0.07,0-0.14-0.01-0.21-0.01
			C76.48,220.53,76.01,220.03,76.34,219.86z"/>
	</g>
	<path class="st3" d="M79.1,231.07c0.07-0.09,0.02-0.2-0.06-0.14c-0.21,0.3-0.61,0.11-0.92,0.08c-0.29-0.11-0.73-0.12-0.79-0.48
		c-0.05-0.07-0.14-0.01-0.12,0.1c0.07,0.38,0.47,0.65,0.83,0.73C78.39,231.46,78.87,231.38,79.1,231.07z"/>
	<g>
		<path class="st3" d="M79.34,231.58c1.49-0.38,0.22-2.26-0.81-2.37c-0.95-0.35-2.93,0.78-1.77,1.77c0.4,0.25,0.85,0.28,1.26,0.39
			c-0.36-0.08-0.76-0.36-0.83-0.73c-0.02-0.11,0.06-0.18,0.12-0.1c0.06,0.36,0.5,0.37,0.79,0.48c0.31,0.03,0.71,0.22,0.92-0.08
			c0.09-0.06,0.13,0.05,0.06,0.14c-0.22,0.31-0.7,0.38-1.07,0.3C78.45,231.45,78.87,231.63,79.34,231.58z"/>
	</g>
	<path class="st3" d="M80.71,233.7c0.02-0.06-0.1-0.16-0.19,0.07c-0.01,0.09-0.01,0.15,0,0.2C80.62,233.9,80.7,233.81,80.71,233.7z"
		/>
	<path class="st3" d="M79.81,233.75c-0.11-0.23-0.21-0.1-0.18-0.05c0.02,0.11,0.1,0.19,0.19,0.26
		C79.82,233.91,79.82,233.85,79.81,233.75z"/>
	<path class="st1" d="M82.09,238.17c0.03-0.04,0.03-0.1-0.01-0.18C82.09,238.06,82.1,238.11,82.09,238.17z"/>
	<polygon class="st1" points="82.08,238.18 82.09,238.18 82.09,238.18 	"/>
	<path class="st3" d="M82.09,238.18c-0.02-0.45-0.51-0.64-0.95-0.76c0.09,0.16,0.18,0.31,0.28,0.43
		C81.59,238.01,81.84,238.29,82.09,238.18L82.09,238.18z"/>
	<path class="st1" d="M82.67,200.05c-0.03-0.01-0.07,0.03-0.1,0.1C82.61,200.12,82.65,200.08,82.67,200.05z"/>
	<path class="st1" d="M82.68,200.71c-0.02-0.03-0.07-0.07-0.1-0.11C82.6,200.68,82.64,200.72,82.68,200.71z"/>
	<path class="st1" d="M80.23,200.2c-0.03,0.06-0.06,0.12-0.06,0.19C80.18,200.31,80.21,200.25,80.23,200.2z"/>
	<path class="st1" d="M80.18,200.38c0,0.06,0.02,0.13,0.06,0.19C80.21,200.51,80.18,200.45,80.18,200.38z"/>
	<path class="st3" d="M82.3,200.38c-0.67-0.46-1.85-0.82-2.13,0c0,0,0,0,0,0C80.45,201.21,81.63,200.84,82.3,200.38z"/>
	<g>
		<path class="st3" d="M80.82,199.66c-0.19,0.01-0.37,0.04-0.56,0.1c-0.7,0.2-0.69,1.1-0.23,1.54c0.47,0.51,1.13,0.75,1.77,0.75
			c0.38,0.04,0.83-0.1,1.22-0.33c0.69-0.08,1.27-0.45,1.35-1.34C84.21,198.53,81.88,198.87,80.82,199.66z M82.3,200.38
			c-0.67,0.46-1.85,0.83-2.13,0c0,0,0,0,0,0C80.45,199.56,81.63,199.92,82.3,200.38z M80.18,200.38c0-0.06,0.02-0.13,0.06-0.19
			C80.21,200.25,80.18,200.31,80.18,200.38z M82.67,200.05c-0.02,0.03-0.07,0.07-0.1,0.1C82.6,200.09,82.64,200.04,82.67,200.05z
			 M82.57,200.61c0.03,0.04,0.08,0.07,0.1,0.11C82.64,200.72,82.6,200.68,82.57,200.61z M80.23,200.57
			c-0.03-0.06-0.06-0.12-0.06-0.19C80.18,200.45,80.21,200.51,80.23,200.57z"/>
	</g>
	<path class="st3" d="M84.94,209.92c-0.04-0.34-0.4-0.66-0.72-1.01c-0.34-0.32-0.67-0.69-1.02-0.72c-0.54,0.12-0.43,0.99-0.11,1.46
		c0.06,0.07,0.11,0.14,0.18,0.2c0,0,0,0,0,0.01c0,0,0,0,0,0c0.07,0.06,0.13,0.12,0.2,0.18C83.96,210.37,84.82,210.47,84.94,209.92z"
		/>
	<polygon class="st1" points="83.28,209.86 83.28,209.86 83.28,209.86 83.27,209.86 	"/>
	<path class="st3" d="M85.21,216.71c-0.03,0.02-0.04,0.04-0.06,0.06c0,0.01,0,0.01,0,0.03c-0.01,0.02-0.01,0.02-0.02,0.03
		c0.01,0.02,0.01,0.05,0.03,0.08c0.27,0.75,1.79,1.45,2.19,0.4C87.46,216.19,85.79,216.15,85.21,216.71z"/>
	<path class="st1" d="M85.13,216.79c0.01-0.01,0.02-0.02,0.03-0.03C85.15,216.69,85.11,216.7,85.13,216.79z"/>
	<path class="st1" d="M85.14,216.83c0-0.01-0.01-0.02-0.01-0.03C85.08,216.86,85.1,216.89,85.14,216.83z"/>
	<g>
		<path class="st3" d="M87.35,217.31c-0.39,1.05-1.92,0.35-2.19-0.4c-0.02-0.03-0.02-0.06-0.03-0.08c-0.03,0.06-0.06,0.04-0.01-0.03
			c-0.01-0.09,0.03-0.1,0.03-0.03c0.02-0.02,0.03-0.04,0.06-0.06C85.79,216.15,87.46,216.19,87.35,217.31
			c0.13-1.93-3.38-3.21-4.01-0.93C82.91,218.69,86.61,219.08,87.35,217.31z"/>
	</g>
	<path class="st11" d="M85.15,216.76c-0.01,0.01-0.02,0.02-0.03,0.03c0,0.01,0.01,0.02,0.01,0.03c0.01-0.01,0.01-0.02,0.02-0.03
		C85.16,216.78,85.15,216.78,85.15,216.76z"/>
	<path class="st1" d="M91.17,188.37c0,0.01,0,0.01,0,0.02c0.02-0.03,0.06-0.04,0.08-0.07C91.22,188.3,91.19,188.31,91.17,188.37z"/>
	<path class="st1" d="M91.16,188.39c-0.03,0.04-0.03,0.07-0.01,0.08C91.15,188.44,91.15,188.41,91.16,188.39
		C91.16,188.39,91.16,188.39,91.16,188.39z"/>
	<g>
		<path class="st3" d="M92.38,189.08c-0.43,0.67-1.34-0.03-1.23-0.61c-0.02-0.01-0.02-0.04,0.01-0.08c0,0,0,0,0,0
			c0-0.01,0-0.01,0-0.02c0.02-0.06,0.06-0.06,0.08-0.05C91.7,187.94,92.75,188.39,92.38,189.08c0.74-1.48-1.59-3.37-2.74-1.6
			C88.66,189.36,91.46,190.45,92.38,189.08z"/>
	</g>
	<path class="st11" d="M91.25,188.43c0.03-0.05,0.02-0.09,0-0.11c-0.03,0.02-0.06,0.04-0.08,0.07c-0.01,0.03-0.01,0.06-0.01,0.08
		C91.17,188.49,91.21,188.48,91.25,188.43z"/>
	<path class="st3" d="M96.41,200.59c0.75-1.43-1.46-3.75-2.93-2.82c-0.12,0.08-0.24,0.17-0.34,0.29c-0.08,0.13-0.14,0.27-0.19,0.4
		C92.42,200.12,95.22,201.68,96.41,200.59z"/>
	<g>
		<path class="st3" d="M97.88,201.73c1.83-2.56-2.24-5.48-4.4-3.95c1.47-0.93,3.69,1.39,2.93,2.82c-1.19,1.09-3.99-0.48-3.47-2.13
			C92.01,200.95,95.87,204.16,97.88,201.73z"/>
	</g>
	<path class="st11" d="M93.14,198.06c-0.09,0.13-0.15,0.27-0.19,0.4C93,198.33,93.05,198.19,93.14,198.06z"/>
	<path class="st11" d="M93.48,197.78c-0.12,0.08-0.24,0.17-0.34,0.29C93.24,197.95,93.36,197.86,93.48,197.78z"/>
	<path class="st1" d="M98.09,230.5c0.08,0.03,0.16,0.07,0.23,0.14c0.01,0.09-0.01,0.18-0.03,0.26c0.05-0.1,0.07-0.19,0.03-0.26
		C98.28,230.57,98.2,230.53,98.09,230.5z"/>
	<g>
		<path class="st3" d="M96.92,230.76c-0.62,0.29-1.34,0.92-1.91,1.49c0.8-0.1,1.74-0.28,2.34-0.59c0.38-0.22,1.01-0.51,0.96-1.02
			C97.94,230.28,97.33,230.6,96.92,230.76z"/>
	</g>
	<path class="st3" d="M98.55,185.12c0.14-0.04,0.19-0.15,0.16-0.2c-0.16-0.11-0.47-0.55-0.77-0.89c-0.28-0.35-0.65-0.75-0.74-0.93
		c-0.05-0.04-0.17,0-0.23,0.12c-0.21,0.43-0.03,0.97,0.26,1.34c0.01,0.01,0.01,0.02,0.02,0.03c0,0,0,0,0,0
		C97.56,184.96,98.08,185.25,98.55,185.12z"/>
	<g>
		<path class="st3" d="M96.61,182.39c-0.33,0.47-0.22,0.93,0.03,1.35c-0.01,1.41,1.36,3.36,2.95,2.27c0.63-0.6,0.64-1.29,0.33-1.88
			c-0.06-0.48-0.26-0.95-0.54-1.28C98.75,182.1,97.41,181.56,96.61,182.39z M97.25,184.59c-0.01-0.01-0.01-0.02-0.02-0.03
			c-0.29-0.37-0.47-0.91-0.26-1.34c0.06-0.13,0.18-0.16,0.23-0.12c0.09,0.18,0.46,0.57,0.74,0.93c0.29,0.34,0.61,0.78,0.77,0.89
			c0.03,0.05-0.02,0.16-0.16,0.2C98.08,185.25,97.56,184.96,97.25,184.59C97.25,184.59,97.25,184.59,97.25,184.59z"/>
	</g>
	<polygon class="st1" points="99.6,222.42 99.6,222.42 99.6,222.42 99.6,222.42 	"/>
	<path class="st3" d="M99.41,222.25c-0.43-0.32-1.23-0.4-1.35,0.12c0.04,0.34,0.35,0.59,0.61,0.9c0.29,0.28,0.51,0.63,0.85,0.69
		c0.49-0.07,0.51-0.74,0.3-1.21c-0.07-0.11-0.13-0.22-0.22-0.33c0,0,0,0,0,0c0,0,0,0,0,0C99.54,222.36,99.47,222.3,99.41,222.25z"/>
	<path class="st1" d="M103.12,206.23c-0.01,0.05,0,0.11,0,0.17C103.15,206.33,103.16,206.27,103.12,206.23z"/>
	<path class="st1" d="M102.7,206.72c0.03,0.03,0.1,0.01,0.16-0.02C102.8,206.71,102.74,206.71,102.7,206.72z"/>
	<path class="st3" d="M103.15,206.7c0.16,0.74,0.8,1.75,1.5,1.32C105.01,207.26,103.92,206.76,103.15,206.7z"/>
	<path class="st3" d="M103.15,206.7c0.76,0.06,1.86,0.56,1.5,1.32c0.2-0.26,0.1-0.62,0.02-0.93c-0.23-1.28-1.73-2.99-3.04-1.74
		c-1.1,1.45,0.79,2.74,2.1,2.8c0.32,0.04,0.69,0.1,0.92-0.13C103.96,208.45,103.31,207.44,103.15,206.7z M103.12,206.4
		c0-0.06-0.01-0.12,0-0.17C103.16,206.27,103.15,206.33,103.12,206.4z M102.86,206.7c-0.07,0.03-0.13,0.05-0.16,0.02
		C102.74,206.71,102.8,206.71,102.86,206.7z"/>
	<path class="st3" d="M105.47,197.94c0.8-1.04-0.81-2.82-1.88-2.56c-0.76,0.78-0.03,3.07,1.27,2.91c0.12-0.02,0.24-0.05,0.36-0.1
		C105.31,198.12,105.39,198.03,105.47,197.94z"/>
	<path class="st1" d="M105.47,197.94c-0.07,0.09-0.15,0.18-0.26,0.26c-0.12,0.06-0.24,0.08-0.36,0.1c-0.09,0.02-0.18,0.02-0.27,0.02
		c0.23,0.02,0.44-0.01,0.63-0.12c0.19-0.11,0.32-0.28,0.42-0.48C105.58,197.79,105.53,197.87,105.47,197.94z"/>
	<path class="st11" d="M105.47,197.94c-0.08,0.09-0.16,0.18-0.26,0.26C105.32,198.11,105.4,198.03,105.47,197.94z"/>
	<path class="st11" d="M104.86,198.29c0.12-0.01,0.23-0.04,0.36-0.1C105.1,198.24,104.98,198.27,104.86,198.29z"/>
	<path class="st1" d="M106.27,215.66c0.04-0.05,0.04-0.12,0.01-0.07C106.28,215.61,106.28,215.64,106.27,215.66z"/>
	<path class="st1" d="M106.27,215.66c-0.02,0.01-0.05,0.01-0.07,0.02C106.17,215.72,106.23,215.71,106.27,215.66z"/>
	<path class="st3" d="M106.27,215.66c-0.13,0.87,0.87,2.32,1.81,1.9c0.09-0.04,0.17-0.09,0.25-0.15c0.05-0.09,0.08-0.18,0.11-0.27
		C108.7,216.16,107.11,215.39,106.27,215.66z"/>
	<g>
		<path class="st3" d="M104.87,214.45c-1.45,1.88,1.55,3.98,3.22,3.12c-0.94,0.41-1.95-1.03-1.81-1.9c0.84-0.27,2.43,0.49,2.17,1.49
			C109.04,215.37,106.51,212.74,104.87,214.45z M106.21,215.68c0.02-0.01,0.04-0.01,0.07-0.02
			C106.23,215.71,106.17,215.72,106.21,215.68z M106.27,215.66c0-0.02,0-0.05,0.01-0.07C106.31,215.55,106.31,215.61,106.27,215.66z
			"/>
	</g>
	<path class="st11" d="M108.44,217.15c-0.03,0.09-0.06,0.18-0.11,0.27C108.39,217.33,108.42,217.24,108.44,217.15z"/>
	<path class="st11" d="M108.33,217.42c-0.08,0.06-0.16,0.1-0.25,0.15C108.17,217.53,108.25,217.49,108.33,217.42z"/>
	<path class="st3" d="M109.15,201.52c-0.18-0.01-0.3,0.1-0.27,0.16c0.17,0.33,0.54,1.04,0.83,1.44c0.24,0.42,0.75,1.05,0.99,1.33
		c0.04,0.05,0.19-0.02,0.25-0.19c0.22-0.57,0.02-1.25-0.3-1.76h0c0,0,0,0,0,0C110.31,201.99,109.76,201.54,109.15,201.52z"/>
	<g>
		<path class="st3" d="M108.15,204.13c0.61,0.9,1.95,1.86,3.05,1.09c0.45-0.53,0.34-1.08,0.08-1.61c0-1.56-1.26-4.08-3.17-3.09
			c-0.76,0.61-0.8,1.39-0.49,2.11C107.68,203.17,107.89,203.72,108.15,204.13z M110.64,202.49c0.32,0.51,0.53,1.19,0.3,1.76
			c-0.06,0.17-0.21,0.25-0.25,0.19c-0.24-0.28-0.75-0.91-0.99-1.33c-0.29-0.39-0.66-1.11-0.83-1.44c-0.03-0.06,0.09-0.16,0.27-0.16
			C109.76,201.54,110.31,201.99,110.64,202.49C110.64,202.49,110.64,202.49,110.64,202.49L110.64,202.49z"/>
	</g>
	<path class="st1" d="M115.79,230.61c-0.05,0.06-0.01,0.06,0.02-0.02C115.8,230.6,115.79,230.61,115.79,230.61z"/>
	<path class="st1" d="M115.78,230.41c0,0.01,0.01,0.01,0.02,0.02C115.78,230.35,115.74,230.35,115.78,230.41z"/>
	<path class="st3" d="M115.89,230.51c0.81,0.76,3.1,1.4,3.47,0C118.99,229.1,116.7,229.76,115.89,230.51z"/>
	<path class="st1" d="M119.36,230.51c0,0.1-0.04,0.19-0.07,0.27C119.33,230.69,119.36,230.6,119.36,230.51
		c0-0.09-0.03-0.19-0.07-0.27C119.33,230.32,119.36,230.41,119.36,230.51z"/>
	<g>
		<path class="st3" d="M118.5,231.53C118.5,231.53,118.51,231.53,118.5,231.53c1.04-0.24,1.86-0.85,0.97-2.1
			c-0.97-1.07-2.63-1.26-3.87-0.6c-0.83,0.14-1.5,0.62-1.63,1.67C114.25,232.8,117.12,232.42,118.5,231.53z M115.79,230.61
			c0,0,0.01-0.01,0.02-0.02C115.78,230.67,115.74,230.67,115.79,230.61z M115.78,230.41c-0.05-0.06-0.01-0.06,0.02,0.02
			C115.8,230.42,115.79,230.41,115.78,230.41z M119.29,230.78c0.04-0.09,0.07-0.17,0.07-0.27c-0.37,1.41-2.66,0.76-3.47,0
			c0.81-0.75,3.1-1.41,3.47,0c0-0.1-0.04-0.19-0.07-0.27c0.04,0.09,0.07,0.18,0.07,0.27S119.33,230.69,119.29,230.78z"/>
	</g>
	<path class="st1" d="M120.45,224.02c-0.01,0.01,0,0.03,0.04-0.01c0.01-0.01,0.02-0.03,0.03-0.05
		C120.5,223.98,120.47,224,120.45,224.02z"/>
	<path class="st1" d="M123.16,223.98c0.05-0.06,0.08-0.13,0.08-0.2l0,0C123.23,223.86,123.2,223.92,123.16,223.98z"/>
	<path class="st3" d="M123.24,223.79c-0.19-0.73-1.23-0.55-1.76-0.35c-0.19,0.08-0.39,0.16-0.57,0.26
		C121.65,224.19,122.89,224.62,123.24,223.79L123.24,223.79z"/>
	<path class="st1" d="M120.47,223.33c0.02,0.02,0.05,0.04,0.07,0.06c-0.01-0.02-0.02-0.04-0.03-0.05
		C120.47,223.3,120.46,223.31,120.47,223.33z"/>
	<path class="st1" d="M123.24,223.79c0-0.07-0.02-0.14-0.06-0.2C123.21,223.65,123.24,223.71,123.24,223.79z"/>
	<g>
		<g>
			<path class="st2" d="M414.19,256.49c-0.01,1.76-0.61,3.8-2.23,4.66c-2.32,1.04-4.19-0.52-4.46-2.92
				c-0.25-2.25-0.37-5.42,1.95-6.5C412.39,250.58,414.32,253.88,414.19,256.49c0.15-2.92-1.56-6.46-5.02-5.86
				c-1.51,0.29-2.55,1.4-3.14,2.84l-12.78-19.94c-1.91,2.09-3.68,4.36-5.59,6.57c-2.13,2.25-4.21,4.57-5.1,7.6
				c-1.29,3.91-1.84,8.07-1.94,12.24c-0.29,0.03-0.58,0.06-0.87,0.1c0.29,0.03,0.58,0.06,0.87,0.09c-0.06,2.85,0.09,5.71,0.38,8.51
				c2.37,11.63,9.89,21.55,21.7,24.4c1.24-5.26,2.5-10.46,4.37-15.57c1.14-2.45,1.75-4.89,2.04-7.57c0.31-2.48,0.42-4.99,0.45-7.51
				C412.65,262.64,414.29,259.59,414.19,256.49z M393.89,260.89c4.23,0.04,8.46-0.1,12.68-0.4c0.33,0.5,0.72,0.93,1.2,1.25
				L393.89,260.89z"/>
		</g>
	</g>
	<path class="st11" d="M280.98,216.14c-0.08-0.1-0.19-0.18-0.34-0.24c-0.2-0.07-0.47-0.1-0.79-0.06c-0.29,0.29-0.43,0.56-0.47,0.8
		c-0.05,0.27,0.04,0.49,0.26,0.63c0.13,0.08,0.29,0.14,0.49,0.17c-0.08,0.19-0.14,0.39-0.15,0.59c0,0.14,0.01,0.27,0.08,0.41
		c0.23,0.51,0.53,0.9,0.87,1.24c0.4,0.41,0.85,0.74,1.29,1.13c-0.06-0.15,0.03-0.57,0.06-1.25c0-0.07-0.01-0.15-0.01-0.22
		c-0.02-0.64-0.18-1.35-0.42-1.92c-0.14-0.36-0.48-0.55-0.83-0.56c0.1-0.25,0.1-0.47,0-0.65c0,0,0,0,0,0
		C281.02,216.18,281,216.16,280.98,216.14z"/>
	<path class="st15" d="M340.54,241.58c-0.02,0-0.04-0.01-0.06-0.01c-0.02,0-0.03,0-0.05,0C340.46,241.58,340.5,241.58,340.54,241.58
		z"/>
	<path class="st15" d="M344.75,242.85c-0.11-0.07-0.23-0.14-0.36-0.2C344.51,242.71,344.64,242.77,344.75,242.85z"/>
	<path class="st15" d="M346.82,246.59c0.01-0.39-0.01-0.78-0.09-1.15l-0.01-0.01c0.05,0.25,0.09,0.5,0.1,0.76
		C346.83,246.33,346.82,246.46,346.82,246.59z"/>
	<g>
		<path class="st6" d="M346.21,244.2c-0.32-0.48-0.77-0.92-1.38-1.3C345.36,243.25,345.83,243.68,346.21,244.2
			c-0.56-0.75-1.31-1.31-2.16-1.72c-0.45-0.21-0.96-0.39-1.55-0.55c-0.03-0.01-0.06-0.02-0.09-0.02c-0.14-0.04-0.3-0.07-0.45-0.1
			c-0.93-0.18-1.88-0.22-2.77-0.16c-5.41,0.71-8.41,5.85-11.8,9.53c-0.63,0.73-1.41,1.37-2.13,2c-1.11,1.18-1.97,2.56-2.84,3.92
			c-5.37,8.88-9.89,18.27-14.42,27.61c-0.11,0.25-0.47,0.16-0.49-0.08c0-3.61,1.66-6.94,2.82-10.29c2.56-6.59,5.41-13.06,7.85-19.68
			c1.63-4.87,3.86-9.98,3.48-15.16c-2.67-13.68-12.98,2.51-15.85,7.58c-1.74,3.06-3.29,6.26-4.6,9.51l-2.35,4.52
			c-3.4,6.27-8.63,16.03-13.53,22.57c-1.84,2.58-7.03,8.09-9.42,3.21c-0.84-2.13-0.57-4.43-0.97-6.65
			c-0.97-6.2-1.8-13.09-5.82-18.09c-6.92-6.82-14.34,0.53-16.4,7.81c-0.69,2.68-0.58,5.56-0.13,8.36c0.7,4.23,2.15,8.36,3.82,12.32
			c1.85,3.91,3.71,8.29,4.16,12.59c0.88,5.61,0.01,13.4-1.36,17.71c-1.73,6.01-7.75,12.53-11.59,15.29
			c-2.93,4.13-6.94,6.95-10.66,10.25c-3.73,3.11-7.51,6.13-11.31,9.13l-22.88,17.84c-3.77,3.27-7.34,6.2-11.43,8.99
			c-7.92,5.61-15.85,11.12-24.06,16.33c-1,0.6-1.97,1.27-3.09,1.68c-2.68,1.46-5.32,3.33-7.88,5.12c2.9,1.5,5.84,2.93,8.82,4.27
			c23.99,10.78,51.49,14.92,77.23,8.55c7.11-11.23,19.27-26.82,28.57-39.2c5.03-6.46,10.11-12.87,15.64-18.96
			c2.12-2.27,4.24-4.57,6.77-6.44c4.42-2.51,8.92-4.98,13.13-7.93c9.24-6.21,18.34-13.05,27.25-19.77
			c3.95-3.12,7.18-7.07,10.19-11.12c2.24-3.29,4.84-6.48,6.13-10.28c0.87-3.67,1.72-8.07,0.34-11.63c-0.85-1.88-2.55-2.05-4.2-0.86
			c-4.83,3.56-8.21,8.94-11.52,13.91c-0.17,0.26-0.51,0.34-0.77,0.17c-0.19-0.12-0.28-0.33-0.26-0.53c0.13-1.14,0.48-2.08,0.84-3.04
			c2.65-6.53,6.17-12.64,9.63-18.76c0.94-1.06,1.81-2.31,2.59-3.58c1.83-2.79,13.81-26.07,5.16-23.43
			c-0.66,0.19-1.31,0.46-1.89,0.79c-9.68,10.41-17.98,22.06-25.81,33.92c-0.14,0.22-0.49,0.03-0.38-0.2
			c1.78-3.93,3.56-7.85,5.47-11.72c1.78-3.39,4.56-7.85,6.49-11.19c2.18-3.72,4.35-7.44,6.48-11.19c1.04-1.88,2.14-3.74,3.04-5.7
			c0.77-1.66,1.63-3.64,1.55-5.43c-0.01-0.25-0.04-0.51-0.1-0.76l0,0c0-0.01-0.01-0.03-0.01-0.04L346.21,244.2z"/>
	</g>
	<g>
		<path class="st4" d="M392.75,270.11L392.75,270.11L392.75,270.11c-2.3,1.76-4.54,4.29-0.92,6.05c0.77,0.43,1.63,0.76,2.5,1.05
			c1.58,0.08,3.02-1.02,3.33-2.62c0.12-0.46,0.17-1.16,0.19-1.67c-0.21-0.72-0.58-1.49-1-2.15c-0.91-1.44-2.33-2.51-4.08-2.61
			c-0.9-0.11-1.81,0.08-2.71,0.24h0L392.75,270.11C392.75,270.11,392.75,270.11,392.75,270.11L392.75,270.11z"/>
	</g>
	<g>
		<path class="st4" d="M413.35,236.63L413.35,236.63L413.35,236.63c-2.3,1.76-4.54,4.29-0.92,6.05c0.77,0.43,1.63,0.76,2.5,1.05
			c1.58,0.08,3.02-1.02,3.33-2.62c0.12-0.46,0.17-1.16,0.19-1.67c-0.21-0.72-0.58-1.49-1-2.15c-0.91-1.44-2.33-2.51-4.08-2.61
			c-0.9-0.11-1.81,0.08-2.71,0.24h0L413.35,236.63C413.35,236.63,413.35,236.63,413.35,236.63L413.35,236.63z"/>
	</g>
	<g>
		<path class="st4" d="M419.91,274.67L419.91,274.67L419.91,274.67c-2.3,1.76-4.54,4.29-0.92,6.05c0.77,0.43,1.63,0.76,2.5,1.05
			c1.58,0.08,3.02-1.02,3.33-2.62c0.12-0.46,0.17-1.16,0.19-1.67c-0.21-0.72-0.58-1.49-1-2.15c-0.91-1.44-2.33-2.51-4.08-2.61
			c-0.9-0.11-1.81,0.08-2.71,0.24h0L419.91,274.67C419.91,274.67,419.91,274.67,419.91,274.67L419.91,274.67z"/>
	</g>
	<g>
		<path class="st4" d="M427.31,249.74L427.31,249.74L427.31,249.74c-2.3,1.76-4.54,4.29-0.92,6.05c0.77,0.43,1.63,0.76,2.5,1.05
			c1.58,0.08,3.02-1.02,3.33-2.62c0.12-0.46,0.17-1.16,0.19-1.67c-0.21-0.72-0.58-1.49-1-2.15c-0.91-1.44-2.33-2.51-4.08-2.61
			c-0.9-0.11-1.81,0.08-2.71,0.24h0L427.31,249.74C427.31,249.74,427.31,249.74,427.31,249.74L427.31,249.74z"/>
	</g>
	<g>
		<path class="st4" d="M391.87,251.2L391.87,251.2L391.87,251.2c-2.3,1.76-4.54,4.29-0.92,6.05c0.77,0.43,1.63,0.76,2.5,1.05
			c1.58,0.08,3.02-1.02,3.33-2.62c0.12-0.46,0.17-1.16,0.19-1.67c-0.21-0.72-0.58-1.49-1-2.15c-0.91-1.44-2.33-2.51-4.08-2.61
			c-0.9-0.11-1.81,0.08-2.71,0.24h0L391.87,251.2C391.87,251.2,391.87,251.2,391.87,251.2L391.87,251.2z"/>
	</g>
</g>
</svg>
