<?xml version="1.0" encoding="utf-8"?>
<!-- Generator: Adobe Illustrator 27.1.0, SVG Export Plug-In . SVG Version: 6.00 Build 0)  -->
<svg version="1.1" id="Capa_1" xmlns="http://www.w3.org/2000/svg" xmlns:xlink="http://www.w3.org/1999/xlink" x="0px" y="0px"
	 width="450px" height="450px" viewBox="0 0 450 450" style="enable-background:new 0 0 450 450;" xml:space="preserve">
<style type="text/css">
	.st0{fill:none;}
	.st1{fill:#FFFFFF;}
	.st2{fill:#F2B705;}
	.st3{fill:#040423;}
	.st4{fill:#8C1F33;}
	.st5{fill:#5BA566;}
	.st6{fill:#F2E3CC;}
	.st7{fill:#F15A24;}
	.st8{fill:#400101;}
	.st9{fill:#FCFCFC;}
	.st10{fill:#122B05;}
	.st11{fill:#472FAD;}
	.st12{fill:#A64F03;}
	.st13{fill:#D98E04;}
	.st14{fill:#F2F2F2;}
	.st15{fill:#2FD812;}
	.st16{fill:#AA8D30;}
	.st17{fill:#B0EAB7;}
	.st18{fill:#111147;}
	.st19{fill:none;stroke:#472FAD;stroke-width:0;stroke-linecap:round;stroke-linejoin:round;}
	.st20{fill:#F2B705;stroke:#472FAD;stroke-miterlimit:10;}
	.st21{fill:#231A56;}
	.st22{fill:#EA0070;}
	.st23{fill:#158035;}
	.st24{fill:#F9B331;}
	.st25{opacity:0.4;}
	.st26{fill:#0F0E0D;}
	.st27{fill:#E0245E;}
	.st28{fill:#050535;}
	.st29{fill:#F2EBDF;}
</style>
<g>
	<polygon class="st0" points="254.49,69.06 254.49,69.06 254.49,69.06 	"/>
	<polygon class="st0" points="322.97,164.72 322.98,164.72 322.98,164.72 	"/>
	<path class="st0" d="M181.24,218.26c1.22,0.09,2.23,0.85,2.98,2.26c3.07,0.37,24.32,2.75,44.78,1.1c0,0,0,0,0,0h0c0,0,0,0,0,0
		c0.06,0,0.12,0,0.17,0.02c0.13-0.06,0.72-0.4,1.82-2.28c-8.25-3-14.49-9.24-17.81-14.74c-1.89-3.13-2.29-6.38-2.19-8.94
		c-2.42-1.6-6.5-4.78-7.07-8.27c-0.24-1.47,0.17-2.84,1.22-4.06c1.07-1.24,2.18-1.76,3.3-1.52c1.46,0.31,2.57,1.89,3.29,3.31
		c0.07-3.94,0.26-12.23,0.73-22.36c0.55-11.92,4.35-13.14,13.55-16.1c2.23-0.72,4.75-1.53,7.67-2.62
		c14.89-5.57,26.56-21,26.67-21.15c0.11-0.14,0.28-0.22,0.46-0.2c0.18,0.02,0.33,0.13,0.41,0.3c2.83,6.19,0.7,13.38-1.1,17.58
		c4.59-4.18,12.25-8.11,12.65-8.31c0.13-0.07,0.29-0.07,0.42-0.02c0.14,0.06,0.24,0.17,0.29,0.31c2.52,7.41-1.16,12.56-3.6,14.98
		c7.77-2.75,16.17-10.51,16.26-10.6c0.16-0.14,0.38-0.18,0.57-0.08c0.19,0.09,0.3,0.29,0.28,0.51c-0.65,6.91-5.66,12.48-8.97,15.44
		c3.38-1.79,6.3-4.25,6.33-4.28c0.16-0.13,0.38-0.16,0.56-0.07c0.18,0.09,0.29,0.29,0.28,0.49c-0.52,6.52-10.04,13.1-11.87,14.31
		c0.76,4.9-1.57,13.6-3.11,18.58c0.25-0.14,0.53-0.27,0.84-0.38c1.41-0.52,2.75-0.21,3.56,0.85c1.01,1.3,0.92,3.29-0.23,4.95
		c-1.71,2.46-4.45,3.8-5.38,4.21c-0.06,9.63-2.8,17.16-8.14,22.37c-2.81,2.74-6.32,4.76-10.28,5.97c0,0,0,0.01,0,0.01
		c-0.02,0.03-0.52,0.67-0.3,1.52c0.26,1,1.41,1.95,3.33,2.75c0.17,0.03,0.73,0.12,1.67,0.25l1.42,0.18
		c5.95,0.68,20.19,1.73,41.16-0.44c-0.01,0,6.89-1.91,9.44-4.83c0.24-0.77,1.76-5.19,4.66-5.6c1.63-0.23,3.34,0.87,5.06,3.26l0,0
		c0-0.01,0.04-0.09,0.05-0.09c1.29-2.77,2.42-5.64,3.36-8.51c0.01-0.03,0.04-0.12,0.06-0.15l0.04-0.16c0-0.01,0-0.02,0.01-0.03
		c0-0.02,0.01-0.03,0.01-0.05c1.11-3.39,2-6.93,2.64-10.51c0-0.01,0-0.02,0.01-0.02c0-0.05,0.01-0.1,0.03-0.14
		c-0.01,0.02-0.02,0.06-0.02,0.11c0-0.01,0-0.01,0.01-0.02c0.66-3.73,1.05-7.44,1.19-11.12c0.14-3.5,0.05-7.01-0.26-10.48
		l-0.05-0.55c-0.32-3.38-0.86-6.84-1.6-10.3c-0.01-0.02-0.04-0.13-0.04-0.15c-0.16-0.76-0.33-1.51-0.51-2.25
		c-0.69-2.83-1.47-5.6-2.39-8.48c0-0.02-0.01-0.03-0.01-0.05c0,0,0,0,0-0.01c-0.05-0.15-0.09-0.3-0.15-0.45
		c0-0.01-0.04-0.1-0.04-0.1c-1.17-3.65-2.55-7.31-4.11-10.9c-0.05-0.12-0.07-0.17-0.09-0.22c-1.36-3.1-2.83-6.13-4.35-8.96
		c0,0-0.11-0.19-0.11-0.2c0,0,0-0.01-0.01-0.01c0,0,0,0,0,0c-2.21-4.09-4.6-7.99-7.09-11.6c-1.71-2.5-3.52-4.97-5.38-7.35
		c-0.1-0.12-0.19-0.24-0.29-0.36c-1.93-2.46-4.01-4.94-6.17-7.36l-0.15-0.17c-2.1-2.37-4.41-4.83-7.25-7.74
		c-3.49-3.57-7.04-7.01-9.89-9.77c-0.32-0.32-0.63-0.62-0.94-0.92l-0.11-0.11c-1.78-1.73-3.49-3.4-5.14-5.05l-0.08-0.08
		c-15.4,10.57-30.17,15.86-30.44,15.96c-26.04,5.77-48.01,15.77-63.59,28.94c-11.64,9.84-19.13,20.95-22.1,32.6l-1.45,11.46
		c0,20.8,13.45,40.95,22.83,52.47C175.3,221.57,178.49,218.08,181.24,218.26z"/>
	<path class="st0" d="M310.39,228.36c0.05-0.06,0.09-0.12,0.14-0.19l-0.08-0.23C310.43,228.08,310.41,228.23,310.39,228.36z"/>
	<path class="st0" d="M135.05,243.01c-0.64,0.07-1.34,0.15-1.96,0.22C133.74,243.27,134.41,243.18,135.05,243.01z"/>
	<path class="st0" d="M72.16,182.23c-0.94,0-1.73,1.42-1.73,3.1c0,1.68,0.79,3.1,1.73,3.1c0.94,0,1.73-1.42,1.73-3.1
		C73.9,183.65,73.1,182.23,72.16,182.23z"/>
	<path class="st7" d="M280.85,302.36l-48.75,1.36l2.58,3.99h48c-0.04-0.01,0.6-0.31,1.49-2.7c0.2-0.54,0.18-0.98-0.05-1.34
		C283.5,302.72,281.55,302.41,280.85,302.36z"/>
	<g>
		<path class="st2" d="M229.75,230.81c-3.59-2.94-4.76-6.63-5.06-7.88c-3.73,0.2-7.44,0.29-11.02,0.29
			c-15.46,0-28.46-1.55-29.83-1.72c-0.51,0.72-1.52,2.57-1.7,5.87C197.09,228.87,213.1,230.03,229.75,230.81z"/>
	</g>
	<g>
		<path class="st2" d="M309.09,230.15c1.43-8.66,0.25-10.12-0.15-10.36c-0.36-0.22-0.82,0.12-0.84,0.13
			c-2.75,3.15-9.73,5.09-10.02,5.17c-9.52,0.99-17.67,1.32-24.3,1.32c-7.24,0-12.65-0.39-16.08-0.75c-0.27,1.09-1.22,3.83-4.1,6.03
			c30.85,0.8,52.8,0.11,53.02,0.1c0.33-0.04,0.52,0.21,0.53,0.49c0.01,0.28-0.21,0.52-0.49,0.53c-0.14,0-9.04,0.29-23.41,0.29
			c-8.64,0-19.26-0.1-31.14-0.43c-2.21,1.24-5.25,2.13-9.46,2.13c-0.4,0-0.81-0.01-1.23-0.02c-4.44-0.17-7.72-1.33-10.14-2.87
			c-17.19-0.78-33.74-1.96-49.17-3.51c0,1.08,0.08,2.28,0.29,3.63l0.08,0.46c0.13,0.78,0.18,1.66,0.17,2.61
			c14.87,4.78,115.72-0.72,126.07-1.3c0.01-0.19,0.01-0.38,0.03-0.58C308.79,232.26,308.91,231.23,309.09,230.15z"/>
	</g>
	<g>
		<path class="st2" d="M313.43,253.68L313.43,253.68c-0.01-0.02-0.02-0.04-0.03-0.06l0,0c-0.59-1.11-1.14-2.28-1.63-3.47
			c-0.01-0.02-0.01-0.04-0.02-0.06c-1.47-3.57-3.15-9.06-3.07-15.26c-8,0.45-58.83,3.25-94.08,3.25c-15.01,0-27.18-0.51-32.02-1.92
			c-0.22,3.5-1.26,8.08-3.12,13.65c-0.13,0.39-0.27,0.79-0.4,1.18c0.07-0.01,0.14-0.01,0.21,0c0.36,0.08,36.61,7.73,127.3-1.36
			c0.27-0.03,0.53,0.18,0.56,0.46c0.03,0.28-0.18,0.53-0.46,0.56c-33.75,3.38-59.99,4.45-79.65,4.45c-33.29,0-47.74-3.06-47.96-3.11
			c-0.11-0.02-0.2-0.09-0.27-0.17c-0.66,1.89-1.41,3.89-2.25,5.96l-0.1,0.24c-0.02,0.05-0.04,0.09-0.06,0.14
			c0.12-0.1,0.27-0.15,0.43-0.11c0.43,0.09,44.43,9.02,132.69-3.61c0.29-0.04,0.54,0.15,0.58,0.43c0.04,0.28-0.15,0.54-0.43,0.58
			c-36.53,5.23-65.51,6.77-86.97,6.77c-30.51,0-45.82-3.11-46.08-3.17c-0.22-0.05-0.37-0.23-0.39-0.44c-1,2.44-1.9,4.48-2.5,5.79
			l-0.12,0.27c-0.28,0.6-0.52,1.11-0.75,1.57c3.98-0.3,8.54,0.27,13.69,1.72c3.43,0.97,6.69,2.2,9.8,3.63
			c17.08-2.64,103.68-4.34,104.56-4.36c0.3,0.02,0.52,0.22,0.52,0.5c0,0.28-0.22,0.51-0.5,0.52c-0.85,0.02-82.83,1.63-102.9,4.14
			c5.12,2.53,9.79,5.62,14.02,9.05c27.47,1.86,81.72-3.81,82.26-3.87c0.29-0.03,0.53,0.17,0.56,0.45c0.03,0.28-0.17,0.53-0.45,0.56
			c-0.47,0.05-40.64,4.25-69.42,4.25c-4.17,0-8.08-0.09-11.62-0.3c7.35,6.2,13.31,13.37,18.01,20.2l49.51-1.38
			c0.17,0.01,3.02,0.19,4.07,1.72c5.71-15.11,14.97-33.6,29.06-46.53c0-0.01,0.23-0.28,0.66-0.7c-0.01-0.01-0.02-0.02-0.03-0.04
			C314.34,255.31,313.92,254.62,313.43,253.68z M305.21,242.65c-0.44,0.05-32.05,3.41-71.41,3.41c-15.94,0-33.14-0.55-50.08-2.09
			c-0.28-0.03-0.49-0.27-0.46-0.55c0.02-0.28,0.3-0.48,0.55-0.46c58.65,5.35,120.67-1.24,121.29-1.31c0.28-0.03,0.53,0.17,0.56,0.45
			C305.7,242.37,305.49,242.62,305.21,242.65z M281.26,299.08c-0.18,0.02-14.61,1.62-33.13,1.62c-4.33,0-8.89-0.09-13.54-0.3
			c-0.28-0.01-0.5-0.25-0.49-0.53c0.01-0.28,0.26-0.51,0.53-0.49c24.44,1.13,46.29-1.29,46.51-1.31c0.26-0.03,0.53,0.17,0.56,0.45
			C281.74,298.8,281.54,299.05,281.26,299.08z M287.34,288.25c-0.33,0.04-32.86,3.94-63.38,3.94c-0.28,0-0.51-0.23-0.51-0.51
			c0-0.28,0.23-0.51,0.51-0.51c30.45,0,62.93-3.89,63.26-3.93c0.27-0.04,0.53,0.16,0.57,0.45
			C287.82,287.96,287.62,288.22,287.34,288.25z"/>
	</g>
	<g>
		<path class="st10" d="M228.19,222.71c1.31,2.03,5.69,7.87,12.74,8.58c0.01,0,0.01,0,0.02,0c0.57,0.02,1.15,0.04,1.72,0.07
			c0.02,0,0.04,0,0.06,0c8.01-0.22,10.76-4.56,11.5-6.13c-0.53-0.08-0.81-0.13-0.83-0.13c-0.03-0.01-0.07-0.02-0.1-0.03
			c-0.07-0.03-0.13-0.06-0.19-0.09c-0.8,0.87-3.5,2.91-11.26,2.91c-8.51,0-12.21-4.14-13.04-5.23L228.19,222.71z"/>
	</g>
	<g>
		<path class="st3" d="M231.5,230.9c0.02,0,0.05,0,0.07,0c0.22,0,0.42,0.15,0.5,0.35c2.26,1.35,5.3,2.35,9.38,2.51
			c4.46,0.18,7.62-0.64,9.88-1.83c0.07-0.17,0.22-0.29,0.42-0.29c0.01,0,0.04,0,0.07,0c3.44-2.03,4.55-4.94,4.86-6.1l-0.14-0.02
			c-0.46-0.05-0.87-0.1-1.23-0.15l-0.03,0c-0.64,1.52-3.49,6.73-12.45,7c-0.02,0-0.03,0.01-0.04,0.01h-0.05c-0.04,0-0.08,0-0.11,0
			c-9.23,0.17-14.62-7.98-15.59-9.6c-0.44,0.03-0.88,0.06-1.32,0.09C226.06,224.29,227.35,228.17,231.5,230.9z"/>
	</g>
	<g>
		<path class="st13" d="M312.12,214.67c-1.64,0.23-2.89,2.48-3.51,4.03c0.27-0.01,0.57,0.05,0.85,0.22
			c1.35,0.81,1.68,3.78,0.99,9.04l0.08,0.23c0.79-1.08,1.94-2.77,3.28-5.06c0.01-0.04,0.03-0.07,0.06-0.1
			c0.01-0.03,0.04-0.08,0.06-0.11c0-0.01,0.01-0.02,0.02-0.03c0.92-1.57,1.78-3.22,2.59-4.9
			C314.95,215.63,313.44,214.48,312.12,214.67z"/>
	</g>
	<g>
		<path class="st13" d="M181.46,232.67l-0.08-0.47c-1.1-7.1,1-10.51,1.77-11.49c-0.55-0.9-1.2-1.37-1.98-1.42
			c-1.77-0.11-4.38,1.96-7.07,5.56c3.35,4.06,6.11,6.94,7.4,8.26C181.49,232.96,181.48,232.8,181.46,232.67z"/>
	</g>
	<g>
		<path class="st13" d="M171.65,266.34c0.24-0.49,0.53-1.09,0.84-1.76c-3.35-3.05-6.51-6.14-9.48-9.27
			c-0.75,0.61-2.55,2.29-3.34,4.94c-0.52,1.77-0.3,3.65,0.61,5.28c0.87,1.55,2.3,2.71,3.93,3.2
			C166.39,267.49,168.86,266.68,171.65,266.34z"/>
	</g>
	<path class="st1" d="M131.2,110.87c-2.21,3.12-5.29,6.94-9.54,11.36c-1.98,2.65-3.6,8.39-4.35,11.42
		c7.62-8.85,16.93-22.95,19.74-27.28C135.21,107.27,133.17,108.94,131.2,110.87z"/>
	<path class="st1" d="M119.23,116.51c0.95,0.32,2.67,1.08,3.2,2.52c0.04,0.11,0.05,0.23,0.07,0.34c1.75-2.32,4.7-6.01,7.88-9.12
		c2.55-3.62,3.93-6.28,4.61-7.77C131.55,104.6,122.38,110.69,119.23,116.51z"/>
	<path class="st7" d="M87.17,149.13c0.15,11.24,5.48,11.92,6.16,11.96c0.59-0.18,6.14-2.21,13.22-15.48
		c0.02-0.05,3.07-6.76,1.37-17.75c-0.16,0.44-0.25,0.86-0.25,1.26c0,0.21-0.13,0.41-0.33,0.48
		C107.13,129.67,87.01,137.17,87.17,149.13z M94.32,139.92c1.38-2.25,3.69-3.68,6.84-4.25c0.24-0.05,0.47,0.08,0.56,0.31
		c0.09,0.2,2.07,5.06-0.1,9.24c-1.32,2.55-3.9,4.25-7.64,5.08c-0.04,0.01-0.07,0.01-0.11,0.01c-0.22,0-0.42-0.15-0.49-0.37
		C93.32,149.7,91.72,144.15,94.32,139.92z"/>
	<path class="st7" d="M108.69,126.35c2.24,12.11-1.09,19.41-1.24,19.72c-1.37,2.56-2.68,4.71-3.91,6.52
		c-0.68,2.56-0.45,4.66,0.66,6.25c1.02,1.46,2.63,2.26,4.49,2.21c1.99-0.06,3.8-1.11,4.85-2.81c1.86-3.03,2.58-5.9,2.13-8.52
		c-1.15-6.74,0.11-13.98,0.17-14.28c0,0,0,0,0-0.01c0,0,0-0.01,0-0.01c0.09-0.41,2.12-9.95,5-13.8c0,0,0,0,0,0
		c0,0,0.01-0.01,0.01-0.02c0.63-0.84,0.84-1.59,0.61-2.22c-0.41-1.11-2.08-1.78-2.9-2C116.08,119.02,110.9,122.93,108.69,126.35z
		 M114.55,145.4c0.06,0.24,1.36,5.84-1.11,8.81c-0.98,1.18-2.4,1.78-4.23,1.78c-0.14,0-0.29,0-0.43-0.01
		c-0.23-0.01-0.42-0.17-0.47-0.39c-0.05-0.2-1.21-5.04,1.01-8.14c1.03-1.44,2.61-2.26,4.69-2.44
		C114.26,144.99,114.49,145.16,114.55,145.4z"/>
	<path class="st1" d="M351.1,143.94c0.01,0.03,0.03,0.07,0.04,0.1c0.35,0.97,0.68,1.95,0.99,2.93c3.16-6.03,18.24-35.16,20.56-46.17
		c0.03-0.1,1.67-5.36-1.25-9.35c-0.11-0.16-9.38-14.06-18.43-17.72l-1.5,2.15c2.44,3.38,2.48,6.19,2.48,6.34
		c0,0.28-0.23,0.51-0.51,0.51c0,0,0,0,0,0c-0.28,0-0.51-0.23-0.51-0.51c0-0.03-0.05-2.46-2.09-5.44l-5.19,7.41
		c0.44,0.37,0.83,0.81,1.13,1.34c1.05,1.84,0.76,4.29-0.84,7.27c-0.09,0.17-0.27,0.27-0.45,0.27c-0.08,0-0.17-0.02-0.24-0.06
		c-0.25-0.13-0.34-0.44-0.21-0.69c1.43-2.65,1.72-4.76,0.86-6.27c-0.22-0.39-0.51-0.72-0.84-1l-10.51,15
		c1.9,3.45,0.19,7.28,0.17,7.33c-0.09,0.19-0.27,0.3-0.46,0.3c-0.07,0-0.14-0.02-0.21-0.05c-0.26-0.12-0.37-0.42-0.25-0.68
		c0.08-0.17,1.4-3.13,0.11-5.97l-5.18,7.4C331.67,110.72,344.74,126.41,351.1,143.94z M349.7,93.73c0.25-0.13,0.56-0.04,0.69,0.21
		c0.02,0.04,2.22,4.13,4.1,6.06l4.37-5.18c-3.36-4.1-5.79-7.85-5.82-7.91c-0.15-0.24-0.08-0.55,0.15-0.71
		c0.23-0.15,0.55-0.08,0.7,0.15c0.06,0.09,5.61,8.7,11.56,14c0.21,0.19,0.23,0.51,0.04,0.72c-0.1,0.11-0.24,0.17-0.38,0.17
		c-0.12,0-0.24-0.04-0.34-0.13c-1.84-1.64-3.64-3.59-5.25-5.51l-4.6,5.46c-0.09,0.1-0.22,0.17-0.35,0.18c-0.01,0-0.02,0-0.04,0
		c-0.12,0-0.24-0.04-0.34-0.13c-2.1-1.84-4.6-6.51-4.71-6.7C349.36,94.17,349.45,93.86,349.7,93.73z M344.2,102.24
		c0.04-0.06,0.1-0.1,0.16-0.14c1.19-0.66,2.2-0.8,3.08-0.41c1.94,0.86,2.69,4.06,3.65,8.11c0.73,3.12,1.56,6.63,3.08,9.66
		c1.11-0.75,4.1-3.33,5.11-9.86c0.04-0.28,0.3-0.47,0.58-0.43c0.28,0.04,0.47,0.3,0.43,0.58c-1.34,8.62-5.92,10.8-6.12,10.88
		c-0.07,0.03-0.14,0.05-0.21,0.05c-0.18,0-0.36-0.1-0.45-0.27c-1.74-3.25-2.63-7.04-3.42-10.38c-0.86-3.63-1.59-6.77-3.07-7.41
		c-0.55-0.24-1.23-0.14-2.07,0.32c-0.63,0.86-0.83,1.61-0.61,2.24c0.4,1.11,2.08,1.73,2.69,1.88c0.28,0.07,0.44,0.34,0.38,0.61
		c-0.07,0.27-0.35,0.44-0.61,0.38c-0.11-0.03-2.75-0.67-3.41-2.52C343.02,104.53,343.3,103.42,344.2,102.24z"/>
	<g>
		<path class="st3" d="M344.59,147.4c0.24,0.13,0.73,0.32,1.42,0.2c0.91-0.15,2.35-0.89,4.06-3.5
			c-5.66-15.55-16.41-29.15-20.51-33.57c2.22,5.45,5.15,17.76,5.5,19.24C336.04,130.88,343.9,140.1,344.59,147.4z"/>
	</g>
	<g>
		<path class="st3" d="M364.33,190.27c0.6,0.13,1.65,0.47,2.6,1.24c-0.59-2.22-1.32-4.47-2.27-6.75
			C364.62,186.1,364.53,187.98,364.33,190.27z"/>
	</g>
	<g>
		<path class="st4" d="M348.79,237.56c-0.9,1.17-1.84,2.3-2.84,3.39c-0.21,0.54-1.23,3.67,1.42,6.6c0.63,0.69,1.28,0.99,1.96,0.92
			c1.91-0.21,3.6-3.12,3.61-3.15c0.02-0.03,0.04-0.06,0.07-0.09c0.05-0.05,1-1.12,2.41-3.03
			C355.24,241.13,351.94,239.01,348.79,237.56z"/>
	</g>
	<g>
		<path class="st2" d="M356.08,241.27c5.48-7.71,15.94-25.88,11.47-47.21c-0.7-1.9-2.45-2.56-3.31-2.77
			c-1.04,11.32-4.35,31.14-14.83,45.43C351.06,237.49,354.89,239.43,356.08,241.27z M354.32,235.52c1-0.9,3.46-3.38,4.71-6.99
			c0.09-0.27,0.38-0.41,0.65-0.32c0.27,0.09,0.41,0.38,0.32,0.65c-1.28,3.7-3.68,6.24-4.99,7.42c-0.11,0.1-0.25,0.15-0.39,0.15
			c-0.13,0-0.26-0.05-0.35-0.14c-0.19-0.2-0.22-0.48-0.03-0.68C354.23,235.6,354.31,235.52,354.32,235.52z"/>
	</g>
	<path class="st1" d="M229.9,222.39c1.15,1.29,4.71,4.48,11.93,4.48c6.78,0,9.41-1.59,10.28-2.36c-1.58-0.84-2.53-1.82-2.81-2.92
		c-0.13-0.54-0.09-1.01,0.02-1.4c-2.53,0.65-5.24,0.99-8.06,0.99c-0.29,0-0.58,0-0.86-0.01c-2.99-0.07-5.8-0.61-8.44-1.47
		c-0.01,0.02-0.01,0.05-0.02,0.07C231.16,221.11,230.49,221.98,229.9,222.39z"/>
	<g>
		<path class="st6" d="M240.43,220.14c7.91,0.19,14.91-2.31,19.75-7.03c5.2-5.08,7.84-12.47,7.84-21.99c0,0,0-0.01,0-0.01
			c0-0.04,0.01-0.08,0.02-0.12c0.01-0.03,0.01-0.05,0.02-0.08c0.01-0.03,0.03-0.05,0.05-0.08c0.02-0.03,0.03-0.06,0.06-0.08
			c0.02-0.02,0.04-0.03,0.06-0.04c0.03-0.02,0.06-0.05,0.1-0.06c0,0,0.01,0,0.01-0.01c0.03-0.01,3.38-1.3,5.23-3.97
			c1.03-1.49,0.88-2.96,0.26-3.75c-0.54-0.69-1.41-0.88-2.4-0.52c-0.84,0.31-1.39,0.74-1.75,1.17c-0.38,1.15-0.64,1.89-0.69,2.03
			c0,0.01-0.02,0.02-0.02,0.04c-0.01,0.03-0.03,0.06-0.05,0.08c-0.02,0.02-0.03,0.04-0.05,0.06c-0.02,0.02-0.05,0.05-0.08,0.07
			c-0.02,0.01-0.03,0.02-0.05,0.03c-0.03,0.02-0.07,0.03-0.1,0.04c-0.02,0.01-0.05,0.01-0.07,0.01c-0.02,0-0.04,0.01-0.06,0.01
			c-0.02,0-0.04,0-0.06,0c0,0-0.01,0-0.01,0c0,0,0,0-0.01,0c0,0-0.01,0-0.01,0c-0.01,0-0.03-0.01-0.04-0.02
			c-0.05-0.01-0.09-0.03-0.13-0.05c-0.02-0.01-0.04-0.03-0.06-0.04c-0.03-0.02-0.06-0.05-0.08-0.08c-0.02-0.02-0.03-0.04-0.04-0.06
			c-0.02-0.03-0.03-0.06-0.05-0.1c-0.01-0.02-0.02-0.05-0.02-0.07c0-0.01-0.01-0.03-0.01-0.04c-0.03-0.28,0-0.67,0.12-1.09
			c0.23-2.35,0.03-5.14-0.37-7.93l-4.92,1.16c-0.04,0.01-0.08,0.01-0.12,0.01c-0.08,0-0.16-0.03-0.23-0.06
			c-0.02,0.14-0.05,0.27-0.07,0.42c-0.73,3.76-3.1,6.1-6.19,6.1c-5.22,0-6.12-2.74-6.19-5.8c-0.09,0.07-0.19,0.11-0.3,0.11
			c-0.01,0-0.02,0-0.03,0l-0.89-0.05c0.04,1.31,0.25,5.2,1.4,8.34c0.04,0.1,0.04,0.21,0.01,0.31c-0.27,1-0.83,1.74-1.64,2.21
			c-0.73,0.41-1.55,0.53-2.24,0.53c-0.86,0-1.53-0.18-1.58-0.19c-0.27-0.08-0.43-0.36-0.35-0.63c0.07-0.27,0.35-0.43,0.63-0.36
			c0.14,0.04,3.33,0.88,4.16-1.68c-1.19-3.36-1.38-7.34-1.41-8.59l-10.25-0.62c0,0.04,0,0.07,0,0.11c0,5.62-2.82,7.53-7.37,8.8
			c-0.04,0.01-0.09,0.02-0.14,0.02c-0.02,0-0.04,0-0.06,0c-6.55-0.74-7.45-4.68-7.45-8.82c0-0.11,0.01-0.21,0.01-0.31l-9.53-2.43
			c-0.24,7.6-0.29,12.52-0.29,12.59c0,0.25-0.19,0.46-0.44,0.5c-0.26,0.04-0.49-0.12-0.56-0.36c-0.38-1.25-1.75-4.58-3.48-4.94
			c-0.73-0.15-1.5,0.25-2.31,1.19c-0.86,0.99-1.18,2.05-0.98,3.23c0.41,2.52,3.2,5.23,6.14,7.25c0.21-2.11,0.71-3.53,0.76-3.66
			c0.09-0.27,0.39-0.4,0.65-0.31c0.27,0.1,0.4,0.39,0.31,0.65c-0.01,0.03-0.57,1.64-0.73,3.97c0.24,0.15,0.48,0.3,0.72,0.45
			c0.24,0.14,0.32,0.46,0.18,0.7c-0.09,0.16-0.27,0.25-0.44,0.25c-0.09,0-0.18-0.02-0.26-0.07c-0.07-0.04-0.16-0.1-0.25-0.15
			c-0.01,2.31,0.44,5.1,2.04,7.76C218.41,211.31,227.93,219.84,240.43,220.14z M235.64,195.73c0.09-0.11,0.22-0.18,0.36-0.19
			c6.15-0.42,11.02-3.08,11.06-3.11c0.25-0.14,0.56-0.05,0.69,0.2c0.14,0.25,0.05,0.56-0.2,0.69c-0.2,0.11-4.81,2.63-10.91,3.19
			c0.46,2.14,2.47,9.81,7.67,10.07c0.1-0.01,3.89-0.39,3.89-5.94c0-0.28,0.23-0.51,0.51-0.51s0.51,0.23,0.51,0.51
			c0,6.52-4.85,6.96-4.9,6.96c-6.9-0.34-8.72-11.02-8.8-11.47C235.51,195.99,235.55,195.84,235.64,195.73z"/>
	</g>
	<g>
		<path class="st6" d="M267.61,175.46c-1.05-6.48-3.04-12.62-3.07-12.71c-0.31-0.98-1.4-1.9-2.59-2.19
			c-0.59-0.14-1.7-0.25-2.58,0.64c-2.14,2.14-7.57,0.95-7.8,0.9c-0.16-0.04-0.29-0.14-0.36-0.29c-0.56-1.27-2.14-2.95-2.83-3.66
			c-2.77,2.1-11.82,2.79-12.89,2.87c-0.21,0.02-0.43-0.12-0.51-0.33c-1.03-2.67-6.44-4.05-6.49-4.06c-1.93-0.84-3.74-0.84-5.47-0.01
			c-6.17,2.95-9.68,15.2-9.93,16.1c-0.01,0.44-0.03,0.86-0.04,1.29l9.58,2.44c0.55-4.23,3.66-7.48,7.41-7.48
			c3.06,0,7.07,0.84,7.47,7.68l12.27,0.74c0.11,0.01,0.2,0.05,0.28,0.12c0.17-4.61,3.26-6.68,6.33-6.68c2.83,0,4.59,0.53,5.53,1.68
			c0.85,1.03,0.95,2.41,0.73,4.12L267.61,175.46z M232.67,167.97c-0.21,0.19-0.53,0.18-0.72-0.03c-0.53-0.57-1.14-0.86-1.88-0.88
			c-2.12-0.04-4.47,2.21-4.5,2.23c-0.1,0.1-0.23,0.15-0.36,0.15c-0.13,0-0.26-0.05-0.36-0.15c-0.2-0.2-0.2-0.52,0.01-0.72
			c0.11-0.11,2.65-2.61,5.24-2.52c1.01,0.03,1.89,0.43,2.6,1.21C232.89,167.46,232.88,167.78,232.67,167.97z M257.97,168.39
			c-0.19,0.21-0.51,0.23-0.72,0.04c-1.06-0.94-2.07-1.34-3-1.2c-1.34,0.21-2.12,1.5-2.13,1.51c-0.1,0.16-0.27,0.25-0.44,0.25
			c-0.09,0-0.18-0.02-0.26-0.07c-0.24-0.14-0.32-0.45-0.18-0.7c0.04-0.07,1.02-1.71,2.84-2c1.24-0.2,2.54,0.29,3.85,1.44
			C258.13,167.86,258.15,168.18,257.97,168.39z"/>
	</g>
	<g>
		<path class="st6" d="M251.05,177.89c0,3.28,0.85,5.18,5.18,5.18c3.07,0,4.69-2.72,5.19-5.27c0,0,0,0,0,0
			c0.48-2.46,0.39-3.81-0.3-4.65c-0.73-0.88-2.28-1.31-4.74-1.31C253.14,171.84,251.05,174.22,251.05,177.89z M257.25,174.7
			c0.73,0.13,1.16,1.12,0.97,2.23c-0.19,1.1-0.94,1.89-1.67,1.76c-0.73-0.13-1.16-1.12-0.97-2.23S256.52,174.57,257.25,174.7z"/>
	</g>
	<g>
		<path class="st6" d="M229.99,185.58c4.82-1.37,6.53-3.41,6.53-7.79c0-6.87-3.28-7.8-6.49-7.8c-3.29,0-6.01,2.96-6.43,6.79
			c0.12,0.12,0.19,0.3,0.14,0.48c-0.03,0.12-0.1,0.21-0.19,0.28c0,0.08-0.01,0.16-0.01,0.25
			C223.54,182.12,224.62,184.94,229.99,185.58z M229.64,177.28c0.19-1.1,0.94-1.89,1.67-1.76c0.73,0.13,1.16,1.12,0.97,2.22
			c-0.19,1.1-0.94,1.89-1.67,1.76C229.88,179.38,229.44,178.38,229.64,177.28z"/>
	</g>
	<path class="st7" d="M257.48,143.62c0.11-0.19,6.4-10.83,3.14-19.4c-2.49,3.11-13.26,15.82-26.59,20.8
		c-2.94,1.1-5.48,1.91-7.71,2.63c-9.22,2.96-12.33,3.96-12.84,15.17c-0.1,2.15-0.18,4.21-0.26,6.17c1.55-4.24,4.69-11.07,9.35-13.3
		c2.02-0.96,4.12-0.98,6.25-0.03c0.15,0.03,5.47,1.39,6.96,4.31c3.21-0.25,10.72-1.18,12.25-2.87c0.09-0.1,0.22-0.16,0.36-0.17
		c0.13-0.01,0.27,0.05,0.37,0.14c0.1,0.1,2.38,2.29,3.28,4.08c1.59,0.31,5.24,0.69,6.61-0.68c0.92-0.92,2.18-1.24,3.55-0.91
		c1.54,0.38,2.9,1.55,3.31,2.87c0.13,0.38,2.07,6.37,3.11,12.79l2.53-0.59c0.98-4.19,1.69-8.67,1.14-11.51
		c-0.04-0.21,0.05-0.42,0.23-0.53c0.1-0.07,9.77-6.27,11.45-12.43c-1.77,1.37-5.45,3.98-8.95,5.04c-0.24,0.07-0.5-0.04-0.61-0.27
		c-0.11-0.23-0.04-0.5,0.17-0.64c0.1-0.07,9.55-6.65,11.23-15.66c-2.84,2.47-10.87,9.02-17.94,10.56c-0.24,0.05-0.48-0.07-0.58-0.3
		s-0.01-0.49,0.19-0.62c0.34-0.22,8.06-5.4,5.23-14.81c-2.35,1.25-11.76,6.43-14.36,10.69c-0.15,0.24-0.46,0.32-0.7,0.17
		C257.41,144.17,257.33,143.86,257.48,143.62C257.48,143.62,257.48,143.62,257.48,143.62z"/>
	<path class="st7" d="M268.77,176.23c0.26,1.8,0.44,3.61,0.48,5.33c0.5-1.63,1.09-3.66,1.63-5.82L268.77,176.23z"/>
	<path class="st1" d="M131.76,244.03c0,2.1,0.54,8.58,6.41,13.39c0.46-2.79,1.02-11.1,1.28-15.45
		C137.91,243.06,134.69,244.94,131.76,244.03z"/>
	<path class="st1" d="M91.48,203.08c8.44,19.31,15.95,35.06,18.81,40.98c0.78,1.62,1.34,3.35,1.64,5.13
		c1.24,7.18,6.16,18.14,7.32,20.65l18.38-11.54c-7.6-6.15-6.87-14.95-6.86-15.04c0.02-0.17,0.11-0.31,0.26-0.4
		c0.14-0.08,0.32-0.09,0.47-0.01c0.51,0.25,1.05,0.36,1.59,0.4c0.62-0.07,1.32-0.14,1.96-0.22c1.93-0.52,3.65-1.74,4.33-2.26
		l-25.94-50.91C108.73,194.71,94.28,201.74,91.48,203.08z M123.21,231.1c0.12,0.26,0,0.56-0.25,0.68l-5.58,2.54
		c-0.07,0.03-0.14,0.05-0.21,0.05c-0.19,0-0.38-0.11-0.46-0.3c-0.12-0.26,0-0.56,0.25-0.68l5.58-2.54
		C122.79,230.74,123.09,230.85,123.21,231.1z M118.03,217.06c0.13,0.25,0.03,0.56-0.22,0.69l-8.86,4.51
		c-0.07,0.04-0.15,0.06-0.23,0.06c-0.19,0-0.36-0.1-0.45-0.28c-0.13-0.25-0.03-0.56,0.22-0.69l8.86-4.51
		C117.59,216.71,117.9,216.81,118.03,217.06z M115.14,205.86c0.15,0.24,0.08,0.55-0.16,0.7c-0.85,0.54-7.24,4.5-10.84,4.5
		c-0.71,0-1.32-0.16-1.75-0.53c-0.21-0.18-0.24-0.51-0.05-0.72c0.18-0.21,0.51-0.24,0.72-0.05c1.53,1.31,7.78-1.8,11.37-4.06
		C114.67,205.55,114.99,205.62,115.14,205.86z"/>
	<path class="st1" d="M150.59,171.55L150.59,171.55l1.45-11.46C151.09,163.86,150.59,167.69,150.59,171.55z"/>
	<g>
		<path class="st6" d="M163.54,254.38c2.95,3.11,6.08,6.19,9.41,9.23c0.64-1.42,1.56-3.5,2.56-5.98l0.1-0.24
			c1.12-2.79,2.1-5.45,2.9-7.9c1.89-5.67,2.92-10.27,3.09-13.72c-0.13-0.14-0.18-0.34-0.11-0.53c0.03-0.07,0.07-0.13,0.12-0.18
			c0-0.14,0-0.28,0-0.42c-0.13-0.12-3.71-3.59-8.44-9.33c-0.01-0.01-0.03-0.01-0.04-0.02c-0.08-0.06-0.13-0.14-0.17-0.23
			c-9.49-11.58-23.39-32.18-23.39-53.51c0-16.11,8.27-31.62,23.91-44.84c15.71-13.28,37.83-23.36,63.98-29.14
			c0.45-0.16,50.93-18.24,62.15-54.68c-0.08-1.57-1.46-24.1-14.51-34.54c-5.94-4.75-13.46-6.34-22.36-4.73
			c-0.7,0.68-5.05,5.48-2.87,16.15c2.54,0.52,17.68,4.05,22.35,15.02c2.82,6.62,1.2,14.58-4.81,23.67
			c-0.36,1.44-4.95,14.66-52.22,23.48c-56.64,10.57-78.12,39.41-80.38,42.66c-5.21,7.49-14.24,26.28-15.05,49.22
			c-1.01,28.73,10.31,55.75,33.68,80.46C163.48,254.31,163.51,254.34,163.54,254.38z"/>
	</g>
	<g>
		<path class="st6" d="M254.81,68.66c0.97,0.79,2.15,1.81,3.5,3.03c6.9-2.89,11.19-5.69,13.85-7.99c-1.51-1.05-2.98-2.01-4.35-2.84
			c-2.23-1.37-4.47-2.6-6.66-3.65c-1.54-0.75-3.03-1.4-4.44-1.94c-2.82-1.09-4.46-1.43-4.47-1.44c-0.08-0.02-0.16-0.05-0.22-0.1
			c-4.59-3.72-7.63-6.7-9.56-9.36c-0.25-0.34-0.46-0.68-0.67-1l-0.07-0.1c-0.01-0.01-0.02-0.03-0.02-0.04
			c-0.74-1.18-1.25-2.27-1.56-3.35c-0.02-0.03-0.03-0.07-0.04-0.1c-0.06-0.24-0.13-0.49-0.18-0.73c-0.01-0.04-0.01-0.07-0.01-0.11
			c-0.67-3.08,0.15-6.05,1.18-9.81c0.33-1.2,0.68-2.49,1.02-3.9c0-0.01,0-0.02,0.01-0.03c0-0.01,0-0.02,0.01-0.03
			c0.19-0.77,0.36-1.59,0.54-2.44c0.18-0.91,0.3-1.82,0.36-2.69c0.03-0.35,0.04-0.68,0.05-1.01c0.02-0.86-0.01-1.68-0.08-2.53
			c-0.01-0.04-0.01-0.09-0.01-0.12c-0.24-2.58-0.97-5.19-2.18-7.7c0-0.01-0.01-0.02-0.01-0.03c0-0.01-0.01-0.01-0.01-0.02
			c-0.8-1.67-1.8-3.28-2.88-4.67c-0.02-0.03-0.07-0.1-0.09-0.13c-1.02-1.31-1.92-2.22-2.37-2.65c-0.28,0.21-0.54,0.43-0.81,0.64
			c-2.11,1.74-3.96,3.58-5.52,5.48c-0.02,0.04-0.05,0.08-0.09,0.11c-1,1.22-1.92,2.54-2.72,3.93c-0.01,0.02-0.02,0.04-0.03,0.06l0,0
			c-0.84,1.44-1.53,2.95-2.05,4.47c0,0.02-0.01,0.03-0.02,0.05c-0.43,1.29-0.76,2.56-0.96,3.79l-0.01,0
			c-0.01,0.03-0.01,0.07-0.02,0.1l0,0l0,0c-0.13,0.81-0.22,1.55-0.27,2.34c-0.14,1.99-0.04,4.04,0.32,6.15
			c0.02,0.05,0.02,0.08,0.02,0.14c0.01,0.05,0.03,0.15,0.03,0.19c0.33,1.94,0.9,4.01,1.69,6.09l0,0c0.01,0.02,0.01,0.03,0.02,0.05
			l0.03,0.07c0.01,0.03,0.03,0.07,0.04,0.11l0,0c1.07,2.8,2.55,5.71,4.42,8.65c0.01,0.02,0.05,0.08,0.06,0.1
			c0.03,0.04,0.05,0.08,0.07,0.1c0,0,0,0.01,0.01,0.01c2.06,3.23,4.61,6.54,7.57,9.83c4.17,4.63,8.29,8.28,11.02,10.52l0,0
			c0.01,0.01,0.02,0.02,0.04,0.03c1.16,0.95,2,1.59,2.36,1.86c0.18-0.01,0.35,0.04,0.49,0.09c0.7,0.24,1.87,1.04,3.58,2.42
			l-0.21,0.49l0,0L254.81,68.66z"/>
	</g>
	<g>
		<path class="st6" d="M282.02,71.46c-4.14,3.94-8.58,7.46-12.98,10.53c1.63,1.63,3.32,3.28,5.08,4.99l0.11,0.11
			c0.31,0.3,0.63,0.61,0.95,0.93c2.85,2.76,6.41,6.2,9.9,9.78c2.85,2.92,5.17,5.4,7.29,7.8l0.15,0.17c2.15,2.42,4.25,4.91,6.2,7.39
			c0.09,0.12,0.18,0.23,0.28,0.35c1.88,2.4,3.7,4.89,5.43,7.41c2.52,3.64,4.92,7.58,7.15,11.7c0,0.01,0.01,0.02,0.01,0.03
			c0,0,0,0,0,0.01c0.06,0.1,0.08,0.15,0.1,0.19c1.53,2.83,3.01,5.89,4.4,9.06c0.05,0.13,0.07,0.17,0.09,0.22
			c1.55,3.58,2.95,7.28,4.12,10.95c0.09,0.23,0.14,0.4,0.2,0.58c0,0.01,0.01,0.03,0.01,0.04c0,0,0,0,0,0.01
			c0.93,2.9,1.71,5.69,2.41,8.53c0.18,0.75,0.36,1.51,0.51,2.25l-0.46,0.23l0,0l0.49-0.11c0.77,3.56,1.32,7.06,1.64,10.47l0.05,0.55
			c0.32,3.52,0.41,7.07,0.27,10.56c-0.14,3.8-0.54,7.58-1.2,11.28c0,0.03,0,0.09-0.03,0.16c-0.65,3.6-1.54,7.17-2.66,10.58
			c0,0,0,0.01,0,0.01c0,0.01-0.01,0.02-0.01,0.04l-0.07,0.23c-0.01,0.03-0.05,0.13-0.06,0.16c-0.94,2.88-2.08,5.78-3.38,8.59
			c-0.02,0.05-0.05,0.11-0.1,0.19c-0.07,0.16-0.14,0.31-0.21,0.46c0.01,0.01,0.01,0.02,0.02,0.03c0.15,0.24,0.08,0.55-0.16,0.7
			c-0.08,0.05-0.17,0.07-0.25,0.07c-0.78,1.62-1.62,3.2-2.5,4.71c0,0.01-0.01,0.01-0.01,0.02c-0.02,0.05-0.05,0.09-0.07,0.13
			c-0.01,0.01-0.01,0.02-0.02,0.04c-1.76,3.02-3.22,5.03-3.96,6c-0.02,0.03-0.03,0.07-0.06,0.09c-0.3,0.39-0.51,0.64-0.62,0.77
			c-0.16,1-0.27,1.95-0.32,2.83c-0.01,0.18-0.02,0.35-0.03,0.51c0.22,0.05,0.36,0.23,0.37,0.46c0.01,0.25-0.16,0.46-0.39,0.52
			c-0.1,6.09,1.56,11.5,3.01,15c0.01,0.02,0.01,0.04,0.02,0.06c0.48,1.15,1.01,2.27,1.57,3.34c0.01,0.01,0.01,0.03,0.02,0.04
			c0,0.01,0.01,0.02,0.01,0.02c0.44,0.85,0.82,1.49,1.07,1.9c0.95-0.85,2.38-1.95,4.24-2.94c0.02-0.02,0.04-0.03,0.06-0.05
			c2.89-2.31,5.64-4.98,8.19-7.94c0.02-0.05,0.07-0.09,0.11-0.13c0.06-0.06,0.12-0.13,0.17-0.19c1.53-1.79,3.01-3.69,4.4-5.67
			c1.56-2.22,3.05-4.58,4.4-6.99l0.5,0.15l-0.45-0.25c1.49-2.64,2.88-5.42,4.14-8.27c0.01-0.04,0.02-0.07,0.04-0.1
			c2.04-4.64,3.76-9.5,5.12-14.45l0.07-0.25c0.71-2.61,1.32-5.25,1.82-7.87c0.03-0.16,0.05-0.28,0.07-0.4
			c0.6-3.17,1.06-6.37,1.36-9.53l0.03-0.3c0.35-3.71,0.49-7.43,0.42-11.06v-0.29c-0.09-4.32-0.47-8.51-1.12-12.5l0.47-0.23
			l-0.5,0.08c-0.62-3.79-1.51-7.49-2.63-10.98c-0.03-0.08-0.04-0.12-0.05-0.16c-0.56-1.72-1.2-3.46-1.89-5.13
			c-0.24-0.59-0.5-1.18-0.75-1.76l-0.45-1.03c-0.01-0.01-0.01-0.02-0.01-0.03h0c-2.39-5.32-5.41-10.88-8.97-16.51
			c-0.03-0.04-0.05-0.07-0.07-0.12l-0.26-0.4c-0.99-1.56-2.03-3.14-3.2-4.84l-0.35-0.51c-2.48-3.62-5.26-7.36-8.26-11.12
			c-0.05-0.07-0.08-0.09-0.1-0.12c-2.9-3.65-6.03-7.34-9.28-10.95c-3.02-3.36-6.06-6.57-9.05-9.56c0,0-0.11-0.12-0.11-0.12
			c-3.35-3.36-5.96-5.8-7.56-7.26c-0.03-0.03-0.05-0.06-0.08-0.09c-1.2-1.08-1.87-1.66-1.87-1.66l-0.29-0.33
			c-0.15-0.17-0.29-0.33-0.44-0.5c-2.74-3.09-5.53-5.97-8.33-8.62C284.04,73.28,283.08,72.41,282.02,71.46z"/>
	</g>
	<g>
		<path class="st3" d="M282.69,308.73c-0.01,0-0.01,0-0.02,0h-47.43c6.56,10.82,9.73,19.62,10.02,20.46l4.07,6.35
			c0.14,0.22,0.09,0.5-0.1,0.67c-1.26,1.04-2.53,2.21-3.79,3.45c1.15,8.33,11.92,28.25,14.3,32.56
			c11.18-22.27,21.01-33.25,23.54-35.89c-2.39-0.58-4.66-0.84-6.72-0.67c-0.24,0.03-0.47-0.14-0.53-0.37
			c-0.04-0.15-1.01-3.76,0.96-5.91c0.08-0.08,0.16-0.16,0.24-0.24c0.26-1.3,1.96-9.51,5.7-20.45
			C282.83,308.72,282.75,308.73,282.69,308.73z"/>
	</g>
	<g>
		<path class="st3" d="M159.51,274.4c-8.69,12.19-3.42,36.11,1.05,42.53c0.19,0.42,14.98,33.47,53.36,64.24
			c9.35-28.41,28.14-49.52,30.29-51.87c-1.43-3.97-18.53-49.21-57.95-60.36c-5.43-1.54-10.19-2.06-14.26-1.6
			c-0.02,0-0.04,0.01-0.06,0.01c-0.01,0-0.02-0.01-0.03-0.01C166.56,267.97,162.42,270.33,159.51,274.4z"/>
	</g>
	<g>
		<path class="st6" d="M248.22,399.29c3.48-12.07,10.49-25.04,10.56-25.17c0.13-0.27,0.26-0.53,0.39-0.79
			c-1.41-2.53-12.87-23.29-14.63-32.8c-11.39,11.54-22.52,29.8-27.67,38.75C224.67,390.45,244.77,398.05,248.22,399.29z"/>
	</g>
	<g>
		<path class="st4" d="M214.1,448.84l48.32-24.4c-0.44-2.99,0.46-12.26,0.68-14.42c-5.69-1.58-13.07-8.05-14.61-9.44
			c-5.65,3.29-22.55,17.98-22.72,18.13c-0.04,0.04-7.56,8.07-13.23,14.87C207.71,439.37,212.88,447.16,214.1,448.84z"/>
	</g>
	<g>
		<path class="st4" d="M279.28,411.28c-1.63,0.14-4.07-0.37-6.66-0.91c-3.26-0.68-7.3-1.52-8.47-0.53l-0.63,14.53l56.21,21.48
			c0.61-2.34,2.85-11.62,1.34-15.88c-1.71-4.82-21.1-23.15-38.88-23.92c0.2,0.95,0.41,2.66-0.4,3.88
			C281.27,410.74,280.43,411.19,279.28,411.28z"/>
	</g>
	<g>
		<path class="st6" d="M265.97,408.38c1.85-0.04,4.31,0.47,6.86,1c2.4,0.5,4.9,1.01,6.36,0.89c0.83-0.07,1.4-0.36,1.75-0.89
			c0.87-1.32,0.11-3.67,0.1-3.69c-0.01-0.02,0-0.04,0-0.05c-0.01-0.04-0.02-0.07-0.02-0.11v-6.68
			C276.28,402.16,271.25,405.39,265.97,408.38z"/>
	</g>
	<g>
		<path class="st6" d="M323.06,359.75c-1.63-0.88-3.28-1.94-4.88-3.23c-5.26-4.25-20.98-16.3-33.78-19.88
			c-1.58,1.58-12.41,12.9-24.71,37.95c-0.08,0.15-7.12,13.18-10.54,25.2c1.31,1.18,8.38,7.38,13.81,9.11
			c6.38-3.48,12.43-7.32,18.07-11.29v-0.36c0-0.28,0.23-0.51,0.51-0.51c0.17,0,0.32,0.09,0.41,0.22
			C304.07,381.22,319.6,363.78,323.06,359.75z"/>
	</g>
	<g>
		<path class="st3" d="M335.74,362.8c1.44-20.84,8.38-54.48,8.45-54.82c0.06-0.25,5.54-23.74,3.93-39.54
			c-1.58-15.46-12.38-17.04-12.84-17.1c-6.49-1.58-11.6-0.15-15.09,1.7c-0.59,0.47-1.18,0.92-1.78,1.36
			c-0.17,0.13-0.34,0.25-0.52,0.38c-0.68,0.48-1.41,0.98-2.23,1.5c-0.58,0.55-0.89,0.92-0.91,0.94
			c-25.09,23.03-34.76,63.83-36.32,71.14c1.24-0.54,2.89-0.62,4.93-0.23c0.26,0.04,27.83,4.74,50.17,34.3
			C334.51,362.63,335.27,362.75,335.74,362.8z M333.98,259.04c1.79-0.46,3.29-0.13,4.44,0.98c5.36,5.14,1.04,26.05,0.86,26.93
			c-0.05,0.24-0.26,0.41-0.5,0.41c-0.03,0-0.07,0-0.11-0.01c-0.28-0.06-0.45-0.33-0.39-0.6c0.04-0.21,4.39-21.24-0.57-25.99
			c-0.89-0.86-2.03-1.09-3.48-0.72c-0.28,0.07-0.55-0.1-0.62-0.37C333.54,259.38,333.71,259.11,333.98,259.04z"/>
	</g>
	<g>
		<path class="st10" d="M248.22,335.71l-3.5-5.46c-2.96,3.29-19.99,22.94-29.17,49.28c0.06-0.11,0.13-0.23,0.2-0.34
			c0.02-0.1,0.08-0.19,0.15-0.26C221.68,368.86,235.24,346.65,248.22,335.71z"/>
	</g>
	<g>
		<path class="st10" d="M331.97,362.08c-21.95-28.35-48.52-32.89-48.79-32.94c-2.37-0.44-4.09-0.22-5.15,0.65
			c-0.01,0.01-0.02,0.02-0.03,0.03c-0.09,0.08-0.18,0.17-0.27,0.26c-1.25,1.37-0.99,3.62-0.82,4.54c0.3-0.02,0.61-0.02,0.92-0.02
			c2.01,0,4.19,0.35,6.45,0.96c0.07,0,0.13,0.02,0.2,0.05c13.08,3.6,29.02,15.82,34.35,20.12c1.61,1.3,3.28,2.35,4.93,3.22
			c0.01-0.02,0.04-0.05,0.05-0.05c0.18-0.22,0.5-0.25,0.72-0.07c0.18,0.15,0.22,0.38,0.14,0.58
			C327.35,360.73,329.93,361.57,331.97,362.08z"/>
	</g>
	<path class="st11" d="M335.46,250.34c-5.02-1.23-9.25-0.71-12.6,0.44c2.02-1.81,3.97-3.79,5.79-5.9c0.03-0.03,0.08-0.08,0.12-0.15
		c0.08-0.08,0.15-0.17,0.2-0.23c1.53-1.79,3.03-3.71,4.44-5.72c1.58-2.25,3.08-4.63,4.43-7.04c0.03-0.04,0.06-0.1,0.09-0.15
		c1.49-2.65,2.9-5.46,4.17-8.32c0.01-0.01,0.01-0.03,0.02-0.05c0,0,0-0.01,0.01-0.01c2.07-4.7,3.81-9.63,5.19-14.67l0.07-0.26
		c0.71-2.61,1.33-5.28,1.84-7.93c0-0.01,0-0.03,0.01-0.05c0.03-0.13,0.05-0.26,0.06-0.37c0.61-3.18,1.07-6.41,1.38-9.6l0.03-0.3
		c0.35-3.75,0.49-7.52,0.42-11.17v-0.36c-0.09-4.31-0.47-8.55-1.13-12.58c0,0-0.03-0.15-0.03-0.15c-0.63-3.84-1.53-7.58-2.65-11.09
		c-0.01-0.04-0.02-0.08-0.05-0.16c-0.58-1.78-1.23-3.55-1.93-5.24c-0.09-0.22-0.19-0.43-0.28-0.65c0.32,0.05,0.68,0.07,1.09,0.01
		c1.47-0.23,2.94-1.35,4.36-3.33c0.36,1.05,0.7,2.1,1.01,3.16c0.06,0.2,0.23,0.34,0.44,0.37c0.02,0,0.03,0,0.05,0
		c0.19,0,0.36-0.1,0.45-0.27c0.76-1.43,18.63-35.15,21.22-47.49c0.08-0.23,1.82-5.79-1.4-10.2c-0.4-0.6-9.8-14.7-19.28-18.24
		c-0.21-0.08-0.46-0.01-0.6,0.18l-1.55,2.21c-0.45-0.54-0.95-1.09-1.54-1.64c-1.42-1.35-2.82-1.88-4.15-1.58
		c-2.34,0.52-3.51,3.44-3.56,3.57c-0.1,0.26,0.03,0.56,0.29,0.66c0.26,0.1,0.56-0.03,0.66-0.29c0.01-0.03,1.02-2.54,2.84-2.95
		c0.98-0.22,2.07,0.23,3.23,1.33c0.63,0.6,1.16,1.19,1.62,1.77l-5.39,7.7c-1.91-1.12-4.2-1.24-4.41-1.24
		c-2.45,0.39-3.98,1.3-4.57,2.71c-0.88,2.12,0.8,4.48,0.87,4.58c0.16,0.23,0.48,0.28,0.71,0.11c0.23-0.16,0.28-0.48,0.12-0.71
		c-0.01-0.02-1.42-2-0.75-3.59c0.44-1.05,1.71-1.76,3.68-2.08c0.03,0,2.08,0.11,3.76,1.06l-10.28,14.67
		c-0.48-0.61-1.08-1.21-1.86-1.74c-1.72-1.18-3.09-1.48-4.07-0.91c-1.56,0.92-1.35,3.61-1.32,3.92c0.03,0.28,0.3,0.49,0.56,0.46
		c0.28-0.03,0.49-0.28,0.46-0.56c-0.06-0.6-0.03-2.44,0.82-2.94c0.6-0.35,1.63-0.05,2.97,0.87c0.8,0.55,1.38,1.15,1.82,1.78
		l-5.67,8.09c-0.09,0.12-0.11,0.27-0.08,0.4c-0.06,0.29,0.12,0.59,0.25,0.81c1.66,2.78,4.29,12.85,5.54,17.91
		c-0.6-0.91-1.22-1.84-1.89-2.81l-0.35-0.51c-2.49-3.63-5.29-7.39-8.27-11.14c-0.02-0.03-0.05-0.06-0.1-0.13
		c-2.94-3.7-6.08-7.41-9.35-11.03c-3.03-3.37-6.09-6.6-9.04-9.54c-0.04-0.06-0.1-0.12-0.16-0.17c-3.34-3.35-5.96-5.8-7.57-7.27
		c-0.07-0.08-0.12-0.11-0.11-0.1c-1.17-1.07-1.84-1.65-1.84-1.65l-0.24-0.27c-0.15-0.18-0.3-0.35-0.46-0.52
		c-0.01-0.02-0.04-0.05-0.07-0.07c-2.69-3.04-5.49-5.93-8.32-8.6c-0.87-0.83-1.81-1.69-2.87-2.63c7.84-7.63,14.55-16.84,17.86-27.66
		c0.02-0.05,0.02-0.11,0.02-0.17c-0.01-0.24-1.07-24.32-14.89-35.38c-6.21-4.97-14.07-6.62-23.33-4.91
		c-0.09,0.02-0.17,0.05-0.24,0.11c-0.24,0.2-5.89,5.15-3.23,17.56c0.04,0.2,0.2,0.36,0.41,0.39c0.17,0.03,17.15,3.25,21.93,14.49
		c2.68,6.3,1.08,13.97-4.77,22.79c-0.04,0.06-0.06,0.12-0.08,0.19c-0.01,0.05-0.45,1.98-3.49,4.84c-1.6-1.12-3.15-2.13-4.6-3.01
		c-2.26-1.38-4.53-2.63-6.75-3.7c-1.56-0.76-3.09-1.43-4.52-1.98c-2.49-0.96-4.07-1.36-4.51-1.46c-4.47-3.63-7.42-6.52-9.28-9.1
		c-0.23-0.32-0.44-0.65-0.64-0.96l-0.06-0.09c-0.01-0.01-0.01-0.02-0.02-0.03c-0.7-1.12-1.18-2.15-1.46-3.14
		c-0.01-0.03-0.02-0.06-0.03-0.08c-0.05-0.21-0.11-0.42-0.14-0.55c0-0.04,0-0.07-0.01-0.11c-0.63-2.92,0.16-5.78,1.15-9.41
		c0.33-1.21,0.69-2.51,1.03-3.93c0-0.01,0-0.02,0.01-0.03c0-0.01,0-0.02,0-0.03c0.2-0.78,0.37-1.61,0.54-2.48
		c0.19-0.96,0.31-1.9,0.38-2.82c0.03-0.35,0.04-0.7,0.05-1.07c0.02-0.88-0.01-1.73-0.08-2.62c0-0.02-0.01-0.05-0.01-0.07l0,0
		c-0.25-2.75-1.02-5.48-2.28-8.11c0-0.01-0.01-0.02-0.01-0.03c0,0,0-0.01-0.01-0.01c-0.83-1.73-1.87-3.41-2.99-4.85
		c-0.01-0.02-0.02-0.03-0.04-0.05c-0.02-0.03-0.04-0.05-0.05-0.07c-1.53-1.98-2.78-3.05-2.83-3.1c-0.18-0.15-0.45-0.16-0.64-0.02
		c-0.06,0.04-0.12,0.09-0.13,0.11c-0.36,0.28-0.7,0.55-1.05,0.84c-2.16,1.78-4.07,3.68-5.65,5.61c-0.03,0.03-0.05,0.06-0.07,0.09
		c0,0,0,0,0,0c-1.06,1.28-2.02,2.65-2.85,4.09c-0.01,0.02-0.02,0.03-0.02,0.05c-0.87,1.49-1.58,3.04-2.12,4.62
		c-0.01,0.02-0.01,0.03-0.02,0.05l0,0c-0.46,1.35-0.8,2.69-1.02,4.03c-0.14,0.81-0.24,1.63-0.29,2.52
		c-0.15,2.03-0.04,4.17,0.33,6.27c0,0.03,0,0.07,0.01,0.11c0,0.07,0.01,0.14,0.03,0.22c0,0.01,0,0.02,0,0.02
		c0.35,2.07,0.94,4.21,1.75,6.34c0,0.01,0.01,0.01,0.01,0.02c0.02,0.05,0.03,0.1,0.05,0.13l0.02,0.04c0,0.01,0.01,0.03,0.01,0.04
		c1.09,2.87,2.61,5.84,4.51,8.81c0.03,0.08,0.07,0.14,0.12,0.21c0.01,0.01,0.02,0.03,0.03,0.04c2.09,3.27,4.67,6.62,7.67,9.96
		c4.2,4.67,8.36,8.34,11.11,10.61c0.01,0.01,0.03,0.02,0.04,0.03c1.6,1.31,2.58,2.03,2.62,2.06c0.13,0.1,0.3,0.12,0.46,0.07
		c0.01,0,0.02-0.01,0.04-0.01c0.02,0,0.04,0.01,0.06,0.02c0.33,0.11,1.19,0.56,3.27,2.25c0,0,0.11,0.09,0.11,0.09
		c0.86,0.7,1.9,1.59,3.1,2.67c-7.48,3.03-17.86,6.12-32.26,8.81c-57.04,10.65-78.75,39.79-81.03,43.08
		c-5.27,7.58-14.42,26.59-15.23,49.76c-1.02,28.86,10.27,55.98,33.57,80.79c-0.89,0.74-2.76,2.54-3.61,5.4
		c-0.6,2.04-0.35,4.19,0.7,6.07c0.86,1.52,2.18,2.71,3.73,3.39c-1.69,1.16-3.18,2.61-4.45,4.38c-8.94,12.54-3.54,37.11,0.99,43.62
		c0.15,0.34,15.09,33.78,53.91,64.79c-0.21,0.66-0.42,1.31-0.62,1.97c-0.07,0.25,0.05,0.52,0.3,0.62c0.06,0.03,0.13,0.04,0.19,0.04
		c0.18,0,0.36-0.1,0.45-0.27c0.04-0.07,0.91-1.7,2.41-4.32c7.92,10.9,26.44,18.15,31.05,19.82c-6.21,3.91-21.58,17.27-22.31,17.9
		c-0.08,0.08-7.62,8.13-13.31,14.95c-5.94,7.13,1.72,16.79,1.8,16.89c0.1,0.12,0.25,0.19,0.4,0.19c0.08,0,0.16-0.02,0.23-0.05
		l48.85-24.67l56.88,21.74c0.06,0.02,0.12,0.03,0.18,0.03c0.08,0,0.16-0.02,0.23-0.05c0.13-0.06,0.22-0.18,0.26-0.32
		c0.14-0.48,3.3-11.86,1.47-17.04c-1.98-5.58-21.79-23.94-40-24.59v-6.9c22.85-16.16,38.79-34.21,41.95-37.91
		c6.26,3.15,11.88,3.62,12.19,3.64c0.01,0,0.02,0,0.04,0c0.12,0,0.24-0.04,0.33-0.13c0.1-0.09,0.17-0.22,0.17-0.35
		c1.35-20.72,8.39-54.87,8.46-55.2c0.06-0.24,5.58-23.89,3.95-39.87C347.47,252.05,335.52,250.35,335.46,250.34z M281.94,396.96
		c-0.09-0.13-0.24-0.22-0.41-0.22c-0.28,0-0.51,0.23-0.51,0.51v0.36c-5.64,3.97-11.69,7.81-18.07,11.29
		c-5.43-1.72-12.51-7.93-13.81-9.11c3.42-12.02,10.46-25.05,10.54-25.2c12.3-25.05,23.13-36.38,24.71-37.95
		c12.8,3.58,28.52,15.64,33.78,19.88c1.6,1.29,3.26,2.35,4.88,3.23C319.6,363.78,304.07,381.22,281.94,396.96z M282.2,406.06
		c17.78,0.77,37.17,19.09,38.88,23.92c1.51,4.26-0.73,13.55-1.34,15.88l-56.21-21.48l0.63-14.53c1.17-0.99,5.21-0.15,8.47,0.53
		c2.59,0.54,5.03,1.05,6.66,0.91c1.15-0.1,1.99-0.55,2.52-1.35C282.61,408.71,282.4,407,282.2,406.06z M225.77,418.71
		c0.17-0.15,17.08-14.84,22.72-18.13c1.54,1.39,8.92,7.85,14.61,9.44c-0.22,2.16-1.11,11.44-0.68,14.42l-48.32,24.4
		c-1.22-1.68-6.39-9.47-1.56-15.27C218.2,426.78,225.73,418.75,225.77,418.71z M160.29,265.54c-0.91-1.63-1.13-3.51-0.61-5.28
		c0.79-2.65,2.59-4.33,3.34-4.94c2.97,3.13,6.13,6.22,9.48,9.27c-0.32,0.67-0.6,1.27-0.84,1.76c-2.79,0.34-5.27,1.15-7.44,2.4
		C162.59,268.24,161.16,267.09,160.29,265.54z M129.77,173.81c0.81-22.93,9.84-41.73,15.05-49.22c2.26-3.25,23.74-32.09,80.38-42.66
		c47.27-8.82,51.86-22.04,52.22-23.48c6.01-9.09,7.62-17.06,4.81-23.67c-4.67-10.98-19.81-14.5-22.35-15.02
		c-2.18-10.67,2.17-15.46,2.87-16.15c8.9-1.62,16.42-0.03,22.36,4.73c13.05,10.44,14.43,32.98,14.51,34.54
		c-11.22,36.45-61.7,54.52-62.15,54.68c-26.14,5.79-48.27,15.86-63.98,29.14c-15.64,13.22-23.91,28.73-23.91,44.84
		c0,21.33,13.9,41.93,23.39,53.51c0.03,0.09,0.08,0.17,0.17,0.23c0.01,0.01,0.03,0.01,0.04,0.02c4.73,5.74,8.31,9.2,8.44,9.33
		c0,0.14,0.01,0.27,0,0.42c-0.05,0.05-0.1,0.11-0.12,0.18c-0.07,0.19-0.02,0.4,0.11,0.53c-0.17,3.45-1.2,8.06-3.09,13.72
		c-0.81,2.45-1.79,5.11-2.9,7.9l-0.1,0.24c-1,2.48-1.92,4.56-2.56,5.98c-3.33-3.04-6.46-6.11-9.41-9.23
		c-0.02-0.04-0.06-0.07-0.09-0.1C140.08,229.56,128.76,202.55,129.77,173.81z M293.26,82.75c0.15,0.16,0.3,0.33,0.44,0.5l0.29,0.33
		c0,0,0.67,0.58,1.87,1.66c0.02,0.03,0.05,0.06,0.08,0.09c1.6,1.46,4.22,3.9,7.56,7.26c0,0,0.11,0.12,0.11,0.12
		c2.98,2.98,6.03,6.2,9.05,9.56c3.25,3.6,6.38,7.3,9.28,10.95c0.02,0.03,0.04,0.06,0.1,0.12c3,3.76,5.78,7.5,8.26,11.12l0.35,0.51
		c1.17,1.71,2.21,3.29,3.2,4.84l0.26,0.4c0.02,0.04,0.04,0.08,0.07,0.12c3.56,5.64,6.58,11.2,8.97,16.51h0
		c0,0.01,0.01,0.02,0.01,0.03l0.45,1.03c0.25,0.58,0.51,1.17,0.75,1.76c0.7,1.67,1.34,3.41,1.89,5.13c0.01,0.04,0.02,0.08,0.05,0.16
		c1.12,3.5,2,7.19,2.63,10.98l0.5-0.08l-0.47,0.23c0.65,3.99,1.02,8.18,1.12,12.5v0.29c0.07,3.63-0.07,7.35-0.42,11.06l-0.03,0.3
		c-0.3,3.16-0.76,6.36-1.36,9.53c-0.02,0.12-0.04,0.24-0.07,0.4c-0.5,2.62-1.12,5.27-1.82,7.87l-0.07,0.25
		c-1.36,4.95-3.08,9.82-5.12,14.45c-0.02,0.03-0.03,0.06-0.04,0.1c-1.26,2.85-2.65,5.63-4.14,8.27l0.45,0.25l-0.5-0.15
		c-1.36,2.41-2.84,4.77-4.4,6.99c-1.39,1.98-2.87,3.88-4.4,5.67c-0.05,0.06-0.1,0.13-0.17,0.19c-0.04,0.04-0.08,0.08-0.11,0.13
		c-2.55,2.95-5.3,5.62-8.19,7.94c-0.02,0.02-0.04,0.03-0.06,0.05c-1.86,0.99-3.29,2.1-4.24,2.94c-0.25-0.41-0.63-1.05-1.07-1.9
		c0-0.01-0.01-0.02-0.01-0.02c-0.01-0.01-0.01-0.03-0.02-0.04c-0.56-1.07-1.09-2.19-1.57-3.34c0-0.02-0.01-0.04-0.02-0.06
		c-1.45-3.49-3.11-8.9-3.01-15c0.23-0.06,0.4-0.27,0.39-0.52c-0.01-0.23-0.15-0.4-0.37-0.46c0.01-0.16,0.02-0.33,0.03-0.51
		c0.05-0.87,0.17-1.83,0.32-2.83c0.11-0.13,0.32-0.38,0.62-0.77c0.02-0.03,0.04-0.06,0.06-0.09c0.74-0.97,2.2-2.98,3.96-6
		c0.01-0.01,0.01-0.02,0.02-0.04c0.02-0.04,0.05-0.08,0.07-0.13c0-0.01,0.01-0.01,0.01-0.02c0.88-1.51,1.71-3.09,2.5-4.71
		c0.09,0,0.17-0.02,0.25-0.07c0.24-0.15,0.31-0.47,0.16-0.7c-0.01-0.01-0.01-0.02-0.02-0.03c0.07-0.15,0.14-0.3,0.21-0.46
		c0.05-0.08,0.08-0.14,0.1-0.19c1.3-2.81,2.45-5.71,3.38-8.59c0.01-0.03,0.05-0.13,0.06-0.16l0.07-0.23c0-0.01,0.01-0.02,0.01-0.04
		c0,0,0-0.01,0-0.01c1.12-3.42,2.01-6.98,2.66-10.58c0.02-0.07,0.03-0.13,0.03-0.16c0.66-3.7,1.07-7.47,1.2-11.28
		c0.14-3.48,0.05-7.03-0.27-10.56l-0.05-0.55c-0.32-3.41-0.87-6.91-1.64-10.47l-0.49,0.11l0,0l0,0l0.46-0.23
		c-0.15-0.74-0.33-1.5-0.51-2.25c-0.69-2.84-1.48-5.63-2.41-8.53c0,0,0,0,0-0.01c0-0.02-0.01-0.03-0.01-0.04
		c-0.05-0.17-0.11-0.34-0.2-0.58c-1.18-3.68-2.57-7.38-4.12-10.95c-0.02-0.05-0.04-0.09-0.09-0.22c-1.39-3.17-2.87-6.23-4.4-9.06
		c-0.02-0.04-0.05-0.09-0.1-0.19c0,0,0,0,0-0.01c0-0.01-0.01-0.02-0.01-0.03c-2.23-4.12-4.64-8.06-7.15-11.7
		c-1.73-2.52-3.55-5.01-5.43-7.41c-0.1-0.12-0.18-0.22-0.28-0.35c-1.95-2.48-4.04-4.98-6.2-7.39l-0.15-0.17
		c-2.13-2.4-4.45-4.87-7.29-7.8c-3.5-3.58-7.05-7.02-9.9-9.78c-0.32-0.32-0.63-0.62-0.95-0.93l-0.11-0.11
		c-1.76-1.71-3.46-3.36-5.08-4.99c4.41-3.08,8.84-6.59,12.98-10.53c1.06,0.95,2.02,1.82,2.9,2.67
		C287.74,76.78,290.52,79.65,293.26,82.75z M333.81,106.92c-0.12,0.26-0.01,0.56,0.25,0.68c0.07,0.03,0.14,0.05,0.21,0.05
		c0.19,0,0.38-0.11,0.46-0.3c0.02-0.05,1.74-3.88-0.17-7.33l10.51-15c0.33,0.28,0.62,0.61,0.84,1c0.86,1.52,0.57,3.63-0.86,6.27
		c-0.13,0.25-0.04,0.56,0.21,0.69c0.08,0.04,0.16,0.06,0.24,0.06c0.18,0,0.36-0.1,0.45-0.27c1.61-2.98,1.89-5.42,0.84-7.27
		c-0.3-0.53-0.69-0.97-1.13-1.34l5.19-7.41c2.04,2.98,2.09,5.41,2.09,5.44c0,0.28,0.23,0.51,0.51,0.51c0,0,0,0,0,0
		c0.28,0,0.51-0.23,0.51-0.51c0-0.15-0.04-2.96-2.48-6.34l1.5-2.15c9.05,3.66,18.32,17.56,18.43,17.72c2.92,4,1.28,9.25,1.25,9.35
		c-2.32,11.01-17.4,40.14-20.56,46.17c-0.31-0.98-0.64-1.96-0.99-2.93c-0.01-0.03-0.02-0.07-0.04-0.1
		c-6.35-17.54-19.43-33.23-22.37-35.59l5.18-7.4C335.21,103.79,333.89,106.76,333.81,106.92z M350.07,144.1
		c-1.71,2.61-3.15,3.35-4.06,3.5c-0.69,0.12-1.18-0.08-1.42-0.2c-0.68-7.3-8.55-16.52-9.52-17.63c-0.35-1.49-3.28-13.8-5.5-19.24
		C333.66,114.95,344.41,128.55,350.07,144.1z M215.75,379.19c-0.06,0.11-0.13,0.23-0.2,0.34c9.18-26.34,26.21-45.99,29.17-49.28
		l3.5,5.46c-12.97,10.94-26.54,33.15-32.32,43.22C215.82,379,215.76,379.09,215.75,379.19z M150.59,171.55
		c0-3.86,0.49-7.69,1.45-11.46c2.97-11.66,10.46-22.76,22.1-32.6c15.58-13.17,37.55-23.18,63.59-28.94
		c0.28-0.1,15.05-5.38,30.44-15.96l0.08,0.08c1.65,1.65,3.36,3.32,5.14,5.05l0.11,0.11c0.31,0.3,0.62,0.6,0.94,0.92
		c2.85,2.76,6.4,6.2,9.89,9.77c2.84,2.91,5.15,5.38,7.25,7.74l0.15,0.17c2.16,2.42,4.23,4.9,6.17,7.36c0.1,0.13,0.19,0.25,0.29,0.36
		c1.86,2.37,3.67,4.84,5.38,7.35c2.49,3.61,4.88,7.51,7.09,11.6c0,0,0,0,0,0c0,0,0,0.01,0.01,0.01c0,0,0.11,0.19,0.11,0.2
		c1.53,2.83,3,5.86,4.35,8.96c0.02,0.05,0.04,0.09,0.09,0.22c1.56,3.59,2.94,7.26,4.11,10.9c0,0.01,0.04,0.1,0.04,0.1
		c0.06,0.15,0.1,0.3,0.15,0.45c0,0,0,0,0,0.01c0,0.02,0.01,0.03,0.01,0.05c0.92,2.88,1.7,5.65,2.39,8.48
		c0.18,0.74,0.35,1.49,0.51,2.25c0,0.02,0.04,0.13,0.04,0.15c0.74,3.46,1.28,6.92,1.6,10.3l0.05,0.55c0.31,3.47,0.4,6.98,0.26,10.48
		c-0.13,3.68-0.53,7.4-1.19,11.12c0,0.01,0,0.01-0.01,0.02c0-0.05,0.01-0.09,0.02-0.11c-0.01,0.04-0.02,0.09-0.03,0.14
		c0,0.01,0,0.02-0.01,0.02c-0.64,3.58-1.53,7.11-2.64,10.51c0,0.02-0.01,0.03-0.01,0.05c0,0.01,0,0.02-0.01,0.03l-0.04,0.16
		c-0.01,0.03-0.05,0.12-0.06,0.15c-0.94,2.87-2.07,5.73-3.36,8.51c0,0.01-0.04,0.09-0.05,0.09l0,0c-1.73-2.39-3.43-3.48-5.06-3.26
		c-2.89,0.41-4.41,4.83-4.66,5.6c-2.55,2.92-9.45,4.82-9.44,4.83c-20.97,2.17-35.21,1.12-41.16,0.44l-1.42-0.18
		c-0.94-0.12-1.51-0.22-1.67-0.25c-1.92-0.8-3.07-1.75-3.33-2.75c-0.22-0.85,0.28-1.49,0.3-1.52c0,0,0,0,0-0.01
		c3.97-1.22,7.47-3.23,10.28-5.97c5.34-5.21,8.07-12.74,8.14-22.37c0.93-0.4,3.68-1.74,5.38-4.21c1.15-1.66,1.24-3.65,0.23-4.95
		c-0.82-1.05-2.15-1.37-3.56-0.85c-0.31,0.11-0.59,0.24-0.84,0.38c1.54-4.98,3.87-13.68,3.11-18.58
		c1.83-1.21,11.35-7.79,11.87-14.31c0.02-0.21-0.09-0.4-0.28-0.49c-0.18-0.09-0.41-0.07-0.56,0.07c-0.04,0.03-2.95,2.49-6.33,4.28
		c3.3-2.96,8.32-8.53,8.97-15.44c0.02-0.21-0.09-0.41-0.28-0.51c-0.19-0.09-0.42-0.06-0.57,0.08c-0.09,0.09-8.49,7.85-16.26,10.6
		c2.44-2.42,6.12-7.57,3.6-14.98c-0.05-0.14-0.15-0.25-0.29-0.31c-0.14-0.06-0.29-0.05-0.42,0.02c-0.4,0.2-8.06,4.13-12.65,8.31
		c1.8-4.21,3.93-11.4,1.1-17.58c-0.08-0.16-0.23-0.28-0.41-0.3c-0.18-0.02-0.35,0.06-0.46,0.2c-0.12,0.15-11.78,15.58-26.67,21.15
		c-2.92,1.09-5.44,1.9-7.67,2.62c-9.2,2.96-13,4.18-13.55,16.1c-0.46,10.13-0.66,18.42-0.73,22.36c-0.72-1.41-1.83-3-3.29-3.31
		c-1.12-0.23-2.22,0.28-3.3,1.52c-1.05,1.22-1.46,2.59-1.22,4.06c0.57,3.49,4.65,6.66,7.07,8.27c-0.1,2.56,0.3,5.81,2.19,8.94
		c3.32,5.5,9.56,11.73,17.81,14.74c-1.1,1.88-1.68,2.22-1.82,2.28c-0.06-0.02-0.11-0.02-0.17-0.02c0,0,0,0,0,0h0c0,0,0,0,0,0
		c-20.46,1.66-41.72-0.73-44.78-1.1c-0.75-1.41-1.76-2.18-2.98-2.26c-2.75-0.19-5.94,3.3-7.81,5.76
		C164.04,212.5,150.59,192.35,150.59,171.55L150.59,171.55z M314,256.53c-14.09,12.93-23.35,31.42-29.06,46.53
		c-1.05-1.53-3.91-1.71-4.07-1.72l-49.51,1.38c-4.7-6.83-10.66-13.99-18.01-20.2c3.54,0.2,7.44,0.3,11.62,0.3
		c28.78,0,68.95-4.2,69.42-4.25c0.28-0.03,0.48-0.28,0.45-0.56c-0.03-0.28-0.27-0.49-0.56-0.45c-0.54,0.06-54.79,5.73-82.26,3.87
		c-4.23-3.42-8.89-6.51-14.02-9.05c20.08-2.51,102.05-4.12,102.9-4.14c0.28-0.01,0.51-0.24,0.5-0.52c-0.01-0.28-0.22-0.48-0.52-0.5
		c-0.87,0.02-87.47,1.72-104.56,4.36c-3.1-1.43-6.36-2.66-9.8-3.63c-5.14-1.45-9.71-2.02-13.69-1.72c0.23-0.47,0.47-0.97,0.75-1.57
		l0.12-0.27c0.6-1.31,1.51-3.35,2.5-5.79c0.02,0.21,0.17,0.4,0.39,0.44c0.26,0.05,15.57,3.17,46.08,3.17
		c21.46,0,50.44-1.54,86.97-6.77c0.28-0.04,0.47-0.3,0.43-0.58c-0.04-0.28-0.29-0.47-0.58-0.43
		c-88.26,12.63-132.26,3.71-132.69,3.61c-0.16-0.03-0.31,0.02-0.43,0.11c0.02-0.05,0.04-0.09,0.06-0.14l0.1-0.24
		c0.83-2.07,1.58-4.07,2.25-5.96c0.07,0.08,0.16,0.15,0.27,0.17c0.22,0.05,14.68,3.11,47.96,3.11c19.66,0,45.9-1.07,79.65-4.45
		c0.28-0.03,0.49-0.28,0.46-0.56c-0.03-0.28-0.28-0.48-0.56-0.46c-90.69,9.09-126.94,1.44-127.3,1.36c-0.07-0.02-0.14-0.01-0.21,0
		c0.14-0.4,0.27-0.8,0.4-1.18c1.85-5.57,2.89-10.14,3.12-13.65c4.84,1.41,17.01,1.92,32.02,1.92c35.24,0,86.08-2.8,94.08-3.25
		c-0.08,6.2,1.6,11.69,3.07,15.26c0.01,0.02,0.01,0.04,0.02,0.06c0.5,1.19,1.05,2.36,1.63,3.47l0,0c0.01,0.02,0.02,0.04,0.03,0.06h0
		c0.49,0.93,0.9,1.63,1.19,2.1c0.01,0.02,0.02,0.03,0.03,0.04C314.23,256.25,314,256.52,314,256.53z M277.21,329.14
		c-0.08,0.08-0.16,0.16-0.24,0.24c-1.97,2.15-1,5.75-0.96,5.91c0.06,0.24,0.29,0.4,0.53,0.37c2.06-0.17,4.33,0.09,6.72,0.67
		c-2.53,2.63-12.36,13.61-23.54,35.89c-2.37-4.31-13.15-24.24-14.3-32.56c1.27-1.24,2.53-2.41,3.79-3.45
		c0.2-0.16,0.24-0.45,0.1-0.67l-4.07-6.35c-0.29-0.83-3.45-9.64-10.02-20.46h47.43c0.01,0,0.01,0,0.02,0c0.07,0,0.14-0.01,0.23-0.04
		C279.17,319.63,277.47,327.84,277.21,329.14z M284.17,305.01c-0.89,2.38-1.53,2.69-1.49,2.7h-48l-2.58-3.99l48.75-1.36
		c0.7,0.04,2.66,0.36,3.27,1.31C284.36,304.03,284.37,304.48,284.17,305.01z M313.93,222.9c-0.03,0.04-0.05,0.08-0.06,0.11
		c-0.02,0.03-0.04,0.06-0.06,0.1c-1.34,2.28-2.49,3.97-3.28,5.06c-0.05,0.07-0.09,0.13-0.14,0.19c0.02-0.14,0.04-0.28,0.06-0.42
		c0.69-5.26,0.36-8.23-0.99-9.04c-0.28-0.17-0.57-0.22-0.85-0.22c0.62-1.54,1.87-3.8,3.51-4.03c1.32-0.18,2.83,0.97,4.41,3.31
		c-0.81,1.69-1.68,3.33-2.59,4.9C313.94,222.88,313.93,222.89,313.93,222.9z M182.63,235.11c0.01-0.95-0.04-1.84-0.17-2.61
		l-0.08-0.46c-0.21-1.35-0.29-2.56-0.29-3.63c15.43,1.55,31.98,2.73,49.17,3.51c2.43,1.54,5.71,2.7,10.14,2.87
		c0.42,0.02,0.83,0.02,1.23,0.02c4.2,0,7.25-0.89,9.46-2.13c11.88,0.32,22.5,0.43,31.14,0.43c14.37,0,23.27-0.28,23.41-0.29
		c0.28-0.01,0.5-0.24,0.49-0.53c-0.01-0.28-0.2-0.53-0.53-0.49c-0.22,0.01-22.17,0.7-53.02-0.1c2.88-2.2,3.83-4.94,4.1-6.03
		c3.43,0.35,8.84,0.75,16.08,0.75c6.63,0,14.78-0.33,24.3-1.32c0.3-0.08,7.28-2.02,10.02-5.17c0.02-0.01,0.48-0.35,0.84-0.13
		c0.4,0.24,1.58,1.7,0.15,10.36c-0.18,1.08-0.3,2.11-0.35,3.08c-0.02,0.2-0.02,0.39-0.03,0.58
		C298.35,234.39,197.5,239.88,182.63,235.11z M213.66,223.22c3.58,0,7.29-0.09,11.02-0.29c0.31,1.25,1.47,4.94,5.06,7.88
		c-16.65-0.78-32.66-1.94-47.62-3.44c0.18-3.3,1.19-5.14,1.7-5.87C185.21,221.67,198.2,223.22,213.66,223.22z M227.03,222.78
		c0.98,1.62,6.36,9.77,15.59,9.6c0.04,0,0.08,0,0.11,0h0.05c0.02,0,0.03-0.01,0.04-0.01c8.95-0.27,11.8-5.48,12.45-7l0.03,0
		c0.36,0.05,0.77,0.1,1.23,0.15l0.14,0.02c-0.31,1.16-1.41,4.06-4.86,6.1c-0.03,0-0.06,0-0.07,0c-0.2,0-0.35,0.12-0.42,0.29
		c-2.25,1.19-5.42,2.01-9.88,1.83c-4.08-0.16-7.11-1.16-9.38-2.51c-0.07-0.2-0.27-0.35-0.5-0.35c-0.02,0-0.05,0-0.07,0
		c-4.15-2.73-5.45-6.61-5.79-8.03C226.15,222.84,226.59,222.81,227.03,222.78z M212.02,196.34c0.09,0.05,0.18,0.11,0.25,0.15
		c0.08,0.05,0.17,0.07,0.26,0.07c0.17,0,0.34-0.09,0.44-0.25c0.14-0.24,0.06-0.56-0.18-0.7c-0.24-0.14-0.48-0.29-0.72-0.45
		c0.16-2.33,0.71-3.94,0.73-3.97c0.09-0.27-0.04-0.56-0.31-0.65c-0.26-0.09-0.56,0.04-0.65,0.31c-0.05,0.13-0.54,1.56-0.76,3.66
		c-2.94-2.03-5.73-4.73-6.14-7.25c-0.19-1.18,0.13-2.24,0.98-3.23c0.81-0.94,1.58-1.35,2.31-1.19c1.73,0.36,3.1,3.69,3.48,4.94
		c0.07,0.24,0.3,0.39,0.56,0.36c0.25-0.04,0.43-0.25,0.44-0.5c0-0.07,0.05-4.99,0.29-12.59l9.53,2.43c0,0.1-0.01,0.21-0.01,0.31
		c0,4.14,0.9,8.08,7.45,8.82c0.02,0,0.04,0,0.06,0c0.05,0,0.09-0.01,0.14-0.02c4.55-1.27,7.37-3.19,7.37-8.8c0-0.04,0-0.07,0-0.11
		l10.25,0.62c0.03,1.25,0.22,5.23,1.41,8.59c-0.83,2.56-4.02,1.72-4.16,1.68c-0.27-0.07-0.55,0.09-0.63,0.36
		c-0.07,0.27,0.08,0.55,0.35,0.63c0.05,0.01,0.71,0.19,1.58,0.19c0.69,0,1.52-0.12,2.24-0.53c0.82-0.46,1.37-1.21,1.64-2.21
		c0.03-0.1,0.02-0.21-0.01-0.31c-1.15-3.13-1.36-7.03-1.4-8.34l0.89,0.05c0.01,0,0.02,0,0.03,0c0.12,0,0.22-0.04,0.3-0.11
		c0.07,3.06,0.97,5.8,6.19,5.8c3.08,0,5.46-2.34,6.19-6.1c0.03-0.14,0.05-0.28,0.07-0.42c0.07,0.04,0.15,0.06,0.23,0.06
		c0.04,0,0.08,0,0.12-0.01l4.92-1.16c0.4,2.79,0.6,5.58,0.37,7.93c-0.12,0.42-0.15,0.8-0.12,1.09c0,0.01,0.01,0.03,0.01,0.04
		c0,0.03,0.01,0.05,0.02,0.07c0.01,0.04,0.03,0.07,0.05,0.1c0.01,0.02,0.03,0.04,0.04,0.06c0.02,0.03,0.05,0.05,0.08,0.08
		c0.02,0.01,0.04,0.03,0.06,0.04c0.04,0.02,0.08,0.04,0.13,0.05c0.01,0,0.03,0.01,0.04,0.02c0,0,0.01,0,0.01,0c0,0,0,0,0.01,0
		c0,0,0.01,0,0.01,0c0.02,0,0.04,0,0.06,0c0.02,0,0.04-0.01,0.06-0.01c0.02,0,0.05-0.01,0.07-0.01c0.04-0.01,0.07-0.02,0.1-0.04
		c0.02-0.01,0.04-0.02,0.05-0.03c0.03-0.02,0.05-0.04,0.08-0.07c0.02-0.02,0.03-0.04,0.05-0.06c0.02-0.03,0.03-0.05,0.05-0.08
		c0.01-0.01,0.02-0.02,0.02-0.04c0.05-0.13,0.31-0.87,0.69-2.03c0.36-0.43,0.91-0.86,1.75-1.17c0.99-0.37,1.86-0.18,2.4,0.52
		c0.61,0.79,0.77,2.25-0.26,3.75c-1.85,2.67-5.19,3.96-5.23,3.97c0,0-0.01,0-0.01,0.01c-0.04,0.02-0.07,0.04-0.1,0.06
		c-0.02,0.01-0.05,0.03-0.06,0.04c-0.02,0.02-0.04,0.05-0.06,0.08c-0.02,0.03-0.04,0.05-0.05,0.08c-0.01,0.02-0.01,0.05-0.02,0.08
		c-0.01,0.04-0.02,0.08-0.02,0.12c0,0,0,0.01,0,0.01c0,9.51-2.64,16.91-7.84,21.99c-4.84,4.72-11.83,7.22-19.75,7.03
		c-12.5-0.3-22.01-8.83-26.37-16.05C212.46,201.44,212.01,198.64,212.02,196.34z M257.65,144.32c0.24,0.14,0.55,0.07,0.7-0.17
		c2.59-4.26,12.01-9.44,14.36-10.69c2.83,9.41-4.89,14.59-5.23,14.81c-0.21,0.13-0.29,0.4-0.19,0.62s0.34,0.35,0.58,0.3
		c7.07-1.54,15.1-8.09,17.94-10.56c-1.68,9.01-11.12,15.59-11.23,15.66c-0.21,0.14-0.28,0.42-0.17,0.64
		c0.11,0.23,0.37,0.34,0.61,0.27c3.51-1.06,7.19-3.67,8.95-5.04c-1.69,6.16-11.35,12.36-11.45,12.43c-0.18,0.11-0.27,0.32-0.23,0.53
		c0.55,2.83-0.16,7.31-1.14,11.51l-2.53,0.59c-1.04-6.42-2.98-12.41-3.11-12.79c-0.41-1.31-1.78-2.49-3.31-2.87
		c-1.37-0.33-2.63-0.01-3.55,0.91c-1.37,1.37-5.03,0.99-6.61,0.68c-0.9-1.79-3.18-3.98-3.28-4.08c-0.1-0.1-0.24-0.15-0.37-0.14
		c-0.14,0-0.27,0.07-0.36,0.17c-1.53,1.69-9.04,2.62-12.25,2.87c-1.49-2.92-6.8-4.27-6.96-4.31c-2.13-0.94-4.23-0.93-6.25,0.03
		c-4.66,2.23-7.8,9.06-9.35,13.3c0.08-1.96,0.16-4.02,0.26-6.17c0.51-11.21,3.62-12.21,12.84-15.17c2.24-0.72,4.78-1.53,7.71-2.63
		c13.33-4.99,24.1-17.69,26.59-20.8c3.25,8.57-3.03,19.22-3.14,19.4c0,0,0,0,0,0C257.33,143.86,257.41,144.17,257.65,144.32z
		 M269.25,181.56c-0.04-1.71-0.22-3.53-0.48-5.33l2.1-0.49C270.34,177.9,269.75,179.93,269.25,181.56z M261.91,172.5
		c-0.94-1.15-2.7-1.68-5.53-1.68c-3.07,0-6.16,2.08-6.33,6.68c-0.08-0.06-0.17-0.11-0.28-0.12l-12.27-0.74
		c-0.4-6.85-4.41-7.68-7.47-7.68c-3.75,0-6.86,3.25-7.41,7.48l-9.58-2.44c0.01-0.42,0.03-0.85,0.04-1.29
		c0.25-0.89,3.76-13.14,9.93-16.1c1.73-0.83,3.55-0.84,5.47,0.01c0.05,0.01,5.47,1.39,6.49,4.06c0.08,0.21,0.3,0.34,0.51,0.33
		c1.07-0.08,10.12-0.77,12.89-2.87c0.69,0.71,2.28,2.39,2.83,3.66c0.06,0.15,0.2,0.26,0.36,0.29c0.23,0.05,5.66,1.24,7.8-0.9
		c0.89-0.89,2-0.78,2.58-0.64c1.19,0.29,2.28,1.21,2.59,2.19c0.03,0.09,2.03,6.23,3.07,12.71l-4.97,1.17
		C262.86,174.91,262.75,173.53,261.91,172.5z M261.41,177.8C261.41,177.8,261.41,177.8,261.41,177.8c-0.5,2.55-2.12,5.27-5.19,5.27
		c-4.33,0-5.18-1.9-5.18-5.18c0-3.68,2.09-6.05,5.32-6.05c2.46,0,4.02,0.43,4.74,1.31C261.81,173.99,261.89,175.33,261.41,177.8z
		 M223.55,177.54c0.09-0.07,0.16-0.16,0.19-0.28c0.05-0.18-0.02-0.36-0.14-0.48c0.42-3.82,3.14-6.79,6.43-6.79
		c3.21,0,6.49,0.93,6.49,7.8c0,4.38-1.71,6.43-6.53,7.79c-5.37-0.64-6.45-3.46-6.45-7.79C223.54,177.7,223.55,177.62,223.55,177.54z
		 M231.97,219.69c2.63,0.86,5.45,1.4,8.44,1.47c0.29,0.01,0.58,0.01,0.86,0.01c2.82,0,5.52-0.34,8.06-0.99
		c-0.11,0.39-0.15,0.87-0.02,1.4c0.28,1.11,1.23,2.09,2.81,2.92c-0.87,0.77-3.49,2.36-10.28,2.36c-7.22,0-10.78-3.19-11.93-4.48
		c0.58-0.41,1.26-1.28,2.04-2.63C231.96,219.74,231.96,219.71,231.97,219.69z M241.84,227.89c7.76,0,10.46-2.05,11.26-2.91
		c0.07,0.03,0.13,0.06,0.19,0.09c0.03,0.01,0.07,0.02,0.1,0.03c0.02,0,0.3,0.05,0.83,0.13c-0.74,1.57-3.49,5.92-11.5,6.13
		c-0.02,0-0.04,0-0.06,0c-0.57-0.03-1.15-0.05-1.72-0.07c-0.01,0-0.01,0-0.02,0c-7.05-0.71-11.42-6.56-12.74-8.58l0.61-0.05
		C229.62,223.76,233.32,227.89,241.84,227.89z M181.17,219.28c0.78,0.05,1.43,0.52,1.98,1.42c-0.77,0.98-2.86,4.39-1.77,11.49
		l0.08,0.47c0.02,0.13,0.03,0.29,0.05,0.43c-1.3-1.31-4.05-4.2-7.4-8.26C176.79,221.24,179.4,219.17,181.17,219.28z M171.9,267.34
		c0.01,0,0.02,0.01,0.03,0.01c0.02,0,0.04-0.01,0.06-0.01c4.07-0.46,8.83,0.06,14.26,1.6c39.42,11.15,56.52,56.39,57.95,60.36
		c-2.15,2.35-20.94,23.46-30.29,51.87c-38.38-30.77-53.16-63.82-53.36-64.24c-4.47-6.42-9.74-30.34-1.05-42.53
		C162.42,270.33,166.56,267.97,171.9,267.34z M244.54,340.53c1.76,9.51,13.22,30.27,14.63,32.8c-0.13,0.27-0.26,0.52-0.39,0.79
		c-0.07,0.13-7.08,13.1-10.56,25.17c-3.45-1.24-23.55-8.83-31.35-20.01C222.02,370.33,233.15,352.07,244.54,340.53z M281.05,405.63
		c0,0.02,0,0.04,0,0.05c0.01,0.02,0.77,2.37-0.1,3.69c-0.35,0.53-0.92,0.82-1.75,0.89c-1.47,0.12-3.96-0.39-6.36-0.89
		c-2.55-0.53-5.01-1.04-6.86-1c5.27-2.99,10.31-6.21,15.05-9.53v6.68C281.02,405.56,281.04,405.6,281.05,405.63z M324.51,358.82
		c-0.22-0.18-0.54-0.15-0.72,0.07c0,0-0.03,0.04-0.05,0.05c-1.65-0.87-3.32-1.93-4.93-3.22c-5.33-4.3-21.27-16.52-34.35-20.12
		c-0.06-0.03-0.13-0.05-0.2-0.05c-2.26-0.61-4.43-0.96-6.45-0.96c-0.31,0-0.62,0.01-0.92,0.02c-0.17-0.92-0.44-3.17,0.82-4.54
		c0.08-0.09,0.17-0.18,0.27-0.26c0.01-0.01,0.02-0.02,0.03-0.03c1.06-0.87,2.78-1.09,5.15-0.65c0.27,0.04,26.84,4.59,48.79,32.94
		c-2.04-0.51-4.62-1.35-7.32-2.68C324.73,359.2,324.69,358.96,324.51,358.82z M283.35,328.14c-2.04-0.38-3.69-0.3-4.93,0.23
		c1.56-7.31,11.24-48.12,36.32-71.14c0.01-0.02,0.32-0.39,0.91-0.94c0.82-0.53,1.55-1.02,2.23-1.5c0.18-0.13,0.36-0.25,0.52-0.38
		c0.6-0.43,1.2-0.89,1.78-1.36c3.5-1.85,8.6-3.28,15.09-1.7c0.46,0.06,11.27,1.64,12.84,17.1c1.61,15.8-3.87,39.29-3.93,39.54
		c-0.07,0.34-7.01,33.98-8.45,54.82c-0.47-0.06-1.23-0.17-2.22-0.37C311.18,332.88,283.61,328.18,283.35,328.14z M254.49,69.06
		l0.21-0.49c-1.71-1.39-2.88-2.18-3.58-2.42c-0.13-0.05-0.31-0.1-0.49-0.09c-0.36-0.27-1.2-0.91-2.36-1.86
		c-0.01-0.01-0.02-0.02-0.04-0.03l0,0c-2.73-2.25-6.85-5.89-11.02-10.52c-2.97-3.3-5.51-6.61-7.57-9.83c0,0,0-0.01-0.01-0.01
		c-0.02-0.03-0.04-0.07-0.07-0.1c-0.01-0.02-0.05-0.08-0.06-0.1c-1.87-2.94-3.36-5.85-4.42-8.65l0,0c-0.01-0.05-0.03-0.09-0.04-0.11
		l-0.03-0.07c-0.01-0.02-0.01-0.03-0.02-0.05l0,0c-0.79-2.07-1.36-4.14-1.69-6.09c0-0.05-0.02-0.15-0.03-0.19
		c0-0.05,0-0.09-0.02-0.14c-0.36-2.11-0.46-4.16-0.32-6.15c0.05-0.79,0.13-1.53,0.27-2.34c0.01-0.03,0.01-0.07,0.02-0.1l0.01,0
		c0.2-1.23,0.53-2.5,0.96-3.79c0.01-0.02,0.01-0.03,0.02-0.05c0.52-1.52,1.21-3.03,2.05-4.47l0,0c0.01-0.02,0.02-0.04,0.03-0.06
		c0.8-1.38,1.72-2.71,2.72-3.93c0.03-0.03,0.06-0.07,0.09-0.11c1.56-1.9,3.42-3.74,5.52-5.48c0.27-0.22,0.53-0.43,0.81-0.64
		c0.45,0.43,1.35,1.33,2.37,2.65c0.01,0.03,0.06,0.1,0.09,0.13c1.08,1.39,2.08,3.01,2.88,4.67c0,0.01,0.01,0.01,0.01,0.02
		c0,0.01,0.01,0.02,0.01,0.03c1.21,2.51,1.94,5.12,2.18,7.7c0,0.03,0,0.07,0.01,0.12c0.07,0.85,0.1,1.67,0.08,2.53
		c-0.01,0.32-0.02,0.65-0.05,1.01c-0.06,0.87-0.18,1.78-0.36,2.69c-0.17,0.85-0.34,1.67-0.54,2.44c0,0.01,0,0.02-0.01,0.03
		c0,0.01,0,0.02-0.01,0.03c-0.34,1.41-0.69,2.7-1.02,3.9c-1.03,3.76-1.85,6.74-1.18,9.81c0,0.04,0,0.07,0.01,0.11
		c0.05,0.24,0.12,0.49,0.18,0.73c0.01,0.03,0.02,0.07,0.04,0.1c0.31,1.07,0.82,2.17,1.56,3.35c0.01,0.01,0.01,0.03,0.02,0.04
		l0.07,0.1c0.21,0.32,0.43,0.66,0.67,1c1.93,2.66,4.97,5.64,9.56,9.36c0.06,0.05,0.14,0.09,0.22,0.1c0.02,0,1.66,0.35,4.47,1.44
		c1.41,0.54,2.9,1.19,4.44,1.94c2.19,1.06,4.43,2.28,6.66,3.65c1.37,0.83,2.84,1.79,4.35,2.84c-2.66,2.3-6.95,5.1-13.85,7.99
		c-1.35-1.22-2.53-2.25-3.5-3.03L254.49,69.06L254.49,69.06L254.49,69.06z"/>
	<path class="st11" d="M334.23,260.03c1.45-0.37,2.59-0.13,3.48,0.72c4.95,4.75,0.61,25.78,0.57,25.99
		c-0.06,0.28,0.12,0.55,0.39,0.6c0.03,0.01,0.07,0.01,0.11,0.01c0.24,0,0.45-0.16,0.5-0.41c0.19-0.89,4.5-21.8-0.86-26.93
		c-1.15-1.1-2.65-1.43-4.44-0.98c-0.27,0.07-0.44,0.35-0.37,0.62C333.68,259.93,333.96,260.09,334.23,260.03z"/>
	<path class="st11" d="M281.15,298.07c-0.22,0.02-22.07,2.44-46.51,1.31c-0.27-0.02-0.52,0.2-0.53,0.49
		c-0.01,0.28,0.2,0.52,0.49,0.53c4.65,0.22,9.21,0.3,13.54,0.3c18.52,0,32.95-1.6,33.13-1.62c0.28-0.03,0.48-0.28,0.45-0.56
		C281.68,298.23,281.41,298.03,281.15,298.07z"/>
	<path class="st11" d="M287.21,287.24c-0.32,0.04-32.8,3.93-63.26,3.93c-0.28,0-0.51,0.23-0.51,0.51c0,0.28,0.23,0.51,0.51,0.51
		c30.52,0,63.05-3.9,63.38-3.94c0.28-0.03,0.48-0.29,0.44-0.57C287.75,287.4,287.49,287.2,287.21,287.24z"/>
	<path class="st11" d="M305.1,241.64c-0.62,0.07-62.64,6.66-121.29,1.31c-0.26-0.02-0.53,0.18-0.55,0.46
		c-0.03,0.28,0.18,0.53,0.46,0.55c16.93,1.54,34.14,2.09,50.08,2.09c39.37,0,70.97-3.36,71.41-3.41c0.28-0.03,0.48-0.28,0.45-0.56
		C305.63,241.81,305.38,241.61,305.1,241.64z"/>
	<line class="st19" x1="223.2" y1="19.8" x2="223.2" y2="19.8"/>
	<path class="st11" d="M254.08,166.23c-1.81,0.29-2.8,1.93-2.84,2c-0.14,0.24-0.06,0.55,0.18,0.7c0.08,0.05,0.17,0.07,0.26,0.07
		c0.17,0,0.34-0.09,0.44-0.25c0.01-0.01,0.79-1.3,2.13-1.51c0.93-0.15,1.94,0.26,3,1.2c0.21,0.19,0.53,0.17,0.72-0.04
		c0.19-0.21,0.17-0.53-0.04-0.72C256.62,166.52,255.32,166.03,254.08,166.23z"/>
	<path class="st11" d="M230.09,166.04c-2.58-0.09-5.13,2.42-5.24,2.52c-0.2,0.2-0.2,0.52-0.01,0.72c0.1,0.1,0.23,0.15,0.36,0.15
		c0.13,0,0.26-0.05,0.36-0.15c0.02-0.02,2.38-2.27,4.5-2.23c0.74,0.02,1.35,0.31,1.88,0.88c0.19,0.21,0.51,0.22,0.72,0.03
		c0.21-0.19,0.22-0.51,0.03-0.72C231.98,166.47,231.11,166.06,230.09,166.04z"/>
	<path class="st11" d="M244.34,207.6c0.05,0,4.9-0.44,4.9-6.96c0-0.28-0.23-0.51-0.51-0.51s-0.51,0.23-0.51,0.51
		c0,5.55-3.8,5.93-3.89,5.94c-5.21-0.26-7.21-7.94-7.67-10.07c6.1-0.55,10.71-3.08,10.91-3.19c0.25-0.14,0.34-0.45,0.2-0.69
		c-0.14-0.25-0.44-0.34-0.69-0.2c-0.05,0.03-4.92,2.68-11.06,3.11c-0.14,0.01-0.28,0.08-0.36,0.19c-0.09,0.11-0.13,0.26-0.1,0.4
		C235.61,196.58,237.43,207.26,244.34,207.6z"/>
	<path class="st11" d="M354.25,236.28c0.09,0.1,0.22,0.14,0.35,0.14c0.14,0,0.29-0.05,0.39-0.15c1.31-1.18,3.71-3.72,4.99-7.42
		c0.09-0.27-0.05-0.56-0.32-0.65c-0.26-0.09-0.56,0.05-0.65,0.32c-1.25,3.61-3.71,6.09-4.71,6.99c-0.01,0.01-0.09,0.08-0.09,0.09
		C354.03,235.8,354.06,236.08,354.25,236.28z"/>
	<path class="st11" d="M356.4,242.57c5.39-7.38,16.77-26.21,12.21-48.47c0-0.06,0-0.12-0.02-0.18c-0.01-0.04-0.03-0.07-0.04-0.1
		c-0.8-3.78-2.05-7.65-3.87-11.59c-0.1-0.22-0.34-0.34-0.57-0.28c-0.24,0.05-0.4,0.26-0.4,0.5c0,0.38,0.11,37.76-18.56,57.88
		c-0.04,0.04-0.07,0.09-0.09,0.14c-0.07,0.17-1.73,4.12,1.57,7.76c0.76,0.84,1.6,1.27,2.51,1.27c0.11,0,0.22-0.01,0.32-0.02
		c2.3-0.25,4.11-3.18,4.36-3.61c0.2-0.23,1.13-1.3,2.45-3.1C356.32,242.71,356.37,242.65,356.4,242.57z M352.94,245.31
		c-0.02,0.03-1.7,2.94-3.61,3.15c-0.68,0.07-1.33-0.22-1.96-0.92c-2.65-2.93-1.62-6.06-1.42-6.6c1-1.08,1.95-2.21,2.84-3.39
		c3.15,1.45,6.44,3.57,6.62,4.63c-1.41,1.91-2.36,2.97-2.41,3.03C352.98,245.25,352.96,245.28,352.94,245.31z M364.33,190.27
		c0.19-2.28,0.29-4.17,0.34-5.51c0.94,2.28,1.68,4.53,2.27,6.75C365.99,190.73,364.93,190.4,364.33,190.27z M367.55,194.06
		c4.47,21.33-5.99,39.5-11.47,47.21c-1.19-1.84-5.02-3.78-6.67-4.55c10.48-14.29,13.79-34.11,14.83-45.43
		C365.1,191.5,366.85,192.17,367.55,194.06z"/>
	<path class="st11" d="M346.79,108.04c0.27,0.07,0.55-0.1,0.61-0.38c0.07-0.27-0.1-0.55-0.38-0.61c-0.61-0.15-2.29-0.77-2.69-1.88
		c-0.22-0.63-0.02-1.38,0.61-2.24c0.85-0.45,1.53-0.56,2.07-0.32c1.47,0.65,2.21,3.78,3.07,7.41c0.79,3.34,1.68,7.13,3.42,10.38
		c0.09,0.17,0.27,0.27,0.45,0.27c0.07,0,0.14-0.01,0.21-0.05c0.19-0.09,4.78-2.26,6.12-10.88c0.04-0.28-0.15-0.54-0.43-0.58
		c-0.28-0.04-0.54,0.15-0.58,0.43c-1.01,6.53-4.01,9.11-5.11,9.86c-1.52-3.03-2.34-6.54-3.08-9.66c-0.96-4.06-1.71-7.26-3.65-8.11
		c-0.88-0.39-1.88-0.25-3.08,0.41c-0.06,0.03-0.12,0.08-0.16,0.14c-0.9,1.18-1.18,2.29-0.82,3.28
		C344.04,107.37,346.68,108.02,346.79,108.04z"/>
	<path class="st11" d="M354.2,101.12c0.09,0.08,0.21,0.13,0.34,0.13c0.01,0,0.02,0,0.04,0c0.14-0.01,0.26-0.08,0.35-0.18l4.6-5.46
		c1.62,1.92,3.41,3.87,5.25,5.51c0.1,0.09,0.22,0.13,0.34,0.13c0.14,0,0.28-0.06,0.38-0.17c0.19-0.21,0.17-0.53-0.04-0.72
		c-5.95-5.3-11.5-13.92-11.56-14c-0.15-0.24-0.47-0.31-0.7-0.15c-0.24,0.15-0.31,0.47-0.15,0.71c0.04,0.06,2.46,3.81,5.82,7.91
		l-4.37,5.18c-1.89-1.93-4.08-6.02-4.1-6.06c-0.13-0.25-0.44-0.34-0.69-0.21c-0.25,0.13-0.34,0.44-0.21,0.69
		C349.59,94.62,352.1,99.28,354.2,101.12z"/>
	<path class="st11" d="M138.9,258.65C138.9,258.65,138.9,258.65,138.9,258.65c0.01-0.01,0.01-0.03,0.02-0.04
		c0.02-0.04,0.05-0.07,0.06-0.12c0-0.01,0.01-0.02,0.01-0.03c0,0,0,0,0,0c0.67-2.16,1.5-16.84,1.54-17.54c0,0,0,0,0,0
		c0,0,0-0.01,0-0.01c0,0,0-0.01,0-0.01c0-0.07-0.02-0.15-0.05-0.22c0-0.01,0-0.02-0.01-0.03l-26.47-51.95
		c-0.08-0.15-0.23-0.26-0.4-0.28c-0.17-0.02-0.34,0.05-0.45,0.18c-4.25,5.1-22.39,13.67-22.57,13.75c-0.25,0.12-0.36,0.41-0.25,0.67
		c8.53,19.53,16.14,35.5,19.02,41.46c0.74,1.54,1.26,3.17,1.56,4.86c1.42,8.24,7.58,21.3,7.65,21.43c0.06,0.13,0.18,0.23,0.32,0.27
		c0.05,0.01,0.09,0.02,0.14,0.02c0.09,0,0.19-0.03,0.27-0.08l19.47-12.23C138.82,258.74,138.86,258.7,138.9,258.65z M131.76,244.03
		c2.93,0.91,6.15-0.97,7.69-2.06c-0.26,4.35-0.82,12.66-1.28,15.45C132.3,252.61,131.76,246.14,131.76,244.03z M135.05,243.01
		c-0.64,0.17-1.31,0.26-1.96,0.22c-0.54-0.03-1.08-0.15-1.59-0.4c-0.15-0.07-0.33-0.07-0.47,0.01c-0.15,0.08-0.24,0.23-0.26,0.4
		c-0.01,0.09-0.74,8.89,6.86,15.04l-18.38,11.54c-1.15-2.5-6.08-13.47-7.32-20.65c-0.31-1.78-0.86-3.51-1.64-5.13
		c-2.85-5.91-10.37-21.67-18.81-40.98c2.8-1.34,17.25-8.37,21.96-13.24l25.94,50.91C138.7,241.27,136.98,242.49,135.05,243.01z"/>
	<path class="st11" d="M103.06,209.77c-0.21-0.18-0.54-0.16-0.72,0.05c-0.18,0.21-0.16,0.54,0.05,0.72
		c0.43,0.37,1.03,0.53,1.75,0.53c3.6,0,9.99-3.96,10.84-4.5c0.24-0.15,0.31-0.47,0.16-0.7c-0.15-0.24-0.47-0.31-0.7-0.16
		C110.85,207.97,104.59,211.08,103.06,209.77z"/>
	<path class="st11" d="M108.26,222.03c0.09,0.18,0.27,0.28,0.45,0.28c0.08,0,0.16-0.02,0.23-0.06l8.86-4.51
		c0.25-0.13,0.35-0.44,0.22-0.69c-0.13-0.25-0.44-0.35-0.69-0.22l-8.86,4.51C108.24,221.48,108.14,221.78,108.26,222.03z"/>
	<path class="st11" d="M116.7,234.07c0.09,0.19,0.27,0.3,0.46,0.3c0.07,0,0.14-0.01,0.21-0.05l5.58-2.54
		c0.26-0.12,0.37-0.42,0.25-0.68c-0.12-0.26-0.42-0.37-0.68-0.25l-5.58,2.54C116.7,233.51,116.59,233.81,116.7,234.07z"/>
	<path class="st11" d="M93.49,162.1c0.19-0.04,3.66-0.9,8.69-7.59c-0.15,1.92,0.25,3.56,1.2,4.92c1.22,1.74,3.18,2.73,5.35,2.64
		c2.34-0.07,4.46-1.3,5.69-3.3c1.97-3.2,2.75-6.4,2.27-9.23c-1.03-6.05-0.03-12.74,0.14-13.79c9.26-10.28,21.81-29.94,21.93-30.14
		c0.11-0.18,0.11-0.41-0.02-0.58c-0.12-0.17-0.34-0.25-0.54-0.19c-1.49,0.4-3.13,1.39-4.79,2.7c2.36-3.82,3.06-5.99,3.11-6.16
		c0.06-0.2,0-0.42-0.17-0.55c-0.16-0.13-0.39-0.15-0.57-0.04c-0.57,0.33-13.97,8.12-17.69,15.68c-1.02,0.68-7.63,5.15-10.3,9.43
		c-0.04,0.05-0.07,0.1-0.1,0.16c-0.56,0.93-0.93,1.84-1.01,2.7c-2.73,1.05-20.68,8.41-20.52,20.38c0.17,12.82,6.95,12.97,7.24,12.97
		C93.42,162.11,93.46,162.11,93.49,162.1z M107.67,129.12c0-0.4,0.09-0.82,0.25-1.26c1.7,10.98-1.35,17.7-1.37,17.75
		c-7.08,13.26-12.64,15.29-13.22,15.48c-0.68-0.04-6.01-0.72-6.16-11.96c-0.16-11.96,19.97-19.45,20.17-19.53
		C107.54,129.53,107.67,129.33,107.67,129.12z M121.66,122.23c4.25-4.42,7.33-8.24,9.54-11.36c1.97-1.93,4.01-3.6,5.85-4.5
		c-2.81,4.33-12.12,18.43-19.74,27.28C118.07,130.62,119.68,124.88,121.66,122.23z M130.37,110.24c-3.18,3.11-6.12,6.8-7.88,9.12
		c-0.02-0.11-0.03-0.23-0.07-0.34c-0.53-1.43-2.25-2.2-3.2-2.52c3.15-5.81,12.33-11.91,15.75-14.04
		C134.3,103.96,132.93,106.62,130.37,110.24z M118.57,117.37c0.82,0.23,2.49,0.89,2.9,2c0.23,0.63,0.03,1.38-0.61,2.22
		c0,0-0.01,0.01-0.01,0.02c0,0,0,0,0,0c-2.88,3.85-4.92,13.4-5,13.8c0,0,0,0.01,0,0.01c0,0,0,0,0,0.01
		c-0.05,0.31-1.31,7.55-0.17,14.28c0.45,2.62-0.27,5.49-2.13,8.52c-1.04,1.7-2.86,2.75-4.85,2.81c-1.86,0.06-3.46-0.75-4.49-2.21
		c-1.12-1.59-1.34-3.69-0.66-6.25c1.23-1.81,2.54-3.96,3.91-6.52c0.14-0.31,3.47-7.61,1.24-19.72
		C110.9,122.93,116.08,119.02,118.57,117.37z"/>
	<path class="st11" d="M109.32,147.46c-2.22,3.1-1.06,7.94-1.01,8.14c0.05,0.22,0.25,0.38,0.47,0.39c0.15,0.01,0.29,0.01,0.43,0.01
		c1.83,0,3.25-0.6,4.23-1.78c2.47-2.98,1.16-8.58,1.11-8.81c-0.06-0.24-0.29-0.42-0.54-0.39
		C111.92,145.2,110.34,146.02,109.32,147.46z M113.64,146.08c0.24,1.33,0.79,5.34-0.99,7.49c-0.77,0.93-1.93,1.4-3.43,1.41
		c-0.21-1.15-0.69-4.67,0.93-6.93C110.92,146.97,112.1,146.31,113.64,146.08z"/>
	<path class="st11" d="M93.87,150.3c0.04,0,0.07,0,0.11-0.01c3.74-0.82,6.32-2.53,7.64-5.08c2.17-4.17,0.19-9.03,0.1-9.24
		c-0.09-0.22-0.32-0.35-0.56-0.31c-3.16,0.57-5.46,2-6.84,4.25c-2.6,4.23-1,9.78-0.93,10.01C93.45,150.15,93.65,150.3,93.87,150.3z
		 M95.19,140.45c1.16-1.89,3.09-3.13,5.73-3.7c0.4,1.19,1.41,4.86-0.21,7.98c-1.12,2.16-3.3,3.65-6.47,4.44
		C93.94,147.79,93.24,143.62,95.19,140.45z"/>
	<path class="st11" d="M255.58,176.46c-0.19,1.1,0.24,2.1,0.97,2.23c0.73,0.13,1.48-0.66,1.67-1.76c0.19-1.1-0.24-2.1-0.97-2.23
		C256.52,174.57,255.78,175.36,255.58,176.46z"/>
	<path class="st11" d="M230.61,179.5c0.73,0.13,1.48-0.66,1.67-1.76c0.19-1.1-0.24-2.1-0.97-2.22c-0.73-0.13-1.48,0.66-1.67,1.76
		C229.44,178.38,229.88,179.38,230.61,179.5z"/>
	<polygon class="st1" points="139.41,309.93 135.47,311.08 129.16,303.95 131.8,312.61 128.85,317.96 135.84,318.02 140.7,322.7 
		138.63,315.95 	"/>
	<path class="st11" d="M140.63,308.51l-4.83,1.41l-8.98-10.16l3.87,12.74l-3.56,6.47l8.29,0.07l7.41,7.13l-3.17-10.31L140.63,308.51
		z M135.84,318.02l-6.99-0.06l2.95-5.35l-2.63-8.66l6.3,7.13l3.95-1.16l-0.79,6.02l2.08,6.75L135.84,318.02z"/>
	<path class="st11" d="M153.99,53.75c0.69,0.06,1.2,0.37,1.57,0.95c0.42,0.66,0.58,1.16,0.45,1.49c-0.24,0.65-1.69,1.07-3.37,1.55
		c-3.85,1.11-9.66,2.8-13.29,9.68l0.9,0.48c3.43-6.5,8.99-8.11,12.67-9.18c2.1-0.61,3.62-1.05,4.04-2.17
		c0.25-0.66,0.07-1.42-0.55-2.4c-0.55-0.85-1.33-1.33-2.34-1.41c-5.24-0.43-15.32,10.5-15.74,10.97l0.75,0.69
		C141.89,61.32,150.05,53.43,153.99,53.75z"/>
	<path class="st11" d="M156.86,80.44c0.06-0.04,6.26-4.28,12.37-4.28c6.53,0,12.73-8.38,12.99-8.74l-0.82-0.6
		c-0.06,0.08-6.15,8.32-12.16,8.32c-6.43,0-12.68,4.28-12.95,4.47L156.86,80.44z"/>
	<path class="st11" d="M72.16,181.21c-1.54,0-2.75,1.81-2.75,4.12c0,2.31,1.21,4.12,2.75,4.12c1.54,0,2.75-1.81,2.75-4.12
		C74.92,183.02,73.71,181.21,72.16,181.21z M72.16,188.43c-0.94,0-1.73-1.42-1.73-3.1c0-1.68,0.79-3.1,1.73-3.1
		c0.94,0,1.73,1.42,1.73,3.1C73.9,187.01,73.1,188.43,72.16,188.43z"/>
	<path class="st11" d="M379.8,297.66c-0.05-0.28-0.32-0.46-0.59-0.41c-0.28,0.05-0.46,0.31-0.41,0.59
		c0.06,0.32,5.3,31.17-12.21,39.53c12.85-23.45,11.44-31.21,10.3-37.46c-0.07-0.37-0.13-0.74-0.2-1.1
		c-0.05-0.28-0.32-0.46-0.59-0.42c-0.28,0.05-0.46,0.31-0.42,0.59c0.06,0.37,0.13,0.74,0.2,1.11c1.12,6.16,2.52,13.82-10.6,37.52
		c-0.15,0.28-0.11,0.62,0.1,0.85c0.14,0.16,0.34,0.24,0.54,0.24c0.1,0,0.19-0.02,0.29-0.06
		C385.39,330.53,379.86,297.99,379.8,297.66z"/>
</g>
</svg>
