<?xml version="1.0" encoding="utf-8"?>
<!-- Generator: Adobe Illustrator 27.1.0, SVG Export Plug-In . SVG Version: 6.00 Build 0)  -->
<svg version="1.1" id="Capa_1" xmlns="http://www.w3.org/2000/svg" xmlns:xlink="http://www.w3.org/1999/xlink" x="0px" y="0px"
	 width="450px" height="450px" viewBox="0 0 450 450" style="enable-background:new 0 0 450 450;" xml:space="preserve">
<style type="text/css">
	.st0{fill:none;}
	.st1{fill:#FFFFFF;}
	.st2{fill:#F2B705;}
	.st3{fill:#040423;}
	.st4{fill:#8C1F33;}
	.st5{fill:#5BA566;}
	.st6{fill:#F2E3CC;}
	.st7{fill:#F15A24;}
	.st8{fill:#400101;}
	.st9{fill:#FCFCFC;}
	.st10{fill:#122B05;}
	.st11{fill:#472FAD;}
	.st12{fill:#A64F03;}
	.st13{fill:#D98E04;}
	.st14{fill:#F2F2F2;}
	.st15{fill:#2FD812;}
	.st16{fill:#AA8D30;}
	.st17{fill:#B0EAB7;}
	.st18{fill:#111147;}
	.st19{fill:none;stroke:#472FAD;stroke-width:0;stroke-linecap:round;stroke-linejoin:round;}
	.st20{fill:#F2B705;stroke:#472FAD;stroke-miterlimit:10;}
	.st21{fill:#231A56;}
	.st22{fill:#EA0070;}
	.st23{fill:#158035;}
	.st24{fill:#F9B331;}
	.st25{opacity:0.4;}
	.st26{fill:#0F0E0D;}
	.st27{fill:#E0245E;}
	.st28{fill:#050535;}
	.st29{fill:#F2EBDF;}
</style>
<g>
	<path class="st0" d="M250.39,306.97c-0.15,0.03-0.3,0.06-0.44,0.05c-0.07,0-0.26,0.06-0.19-0.03c0.02-0.04,0.28-0.27,0.53-0.42
		c-3.44-1.47-36.85-20.96-41.38-23.43l0.57,11.43c0.29,3.98,0.77,7.95,1.27,11.91c1.58,11.87,3.38,23.76,6,35.45
		c0.11,0.46,0.21,0.92,0.31,1.37c1.48-0.61,2.99-1.14,4.55-1.55c0.05-0.01,0.09-0.02,0.14-0.02c0.02-0.1,0.04-0.18,0.06-0.2
		c0.06-0.13,0.2,0.04,0.31,0.08c0.06,0.02,0.11,0.05,0.17,0.08l0.04-0.04c0.01-0.01,0.02-0.01,0.03-0.02l12.33-13.24
		c3.59-3.86,8.85-9.23,12.57-13.06c0.04-0.04,0.08-0.06,0.13-0.08l-2.25-3.55c0,0,2.69-1.88,5.31-4.64
		c-0.01-0.02-0.02-0.03-0.03-0.05C250.39,306.99,250.4,306.98,250.39,306.97z"/>
	<path class="st0" d="M220.84,388.41c0.02,0.04,0.03,0.08,0.05,0.12c0.02-0.01,0.04-0.02,0.06-0.04l-0.05-0.15
		C220.88,388.36,220.86,388.39,220.84,388.41z"/>
	<path class="st6" d="M213.85,36.6c0.31-3.54,1.85-6.84,3.41-9.98c3.2-6.3,7.12-12.22,11.25-17.95c1.19-1.62,2.39-3.22,3.62-4.81
		c-4.36,2.86-8.68,5.79-12.93,8.79c-5.26,3.91-11,7.64-15.09,12.81l-0.07,13c0,0.08-0.02,0.16-0.06,0.23l-11.01,21.67
		c4.79,0.13,10.55,0.27,14.81,0.56c0,0,1.41,0.09,2.63,0.16c0.03-1.91,0.22-3.8,0.42-5.68C211.59,49.1,212.66,42.83,213.85,36.6z"/>
	<path class="st11" d="M192.98,60.36l11.01-21.67c0.03-0.07,0.06-0.15,0.06-0.23l0.07-13c4.09-5.17,9.83-8.89,15.09-12.81
		c4.25-3.01,8.57-5.93,12.93-8.79c-1.23,1.59-2.43,3.19-3.62,4.81c-4.13,5.73-8.05,11.64-11.25,17.95c-1.56,3.14-3.1,6.44-3.41,9.98
		c-1.18,6.23-2.26,12.5-3.01,18.8c-0.21,1.89-0.39,3.78-0.42,5.68c0.14,0.01,0.28,0.02,0.42,0.03c0.12-8.24,1.68-16.4,3.16-24.49
		c0.38-3.51,1.98-6.74,3.6-9.82c3.41-6.15,7.62-11.82,11.91-17.37c2.14-2.78,4.36-5.52,6.62-8.19c0.56-0.65-0.28-1.54-0.97-1.11
		c-5.72,3.61-11.33,7.38-16.81,11.35c-4.09,3.02-8.18,6.07-11.88,9.57c-1.25,1.16-2.42,2.43-3.45,3.89c-0.06,0.09-0.1,0.2-0.09,0.32
		L203,38.34c-0.11,0.22-10.53,21.3-10.88,22C192.41,60.34,192.69,60.35,192.98,60.36z"/>
	<path class="st1" d="M186.8,68.25c1.29,0.01,2.59,0.02,3.89,0.04c-1.03-0.02-2.05-0.04-3.06-0.05l3.14-6.66
		c5.08,0.28,12.05,0.68,16.97,0.77l4.34,0.08c0,0,0.54,0.01,0.54,0.01c4.99,0.59,6.26,4.06,4.96,8.55c-0.01,0-0.02,0-0.03,0.01
		c0.02,0.04,0.03,0.08,0.04,0.12c0.04-0.01,0.07-0.01,0.11-0.02c2.37-4.97,0.09-9.51-5.54-9.9c0,0-0.58-0.04-1.31-0.08
		c-0.13-0.01-0.27-0.02-0.42-0.03c-1.22-0.08-2.63-0.16-2.63-0.16c-4.26-0.29-10.02-0.43-14.81-0.56c-0.29-0.01-0.57-0.02-0.86-0.02
		c-0.6-0.02-1.18-0.03-1.74-0.05c-0.24-0.01-0.47,0.13-0.58,0.37l-3.47,7.87c-0.01,0.03-0.01,0.05-0.01,0.08
		c0.01-0.02,0.02-0.04,0.03-0.07C186.43,68.36,186.61,68.25,186.8,68.25z"/>
	<path class="st13" d="M167.98,139.3c-0.05,0.01,0.07,0.03,0.09-0.05c0-0.02,0-0.02,0-0.02
		C168.06,139.25,168.04,139.28,167.98,139.3z"/>
	<path class="st13" d="M244.95,189.43c-0.01,0-0.01,0.01,0.01,0.04C244.95,189.45,244.95,189.44,244.95,189.43z"/>
	<path class="st13" d="M180.01,166.12c-0.01,0-0.01,0-0.02,0c0,0,0,0,0,0C180.04,166.12,180.01,166.12,180.01,166.12z"/>
	<path class="st13" d="M185.76,155.89c0.13-0.05,0.07-0.03,0.1-0.05c-0.04,0.01-0.08,0.03-0.11,0.05
		C185.75,155.89,185.76,155.89,185.76,155.89z"/>
	<path class="st13" d="M202.02,69.8c-4.87-0.5-9.98-0.55-14.89-0.56c-4.82,10.7-9.54,21.44-14.07,32.27
		c-4.43,10.91-9.23,21.82-12.19,33.24c-2.37,11.51-3.74,23.36-3.29,35.12c0.28,10.47,2.87,22.05,7.55,31.01
		c0.02,0.03,0.04,0.05,0.06,0.08c0,0,1.18,2.07,1.39,2.44c0.27,0.24,0.56,0.48,0.84,0.71c0.46,0.38,1.01,0.83,1.57,1.28
		c0.32,0.25,0.64,0.5,0.97,0.74c0.12,0.09,0.24,0.17,0.35,0.25c1.33,0.97,2.69,1.9,4.08,2.79c0.02,0.01,0.03,0.03,0.05,0.04
		c1.16,0.74,2.33,1.45,3.52,2.15c0.26,0.15,0.53,0.3,0.79,0.45c0.72,0.41,1.44,0.8,2.17,1.2c8.31,4.47,17.21,7.88,26.28,10.47
		c6.39,1.87,13.07,3.27,19.79,4.3c-1.81-0.77-3.36-1.91-4.1-3.71c-0.03-1.15-0.02-2.3,0.02-3.44l-13.05-7.12l-3.39-1.85
		c-1.02-0.63-2.66-1.22-3.37-2.27c-1.89-2.29-0.47-5.98,0.68-7.75c0,0,10.64-28.34,10.64-28.34c0.31-0.81,1.57-0.53,1.46,0.35
		c-0.11,0.94-0.21,1.88-0.31,2.83c-0.14,1.32-0.26,2.64-0.39,3.97c-0.05,0.56-0.1,1.11-0.14,1.67c-0.5,6.12-0.86,12.29-0.54,18.41
		c3.91,1.92,7.78,3.89,11.67,5.84c1.91-3.4,5.22-5.91,9.3-4.95c0.1,0.02,0.21,0.03,0.31,0.05l0.03-0.12l-0.28-0.06
		c0.32-1.49,3.8-4.43,29.12,0.5l-0.14,0.73c-26.57-5.17-28.16-1.5-28.25-1.07l-0.29-0.06c0,0,0,0.01,0,0.01c0,0,0,0,0,0l0,0.02
		c0,0.02,0,0.04-0.01,0.06c0,0.02,0,0.06,0,0.08c-0.01,0.02,0.02-0.05-0.01,0.07c0,0.01-0.03,0.01-0.04,0.01
		c-0.05,0.29-0.1,0.6-0.15,0.92c-0.39,2.65-0.89,6.04-1.11,8.44c-0.22,2.49-0.44,6.37-0.49,8.94c-0.13,2.94-0.15,5.88-0.06,8.82
		c2.84,0.33,5.68,0.61,8.49,0.82c0.03,0,0.06,0.01,0.1,0.02c0.99,0.1,1.93,0.2,2.87,0.32c10.53,1.21,21.28,2.28,31.87,2.61
		c3.87,0.1,7.75,0.16,11.6-0.18c2.16-0.32,3.56-2.45,4.36-4.34c0.86-2,1.23-4.29,1.49-6.45c-0.42-2.35-1.09-5.11-1.93-7.53
		c-2.51-7.4-6.63-14.39-12.46-19.65c-12.18-10.6-22.9-22.81-35.65-32.75c-4.16-3.21-8.47-6.21-12.88-9.07
		c-0.11,0.04-0.23,0.03-0.34,0c0,0,0.1,0.02,0.1,0.02c-7.96-0.22-16.11-1.88-22.87-6.31c-0.21-0.14-0.27-0.4-0.17-0.62l4.53-9.59
		c-4.1-3.02-6.92-7.63-7.91-12.61c-0.47-6.48-0.7-12.96-0.53-19.47c-0.1,0-0.19-0.01-0.29-0.01c-0.05,0-0.02,0.01-0.13,0
		c-0.3,0-0.5-0.26-0.56-0.49c-0.28-1.91,0.39-3.72,0.85-5.52c2.05-6.55,5.49-13.06,11.23-17.07l0.82-9.15
		C211.68,72.38,206.94,70.17,202.02,69.8z M206.84,218.89c0.19-0.57,0.29-1.1,0.09-1.73c-0.02-0.07,0.07-0.13,0.13-0.08
		c0.48,0.4,0.75,1.22,0.77,1.85c0.03,0.17,0.07,0.13,0.14,0.17c0.72,0.15,1.37,0.54,1.8,1.37c0.03,0.05,0.01,0.11-0.04,0.14
		c-1.1,0.48-1.93,0.26-2.66-0.75C206.84,219.61,206.77,219.14,206.84,218.89z M292,219.48c0.01-0.09,0.16-0.07,0.15,0.02
		c-0.18,5.04-4.21,11.74-10.03,9.42c-0.07-0.03-0.06-0.14,0.01-0.15C287.81,227.66,290.56,225.1,292,219.48z M285.55,212.19
		c0-0.07,0.11-0.1,0.15-0.03c0.48,0.82,0.64,1.92,1.27,2.6c0.1,0.09,0.14,0.12,0.19,0.21c0.08,0.2,0.39,0.46,0.72,0.92
		c0.03,0.05,0.02,0.11-0.02,0.15c-0.64,0.55-1.88,0.32-2.16-0.56C285.36,214.37,285.48,213.31,285.55,212.19z M280.58,221.39
		c0.58-0.41,1.3-0.7,2.05-0.44c0.39,0.13,0.82,0.28,0.94,0.54c0.14,0.26,0.12,0.47,0.28,0.95c0.02,0.05,0,0.11-0.04,0.14
		c-0.43,0.32-0.95,0.15-1.24,0c-0.32-0.15-0.33-0.43-0.48-0.58c-0.34-0.36-0.95-0.43-1.48-0.48
		C280.55,221.52,280.52,221.43,280.58,221.39z M243.92,223.17c-0.57,0.03-0.84,0.11-1.17,0.14c-0.58-0.03-1.17-0.3-2.23-0.31
		c0,0-1.24-0.1-1.24-0.1c-0.08,0-0.1-0.12-0.03-0.15c0.77-0.36,1.55-0.67,2.4-0.84c0.42-0.08,0.9-0.27,1.39-0.06
		c0.47,0.18,0.97,0.61,0.98,1.21C244.03,223.13,243.98,223.17,243.92,223.17z M247.14,211.69c-0.01,0.04-0.06,0.06-0.1,0.05
		c-0.53-0.68-1.14-1.29-1.71-1.58c-0.11-0.1-0.63-0.23-0.55-0.28c0.04-0.04-0.03-0.05-0.13,0.06c-0.27,0.31-0.42,0.75-0.75,1.11
		c-0.63,0.79-1.78,0.39-2.38-0.2c-0.4-0.39-0.51-0.93-0.56-1.35c-0.06-0.44-0.08-0.85-0.15-1.28c-0.01-0.08,0.11-0.12,0.14-0.04
		c0.48,0.99,0.49,2.11,1.53,2.31c0.32,0.06,0.42,0.13,0.58-0.12c0.38-0.67,0.39-1.52,1.32-1.89
		C246.16,208.06,247.58,210.11,247.14,211.69z M250.82,203.15c-0.02,0.05-0.08,0.07-0.13,0.05c-0.51-0.27-0.85-0.54-1.03-0.54
		c-0.08-0.02-0.1-0.01-0.2-0.08c-0.55-0.24-1.24-0.03-1.89-0.31c-0.48-0.19-0.86-0.52-1.09-0.91c-0.04-0.06,0.04-0.15,0.1-0.11
		c1.05,0.64,1.91-0.01,3.03-0.14c0.65-0.07,1.35,0.59,1.35,1.22C251.01,202.61,250.93,202.88,250.82,203.15z M254.94,212.89
		c-0.04,0.04-0.1,0.05-0.15,0.02c-0.46-0.33-0.67-0.67-0.85-0.96c-0.19-0.29-0.11-0.61-0.24-0.91c-0.12-0.29-0.32-0.58-0.56-0.88
		c-0.22-0.31-0.49-0.6-0.74-0.92c-0.03-0.03-0.02-0.08,0.01-0.11c0.02-0.02,0.05-0.02,0.07-0.01c1.14,0.39,2.65,1.13,2.88,2.45
		C255.39,212.02,255.29,212.45,254.94,212.89z M260.15,217.4c-0.22,0.17-0.46,0.46-0.91,0.84c-0.04,0.04-0.11,0.03-0.14-0.01
		c-0.37-0.46-0.44-1.03-0.22-1.6c0.21-0.56,0.84-0.83,1.36-0.96c0.91-0.29,1.73-0.03,2.57-0.39c0.07-0.03,0.14,0.05,0.09,0.11
		c-0.51,0.71-1.54,0.92-2.19,1.37C260.44,216.93,260.39,217.22,260.15,217.4z M278.13,206.55c-0.71,0.85-1.68,1.91-2.37,2.66
		c-0.1,0.07-0.13-0.13-0.22-0.01c-0.08,0.11-0.08,0.39-0.17,0.66c-0.02,0.05-0.07,0.09-0.13,0.07c-0.78-0.14-1.09-0.95-0.67-1.61
		c0.32-0.57,0.78-0.63,1.16-0.85c0.75-0.41,1.52-0.74,2.31-1.05C278.12,206.4,278.18,206.49,278.13,206.55z M272.18,198.91
		c0.08-0.6,0.78-1.04,1.29-1.08c0.88-0.09,1.45-0.05,2.25-0.37c0.07-0.03,0.13,0.06,0.09,0.12c-0.42,0.64-1.34,1.12-1.97,1.38
		c-0.12,0.08-0.16,0.16-0.14,0.23c-0.11,0.32-0.54,0.78-1,1.12c-0.05,0.03-0.11,0.02-0.14-0.02
		C272.21,199.85,272.09,199.42,272.18,198.91z M272.04,210.54c0.79,0.14,1.56,0.42,2.22,0.89c0.34,0.24,0.78,0.45,0.93,0.89
		c0.15,0.42,0.21,0.93-0.11,1.41c-0.03,0.05-0.1,0.05-0.15,0.02c-0.9-0.47-1.1-0.63-1.49-1.47c-0.41-0.58-0.93-1.11-1.47-1.62
		C271.92,210.63,271.97,210.53,272.04,210.54z M265.83,194.79c0.37-0.48,0.94-0.47,1.34-0.53c0.85-0.13,1.6,0.02,2.38,0.03
		c0.07,0,0.1,0.11,0.04,0.14c-0.65,0.39-1.43,0.64-2.09,0.97c-0.32,0.16-0.48,0.45-0.68,0.49c-0.2,0.05-0.44,0.09-0.86,0.47
		c-0.04,0.04-0.11,0.04-0.15,0C265.39,195.97,265.44,195.23,265.83,194.79z M264.99,225.57c-0.6,0.53-1.53,0.54-1.97-0.15
		c-0.39-0.6-0.12-1.17-0.03-1.67c-0.04-0.2-0.4-0.38-0.69-0.56c-0.07-0.03-0.05-0.14,0.02-0.15c0.42-0.04,0.79-0.08,1.2,0.18
		c0.41,0.25,0.41,0.89,0.49,1.23c0.04,0.09,0.11,0.06,0.14,0.02c0.04-0.03,0.07,0,0.16,0.08c0.23,0.25,0.5,0.49,0.71,0.87
		C265.04,225.48,265.03,225.53,264.99,225.57z M256.16,191.58c-0.43,0.45-1.01,0.87-1.41,1.3c-0.19,0.21-0.15,0.46-0.31,0.53
		c-0.16,0.1-0.36,0.28-0.75,0.61c-0.04,0.04-0.1,0.04-0.15,0.01c-0.63-0.41-0.64-1.42-0.03-1.84c0.8-0.52,1.68-0.63,2.58-0.74
		C256.16,191.44,256.21,191.53,256.16,191.58z M257,180.59c0.06,0.02,0.08,0.09,0.04,0.14c-0.47,0.99-0.94,1.45-1.83,1.94
		c-0.71,0.56-1.36,1.2-1.99,1.88c-0.05,0.06-0.15,0-0.13-0.07c0.27-0.93,0.67-1.83,1.25-2.62
		C254.87,180.92,255.82,180.21,257,180.59z M249.63,173.49c0.74,0.38,1.45,0.79,2.14,1.25c0.34,0.23,0.77,0.35,1,0.71
		c0.23,0.35,0.42,0.73,0.45,1.31c0,0.06-0.04,0.11-0.1,0.11c-0.57,0.03-0.98-0.12-1.35-0.32c-0.37-0.19-0.54-0.61-0.8-0.93
		c-0.52-0.64-1-1.32-1.44-2.01C249.49,173.54,249.56,173.46,249.63,173.49z M244.51,189.35c0.03-0.1,0.16-0.15,0.21-0.15
		c0.2-0.01,0.34,0.08,0.52,0.14c0.68,0.29,1.34,0.65,1.96,1.02c0.5,0.29,1.08,0.49,1.47,0.93c0.4,0.43,0.76,0.91,0.95,1.59
		c0.01,0.05-0.01,0.1-0.06,0.11c-0.71-0.01-1.28-0.26-1.8-0.52c-0.52-0.26-0.86-0.76-1.28-1.15l-1.2-1.12
		c-0.02,0.01-0.05,0.01-0.07,0c-0.25-0.2-0.57-0.35-0.72-0.66C244.5,189.49,244.47,189.48,244.51,189.35z M223.64,189.22
		c-0.17,0.23-0.08,0.47-0.26,0.66c-0.18,0.2-0.37,0.5-0.81,0.83c-0.04,0.03-0.1,0.03-0.14-0.01c-0.38-0.38-0.52-0.82-0.46-1.3
		c0.04-0.49,0.52-0.88,0.92-1.11c0.74-0.44,1.38-0.35,2.03-0.86c0.06-0.05,0.14,0.02,0.12,0.08
		C224.87,188.21,224.03,188.75,223.64,189.22z M229.74,195.73c-0.34,0.2-0.76,0.48-0.72,0.38c-0.13-0.17-0.53,0.19-0.81,0.27
		c-0.05,0.02-0.11,0.01-0.14-0.04c-0.33-0.47-0.37-0.99,0.1-1.44c0.44-0.38,0.73-0.24,1.14-0.27c0.59-0.08,1.18-0.37,1.74-0.65
		c0.06-0.04,0.14,0.04,0.11,0.1C230.84,194.73,230.41,195.34,229.74,195.73z M231.17,176.85c-0.4,1.3-1.8,2.5-2.89,3.05
		c-0.07,0.02-0.15-0.01-0.28,0.12c-0.11,0.14-0.23,0.36-0.4,0.63c-0.03,0.05-0.1,0.06-0.14,0.02c-0.59-0.43-0.69-1.32-0.15-1.89
		c0.55-0.56,1.06-0.47,1.47-0.62c0.87-0.28,1.6-0.77,2.28-1.4C231.11,176.71,231.2,176.78,231.17,176.85z M237.56,191.59
		c-0.58,0.22-0.73,0.62-0.76,1.18c-0.02,0.26,0.12,0.55-0.03,0.82c-0.15,0.26-0.34,0.61-0.84,0.81c-0.05,0.02-0.1,0-0.12-0.03
		c-0.31-0.38-0.46-0.67-0.5-1.01c-0.06-0.33,0.2-0.65,0.38-0.97c0.29-0.66,1.18-1.24,1.89-0.94
		C237.63,191.46,237.63,191.56,237.56,191.59z M239.11,182.63c0.03,0.15,0.31,0.4,0.62,0.83c0.03,0.04,0.02,0.11-0.02,0.14
		c-0.2,0.18-0.41,0.31-0.66,0.35c-0.52,0.15-1.26-0.26-1.38-0.81c-0.1-0.38-0.01-0.57-0.14-0.81c-0.29-0.35-0.85-0.4-1.31-0.54
		c-0.07-0.01-0.08-0.12-0.01-0.15c0.78-0.34,2-0.48,2.47,0.44c0.13,0.22,0.23,0.36,0.32,0.43
		C239.09,182.58,239.09,182.57,239.11,182.63z M236.24,165.62c0.81-0.26,1.94-0.61,2.71-0.97c0.07-0.04,0.14,0.06,0.09,0.12
		c-0.8,1.02-2.28,1.87-3.18,2.66c-0.08,0.06-0.2,0.04-0.29,0.17c-0.15,0.18-0.18,0.43-0.28,0.67c-0.02,0.05-0.07,0.07-0.12,0.06
		c-0.72-0.3-0.89-1.26-0.43-1.87C235.18,165.83,235.78,165.79,236.24,165.62z M231.11,159.61c1.14-0.26,2.49-0.29,3.24,0.87
		c0.81,1.14,0.48,2.63-0.74,3.27c-0.04,0.02-0.1,0-0.12-0.04c-0.36-1.41-0.13-1.82-0.19-2.69c-0.23-0.83-1.39-1.1-2.19-1.27
		C231.03,159.74,231.03,159.62,231.11,159.61z M225.99,166.87c0.1-0.58,0.78-0.96,1.31-1.04c0.9-0.22,1.65,0.27,2.45,0.24
		c0.07-0.01,0.11,0.08,0.06,0.12c-0.54,0.45-1.58,0.39-2.12,0.76c-0.22,0.14-0.15,0.32-0.32,0.48c-0.18,0.14-0.35,0.45-0.76,0.85
		c-0.04,0.04-0.11,0.05-0.15,0.01C226.05,167.93,225.86,167.44,225.99,166.87z M221.19,172.26c1.03,0.35,2.05,0.73,3.02,1.34
		c0.46,0.32,1.1,0.56,1.36,1.36c0.27,0.81-0.22,1.39-0.76,1.84c-0.03,0.04-0.09,0.05-0.14,0.01c-0.23-0.29-0.21-0.71-0.26-0.93
		c-0.05-0.24-0.14-0.27-0.22-0.36c-0.19-0.17-0.39-0.65-0.74-1.01c-0.73-0.74-1.56-1.43-2.34-2.14
		C221.06,172.34,221.12,172.23,221.19,172.26z M215.95,160.79c0.5-0.27,0.96-0.27,1.47-0.04c0.05,0.02,0.08,0.09,0.05,0.14
		c-0.21,0.48-0.55,1.06-0.72,1.21c-0.08,0.04-0.16,0.16-0.2,0.33c-0.16,0.71-0.3,1.58-0.59,2.29c-0.03,0.07-0.13,0.06-0.15-0.01
		C215.71,163.53,214.73,161.63,215.95,160.79z M213.26,157.98c-0.05-0.66,0.18-1.48,0.54-2.05c0.04-0.06,0.14-0.04,0.15,0.03
		c0.05,1.03,0.5,1.54,0.65,2.49c0,0.73-0.51,1.15-1.24,1.27c-0.05,0.01-0.11-0.02-0.13-0.07c-0.19-0.48-0.18-0.84-0.18-1.1
		C213.04,158.25,213.24,158.27,213.26,157.98z M208.82,171.3c0.33-0.72,1.36-1.13,1.97-1.54c0.33-0.2,0.64-0.45,0.98-0.68
		c0.03-0.02,0.08-0.02,0.11,0.02c0.02,0.02,0.02,0.05,0.01,0.07c-0.27,0.72-0.83,1.52-1.3,2.07c-0.2,0.28-0.25,0.67-0.55,0.91
		c-0.3,0.25-0.64,0.49-1.19,0.6c-0.06,0.01-0.11-0.02-0.13-0.08C208.58,172.12,208.66,171.7,208.82,171.3z M198.68,100.11
		c0.59,0.52,1.17,0.77,1.84,1.2c0.33,0.21,0.82,0.51,0.92,1.01c0.1,0.48,0.02,0.95-0.35,1.36c-0.04,0.04-0.1,0.05-0.15,0.01
		c-0.44-0.32-0.66-0.57-0.86-0.77c-0.19-0.17-0.17-0.46-0.38-0.74c-0.43-0.55-0.97-1.27-1.15-1.98
		C198.54,100.12,198.63,100.06,198.68,100.11z M200.29,154.65c0.44-0.45,1.18-0.46,1.72-0.23c0.57,0.23,0.83,0.78,1.09,1.2
		c0.52,0.85,0.81,1.76,1.04,2.71c0.02,0.07-0.08,0.13-0.13,0.07c-0.8-1-1.73-2.04-2.77-2.72c-0.24-0.26-0.45-0.51-0.93-0.89
		C200.25,154.76,200.25,154.69,200.29,154.65z M197.47,131.26c0.62-0.69,1.47-1.66,2.1-2.34c0.05-0.06,0.15,0,0.13,0.08
		c-0.35,1.01-0.75,2-1.26,2.95c-0.26,0.47-0.45,1.04-0.93,1.39c-0.47,0.35-1.06,0.6-1.71,0.53c-0.05-0.01-0.09-0.05-0.08-0.1
		C196.12,132.59,196.6,132.01,197.47,131.26z M194.3,124.02c-0.26,0.26-0.43,0.62-0.75,0.74c-0.32,0.16-0.66,0.14-1.12,0.29
		c-0.3-0.03-0.2-0.69-0.14-0.84c0.29-1.04,1.32-1.09,2.35-1.6c0.35-0.13,0.69-0.27,1.06-0.4c0.04-0.01,0.08,0.01,0.1,0.05
		c0.01,0.02,0,0.05-0.01,0.07C195.35,122.93,194.84,123.49,194.3,124.02z M193.34,77.14c0.73-0.02,1.44,0.09,2.11,0.41
		c0.34,0.16,0.8,0.29,0.98,0.75c0.18,0.42,0.18,1.01-0.24,1.35c-0.04,0.04-0.11,0.03-0.15-0.01c-0.42-0.32-0.64-0.38-0.83-0.5
		c-0.19-0.09-0.23-0.4-0.44-0.62c-0.4-0.42-0.91-0.85-1.47-1.24C193.24,77.25,193.27,77.15,193.34,77.14z M192.17,112.67
		c0.05-0.66,0.44-0.95,0.95-1.25c0.54-0.43,1.1-0.82,1.67-1.21c0.06-0.04,0.14,0.02,0.12,0.09c-0.23,0.66-0.54,1.3-0.89,1.9
		c-0.17,0.3-0.25,0.68-0.54,0.85c-0.32,0.24-0.65,0.23-1.05,0.4C192.13,113.44,192.15,112.81,192.17,112.67z M189.04,169
		c0.07-0.31,0.4-0.54,0.52-0.69c0.22-0.21,0.29-0.56,0.32-0.96c0-0.08,0.11-0.1,0.14-0.04c0.2,0.35,0.34,0.82,0.21,1.32
		c-0.05,0.21-0.25,0.57-0.18,0.58c0-0.01,0.02-0.02,0.03-0.05c-0.01-0.04,0.03-0.02,0.06,0c0.73,0.29,1.21,0.75,1.4,1.7
		c0.01,0.06-0.03,0.11-0.08,0.12c-0.55,0.13-0.97,0.05-1.36-0.11c-0.4-0.16-0.62-0.54-0.92-1.02
		C189.05,169.64,188.94,169.28,189.04,169z M186.57,94.13c0.69-0.48,1.31-1.08,1.88-1.73c0.05-0.06,0.15-0.01,0.13,0.07
		c-0.34,1.31-1.04,2.82-2.25,3.52c-0.21,0.09-0.44,0.13-0.63,0.15c-0.19,0.04-0.36-0.07-0.58,0.14c-0.04,0.03-0.1,0.03-0.14-0.01
		c-0.23-0.25-0.08-0.71,0.09-0.96C185.44,94.66,185.97,94.44,186.57,94.13z M187.98,136.48c-0.54,1.21-0.71,2.06-0.87,3.26
		c-0.13,0.31-0.3,0.57-0.55,1.08c-0.02,0.05-0.08,0.07-0.13,0.05c-0.54-0.25-0.75-0.81-0.79-1.3c-0.05-0.52,0.29-0.91,0.51-1.29
		c0.44-0.75,1.04-1.37,1.73-1.88C187.93,136.34,188.01,136.41,187.98,136.48z M181.94,82.76c0.24-0.31,0.66-0.36,0.99-0.53
		c0.67-0.33,1.37-0.61,2.08-0.85c0.07-0.02,0.13,0.07,0.08,0.13c-0.47,0.6-0.97,1.18-1.5,1.72c-0.26,0.26-0.44,0.64-0.8,0.76
		c-0.35,0.13-0.74,0.21-1.28,0.09c-0.06-0.01-0.09-0.06-0.09-0.12C181.48,83.4,181.69,83.06,181.94,82.76z M179.3,166.44
		c-0.07,0.04-0.15-0.06-0.09-0.12c0.22-0.22,0.4-0.58,0.81-0.67c0.25-0.01,0.33,0.28,0.31,0.4c-0.15,0.84-0.59,1.58-0.94,2.31
		c-0.27,0.51-0.43,1.1-0.83,1.51c-0.4,0.42-0.85,0.79-1.46,1.08c-0.04,0.02-0.09,0-0.12-0.04c-0.12-0.72,0.11-1.33,0.34-1.87
		c0.6-1.01,1.54-1.8,2.23-2.75C179.46,166.35,179.37,166.4,179.3,166.44z M179.63,154.18c-0.24,0.13-0.52-0.47-0.56-0.65
		c-0.31-1.43,1.38-1.71,2.28-2.14l1.08-0.43c0.07-0.03,0.14,0.06,0.09,0.12c-0.62,0.87-1.49,1.61-2.12,2.41
		C180.24,153.56,180.02,153.78,179.63,154.18z M181.7,120.44c-0.27-0.43-0.61-0.81-0.96-1.22c-0.03-0.03-0.03-0.08,0.01-0.11
		c0.02-0.02,0.06-0.02,0.08-0.01c1.49,0.61,2.79,2.01,3.37,3.47c0.13,0.48,0.23,0.97,0.2,1.63c0,0.05-0.04,0.09-0.1,0.09
		c-0.65-0.17-1.1-0.61-1.44-1.07C182.32,122.3,182.41,121.37,181.7,120.44z M179.19,103.24c0.25-0.37,0.7-0.45,1.06-0.62
		c0.72-0.33,1.48-0.55,2.26-0.69c0.07-0.01,0.12,0.09,0.06,0.13l-1.66,1.54c-0.26,0.25-0.42,0.61-0.73,0.74
		c-0.31,0.16-0.6,0.19-1.09,0.36c-0.05,0.02-0.12,0.01-0.14-0.04C178.7,104.19,178.92,103.63,179.19,103.24z M178.01,132.05
		c1.73-0.17,4.88,0.81,4.07,3.1c-0.02,0.06-0.09,0.08-0.14,0.05c-1.1-0.57-1.21-0.76-1.84-1.63c-0.56-0.54-1.28-1.04-2.1-1.37
		C177.92,132.17,177.93,132.06,178.01,132.05z M175.78,142.81c0.71-0.75,1.55-1.34,2.48-1.78c0.07-0.03,0.14,0.06,0.09,0.12
		c-0.6,0.74-1.15,1.54-1.61,2.37c-0.36,0.99-0.68,1.52-1.53,2.31c-0.04,0.04-0.11,0.03-0.14-0.01
		C174.35,144.72,174.9,143.54,175.78,142.81z M175.85,155.15c0.28,0.29,0.66,0.53,0.75,0.92c0.11,0.39,0.12,0.8-0.09,1.31
		c-0.02,0.05-0.08,0.08-0.13,0.06c-0.7-0.24-1.11-0.52-1.33-1.1c-0.11-0.49-0.36-0.96-0.64-1.34c-0.18-0.25-0.42-0.44-0.74-0.29
		c-0.06,0.03-0.13-0.04-0.1-0.1C174.15,153.74,175.37,154.62,175.85,155.15z M168.21,162.22c0.14,0.51,0.15,1.07-0.12,1.63
		c-0.02,0.05-0.08,0.07-0.13,0.04c-0.28-0.17-0.47-0.36-0.64-0.53c-0.85-0.78-0.87-1.88-1.76-2.71c-0.29-0.34-0.65-0.65-1.04-0.91
		c-0.06-0.04-0.03-0.15,0.05-0.14c1.01,0.12,1.96,0.64,2.69,1.35C167.62,161.33,168.1,161.69,168.21,162.22z M168.96,182.16
		c0.01,0.06-0.03,0.11-0.08,0.12c-1.12,0.2-1.94-0.48-2.24-1.48c-0.37-0.85-0.43-1.73-0.42-2.62c0-0.08,0.11-0.1,0.14-0.04
		c0.39,0.71,0.78,1.45,1.29,2.04C168.35,180.73,168.75,181.15,168.96,182.16z M161.39,154.93c-0.05,0.02-0.11-0.01-0.13-0.06
		c-0.36-1.04,0.13-1.88,0.97-2.4c0.67-0.56,1.45-1,2.3-1.22c0.08-0.02,0.13,0.08,0.07,0.13c-0.57,0.56-1.05,1.21-1.48,1.87
		C162.75,154.11,162.37,154.59,161.39,154.93z M164.65,168.81c-0.11,0.08-0.18,0.18-0.18,0.25c-0.01,0.07,0,0.07-0.06,0.1
		c-0.13,0.05-0.32,0.32-0.69,0.68c-0.04,0.04-0.1,0.04-0.14,0.02c-0.71-0.37-0.79-1.53-0.04-1.93c0.91-0.43,1.78-0.25,2.71-0.36
		c0.07-0.01,0.11,0.09,0.06,0.13C165.86,168.15,165.15,168.48,164.65,168.81z M169.7,196.76c-0.66,0.91-1.71,0.99-2.53,0.21
		c-0.66-0.68-0.8-1.18-1.52-1.71c-0.06-0.05-0.02-0.15,0.06-0.14c0.7,0,1.61,0.59,2.12,0.86c0.23,0.07,0.46-0.09,0.76,0.03
		c0.31,0.11,0.67,0.23,1.09,0.6C169.72,196.65,169.73,196.71,169.7,196.76z M170.28,141.46c-0.01,0.05-0.05,0.1-0.1,0.11
		c-0.48,0.11-0.79,0.03-1.05-0.09c-0.27-0.11-0.33-0.44-0.48-0.68c-0.27-0.41-0.51-0.89-0.7-1.35c-0.02-0.1-0.14-0.29,0.03-0.32
		c0.05,0,0.09,0.03,0.1,0.07c0,0,0,0,0.02,0.01c0.45,0.24,0.95,0.48,1.38,0.75c0.24,0.14,0.57,0.19,0.68,0.46
		C170.28,140.67,170.37,140.97,170.28,141.46z M170.51,124.77c-0.38-0.22-0.53-0.68-0.73-1.06c-0.38-0.75-0.68-1.79-0.16-2.55
		c0.05-0.07,0.15-0.01,0.13,0.07c-0.03,0.73,0.51,1.3,0.99,1.79c0.48,0.35,0.89,0.61,1.06,1.23c0.07,0.2,0.13,0.42,0.15,0.72
		c0,0.06-0.04,0.1-0.09,0.11C171.3,125.14,170.87,124.99,170.51,124.77z M175.26,203.88c-0.32,0.26-0.77,0.25-1.21,0.32
		c-0.9,0.17-1.67-0.15-2.5-0.34c-0.07-0.02-0.08-0.13,0-0.15c0.69-0.24,1.54-0.3,2.15-0.65c0.3-0.16,0.57-0.49,0.96-0.55
		c0.39-0.06,0.81-0.08,1.34,0.13c0.05,0.02,0.08,0.08,0.06,0.13C175.87,203.32,175.58,203.63,175.26,203.88z M177.22,184.12
		c-0.3,0.97-0.26,1.28-1.12,2.28c-0.04,0.05-0.11,0.05-0.15,0c-0.81-0.95-0.57-2.22,0.32-2.99c0.72-0.8,1.75-1.04,2.71-1.26
		c0.07-0.02,0.13,0.08,0.07,0.13C178.38,182.85,177.6,183.35,177.22,184.12z M183.93,200.03c-1.24-0.07-1.81-1.05-2.44-1.83
		c-0.32-0.29-0.74-0.5-1.21-0.68c-0.47-0.19-0.98-0.28-1.51-0.4c-0.08-0.01-0.08-0.13,0-0.15c2.35-0.58,4.94,0.22,5.25,2.94
		C184.04,199.97,183.99,200.03,183.93,200.03z M185.52,191.05c-0.08,0.15-0.25,0.32-0.3,0.4c-0.09,0.12-0.03,0.2,0.04,0.12
		c0.06-0.09,0.03-0.12,0.04-0.02c0,0.2,0.14,0.56,0.15,1.08c0,0.06-0.04,0.1-0.09,0.11c-0.86,0.18-1.78-0.41-1.55-1.43
		c0.11-0.32,0.28-0.5,0.46-0.64c-0.27-0.15-0.57-0.29-0.79-0.43c-0.06-0.03-0.04-0.14,0.03-0.15c0.65-0.03,1.13-0.16,1.8,0.11
		C185.58,190.35,185.68,190.8,185.52,191.05z M186.14,157.48c-0.44-0.19-0.79-0.8-0.9-1.36c-0.23,0.1-0.46,0.21-0.68,0.27
		c-0.07,0.03-0.13-0.06-0.09-0.12c0.13-0.17,0.71-0.97,0.83-1.11c0.07-0.08,0.17-0.16,0.33-0.17c0.17-0.04,0.45,0.18,0.45,0.24
		c0.12,0.24,0.06,0.41,0.28,0.6c0.16,0.16,0.47,0.19,0.64,0.45c0.18,0.25,0.39,0.55,0.53,1.07c0.02,0.05-0.01,0.11-0.06,0.13
		C186.97,157.69,186.54,157.65,186.14,157.48z M187.25,184.3l-0.24-1.27c-0.11-0.72-0.41-1.64,0.16-2.35
		c0.59-0.65,1.21-0.7,2.08-0.56c0.06,0.01,0.09,0.07,0.08,0.13c-0.21,0.7-0.61,1.22-1.13,1.48c-0.08,0.01-0.13-0.04-0.19,0.12
		c-0.18,0.72-0.34,1.71-0.61,2.46C187.38,184.39,187.26,184.38,187.25,184.3z M193.19,207.4c-0.21,1.53-2.09,2.19-3.41,2.22
		c-0.65,0-1.29-0.08-1.87-0.31c-0.04-0.01-0.06-0.06-0.04-0.1c0.01-0.03,0.04-0.05,0.07-0.05c1.22-0.04,2.6-0.37,3.41-1.28
		c0.46-0.83,0.6-1.25,0.82-2.38c0.01-0.06,0.08-0.09,0.14-0.06C192.9,205.83,193.27,206.57,193.19,207.4z M194.67,194.54
		c-0.64,0.41-1.07,0.57-1.63,0.62c-0.08-0.01-0.12-0.09-0.19,0.01c-0.15,0.17-0.25,0.68-0.4,1.09c-0.16,0.44-0.35,0.87-0.64,1.23
		c-0.03,0.03-0.07,0.04-0.11,0.01c-0.02-0.02-0.03-0.05-0.03-0.07c0.2-1.02-0.16-1.62,0.08-2.73c0.15-0.64,0.92-1.19,1.59-1.07
		c0.54,0.08,0.96,0.31,1.34,0.77C194.72,194.44,194.72,194.5,194.67,194.54z M194.94,149.05c-0.03-0.02-0.04-0.05-0.04-0.07
		c0.16-1.07,0.27-2.11,0.46-3.18c0.1-0.53,0.09-1.16,0.53-1.69c0.42-0.52,1.11-0.85,1.77-0.72c0.05,0.01,0.08,0.06,0.07,0.11
		c-0.28,0.61-0.46,1-0.58,1.39c-0.4,0.8-0.94,1.81-1.33,2.71c-0.25,0.48-0.5,0.96-0.79,1.43
		C195.02,149.07,194.98,149.08,194.94,149.05z M196.24,168.65c-0.03,0.04-0.09,0.05-0.13,0.02c-0.47-0.54-0.64-1.23-0.28-1.92
		c0.44-0.75,1.08-0.78,1.54-0.99c0.48-0.2,0.95-0.37,1.43-0.56l1.45-0.55c0.07-0.03,0.14,0.07,0.08,0.12
		c-0.9,0.97-2.4,1.98-3.28,2.83C196.85,167.67,196.63,168.13,196.24,168.65z M197,181.79c0.98-0.3,1.85-0.61,2.92-0.61
		c0.28,0.02,0.67,0.03,1.07,0.33c0.79,0.8,0.51,1.51,0.27,2.47c-0.02,0.05-0.07,0.08-0.12,0.06c-0.6-0.27-1.12-1.07-1.18-1.5
		c0.06-0.02-0.03-0.15-0.21-0.2c-0.82-0.22-1.85-0.28-2.73-0.41C196.94,181.92,196.93,181.81,197,181.79z M202.75,212.76
		c0.09,0.52-0.04,0.95-0.41,1.35c-0.04,0.04-0.1,0.05-0.15,0.01c-0.45-0.38-0.85-0.77-0.97-1.07c-0.03-0.1-0.08-0.23-0.18-0.32
		c-0.47-0.43-1.21-0.71-1.83-0.97c-0.07-0.03-0.06-0.13,0.01-0.15C200.39,211.37,202.29,211.37,202.75,212.76z M205.37,186.56
		c0.07-0.05,0.15,0.04,0.1,0.11c-0.31,0.42-0.65,0.86-1.24,1.11c-0.4,0.18-0.91,0.11-1.3,0.08c-0.05,0.03-0.07,0.02-0.01,0.04
		c0.01,0.02,0.01,0.02,0.01,0.02l-0.03,0.1c-0.17,0.86-0.58,1.52-1.36,2.13c-0.05,0.04-0.12,0.02-0.14-0.04
		c-0.42-1.04-0.33-2.08,0.44-2.87c0.31-0.36,0.79-0.59,1.26-0.46c0.37,0.1,0.6,0.29,0.96,0.27
		C204.48,187.06,204.93,186.8,205.37,186.56z M204.48,141.85c0.08,0.01,0.09,0.13,0,0.15c-1.41,0.21-1.65,1.28-1.87,2.5
		c-0.11,1.32-0.6,2.66-1.89,3.33c-0.04,0.02-0.1,0.01-0.12-0.04c-0.13-1.43,0.25-2.45,0.88-3.65
		C201.94,142.84,202.9,141.5,204.48,141.85z M205.84,81.73c-0.52,0.72-1.04,1.45-1.51,2.18c-0.24,0.36-0.33,0.8-0.63,1.06
		c-0.29,0.29-0.61,0.49-1.06,0.84c-0.04,0.03-0.1,0.02-0.13-0.02c-0.37-0.54-0.24-1.17-0.06-1.62c0.41-0.81,1.4-1.35,2.1-1.89
		c0.4-0.24,0.78-0.48,1.2-0.68c0.04-0.02,0.08,0,0.1,0.04C205.86,81.68,205.86,81.71,205.84,81.73z"/>
	<path class="st11" d="M235.88,201.5c-0.05,0.33-0.1,0.68-0.15,1.04c0.05-0.32,0.1-0.63,0.15-0.92c0.01,0,0.04,0,0.04-0.01
		c0.03-0.11,0-0.05,0.01-0.07c-0.01-0.02,0-0.06,0-0.08c0.01-0.03,0-0.04,0.01-0.06l0-0.02c0,0,0,0,0,0c0,0,0-0.01,0-0.01
		l-0.15-0.03l-0.03,0.12c-0.1-0.02-0.2-0.03-0.31-0.05C235.58,201.43,235.73,201.46,235.88,201.5z"/>
	<path class="st6" d="M213.39,200.92c-0.6-7.27-0.33-14.56,0.37-21.8c-3.5,8.89-10.21,25.68-10.49,26.34
		c-0.42,1.77,0.24,3.66,1.92,4.43c0,0,1.69,0.95,1.69,0.95c2,1.11,12.45,7.03,16.05,9.07c0.08-1.73,0.24-3.45,0.53-5.17
		c0-0.03,0.02-0.05,0.02-0.07c0.37-2.25,0.95-4.47,1.83-6.58c0.01-0.03,0.03-0.05,0.05-0.08c0.17-0.43,0.37-0.85,0.58-1.25
		c-3.34-1.45-9.24-4.07-12.25-5.42C213.5,201.26,213.4,201.1,213.39,200.92z"/>
	<path class="st11" d="M222.92,219.91c-3.6-2.04-14.05-7.96-16.05-9.07c0,0-1.69-0.95-1.69-0.95c-1.68-0.78-2.34-2.66-1.92-4.43
		c0.28-0.66,6.99-17.45,10.49-26.34c-0.7,7.25-0.97,14.53-0.37,21.8c0.01,0.18,0.11,0.34,0.28,0.42c3.01,1.35,8.92,3.96,12.25,5.42
		c0.07-0.14,0.14-0.27,0.22-0.41c-3.89-1.95-7.76-3.93-11.67-5.84c-0.32-6.12,0.04-12.29,0.54-18.41c0.05-0.56,0.09-1.11,0.14-1.67
		c0.13-1.32,0.26-2.64,0.39-3.97c0.1-0.94,0.2-1.89,0.31-2.83c0.11-0.88-1.15-1.16-1.46-0.35c0,0-10.64,28.34-10.64,28.34
		c-1.14,1.77-2.56,5.46-0.68,7.75c0.7,1.05,2.35,1.64,3.37,2.27l3.39,1.85l13.05,7.12C222.91,220.38,222.91,220.14,222.92,219.91z"
		/>
	<path class="st11" d="M233.06,228.23c0-1.65,0.04-3.3,0.1-4.94c-1.58,0.35-3.04,0.17-4.61-0.13c-1.43-0.16-2.86-0.26-4.3-0.33
		c-0.01,0.34-0.03,0.68-0.03,1.01C225.89,226.88,229.82,227.6,233.06,228.23z"/>
	<path class="st11" d="M231.17,222.02c0.69,0.16,1.37,0.39,2.01,0.77c0.04-0.97,0.1-1.94,0.16-2.91c0.05-1.08,0.14-2.41,0.26-3.76
		c-1.59,0.37-3.05,0.15-4.59-0.26c0,0-2.73-0.52-4.08-0.77c-0.21,1.46-0.39,2.93-0.51,4.4c-0.07,1.01-0.13,2.02-0.16,3.02
		C226.53,222.07,228.89,221.76,231.17,222.02z"/>
	<path class="st11" d="M230.39,208.48c0,0-2.53-0.04-3.78-0.06c-0.02,0.05-0.04,0.1-0.06,0.15c-0.01,0.02-0.02,0.03-0.03,0.04
		c-0.72,1.98-1.18,4.05-1.52,6.13c1.38-0.08,2.76-0.13,4.14-0.08c1.59-0.07,3.14,0.12,4.49,1.03c0.15-1.72,0.34-3.45,0.5-4.78
		c0.11-0.9,0.27-1.94,0.45-3.02C233.24,208.6,231.85,208.62,230.39,208.48z"/>
	<path class="st11" d="M226.75,208.05c1.9-0.48,3.84-0.96,5.78-1.03c0.7,0.07,1.41,0.21,2.11,0.58c0.36-2.09,0.79-4.31,1.12-6.02
		C231,201.21,228.36,204,226.75,208.05z"/>
	<path class="st1" d="M234.12,219.91c0.05-2.57,0.27-6.44,0.49-8.94c0.22-2.4,0.71-5.79,1.11-8.44c0.05-0.36,0.11-0.71,0.15-1.04
		c-0.15-0.04-0.29-0.07-0.44-0.1c-4.07-0.96-7.39,1.55-9.3,4.95c-0.08,0.13-0.15,0.27-0.22,0.41c-0.21,0.41-0.41,0.83-0.58,1.25
		c-0.02,0.03-0.04,0.05-0.05,0.08c-0.88,2.11-1.46,4.33-1.83,6.58c-0.01,0.02-0.02,0.04-0.02,0.07c-0.28,1.71-0.44,3.44-0.53,5.17
		c-0.01,0.23-0.02,0.47-0.02,0.7c-0.04,1.15-0.05,2.29-0.02,3.44c0.74,1.8,2.29,2.94,4.1,3.71c0.21,0.09,0.42,0.17,0.63,0.25
		c1.98,0.31,3.97,0.59,5.96,0.83c0.14,0,0.29,0.02,0.43,0.04c0,0,0.06,0.01,0.06,0.01c0-0.02,0.01-0.04,0.01-0.06
		c0-0.03,0-0.07,0-0.1C233.98,225.79,234,222.85,234.12,219.91z M234.14,210.92c-0.16,1.33-0.34,3.06-0.5,4.78
		c-1.36-0.91-2.91-1.1-4.49-1.03c-1.38-0.04-2.76,0-4.14,0.08c0.34-2.08,0.8-4.15,1.52-6.13c0.01-0.02,0.02-0.03,0.03-0.04
		c0.02-0.05,0.04-0.1,0.06-0.15c1.24,0.02,3.78,0.06,3.78,0.06c1.46,0.13,2.85,0.11,4.2-0.58
		C234.41,208.98,234.25,210.02,234.14,210.92z M224.94,215.08c1.35,0.25,4.08,0.77,4.08,0.77c1.54,0.41,3,0.63,4.59,0.26
		c-0.12,1.35-0.21,2.68-0.26,3.76c-0.07,0.97-0.12,1.94-0.16,2.91c-0.64-0.38-1.32-0.61-2.01-0.77c-2.28-0.26-4.64,0.05-6.91,0.49
		c0.04-1.01,0.09-2.02,0.16-3.02C224.55,218,224.73,216.54,224.94,215.08z M224.26,222.83c1.44,0.07,2.87,0.17,4.3,0.33
		c1.57,0.3,3.02,0.48,4.61,0.13c-0.07,1.65-0.1,3.29-0.1,4.94c-3.24-0.63-7.17-1.35-8.83-4.38
		C224.23,223.51,224.25,223.17,224.26,222.83z M234.64,207.6c-0.69-0.36-1.4-0.51-2.11-0.58c-1.94,0.07-3.88,0.54-5.78,1.03
		c1.61-4.06,4.24-6.84,9-6.47C235.42,203.3,234.99,205.52,234.64,207.6z"/>
	<path class="st3" d="M208.76,89.39c-4.02,6.8-5.34,14.25-4.42,14.17c0.14-0.01,0.29,0,0.43,0.01c0.2-1.04,1.41-0.52,2.05-0.17
		c0.04,0.02,0.07,0.04,0.11,0.07l1.47-4.28c0.17-0.51,0.86-0.69,1.24-0.31c3.9,3.03,9.15,3.95,13.87,5.15
		c4.97,1.07,10,1.96,15.05,2.6c0.17,0.01,0.3,0.15,0.31,0.32l0.31,6.4c1.19-1.31,2.99-2.27,4.74-1.56c1.8,0.68,3.11,2.59,2.92,4.52
		c-0.13,3.32-3.9,4.17-5.48,6.58c-1.48,2.5-2.1,5.61-2.65,8.34c0.15,0.08,0.3,0.15,0.43,0.25c0.06,0.04,0.24,0.11,0.13,0.11
		c-0.11,0.03-0.4,0-0.7-0.05c-0.73,1.6-4.18,9.16-4.77,10.47c0.11,0.03,0.22,0.06,0.28,0.09c0.06,0.02,0.25,0.06,0.14,0.06
		c-0.05,0.01-0.24,0-0.48-0.03c-0.02,0.05-0.04,0.08-0.04,0.08c0.06-0.16-0.5,3.35-0.97,6.26c2.34-0.31,5.03-0.8,8.12-1.55
		c14.88-3.63,22.24-16.81,22.24-16.81c1.25-35.5-12.73-46.75-12.73-46.75c-12.91-10.4-29.23-4.42-29.23-4.42
		c-1.61,0.38-3.08,1.04-4.44,1.88c-0.15,0.09-0.31,0.18-0.45,0.27C213.14,83.14,210.65,86.18,208.76,89.39z M231.02,82.68
		c0.08,0.01,0.08,0.13,0,0.15c-5.03,1.22-10.05,2.48-14.03,5.94c-1.34,1.09-2.57,2.34-3.64,3.71c-0.05,0.07-0.18,0-0.13-0.08
		C216.83,86.59,223.83,81.16,231.02,82.68z"/>
	<path class="st6" d="M215.75,103.47c-2.18-0.72-4.34-1.45-6.24-2.79l-1.44,4.21c-0.16,0.51-0.83,0.68-1.22,0.34
		c-0.18-0.15-0.39-0.28-0.61-0.41c-0.17,6.13-0.04,12.3,0.31,18.42c0.4,1.99,1.34,4.82,2.63,6.79c1.3,2.1,3.03,3.91,5.02,5.38
		c0.19,0.14,0.26,0.38,0.2,0.6c1.31,0.61,2.69,1.01,4.11,1.27c1.67,0.16,3.17,0.38,4.71,1.21c0.06,0.03,0.06,0.12,0,0.15
		c-1.67,0.75-3.41,0.47-5.02-0.22c-1.41-0.49-2.76-1.21-3.92-2.15l-4.55,9.38c6.42,4.19,14.21,5.82,21.79,6.17l1.73-9.76
		c0,0,0,0,0,0c-0.24-0.04-0.44-0.07-0.49-0.1c-0.11-0.03,0.09-0.02,0.15-0.02c0.11-0.01,0.25-0.02,0.39-0.02
		c0.52-1.12,4.19-8.75,5.01-10.45c-0.23-0.05-0.42-0.11-0.49-0.17c-0.1-0.05,0.1-0.05,0.16-0.06c0.14-0.03,0.31-0.07,0.48-0.08
		c0.01-0.02,0.02-0.03,0.01-0.03c0.63-2.86,1.29-5.78,2.77-8.34c1.56-2.42,5.32-3.22,5.46-6.51c0.25-2.75-2.88-5.43-5.49-4.09
		c-0.82,0.4-1.47,1.06-2.04,1.77c-0.11,0.14-0.34,0.06-0.35-0.11c0,0-0.55-6.05-0.6-6.58C230.65,106.59,223.08,105.63,215.75,103.47
		z M215.91,115.78c0.63-0.82,1.92-2.48,2.56-3.3c0.05-0.07,0.17,0,0.12,0.08c-1.23,2.34-2.57,4.71-3.99,6.96
		c0.39,1.14,1.08,1.78,2.4,1.47c0.46-0.09,1.02-0.26,1.48-0.37c0.07-0.02,0.13,0.07,0.08,0.12c-1.79,2.47-5.11,2.09-5.36-1.23
		c-0.03-0.18,0.02-0.37,0.14-0.5c0.44-0.48,0.87-1.04,1.3-1.58L215.91,115.78z M210.64,107.34c0.6-0.39,1.33-0.49,2.02-0.48
		c0.35,0,0.74-0.08,1.03,0.13c0.29,0.2,0.55,0.48,0.68,0.98c0.01,0.05-0.01,0.11-0.06,0.13c-0.39,0.22-0.71,0.29-1.09,0.29
		c-0.31,0.02-0.52-0.25-0.8-0.37c-0.55-0.24-1.12-0.48-1.73-0.54C210.62,107.48,210.58,107.38,210.64,107.34z M221.33,128.1
		c-2.46,2.29-8.71,1.23-10.05-1.84c0.94,0.06,1.8,0.42,2.66,0.72c2.23,1.03,4.87,2.27,7.29,1.01
		C221.3,127.94,221.4,128.04,221.33,128.1z M229.21,112.06c-0.88,0.62-1.61,0.64-2.54,0.35c-0.85-0.13-1.7-0.29-2.55-0.47
		c-0.07-0.01-0.08-0.13-0.01-0.15c0.84-0.26,1.7-0.45,2.57-0.57c0.43-0.06,0.88-0.24,1.32-0.11c0.43,0.13,0.88,0.32,1.24,0.8
		C229.27,111.96,229.26,112.02,229.21,112.06z"/>
	<path class="st6" d="M231.81,151.85C231.82,151.84,231.81,151.84,231.81,151.85L231.81,151.85
		C231.81,151.85,231.81,151.85,231.81,151.85z"/>
	<path class="st1" d="M236.22,201.42c0.09-0.44,1.69-4.1,28.25,1.07l0.14-0.73c-25.32-4.92-28.8-1.99-29.12-0.5l0.28,0.06l0.15,0.03
		L236.22,201.42z"/>
	<path class="st8" d="M300.28,282.58c-6.58-7.21-13.46-14.12-20.98-20.35c-4.64-3.97-31.34-26.92-36.91-31.68l-8.88-0.73
		c-15.01-1.66-29.88-5.09-43.81-11.02c-5.57-2.37-10.98-5.14-16.11-8.38c-0.02-0.02-0.04-0.04-0.06-0.05
		c-2.84-1.87-5.7-3.77-8.17-6.13c0,0-0.5-0.88-0.92-1.61c-5.29,6.73-9.87,14.72-9.97,23.42c-3.13,14.16-5.2,28.81-4.31,43.35
		c0.34,6.18,1.82,12.28,3.47,18.25c2.2,8.01,4.61,15.99,7.74,23.68c1.58,3.78,3.31,7.56,5.75,10.87
		c4.61,9.89,9.12,19.83,13.85,29.66c2.42,4.85,4.85,9.76,6.87,14.82c1.98,4.9,3.75,9.89,4.93,15.08c4.52-0.31,9-0.95,13.46-1.72
		c4.48-0.78,8.94-1.64,13.37-2.67c-0.38-6.1-0.63-12.24-1.17-18.34c-0.15-1.48-0.3-2.95-0.47-4.43c-0.43-3.52-0.89-7.05-1.7-10.47
		c-0.02-0.08-0.01-0.17,0.01-0.24c-0.12-0.58-0.25-1.15-0.38-1.73c-2.6-11.75-4.36-23.64-5.91-35.56
		c-0.49-3.97-0.95-7.95-1.22-11.96l-0.53-11.99c-0.01-0.14,0.07-0.25,0.18-0.31c-1.08-4.12-1.44-8.3-1.64-12.53
		c0,0-0.93-12.9-0.93-12.9c-0.01-0.09,0.13-0.11,0.15-0.02c0.66,3.68,1.43,9.04,1.97,12.8c0.68,4.19,1.13,8.39,0.7,12.64
		c0.02,0.01,0.04,0,0.06,0.02c0,0,41.35,23.83,41.85,24.12c0.1-0.04,0.19-0.08,0.25-0.1c0.35-0.85,0.78-1.59,1.21-2.32
		c1.05-1.59,2.32-3.07,2.79-4.97c0.28-0.92,0.38-1.89,0.28-2.88c-0.01-0.08,0.12-0.12,0.14-0.03c1.15,3.58-0.88,8.87-4.32,10.59
		c0.01,0.05-0.01,0.11-0.05,0.15c0,0-0.04,0.04-0.07,0.07c2.93,5.1,6.2,10.01,9.75,14.71c3.54,4.7,7.39,9.18,11.47,13.42
		c3.17-3.28,6.32-6.6,9.18-10.15c8.82-10.64,15.94-22.83,19.68-36.2C301.54,286.74,301.74,284.24,300.28,282.58z"/>
	<path class="st11" d="M300.42,282.45c-4.38-4.81-8.85-9.54-13.58-14.02c-4.12-3.83-10.41-9.12-14.65-12.9
		c0,0-25.9-22.72-28.11-24.66c5.6,0.59,15.3,1.48,21.65,1.83c7.76,0.42,15.55,0.84,23.32,0.14c2.96-0.51,4.49-3.66,5.27-6.3
		c0.46-1.55,0.73-3.43,0.9-5.02c-1.35-7.44-4.35-14.57-8.72-20.73l-0.6-0.78l-1.21-1.55l-1.32-1.46l-0.66-0.73l-0.71-0.68
		l-1.43-1.36c-12.15-10.63-22.85-22.88-35.58-32.86c-4.13-3.21-8.42-6.21-12.8-9.07c0.13,0.02,0.25,0.05,0.36,0.06
		c0.08,0.01-0.17-0.05-0.38-0.1c0,0,0-0.01,0-0.01c-0.01,0.01,0.27-1.75,0.59-3.8c0.47-2.92,1.03-6.42,0.97-6.26
		c0,0,0.01-0.03,0.04-0.08c0.24,0.03,0.43,0.04,0.48,0.03c0.11,0-0.08-0.04-0.14-0.06c-0.06-0.03-0.17-0.06-0.28-0.09
		c0.6-1.31,4.05-8.88,4.77-10.47c0.3,0.05,0.59,0.08,0.7,0.05c0.11-0.01-0.07-0.07-0.13-0.11c-0.13-0.09-0.28-0.17-0.43-0.25
		c0.56-2.73,1.18-5.84,2.65-8.34c1.58-2.41,5.35-3.25,5.48-6.58c0.19-1.93-1.12-3.84-2.92-4.52c-1.75-0.71-3.56,0.25-4.74,1.56
		l-0.31-6.4c-0.01-0.17-0.14-0.3-0.31-0.32c-5.05-0.63-10.09-1.53-15.05-2.6c-4.73-1.2-9.97-2.12-13.87-5.15
		c-0.39-0.38-1.08-0.2-1.24,0.31l-1.47,4.28c-0.04-0.02-0.07-0.04-0.11-0.07c-0.65-0.35-1.85-0.87-2.05,0.17
		c-0.14-0.01-0.28-0.02-0.43-0.01c-0.93,0.08,0.4-7.38,4.42-14.17c1.89-3.2,4.37-6.25,7.49-8.3c0.15-0.1,0.3-0.18,0.45-0.27
		c0.05-0.57,0.89-9.57,0.89-9.57c0.01-0.05-0.01-0.09-0.02-0.13c-0.01-0.04-0.02-0.08-0.04-0.12c0.01,0,0.02,0,0.03-0.01
		c1.3-4.49,0.02-7.97-4.96-8.55c0,0-0.54-0.01-0.54-0.01l-4.34-0.08c-4.91-0.1-11.89-0.49-16.97-0.77l-3.14,6.66
		c1.01,0.01,2.03,0.03,3.06,0.05c-1.3-0.02-2.6-0.03-3.89-0.04c-0.19,0-0.37,0.11-0.44,0.29c-0.01,0.02-0.02,0.04-0.03,0.07
		c-7.32,16.17-14.54,32.4-20.99,48.95c-2.1,5.58-4.27,11.1-5.68,16.92c-0.67,2.93-1.15,5.84-1.62,8.77
		c-2.71,17.53-3.36,36.18,3.34,52.93c0.68,1.71,1.46,3.38,2.31,5.02c-5.65,7.1-10.57,15.49-10.69,24.84
		c-2.66,11.3-4.53,24.86-4.53,37.16c0.04,1.08,0.09,3.66,0.13,4.72c0.06,0.97,0.32,3.73,0.38,4.71c0.62,5.19,1.93,10.39,3.33,15.37
		c2.24,8.06,4.7,16.06,7.88,23.8c1.63,3.87,3.44,7.76,5.97,11.15c4.2,9.14,9.18,19.81,13.8,29.38c2.44,4.87,4.85,9.69,6.88,14.73
		c2.01,4.94,3.82,9.98,4.98,15.16c-0.01,0.07-0.02,0.15,0,0.23c0.58,2.63,1.03,5.33,0.89,7.98c-0.02,0.29,0.24,0.53,0.53,0.49
		l8.51-0.92c5.03,12.02,8.51,24.66,11.23,37.43c-0.79,0.28-4.08,1.45-4.08,1.45c-8.28,3.33-16.88,8.03-21.24,16.18
		c-0.3,0.53-2.34,4.99-0.99,4.92l11-0.09c2.49-0.39,4.94-0.99,7.37-1.59c6.99-1.73,14.56-4.14,21.52-6.13
		c3.34-0.35,5.26-3.7,5.31-6.82c-0.09-3.16-1.23-6.19-2.1-9.2c-0.11-0.21-0.35-0.3-0.56-0.26c-0.19-0.64-0.41-1.45-0.53-1.73
		c0.05-3.14-0.31-6.26-0.79-9.35c-0.94-6.18-2.35-12.27-3.87-18.33c-0.41-1.46-0.92-3.62-1.47-5.5c7.74-5.26,10.7-15.11,10.74-24.13
		c0.02-2.6-0.13-5.16-0.41-7.73c0.01,0,0.02,0,0.02,0c0.17-0.02,0.13-0.25,0.18-0.39c0.07-0.19,0.11-0.38,0.15-0.58
		c0.11,0,0.22-0.04,0.31-0.12c4.12-4.24,8.25-8.47,12.42-12.67c3.12-3.13,9.43-9.34,12.64-12.43l5.94,9.36
		c2.65-2.35,5.11-4.67,7.38-6.95c0.05,0.05,0.14,0.05,0.19,0c3.2-3.33,6.38-6.68,9.27-10.29c8.81-10.67,15.92-22.91,19.64-36.3
		C301.71,286.73,301.9,284.15,300.42,282.45z M264.71,341.16l-5.5-8.67l-10.88-17.14l-2.21-3.47c0.86-0.64,2.55-1.98,4.3-3.75
		c3.44,5.87,10.29,16.43,20.56,27.12C268.97,337.25,266.87,339.24,264.71,341.16z M227,414.99c0.6,3.05,1.15,6.12,1.33,9.22
		c0,0.01,0,0.02,0.01,0.03l0.71,1.74c-0.01,0.01-0.02,0.01-0.03,0.01c-4.58,2.77-10.35,3.65-15.32,1.41
		c-0.07-0.03-0.15-0.05-0.23-0.06c-2.41-12.68-5.68-25.22-10.44-37.24l17.12-1.39c0.93,2.21,1.76,5.87,2.43,8.16
		C224.2,402.88,225.75,408.9,227,414.99z M197.63,449.14l-10.37-0.08c2.49-9.76,13.42-15.4,22.16-18.76l3.96-1.36
		c5.08,2.16,11.08,1.29,15.65-1.66c0.95,2.64,2.09,5.3,2.34,8.09c0.15,3-1.66,6.24-4.85,6.68
		C217.15,444.82,207.27,447.6,197.63,449.14z M220.89,388.53c-0.07,0.04-0.14,0.06-0.22,0.07c0.05-0.05,0.1-0.12,0.17-0.19
		c0.02-0.02,0.04-0.05,0.06-0.07l0.05,0.15C220.93,388.5,220.91,388.51,220.89,388.53z M193.69,389.94
		c0.11-2.39-0.19-4.74-0.62-7.05c8.99-0.37,17.91-1.87,26.55-4.38c0.22,2.85,0.54,6.76,0.86,9.38
		C212.78,388.44,201.45,389.24,193.69,389.94z M213.92,428.67c-0.08,0.09-0.17,0.13-0.27,0.16
		C213.71,428.8,213.92,428.67,213.92,428.67z M220.63,386.58c0.08-2.83,0.03-6.39,0.02-8.94c-0.04-0.19-0.18-0.31-0.35-0.37
		c-0.15-4.05-0.34-8.1-0.6-12.15c-0.5-6.97-0.93-13.93-2.32-20.81c1.19-0.47,2.4-0.89,3.62-1.22c-1.37,7.92,1.96,13.85,10.24,15.17
		c0.32,2.85,0.59,5.74,0.57,8.6c0.13,9.32-2.4,18.47-9.91,24.48C221.91,391.36,220.83,387.33,220.63,386.58z M233.09,357.3
		c-0.16-0.01-0.32-0.04-0.49-0.06c-0.11-0.2-0.31-0.35-0.55-0.39c-1.7-0.24-3.37-0.64-4.88-1.37c-4.38-1.95-5.62-6.74-5.18-11.18
		c0.03-0.24,0.07-0.47,0.11-0.71l1.06-1.09c0.01-0.01,0.02-0.01,0.03-0.02c4.36-4.52,14.68-15.17,18.8-19.64l5.61-6.08
		c3.15,4.78,7.73,11.55,10.89,16.12C249.98,340.65,241.26,349.16,233.09,357.3z M245.12,311.69l2.25,3.55
		c-0.04,0.03-0.09,0.05-0.13,0.08c-3.72,3.82-8.98,9.2-12.57,13.06l-12.33,13.24c-0.01,0.01-0.02,0.01-0.03,0.02l-0.04,0.04
		c-0.06-0.03-0.11-0.06-0.17-0.08c-0.1-0.04-0.24-0.21-0.31-0.08c-0.02,0.03-0.04,0.11-0.06,0.2c-0.04,0-0.09,0.01-0.14,0.02
		c-1.56,0.41-3.07,0.94-4.55,1.55c-0.1-0.46-0.2-0.92-0.31-1.37c-2.62-11.69-4.41-23.58-6-35.45c-0.5-3.96-0.97-7.94-1.27-11.91
		l-0.57-11.43c4.54,2.47,37.94,21.97,41.38,23.43c-0.25,0.15-0.51,0.38-0.53,0.42c-0.08,0.09,0.11,0.03,0.19,0.03
		c0.14,0,0.29-0.02,0.44-0.05c0,0.01,0,0.02,0.01,0.03c0.01,0.02,0.02,0.03,0.03,0.05C247.82,309.81,245.12,311.69,245.12,311.69z
		 M281.21,324.91c-2.86,3.56-6.01,6.87-9.18,10.15c-4.08-4.24-7.93-8.72-11.47-13.42c-3.55-4.7-6.82-9.61-9.75-14.71
		c0.03-0.03,0.07-0.07,0.07-0.07c0.04-0.04,0.05-0.09,0.05-0.15c3.44-1.72,5.47-7.01,4.32-10.59c-0.03-0.08-0.16-0.05-0.14,0.03
		c0.1,0.99,0,1.96-0.28,2.88c-0.46,1.9-1.74,3.39-2.79,4.97c-0.43,0.73-0.86,1.48-1.21,2.32c-0.07,0.02-0.15,0.06-0.25,0.1
		c-0.5-0.29-41.85-24.12-41.85-24.12c-0.02-0.01-0.04-0.01-0.06-0.02c0.43-4.25-0.02-8.46-0.7-12.64c-0.53-3.75-1.3-9.12-1.97-12.8
		c-0.01-0.09-0.16-0.07-0.15,0.02c0,0,0.93,12.9,0.93,12.9c0.2,4.23,0.56,8.41,1.64,12.53c-0.11,0.06-0.19,0.17-0.18,0.31
		l0.53,11.99c0.27,4.01,0.73,7.99,1.22,11.96c1.56,11.92,3.31,23.81,5.91,35.56c0.14,0.57,0.26,1.15,0.38,1.73
		c-0.02,0.08-0.03,0.16-0.01,0.24c0.81,3.41,1.27,6.95,1.7,10.47c0.17,1.47,0.32,2.95,0.47,4.43c0.53,6.1,0.79,12.24,1.17,18.34
		c-4.43,1.03-8.89,1.89-13.37,2.67c-4.46,0.78-8.94,1.41-13.46,1.72c-1.17-5.18-2.95-10.18-4.93-15.08
		c-2.02-5.05-4.45-9.97-6.87-14.82c-4.73-9.82-9.25-19.77-13.85-29.66c-2.44-3.3-4.17-7.09-5.75-10.87
		c-3.12-7.69-5.54-15.67-7.74-23.68c-1.65-5.97-3.14-12.07-3.47-18.25c-0.89-14.54,1.18-29.19,4.31-43.35
		c0.11-8.7,4.68-16.69,9.97-23.42c0.42,0.73,0.92,1.61,0.92,1.61c2.47,2.36,5.32,4.26,8.17,6.13c0.02,0.02,0.04,0.04,0.06,0.05
		c5.13,3.24,10.54,6.01,16.11,8.38c13.93,5.92,28.8,9.36,43.81,11.02l8.88,0.73c5.58,4.76,32.27,27.71,36.91,31.68
		c7.52,6.23,14.4,13.14,20.98,20.35c1.46,1.66,1.25,4.17,0.6,6.14C297.14,302.08,290.03,314.27,281.21,324.91z M239.18,113.97
		c0.57-0.71,1.23-1.37,2.04-1.77c2.61-1.34,5.74,1.34,5.49,4.09c-0.14,3.3-3.9,4.09-5.46,6.51c-1.48,2.56-2.14,5.48-2.77,8.34
		c0-0.01,0,0.01-0.01,0.03c-0.16,0.01-0.34,0.05-0.48,0.08c-0.07,0.02-0.27,0.01-0.16,0.06c0.07,0.06,0.27,0.12,0.49,0.17
		c-0.81,1.69-4.48,9.33-5.01,10.45c-0.14,0-0.29,0.01-0.39,0.02c-0.06,0.01-0.26-0.01-0.15,0.02c0.04,0.02,0.24,0.06,0.49,0.1
		c0,0,0,0,0,0l-1.73,9.76c-7.58-0.35-15.38-1.98-21.79-6.17l4.55-9.38c1.15,0.95,2.51,1.67,3.92,2.15c1.6,0.68,3.35,0.97,5.02,0.22
		c0.06-0.03,0.06-0.12,0-0.15c-1.54-0.84-3.04-1.05-4.71-1.21c-1.42-0.26-2.8-0.66-4.11-1.27c0.06-0.22,0-0.46-0.2-0.6
		c-1.99-1.46-3.72-3.28-5.02-5.38c-1.29-1.97-2.23-4.79-2.63-6.79c-0.34-6.12-0.48-12.29-0.31-18.42c0.22,0.12,0.43,0.26,0.61,0.41
		c0.39,0.35,1.06,0.17,1.22-0.34l1.44-4.21c1.9,1.34,4.06,2.08,6.24,2.79c7.33,2.16,14.9,3.12,22.48,3.8
		c0.05,0.53,0.6,6.58,0.6,6.58C238.84,114.03,239.07,114.11,239.18,113.97z M231.81,151.85
		C231.81,151.85,231.81,151.85,231.81,151.85L231.81,151.85C231.81,151.84,231.82,151.84,231.81,151.85z M215.84,80.86
		c-5.74,4.01-9.18,10.53-11.23,17.07c-0.45,1.8-1.12,3.61-0.85,5.52c0.06,0.23,0.26,0.49,0.56,0.49c0.11,0,0.08,0,0.13,0
		c0.1,0,0.19,0.01,0.29,0.01c-0.16,6.5,0.07,12.98,0.53,19.47c0.99,4.98,3.81,9.6,7.91,12.61l-4.53,9.59
		c-0.11,0.22-0.04,0.48,0.17,0.62c6.76,4.43,14.91,6.09,22.87,6.31c0,0-0.1-0.02-0.1-0.02c0.11,0.04,0.24,0.04,0.34,0
		c4.41,2.86,8.72,5.86,12.88,9.07c12.75,9.94,23.47,22.15,35.65,32.75c5.83,5.26,9.96,12.25,12.46,19.65
		c0.84,2.42,1.51,5.19,1.93,7.53c-0.26,2.16-0.63,4.44-1.49,6.45c-0.8,1.89-2.21,4.02-4.36,4.34c-3.85,0.34-7.73,0.29-11.6,0.18
		c-10.58-0.33-21.34-1.41-31.87-2.61c-0.94-0.12-1.89-0.23-2.87-0.32c-0.03-0.01-0.06-0.02-0.1-0.02c-2.81-0.22-5.65-0.49-8.49-0.82
		c0,0.03,0,0.07,0,0.1c0,0.02-0.01,0.04-0.01,0.06c-0.01,0-0.06-0.01-0.06-0.01c-0.13-0.02-0.29-0.04-0.43-0.04
		c-1.99-0.25-3.97-0.52-5.96-0.83c-0.21-0.08-0.42-0.16-0.63-0.25c-6.72-1.03-13.39-2.43-19.79-4.3
		c-9.07-2.59-17.97-5.99-26.28-10.47c-0.73-0.39-1.45-0.79-2.17-1.2c-0.26-0.15-0.53-0.3-0.79-0.45c-1.19-0.69-2.36-1.41-3.52-2.15
		c-0.02-0.01-0.03-0.03-0.05-0.04c-1.39-0.89-2.75-1.82-4.08-2.79c-0.11-0.08-0.23-0.16-0.35-0.25c-0.33-0.24-0.65-0.49-0.97-0.74
		c-0.56-0.44-1.11-0.9-1.57-1.28c-0.28-0.24-0.57-0.47-0.84-0.71c-0.21-0.37-1.39-2.44-1.39-2.44c-0.02-0.03-0.04-0.05-0.06-0.08
		c-4.68-8.96-7.27-20.54-7.55-31.01c-0.45-11.76,0.92-23.61,3.29-35.12c2.95-11.42,7.76-22.32,12.19-33.24
		c4.53-10.82,9.25-21.57,14.07-32.27c4.91,0,10.03,0.06,14.89,0.56c4.92,0.37,9.66,2.58,14.64,1.91L215.84,80.86z"/>
	<path class="st6" d="M247.62,316.76l-5.61,6.08c-4.12,4.46-14.45,15.12-18.8,19.64c-0.01,0.01-0.02,0.01-0.03,0.02l-1.06,1.09
		c-0.04,0.24-0.08,0.47-0.11,0.71c-0.44,4.43,0.8,9.23,5.18,11.18c1.51,0.73,3.18,1.13,4.88,1.37c0.25,0.04,0.44,0.19,0.55,0.39
		c0.16,0.02,0.32,0.04,0.49,0.06c8.16-8.14,16.88-16.65,25.41-24.42C255.35,328.31,250.77,321.54,247.62,316.76z"/>
	<path class="st6" d="M203.03,390.11c4.76,12.02,8.03,24.56,10.44,37.24c0.08,0.01,0.16,0.02,0.23,0.06
		c4.97,2.24,10.74,1.36,15.32-1.41c0.01-0.01,0.02-0.01,0.03-0.01l-0.71-1.74c0-0.01-0.01-0.02-0.01-0.03
		c-0.18-3.1-0.73-6.17-1.33-9.22c-1.25-6.09-2.8-12.11-4.43-18.11c-0.67-2.29-1.5-5.96-2.43-8.16L203.03,390.11z"/>
	<path class="st6" d="M220.67,388.6c0.08-0.01,0.15-0.04,0.22-0.07c-0.02-0.04-0.03-0.08-0.05-0.12
		C220.77,388.48,220.71,388.55,220.67,388.6z"/>
	<path class="st11" d="M213.22,108.4c0.38,0,0.71-0.08,1.09-0.29c0.05-0.03,0.07-0.08,0.06-0.13c-0.13-0.5-0.39-0.78-0.68-0.98
		c-0.29-0.21-0.68-0.12-1.03-0.13c-0.7-0.01-1.43,0.09-2.02,0.48c-0.06,0.04-0.02,0.14,0.05,0.14c0.61,0.06,1.18,0.3,1.73,0.54
		C212.7,108.14,212.91,108.41,213.22,108.4z"/>
	<path class="st11" d="M228,111.11c-0.44-0.14-0.88,0.05-1.32,0.11c-0.87,0.12-1.73,0.31-2.57,0.57c-0.07,0.02-0.07,0.13,0.01,0.15
		c0.85,0.18,1.7,0.34,2.55,0.47c0.94,0.29,1.66,0.28,2.54-0.35c0.05-0.03,0.06-0.1,0.03-0.15
		C228.88,111.43,228.43,111.24,228,111.11z"/>
	<path class="st11" d="M213.21,119.51c0.25,3.33,3.57,3.7,5.36,1.23c0.05-0.06-0.01-0.15-0.08-0.12c-0.46,0.11-1.03,0.27-1.48,0.37
		c-1.32,0.3-2.01-0.33-2.4-1.47c1.42-2.25,2.76-4.62,3.99-6.96c0.04-0.08-0.07-0.15-0.12-0.08c-0.64,0.82-1.92,2.48-2.56,3.3
		l-1.26,1.65c-0.42,0.54-0.86,1.1-1.3,1.58C213.23,119.14,213.18,119.33,213.21,119.51z"/>
	<path class="st11" d="M221.23,127.99c-2.42,1.26-5.06,0.03-7.29-1.01c-0.86-0.3-1.72-0.66-2.66-0.72
		c1.34,3.06,7.59,4.13,10.05,1.84C221.4,128.04,221.3,127.94,221.23,127.99z"/>
	<path class="st14" d="M213.23,92.4c-0.05,0.08,0.08,0.15,0.13,0.08c1.07-1.37,2.3-2.61,3.64-3.71c3.98-3.46,9-4.72,14.03-5.94
		c0.08-0.01,0.08-0.13,0-0.15C223.83,81.16,216.83,86.59,213.23,92.4z"/>
	<path class="st1" d="M282.12,228.92c5.82,2.32,9.86-4.39,10.03-9.42c0.01-0.09-0.13-0.1-0.15-0.02c-1.45,5.62-4.2,8.18-9.87,9.29
		C282.06,228.78,282.05,228.89,282.12,228.92z"/>
	<path class="st1" d="M194.77,78.52c0.2,0.22,0.25,0.52,0.44,0.62c0.19,0.12,0.41,0.18,0.83,0.5c0.04,0.04,0.1,0.04,0.15,0.01
		c0.43-0.34,0.43-0.93,0.24-1.35c-0.18-0.45-0.64-0.59-0.98-0.75c-0.67-0.32-1.38-0.43-2.11-0.41c-0.07,0-0.1,0.11-0.04,0.14
		C193.86,77.67,194.37,78.11,194.77,78.52z"/>
	<path class="st1" d="M205.75,81.62c-0.42,0.19-0.81,0.44-1.2,0.68c-0.7,0.54-1.69,1.08-2.1,1.89c-0.18,0.45-0.31,1.08,0.06,1.62
		c0.03,0.04,0.09,0.05,0.13,0.02c0.45-0.35,0.77-0.55,1.06-0.84c0.3-0.26,0.39-0.7,0.63-1.06c0.48-0.73,0.99-1.46,1.51-2.18
		c0.02-0.02,0.02-0.05,0.01-0.08C205.83,81.62,205.79,81.6,205.75,81.62z"/>
	<path class="st1" d="M184.98,96.26c0.03,0.04,0.1,0.04,0.14,0.01c0.22-0.2,0.4-0.1,0.58-0.14c0.19-0.01,0.42-0.06,0.63-0.15
		c1.21-0.7,1.92-2.21,2.25-3.52c0.02-0.07-0.08-0.13-0.13-0.07c-0.57,0.65-1.19,1.25-1.88,1.73c-0.61,0.31-1.14,0.52-1.51,1.17
		C184.89,95.55,184.75,96.01,184.98,96.26z"/>
	<path class="st1" d="M181.51,84.07c0.54,0.12,0.93,0.03,1.28-0.09c0.36-0.12,0.54-0.49,0.8-0.76c0.53-0.54,1.03-1.11,1.5-1.72
		c0.06-0.05,0-0.15-0.08-0.13c-0.71,0.24-1.41,0.52-2.08,0.85c-0.34,0.16-0.75,0.22-0.99,0.53c-0.25,0.3-0.46,0.65-0.52,1.19
		C181.42,84,181.45,84.06,181.51,84.07z"/>
	<path class="st1" d="M179.09,104.71c0.49-0.17,0.78-0.19,1.09-0.36c0.31-0.13,0.47-0.49,0.73-0.74l1.66-1.54
		c0.06-0.05,0.01-0.15-0.06-0.13c-0.78,0.14-1.53,0.36-2.26,0.69c-0.36,0.17-0.81,0.25-1.06,0.62c-0.27,0.39-0.49,0.94-0.25,1.43
		C178.97,104.72,179.04,104.73,179.09,104.71z"/>
	<path class="st1" d="M200.08,102.92c0.19,0.19,0.41,0.45,0.86,0.77c0.04,0.03,0.11,0.03,0.15-0.01c0.37-0.4,0.45-0.88,0.35-1.36
		c-0.1-0.5-0.59-0.79-0.92-1.01c-0.66-0.43-1.25-0.68-1.84-1.2c-0.06-0.05-0.15,0.01-0.13,0.08c0.18,0.72,0.71,1.43,1.15,1.98
		C199.91,102.45,199.89,102.74,200.08,102.92z"/>
	<path class="st1" d="M192.43,113.44c0.39-0.17,0.73-0.16,1.05-0.4c0.29-0.17,0.36-0.55,0.54-0.85c0.36-0.6,0.66-1.24,0.89-1.9
		c0.02-0.07-0.06-0.13-0.12-0.09c-0.57,0.39-1.13,0.78-1.67,1.21c-0.51,0.3-0.9,0.59-0.95,1.25
		C192.15,112.81,192.13,113.44,192.43,113.44z"/>
	<path class="st1" d="M195.71,122.2c-0.36,0.12-0.7,0.27-1.06,0.4c-1.03,0.51-2.06,0.56-2.35,1.6c-0.06,0.15-0.16,0.81,0.14,0.84
		c0.46-0.15,0.8-0.12,1.12-0.29c0.32-0.12,0.49-0.48,0.75-0.74c0.53-0.52,1.05-1.09,1.49-1.69c0.01-0.02,0.02-0.05,0.01-0.07
		C195.79,122.21,195.75,122.19,195.71,122.2z"/>
	<path class="st1" d="M184.3,124.28c0.05,0,0.09-0.04,0.1-0.09c0.03-0.66-0.07-1.15-0.2-1.63c-0.58-1.46-1.88-2.86-3.37-3.47
		c-0.03-0.01-0.06-0.01-0.08,0.01c-0.03,0.03-0.03,0.08-0.01,0.11c0.35,0.41,0.69,0.79,0.96,1.22c0.71,0.94,0.62,1.87,1.17,2.78
		C183.2,123.68,183.65,124.11,184.3,124.28z"/>
	<path class="st1" d="M195.79,133.86c0.66,0.07,1.24-0.17,1.71-0.53c0.48-0.35,0.67-0.92,0.93-1.39c0.52-0.95,0.91-1.94,1.26-2.95
		c0.03-0.07-0.08-0.13-0.13-0.08c-0.63,0.68-1.48,1.64-2.1,2.34c-0.87,0.75-1.35,1.33-1.76,2.5
		C195.7,133.81,195.74,133.86,195.79,133.86z"/>
	<path class="st1" d="M187.86,136.38c-0.69,0.51-1.28,1.13-1.73,1.88c-0.22,0.38-0.56,0.77-0.51,1.29c0.03,0.49,0.25,1.05,0.79,1.3
		c0.05,0.02,0.11,0,0.13-0.05c0.25-0.5,0.43-0.77,0.55-1.08c0.16-1.19,0.33-2.05,0.87-3.26
		C188.01,136.41,187.93,136.34,187.86,136.38z"/>
	<path class="st1" d="M180.09,133.57c0.64,0.86,0.75,1.05,1.84,1.63c0.05,0.03,0.12,0.01,0.14-0.05c0.81-2.29-2.34-3.27-4.07-3.1
		c-0.08,0.01-0.09,0.12-0.02,0.15C178.81,132.53,179.53,133.03,180.09,133.57z"/>
	<path class="st1" d="M171.95,124.96c-0.01-0.29-0.07-0.52-0.15-0.72c-0.17-0.62-0.57-0.88-1.06-1.23
		c-0.48-0.49-1.01-1.05-0.99-1.79c0.02-0.08-0.08-0.14-0.13-0.07c-0.53,0.76-0.23,1.8,0.16,2.55c0.2,0.38,0.35,0.84,0.73,1.06
		c0.37,0.23,0.79,0.37,1.35,0.31C171.91,125.06,171.95,125.02,171.95,124.96z"/>
	<path class="st1" d="M169.47,139.95c-0.43-0.27-0.93-0.51-1.38-0.75c-0.02,0-0.02-0.01-0.02-0.01c-0.01-0.03-0.05-0.07-0.1-0.07
		c-0.18,0.03-0.06,0.22-0.03,0.32c0.19,0.45,0.43,0.94,0.7,1.35c0.15,0.24,0.21,0.57,0.48,0.68c0.27,0.12,0.57,0.19,1.05,0.09
		c0.05-0.01,0.09-0.05,0.1-0.11c0.09-0.48,0-0.79-0.12-1.05C170.04,140.15,169.71,140.1,169.47,139.95z M167.98,139.3
		c0.07-0.01,0.09-0.04,0.09-0.07c0,0.01,0,0.01,0,0.02C168.05,139.33,167.93,139.31,167.98,139.3z"/>
	<path class="st1" d="M175.2,145.83c0.85-0.79,1.17-1.32,1.53-2.31c0.46-0.82,1.01-1.62,1.61-2.37c0.05-0.06-0.02-0.15-0.09-0.12
		c-0.92,0.44-1.76,1.03-2.48,1.78c-0.88,0.73-1.42,1.91-0.72,3C175.09,145.86,175.16,145.87,175.2,145.83z"/>
	<path class="st1" d="M182.53,151.07c0.05-0.06-0.02-0.15-0.09-0.12l-1.08,0.43c-0.9,0.43-2.59,0.71-2.28,2.14
		c0.04,0.18,0.31,0.79,0.56,0.65c0.39-0.4,0.61-0.62,0.78-0.7C181.04,152.68,181.9,151.95,182.53,151.07z"/>
	<path class="st1" d="M173.67,154.72c0.32-0.16,0.56,0.03,0.74,0.29c0.27,0.38,0.53,0.85,0.64,1.34c0.22,0.58,0.63,0.86,1.33,1.1
		c0.05,0.02,0.11-0.01,0.13-0.06c0.21-0.5,0.19-0.92,0.09-1.31c-0.09-0.4-0.46-0.64-0.75-0.92c-0.48-0.53-1.7-1.41-2.28-0.53
		C173.55,154.68,173.61,154.75,173.67,154.72z"/>
	<path class="st1" d="M164.58,151.38c0.06-0.05,0.01-0.15-0.07-0.13c-0.85,0.22-1.63,0.65-2.3,1.22c-0.83,0.53-1.33,1.36-0.97,2.4
		c0.02,0.05,0.08,0.08,0.13,0.06c0.98-0.34,1.36-0.82,1.72-1.68C163.53,152.59,164.01,151.94,164.58,151.38z"/>
	<path class="st1" d="M164.52,159.75c0.39,0.26,0.75,0.56,1.04,0.91c0.89,0.83,0.9,1.93,1.76,2.71c0.17,0.17,0.36,0.36,0.64,0.53
		c0.05,0.02,0.11,0,0.13-0.04c0.27-0.56,0.27-1.12,0.12-1.63c-0.12-0.53-0.59-0.89-0.95-1.25c-0.73-0.72-1.68-1.23-2.69-1.35
		C164.5,159.6,164.46,159.71,164.52,159.75z"/>
	<path class="st1" d="M166.25,167.57c-0.93,0.11-1.8-0.08-2.71,0.36c-0.75,0.4-0.67,1.56,0.04,1.93c0.04,0.03,0.1,0.02,0.14-0.02
		c0.36-0.36,0.55-0.63,0.69-0.68c0.06-0.03,0.05-0.02,0.06-0.1c0.01-0.07,0.07-0.18,0.18-0.25c0.5-0.32,1.21-0.66,1.66-1.11
		C166.37,167.65,166.32,167.56,166.25,167.57z"/>
	<path class="st1" d="M176.98,170.92c0.02,0.04,0.07,0.06,0.12,0.04c0.61-0.3,1.06-0.66,1.46-1.08c0.4-0.41,0.56-0.99,0.83-1.51
		c0.36-0.74,0.79-1.48,0.94-2.31c0.02-0.12-0.06-0.41-0.31-0.4c-0.41,0.09-0.6,0.45-0.81,0.67c-0.06,0.06,0.02,0.16,0.09,0.12
		c0.08-0.04,0.17-0.09,0.26-0.14c-0.7,0.95-1.64,1.74-2.23,2.75C177.09,169.59,176.86,170.19,176.98,170.92z M180.01,166.12
		c-0.01,0,0.02,0-0.01,0.01c0,0,0,0,0,0C180,166.12,180.01,166.12,180.01,166.12z"/>
	<path class="st1" d="M166.36,178.14c-0.04-0.07-0.14-0.04-0.14,0.04c-0.01,0.89,0.05,1.78,0.42,2.62c0.29,1,1.12,1.68,2.24,1.48
		c0.06-0.01,0.1-0.06,0.08-0.12c-0.2-1.01-0.6-1.42-1.31-1.98C167.14,179.59,166.75,178.84,166.36,178.14z"/>
	<path class="st1" d="M178.98,182.15c-0.96,0.22-1.99,0.46-2.71,1.26c-0.89,0.77-1.13,2.04-0.32,2.99c0.04,0.05,0.11,0.05,0.15,0
		c0.86-1.01,0.83-1.31,1.12-2.28c0.37-0.77,1.16-1.27,1.83-1.84C179.11,182.23,179.05,182.13,178.98,182.15z"/>
	<path class="st1" d="M168.59,196.01c-0.31-0.12-0.54,0.04-0.76-0.03c-0.51-0.28-1.42-0.86-2.12-0.86
		c-0.07-0.01-0.12,0.09-0.06,0.14c0.72,0.54,0.85,1.03,1.52,1.71c0.82,0.78,1.86,0.69,2.53-0.21c0.03-0.05,0.02-0.11-0.02-0.15
		C169.26,196.24,168.9,196.12,168.59,196.01z"/>
	<path class="st1" d="M178.77,196.98c-0.08,0.01-0.08,0.13,0,0.15c0.52,0.12,1.04,0.21,1.51,0.4c0.47,0.17,0.89,0.39,1.21,0.68
		c0.63,0.77,1.21,1.76,2.44,1.83c0.06,0,0.11-0.06,0.09-0.12C183.72,197.19,181.12,196.39,178.77,196.98z"/>
	<path class="st1" d="M176,202.65c-0.53-0.21-0.95-0.19-1.34-0.13c-0.39,0.05-0.66,0.39-0.96,0.55c-0.61,0.35-1.46,0.41-2.15,0.65
		c-0.07,0.02-0.07,0.13,0,0.15c0.84,0.19,1.6,0.51,2.5,0.34c0.44-0.08,0.89-0.06,1.21-0.32c0.32-0.25,0.61-0.56,0.8-1.09
		C176.08,202.73,176.05,202.67,176,202.65z"/>
	<path class="st1" d="M192.29,205.44c-0.05-0.03-0.13,0-0.14,0.06c-0.21,1.14-0.35,1.55-0.82,2.38c-0.81,0.91-2.18,1.24-3.41,1.28
		c-0.03,0-0.06,0.02-0.07,0.05c-0.01,0.04,0,0.08,0.04,0.1c0.58,0.22,1.22,0.31,1.87,0.31c1.32-0.03,3.2-0.69,3.41-2.22
		C193.27,206.57,192.9,205.83,192.29,205.44z"/>
	<path class="st1" d="M199.23,211.61c-0.07,0.01-0.08,0.12-0.01,0.15c0.63,0.26,1.36,0.54,1.83,0.97c0.1,0.1,0.15,0.22,0.18,0.32
		c0.12,0.3,0.51,0.69,0.97,1.07c0.05,0.03,0.11,0.03,0.15-0.01c0.37-0.4,0.5-0.82,0.41-1.35
		C202.29,211.37,200.39,211.37,199.23,211.61z"/>
	<path class="st1" d="M209.72,220.62c0.05-0.03,0.07-0.09,0.04-0.14c-0.42-0.84-1.07-1.23-1.8-1.37c-0.07-0.04-0.11,0-0.14-0.17
		c-0.02-0.63-0.29-1.45-0.77-1.85c-0.05-0.05-0.15,0-0.13,0.08c0.2,0.63,0.1,1.16-0.09,1.73c-0.07,0.25,0.01,0.72,0.22,0.98
		C207.79,220.88,208.62,221.1,209.72,220.62z"/>
	<path class="st1" d="M193.35,193.63c-0.67-0.12-1.44,0.43-1.59,1.07c-0.24,1.11,0.12,1.71-0.08,2.73c0,0.03,0.01,0.06,0.03,0.07
		c0.03,0.03,0.08,0.02,0.11-0.01c0.28-0.36,0.48-0.79,0.64-1.23c0.15-0.42,0.25-0.93,0.4-1.09c0.07-0.09,0.12-0.02,0.19-0.01
		c0.56-0.05,0.99-0.21,1.63-0.62c0.04-0.03,0.05-0.1,0.01-0.14C194.31,193.94,193.88,193.71,193.35,193.63z"/>
	<path class="st1" d="M185.31,190.21c-0.67-0.27-1.15-0.14-1.8-0.11c-0.07,0.01-0.09,0.11-0.03,0.15c0.22,0.14,0.52,0.28,0.79,0.43
		c-0.18,0.13-0.34,0.32-0.46,0.64c-0.23,1.02,0.69,1.61,1.55,1.43c0.05-0.01,0.09-0.06,0.09-0.11c-0.02-0.53-0.15-0.88-0.15-1.08
		c-0.01-0.1,0.02-0.07-0.04,0.02c-0.07,0.08-0.13,0-0.04-0.12c0.05-0.08,0.22-0.25,0.3-0.4
		C185.68,190.8,185.58,190.35,185.31,190.21z"/>
	<path class="st1" d="M188.2,181.73c0.52-0.26,0.92-0.78,1.13-1.48c0.01-0.06-0.02-0.11-0.08-0.13c-0.88-0.14-1.5-0.09-2.08,0.56
		c-0.57,0.71-0.28,1.63-0.16,2.35l0.24,1.27c0.01,0.08,0.13,0.08,0.15,0.01c0.28-0.75,0.43-1.74,0.61-2.46
		C188.07,181.7,188.12,181.75,188.2,181.73z"/>
	<path class="st1" d="M199.96,182.55c0.06,0.43,0.58,1.23,1.18,1.5c0.05,0.02,0.11-0.01,0.12-0.06c0.24-0.96,0.52-1.68-0.27-2.47
		c-0.4-0.31-0.79-0.32-1.07-0.33c-1.07,0-1.94,0.31-2.92,0.61c-0.07,0.02-0.06,0.14,0.01,0.15c0.88,0.14,1.91,0.19,2.73,0.41
		C199.93,182.4,200.01,182.52,199.96,182.55z"/>
	<path class="st1" d="M203.11,186.78c-0.47-0.13-0.95,0.11-1.26,0.46c-0.77,0.79-0.86,1.84-0.44,2.87c0.02,0.06,0.1,0.07,0.14,0.04
		c0.78-0.61,1.19-1.27,1.36-2.13l0.03-0.1c0,0-0.01-0.01-0.01-0.02c-0.05-0.02-0.04-0.01,0.01-0.04c0.39,0.03,0.9,0.1,1.3-0.08
		c0.59-0.25,0.94-0.69,1.24-1.11c0.05-0.07-0.04-0.15-0.1-0.11c-0.45,0.25-0.9,0.51-1.31,0.5
		C203.71,187.07,203.48,186.88,203.11,186.78z"/>
	<path class="st1" d="M190.11,170.87c0.39,0.16,0.81,0.24,1.36,0.11c0.05-0.01,0.09-0.07,0.08-0.12c-0.19-0.95-0.67-1.4-1.4-1.7
		c-0.03-0.02-0.07-0.04-0.06,0c-0.01,0.02-0.02,0.04-0.03,0.05c-0.08-0.01,0.13-0.38,0.18-0.58c0.13-0.5-0.01-0.97-0.21-1.32
		c-0.04-0.07-0.14-0.04-0.14,0.04c-0.03,0.4-0.1,0.75-0.32,0.96c-0.12,0.15-0.45,0.37-0.52,0.69c-0.1,0.28,0.01,0.63,0.15,0.86
		C189.49,170.34,189.71,170.71,190.11,170.87z"/>
	<path class="st1" d="M187.53,157.34c-0.15-0.52-0.35-0.82-0.53-1.07c-0.17-0.25-0.48-0.28-0.64-0.45c-0.22-0.2-0.16-0.36-0.28-0.6
		c0-0.06-0.28-0.28-0.45-0.24c-0.17,0.02-0.26,0.1-0.33,0.17c-0.12,0.15-0.71,0.94-0.83,1.11c-0.05,0.06,0.02,0.15,0.09,0.12
		c0.22-0.07,0.45-0.17,0.68-0.27c0.11,0.56,0.46,1.17,0.9,1.36c0.4,0.16,0.83,0.21,1.33,0C187.52,157.46,187.55,157.4,187.53,157.34
		z M185.76,155.89c-0.01,0-0.01,0-0.02,0c0.04-0.02,0.08-0.03,0.11-0.05C185.83,155.86,185.89,155.84,185.76,155.89z"/>
	<path class="st1" d="M200.34,164.77c0.06-0.06-0.01-0.15-0.08-0.12l-1.45,0.55c-0.48,0.18-0.95,0.36-1.43,0.56
		c-0.46,0.22-1.1,0.24-1.54,0.99c-0.36,0.69-0.19,1.38,0.28,1.92c0.04,0.03,0.1,0.02,0.13-0.02c0.39-0.52,0.6-0.98,0.81-1.05
		C197.94,166.75,199.43,165.74,200.34,164.77z"/>
	<path class="st1" d="M208.85,172.75c0.56-0.12,0.9-0.36,1.19-0.6c0.3-0.24,0.36-0.63,0.55-0.91c0.47-0.55,1.03-1.34,1.3-2.07
		c0.01-0.02,0.01-0.05-0.01-0.07c-0.02-0.03-0.07-0.04-0.11-0.02c-0.34,0.23-0.65,0.48-0.98,0.68c-0.6,0.41-1.63,0.82-1.97,1.54
		c-0.16,0.4-0.24,0.82-0.1,1.38C208.73,172.73,208.79,172.77,208.85,172.75z"/>
	<path class="st1" d="M215.97,164.71c0.29-0.71,0.43-1.58,0.59-2.29c0.04-0.16,0.13-0.28,0.2-0.33c0.16-0.15,0.5-0.73,0.72-1.21
		c0.02-0.05,0-0.11-0.05-0.14c-0.51-0.23-0.97-0.23-1.47,0.04c-1.22,0.84-0.24,2.74-0.13,3.91
		C215.83,164.77,215.94,164.78,215.97,164.71z"/>
	<path class="st1" d="M213.35,159.72c0.74-0.12,1.25-0.54,1.24-1.27c-0.15-0.95-0.6-1.46-0.65-2.49c-0.01-0.07-0.11-0.09-0.15-0.03
		c-0.37,0.57-0.59,1.39-0.54,2.05c-0.02,0.29-0.23,0.28-0.21,0.57c0,0.27-0.01,0.62,0.18,1.1
		C213.25,159.7,213.3,159.73,213.35,159.72z"/>
	<path class="st1" d="M201.23,155.68c1.04,0.67,1.97,1.72,2.77,2.72c0.05,0.06,0.15,0.01,0.13-0.07c-0.23-0.95-0.52-1.86-1.04-2.71
		c-0.26-0.42-0.51-0.97-1.09-1.2c-0.54-0.24-1.27-0.23-1.72,0.23c-0.04,0.04-0.04,0.11,0.01,0.15
		C200.78,155.18,200.99,155.43,201.23,155.68z"/>
	<path class="st1" d="M201.48,144.14c-0.63,1.2-1.01,2.22-0.88,3.65c0.02,0.04,0.08,0.06,0.12,0.04c1.29-0.67,1.78-2.01,1.89-3.33
		c0.22-1.22,0.46-2.29,1.87-2.5c0.08-0.01,0.08-0.14,0-0.15C202.9,141.5,201.94,142.84,201.48,144.14z"/>
	<path class="st1" d="M197.16,144.89c0.12-0.39,0.3-0.78,0.58-1.39c0.01-0.05-0.02-0.1-0.07-0.11c-0.66-0.13-1.34,0.2-1.77,0.72
		c-0.44,0.52-0.44,1.16-0.53,1.69c-0.19,1.07-0.3,2.11-0.46,3.18c0,0.03,0.01,0.06,0.04,0.07c0.04,0.02,0.08,0.01,0.1-0.02
		c0.29-0.46,0.54-0.94,0.79-1.43C196.21,146.7,196.76,145.69,197.16,144.89z"/>
	<path class="st1" d="M233.29,161.02c0.06,0.86-0.17,1.28,0.19,2.69c0.02,0.05,0.08,0.06,0.12,0.04c1.22-0.64,1.55-2.13,0.74-3.27
		c-0.75-1.16-2.09-1.13-3.24-0.87c-0.08,0.01-0.08,0.13,0,0.15C231.9,159.92,233.05,160.19,233.29,161.02z"/>
	<path class="st1" d="M226.61,168.29c0.4-0.39,0.57-0.7,0.76-0.85c0.18-0.16,0.1-0.34,0.32-0.48c0.54-0.37,1.58-0.31,2.12-0.76
		c0.05-0.05,0.01-0.13-0.06-0.12c-0.8,0.03-1.55-0.46-2.45-0.24c-0.52,0.07-1.21,0.45-1.31,1.04c-0.13,0.57,0.06,1.05,0.47,1.42
		C226.5,168.33,226.57,168.33,226.61,168.29z"/>
	<path class="st1" d="M223.46,174.53c0.35,0.36,0.55,0.84,0.74,1.01c0.07,0.09,0.17,0.12,0.22,0.36c0.05,0.22,0.03,0.64,0.26,0.93
		c0.04,0.04,0.1,0.03,0.14-0.01c0.53-0.45,1.03-1.03,0.76-1.84c-0.27-0.8-0.9-1.04-1.36-1.36c-0.96-0.61-1.98-0.99-3.02-1.34
		c-0.08-0.03-0.14,0.08-0.07,0.13C221.91,173.09,222.73,173.79,223.46,174.53z"/>
	<path class="st1" d="M231.05,176.76c-0.68,0.63-1.41,1.12-2.28,1.4c-0.41,0.16-0.92,0.07-1.47,0.62c-0.54,0.57-0.45,1.46,0.15,1.89
		c0.04,0.04,0.11,0.02,0.14-0.02c0.17-0.27,0.28-0.49,0.4-0.63c0.13-0.13,0.22-0.1,0.28-0.12c1.09-0.55,2.49-1.75,2.89-3.05
		C231.2,176.78,231.11,176.71,231.05,176.76z"/>
	<path class="st1" d="M224.92,187.44c-0.65,0.51-1.29,0.42-2.03,0.86c-0.4,0.23-0.88,0.62-0.92,1.11c-0.06,0.48,0.08,0.91,0.46,1.3
		c0.04,0.04,0.1,0.04,0.14,0.01c0.43-0.33,0.62-0.63,0.81-0.83c0.18-0.19,0.1-0.43,0.26-0.66c0.39-0.47,1.23-1.01,1.4-1.7
		C225.06,187.45,224.97,187.39,224.92,187.44z"/>
	<path class="st1" d="M231.05,193.97c-0.56,0.28-1.15,0.57-1.74,0.65c-0.41,0.02-0.7-0.12-1.14,0.27c-0.47,0.46-0.43,0.97-0.1,1.44
		c0.03,0.04,0.09,0.06,0.14,0.04c0.27-0.08,0.68-0.44,0.81-0.27c-0.04,0.11,0.38-0.18,0.72-0.38c0.67-0.39,1.1-1,1.42-1.66
		C231.19,194.01,231.12,193.94,231.05,193.97z"/>
	<path class="st1" d="M238.69,182.08c-0.47-0.92-1.7-0.78-2.47-0.44c-0.07,0.02-0.06,0.13,0.01,0.15c0.47,0.14,1.02,0.19,1.31,0.54
		c0.13,0.24,0.04,0.43,0.14,0.81c0.11,0.55,0.85,0.96,1.38,0.81c0.24-0.03,0.45-0.17,0.66-0.35c0.04-0.04,0.05-0.1,0.02-0.14
		c-0.31-0.44-0.59-0.68-0.62-0.83c-0.02-0.07-0.02-0.06-0.1-0.11C238.92,182.45,238.82,182.31,238.69,182.08z"/>
	<path class="st1" d="M250.97,175.62c0.26,0.32,0.42,0.73,0.8,0.93c0.37,0.2,0.77,0.35,1.35,0.32c0.06,0,0.1-0.05,0.1-0.11
		c-0.02-0.57-0.22-0.96-0.45-1.31c-0.23-0.35-0.66-0.48-1-0.71c-0.69-0.46-1.4-0.87-2.14-1.25c-0.07-0.03-0.14,0.05-0.1,0.11
		C249.97,174.3,250.45,174.97,250.97,175.62z"/>
	<path class="st1" d="M235.17,168.32c0.05,0.02,0.1-0.01,0.12-0.06c0.1-0.25,0.13-0.5,0.28-0.67c0.09-0.13,0.21-0.11,0.29-0.17
		c0.9-0.79,2.37-1.64,3.18-2.66c0.05-0.06-0.02-0.15-0.09-0.12c-0.77,0.37-1.9,0.71-2.71,0.97c-0.46,0.17-1.05,0.21-1.5,0.83
		C234.29,167.06,234.45,168.03,235.17,168.32z"/>
	<path class="st1" d="M235.68,192.38c-0.18,0.32-0.43,0.63-0.38,0.97c0.04,0.34,0.19,0.63,0.5,1.01c0.03,0.04,0.08,0.05,0.12,0.03
		c0.49-0.2,0.69-0.55,0.84-0.81c0.15-0.27,0.01-0.56,0.03-0.82c0.04-0.55,0.18-0.96,0.76-1.18c0.07-0.02,0.07-0.12,0-0.15
		C236.86,191.13,235.96,191.72,235.68,192.38z"/>
	<path class="st1" d="M245.22,190.19c0.02,0.02,0.05,0.01,0.07,0l1.2,1.12c0.42,0.39,0.76,0.89,1.28,1.15
		c0.52,0.27,1.09,0.51,1.8,0.52c0.05-0.01,0.08-0.06,0.06-0.11c-0.2-0.68-0.56-1.16-0.95-1.59c-0.39-0.44-0.97-0.63-1.47-0.93
		c-0.62-0.37-1.28-0.73-1.96-1.02c-0.17-0.06-0.32-0.15-0.52-0.14c-0.04,0-0.18,0.05-0.21,0.15c-0.04,0.13-0.02,0.14-0.01,0.18
		C244.65,189.84,244.97,189.99,245.22,190.19z M244.95,189.47c-0.01-0.03-0.02-0.04-0.01-0.04
		C244.95,189.44,244.95,189.45,244.95,189.47z"/>
	<path class="st1" d="M253.51,192.19c-0.61,0.42-0.6,1.42,0.03,1.84c0.04,0.03,0.11,0.03,0.15-0.01c0.39-0.34,0.59-0.52,0.75-0.61
		c0.16-0.07,0.12-0.32,0.31-0.53c0.4-0.43,0.98-0.85,1.41-1.3c0.05-0.05,0-0.14-0.07-0.13
		C255.19,191.56,254.31,191.67,253.51,192.19z"/>
	<path class="st1" d="M253.23,184.56c0.63-0.67,1.28-1.32,1.99-1.88c0.88-0.5,1.36-0.95,1.83-1.94c0.03-0.05,0.02-0.12-0.04-0.14
		c-1.17-0.39-2.13,0.33-2.65,1.27c-0.58,0.79-0.98,1.69-1.25,2.62C253.08,184.56,253.18,184.61,253.23,184.56z"/>
	<path class="st1" d="M265.97,196.35c0.42-0.38,0.66-0.42,0.86-0.47c0.2-0.03,0.36-0.33,0.68-0.49c0.65-0.33,1.43-0.57,2.09-0.97
		c0.06-0.04,0.03-0.14-0.04-0.14c-0.77-0.01-1.53-0.15-2.38-0.03c-0.41,0.06-0.97,0.05-1.34,0.53c-0.39,0.45-0.44,1.18-0.01,1.56
		C265.86,196.39,265.93,196.39,265.97,196.35z"/>
	<path class="st1" d="M272.69,200.31c0.46-0.34,0.89-0.8,1-1.12c-0.01-0.07,0.02-0.15,0.14-0.23c0.64-0.26,1.55-0.75,1.97-1.38
		c0.05-0.06-0.02-0.15-0.09-0.12c-0.8,0.33-1.37,0.28-2.25,0.37c-0.51,0.05-1.21,0.48-1.29,1.08c-0.08,0.51,0.03,0.94,0.37,1.38
		C272.58,200.33,272.64,200.34,272.69,200.31z"/>
	<path class="st1" d="M274.58,208.32c-0.42,0.66-0.1,1.47,0.67,1.61c0.05,0.02,0.11-0.02,0.13-0.07c0.08-0.28,0.09-0.55,0.17-0.66
		c0.09-0.12,0.12,0.08,0.22,0.01c0.69-0.75,1.66-1.81,2.37-2.66c0.05-0.06-0.02-0.15-0.09-0.12c-0.79,0.31-1.56,0.64-2.31,1.05
		C275.36,207.69,274.9,207.75,274.58,208.32z"/>
	<path class="st1" d="M273.44,212.29c0.39,0.84,0.59,0.99,1.49,1.47c0.05,0.03,0.11,0.03,0.15-0.02c0.33-0.49,0.26-1,0.11-1.41
		c-0.15-0.44-0.59-0.65-0.93-0.89c-0.66-0.48-1.44-0.75-2.22-0.89c-0.07-0.01-0.12,0.08-0.06,0.13
		C272.52,211.18,273.03,211.71,273.44,212.29z"/>
	<path class="st1" d="M262.9,215.39c0.04-0.06-0.03-0.14-0.09-0.11c-0.83,0.36-1.66,0.1-2.57,0.39c-0.52,0.13-1.15,0.4-1.36,0.96
		c-0.22,0.56-0.14,1.14,0.22,1.6c0.04,0.04,0.1,0.05,0.14,0.01c0.45-0.38,0.69-0.67,0.91-0.84c0.24-0.18,0.29-0.47,0.56-0.64
		C261.36,216.32,262.39,216.1,262.9,215.39z"/>
	<path class="st1" d="M252.49,209.12c-0.02-0.01-0.05,0-0.07,0.01c-0.03,0.03-0.04,0.08-0.01,0.11c0.25,0.32,0.52,0.61,0.74,0.92
		c0.23,0.3,0.43,0.6,0.56,0.88c0.13,0.29,0.05,0.62,0.24,0.91c0.18,0.3,0.4,0.64,0.85,0.96c0.05,0.03,0.11,0.02,0.15-0.02
		c0.35-0.44,0.45-0.87,0.43-1.32C255.14,210.25,253.63,209.51,252.49,209.12z"/>
	<path class="st1" d="M244.38,208.46c-0.93,0.37-0.94,1.22-1.32,1.89c-0.16,0.25-0.26,0.18-0.58,0.12c-1.04-0.2-1.05-1.32-1.53-2.31
		c-0.04-0.08-0.16-0.04-0.14,0.04c0.07,0.42,0.1,0.84,0.15,1.28c0.05,0.42,0.16,0.96,0.56,1.35c0.6,0.59,1.75,0.99,2.38,0.2
		c0.33-0.36,0.48-0.8,0.75-1.11c0.1-0.11,0.17-0.1,0.13-0.06c-0.08,0.05,0.44,0.18,0.55,0.28c0.57,0.29,1.18,0.9,1.71,1.58
		c0.04,0.01,0.08-0.01,0.1-0.05C247.58,210.11,246.16,208.06,244.38,208.46z"/>
	<path class="st1" d="M249.62,201.12c-1.12,0.13-1.98,0.78-3.03,0.14c-0.07-0.04-0.15,0.04-0.1,0.11c0.23,0.38,0.61,0.72,1.09,0.91
		c0.65,0.28,1.34,0.07,1.89,0.31c0.1,0.07,0.12,0.07,0.2,0.08c0.18,0,0.52,0.27,1.03,0.54c0.05,0.02,0.11,0,0.13-0.05
		c0.12-0.27,0.2-0.53,0.15-0.81C250.96,201.71,250.26,201.04,249.62,201.12z"/>
	<path class="st1" d="M243.05,221.86c-0.49-0.21-0.96-0.02-1.39,0.06c-0.85,0.17-1.63,0.47-2.4,0.84c-0.07,0.03-0.05,0.14,0.03,0.15
		c0,0,1.24,0.1,1.24,0.1c1.06,0.01,1.65,0.28,2.23,0.31c0.33-0.03,0.6-0.11,1.17-0.14c0.06,0,0.11-0.05,0.1-0.11
		C244.01,222.46,243.51,222.03,243.05,221.86z"/>
	<path class="st1" d="M264.15,224.48c-0.03,0.05-0.09,0.07-0.14-0.02c-0.07-0.34-0.08-0.98-0.49-1.23c-0.41-0.26-0.78-0.23-1.2-0.18
		c-0.08,0-0.1,0.12-0.02,0.15c0.3,0.17,0.65,0.35,0.69,0.56c-0.1,0.5-0.36,1.07,0.03,1.67c0.44,0.69,1.38,0.68,1.97,0.15
		c0.04-0.03,0.05-0.09,0.02-0.14c-0.21-0.38-0.48-0.61-0.71-0.87C264.22,224.48,264.18,224.45,264.15,224.48z"/>
	<path class="st1" d="M282.09,222.01c0.15,0.15,0.15,0.42,0.48,0.58c0.29,0.15,0.81,0.32,1.24,0c0.04-0.03,0.06-0.09,0.04-0.14
		c-0.16-0.48-0.13-0.69-0.28-0.95c-0.12-0.26-0.54-0.41-0.94-0.54c-0.75-0.26-1.48,0.02-2.05,0.44c-0.06,0.04-0.03,0.14,0.04,0.14
		C281.14,221.58,281.75,221.64,282.09,222.01z"/>
	<path class="st1" d="M287.85,216.04c0.05-0.03,0.06-0.1,0.02-0.15c-0.33-0.46-0.63-0.73-0.72-0.92c-0.05-0.09-0.09-0.13-0.19-0.21
		c-0.63-0.67-0.8-1.78-1.27-2.6c-0.03-0.07-0.14-0.05-0.15,0.03c-0.07,1.11-0.19,2.18,0.14,3.29
		C285.97,216.36,287.21,216.59,287.85,216.04z"/>
	<path class="st3" d="M231.82,366.86c0.02-2.86-0.24-5.75-0.57-8.6c-8.28-1.31-11.61-7.25-10.24-15.17
		c-1.22,0.34-2.43,0.75-3.62,1.22c1.38,6.88,1.82,13.84,2.32,20.81c0.26,4.05,0.44,8.1,0.6,12.15c0.17,0.06,0.31,0.19,0.35,0.37
		c0.02,2.55,0.06,6.11-0.02,8.94c0.2,0.74,1.28,4.77,1.27,4.76C229.42,385.33,231.95,376.18,231.82,366.86z"/>
	<path class="st3" d="M231.38,435.37c-0.25-2.79-1.39-5.45-2.34-8.09c-4.57,2.95-10.57,3.82-15.65,1.66l-3.96,1.36
		c-8.73,3.36-19.66,9-22.16,18.76l10.37,0.08c9.63-1.54,19.51-4.32,28.89-7.1C229.71,441.61,231.52,438.37,231.38,435.37z"/>
	<path class="st3" d="M213.65,428.84c0.1-0.03,0.19-0.08,0.27-0.16C213.92,428.67,213.71,428.8,213.65,428.84z"/>
	<path class="st10" d="M246.12,311.88l2.21,3.47l10.88,17.14l5.5,8.67c2.16-1.93,4.27-3.91,6.28-5.92
		c-10.27-10.69-17.13-21.25-20.56-27.12C248.67,309.9,246.97,311.24,246.12,311.88z"/>
	<path class="st10" d="M220.47,387.88c-0.32-2.62-0.63-6.53-0.86-9.38c-8.64,2.51-17.56,4.01-26.55,4.38
		c0.43,2.31,0.73,4.67,0.62,7.05C201.45,389.24,212.78,388.44,220.47,387.88z"/>
</g>
</svg>
