<?xml version="1.0" encoding="utf-8"?>
<!-- Generator: Adobe Illustrator 27.1.0, SVG Export Plug-In . SVG Version: 6.00 Build 0)  -->
<svg version="1.1" id="Capa_1" xmlns="http://www.w3.org/2000/svg" xmlns:xlink="http://www.w3.org/1999/xlink" x="0px" y="0px"
	 width="150px" height="150px" viewBox="0 0 150 150" style="enable-background:new 0 0 150 150;" xml:space="preserve">
<style type="text/css">
	.st0{fill:none;}
	.st1{fill:#FFFFFF;}
	.st2{fill:#F2B705;}
	.st3{fill:#040423;}
	.st4{fill:#8C1F33;}
	.st5{fill:#5BA566;}
	.st6{fill:#F2E3CC;}
	.st7{fill:#F15A24;}
	.st8{fill:#400101;}
	.st9{fill:#FCFCFC;}
	.st10{fill:#122B05;}
	.st11{fill:#472FAD;}
	.st12{fill:#A64F03;}
	.st13{fill:#D98E04;}
	.st14{fill:#F2F2F2;}
	.st15{fill:#2FD812;}
	.st16{fill:#AA8D30;}
	.st17{fill:#B0EAB7;}
	.st18{fill:#111147;}
	.st19{fill:none;stroke:#472FAD;stroke-width:0;stroke-linecap:round;stroke-linejoin:round;}
	.st20{fill:#F2B705;stroke:#472FAD;stroke-miterlimit:10;}
	.st21{fill:#231A56;}
	.st22{fill:#EA0070;}
	.st23{fill:#158035;}
	.st24{fill:#F9B331;}
	.st25{opacity:0.4;}
	.st26{fill:#0F0E0D;}
	.st27{fill:#E0245E;}
	.st28{fill:#050535;}
	.st29{fill:#F2EBDF;}
</style>
<g>
	<path class="st0" d="M114.44,25.14c0.06-0.01,0.12-0.03,0.19-0.04l-0.2-0.02L114.44,25.14z"/>
	<path class="st0" d="M99.01,18.26c-0.25,0.37-0.38,0.61-0.39,0.62c0,0-0.09,0.21-0.2,0.56L99.01,18.26z"/>
	<path class="st1" d="M114.69,14.03l0.25-0.4l-2.12-2.12l-1.06,0.87C113.03,12.78,113.98,13.4,114.69,14.03z"/>
	<path class="st1" d="M120.08,66.23c0-0.85-0.52-1.54-1.81-2.38c-0.33-0.21-0.43-0.21-0.44-0.21c-0.03,0.08,0.02,0.56,0.06,0.95
		c0.06,0.57,0.13,1.34,0.08,2.2c-0.12,1.95,0.42,2.38,0.5,2.44c0.3,0.06,1.09,0.13,1.37-0.18c0.3-0.33,0.27-1.42,0.25-2.22
		C120.09,66.62,120.08,66.41,120.08,66.23z"/>
	<path class="st1" d="M112.02,59.62c-0.03-0.56-0.2-0.96-0.51-1.19c-0.43-0.32-1.04-0.25-1.29-0.2c0.58,0.76,1.14,1.54,1.68,2.33
		C111.93,60.52,112.06,60.35,112.02,59.62z"/>
	<path class="st1" d="M122.31,61.08c0.48,0.43,1.46,0.33,1.87,0.15c0.46-0.2,0.58-0.94,0.69-1.74c-0.07-0.85-0.16-1.66-0.28-2.42
		c-0.25-0.32-0.5-0.53-0.51-0.53c-1.27-1.02-1.79-0.98-1.99-0.86c-0.4,0.24-0.32,1.21-0.26,1.53c0.02,0.1-0.03,0.19-0.11,0.24
		c-0.08,0.05-0.19,0.04-0.27-0.03c-0.76-0.66-1.71-0.66-2.25-0.32c-0.5,0.32-0.68,0.91-0.49,1.62c0.11,0.4,0.32,0.67,0.64,0.83
		c0.94,0.46,2.49-0.18,2.5-0.19c0.03-0.01,0.06-0.02,0.09-0.02c0.06,0,0.11,0.02,0.16,0.06c0.07,0.06,0.09,0.16,0.06,0.24
		C121.95,60.31,121.99,60.79,122.31,61.08z"/>
	<path class="st1" d="M118.8,50.68c0.09,0.03,0.15,0.11,0.16,0.2c0.05,0.64,0.24,1.19,0.36,1.22c0,0,0.03,0,0.06-0.03
		c0.3-0.23,0.3-0.23,0.31-0.54c0-0.25,0-0.67,0.1-1.41c0.22-1.67-0.72-2.11-0.76-2.13c-0.02-0.01-0.04-0.02-0.06-0.04
		c-0.53-0.45-1.39-1-1.89-1c-0.07,0-0.14,0.01-0.19,0.04c-0.22,0.11-0.26,0.48-0.26,0.78C116.68,49.97,118.78,50.68,118.8,50.68z"/>
	<path class="st1" d="M93.55,66.64c0.05,0,1.02-0.08,1.98-1.52c0.13-0.2,0.17-0.36,0.1-0.47c-0.25-0.43-1.78-0.53-2.83-0.46
		L89.41,67c-0.05,0.21-0.16,1.02,0.83,1.82c0.03,0.02,0.05,0.05,0.06,0.08c0.01,0.02,1,2.15,2.47,2.24c1.39,0.08,1.59-0.43,1.6-0.43
		c0-0.02,0.19-0.85-0.69-1.58c-0.07-0.06-0.1-0.15-0.08-0.23c0.02-0.09,0.09-0.15,0.18-0.17c0.68-0.14,1.45-0.47,1.46-0.7
		c0-0.04-0.03-0.4-1.76-0.93c-0.11-0.03-0.18-0.14-0.16-0.25C93.35,66.73,93.44,66.65,93.55,66.64z"/>
	<path class="st1" d="M115.89,77.79c0.03-0.08,0.1-0.14,0.19-0.15c0.33-0.04,0.85-0.18,0.98-0.37c0.04-0.06,0.09-0.11,0.15-0.17
		c0.05-0.05,0.11-0.11,0.15-0.19c-0.27-1.02-0.57-2.02-0.9-3.01c-0.04-0.02-0.08-0.04-0.13-0.05c-0.71-0.12-1.73,0.91-2.07,1.32
		c-0.08,0.1-0.22,0.11-0.32,0.04c-1.8-1.39-2.27-1.23-2.37-1.15c-0.34,0.27,0.09,1.69,0.49,2.56c0.03,0.07,0.03,0.14-0.01,0.2
		c-0.03,0.06-0.09,0.11-0.16,0.12c-0.5,0.09-0.84,0.35-0.94,0.73c-0.14,0.5,0.13,1.12,0.68,1.59c0.28,0.23,0.57,0.34,0.87,0.32
		c0.6-0.05,1.05-0.58,1.05-0.58c0.04-0.05,0.11-0.08,0.18-0.08c0.02,0,0.04,0,0.07,0.01c0.09,0.03,0.15,0.1,0.16,0.19
		c0,0,0.07,0.52,0.51,0.83c0.34,0.24,0.83,0.3,1.44,0.16c0.42-0.09,0.66-0.26,0.73-0.49c0.16-0.51-0.47-1.34-0.71-1.59
		C115.88,77.97,115.86,77.87,115.89,77.79z"/>
	<path class="st1" d="M107.36,62.6c0.07,0.61,0.09,0.74,0.71,1c0.75,0.32,1.02,0,1.59-0.81l0.18-0.25c0.04-0.05,0.1-0.09,0.17-0.1
		c0.07-0.01,0.13,0.02,0.18,0.07c0.44,0.44,0.92,0.73,1.04,0.69c0.02-0.03,0.03-0.12,0.03-0.23c-0.67-1.07-1.38-2.1-2.13-3.11
		c-0.03-0.01-0.05-0.01-0.08-0.02c-0.08,0.02-0.28,0.08-0.53,0.17l-1.34,1.55c0,0,0,0,0,0C107.29,62,107.33,62.33,107.36,62.6z"/>
	<g>
		<path class="st6" d="M83.82,59.09c0.49,1.31,0.64,1.68,3.59,4.64c1.06-0.99,3.91-3.67,4.85-4.56l-4.49-7.69
			c-0.18-0.06-0.45-0.12-0.59-0.03c-0.12,0.07-0.17,0.27-0.19,0.44l2.03,3.19c0.06,0.06,0.1,0.13,0.15,0.2
			c0.43,0.71-0.24,1.44-0.76,1.78c-0.52,0.35-1.06,0.75-1.69,0.82c0.72-0.3,1.5-1.16,1.8-1.84c0.06-0.2-0.06-0.28-0.13-0.3
			l-0.13-0.14l-2.13-3.35c0-0.01,0-0.02-0.01-0.02c-0.01-0.01-0.01-0.02-0.02-0.03l-0.92-1.95c-0.13-0.16-0.31-0.32-0.41-0.35
			c-0.03,0.04-0.09,0.16-0.15,0.43l2.12,5.03c0.03,0.06-0.07,0.11-0.1,0.05l-2.91-4.82c-0.02-0.04-0.04-0.07-0.05-0.11
			c-0.03-0.07-0.06-0.15-0.1-0.22c-0.02,0.09-0.05,0.21-0.07,0.36l0.76,1.73c0,0,0,0,0,0c0,0,0,0,0,0.01l1.13,3.88l-1.97-3.5
			c0,0-0.01-0.01-0.01-0.01c-0.1-0.23-0.22-0.46-0.34-0.65c0.01,0.41,0.08,1.09,0.24,2.18l1.51,4.08l-2.18-3.46
			c-0.03,0.02-0.07,0.05-0.09,0.09c-0.08,0.13-0.29,0.67,0.47,2.31C83.43,58.07,83.64,58.64,83.82,59.09z"/>
	</g>
	<path class="st1" d="M106.81,62l-0.03,0.04l0.04-0.01C106.81,62.01,106.81,62.01,106.81,62z"/>
	<path class="st1" d="M116.54,78.02c0.01,0.01,0.02,0.03,0.03,0.04l-0.01-0.05C116.55,78.02,116.55,78.02,116.54,78.02z"/>
	<path class="st1" d="M103.51,76.28c-0.22-0.86-0.51-1.34-0.81-1.37c-0.53-0.05-1.29,1.23-1.57,1.85c-0.04,0.09-0.14,0.14-0.23,0.14
		c-0.1-0.01-0.18-0.08-0.2-0.18c-0.16-0.75-0.57-1.36-0.93-1.41c-0.34-0.04-0.62,0.44-0.77,0.72c-0.26,0.52-0.32,0.97-0.18,1.32
		c0.17,0.43,0.61,0.59,0.61,0.59c0.11,0.04,0.18,0.15,0.15,0.27l-0.1,0.44c0.92,0.87,1.91,1.83,2.92,2.81
		c0.43,0.31,0.92,0.6,1.39,0.73c0.25,0.07,0.45,0.04,0.62-0.09c0.44-0.32,0.58-1.21,0.59-1.53c0-0.07,0.04-0.14,0.1-0.18
		c0.72-0.51,1.08-1.04,1.09-1.59c0-0.85-0.88-1.49-0.89-1.49c-0.06-0.05-0.1-0.12-0.1-0.2c0-0.08,0.05-0.15,0.11-0.19
		c0.66-0.38,1.05-0.86,1.14-1.4c0.14-0.84-0.44-1.64-0.58-1.82c-0.46-0.21-0.82-0.22-1.11-0.04c-0.7,0.45-0.82,2-0.81,2.57
		c0,0.12-0.08,0.22-0.2,0.23C103.65,76.47,103.54,76.4,103.51,76.28z"/>
	<path class="st1" d="M103.58,75.15c0-0.03,0.01-0.06,0.02-0.09l-0.1-0.04C103.52,75.06,103.55,75.1,103.58,75.15z"/>
	<path class="st1" d="M103.57,82.6c0.01,0.01,0.02,0.02,0.04,0.03l0.03-0.02C103.61,82.61,103.59,82.6,103.57,82.6z"/>
	<path class="st7" d="M117.44,77.55c-0.18,0.25-0.57,0.39-0.88,0.47l0.01,0.05c0.24,0.32,0.53,0.81,0.56,1.29h0h0
		c0.01,0.13,0,0.26-0.04,0.39c-0.13,0.4-0.49,0.67-1.08,0.8c-0.25,0.06-0.49,0.08-0.71,0.08c-0.43,0-0.8-0.11-1.1-0.32
		c-0.31-0.22-0.49-0.51-0.58-0.75c-0.24,0.2-0.62,0.43-1.07,0.47c-0.43,0.04-0.83-0.11-1.21-0.42c-0.7-0.59-1.01-1.38-0.83-2.06
		c0.13-0.48,0.5-0.83,1.02-1c-0.3-0.7-0.89-2.34-0.25-2.85c0.47-0.37,1.35-0.05,2.76,1.02c0.37-0.42,1.33-1.38,2.23-1.33
		c-1.21-3.51-2.79-6.83-4.7-9.92c-0.05,0.07-0.11,0.13-0.19,0.16c-0.4,0.15-0.99-0.3-1.33-0.61l-0.02,0.03
		c-0.42,0.6-0.8,1.13-1.46,1.13c-0.2,0-0.43-0.05-0.69-0.16c-0.83-0.35-0.91-0.67-0.99-1.37c-0.02-0.18-0.05-0.38-0.09-0.63
		l-0.04,0.01l-0.95,1.09c-0.11,0.13-0.28,0.18-0.44,0.15l-9.75-2.08c-0.12-0.02-0.22-0.09-0.29-0.19c-0.01-0.01-0.03-0.04-0.07-0.09
		c-0.67,0.92-1.59,1.91-2.51,2.82c0.58-0.04,2.79-0.13,3.27,0.69c0.11,0.19,0.18,0.51-0.12,0.96c-0.57,0.86-1.16,1.29-1.61,1.51
		c0.99,0.37,1.42,0.74,1.4,1.17c-0.03,0.54-0.85,0.87-1.42,1.03c0.75,0.84,0.54,1.72,0.53,1.76c-0.03,0.09-0.27,0.78-1.75,0.78
		c-0.1,0-0.21,0-0.32-0.01c-0.24-0.01-0.47-0.08-0.68-0.16c0.84,1.09,1.91,2.36,3.65,3.79c0.66,0.54,1.63,1.42,2.78,2.49
		c-0.04-0.06-0.08-0.13-0.11-0.21c-0.2-0.48-0.13-1.05,0.19-1.7c0.44-0.88,0.92-1.02,1.24-0.98c0.51,0.06,0.91,0.6,1.15,1.2
		c0.36-0.65,1.04-1.66,1.77-1.6c0.29,0.03,0.55,0.22,0.76,0.56l0.1,0.04c0.12-0.67,0.37-1.43,0.92-1.79
		c0.44-0.28,0.97-0.27,1.6,0.03c0.03,0.01,0.05,0.03,0.07,0.06c0.04,0.04,0.91,1.07,0.71,2.23c-0.1,0.61-0.47,1.13-1.09,1.56
		c0.32,0.3,0.83,0.89,0.83,1.65c0,0.68-0.4,1.32-1.19,1.91c-0.03,0.34-0.18,1.33-0.77,1.77c-0.19,0.14-0.41,0.21-0.65,0.21
		c-0.12,0-0.24-0.02-0.37-0.05c-0.01,0-0.03-0.01-0.04-0.01l-0.03,0.02c3.03,2.97,5.99,5.94,7.29,7.31c0.42,0.44,0.97,0.69,1.53,0.7
		c1.06,0.02,2.08-0.46,3.52-1.62c0.82-0.66,1.92-1.99,2.94-3.52c-0.25-2.75-0.71-5.43-1.38-8.03
		C117.48,77.5,117.46,77.52,117.44,77.55z M102.01,69.43c-0.02,0-0.03,0-0.05,0c-0.03,0-0.06-0.01-0.08-0.02
		c-0.24-0.09-2.27-0.92-2.28-2c-0.34-0.31-1.45-1.45-0.91-2.57c0.34-0.71,0.72-1.07,1.16-1.11c0.49-0.04,1,0.31,1.56,1.08
		c0.54,0.73,0.92,0.89,1.21,1c0.28,0.11,0.54,0.21,0.57,0.76c0.01,0.11,0.02,0.24,0.03,0.38C103.31,67.76,103.45,69.13,102.01,69.43
		z"/>
	<path class="st7" d="M94.95,60.57c-0.15-0.15-0.36-0.31-0.6-0.47l-0.8-0.39c-0.26-0.09-0.55-0.16-0.88-0.2
		c-0.03,0-0.05-0.02-0.07-0.03c-0.92,0.86-3.81,3.59-4.88,4.58l1.76,2.03C90.77,65,93.5,62.57,94.95,60.57z"/>
	<path class="st11" d="M76.62,94.15c1.14-0.94,1.86-2.35,1.86-3.94c0-2.82-2.29-5.11-5.11-5.11c-0.32,0-0.63,0.03-0.93,0.09
		L57.89,70.16c-0.18-0.18-0.46-0.22-0.68-0.07c-0.24,0.17-0.3,0.5-0.14,0.74l11.72,17.13c-0.34,0.68-0.53,1.45-0.53,2.26
		c0,2.72,2.13,4.94,4.81,5.09c1.06,4.1,3.11,11.98,3.11,11.98c0.12,0.5,0.88,0.38,0.86-0.12L76.62,94.15z"/>
	<path class="st11" d="M49.98,51.92c-0.31-0.4-0.89-0.48-1.29-0.17c-0.4,0.31-0.48,0.89-0.17,1.29l4.75,6.16
		c0.18,0.24,0.46,0.36,0.73,0.36c0.2,0,0.4-0.06,0.56-0.19c0.4-0.31,0.48-0.89,0.17-1.29L49.98,51.92z"/>
	<path class="st11" d="M71.5,54.08c0.51,0,0.92-0.41,0.92-0.92v-7.49c0-0.51-0.41-0.92-0.92-0.92s-0.92,0.41-0.92,0.92v7.49
		C70.58,53.66,70.99,54.08,71.5,54.08z"/>
	<path class="st11" d="M93.33,58.01c0.16,0.1,0.33,0.15,0.5,0.15c0.3,0,0.6-0.15,0.77-0.42l3.78-5.79c0.28-0.43,0.16-1-0.27-1.28
		c-0.43-0.28-1-0.16-1.28,0.27l-3.78,5.79C92.78,57.16,92.9,57.73,93.33,58.01z"/>
	<path class="st11" d="M113.76,99.72l-8.7-2.62c-0.49-0.15-1,0.13-1.15,0.62c-0.15,0.49,0.13,1,0.62,1.15l8.7,2.62
		c0.09,0.03,0.18,0.04,0.27,0.04c0.4,0,0.76-0.26,0.88-0.66C114.52,100.38,114.24,99.87,113.76,99.72z"/>
	<path class="st11" d="M99.72,112.69c-0.35-0.37-0.93-0.39-1.3-0.05c-0.37,0.35-0.39,0.93-0.05,1.3l6.03,6.48
		c0.18,0.2,0.43,0.29,0.68,0.29c0.23,0,0.45-0.08,0.63-0.25c0.37-0.35,0.39-0.93,0.05-1.3L99.72,112.69z"/>
	<path class="st11" d="M77.88,124.63c-0.51,0-0.92,0.41-0.92,0.92v8.46c0,0.51,0.41,0.92,0.92,0.92c0.51,0,0.92-0.41,0.92-0.92
		v-8.46C78.81,125.05,78.39,124.63,77.88,124.63z"/>
	<path class="st11" d="M37.75,87.54h-9.87c-0.51,0-0.92,0.41-0.92,0.92c0,0.51,0.41,0.92,0.92,0.92h9.87c0.51,0,0.92-0.41,0.92-0.92
		C38.67,87.95,38.26,87.54,37.75,87.54z"/>
	<path class="st11" d="M41.78,69.66l-7.42-3.47c-0.46-0.22-1.01-0.02-1.23,0.45c-0.22,0.46-0.02,1.01,0.45,1.23l7.42,3.47
		c0.13,0.06,0.26,0.09,0.39,0.09c0.35,0,0.68-0.2,0.84-0.53C42.44,70.42,42.24,69.87,41.78,69.66z"/>
	<path class="st11" d="M128.42,54.15c0.1,0,0.2,0.01,0.3,0.01c1.52,0,2.74-0.51,3.62-1.53c2.48-2.86,1.41-8.69,1.37-8.94
		c-0.02-0.13-0.14-0.21-0.27-0.18c-0.13,0.02-0.21,0.14-0.18,0.27c0.01,0.06,1.07,5.85-1.26,8.55c-0.84,0.97-2.03,1.43-3.54,1.36
		c-0.11,0-0.23,0.09-0.24,0.22C128.19,54.04,128.29,54.15,128.42,54.15z"/>
	<path class="st11" d="M119.13,52.53c0.04,0.02,0.11,0.04,0.19,0.04c0.1,0,0.21-0.03,0.34-0.12c0.45-0.33,0.49-0.41,0.49-0.91
		c0-0.26,0-0.65,0.09-1.35c0.25-1.86-0.78-2.49-0.99-2.6c-0.26-0.22-1.72-1.4-2.56-1.01c-0.36,0.17-0.54,0.58-0.52,1.21
		c0.04,2.15,1.82,3.05,2.34,3.27C118.56,51.49,118.71,52.33,119.13,52.53z M116.9,47c0.05-0.03,0.12-0.04,0.19-0.04
		c0.49,0,1.36,0.55,1.89,1c0.02,0.01,0.04,0.03,0.06,0.04c0.04,0.02,0.97,0.47,0.76,2.13c-0.1,0.73-0.1,1.15-0.1,1.41
		c0,0.31,0,0.31-0.31,0.54c-0.04,0.03-0.06,0.03-0.06,0.03c-0.12-0.03-0.31-0.58-0.36-1.22c-0.01-0.09-0.07-0.17-0.16-0.2
		c-0.02-0.01-2.12-0.72-2.17-2.9C116.63,47.49,116.67,47.11,116.9,47z"/>
	<path class="st11" d="M120.55,66.23c0-1.03-0.58-1.83-2.02-2.77c-0.32-0.21-0.65-0.38-0.91-0.22c-0.3,0.18-0.26,0.64-0.18,1.4
		c0.06,0.58,0.13,1.3,0.08,2.12c-0.15,2.47,0.71,2.87,0.81,2.9c0.01,0,0.02,0.01,0.03,0.01c0.06,0.01,0.35,0.07,0.69,0.07
		c0.4,0,0.87-0.08,1.15-0.39c0.42-0.47,0.39-1.57,0.37-2.54C120.55,66.61,120.55,66.41,120.55,66.23z M119.85,69.05
		c-0.28,0.31-1.07,0.24-1.37,0.18c-0.09-0.06-0.63-0.49-0.5-2.44c0.05-0.86-0.02-1.63-0.08-2.2c-0.04-0.39-0.09-0.87-0.06-0.95
		c0.01,0,0.11-0.01,0.44,0.21c1.28,0.83,1.81,1.52,1.81,2.38c0,0.18,0.01,0.38,0.01,0.59C120.12,67.63,120.15,68.72,119.85,69.05z"
		/>
	<path class="st1" d="M102.76,66.99c-0.01-0.14-0.03-0.28-0.04-0.4c-0.01-0.25-0.04-0.26-0.28-0.35c-0.31-0.13-0.79-0.32-1.41-1.16
		c-0.43-0.59-0.81-0.89-1.11-0.89c-0.01,0-0.03,0-0.04,0c-0.26,0.02-0.53,0.31-0.78,0.85c-0.46,0.96,0.87,2.09,0.88,2.1
		c0.06,0.05,0.09,0.13,0.08,0.21c-0.09,0.57,1.1,1.27,1.92,1.6C102.87,68.74,102.87,67.97,102.76,66.99z"/>
	<path class="st11" d="M103.19,66.57c-0.03-0.54-0.29-0.64-0.57-0.76c-0.28-0.11-0.67-0.27-1.21-1c-0.57-0.77-1.07-1.12-1.56-1.08
		c-0.44,0.04-0.82,0.41-1.16,1.11c-0.54,1.12,0.57,2.26,0.91,2.57c0.01,1.07,2.04,1.9,2.28,2c0.03,0.01,0.06,0.02,0.08,0.02
		c0.02,0,0.03,0,0.05,0c1.44-0.3,1.29-1.67,1.21-2.48C103.21,66.81,103.19,66.68,103.19,66.57z M101.99,68.96
		c-0.81-0.33-2-1.03-1.92-1.6c0.01-0.08-0.02-0.16-0.08-0.21c-0.01-0.01-1.34-1.13-0.88-2.1c0.26-0.54,0.52-0.83,0.78-0.85
		c0.01,0,0.03,0,0.04,0c0.3,0,0.68,0.31,1.11,0.89c0.62,0.84,1.09,1.03,1.41,1.16c0.24,0.1,0.26,0.11,0.28,0.35
		c0.01,0.12,0.02,0.26,0.04,0.4C102.87,67.97,102.87,68.74,101.99,68.96z"/>
	<path class="st11" d="M100.05,26.82c0.03,0.01,0.59,0.17,1.33,0.17c0.38,0,0.82-0.04,1.26-0.17c0.25-0.07,0.39-0.32,0.32-0.57
		c-0.07-0.25-0.32-0.39-0.57-0.32c-1.04,0.29-2.07,0-2.08,0c-0.24-0.07-0.5,0.07-0.57,0.32C99.66,26.49,99.8,26.75,100.05,26.82z"/>
	<path class="st11" d="M106.28,26.89c0.03,0.01,0.45,0.12,0.97,0.12c0.55,0,1.21-0.12,1.7-0.61c0.18-0.18,0.18-0.47,0-0.65
		c-0.18-0.18-0.47-0.18-0.65,0c-0.48,0.48-1.44,0.34-1.77,0.25c-0.25-0.07-0.5,0.07-0.57,0.32
		C105.89,26.57,106.03,26.82,106.28,26.89z"/>
	<path class="st11" d="M102.75,30.23c0.1,0.21,0.41,0.61,1.21,0.61c0.24,0,0.53-0.04,0.87-0.12c0.19-0.05,0.3-0.24,0.25-0.42
		c-0.05-0.19-0.24-0.3-0.42-0.25c-0.8,0.21-1.19,0.06-1.28-0.12c-0.06-0.12-0.02-0.3,0.1-0.39c0.6-0.48,0.83-1.93,0.87-2.22
		c0.03-0.19-0.1-0.36-0.29-0.39c-0.19-0.03-0.36,0.1-0.39,0.29c-0.09,0.6-0.34,1.55-0.62,1.77
		C102.67,29.29,102.54,29.82,102.75,30.23z"/>
	<path class="st0" d="M41.78,69.66l-7.42-3.47c-0.46-0.22-1.01-0.02-1.23,0.45c-0.22,0.46-0.02,1.01,0.45,1.23l7.42,3.47
		c0.13,0.06,0.26,0.09,0.39,0.09c0.35,0,0.68-0.2,0.84-0.53C42.44,70.42,42.24,69.87,41.78,69.66z"/>
	<path class="st0" d="M49.98,51.92c-0.31-0.4-0.89-0.48-1.29-0.17c-0.4,0.31-0.48,0.89-0.17,1.29l4.75,6.16
		c0.18,0.24,0.46,0.36,0.73,0.36c0.2,0,0.4-0.06,0.56-0.19c0.4-0.31,0.48-0.89,0.17-1.3L49.98,51.92z"/>
	<path class="st0" d="M76.62,94.15c1.14-0.94,1.86-2.35,1.86-3.94c0-2.82-2.29-5.11-5.11-5.11c-0.32,0-0.63,0.03-0.93,0.09
		L57.89,70.16c-0.18-0.18-0.46-0.22-0.68-0.07c-0.24,0.17-0.3,0.5-0.14,0.74l11.72,17.13c-0.34,0.68-0.53,1.45-0.53,2.26
		c0,2.72,2.13,4.94,4.81,5.09c1.06,4.1,3.11,11.98,3.11,11.98c0.12,0.5,0.88,0.38,0.86-0.12L76.62,94.15z"/>
	<path class="st0" d="M37.75,87.54h-9.87c-0.51,0-0.92,0.41-0.92,0.92s0.41,0.92,0.92,0.92h9.87c0.51,0,0.92-0.41,0.92-0.92
		S38.26,87.54,37.75,87.54z"/>
	<path class="st0" d="M116.08,77.64c0.33-0.04,0.85-0.18,0.98-0.37c0.04-0.06,0.09-0.11,0.15-0.17c0.05-0.05,0.11-0.11,0.15-0.19
		c-0.27-1.02-0.57-2.02-0.9-3.01c-0.04-0.02-0.08-0.04-0.13-0.05c-0.71-0.12-1.73,0.91-2.07,1.32c-0.08,0.1-0.22,0.11-0.32,0.04
		c-1.8-1.39-2.27-1.23-2.37-1.15c-0.34,0.27,0.09,1.69,0.49,2.56c0.03,0.07,0.03,0.14-0.01,0.2c-0.03,0.06-0.09,0.11-0.16,0.12
		c-0.5,0.09-0.84,0.35-0.94,0.73c-0.14,0.5,0.13,1.12,0.68,1.59c0.28,0.23,0.57,0.34,0.87,0.32c0.6-0.05,1.05-0.58,1.05-0.58
		c0.04-0.05,0.11-0.08,0.18-0.08c0.02,0,0.04,0,0.07,0.01c0.09,0.03,0.15,0.1,0.16,0.19c0,0,0.07,0.52,0.51,0.83
		c0.34,0.24,0.83,0.3,1.44,0.16c0.42-0.09,0.66-0.26,0.73-0.49c0.16-0.51-0.47-1.34-0.71-1.59c-0.06-0.06-0.08-0.15-0.05-0.24
		C115.92,77.71,116,77.65,116.08,77.64z"/>
	<path class="st0" d="M113.76,99.72l-8.7-2.62c-0.49-0.15-1,0.13-1.15,0.62c-0.15,0.49,0.13,1,0.62,1.15l8.7,2.62
		c0.09,0.03,0.18,0.04,0.27,0.04c0.4,0,0.76-0.26,0.88-0.66C114.52,100.38,114.24,99.87,113.76,99.72z"/>
	<path class="st0" d="M71.5,54.08c0.51,0,0.92-0.41,0.92-0.92v-7.49c0-0.51-0.41-0.92-0.92-0.92c-0.51,0-0.92,0.41-0.92,0.92v7.49
		C70.58,53.66,70.99,54.08,71.5,54.08z"/>
	<path class="st0" d="M77.88,124.63c-0.51,0-0.92,0.41-0.92,0.92v8.46c0,0.51,0.41,0.92,0.92,0.92c0.51,0,0.92-0.41,0.92-0.92v-8.46
		C78.81,125.05,78.39,124.63,77.88,124.63z"/>
	<path class="st0" d="M99.72,112.69c-0.35-0.37-0.93-0.39-1.3-0.05s-0.39,0.93-0.05,1.3l6.03,6.48c0.18,0.2,0.43,0.29,0.68,0.29
		c0.23,0,0.45-0.08,0.63-0.25c0.37-0.35,0.39-0.93,0.05-1.3L99.72,112.69z"/>
	<path class="st0" d="M114.93,13.63l-2.12-2.12l-1.06,0.87c1.28,0.4,2.23,1.02,2.93,1.65L114.93,13.63z"/>
	<path class="st0" d="M111.4,63.63c-0.4,0.15-0.99-0.3-1.33-0.61l-0.02,0.03c-0.42,0.6-0.8,1.13-1.46,1.13
		c-0.2,0-0.43-0.05-0.69-0.16c-0.83-0.35-0.91-0.67-0.99-1.37c-0.02-0.18-0.05-0.38-0.09-0.63c0-0.01,0-0.02-0.01-0.03l-0.03,0.04
		l-0.95,1.09c-0.11,0.13-0.28,0.18-0.44,0.15l-9.75-2.08c-0.12-0.02-0.22-0.09-0.29-0.19c-0.01-0.01-0.03-0.04-0.07-0.09
		c-0.67,0.92-1.59,1.91-2.51,2.82c0.58-0.04,2.79-0.13,3.27,0.69c0.11,0.19,0.18,0.51-0.12,0.96c-0.57,0.86-1.16,1.29-1.61,1.51
		c0.99,0.37,1.42,0.74,1.4,1.17c-0.03,0.54-0.85,0.87-1.42,1.03c0.75,0.84,0.54,1.72,0.53,1.76c-0.03,0.09-0.27,0.78-1.75,0.78
		c-0.1,0-0.21,0-0.32-0.01c-0.24-0.01-0.47-0.07-0.68-0.16c0.84,1.09,1.91,2.36,3.65,3.79c0.66,0.54,1.63,1.42,2.78,2.49
		c-0.04-0.06-0.08-0.13-0.11-0.21c-0.2-0.48-0.13-1.05,0.19-1.7c0.44-0.88,0.92-1.02,1.24-0.98c0.51,0.06,0.91,0.6,1.15,1.2
		c0.36-0.65,1.04-1.66,1.77-1.6c0.29,0.03,0.55,0.22,0.76,0.56c0.03,0.05,0.06,0.08,0.09,0.14c0-0.03,0.01-0.06,0.02-0.09
		c0.12-0.66,0.37-1.43,0.92-1.79c0.44-0.28,0.97-0.27,1.6,0.03c0.03,0.01,0.05,0.03,0.07,0.06c0.04,0.04,0.91,1.07,0.71,2.23
		c-0.1,0.61-0.47,1.13-1.09,1.56c0.32,0.3,0.83,0.89,0.83,1.65c0,0.68-0.4,1.32-1.19,1.91c-0.03,0.34-0.18,1.33-0.77,1.77
		c-0.19,0.14-0.41,0.21-0.65,0.21c-0.12,0-0.24-0.02-0.37-0.05c-0.01,0-0.03-0.01-0.04-0.01c-0.02-0.01-0.04-0.01-0.06-0.02
		c0.01,0.01,0.02,0.02,0.04,0.03c3.03,2.97,5.99,5.94,7.29,7.31c0.42,0.44,0.97,0.69,1.53,0.7c1.06,0.02,2.08-0.46,3.52-1.62
		c0.82-0.66,1.92-1.99,2.94-3.52c-0.25-2.75-0.71-5.43-1.38-8.03c-0.02,0.02-0.05,0.05-0.07,0.07c-0.18,0.25-0.57,0.39-0.88,0.47
		c-0.01,0-0.02,0-0.02,0.01c0.01,0.01,0.02,0.03,0.03,0.04c0.24,0.32,0.53,0.81,0.56,1.29c0.01,0.13,0,0.27-0.04,0.39
		c-0.13,0.4-0.49,0.67-1.08,0.8c-0.25,0.05-0.49,0.08-0.71,0.08c-0.43,0-0.8-0.11-1.1-0.32c-0.31-0.22-0.49-0.51-0.58-0.75
		c-0.24,0.2-0.62,0.43-1.07,0.47c-0.43,0.04-0.83-0.11-1.21-0.42c-0.7-0.59-1.01-1.38-0.83-2.06c0.13-0.48,0.5-0.83,1.02-1
		c-0.3-0.7-0.89-2.34-0.25-2.85c0.47-0.37,1.35-0.05,2.76,1.02c0.37-0.42,1.33-1.38,2.23-1.33c-1.21-3.51-2.79-6.83-4.7-9.92
		C111.54,63.54,111.48,63.6,111.4,63.63z"/>
	<path class="st0" d="M98.61,18.88c0,0-0.09,0.21-0.2,0.56l0.59-1.17C98.75,18.63,98.62,18.87,98.61,18.88z"/>
	<path class="st0" d="M114.44,25.14c0.06-0.01,0.12-0.03,0.19-0.04l-0.2-0.02L114.44,25.14z"/>
	<path class="st0" d="M106.28,26.89c0.03,0.01,0.45,0.12,0.97,0.12c0.55,0,1.21-0.12,1.7-0.61c0.18-0.18,0.18-0.47,0-0.65
		c-0.18-0.18-0.47-0.18-0.65,0c-0.48,0.48-1.44,0.34-1.77,0.25c-0.25-0.07-0.5,0.07-0.57,0.32
		C105.89,26.57,106.03,26.82,106.28,26.89z"/>
	<path class="st0" d="M102.96,26.25c-0.07-0.25-0.32-0.39-0.57-0.32c-1.04,0.29-2.07,0-2.08,0c-0.24-0.07-0.5,0.07-0.57,0.32
		c-0.07,0.24,0.07,0.5,0.31,0.57c0.03,0.01,0.59,0.17,1.33,0.17c0.38,0,0.82-0.04,1.26-0.17C102.88,26.75,103.02,26.49,102.96,26.25
		z"/>
	<path class="st0" d="M93.33,58.01c0.16,0.1,0.33,0.15,0.5,0.15c0.3,0,0.6-0.15,0.77-0.42l3.78-5.79c0.28-0.43,0.16-1-0.27-1.28
		c-0.43-0.28-1-0.16-1.28,0.27l-3.78,5.79C92.78,57.16,92.9,57.73,93.33,58.01z"/>
	<path class="st0" d="M64.38,132.34c-2-2.64-23.2-30.51-28.12-35.16c-3.73,6.45-10.67,10.54-16.27,13.84
		c-4.05,2.39-7.58,4.47-8.07,6.53c10.47,6.98,21.17,20.65,27.59,28.84c0.69,0.87,1.32,1.68,1.88,2.4c1.62-1.76,5.2-3.78,9.29-6.09
		C56.5,139.41,63.08,135.7,64.38,132.34z"/>
	<path class="st0" d="M102.75,30.23c0.1,0.21,0.41,0.61,1.21,0.61c0.24,0,0.53-0.04,0.87-0.12c0.19-0.05,0.3-0.24,0.25-0.42
		c-0.05-0.19-0.24-0.3-0.42-0.25c-0.8,0.21-1.19,0.06-1.28-0.12c-0.06-0.12-0.02-0.3,0.1-0.39c0.6-0.48,0.83-1.93,0.87-2.22
		c0.03-0.19-0.1-0.37-0.29-0.39c-0.19-0.03-0.36,0.1-0.39,0.29c-0.09,0.6-0.34,1.55-0.62,1.77
		C102.67,29.29,102.54,29.82,102.75,30.23z"/>
	<path class="st0" d="M99.47,78.65c0.92,0.87,1.91,1.83,2.92,2.81c0.43,0.31,0.92,0.6,1.39,0.73c0.25,0.07,0.45,0.04,0.62-0.09
		c0.44-0.32,0.58-1.21,0.59-1.53c0-0.07,0.04-0.14,0.1-0.18c0.72-0.51,1.08-1.04,1.09-1.59c0-0.85-0.88-1.49-0.89-1.49
		c-0.06-0.05-0.1-0.12-0.1-0.2c0-0.08,0.05-0.15,0.11-0.19c0.66-0.38,1.05-0.86,1.14-1.4c0.14-0.84-0.44-1.64-0.58-1.82
		c-0.46-0.21-0.82-0.22-1.11-0.04c-0.7,0.45-0.82,2-0.81,2.57c0,0.12-0.08,0.22-0.2,0.23c-0.12,0.02-0.23-0.06-0.25-0.17
		c-0.22-0.86-0.51-1.34-0.81-1.37c-0.53-0.05-1.29,1.23-1.57,1.85c-0.04,0.09-0.14,0.14-0.23,0.14c-0.1-0.01-0.18-0.08-0.2-0.18
		c-0.16-0.75-0.57-1.36-0.93-1.41c-0.34-0.04-0.62,0.44-0.77,0.72c-0.26,0.52-0.32,0.97-0.18,1.32c0.17,0.43,0.61,0.59,0.61,0.59
		c0.11,0.04,0.18,0.15,0.15,0.27L99.47,78.65z"/>
	<path class="st0" d="M133.43,43.51c-0.13,0.02-0.21,0.14-0.18,0.27c0.01,0.06,1.07,5.85-1.26,8.55c-0.84,0.97-2.03,1.43-3.54,1.36
		c-0.11,0-0.23,0.09-0.24,0.22c-0.01,0.13,0.09,0.23,0.22,0.24c0.1,0,0.2,0.01,0.3,0.01c1.52,0,2.74-0.51,3.62-1.53
		c2.48-2.86,1.41-8.69,1.37-8.94C133.67,43.56,133.55,43.48,133.43,43.51z"/>
	<path class="st0" d="M104.97,36.8C104.97,36.8,104.97,36.8,104.97,36.8l-0.01,0.02C104.97,36.82,104.97,36.81,104.97,36.8z"/>
	<path class="st0" d="M82.58,54.95c-0.08,0.13-0.29,0.67,0.47,2.31c0.37,0.81,0.59,1.37,0.76,1.83c0.49,1.31,0.64,1.68,3.59,4.64
		c1.06-0.99,3.91-3.67,4.85-4.56l-4.49-7.69c-0.18-0.06-0.45-0.12-0.59-0.03c-0.12,0.07-0.17,0.27-0.19,0.44l2.03,3.19
		c0.06,0.06,0.1,0.13,0.15,0.2c0.43,0.71-0.24,1.44-0.76,1.78c-0.52,0.35-1.06,0.75-1.69,0.82c0.72-0.3,1.5-1.16,1.8-1.84
		c0.06-0.2-0.06-0.28-0.13-0.3l-0.13-0.14l-2.13-3.35c0-0.01,0-0.02-0.01-0.02c-0.01-0.01-0.01-0.02-0.02-0.03l-0.92-1.95
		c-0.13-0.16-0.31-0.32-0.41-0.35c-0.03,0.04-0.09,0.16-0.15,0.43l2.12,5.03c0.03,0.06-0.07,0.11-0.1,0.05l-2.91-4.82
		c-0.02-0.04-0.04-0.07-0.05-0.11c-0.03-0.07-0.06-0.15-0.1-0.22c-0.02,0.09-0.05,0.21-0.07,0.36l0.76,1.73c0,0,0,0,0,0
		c0,0,0,0,0,0.01l1.13,3.88l-1.97-3.5c0,0-0.01-0.01-0.01-0.01c-0.1-0.23-0.22-0.46-0.34-0.65c0.01,0.42,0.08,1.09,0.24,2.18
		l1.51,4.08l-2.18-3.46C82.64,54.88,82.61,54.91,82.58,54.95z"/>
	<path class="st0" d="M120.55,66.23c0-1.03-0.58-1.83-2.02-2.76c-0.32-0.21-0.65-0.38-0.91-0.22c-0.3,0.18-0.26,0.64-0.18,1.4
		c0.06,0.58,0.13,1.3,0.08,2.12c-0.15,2.47,0.71,2.87,0.81,2.9c0.01,0,0.02,0.01,0.03,0.01c0.06,0.01,0.35,0.07,0.69,0.07
		c0.4,0,0.87-0.08,1.15-0.39c0.42-0.47,0.39-1.57,0.37-2.54C120.55,66.61,120.55,66.41,120.55,66.23z"/>
	<path class="st0" d="M122.31,61.08c0.48,0.43,1.46,0.33,1.87,0.15c0.46-0.2,0.58-0.94,0.69-1.74c-0.07-0.85-0.16-1.66-0.28-2.42
		c-0.25-0.32-0.5-0.53-0.51-0.53c-1.27-1.02-1.79-0.98-1.99-0.86c-0.4,0.24-0.32,1.21-0.26,1.53c0.02,0.1-0.03,0.19-0.11,0.24
		c-0.08,0.05-0.19,0.04-0.27-0.03c-0.76-0.66-1.71-0.66-2.25-0.32c-0.5,0.32-0.68,0.91-0.49,1.62c0.11,0.4,0.32,0.67,0.64,0.83
		c0.94,0.46,2.49-0.18,2.5-0.19c0.03-0.01,0.06-0.02,0.09-0.02c0.06,0,0.11,0.02,0.16,0.06c0.07,0.06,0.09,0.16,0.06,0.24
		C121.95,60.31,121.99,60.79,122.31,61.08z"/>
	<path class="st0" d="M109.06,59.84c-0.08,0.02-0.28,0.08-0.53,0.17l-1.34,1.55c0,0,0,0,0,0c0.1,0.44,0.14,0.77,0.18,1.04
		c0.07,0.61,0.09,0.74,0.71,1c0.75,0.32,1.02,0,1.59-0.81l0.18-0.25c0.04-0.05,0.1-0.09,0.17-0.1c0.07-0.01,0.13,0.02,0.18,0.07
		c0.44,0.44,0.92,0.73,1.04,0.69c0.02-0.03,0.03-0.12,0.03-0.23c-0.67-1.07-1.38-2.1-2.13-3.11
		C109.11,59.85,109.08,59.84,109.06,59.84z"/>
	<path class="st0" d="M119.13,52.53c0.04,0.02,0.11,0.04,0.19,0.04c0.1,0,0.21-0.03,0.34-0.12c0.45-0.33,0.49-0.41,0.49-0.91
		c0-0.26,0-0.65,0.09-1.35c0.25-1.86-0.78-2.49-0.99-2.6c-0.26-0.22-1.72-1.4-2.56-1.01c-0.36,0.17-0.54,0.58-0.52,1.21
		c0.04,2.15,1.82,3.05,2.34,3.27C118.56,51.49,118.71,52.33,119.13,52.53z"/>
	<path class="st0" d="M94.95,60.57c-0.15-0.15-0.36-0.31-0.6-0.47l-0.8-0.39c-0.26-0.09-0.55-0.16-0.88-0.2
		c-0.03,0-0.05-0.02-0.07-0.03c-0.92,0.86-3.81,3.59-4.88,4.58l1.76,2.03C90.77,65,93.5,62.57,94.95,60.57z"/>
	<path class="st0" d="M111.51,58.43c-0.43-0.32-1.04-0.25-1.29-0.2c0.58,0.76,1.14,1.54,1.68,2.33c0.04-0.03,0.16-0.2,0.13-0.93
		C112,59.06,111.82,58.65,111.51,58.43z"/>
	<path class="st0" d="M90.24,68.82c0.03,0.02,0.05,0.05,0.06,0.08c0.01,0.02,1,2.15,2.47,2.24c1.39,0.08,1.59-0.43,1.6-0.43
		c0-0.02,0.19-0.85-0.69-1.58c-0.07-0.06-0.1-0.15-0.08-0.23c0.02-0.09,0.09-0.15,0.18-0.17c0.68-0.14,1.45-0.47,1.46-0.7
		c0-0.04-0.03-0.4-1.76-0.93c-0.11-0.03-0.18-0.14-0.16-0.25c0.01-0.11,0.11-0.2,0.22-0.2c0.05,0,1.02-0.08,1.98-1.52
		c0.13-0.2,0.17-0.36,0.1-0.47c-0.25-0.43-1.78-0.53-2.83-0.46L89.41,67C89.36,67.22,89.25,68.02,90.24,68.82z"/>
	<path class="st7" d="M103.79,37.59c-0.66-0.02-1.33,0.05-1.53,0.34c-0.11,0.15-0.07,0.4,0.11,0.72c0.6,1.05,2.96,2.55,5.74,3.14
		c1.91,0.41,4.65,0.52,7.19-1.09c-0.97,0.21-3.04,0.59-5.16,0.59c-1.82,0-3.68-0.28-4.92-1.19
		C104.38,39.49,103.91,38.64,103.79,37.59z"/>
	<path class="st7" d="M124.36,61.65c-0.27,0.12-0.65,0.2-1.04,0.2c-0.48,0-0.99-0.12-1.32-0.42c-0.27-0.25-0.53-0.7-0.38-1.5
		c-0.59,0.18-1.66,0.42-2.47,0.03c-0.45-0.22-0.75-0.6-0.89-1.12c-0.24-0.91,0.02-1.7,0.69-2.13c0.68-0.43,1.59-0.39,2.36,0.05
		c-0.02-0.5,0.05-1.2,0.54-1.49c0.54-0.32,1.36-0.03,2.51,0.9c0.01,0.01,0.04,0.03,0.08,0.07c-1.07-5.92-3.42-8.83-3.45-8.87
		c-0.05-0.06-3.62-4.57-5.26-6.41c-1.75,1.17-3.6,1.55-5.24,1.55c-0.91,0-1.75-0.11-2.48-0.27c-2.9-0.62-5.4-2.23-6.04-3.37
		c-0.28-0.5-0.31-0.91-0.09-1.22c0.52-0.74,2.34-0.52,2.88-0.44c0.11-0.14,0.17-0.27,0.2-0.39l0-0.02c-1.06-0.2-1.94-0.57-2.67-1
		c-2.69,0.02-5.54,0.58-8.17,1.33c0.04,0.03,0.07,0.05,0.1,0.08c0.02,0.02,0.05,0.05,0.07,0.07c0.17,0.17,0.31,0.34,0.29,0.79
		c-0.02,0.33-0.22,0.52-0.37,0.66c-0.1,0.09-0.15,0.14-0.17,0.2c0.11,0.02,0.35-0.01,0.52-0.03c0.21-0.02,0.43-0.05,0.64-0.04
		c0.59,0.03,1.01,0.4,1.22,1.08c0.19,0.6-0.05,1.21-0.67,1.73c-0.62,0.52-1.2,0.44-1.63,0.39l-0.11-0.01
		c-0.09-0.01-0.17-0.03-0.25-0.05c-0.29-0.06-0.58-0.13-1.52,0.23c-0.36,0.14-0.68,0.19-0.96,0.19c-0.65,0-1.09-0.29-1.36-0.47
		c-0.05-0.03-0.09-0.06-0.13-0.09c-0.41-0.25-0.87-0.62-1.03-1.95c-0.05-0.4,0.06-0.74,0.25-1.02c-1.77,0.7-3.18,1.36-4.01,1.77
		c9.74,2.91,18.26,8.84,24.56,16.75l3.37-3.88c0.17-0.19,0.46-0.21,0.65-0.05c0.19,0.17,0.21,0.46,0.05,0.65l-3.13,3.6
		c0.37-0.02,0.86,0.03,1.26,0.32c0.44,0.32,0.67,0.84,0.71,1.55c0.02,0.47,0,1.1-0.34,1.34c4.27,6.41,7.18,13.86,8.29,21.91
		c0.32-0.64,0.61-1.28,0.82-1.88c0.13-0.37,0.29-0.79,0.47-1.25c1.22-3.18,3.25-8.51,3.25-17.44c0-0.41-0.01-0.81-0.02-1.21
		C124.82,61.33,124.63,61.53,124.36,61.65z M100.54,44.29c-0.25,0.24-0.42,0.48-0.56,0.69c-0.25,0.36-0.47,0.67-0.95,0.73
		c-0.1,0.01-0.21,0.02-0.31,0.02c-0.58,0-1.11-0.18-1.39-0.31c-0.31-0.13-0.54-0.56-0.64-0.92c-0.16-0.53-0.11-1.03,0.12-1.37
		c0.17-0.25,0.29-0.54,0.41-0.85c0.17-0.41,0.34-0.84,0.65-1.16c0.13-0.14,0.17-0.3,0.22-0.47c0.12-0.44,0.29-0.79,1.19-0.56
		c1.12,0.28,1.23,0.43,1.39,1.14l0.1,0.42C100.96,42.44,101.26,43.61,100.54,44.29z M114.48,48.6c-0.28,0.51-0.94,0.79-1.97,0.85
		c0.16,0.17,0.31,0.4,0.36,0.68c0.11,0.55-0.14,1.15-0.75,1.77c-0.43,0.44-0.81,0.59-1.13,0.59c-0.35,0-0.63-0.18-0.81-0.34
		c-0.44-0.4-0.75-1.15-0.82-1.71c-0.48,0.31-1.3,0.71-2,0.47c-0.54-0.18-0.9-0.68-1.07-1.49c-0.22-0.99-0.11-1.72,0.32-2.14
		c0.42-0.42,1.03-0.42,1.33-0.39c0.16-0.28,0.53-0.83,1.08-0.87c0.36-0.03,0.71,0.16,1.05,0.56c0.17-0.51,0.53-1.27,1.23-1.46
		c0.8-0.22,1.78,0.35,2.91,1.69C114.25,46.86,114.91,47.82,114.48,48.6z M116.18,47.79c-0.01-0.63,0.16-1.04,0.52-1.21
		c0.84-0.39,2.3,0.79,2.56,1.01c0.21,0.11,1.24,0.74,0.99,2.6c-0.09,0.7-0.09,1.09-0.09,1.35c0,0.5-0.04,0.57-0.49,0.91
		c-0.13,0.09-0.24,0.12-0.34,0.12c-0.08,0-0.15-0.02-0.19-0.04c-0.42-0.19-0.57-1.04-0.61-1.46
		C117.99,50.85,116.22,49.94,116.18,47.79z M120.19,69.36c-0.28,0.31-0.75,0.39-1.15,0.39c-0.34,0-0.62-0.06-0.69-0.07
		c-0.01,0-0.02-0.01-0.03-0.01c-0.1-0.04-0.96-0.43-0.81-2.9c0.05-0.82-0.02-1.54-0.08-2.12c-0.07-0.76-0.12-1.21,0.18-1.4
		c0.26-0.16,0.59,0.02,0.91,0.22c1.43,0.93,2.02,1.73,2.02,2.76c0,0.18,0.01,0.37,0.01,0.58C120.58,67.79,120.61,68.89,120.19,69.36
		z"/>
	<path class="st7" d="M134.4,35.27c2.78-3.25,4.01-6.61,3.66-9.98c-0.6-5.73-5.61-9.64-5.67-9.67c-0.11-0.09-0.18-0.22-0.18-0.36
		c-0.05-5.5-2.73-9.59-3.65-10.39c-0.13-0.11-0.29-0.27-0.49-0.47c-1.45-1.43-4.86-4.77-9.67-2.86c-4.9,1.94-5.11,8.07-5.1,9.17
		l2.54,2.54c0.15,0.15,0.18,0.39,0.07,0.57l-0.56,0.9c0.64,0.74,0.94,1.38,1,1.53c0.23,0.44,3.3,6.52,2.11,12.23
		c-0.98,4.73-3.36,6.09-4.37,6.46c0.27,1.35,0.95,3.98,1.8,4.84c1.27,1.27,5.64,6.78,5.82,7.01c0.14,0.16,2.92,3.59,3.86,10.65
		c0.69,0.14,7.61,1.32,10.32-6.63c2.85-8.37-1.48-14.91-1.53-14.97C134.26,35.66,134.27,35.43,134.4,35.27z M132.33,52.63
		c-0.88,1.01-2.09,1.53-3.62,1.53c-0.1,0-0.2,0-0.3-0.01c-0.13-0.01-0.23-0.11-0.22-0.24c0.01-0.13,0.13-0.22,0.24-0.22
		c1.52,0.06,2.71-0.39,3.54-1.36c2.33-2.7,1.27-8.49,1.26-8.55c-0.02-0.13,0.06-0.25,0.18-0.27c0.13-0.02,0.25,0.06,0.27,0.18
		C133.74,43.94,134.81,49.77,132.33,52.63z"/>
	<path class="st7" d="M104.52,18.06c0.04-0.1,0.14-0.16,0.24-0.15c0.11,0.01,0.19,0.1,0.2,0.2l0.48,4.49c0,0,0.04,0.32,0.26,0.45
		c0.22,0.13,0.55,0.03,0.79-0.08c1.08-0.48,2.99-0.46,3.66-0.44l0.17-3.55c0.01-0.11,0.09-0.21,0.21-0.22
		c0.11-0.01,0.22,0.06,0.25,0.17l0.85,3.43l2.39,0.17c0.11,0.01,0.2,0.1,0.21,0.21l0.19,2.33l0.2,0.02c0.42-0.08,1.02-0.1,1.39,0.28
		c0.4,0.41,0.4,1.13-0.02,2.19c-0.02,0.05-0.06,0.09-0.1,0.12c-0.52,0.28-1.9,1.18-2.04,1.88c-0.14,0.73-0.1,3.36-0.08,4.5
		c0.77-0.28,2.87-1.43,3.78-5.79c1.14-5.49-2-11.57-2.03-11.64c-0.01-0.02-0.02-0.03-0.02-0.05c-0.03-0.07-0.32-0.78-1.07-1.56
		c-0.01-0.01-0.02-0.02-0.03-0.03c-0.74-0.76-1.91-1.58-3.7-1.95c0,0-0.01,0-0.01,0c-0.83-0.17-1.79-0.24-2.89-0.17
		c-4.88,0.34-7.81,3.91-8.8,5.37l-0.59,1.17c-0.23,0.74-0.51,2.12-0.09,3.52h4.4L104.52,18.06z"/>
	<g>
		<path class="st6" d="M110.72,35.14c0.24-0.1,0.51,0.02,0.6,0.26c0.1,0.24-0.02,0.51-0.26,0.6c-2.23,0.9-4.1,1.08-5.64,0.88
			c-0.05,0.23-0.16,0.49-0.41,0.75c-0.05,0.05-0.13,0.08-0.2,0.06c-0.16-0.03-0.35-0.05-0.55-0.07c0.12,0.88,0.53,1.59,1.23,2.11
			c2.46,1.8,7.77,0.92,9.61,0.54c-1.24-1.45-1.92-5.15-1.99-5.58c-0.02-0.12,0.01-0.25,0.08-0.35c0.04-0.05,0.08-0.09,0.14-0.13
			c-0.02-1.06-0.07-3.92,0.09-4.73c0.19-0.96,1.78-1.93,2.19-2.16c0.3-0.81,0.34-1.37,0.09-1.62c-0.32-0.33-1.11-0.14-1.38-0.04
			c-0.07,0.02-0.14,0.02-0.2-0.02c-0.06-0.04-0.1-0.1-0.11-0.17l-0.21-2.47l-2.36-0.17c-0.1-0.01-0.18-0.08-0.21-0.17l-0.51-2.07
			l-0.11,2.21c0,0.06-0.03,0.12-0.08,0.16c-0.05,0.04-0.11,0.06-0.17,0.06c-0.02,0-2.48-0.14-3.68,0.39
			c-0.49,0.22-0.9,0.23-1.21,0.05c-0.43-0.25-0.48-0.77-0.49-0.8l-0.38-3.51l-1.51,4.12c-0.03,0.09-0.12,0.15-0.22,0.15h-4.37
			c0.18,0.42,0.41,1.05,0.45,1.49c0.01,0.11,0.03,0.35,0.07,0.67c0.15,1.41,0.42,4.04,0.35,5.04c-0.03,0.45,0.8,2.58,2.84,4.05
			C103.81,35.8,106.57,36.81,110.72,35.14z M105.96,26.32c0.07-0.25,0.32-0.39,0.57-0.32c0.33,0.09,1.3,0.22,1.77-0.25
			c0.18-0.18,0.47-0.18,0.65,0c0.18,0.18,0.18,0.47,0,0.65c-0.49,0.49-1.16,0.61-1.7,0.61c-0.53,0-0.94-0.11-0.97-0.12
			C106.03,26.82,105.89,26.57,105.96,26.32z M105.24,31.79c0.87,0.02,1.77-0.34,2.39-0.95c0.13-0.12,0.34-0.11,0.45,0.02
			c0.16,0.27,0.14,0.61,0.18,0.9c0.04,0.78-0.07,1.67-0.7,2.23c-0.78,0.45-1.77,0.51-2.58,0.12c-0.12-0.05-0.16-0.19-0.11-0.31
			c0.05-0.1,0.16-0.15,0.27-0.12c0.65,0.16,1.37,0.05,1.96-0.27c0.21-0.23,0.35-0.59,0.4-1c0.03-0.21,0.05-0.42,0.05-0.64
			c0-0.04,0-0.08,0-0.11c-0.49,0.28-1.03,0.45-1.59,0.5c-0.25,0.02-0.5,0.02-0.76-0.01c-0.1-0.01-0.17-0.11-0.16-0.21
			C105.05,31.85,105.14,31.78,105.24,31.79z M103.04,28.99c0.28-0.23,0.53-1.17,0.62-1.77c0.03-0.19,0.2-0.32,0.39-0.29
			c0.19,0.03,0.32,0.2,0.29,0.39c-0.04,0.29-0.28,1.74-0.87,2.22c-0.12,0.09-0.16,0.27-0.1,0.39c0.09,0.19,0.49,0.33,1.28,0.12
			c0.18-0.05,0.37,0.06,0.42,0.25c0.05,0.18-0.06,0.37-0.25,0.42c-0.34,0.09-0.63,0.12-0.87,0.12c-0.8,0-1.1-0.4-1.21-0.61
			C102.54,29.82,102.67,29.29,103.04,28.99z M100.05,26.82c-0.24-0.07-0.39-0.33-0.31-0.57c0.07-0.24,0.33-0.38,0.57-0.32
			c0.01,0,1.05,0.29,2.08,0c0.25-0.07,0.5,0.07,0.57,0.32c0.07,0.25-0.07,0.5-0.32,0.57c-0.44,0.12-0.88,0.17-1.26,0.17
			C100.63,26.98,100.08,26.83,100.05,26.82z"/>
	</g>
	<path class="st1" d="M90.04,41.46c0.05,0.03,0.1,0.06,0.15,0.1c0.37,0.24,0.92,0.61,1.9,0.23c1.06-0.4,1.44-0.32,1.78-0.25
		c0.07,0.01,0.13,0.03,0.21,0.04l0.11,0.01c0.4,0.05,0.8,0.1,1.27-0.28c0.48-0.4,0.65-0.82,0.52-1.24c-0.23-0.73-0.66-0.75-0.8-0.75
		c-0.17-0.01-0.37,0.02-0.57,0.04c-0.38,0.04-0.72,0.08-0.91-0.09c-0.06-0.05-0.13-0.15-0.13-0.3c0-0.28,0.18-0.44,0.32-0.58
		c0.14-0.13,0.22-0.2,0.22-0.34c0.01-0.27-0.04-0.33-0.15-0.43c-0.03-0.03-0.06-0.06-0.09-0.09c-0.05-0.05-0.25-0.13-0.46-0.18
		c-0.16,0.05-0.33,0.1-0.49,0.15l-1.81,0.6c-0.25,0.09-0.5,0.18-0.74,0.27c-0.4,0.19-1.24,0.69-1.14,1.49
		C89.38,41.06,89.77,41.29,90.04,41.46z"/>
	<path class="st1" d="M100.22,41.34c-0.12-0.54-0.12-0.56-1.05-0.8c-0.54-0.14-0.55-0.07-0.63,0.23c-0.05,0.2-0.12,0.45-0.33,0.67
		c-0.25,0.26-0.4,0.63-0.56,1.02c-0.13,0.32-0.26,0.64-0.46,0.93c-0.15,0.22-0.17,0.59-0.06,0.98c0.11,0.37,0.29,0.59,0.38,0.63
		c0.24,0.1,0.85,0.33,1.46,0.26c0.27-0.03,0.38-0.19,0.63-0.54c0.15-0.22,0.34-0.48,0.62-0.76c0.52-0.5,0.28-1.48,0.1-2.19
		L100.22,41.34z"/>
	<path class="st1" d="M111.43,45.56c-0.79,0.22-1.02,1.58-1.02,1.59c-0.02,0.09-0.09,0.17-0.18,0.19c-0.1,0.02-0.19-0.02-0.24-0.1
		c-0.23-0.36-0.57-0.78-0.92-0.75c-0.38,0.03-0.69,0.56-0.77,0.76c-0.04,0.1-0.15,0.16-0.26,0.13c-0.01,0-0.7-0.15-1.09,0.24
		c-0.31,0.3-0.37,0.9-0.2,1.71c0.14,0.64,0.4,1.03,0.77,1.15c0.67,0.23,1.65-0.42,1.97-0.69c0.09-0.08,0.23-0.07,0.31,0.01
		c0.08,0.08,0.09,0.21,0.02,0.3c-0.08,0.23,0.21,1.42,0.81,1.81c0.13,0.08,0.52,0.34,1.16-0.33c0.5-0.51,0.71-0.97,0.63-1.36
		c-0.1-0.52-0.7-0.79-0.7-0.79c-0.1-0.04-0.16-0.15-0.13-0.26c0.02-0.11,0.13-0.18,0.23-0.18c1.23,0.05,2.01-0.16,2.26-0.61
		c0.29-0.53-0.22-1.29-0.23-1.3C112.87,45.92,112.03,45.39,111.43,45.56z"/>
	<path class="st1" d="M116.52,89.74c-1.17,0.95-2.48,1.83-4.06,1.83c-0.02,0-0.04,0-0.05,0c-0.81-0.01-1.61-0.37-2.19-0.99
		c-2.63-2.79-12.11-12.17-15.09-14.63c-2.23-1.84-3.41-3.41-4.35-4.68c-0.51-0.68-0.95-1.27-1.47-1.79c-1.1-1.1-1.08-2.16-0.81-2.84
		l-0.63-0.99l-1-1.15c-3.1-3.1-3.36-3.58-3.93-5.09c-0.17-0.44-0.38-0.99-0.74-1.77c-0.71-1.52-0.84-2.58-0.39-3.23
		c0.15-0.22,0.35-0.36,0.55-0.44c-0.35-2.4-0.22-3.05,0.21-3.26c0-0.04,0-0.08,0-0.11c0.11-0.77,0.29-1.49,0.87-1.55
		c0.24-0.02,0.44,0.08,0.61,0.25c0.12-0.15,0.28-0.26,0.48-0.31c0.69-0.17,1.29,0.59,1.4,0.74c0.02,0.02,0.03,0.05,0.05,0.08
		l0.48,1.01c0.07-0.07,0.15-0.13,0.23-0.18c0.66-0.39,1.5,0,1.59,0.05c0.08,0.04,0.15,0.1,0.19,0.18L93,58.62
		c1.67,0.27,2.66,1.3,2.98,1.7l9.32,1.99l3.03-3.49C99.58,47.65,86.25,40.5,71.35,40.5c-26.32,0-47.74,22.3-47.74,49.71
		c0,5.56,0.88,10.91,2.5,15.9c3.78-2.61,7.39-5.78,9.62-9.88c0.07-0.12,0.18-0.21,0.32-0.23c0.14-0.03,0.27,0.01,0.38,0.1
		c4.23,3.45,27.83,34.56,28.83,35.88c0.09,0.12,0.12,0.28,0.07,0.42c-0.63,1.99-2.87,4.02-5.73,6c3.76,0.99,7.7,1.52,11.75,1.52
		c26.32,0,47.74-22.3,47.74-49.71c0-1.09-0.04-2.17-0.1-3.24C118.15,88.13,117.28,89.14,116.52,89.74z M93.06,56.73l3.78-5.79
		c0.28-0.43,0.85-0.55,1.28-0.27c0.43,0.28,0.55,0.85,0.27,1.28l-3.78,5.79c-0.18,0.27-0.47,0.42-0.77,0.42
		c-0.17,0-0.35-0.05-0.5-0.15C92.9,57.73,92.78,57.16,93.06,56.73z M70.58,45.66c0-0.51,0.41-0.92,0.92-0.92
		c0.51,0,0.92,0.41,0.92,0.92v7.49c0,0.51-0.41,0.92-0.92,0.92c-0.51,0-0.92-0.41-0.92-0.92V45.66z M37.75,89.39h-9.87
		c-0.51,0-0.92-0.41-0.92-0.92s0.41-0.92,0.92-0.92h9.87c0.51,0,0.92,0.41,0.92,0.92S38.26,89.39,37.75,89.39z M42.22,70.88
		c-0.16,0.34-0.49,0.53-0.84,0.53c-0.13,0-0.26-0.03-0.39-0.09l-7.42-3.47c-0.46-0.22-0.66-0.77-0.45-1.23
		c0.22-0.46,0.76-0.66,1.23-0.45l7.42,3.47C42.24,69.87,42.44,70.42,42.22,70.88z M54.56,59.37c-0.17,0.13-0.37,0.19-0.56,0.19
		c-0.28,0-0.55-0.12-0.73-0.36l-4.75-6.16c-0.31-0.4-0.24-0.98,0.17-1.29c0.4-0.31,0.98-0.24,1.29,0.17l4.75,6.16
		C55.04,58.48,54.96,59.06,54.56,59.37z M76.18,107.28c0,0-2.05-7.88-3.11-11.98c-2.68-0.15-4.81-2.37-4.81-5.09
		c0-0.81,0.19-1.58,0.53-2.26L57.07,70.83c-0.17-0.24-0.1-0.57,0.14-0.74c0.22-0.15,0.5-0.11,0.68,0.07l14.55,15.03
		c0.3-0.06,0.61-0.09,0.93-0.09c2.82,0,5.11,2.29,5.11,5.11c0,1.59-0.72,3-1.86,3.94l0.42,13C77.06,107.66,76.3,107.78,76.18,107.28
		z M78.81,134.01c0,0.51-0.41,0.92-0.92,0.92c-0.51,0-0.92-0.41-0.92-0.92v-8.46c0-0.51,0.41-0.92,0.92-0.92
		c0.51,0,0.92,0.41,0.92,0.92V134.01z M105.71,120.47c-0.18,0.17-0.4,0.25-0.63,0.25c-0.25,0-0.49-0.1-0.68-0.29l-6.03-6.48
		c-0.35-0.37-0.33-0.96,0.05-1.3s0.96-0.33,1.3,0.05l6.03,6.48C106.11,119.54,106.08,120.12,105.71,120.47z M114.37,100.87
		c-0.12,0.4-0.49,0.66-0.88,0.66c-0.09,0-0.18-0.01-0.27-0.04l-8.7-2.62c-0.49-0.15-0.76-0.66-0.62-1.15
		c0.15-0.49,0.66-0.76,1.15-0.62l8.7,2.62C114.24,99.87,114.52,100.38,114.37,100.87z"/>
	<path class="st11" d="M138.98,25.18c-0.59-5.57-4.89-9.38-5.84-10.16c-0.12-5.29-2.67-9.73-3.96-10.86
		c-0.12-0.1-0.27-0.25-0.45-0.43c-1.58-1.55-5.29-5.19-10.65-3.06c-5.38,2.14-5.68,8.68-5.68,10l-1.76,1.43
		c-0.84-0.15-1.8-0.22-2.88-0.14c-6.63,0.46-9.81,6.23-9.96,6.5c-0.05,0.1-1.11,2.42-0.32,4.86c0.01,0.02,0.01,0.04,0.02,0.05
		c0.2,0.42,0.52,1.23,0.55,1.6c0.01,0.12,0.03,0.36,0.07,0.68c0.13,1.29,0.41,3.97,0.35,4.89c-0.05,0.84,0.99,3.21,3.16,4.81
		c-2.76,0.1-5.65,0.73-8.27,1.52c-0.01,0-0.03,0-0.04,0L93,36.98c-0.78,0.24-1.54,0.5-2.26,0.76l-0.3,0.1c0,0,0,0,0,0
		c-0.01,0.01-0.09,0.03-0.2,0.08c-2.83,1.04-5.02,2.1-5.87,2.53c-4.14-1.17-8.5-1.8-13-1.8c-27.34,0-49.59,23.13-49.59,51.56
		c0,5.94,0.97,11.65,2.76,16.96c-1.7,1.1-3.41,2.11-5,3.05c-4.63,2.73-8.28,4.88-8.57,7.49c-0.02,0.17,0.06,0.34,0.21,0.44
		c10.42,6.84,21.19,20.59,27.62,28.81c0.83,1.06,1.58,2.02,2.24,2.85c0.09,0.11,0.22,0.17,0.36,0.17c0,0,0.01,0,0.01,0
		c0.14,0,0.28-0.07,0.36-0.19c1.25-1.7,5.2-3.93,9.38-6.29c2.14-1.21,4.37-2.47,6.43-3.76c4.38,1.32,9.01,2.03,13.79,2.03
		c27.34,0,49.59-23.13,49.59-51.56c0-1.95-0.11-3.88-0.31-5.78c0.62-1.09,1.15-2.19,1.49-3.15c0.13-0.37,0.29-0.77,0.46-1.23
		c1.24-3.24,3.31-8.67,3.31-17.77c0-1.4-0.07-2.69-0.2-3.89c0.3,0.04,0.78,0.09,1.37,0.09c2.62,0,7.51-0.92,9.71-7.37
		c2.69-7.89-0.59-14.07-1.45-15.49C138.13,32.24,139.35,28.73,138.98,25.18z M112.82,11.52l2.12,2.12l-0.25,0.4
		c-0.7-0.63-1.66-1.25-2.93-1.65L112.82,11.52z M98.33,22.95c-0.42-1.4-0.14-2.78,0.09-3.52c0.11-0.35,0.2-0.56,0.2-0.56
		c0.01-0.01,0.14-0.25,0.39-0.62c1-1.46,3.93-5.04,8.8-5.37c1.11-0.08,2.07,0,2.89,0.17c0,0,0.01,0,0.01,0
		c1.79,0.37,2.96,1.19,3.7,1.95c0.01,0.01,0.02,0.02,0.03,0.03c0.75,0.78,1.04,1.49,1.07,1.56c0.01,0.02,0.01,0.03,0.02,0.05
		c0.03,0.06,3.17,6.15,2.03,11.64c-0.91,4.36-3.01,5.51-3.78,5.79c-0.02-1.14-0.06-3.77,0.08-4.5c0.14-0.7,1.52-1.6,2.04-1.88
		c0.05-0.03,0.08-0.07,0.1-0.12c0.41-1.06,0.42-1.78,0.02-2.19c-0.37-0.38-0.97-0.36-1.39-0.28c-0.07,0.01-0.14,0.03-0.19,0.04
		l0-0.06l-0.19-2.33c-0.01-0.11-0.1-0.2-0.21-0.21l-2.39-0.17l-0.85-3.43c-0.03-0.11-0.13-0.19-0.25-0.17
		c-0.11,0.01-0.2,0.1-0.21,0.22l-0.17,3.55c-0.67-0.02-2.58-0.04-3.66,0.44c-0.24,0.1-0.57,0.2-0.79,0.08
		c-0.22-0.13-0.26-0.44-0.26-0.45l-0.48-4.49c-0.01-0.11-0.09-0.19-0.2-0.2c-0.1-0.01-0.21,0.05-0.24,0.15l-1.8,4.89H98.33z
		 M99.39,30.61c0.06-0.99-0.21-3.62-0.35-5.04c-0.03-0.32-0.06-0.55-0.07-0.67c-0.04-0.43-0.27-1.07-0.45-1.49h4.37
		c0.1,0,0.18-0.06,0.22-0.15l1.51-4.12l0.38,3.51c0,0.02,0.06,0.55,0.49,0.8c0.31,0.18,0.72,0.16,1.21-0.05
		c1.2-0.53,3.65-0.39,3.68-0.39c0.06,0,0.12-0.02,0.17-0.06c0.05-0.04,0.07-0.1,0.08-0.16l0.11-2.21l0.51,2.07
		c0.02,0.1,0.11,0.17,0.21,0.17l2.36,0.17l0.21,2.47c0.01,0.07,0.05,0.14,0.11,0.17c0.06,0.04,0.14,0.05,0.2,0.02
		c0.28-0.1,1.06-0.29,1.38,0.04c0.25,0.25,0.22,0.81-0.09,1.62c-0.41,0.23-2.01,1.19-2.19,2.16c-0.16,0.81-0.11,3.67-0.09,4.73
		c-0.05,0.03-0.1,0.07-0.14,0.13c-0.07,0.1-0.1,0.23-0.08,0.35c0.08,0.43,0.76,4.13,1.99,5.58c-1.84,0.38-7.15,1.26-9.61-0.54
		c-0.7-0.51-1.12-1.22-1.23-2.11c0.2,0.02,0.39,0.04,0.55,0.07c0.07,0.01,0.15-0.01,0.2-0.06c0.26-0.26,0.37-0.52,0.41-0.75
		c1.54,0.2,3.41,0.02,5.64-0.88c0.24-0.1,0.35-0.36,0.26-0.6c-0.1-0.24-0.36-0.35-0.6-0.26c-4.15,1.67-6.91,0.66-8.49-0.48
		C100.19,33.19,99.36,31.05,99.39,30.61z M115.3,40.7c-2.54,1.61-5.28,1.5-7.19,1.09c-2.78-0.59-5.14-2.09-5.74-3.14
		c-0.18-0.33-0.22-0.57-0.11-0.72c0.2-0.29,0.86-0.36,1.53-0.34c0.12,1.05,0.59,1.9,1.43,2.51c1.24,0.91,3.1,1.19,4.92,1.19
		C112.26,41.29,114.33,40.91,115.3,40.7z M90.38,38.36c0.24-0.09,0.49-0.18,0.74-0.27l1.81-0.6c0.16-0.05,0.33-0.1,0.49-0.15
		c0.21,0.05,0.42,0.13,0.46,0.18c0.03,0.03,0.06,0.06,0.09,0.09c0.11,0.1,0.16,0.16,0.15,0.43c-0.01,0.14-0.09,0.21-0.22,0.34
		c-0.14,0.13-0.32,0.3-0.32,0.58c0,0.15,0.07,0.25,0.13,0.3c0.19,0.17,0.53,0.14,0.91,0.09c0.2-0.02,0.4-0.04,0.57-0.04
		c0.14,0.01,0.57,0.03,0.8,0.75c0.13,0.42-0.04,0.84-0.52,1.24c-0.47,0.39-0.88,0.33-1.27,0.28l-0.11-0.01
		c-0.07-0.01-0.14-0.02-0.21-0.04c-0.34-0.07-0.72-0.16-1.78,0.25c-0.98,0.37-1.53,0.01-1.9-0.23c-0.05-0.04-0.1-0.07-0.15-0.1
		c-0.28-0.17-0.66-0.4-0.8-1.61C89.14,39.05,89.98,38.55,90.38,38.36z M50.68,142.7c-4.09,2.31-7.67,4.33-9.29,6.09
		c-0.57-0.72-1.2-1.52-1.88-2.4c-6.42-8.19-17.12-21.86-27.59-28.84c0.5-2.06,4.02-4.14,8.07-6.53c5.6-3.3,12.54-7.39,16.27-13.84
		c4.91,4.65,26.12,32.52,28.12,35.16C63.08,135.7,56.5,139.41,50.68,142.7z M71.35,139.92c-4.05,0-7.99-0.53-11.75-1.52
		c2.87-1.98,5.1-4.01,5.73-6c0.05-0.14,0.02-0.3-0.07-0.42c-1-1.32-24.6-32.43-28.83-35.88c-0.11-0.09-0.25-0.12-0.38-0.1
		c-0.14,0.03-0.25,0.11-0.32,0.23c-2.22,4.11-5.84,7.27-9.62,9.88c-1.62-4.99-2.5-10.34-2.5-15.9c0-27.41,21.42-49.71,47.74-49.71
		c14.9,0,28.23,7.15,36.99,18.32l-3.03,3.49l-9.32-1.99c-0.33-0.4-1.31-1.44-2.98-1.7l-4.52-7.74c-0.05-0.08-0.11-0.14-0.19-0.18
		c-0.09-0.05-0.92-0.44-1.59-0.05c-0.09,0.05-0.16,0.11-0.23,0.18l-0.48-1.01c-0.01-0.03-0.03-0.05-0.05-0.08
		c-0.11-0.15-0.71-0.91-1.4-0.74c-0.21,0.05-0.36,0.17-0.48,0.31c-0.17-0.17-0.37-0.27-0.61-0.25c-0.58,0.06-0.76,0.78-0.87,1.55
		c-0.01,0.04-0.01,0.08,0,0.11c-0.43,0.21-0.56,0.86-0.21,3.26c-0.19,0.08-0.39,0.22-0.55,0.44c-0.44,0.65-0.32,1.71,0.39,3.23
		c0.36,0.78,0.57,1.33,0.74,1.77c0.57,1.51,0.83,1.99,3.93,5.09l1,1.15l0.63,0.99c-0.27,0.68-0.29,1.74,0.81,2.84
		c0.51,0.51,0.95,1.1,1.47,1.79c0.95,1.27,2.12,2.84,4.35,4.68c2.98,2.46,12.45,11.84,15.09,14.63c0.59,0.62,1.38,0.98,2.19,0.99
		c0.02,0,0.04,0,0.05,0c1.58,0,2.88-0.88,4.06-1.83c0.75-0.61,1.62-1.61,2.47-2.77c0.07,1.07,0.1,2.15,0.1,3.24
		C119.09,117.62,97.68,139.92,71.35,139.92z M115.94,78.03c0.23,0.25,0.86,1.08,0.71,1.59c-0.07,0.23-0.32,0.4-0.73,0.49
		c-0.61,0.13-1.1,0.08-1.44-0.16c-0.43-0.31-0.51-0.82-0.51-0.83c-0.01-0.09-0.08-0.17-0.16-0.19c-0.02-0.01-0.04-0.01-0.07-0.01
		c-0.07,0-0.13,0.03-0.18,0.08c0,0.01-0.46,0.54-1.05,0.58c-0.3,0.03-0.59-0.08-0.87-0.32c-0.55-0.47-0.82-1.09-0.68-1.59
		c0.1-0.38,0.44-0.64,0.94-0.73c0.07-0.01,0.13-0.06,0.16-0.12c0.03-0.06,0.04-0.14,0.01-0.2c-0.4-0.87-0.84-2.28-0.49-2.56
		c0.1-0.08,0.57-0.23,2.37,1.15c0.1,0.08,0.24,0.06,0.32-0.04c0.33-0.41,1.35-1.45,2.07-1.32c0.04,0.01,0.08,0.03,0.13,0.05
		c0.33,0.99,0.63,1.99,0.9,3.01c-0.05,0.08-0.1,0.14-0.15,0.19c-0.05,0.05-0.1,0.11-0.15,0.17c-0.13,0.18-0.65,0.32-0.98,0.37
		c-0.09,0.01-0.16,0.07-0.19,0.15C115.86,77.87,115.88,77.97,115.94,78.03z M114.05,74.72c-1.42-1.07-2.3-1.39-2.76-1.02
		c-0.64,0.51-0.05,2.15,0.25,2.85c-0.53,0.17-0.89,0.52-1.02,1c-0.19,0.68,0.13,1.47,0.83,2.06c0.37,0.32,0.78,0.46,1.21,0.42
		c0.45-0.04,0.83-0.27,1.07-0.47c0.1,0.23,0.27,0.53,0.58,0.75c0.3,0.21,0.67,0.32,1.1,0.32c0.22,0,0.45-0.03,0.71-0.08
		c0.59-0.13,0.95-0.4,1.08-0.8c0.04-0.13,0.05-0.26,0.04-0.39c-0.03-0.48-0.32-0.97-0.56-1.29c-0.01-0.01-0.02-0.03-0.03-0.04
		c0.01,0,0.01,0,0.02-0.01c0.31-0.08,0.7-0.22,0.88-0.47c0.02-0.03,0.04-0.05,0.07-0.07c0.66,2.6,1.13,5.29,1.38,8.03
		c-1.02,1.53-2.12,2.86-2.94,3.52c-1.44,1.16-2.46,1.64-3.52,1.62c-0.56-0.01-1.12-0.26-1.53-0.7c-1.3-1.37-4.26-4.35-7.29-7.31
		c-0.01-0.01-0.02-0.02-0.04-0.03c0.02,0.01,0.04,0.01,0.06,0.02c0.01,0,0.03,0.01,0.04,0.01c0.13,0.03,0.25,0.05,0.37,0.05
		c0.24,0,0.45-0.07,0.65-0.21c0.59-0.43,0.74-1.43,0.77-1.77c0.79-0.59,1.19-1.23,1.19-1.91c0-0.76-0.51-1.35-0.83-1.65
		c0.62-0.43,0.99-0.95,1.09-1.56c0.2-1.17-0.67-2.19-0.71-2.23c-0.02-0.02-0.05-0.04-0.07-0.06c-0.63-0.3-1.17-0.31-1.6-0.03
		c-0.55,0.36-0.81,1.12-0.92,1.79c-0.01,0.03-0.01,0.06-0.02,0.09c-0.03-0.05-0.06-0.09-0.09-0.14c-0.22-0.34-0.47-0.53-0.76-0.56
		c-0.73-0.06-1.41,0.94-1.77,1.6c-0.24-0.6-0.64-1.14-1.15-1.2c-0.32-0.04-0.8,0.1-1.24,0.98c-0.32,0.65-0.39,1.22-0.19,1.7
		c0.03,0.08,0.07,0.14,0.11,0.21c-1.14-1.07-2.12-1.95-2.78-2.49c-1.74-1.43-2.82-2.71-3.65-3.79c0.22,0.09,0.44,0.15,0.68,0.16
		c0.11,0.01,0.22,0.01,0.32,0.01c1.48,0,1.72-0.69,1.75-0.78c0.01-0.04,0.22-0.92-0.53-1.76c0.57-0.16,1.39-0.49,1.42-1.03
		c0.02-0.43-0.42-0.8-1.4-1.17c0.45-0.22,1.04-0.65,1.61-1.51c0.3-0.45,0.23-0.77,0.12-0.96c-0.48-0.82-2.69-0.73-3.27-0.69
		c0.92-0.91,1.83-1.9,2.51-2.82c0.04,0.05,0.07,0.09,0.07,0.09c0.07,0.1,0.17,0.17,0.29,0.19l9.75,2.08
		c0.16,0.04,0.33-0.02,0.44-0.15l0.95-1.09l0.03-0.04c0,0.01,0,0.02,0.01,0.03c0.05,0.25,0.07,0.45,0.09,0.63
		c0.08,0.69,0.15,1.02,0.99,1.37c0.26,0.11,0.49,0.16,0.69,0.16c0.66,0,1.04-0.53,1.46-1.13l0.02-0.03
		c0.34,0.31,0.94,0.76,1.33,0.61c0.08-0.03,0.14-0.09,0.19-0.16c1.9,3.09,3.48,6.42,4.7,9.92C115.38,73.34,114.42,74.3,114.05,74.72
		z M99.42,77.93c0,0-0.44-0.16-0.61-0.59c-0.14-0.35-0.08-0.79,0.18-1.32c0.14-0.29,0.43-0.77,0.77-0.72
		c0.36,0.05,0.77,0.67,0.93,1.41c0.02,0.1,0.1,0.17,0.2,0.18c0.1,0.01,0.19-0.04,0.23-0.14c0.28-0.62,1.04-1.89,1.57-1.85
		c0.3,0.03,0.59,0.51,0.81,1.37c0.03,0.11,0.14,0.19,0.25,0.17c0.12-0.02,0.2-0.12,0.2-0.23c-0.01-0.56,0.11-2.12,0.81-2.57
		c0.29-0.18,0.65-0.17,1.11,0.04c0.14,0.18,0.72,0.98,0.58,1.82c-0.09,0.55-0.48,1.02-1.14,1.4c-0.07,0.04-0.11,0.11-0.11,0.19
		c0,0.08,0.03,0.15,0.1,0.2c0.01,0.01,0.89,0.65,0.89,1.49c0,0.55-0.37,1.08-1.09,1.59c-0.06,0.04-0.09,0.11-0.1,0.18
		c-0.02,0.32-0.15,1.21-0.59,1.53c-0.17,0.12-0.37,0.15-0.62,0.09c-0.48-0.13-0.97-0.42-1.39-0.73c-1.01-0.98-2-1.94-2.92-2.81
		l0.1-0.44C99.6,78.09,99.53,77.97,99.42,77.93z M83.34,54.24c-0.17-1.09-0.23-1.76-0.24-2.18c0.11,0.2,0.23,0.43,0.34,0.65
		c0,0,0,0.01,0.01,0.01l1.97,3.5l-1.13-3.88c0,0,0,0,0-0.01c0,0,0,0,0,0l-0.76-1.73c0.02-0.15,0.05-0.26,0.07-0.36
		c0.04,0.07,0.07,0.15,0.1,0.22c0.01,0.04,0.03,0.07,0.05,0.11l2.91,4.82c0.03,0.06,0.13,0.01,0.1-0.05l-2.12-5.03
		c0.05-0.26,0.12-0.38,0.15-0.43c0.1,0.04,0.28,0.19,0.41,0.35l0.92,1.95c0,0.01,0.01,0.02,0.02,0.03c0,0.01,0,0.02,0.01,0.02
		l2.13,3.35l0.13,0.14c0.07,0.02,0.18,0.09,0.13,0.3c-0.3,0.68-1.08,1.54-1.8,1.84c0.63-0.07,1.17-0.47,1.69-0.82
		c0.51-0.34,1.19-1.07,0.76-1.78c-0.05-0.07-0.09-0.14-0.15-0.2l-2.03-3.19c0.02-0.17,0.07-0.37,0.19-0.44
		c0.14-0.09,0.41-0.03,0.59,0.03l4.49,7.69c-0.94,0.88-3.79,3.57-4.85,4.56c-2.95-2.96-3.09-3.33-3.59-4.64
		c-0.17-0.46-0.39-1.02-0.76-1.83c-0.76-1.64-0.55-2.19-0.47-2.31c0.03-0.04,0.06-0.07,0.09-0.09l2.18,3.46L83.34,54.24z
		 M92.6,59.48c0.02,0.01,0.05,0.02,0.07,0.03c0.32,0.04,0.61,0.11,0.88,0.2l0.8,0.39c0.25,0.16,0.45,0.32,0.6,0.47
		c-1.45,2.01-4.18,4.43-5.47,5.53l-1.76-2.03C88.78,63.07,91.68,60.35,92.6,59.48z M89.41,67l3.4-2.82
		c1.05-0.07,2.57,0.03,2.83,0.46c0.06,0.11,0.03,0.27-0.1,0.47c-0.96,1.45-1.94,1.52-1.98,1.52c-0.11,0-0.2,0.09-0.22,0.2
		c-0.01,0.11,0.05,0.22,0.16,0.25c1.72,0.53,1.76,0.89,1.76,0.93c-0.01,0.24-0.78,0.56-1.46,0.7c-0.09,0.02-0.16,0.08-0.18,0.17
		c-0.02,0.09,0.01,0.18,0.08,0.23c0.88,0.73,0.7,1.56,0.69,1.58c0,0-0.21,0.52-1.6,0.43c-1.47-0.09-2.46-2.22-2.47-2.24
		c-0.01-0.03-0.04-0.06-0.06-0.08C89.25,68.02,89.36,67.22,89.41,67z M111.89,60.55c-0.54-0.79-1.1-1.57-1.68-2.33
		c0.26-0.05,0.86-0.11,1.29,0.2c0.32,0.23,0.49,0.63,0.51,1.19C112.06,60.35,111.93,60.52,111.89,60.55z M111.26,62.97
		c0,0.12-0.01,0.2-0.03,0.23c-0.12,0.04-0.61-0.25-1.04-0.69c-0.05-0.05-0.11-0.07-0.18-0.07c-0.07,0.01-0.13,0.04-0.17,0.1
		l-0.18,0.25c-0.57,0.81-0.84,1.13-1.59,0.81c-0.62-0.26-0.64-0.39-0.71-1c-0.03-0.27-0.07-0.6-0.18-1.04c0,0,0,0,0,0l1.34-1.55
		c0.24-0.09,0.45-0.15,0.53-0.17c0.03,0,0.05,0.01,0.08,0.02C109.88,60.86,110.59,61.9,111.26,62.97z M121.72,79.72
		c-0.18,0.46-0.33,0.87-0.47,1.25c-0.21,0.6-0.5,1.24-0.82,1.88c-1.11-8.05-4.02-15.51-8.29-21.91c0.34-0.23,0.36-0.86,0.34-1.34
		c-0.03-0.71-0.27-1.23-0.71-1.55c-0.41-0.29-0.9-0.34-1.26-0.32l3.13-3.6c0.17-0.19,0.15-0.48-0.05-0.65
		c-0.19-0.17-0.48-0.15-0.65,0.05l-3.37,3.88c-6.3-7.91-14.82-13.85-24.56-16.75c0.84-0.41,2.25-1.06,4.01-1.77
		c-0.18,0.28-0.3,0.62-0.25,1.02c0.16,1.33,0.61,1.7,1.03,1.95c0.04,0.02,0.08,0.05,0.13,0.09c0.27,0.18,0.71,0.47,1.36,0.47
		c0.28,0,0.6-0.05,0.96-0.19c0.94-0.36,1.23-0.29,1.52-0.23c0.08,0.02,0.16,0.03,0.25,0.05l0.11,0.01c0.42,0.05,1.01,0.13,1.63-0.39
		c0.62-0.52,0.86-1.13,0.67-1.73c-0.21-0.68-0.64-1.05-1.22-1.08c-0.2-0.01-0.42,0.02-0.64,0.04c-0.17,0.02-0.41,0.05-0.52,0.03
		c0.02-0.05,0.07-0.11,0.17-0.2c0.15-0.14,0.35-0.32,0.37-0.66c0.02-0.45-0.12-0.62-0.29-0.79c-0.02-0.02-0.05-0.04-0.07-0.07
		c-0.03-0.03-0.06-0.06-0.1-0.08c2.63-0.75,5.48-1.31,8.17-1.33c0.72,0.43,1.61,0.8,2.67,1c0,0,0,0,0,0c0,0.01,0,0.01-0.01,0.02
		c-0.03,0.12-0.09,0.26-0.2,0.39c-0.53-0.08-2.35-0.3-2.88,0.44c-0.22,0.31-0.19,0.72,0.09,1.22c0.64,1.14,3.14,2.75,6.04,3.37
		c0.73,0.15,1.57,0.27,2.48,0.27c1.64,0,3.49-0.38,5.24-1.55c1.64,1.84,5.22,6.35,5.26,6.41c0.03,0.04,2.38,2.95,3.45,8.87
		c-0.04-0.04-0.08-0.06-0.08-0.07c-1.15-0.92-1.97-1.22-2.51-0.9c-0.49,0.29-0.56,0.99-0.54,1.49c-0.77-0.44-1.69-0.48-2.36-0.05
		c-0.68,0.43-0.94,1.22-0.69,2.13c0.14,0.53,0.44,0.91,0.89,1.12c0.8,0.39,1.88,0.15,2.47-0.03c-0.15,0.8,0.11,1.25,0.38,1.5
		c0.34,0.31,0.84,0.42,1.32,0.42c0.39,0,0.77-0.08,1.04-0.2c0.27-0.12,0.45-0.32,0.59-0.58c0.01,0.39,0.02,0.79,0.02,1.21
		C124.97,71.21,122.93,76.54,121.72,79.72z M122.1,59.39c-0.04-0.04-0.1-0.06-0.16-0.06c-0.03,0-0.06,0.01-0.09,0.02
		c-0.02,0.01-1.56,0.65-2.5,0.19c-0.33-0.16-0.54-0.43-0.64-0.83c-0.19-0.71-0.01-1.3,0.49-1.62c0.54-0.34,1.49-0.34,2.25,0.32
		c0.07,0.06,0.18,0.07,0.27,0.03c0.08-0.05,0.13-0.15,0.11-0.24c-0.06-0.32-0.13-1.29,0.26-1.53c0.2-0.12,0.71-0.16,1.99,0.86
		c0.01,0,0.26,0.21,0.51,0.53c0.12,0.76,0.21,1.57,0.28,2.42c-0.11,0.81-0.23,1.54-0.69,1.74c-0.41,0.18-1.39,0.29-1.87-0.15
		c-0.31-0.29-0.36-0.77-0.14-1.45C122.19,59.54,122.17,59.45,122.1,59.39z M135.9,50.8c-2.71,7.96-9.64,6.77-10.32,6.63
		c-0.95-7.06-3.73-10.49-3.86-10.65c-0.19-0.23-4.56-5.75-5.82-7.01c-0.85-0.85-1.52-3.49-1.8-4.84c1.01-0.37,3.39-1.73,4.37-6.46
		c1.19-5.71-1.88-11.79-2.11-12.23c-0.06-0.15-0.36-0.79-1-1.53l0.56-0.9c0.11-0.18,0.09-0.42-0.07-0.57l-2.54-2.54
		c0-1.1,0.2-7.22,5.1-9.17c4.81-1.91,8.21,1.44,9.67,2.86c0.2,0.2,0.37,0.36,0.49,0.47c0.92,0.79,3.6,4.89,3.65,10.39
		c0,0.14,0.07,0.28,0.18,0.36c0.05,0.04,5.06,3.94,5.67,9.67c0.35,3.38-0.88,6.73-3.66,9.98c-0.14,0.16-0.15,0.39-0.03,0.56
		C134.42,35.9,138.75,42.43,135.9,50.8z"/>
	<path class="st11" d="M100.67,41.24c-0.16-0.71-0.27-0.86-1.39-1.14c-0.91-0.23-1.07,0.12-1.19,0.56
		c-0.05,0.17-0.09,0.33-0.22,0.47c-0.31,0.32-0.48,0.75-0.65,1.16c-0.13,0.31-0.24,0.6-0.41,0.85c-0.23,0.34-0.28,0.84-0.12,1.37
		c0.1,0.36,0.33,0.79,0.64,0.92c0.29,0.12,0.81,0.31,1.39,0.31c0.1,0,0.2-0.01,0.31-0.02c0.48-0.06,0.7-0.37,0.95-0.73
		c0.15-0.21,0.31-0.45,0.56-0.69c0.71-0.69,0.42-1.86,0.23-2.63L100.67,41.24z M100.22,43.96c-0.28,0.27-0.47,0.54-0.62,0.76
		c-0.24,0.35-0.36,0.51-0.63,0.54c-0.61,0.07-1.23-0.15-1.46-0.26c-0.09-0.04-0.27-0.26-0.38-0.63c-0.11-0.39-0.09-0.76,0.06-0.98
		c0.2-0.29,0.33-0.62,0.46-0.93c0.16-0.39,0.31-0.76,0.56-1.02c0.21-0.22,0.28-0.47,0.33-0.67c0.08-0.3,0.1-0.36,0.63-0.23
		c0.93,0.24,0.94,0.26,1.05,0.8l0.1,0.43C100.5,42.48,100.75,43.46,100.22,43.96z"/>
	<path class="st11" d="M111.3,45.11c-0.71,0.2-1.06,0.95-1.23,1.46c-0.34-0.4-0.69-0.59-1.05-0.56c-0.55,0.04-0.93,0.59-1.08,0.87
		c-0.3-0.03-0.91-0.03-1.33,0.39c-0.43,0.43-0.54,1.15-0.32,2.14c0.18,0.81,0.54,1.31,1.07,1.49c0.71,0.24,1.52-0.16,2-0.47
		c0.07,0.56,0.38,1.31,0.82,1.71c0.18,0.16,0.45,0.34,0.81,0.34c0.32,0,0.7-0.15,1.13-0.59c0.61-0.63,0.86-1.22,0.75-1.77
		c-0.06-0.28-0.2-0.51-0.36-0.68c1.03-0.05,1.69-0.34,1.97-0.85c0.43-0.78-0.23-1.74-0.27-1.8C113.08,45.46,112.1,44.89,111.3,45.11
		z M114.07,48.38c-0.25,0.45-1.03,0.66-2.26,0.61c-0.11,0-0.21,0.07-0.23,0.18c-0.02,0.11,0.03,0.22,0.13,0.26
		c0.01,0,0.6,0.27,0.7,0.79c0.08,0.39-0.13,0.85-0.63,1.36c-0.65,0.67-1.03,0.41-1.16,0.33c-0.6-0.39-0.89-1.58-0.81-1.81
		c0.07-0.09,0.06-0.22-0.02-0.3c-0.08-0.09-0.22-0.09-0.31-0.01c-0.32,0.27-1.3,0.92-1.97,0.69c-0.37-0.13-0.63-0.51-0.77-1.15
		c-0.18-0.82-0.11-1.41,0.2-1.71c0.39-0.39,1.08-0.24,1.09-0.24c0.11,0.02,0.22-0.03,0.26-0.13c0.09-0.2,0.4-0.73,0.77-0.76
		c0.35-0.02,0.69,0.4,0.92,0.75c0.05,0.08,0.15,0.12,0.24,0.1c0.09-0.02,0.17-0.09,0.18-0.19c0-0.01,0.23-1.37,1.02-1.59
		c0.6-0.17,1.44,0.37,2.42,1.52C113.85,47.09,114.37,47.85,114.07,48.38z"/>
	<path class="st11" d="M105.19,32.16c0.27,0.04,0.51,0.04,0.76,0.01c0.56-0.05,1.1-0.22,1.59-0.5c0,0.04,0,0.08,0,0.11
		c0,0.22-0.01,0.43-0.05,0.64c-0.04,0.41-0.19,0.77-0.4,1c-0.58,0.32-1.3,0.43-1.96,0.27c-0.11-0.03-0.22,0.02-0.27,0.12
		c-0.05,0.11-0.01,0.25,0.11,0.31c0.81,0.38,1.8,0.33,2.58-0.12c0.64-0.56,0.74-1.44,0.7-2.23c-0.04-0.29-0.02-0.63-0.18-0.9
		c-0.12-0.13-0.32-0.14-0.45-0.02c-0.62,0.61-1.52,0.98-2.39,0.95c-0.1-0.01-0.19,0.06-0.2,0.16
		C105.02,32.05,105.09,32.14,105.19,32.16z"/>
	<path class="st11" d="M83.59,30.36c0.02,0,0.03,0,0.05,0l1.95-0.21v3.35c0,0.25,0.21,0.46,0.46,0.46c0.25,0,0.46-0.21,0.46-0.46
		v-3.45l0.94-0.1c0.25-0.03,0.44-0.25,0.41-0.51c-0.03-0.25-0.26-0.44-0.51-0.41l-0.85,0.09v-2c0-0.25-0.21-0.46-0.46-0.46
		c-0.25,0-0.46,0.21-0.46,0.46v2.1l-2.05,0.22c-0.25,0.03-0.44,0.25-0.41,0.51C83.16,30.18,83.36,30.36,83.59,30.36z"/>
	<path class="st11" d="M80.78,33.04c0.03,0,0.06,0,0.08-0.01l0.71-0.13v1.3c0,0.25,0.21,0.46,0.46,0.46c0.25,0,0.46-0.21,0.46-0.46
		v-1.48l1.19-0.22c0.25-0.05,0.42-0.29,0.37-0.54s-0.29-0.42-0.54-0.37l-1.02,0.19v-1.07c0-0.26-0.21-0.46-0.46-0.46
		c-0.25,0-0.46,0.21-0.46,0.46v1.24l-0.88,0.16c-0.25,0.05-0.42,0.29-0.37,0.54C80.36,32.88,80.56,33.04,80.78,33.04z"/>
	<path class="st11" d="M84.23,35.37c0.25,0,0.46-0.21,0.46-0.46v-0.85l0.34-0.13c0.24-0.09,0.35-0.36,0.26-0.6
		c-0.09-0.24-0.36-0.35-0.6-0.26l0,0c-0.01-0.24-0.21-0.44-0.46-0.44c-0.25,0-0.46,0.21-0.46,0.46v0.35l-0.34,0.13
		c-0.24,0.09-0.35,0.36-0.26,0.6c0.07,0.18,0.25,0.29,0.43,0.29c0.06,0,0.11-0.01,0.17-0.03v0.48
		C83.76,35.16,83.97,35.37,84.23,35.37z"/>
	<path class="st1" d="M27.17,125.7l2.65,4.45l2.4-2.17l-3.27-3.43L27.17,125.7z M29.18,126.77c0.22-0.18,0.64-0.05,0.93,0.3
		c0.29,0.35,0.35,0.79,0.13,0.97c-0.22,0.18-0.64,0.05-0.93-0.3C29.02,127.39,28.96,126.96,29.18,126.77z"/>
	<path class="st1" d="M18.09,116.59l3.01,3.53l2.92-2.64l-3.05-3.51L18.09,116.59z M21.46,117.04c0.29,0.35,0.35,0.79,0.13,0.97
		c-0.22,0.18-0.64,0.05-0.93-0.3c-0.29-0.35-0.35-0.79-0.13-0.97C20.75,116.55,21.17,116.69,21.46,117.04z"/>
	<path class="st1" d="M36.33,136.09l2.87,4.88l2.5-1.94l-3.98-4.34L36.33,136.09z M38.06,137.43c0.22-0.18,0.64-0.05,0.93,0.3
		s0.35,0.79,0.13,0.97c-0.22,0.18-0.64,0.05-0.93-0.3C37.9,138.05,37.84,137.61,38.06,137.43z"/>
	<path class="st1" d="M64.38,132.34c-2-2.64-23.2-30.51-28.12-35.16c-3.73,6.45-10.67,10.54-16.27,13.84
		c-4.05,2.39-7.58,4.47-8.07,6.53c10.47,6.98,21.17,20.65,27.59,28.84c0.69,0.87,1.32,1.68,1.88,2.4c1.62-1.76,5.2-3.78,9.29-6.09
		C56.5,139.41,63.08,135.7,64.38,132.34z M45.66,123.16c0.8-0.64,1.65-1.24,2.62-1.69c0.04-0.02,0.09,0.03,0.06,0.07
		c-0.88,1.33-1.97,2.41-3.23,3.34c-0.79,0.65-1.78,1.08-2.51,1.81c-0.98,1.22-2.06,2.36-3.55,2.96c-0.04,0.02-0.09-0.03-0.06-0.07
		c0.8-1.4,2.08-2.31,3.42-3.12C43.58,125.46,44.43,124.11,45.66,123.16z M40.94,117.42c0.83-0.65,1.7-1.25,2.69-1.71
		c0.04-0.02,0.09,0.03,0.06,0.07c-0.92,1.35-2.05,2.44-3.34,3.37c-0.82,0.66-1.83,1.09-2.59,1.83c-1.02,1.23-2.14,2.38-3.66,3
		c-0.04,0.02-0.09-0.03-0.06-0.07c0.84-1.41,2.16-2.34,3.53-3.16C38.78,119.75,39.68,118.38,40.94,117.42z M36.9,112.22
		c0.86-0.62,1.76-1.19,2.77-1.61c0.04-0.02,0.09,0.04,0.06,0.07c-0.98,1.32-2.16,2.36-3.5,3.26c-0.85,0.63-1.89,1.03-2.68,1.74
		c-1.08,1.19-2.25,2.31-3.81,2.87c-0.04,0.02-0.08-0.03-0.06-0.07c0.91-1.38,2.27-2.26,3.68-3.03
		C34.63,114.47,35.59,113.14,36.9,112.22z M24.98,117.86l-3.61,3.26c-0.08,0.08-0.2,0.12-0.31,0.12c-0.01,0-0.02,0-0.03,0
		c-0.12-0.01-0.24-0.07-0.32-0.16l-3.61-4.23c-0.16-0.19-0.14-0.47,0.04-0.64l3.56-3.24c0.09-0.08,0.21-0.13,0.34-0.12
		c0.12,0.01,0.24,0.06,0.32,0.16l3.66,4.2C25.18,117.41,25.17,117.69,24.98,117.86z M25.73,113.28c0.91-1.38,2.27-2.26,3.68-3.03
		c1.26-0.97,2.22-2.3,3.53-3.22c0.86-0.62,1.76-1.19,2.77-1.61c0.04-0.02,0.09,0.04,0.06,0.07c-0.98,1.32-2.16,2.36-3.5,3.26
		c-0.85,0.63-1.89,1.03-2.68,1.74c-1.08,1.19-2.25,2.31-3.81,2.87C25.75,113.37,25.7,113.32,25.73,113.28z M33.19,128.35l-3.17,2.87
		c-0.09,0.08-0.2,0.12-0.31,0.12c-0.02,0-0.05,0-0.07-0.01c-0.14-0.02-0.26-0.1-0.33-0.22l-3.16-5.32
		c-0.13-0.21-0.06-0.49,0.15-0.62l2.47-1.61c0.19-0.12,0.43-0.09,0.59,0.07l3.86,4.06c0.09,0.09,0.13,0.21,0.13,0.34
		C33.34,128.14,33.28,128.26,33.19,128.35z M42.66,139.45l-3.31,2.57c-0.08,0.06-0.18,0.1-0.28,0.1c-0.03,0-0.06,0-0.09-0.01
		c-0.13-0.03-0.24-0.11-0.31-0.22l-3.31-5.64c-0.11-0.18-0.08-0.41,0.07-0.56l1.98-2c0.09-0.09,0.21-0.14,0.34-0.14
		c0.13,0,0.25,0.06,0.33,0.15l4.65,5.07c0.09,0.1,0.13,0.22,0.12,0.35C42.82,139.25,42.76,139.37,42.66,139.45z M43.63,134.89
		c0.8-1.4,2.08-2.31,3.42-3.12c1.18-1,2.03-2.35,3.26-3.3c0.8-0.64,1.65-1.24,2.62-1.69c0.04-0.02,0.09,0.03,0.06,0.07
		c-0.88,1.33-1.97,2.41-3.23,3.34c-0.79,0.65-1.78,1.08-2.51,1.81c-0.98,1.22-2.06,2.36-3.55,2.96
		C43.65,134.98,43.61,134.93,43.63,134.89z"/>
	<path class="st11" d="M21.36,113.01c-0.08-0.09-0.2-0.15-0.32-0.16c-0.13-0.01-0.25,0.04-0.34,0.12l-3.56,3.24
		c-0.18,0.17-0.2,0.45-0.04,0.64l3.61,4.23c0.08,0.09,0.2,0.15,0.32,0.16c0.01,0,0.02,0,0.03,0c0.11,0,0.22-0.04,0.31-0.12
		l3.61-3.26c0.19-0.17,0.2-0.46,0.04-0.65L21.36,113.01z M21.1,120.12l-3.01-3.53l2.88-2.62l3.05,3.51L21.1,120.12z"/>
	<path class="st11" d="M29.6,110.48c0.79-0.71,1.82-1.11,2.68-1.74c1.34-0.89,2.52-1.94,3.5-3.26c0.03-0.04-0.02-0.09-0.06-0.07
		c-1.02,0.42-1.91,0.99-2.77,1.61c-1.31,0.92-2.27,2.25-3.53,3.22c-1.41,0.77-2.77,1.65-3.68,3.03c-0.03,0.04,0.02,0.09,0.06,0.07
		C27.34,112.79,28.52,111.68,29.6,110.48z"/>
	<path class="st11" d="M33.37,115.43c-1.41,0.77-2.77,1.65-3.68,3.03c-0.03,0.04,0.02,0.09,0.06,0.07c1.56-0.56,2.73-1.67,3.81-2.87
		c0.79-0.71,1.82-1.11,2.68-1.74c1.34-0.89,2.52-1.94,3.5-3.26c0.03-0.04-0.02-0.09-0.06-0.07c-1.02,0.42-1.91,0.99-2.77,1.61
		C35.59,113.14,34.63,114.47,33.37,115.43z"/>
	<path class="st11" d="M37.57,120.76c-1.37,0.82-2.69,1.75-3.53,3.16c-0.03,0.04,0.02,0.09,0.06,0.07c1.52-0.62,2.65-1.77,3.66-3
		c0.75-0.74,1.77-1.18,2.59-1.83c1.3-0.94,2.43-2.03,3.34-3.37c0.03-0.04-0.02-0.09-0.06-0.07c-0.99,0.46-1.86,1.06-2.69,1.71
		C39.68,118.38,38.78,119.75,37.57,120.76z"/>
	<path class="st11" d="M47.24,132c0.73-0.73,1.72-1.16,2.51-1.81c1.26-0.93,2.35-2,3.23-3.34c0.03-0.04-0.02-0.09-0.06-0.07
		c-0.97,0.45-1.81,1.05-2.62,1.69c-1.23,0.95-2.08,2.3-3.26,3.3c-1.34,0.81-2.62,1.72-3.42,3.12c-0.02,0.04,0.02,0.09,0.06,0.07
		C45.18,134.36,46.26,133.21,47.24,132z"/>
	<path class="st11" d="M42.4,126.46c-1.34,0.81-2.62,1.72-3.42,3.12c-0.02,0.04,0.02,0.09,0.06,0.07c1.49-0.61,2.57-1.75,3.55-2.96
		c0.73-0.73,1.72-1.16,2.51-1.81c1.26-0.93,2.35-2,3.23-3.34c0.03-0.04-0.02-0.09-0.06-0.07c-0.97,0.45-1.81,1.05-2.62,1.69
		C44.43,124.11,43.58,125.46,42.4,126.46z"/>
	<path class="st11" d="M29.36,123.63c-0.15-0.16-0.4-0.19-0.59-0.07l-2.47,1.61c-0.21,0.13-0.27,0.41-0.15,0.62l3.16,5.32
		c0.07,0.12,0.19,0.2,0.33,0.22c0.02,0,0.05,0.01,0.07,0.01c0.11,0,0.22-0.04,0.31-0.12l3.17-2.87c0.09-0.08,0.15-0.2,0.15-0.32
		c0-0.12-0.04-0.25-0.13-0.34L29.36,123.63z M29.82,130.15l-2.65-4.45l1.78-1.16l3.27,3.43L29.82,130.15z"/>
	<path class="st11" d="M38.07,133.7c-0.09-0.09-0.21-0.15-0.33-0.15c-0.12-0.01-0.25,0.05-0.34,0.14l-1.98,2
		c-0.15,0.15-0.18,0.38-0.07,0.56l3.31,5.64c0.07,0.11,0.18,0.19,0.31,0.22c0.03,0.01,0.06,0.01,0.09,0.01c0.1,0,0.2-0.03,0.28-0.1
		l3.31-2.57c0.1-0.08,0.17-0.2,0.18-0.33c0.01-0.13-0.03-0.26-0.12-0.35L38.07,133.7z M39.19,140.97l-2.87-4.88l1.39-1.41l3.98,4.34
		L39.19,140.97z"/>
	<path class="st11" d="M30.24,128.05c0.22-0.18,0.16-0.62-0.13-0.97c-0.29-0.35-0.71-0.49-0.93-0.3c-0.22,0.18-0.16,0.62,0.13,0.97
		C29.61,128.09,30.02,128.23,30.24,128.05z"/>
	<path class="st11" d="M39.12,138.7c0.22-0.18,0.16-0.62-0.13-0.97s-0.71-0.49-0.93-0.3c-0.22,0.18-0.16,0.62,0.13,0.97
		C38.48,138.75,38.9,138.88,39.12,138.7z"/>
	<path class="st11" d="M20.53,116.73c-0.22,0.18-0.16,0.62,0.13,0.97c0.29,0.35,0.71,0.49,0.93,0.3c0.22-0.18,0.16-0.62-0.13-0.97
		C21.17,116.69,20.75,116.55,20.53,116.73z"/>
</g>
</svg>
