<?xml version="1.0" encoding="utf-8"?>
<!-- Generator: Adobe Illustrator 27.1.0, SVG Export Plug-In . SVG Version: 6.00 Build 0)  -->
<svg version="1.1" id="Capa_1" xmlns="http://www.w3.org/2000/svg" xmlns:xlink="http://www.w3.org/1999/xlink" x="0px" y="0px"
	 width="150px" height="150px" viewBox="0 0 150 150" style="enable-background:new 0 0 150 150;" xml:space="preserve">
<style type="text/css">
	.st0{fill:none;}
	.st1{fill:#FFFFFF;}
	.st2{fill:#F2B705;}
	.st3{fill:#040423;}
	.st4{fill:#8C1F33;}
	.st5{fill:#5BA566;}
	.st6{fill:#F2E3CC;}
	.st7{fill:#F15A24;}
	.st8{fill:#400101;}
	.st9{fill:#FCFCFC;}
	.st10{fill:#122B05;}
	.st11{fill:#472FAD;}
	.st12{fill:#A64F03;}
	.st13{fill:#D98E04;}
	.st14{fill:#F2F2F2;}
	.st15{fill:#2FD812;}
	.st16{fill:#AA8D30;}
	.st17{fill:#B0EAB7;}
	.st18{fill:#111147;}
	.st19{fill:none;stroke:#472FAD;stroke-width:0;stroke-linecap:round;stroke-linejoin:round;}
	.st20{fill:#F2B705;stroke:#472FAD;stroke-miterlimit:10;}
	.st21{fill:#231A56;}
	.st22{fill:#EA0070;}
	.st23{fill:#158035;}
	.st24{fill:#F9B331;}
	.st25{opacity:0.4;}
	.st26{fill:#0F0E0D;}
	.st27{fill:#E0245E;}
	.st28{fill:#050535;}
	.st29{fill:#F2EBDF;}
</style>
<g>
	<path class="st0" d="M127.15,33.82c-0.16-0.05-0.3-0.09-0.42-0.11c0.01,0.01,0.01,0.03,0.02,0.05c0.11,0.03,0.23,0.05,0.35,0.05
		C127.12,33.82,127.13,33.82,127.15,33.82z"/>
	<path class="st0" d="M37.24,25.95c0.15-0.05,0.31-0.09,0.47-0.14L38,25.73c0.21-0.06,0.43-0.12,0.65-0.18
		c0.24-0.06,0.48-0.11,0.72-0.16c-0.43,0.05-0.85,0.11-1.27,0.2C37.76,25.67,37.48,25.79,37.24,25.95z"/>
	<path class="st0" d="M125.61,61.05c-0.11-0.37-0.22-0.75-0.34-1.12c0,0,0,0,0,0.01C125.34,60.3,125.46,60.68,125.61,61.05z"/>
	<path class="st0" d="M43.59,118.25c0.01,0.01,0.03,0.02,0.04,0.02c0-0.04,0-0.09-0.01-0.13C43.62,118.18,43.6,118.21,43.59,118.25z
		"/>
	<path class="st0" d="M19.57,80.5c-0.02-0.09-0.04-0.18-0.06-0.27C19.5,80.33,19.52,80.42,19.57,80.5z"/>
	<path class="st0" d="M28.47,94.23c0,0.19,0,0.38,0.01,0.56c0-0.06,0.01-0.13,0.01-0.19C28.49,94.47,28.48,94.35,28.47,94.23z"/>
	<path class="st0" d="M137.29,61.03c0.13,0.26,0.26,0.52,0.41,0.77C137.57,61.48,137.43,61.23,137.29,61.03z"/>
	<g>
		<path class="st5" d="M125.61,61.05c-0.15-0.36-0.26-0.75-0.34-1.12c0,0,0,0,0-0.01c-0.97-3.1-2.35-6.2-4.27-8.22
			c-0.86-0.91-1.79-1.55-2.77-1.91c-0.06,1.75-0.25,10.14,1.83,16.95c0.94,3.07,2.21,5.43,3.78,7c0.58-0.91,2.41-4.97-2.14-15.24
			c-0.06-0.13,0-0.28,0.13-0.33c0.13-0.06,0.28,0,0.33,0.13c4.63,10.45,2.82,14.63,2.12,15.71c0.71,0.2,1,0.81,1.1,1.53
			c0.32-3.16,0.82-6.23,1.6-8.29C126.7,65.56,126.26,63.35,125.61,61.05z"/>
	</g>
	<path class="st12" d="M126.04,74.34c-0.01-0.01-0.02-0.02-0.03-0.03c-0.01,0.07-0.02,0.13-0.02,0.2
		C126.01,74.45,126.02,74.4,126.04,74.34z"/>
	<path class="st12" d="M127.78,65.43C127.78,65.43,127.78,65.43,127.78,65.43c0.01,0.01,0.01,0.02,0.02,0.02
		c0.01-0.02,0.01-0.03,0.02-0.05C127.8,65.42,127.79,65.43,127.78,65.43z"/>
	<path class="st12" d="M125.08,57.78c-0.01-0.01-0.01-0.01-0.02-0.02c0.01,0.02,0.02,0.05,0.03,0.07
		C125.08,57.82,125.08,57.8,125.08,57.78z"/>
	<g>
		<path class="st5" d="M130.57,59.64c1.92-6.32,3.07-13.52,0.93-16.16c-0.09-0.11-0.07-0.27,0.04-0.35c0.05-0.04,0.1-0.06,0.16-0.06
			c0.07,0,0.15,0.03,0.2,0.09c2.86,3.53,0.18,13.38-1.06,17.3c1.48-1.15,3.42-3.58,5.19-8.66c2.09-6-0.44-10.68-2.93-13.56
			c-2.15-2.48-4.62-4-5.94-4.42c-0.02,0-0.03,0-0.06,0c-0.12,0-0.23-0.02-0.35-0.05C127.61,35.9,131.48,46.41,130.57,59.64z"/>
	</g>
	<path class="st12" d="M122.14,37.41c0.05,0.06,0.1,0.12,0.15,0.18c0.01,0,0.02,0,0.02,0C122.26,37.53,122.2,37.46,122.14,37.41z"/>
	<g>
		<path class="st5" d="M126.14,37.43c-0.02,0.12-0.12,0.22-0.24,0.22c-0.13,0-0.23-0.09-0.25-0.21c-0.01-0.04-0.74-4.15-4.58-6.13
			c-0.64-0.34-1.35-0.6-2.1-0.77c-0.14-0.03-0.22-0.17-0.19-0.3c0.03-0.14,0.17-0.22,0.3-0.19c0.79,0.19,1.54,0.46,2.21,0.82
			c2.4,1.24,3.64,3.21,4.26,4.66c-0.47-2.83-2.25-6.25-2.52-6.76c-0.64-0.35-1.3-0.65-1.95-0.91c-6.94-2.75-11.6,0.78-13.03,2.12
			c7.48-0.64,9.32,1.7,11.1,3.96c0.65,0.83,1.27,1.62,2.17,2.26c0.17,0.12,0.34,0.23,0.52,0.34c3.43,1.99,7.09,16.62,6.99,24.95
			c0.36-0.09,0.73-0.23,1.1-0.43c1.45-15.33-3.77-27.36-3.82-27.48c0,0,0-0.01,0-0.01c-0.21-0.01-0.41-0.09-0.59-0.24
			C125.99,34.73,126.29,36.23,126.14,37.43z"/>
	</g>
	<path class="st12" d="M128.83,62.16c0.01-0.02,0.02-0.04,0.03-0.07c0.03-0.05,0.06-0.08,0.1-0.12c-0.04,0.01-0.08,0.02-0.12,0.03
		C128.83,62.05,128.83,62.1,128.83,62.16z"/>
	<path class="st12" d="M117.83,56.27C117.83,56.28,117.83,56.28,117.83,56.27c0.01-0.04,0-0.09,0-0.14
		C117.83,56.18,117.83,56.23,117.83,56.27z"/>
	<path class="st12" d="M121.67,71.75c0,0,0,0.01,0.01,0.01c0,0,0.01,0,0.01,0c-0.02-0.03-0.04-0.06-0.05-0.09
		C121.65,71.7,121.66,71.72,121.67,71.75z"/>
	<path class="st12" d="M125.13,78.29C125.13,78.29,125.14,78.3,125.13,78.29C125.14,78.29,125.14,78.29,125.13,78.29
		C125.14,78.28,125.14,78.29,125.13,78.29z"/>
	<path class="st12" d="M126.34,72c0.1-0.44,0.17-0.88,0.23-1.32C126.49,71.11,126.41,71.55,126.34,72C126.34,72,126.34,72,126.34,72
		z"/>
	<path class="st12" d="M128.25,62.47c0.02,0.03,0.04,0.07,0.06,0.1c0-0.05,0.01-0.11,0.01-0.17
		C128.29,62.42,128.27,62.44,128.25,62.47z"/>
	<path class="st12" d="M126.17,46.75c0,0,0.01,0.01,0.01,0.01c0-0.01-0.01-0.02-0.01-0.03C126.17,46.73,126.17,46.74,126.17,46.75z"
		/>
	<path class="st12" d="M131.82,60.33c0-0.02,0-0.03,0-0.05c-0.05,0.04-0.09,0.09-0.14,0.13C131.73,60.38,131.78,60.35,131.82,60.33z
		"/>
	<path class="st12" d="M123.43,39.31c0.02,0,0.03,0.01,0.04,0.01c-0.09-0.17-0.18-0.33-0.27-0.49
		C123.27,39,123.36,39.16,123.43,39.31z"/>
	<path class="st12" d="M111.08,112.74c-0.37,0.24-0.82,0.6-1.42,1.14C110.17,113.6,110.61,113.11,111.08,112.74z"/>
	<path class="st12" d="M134.81,83.71c-0.05,0.06-0.1,0.11-0.15,0.17c0.04-0.03,0.08-0.06,0.12-0.08
		C134.79,83.77,134.8,83.74,134.81,83.71z"/>
	<path class="st12" d="M118.03,107.71c0.05-0.04,0.11-0.08,0.16-0.12c0.11-0.1,0.22-0.19,0.33-0.28c0-0.03,0-0.07,0.01-0.1
		c-0.18,0.18-0.36,0.35-0.53,0.52C118,107.73,118.01,107.72,118.03,107.71z"/>
	<path class="st12" d="M116.33,109.43c0.02-0.07,0.05-0.13,0.08-0.19c-0.07,0.06-0.13,0.12-0.19,0.18
		C116.26,109.41,116.3,109.42,116.33,109.43z"/>
	<path class="st12" d="M108.55,114.92C108.55,114.92,108.55,114.91,108.55,114.92c-0.01,0-0.01,0-0.02,0.01
		C108.54,114.92,108.54,114.92,108.55,114.92z"/>
	<g>
		<path class="st5" d="M139.24,72.79c-0.21-6.31-0.87-9.45-1.53-11c-0.16-0.25-0.28-0.51-0.41-0.77c-0.25-0.37-0.5-0.55-0.7-0.62
			c-0.46-0.17-0.85,0.16-0.96,0.27c-3.9,14.01-8.16,22.04-10.35,25.59c-0.14,0.22-0.26,0.41-0.37,0.59c0.38,0.93,0.72,2,0.94,3.18
			C138.57,83.56,139.24,72.9,139.24,72.79z M130.12,83.51c-0.06,0-0.12-0.02-0.17-0.06c-0.1-0.09-0.11-0.25-0.02-0.35
			c3.27-3.71,5.64-9.54,5.66-9.59c0.05-0.13,0.2-0.19,0.33-0.14c0.13,0.05,0.19,0.2,0.14,0.33c-0.02,0.06-2.42,5.96-5.75,9.74
			C130.26,83.48,130.19,83.51,130.12,83.51z"/>
	</g>
	<path class="st12" d="M131.17,87.27c0.01-0.01,0.01-0.01,0.02-0.01c0.04-0.02,0.07-0.04,0.11-0.06c0.04-0.03,0.08-0.05,0.11-0.07
		c0.01,0,0.02-0.01,0.03-0.02c0.03-0.05,0.19-0.16,0.23-0.19c0.24-0.21,0.46-0.44,0.68-0.67c-0.39,0.35-0.79,0.69-1.22,1.03
		C131.13,87.28,131.15,87.27,131.17,87.27z"/>
	<path class="st12" d="M114.88,91.5c0,0.01-0.01,0.02-0.01,0.02c0.03-0.03,0.06-0.06,0.09-0.09
		C114.93,91.45,114.9,91.48,114.88,91.5z"/>
	<g>
		<path class="st5" d="M112.06,100.78c0.09-0.11,0.25-0.12,0.35-0.03c0.11,0.09,0.12,0.25,0.03,0.35
			c-6.75,8.11-5.64,13.1-5.18,14.37c3.16-3.18,3.99-3.48,4.86-3.8c1.02-0.37,2.17-0.79,8.12-6.92c5.12-5.27,5.87-10.33,5.24-14.2
			c-0.01-0.01-0.02-0.02-0.03-0.03c-0.03-0.07-0.03-0.14-0.01-0.2c-0.22-1.25-0.59-2.36-0.99-3.32c-0.06-0.05-0.09-0.12-0.08-0.2
			c-0.68-1.57-1.45-2.68-1.81-3.15c-1.43,1.7-10.24,12.02-15.46,15.77c-4.1,2.94-4.8,8.51-4.88,11.23c0.06,0.03,0.12,0.07,0.17,0.12
			c0.53,0.58,0.99,1.11,1.42,1.61c0.12,0.14,0.14,0.32,0.09,0.47l0,0c0.07,0.08,0.14,0.16,0.21,0.25c0.53,0.33,1.03,0.73,1.49,1.15
			c0.25,0.23,0.5,0.47,0.73,0.72c0.13,0.13,0.25,0.28,0.37,0.43C106.15,113.7,105.46,108.7,112.06,100.78z"/>
	</g>
	<path class="st12" d="M125.33,85.2C125.33,85.2,125.33,85.2,125.33,85.2c-0.01,0-0.01,0.01-0.01,0.01
		C125.33,85.21,125.33,85.21,125.33,85.2z"/>
	<path class="st12" d="M125.94,90.59c0-0.01,0.01-0.03,0.01-0.04c-0.01,0-0.01,0.01-0.02,0.01
		C125.93,90.57,125.93,90.58,125.94,90.59z"/>
	<path class="st12" d="M112.07,112.22c0.13-0.04,0.26-0.08,0.39-0.13c0-0.01,0.01-0.02,0.01-0.02c-0.06,0.02-0.11,0.04-0.17,0.06
		C112.23,112.16,112.15,112.19,112.07,112.22z"/>
	<path class="st12" d="M124.69,86.26c-0.03-0.01-0.05-0.03-0.07-0.04c0.01,0.03,0.03,0.06,0.04,0.09
		C124.67,86.29,124.68,86.27,124.69,86.26z"/>
	<path class="st12" d="M125.44,81.74C125.44,81.74,125.44,81.73,125.44,81.74c0,0,0,0.01,0,0.02
		C125.44,81.75,125.44,81.74,125.44,81.74z"/>
	<path class="st12" d="M127.93,80.28c0,0,0,0.01,0,0.01c0.01-0.02,0.02-0.03,0.02-0.05C127.95,80.25,127.94,80.27,127.93,80.28z"/>
	<path class="st12" d="M23.51,107.59c0.02,0.02,0.03,0.05,0.05,0.07c-0.02-0.05-0.04-0.09-0.05-0.14
		C23.51,107.55,23.51,107.57,23.51,107.59z"/>
	<path class="st12" d="M22.93,99.82c0,0,0,0.01,0,0.01c0.01,0,0.02,0,0.02,0C22.95,99.83,22.94,99.83,22.93,99.82z"/>
	<path class="st12" d="M36.34,120c-0.34-0.17-0.67-0.34-0.99-0.51C35.68,119.68,36.01,119.85,36.34,120z"/>
	<g>
		<path class="st5" d="M39.39,118.33c-0.57-1.25-1.16-2.55-2.15-3.3c-0.76-0.58-2.06-2.24-3.72-4.34
			c-3.21-4.08-7.58-9.64-10.47-10.33c-0.28,1.78-1.34,13.18,16.37,20.48c0.09,0.04,0.14,0.12,0.15,0.21
			c0.17-0.03,0.34-0.05,0.53-0.05c0.45,0,0.82,0.1,1.14,0.27C40.44,120.62,39.93,119.5,39.39,118.33z M36.64,116.04
			c-0.05,0.07-0.13,0.11-0.21,0.11c-0.05,0-0.09-0.01-0.14-0.04c-1.47-0.95-8.75-5.8-8.18-7.61c0.04-0.13,0.18-0.21,0.31-0.16
			c0.13,0.04,0.21,0.18,0.16,0.31c-0.33,1.06,4.46,4.76,7.97,7.04C36.68,115.77,36.72,115.93,36.64,116.04z"/>
	</g>
	<g>
		<path class="st5" d="M12.85,81.09c0.04,0.07,5.38,8.95,13.23,13.54c0.48,0.28,0.91,0.52,1.32,0.73c-0.27-0.78-0.54-1.57-0.81-2.34
			c-2.97-2.14-5-5.06-6.06-8.68c-0.36-1.23-0.68-2.53-0.98-3.84c-0.05-0.08-0.07-0.17-0.06-0.27c-1.95-8.85-2.54-18.81-2.66-21.19
			C14.96,60.81,7.04,69.24,12.85,81.09z M19.58,86.03c0.1,0.09,0.11,0.25,0.01,0.35c-0.05,0.05-0.12,0.08-0.18,0.08
			c-0.06,0-0.12-0.02-0.17-0.07c-5.6-5.16-6.12-18.98-6.14-19.56c0-0.14,0.1-0.25,0.24-0.26c0.12-0.01,0.25,0.1,0.26,0.24
			C13.61,66.96,14.14,81,19.58,86.03z"/>
	</g>
	<path class="st12" d="M43.6,121.81c0.02,0.02,0.04,0.04,0.06,0.05c-0.02-0.03-0.04-0.06-0.06-0.09
		C43.6,121.79,43.6,121.8,43.6,121.81z"/>
	<path class="st12" d="M44.8,95.99c-0.01,0.03-0.03,0.05-0.05,0.08c0.06-0.04,0.13-0.07,0.19-0.11
		C44.89,95.97,44.85,95.99,44.8,95.99z"/>
	<path class="st12" d="M27.38,93.73c0,0-0.01,0-0.01,0c0.01,0.02,0.01,0.03,0.02,0.05C27.39,93.77,27.39,93.75,27.38,93.73z"/>
	<path class="st12" d="M46.36,108.51c0-0.01,0-0.03,0-0.04l-0.04,0.14C46.33,108.57,46.34,108.54,46.36,108.51z"/>
	<path class="st12" d="M48.31,99.61c-0.01-0.03-0.02-0.05-0.03-0.08c0,0.07-0.01,0.13-0.01,0.2C48.28,99.69,48.29,99.64,48.31,99.61
		z"/>
	<g>
		<path class="st5" d="M45.12,101.68c0.06-0.12,0.21-0.17,0.34-0.11c0.12,0.06,0.17,0.21,0.11,0.34c-1.87,3.74-1.22,8.59-0.82,10.64
			l1.73-6.45c2.06-7.35,1.3-9.42,0.67-10c-0.44-0.4-0.96-0.21-0.98-0.2c-3.37,1.45-3.41,3.79-3.46,7.34c-0.02,1-0.03,2.13-0.13,3.35
			c-0.26,3.22,0.24,4.66,0.73,6.05c0.34,0.96,0.65,1.87,0.69,3.27c0.01,0.17,0,0.34-0.02,0.5c0,0.02,0.01,0.05,0.01,0.07
			c0-0.28,0.03-0.55,0.11-0.82c-0.02-0.37,0.02-0.74,0.15-1.09c-0.01-0.37,0.06-0.75,0.19-1.1
			C44.13,112.27,42.82,106.28,45.12,101.68z"/>
	</g>
	<polygon class="st12" points="41.09,106.72 41.09,106.72 41.09,106.73 	"/>
	<g>
		<path class="st5" d="M43.2,118.61c-0.02-0.01-0.03-0.02-0.05-0.03c-1.29-0.75-4.16-2.81-4.92-6.8c-1.12-5.89-4.13-9.68-4.72-10.39
			c-0.09-0.11-0.08-0.26,0.03-0.35c0.11-0.09,0.26-0.08,0.35,0.03c0.61,0.72,3.69,4.61,4.83,10.62c0.68,3.55,3.12,5.5,4.42,6.31
			c0.17-0.52,0.28-1.04,0.31-1.55c-0.82-5.47-4.3-13.89-6.44-15.83c-2.3-2.08-6.76-8.56-7.87-10.18c-0.49,1.13-0.67,2.46-0.67,3.8
			c0.01,0.12,0.02,0.25,0.02,0.37c0,0.06-0.01,0.13-0.01,0.19c0.04,1.04,0.17,2.06,0.34,3c1.22,3.31,2.19,5.52,2.87,6.56
			c1.59,2.46,7.72,10.88,11.85,16.5c-0.35-0.65-0.41-1.45-0.19-2.16C43.31,118.67,43.26,118.64,43.2,118.61
			C43.2,118.61,43.2,118.61,43.2,118.61z"/>
	</g>
	<path class="st12" d="M22.03,92.43c0.06,0.04,0.12,0.08,0.18,0.12c-0.07-0.06-0.14-0.12-0.21-0.17
		C22.01,92.39,22.02,92.41,22.03,92.43z"/>
	<path class="st12" d="M44.16,121.6c-0.09-0.07-0.17-0.16-0.25-0.25c0.11,0.15,0.22,0.3,0.33,0.44
		C44.21,121.74,44.18,121.67,44.16,121.6z"/>
	<path class="st12" d="M44.13,117.4c-0.03-0.09-0.05-0.19-0.08-0.29c0.01,0.13,0.03,0.26,0.04,0.39
		C44.1,117.46,44.12,117.43,44.13,117.4z"/>
	<path class="st12" d="M14.53,60.79c-0.01,0.03-0.02,0.06-0.02,0.09c0.04-0.05,0.07-0.09,0.11-0.13
		C14.59,60.76,14.56,60.78,14.53,60.79z"/>
	<path class="st12" d="M19.19,75.74c-0.03-0.08-0.05-0.15-0.08-0.23c0.03,0.15,0.05,0.31,0.08,0.46
		C19.19,75.9,19.19,75.82,19.19,75.74z"/>
	<path class="st12" d="M12.39,64.08c0,0.03,0,0.05,0,0.08c0.02-0.04,0.04-0.09,0.06-0.13C12.43,64.04,12.41,64.07,12.39,64.08z"/>
	<path class="st12" d="M10.45,75.26c0.03,0.17,0.07,0.35,0.11,0.52c-0.03-0.19-0.07-0.38-0.1-0.57
		C10.45,75.23,10.45,75.24,10.45,75.26z"/>
	<path class="st12" d="M10.74,67.97c0.02,0.1,0.04,0.2,0.06,0.31c0.05-0.18,0.09-0.36,0.14-0.53C10.88,67.82,10.82,67.9,10.74,67.97
		z"/>
	<path class="st12" d="M10.35,70.2c0.02,0.05,0.04,0.11,0.05,0.16c0.01-0.1,0.02-0.21,0.04-0.31C10.41,70.11,10.38,70.16,10.35,70.2
		z"/>
	<path class="st12" d="M11.79,80.15c0.05,0.03,0.09,0.07,0.13,0.1c-0.04-0.1-0.09-0.19-0.13-0.29
		C11.79,80.03,11.8,80.09,11.79,80.15z"/>
	<path class="st12" d="M13.58,83.16c0.04,0.03,0.08,0.07,0.12,0.11c-0.05-0.07-0.1-0.14-0.15-0.21
		C13.56,83.09,13.57,83.12,13.58,83.16z"/>
	<path class="st12" d="M21.41,46.48c0,0.01,0,0.01,0,0.02c0-0.01,0.01-0.02,0.01-0.03C21.42,46.47,21.42,46.48,21.41,46.48z"/>
	<path class="st12" d="M29.04,43.24c0.04-0.1,0.09-0.21,0.13-0.32c-0.09,0.15-0.18,0.31-0.26,0.47
		C28.95,43.34,28.99,43.28,29.04,43.24z"/>
	<path class="st12" d="M21.93,44.35c0,0.02,0,0.04,0,0.06c0.01-0.03,0.02-0.07,0.03-0.1C21.95,44.31,21.94,44.33,21.93,44.35z"/>
	<path class="st12" d="M24.5,15.06c-0.01,0.04-0.02,0.07-0.02,0.11c0.04-0.06,0.07-0.11,0.11-0.17
		C24.55,15.03,24.53,15.05,24.5,15.06z"/>
	<path class="st12" d="M28.14,45.03c0.05-0.09,0.1-0.19,0.15-0.28c0.02-0.12,0.04-0.23,0.07-0.34c-0.13,0.25-0.25,0.5-0.38,0.77
		C28.04,45.12,28.09,45.07,28.14,45.03z"/>
	<path class="st12" d="M22.36,19.44c0,0.01,0,0.01,0,0.02c0.13-0.35,0.27-0.68,0.41-1C22.6,18.78,22.47,19.1,22.36,19.44z"/>
	<path class="st12" d="M20.37,32.03c0.04-0.09,0.07-0.16,0.09-0.21c0-0.02,0-0.04,0-0.05C20.43,31.85,20.41,31.94,20.37,32.03z"/>
	<path class="st12" d="M21.19,22.94c0,0.01,0,0.02,0,0.03c0.01-0.02,0.01-0.05,0.02-0.07C21.21,22.91,21.2,22.92,21.19,22.94z"/>
	<g>
		<path class="st5" d="M31.65,10.65c-1.24,0.01-6.86,0.74-10.14,13.02c-0.01,0.06-1.16,8.16-0.12,13.5
			c1.25-1.87,5.62-8.73,5.68-13.41c0-0.14,0.11-0.25,0.25-0.25c0,0,0,0,0,0c0.14,0,0.25,0.12,0.25,0.25
			c-0.07,4.94-4.6,11.96-5.82,13.76C23.7,35.61,29.48,28.52,31.65,10.65z"/>
	</g>
	<path class="st12" d="M54.51,10.22c-0.12,0.01-0.24,0.02-0.36,0.05c-0.01,0.01-0.03,0.02-0.05,0.03c0.13-0.03,0.25-0.05,0.38-0.08
		C54.48,10.23,54.5,10.23,54.51,10.22z"/>
	<g>
		<path class="st5" d="M44.82,17.8c-0.05-0.1-0.03-0.23,0.06-0.31c0.08-0.07,8.38-6.95,16.7-4.9c0.13,0.03,0.22,0.17,0.18,0.3
			c-0.03,0.13-0.17,0.22-0.3,0.18c-6.47-1.6-12.97,2.41-15.32,4.09c11.64-2.63,14.82-1.2,15.16-1.01
			c7.62,2.57,11.94,2.26,13.13,2.09c-5.39-8.67-19.74-7.55-19.89-7.54c-10.97,2.06-18.3,8.72-22.75,14.49
			c1.52-1.13,3.51-2.39,5.89-3.36c6.43-2.65,12.82-2.17,18.98,1.44c0.1-0.45,0.3-0.88,0.63-1.2c-1.41-0.21-2.73-0.59-3.78-1.79
			c-1.07-1.22-0.89-3.22,0.55-3.98c-2.26,0.24-5.19,0.72-8.95,1.62C44.99,17.96,44.87,17.91,44.82,17.8z"/>
	</g>
	<g>
		<path class="st5" d="M30.61,29.07c0,0-0.01,0-0.01,0c-0.03,0.01-0.05,0.02-0.08,0.02c-0.01,0-0.02,0.01-0.03,0.01
			c-0.14,0-0.25-0.11-0.25-0.25c0-0.07,0.03-0.12,0.07-0.17c0.01-0.01,0.01-0.02,0.02-0.03c0.07-0.06,7.32-6.33,12.11-6.99
			c0.14-0.02,0.26,0.08,0.28,0.22c0.02,0.14-0.08,0.26-0.22,0.28c-3.29,0.45-7.95,3.78-10.33,5.63c1.22-0.52,2.98-1.21,5.06-1.84
			c0.24-0.16,0.52-0.29,0.86-0.36c0.42-0.09,0.85-0.16,1.27-0.2c2.71-0.57,5.69-0.33,8.35-0.11c1.87,0.15,3.64,0.3,4.94,0.11
			c2.43-0.36,3.31-1.35,3.58-1.76c-5.96-3.44-12.14-3.88-18.36-1.31c-3.18,1.31-5.68,3.14-7.22,4.45c-2.56,3.61-4.26,7.07-5.32,9.58
			c2.3-1.98,8.96-7.48,11.38-7.09c-0.47-0.79-0.55-1.79-0.14-2.56C33.04,27.84,30.63,29.05,30.61,29.07L30.61,29.07z"/>
	</g>
	<g>
		<path class="st5" d="M30.31,35.55c0.1-0.1,0.26-0.09,0.36,0.01c0.1,0.1,0.09,0.26-0.01,0.36c-7.63,7.24-7.91,17.33-7.75,20.83
			c1.22-3.66,4.97-14.39,7.98-16.92C34,37.2,36.2,31,36.63,29.74c-1.77-0.38-7.8,4.13-11.72,7.64c-0.07,0.18-0.14,0.35-0.2,0.52
			c-2.03,5.37-2.35,6.72-2.74,8.43c-0.26,1.11-0.55,2.37-1.35,4.93c-0.83,2.65-0.34,8.74,0.52,15.02c0-1.51,0.03-3.07,0.28-4.56
			c0.14-0.83,0.39-1.64,0.65-2.43c0.12-0.38,0.25-0.79,0.44-1.15c-0.01-0.03-0.02-0.05-0.03-0.08
			C22.48,57.92,20.79,44.58,30.31,35.55z"/>
	</g>
	<path class="st12" d="M27.3,46.71c0-0.03,0.01-0.06,0.01-0.09c-0.02,0.05-0.04,0.1-0.07,0.15C27.26,46.75,27.28,46.73,27.3,46.71z"
		/>
	<path class="st12" d="M24.94,52.67c0-0.06-0.01-0.12-0.01-0.18c-0.04,0.11-0.08,0.22-0.12,0.33
		C24.85,52.76,24.89,52.71,24.94,52.67z"/>
	<g>
		<path class="st5" d="M24.47,37.14C24.47,37.13,24.47,37.13,24.47,37.14c0-0.01,0-0.01,0-0.01c1.02-2.58,2.84-6.53,5.79-10.68
			c0.86-1.22,1.86-2.5,2.99-3.79c-0.19,0.05-0.4,0.08-0.62,0.08c-1.3,0-2.07-0.81-2.33-1.78C27.09,33.84,22.1,38,21.47,38.48
			c0,0.05,0.01,0.11,0.01,0.16c0.52,0.19,1.02,0.63,1.28,1.09c0.16,0.28,0.29,0.68,0.34,1.08c0.31-0.86,0.68-1.86,1.14-3.08
			C24.31,37.53,24.39,37.33,24.47,37.14z"/>
	</g>
	<path class="st12" d="M21.27,67.03c-0.01-0.01-0.02-0.03-0.03-0.05c0.01,0.07,0.02,0.14,0.03,0.22
		C21.28,67.15,21.27,67.09,21.27,67.03z"/>
	<path class="st12" d="M19.86,51.79c0.01,0.05,0.03,0.09,0.04,0.14c0.01,0.05,0.02,0.11,0.02,0.16c0.03-0.17,0.06-0.33,0.09-0.48
		C19.96,51.67,19.91,51.73,19.86,51.79z"/>
	<path class="st12" d="M29.82,10.42c-0.01,0.02-0.03,0.03-0.04,0.05c0.04-0.01,0.09-0.03,0.13-0.04
		C29.88,10.42,29.85,10.43,29.82,10.42z"/>
	<path class="st12" d="M72.31,18.92c0.03-0.01,0.06-0.02,0.09-0.03c0.01,0,0.02,0,0.03-0.01c-0.08,0-0.14,0-0.23,0
		C72.23,18.89,72.27,18.9,72.31,18.92z"/>
	<path class="st12" d="M56.58,24.13c0-0.04,0-0.09,0-0.13c-0.04,0.06-0.09,0.12-0.14,0.18C56.49,24.17,56.54,24.15,56.58,24.13z"/>
	<path class="st12" d="M47.61,12.24c0.64-0.26,1.29-0.5,1.96-0.73C48.93,11.68,48.26,11.96,47.61,12.24z"/>
	<path class="st12" d="M36.69,31.14c0-0.03,0.01-0.06,0.01-0.1c-0.02,0.05-0.04,0.11-0.06,0.17C36.66,31.19,36.67,31.16,36.69,31.14
		z"/>
	<path class="st12" d="M32.55,38.83c0-0.01,0.01-0.02,0.02-0.03c-0.01,0.01-0.02,0.02-0.03,0.03
		C32.54,38.84,32.54,38.83,32.55,38.83z"/>
	<path class="st12" d="M45.7,13.03c-0.05,0.02-0.09,0.03-0.14,0.05c-0.03,0.05-0.08,0.09-0.11,0.13c0.28-0.14,0.56-0.27,0.85-0.4
		C46.09,12.89,45.89,12.97,45.7,13.03z"/>
	<path class="st12" d="M33.57,37.59c0.06-0.19,0.14-0.37,0.24-0.54c-0.17,0.27-0.35,0.54-0.53,0.8
		C33.37,37.77,33.47,37.68,33.57,37.59z"/>
	<path class="st12" d="M49.02,25.89c0.01,0,0.02,0,0.03-0.01c-0.05,0-0.1-0.01-0.14-0.01C48.95,25.88,48.99,25.88,49.02,25.89z"/>
	<path class="st12" d="M43.68,14.09c-0.05,0.05-0.11,0.09-0.16,0.13c0.1-0.05,0.2-0.11,0.29-0.16
		C43.77,14.07,43.73,14.07,43.68,14.09z"/>
	<path class="st12" d="M31.63,14.48c0-0.02,0-0.04,0-0.06c-0.01,0.05-0.02,0.1-0.03,0.15C31.61,14.54,31.62,14.51,31.63,14.48z"/>
	<path class="st12" d="M32.18,10.51C32.18,10.51,32.18,10.51,32.18,10.51c-0.01,0-0.01,0.01-0.01,0.02
		C32.18,10.53,32.18,10.52,32.18,10.51z"/>
	<path class="st12" d="M31.17,17.18c0-0.08,0.01-0.15,0.02-0.23c0-0.02,0-0.04,0-0.06c-0.03,0.14-0.05,0.28-0.08,0.43
		C31.13,17.27,31.15,17.22,31.17,17.18z"/>
	<path class="st12" d="M35.01,20.72c0,0.02-0.01,0.05-0.02,0.07c0.03-0.03,0.06-0.06,0.09-0.09C35.06,20.71,35.03,20.71,35.01,20.72
		z"/>
	<path class="st12" d="M40.4,16.13c-0.03,0.02-0.07,0.03-0.1,0.05c-0.04,0.06-0.08,0.11-0.12,0.17c0.36-0.26,0.73-0.51,1.11-0.76
		C41,15.75,40.71,15.93,40.4,16.13z"/>
	<path class="st12" d="M38.63,17.43c-0.01,0.04-0.03,0.09-0.05,0.13c0.12-0.09,0.24-0.19,0.36-0.28
		C38.84,17.33,38.74,17.38,38.63,17.43z"/>
	<path class="st12" d="M20.59,49.6c0,0.01,0,0.02,0,0.03c0.01-0.02,0.01-0.04,0.02-0.05C20.6,49.58,20.6,49.59,20.59,49.6z"/>
	<polygon class="st12" points="28.85,79.71 28.85,79.71 28.85,79.71 	"/>
	<g>
		<path class="st5" d="M25.23,73.6c1.78-8.87,2.49-11.85,3.2-12.01c0.07-0.02,0.25-0.03,0.4,0.16c0.08,0.11,0.06,0.27-0.05,0.35
			c-0.08,0.06-0.18,0.07-0.26,0.03c-0.61,0.77-1.87,6.99-2.79,11.58c-0.36,1.81-0.72,3.58-1.05,5.13c-0.83,3.86-0.07,5.65,0.92,6.04
			c0.55,0.22,1.19-0.02,1.52-0.57c0.78-1.3,1.7-7.11,2.44-11.79c0.15-0.97,0.3-1.91,0.44-2.74c0.7-4.31,2.11-13.87,2.43-16.09
			c-7.27,3.64-9.4,14.38-10.03,20.56c0.52,3,1.04,5.67,1.42,7.56c0-0.82,0.09-1.83,0.36-3.07C24.51,77.18,24.87,75.4,25.23,73.6z"/>
	</g>
	<path class="st12" d="M30.22,71.64c0-0.07,0.01-0.14,0.01-0.2c-0.01,0.08-0.03,0.17-0.04,0.25C30.2,71.68,30.21,71.66,30.22,71.64z
		"/>
	<path class="st12" d="M32.72,55.66c-0.02-0.08-0.03-0.17-0.04-0.26c-0.02,0.14-0.04,0.28-0.06,0.44
		C32.65,55.78,32.68,55.72,32.72,55.66z"/>
	<path class="st12" d="M32.99,53.56c-0.01,0-0.03,0-0.04,0c-0.01,0.04-0.01,0.09-0.02,0.14C32.95,53.66,32.97,53.61,32.99,53.56z"/>
	<path class="st12" d="M25.86,85.45c0,0,0.01-0.01,0.01-0.01c-0.01,0-0.02,0-0.03,0C25.84,85.44,25.85,85.45,25.86,85.45z"/>
	<path class="st12" d="M28.4,82.07c0.02-0.05,0.06-0.09,0.09-0.14c0-0.13-0.01-0.25-0.01-0.38c-0.06,0.26-0.12,0.51-0.17,0.74
		C28.34,82.22,28.37,82.15,28.4,82.07z"/>
	<path class="st12" d="M24.33,84.3C24.33,84.3,24.33,84.3,24.33,84.3c0-0.01,0-0.01,0-0.02C24.33,84.29,24.33,84.3,24.33,84.3z"/>
	<path class="st12" d="M22.11,72.37c-0.01,0-0.02,0.01-0.03,0.01c0.01,0.04,0.01,0.07,0.02,0.11C22.1,72.44,22.11,72.41,22.11,72.37
		z"/>
	<path class="st12" d="M100.92,41.11c0.25,0.47,0.65,0.93,1.2,1.37c2.6,2.06,0.37,7.76,0.1,8.43l0.09,1.26
		c4.28-0.89,8.13-2.93,4.87-8.19c-0.02-0.02-0.03-0.05-0.03-0.07c-1.19-1.67-3.01-2.99-4.45-3.23c-0.6-0.1-1.09-0.01-1.46,0.26
		C101.13,41,101.03,41.06,100.92,41.11z"/>
	<path class="st12" d="M69.82,29.33c0.37,0.21,0.79,0.41,1.22,0.32c1.08-0.09,1.84-1.49,2.99-1.11c0.57,0.23,0.84,0.8,1.16,1.17
		c0.52,0.62,1.18,1.05,1.91,1.35c0.12-0.2,0.41-0.71,0.41-0.71c1.17-1.82,3.31-4.27,5.72-3.74c0.83,0.84,1.71,1.75,2.83,2.18
		c0.54,0.17,0.72,0,0.98-0.51c0.85-0.98,2.25-1.19,3.42-1.47c0.88-0.17,1.77-0.28,2.66-0.35c-0.49-1.2-1.27-2.01-2.33-2.41
		c-2.69-1-6.34,0.94-6.38,0.96c-0.08,0.04-0.17,0.04-0.25,0c-3.43-2.01-6.59-2.36-9.39-1.03c-2.97,1.4-4.43,4.16-4.5,4.62
		C70.22,28.92,70.06,29.17,69.82,29.33z"/>
	<path class="st12" d="M48.63,44.34c0,0-0.01,0-0.01,0.01c-1.48,1.41-0.21,3.34,0.94,4.54c0.37,0.27,0.81,0.55,1.26,0.8
		c0.09-0.39,0.25-0.63,0.49-0.73c0.2-0.08,0.19-1.06-0.02-2c-0.02-0.09,0.01-0.18,0.08-0.24c0.08-0.07,1.9-1.7,3.17-1.03
		c0.01,0,0.44-0.35,0.18-4.13c-0.01,0-0.02,0-0.02,0c0.01,0-2.76,0.33-4.88,1.41C49.93,43.62,48.99,43.9,48.63,44.34z"/>
	<path class="st12" d="M55.07,39.76c0.02,0.2,0.08,0.8,0.13,1.54c0.31,4.36-0.21,4.69-0.4,4.82c-0.15,0.1-0.33,0.1-0.5,0.01
		c-0.74-0.39-1.96,0.42-2.49,0.87c0.13,0.65,0.36,2.16-0.31,2.43c-0.06,0.03-0.16,0.17-0.22,0.51c3.57,1.89,7.7,2.48,11.7,2.39
		c6.29,0.14,12.56,0.56,18.82,0.74c5.54,0.15,11.12,0.21,16.63-0.34c1.05-0.1,2.22-0.24,3.37-0.46l-0.1-1.38
		c0-0.04,0-0.08,0.02-0.12c0.03-0.06,2.48-5.98,0.08-7.89c-0.63-0.5-1.08-1.03-1.36-1.59c-0.11,0.04-0.25,0.07-0.4,0.11
		c0.33,1.12,0.33,2.41,0.16,3.5c-0.13,0.79-0.24,1.63-0.56,2.37c-1.3,1.17-2.77,2.3-4.47,2.81c-1.7,0.56-3.71,0.39-5.12-0.82
		c-0.06-0.05-0.07-0.13-0.03-0.19c0.51-1.22,0.24-2.69,0.12-3.99c-0.76-0.04-1.35-0.59-1.66-1.2c-0.65-1.32-0.66-2.83-0.52-4.25
		c0.59-3.57,5.04-5.59,8.08-6.13c-3.34,0.87-7.68,2.74-7.92,6.68c-0.01,0.51,0,1.07,0.04,1.58c0.13,1.24,0.61,3.02,2.11,3.04
		c0.07,0,0.13,0.05,0.15,0.12c0.1,0.71,0.17,1.42,0.2,2.13c0,0.69,0.05,1.37-0.24,2.03c2.05,1.62,4.98,0.89,6.97-0.51
		c0.62-0.42,1.43-1.12,1.99-1.63c0.28-1.33,0.81-3.8,0.19-5.61c-0.01-0.02-0.02-0.05-0.03-0.08c-0.09-0.25-0.21-0.49-0.35-0.71
		c-0.35-0.59-0.91-1.02-1.56-1.26c-1.17,0.34-2.36,0.83-3.32,1.59c-1.01,0.75-1.52,2.01-0.97,3.2c0.21,0.28,0.81,0.86,1.31,0.92
		c1.11,0.19,2.18-1.1,1.93-2.17c-0.1-0.46-0.44-0.89-0.9-1.03c-0.03,0.1-0.12,0.18-0.24,0.18h-0.06c-0.14,0-0.25-0.11-0.25-0.25
		c0-0.14,0.11-0.25,0.25-0.25h0.06c0.14,0,0.25,0.11,0.25,0.25c0,0,0,0.01,0,0.01c0.5,0.12,0.89,0.57,1.02,1.06
		c0.35,1.22-0.84,2.69-2.12,2.5c-2.44-0.58-2.33-3.44-0.57-4.76c1.08-0.84,2.36-1.52,3.7-1.75c1.12,0.37,1.8,1.17,2.2,2.15
		c0.14-0.03,0.26-0.06,0.37-0.1c-0.38-1.14,0.08-2,0.19-2.18c0.38-1.15,0.33-2.13-0.13-2.93c-0.8-1.39-2.64-1.77-2.65-1.77
		c-0.1-0.02-0.17-0.09-0.19-0.19c-0.2-0.81-0.05-2.46-0.01-2.82c-0.5-1.09-1.9-1.34-2.67-1.39c0.1,0.34,0.11,0.53-0.1,0.61
		c-0.25,0.1-0.39-0.13-0.7-0.76c-0.04-0.08-0.03-0.16,0.01-0.24c0.02-0.04,0.06-0.08,0.1-0.1c-0.21-0.59-0.52-1.42-0.93-2.49
		c0-0.01-0.01-0.02-0.01-0.03c-0.89,0.11-1.78,0.26-2.65,0.46c-1.13,0.32-2.44,0.56-3.21,1.48c-0.1,0.14-0.19,0.49-0.49,0.63
		c-0.28,0.16-0.59,0.1-0.84,0.04c-1.18-0.41-2.11-1.28-3-2.11c-1.88-0.05-3.45,1.41-4.66,2.71c-0.28,0.32-0.8,0.95-1.12,1.36
		c1.18,0.47,2.54,0.59,3.77,0.55c0.19-0.02,0.3,0.25,0.15,0.37c-0.29,0.27-0.57,0.61-0.67,0.96c-0.27,0.84,0.87,1.12,1.49,1.24
		l0.63,0.1c1.73,0.15,3.19,1.28,3.06,3.17c-0.02,0.43-0.09,0.84-0.23,1.26c0.22,0.54-0.15,1.07-0.36,1.55
		c-0.77,1.37-1.82,2.57-3.17,3.41c-2.37,1.36-3.08-0.05-4.14-1.53c-0.07-0.04-0.12-0.1-0.13-0.18c-0.2-0.27-0.41-0.54-0.65-0.79
		c-1.28-1.53-3.38-2.41-5.15-1.15c-0.83,0.57-1.75,1.26-2.73,1.79c-0.02,0.07-0.06,0.14-0.14,0.17c-0.03,0.01-0.06,0.02-0.09,0.02
		c-0.03,0-0.06-0.01-0.09-0.02c-1.27,0.62-2.62,0.93-3.99,0.32c-0.94-0.48-1.61-1.37-2.03-2.32c-1.44-2.85,1.61-4.66,3.76-5.78
		c0.91-0.38,1.74-1.42,2.82-1.04c1.4,0.78,1.67,2.54,2.67,3.69c0.31,0.38,0.73,0.72,1.23,0.76c0.96,0.13,2.19-0.23,2.37-1.31
		c0-0.03,0.06-0.03,0.05,0.01c-0.17,1.12-1.44,1.52-2.43,1.39c-2.38-0.17-2.6-5.88-5.3-4.11c-2.97,1.8-7.38,3.54-4.13,7.54
		c1.24,1.6,3.2,1.38,4.83,0.57c0.01-0.05,0.03-0.09,0.07-0.13c0.05-0.05,0.12-0.07,0.18-0.07c0,0,0,0,0,0c0.03,0,0.07,0.01,0.1,0.02
		c0.05-0.03,0.11-0.06,0.16-0.09c0.89-0.48,1.66-1.1,2.52-1.7c2.56-1.7,4.7-0.02,6.31,1.96c0.09,0.03,0.16,0.11,0.17,0.21
		c0.37,0.47,0.71,0.95,1.02,1.39c1.59,1.43,3.66-0.81,4.67-2.03c0.5-0.66,1.03-1.38,1.19-2.2c0.01-0.17-0.05-0.29-0.06-0.43
		c0.7-2.06-0.18-3.62-2.39-3.86c-1.03-0.14-2.93-0.53-2.48-1.96c0.1-0.3,0.27-0.55,0.46-0.77c-2.15-0.03-4.49-0.63-5.73-2.51
		c-0.2-0.31-0.45-0.65-0.79-0.79c-0.98-0.35-1.86,0.98-2.89,1c-0.45,0.04-0.95-0.12-1.3-0.4c-0.03,0.02-0.05,0.04-0.08,0.05
		c-0.01,0.01-0.02,0.01-0.04,0.01c-0.53,0.24-1.21,0.09-1.24,0.08c-1.74-0.61-3.18-0.53-4.3,0.22c-2.39,1.6-2.66,5.75-2.66,5.79
		c0,0.07-0.04,0.14-0.1,0.19c-0.06,0.04-0.14,0.06-0.21,0.04C57.58,34.91,55.35,39.2,55.07,39.76z M59.12,48.1
		c1.45-0.75,2.98-1.42,4.6-1.7c1.11-0.21,2.43-0.06,2.98,1.07c0.31,0.46,0.47,1.06,0.52,1.6c0.07,0.73,0.99,1.13,1.65,1.29
		c2.4,0.21,4.8-0.54,7.14-1.04c2.1-0.51,4.21-1.05,6.3-1.63c1.92-0.44,2.1,2.83,2.18,4.19c0,0.03-0.05,0.03-0.05,0
		c-0.09-0.63-0.17-1.25-0.34-1.86c-0.2-0.77-0.67-2.3-1.68-1.96c-4.16,1.27-8.39,2.57-12.77,2.75c-0.56,0-1.16-0.08-1.65-0.38
		c-0.5-0.25-1.07-0.69-1.1-1.31c-0.05-0.55-0.15-1.02-0.45-1.48c-0.48-1.04-1.66-1.15-2.68-0.98c-1.63,0.22-3.16,0.95-4.64,1.58
		c-1.13-0.67-2-1.73-2.57-2.9c-0.01-0.03,0.03-0.05,0.05-0.02C57.13,46.47,58.27,47.54,59.12,48.1z"/>
	<path class="st11" d="M56.55,45.32c0.57,1.17,1.44,2.23,2.57,2.9c1.48-0.63,3.01-1.36,4.64-1.58c1.02-0.17,2.2-0.06,2.68,0.98
		c0.3,0.46,0.4,0.93,0.45,1.48c0.03,0.61,0.6,1.06,1.1,1.31c0.5,0.3,1.09,0.38,1.65,0.38c4.38-0.18,8.61-1.48,12.77-2.75
		c1.01-0.34,1.48,1.2,1.68,1.96c0.17,0.61,0.25,1.24,0.34,1.86c0,0.03,0.05,0.03,0.05,0c-0.08-1.36-0.26-4.63-2.18-4.19
		c-2.09,0.59-4.19,1.12-6.3,1.63c-2.34,0.5-4.74,1.25-7.14,1.04c-0.66-0.17-1.58-0.56-1.65-1.29c-0.05-0.53-0.2-1.14-0.52-1.6
		c-0.55-1.13-1.88-1.29-2.98-1.07c-1.62,0.29-3.15,0.95-4.6,1.7c-0.85-0.57-1.99-1.64-2.53-2.8C56.58,45.27,56.53,45.29,56.55,45.32
		z"/>
	<g>
		<path class="st6" d="M64.27,101.97c3.47-2.56,7.27-4.88,11.51-5.91c1.29-0.3,3.37-0.51,4.35-0.29c4.55-0.27,8.86,2.25,11.94,5.29
			c0,0,0.32,0.28,0.48,0.42c5.52-2.84,11.22-6.32,13.77-12.25c0.89-1.92,1.54-3.94,2.07-5.99c0-0.01,0.01-0.01,0.01-0.01
			c0.17-0.53,0.33-1.05,0.5-1.58c0.73-2.61,1.29-5.26,1.56-7.96c0.19-1.62,0.32-3.24,0.38-4.87c0.08-1.63,0.05-3.26,0.06-4.89
			c0-0.29,0.22-0.53,0.5-0.57c-0.04-3.29-0.23-6.58-0.62-9.85c-0.29-2.38-0.79-4.88-1.9-7.04c0.37,1.87-0.21,3.75-2.15,4.97
			c-2.5,1.51-5.37,1.87-8.18,2.31c-11.83,1.5-23.75,0.38-35.59,0.14c-2.07,0.04-4.36-0.06-6.39-0.48c-2.12-0.43-4.2-1.14-6.11-2.16
			c-1.18-0.59-2.34-1.42-3.05-2.61c-0.5-0.74-0.91-1.63-0.96-2.56c-0.54,0.58-1.01,1.2-1.36,1.83c-0.13,0.26-0.14,0.54-0.18,0.84
			c-0.41,4.01-0.57,9.16-0.74,13.81c0.02,0.07,0.04,0.15,0.03,0.23l-0.01,2.28c-0.03,1.34-0.04,3.24-0.13,4.55
			c-0.09,1.72-0.1,3.47-0.04,5.21c0.33,4.63,1.3,9.21,3.53,13.27c2.17,3.71,5.52,6.57,8.92,9.17c2.28,1.71,4.69,3.28,7.16,4.68
			L64.27,101.97z M84.63,68.98c0.1-0.4,0.51-0.65,0.92-0.55c0.4,0.1,0.65,0.51,0.55,0.91c-0.03,0.11-0.56,2.47,1.59,3.57
			c1.89,0.96,7.1,2.01,10.3,0.58c1.38-0.62,2.24-1.59,2.61-2.99c0.11-0.4,0.52-0.64,0.92-0.53c0.4,0.11,0.64,0.52,0.53,0.92
			c-0.49,1.83-1.65,3.17-3.45,3.97c-1.36,0.61-2.96,0.84-4.53,0.84c-2.89,0-5.73-0.78-7.06-1.45C84.4,72.94,84.31,70.23,84.63,68.98
			z M81.84,89.66c0.41-0.05,0.79,0.25,0.84,0.66c0.05,0.41-0.25,0.79-0.66,0.84c-0.95,0.11-2.19,0.15-3.4,0.15
			c-2.33,0-4.61-0.14-4.75-0.14c-0.42-0.03-0.73-0.38-0.71-0.8c0.03-0.42,0.39-0.73,0.8-0.71C74.01,89.66,79.2,89.97,81.84,89.66z
			 M59.21,65.92c0.19-0.37,0.64-0.52,1.01-0.34c0.37,0.19,0.52,0.63,0.34,1.01c-0.03,0.06-0.57,1.25,0.04,3.07
			c0.29,0.87,4.92,3.01,8.8,2.74c2.2-0.15,3.47-1.04,3.77-2.64c0.08-0.41,0.47-0.68,0.88-0.6c0.41,0.08,0.68,0.47,0.6,0.88
			c-0.43,2.3-2.26,3.67-5.15,3.87c-0.24,0.02-0.48,0.02-0.73,0.02c-3.92,0-8.99-1.95-9.61-3.79C58.35,67.68,59.17,65.99,59.21,65.92
			z"/>
	</g>
	<g>
		<path class="st6" d="M44.29,80.83c-2.06-5.55-1.88-11.58-1.49-17.41c-1.44,0.1-2.45,0.98-3.21,2.36c-2,3.49-1.63,6.69,0.12,10.19
			c0.77,1.64,1.67,3.23,2.64,4.77L44.29,80.83z"/>
	</g>
	<g>
		<path class="st6" d="M112.03,64.9c-0.05,1.32-0.1,2.64-0.22,3.97c-0.28,3.28-0.73,6.58-1.73,9.73c-0.5,1.54-1.05,3.04-1.51,4.58
			c0.45-0.04,0.89-0.18,1.26-0.43c2.72-2.42,4.23-6.18,5.11-9.6C115.78,69.97,114.8,66.65,112.03,64.9z"/>
	</g>
	<path class="st11" d="M139.74,72.8c-0.26-7.92-1.27-12.25-2.99-12.86c-0.86-0.31-1.52,0.42-1.54,0.45
		c-0.03,0.03-0.04,0.06-0.05,0.1c-2.46,8.86-5.06,15.31-7.2,19.75c-0.01,0.02-0.02,0.03-0.02,0.05c-0.99,2.06-1.88,3.69-2.61,4.91
		c0,0-0.01,0.01-0.01,0.01c0-0.01,0-0.01,0-0.02c0.02-0.97,0.06-2.15,0.11-3.44c0-0.01,0-0.02,0-0.02c0.1-2.23,0.27-4.79,0.55-7.23
		c0.01-0.07,0.02-0.13,0.02-0.2c0.09-0.79,0.2-1.56,0.32-2.3c0.07-0.45,0.15-0.89,0.24-1.32c0.25-1.26,0.54-2.4,0.9-3.32
		c0.16-0.42,0.32-0.78,0.5-1.08c0.5-0.86,0.79-2.25,0.85-4.12c0-0.05,0-0.11,0.01-0.16c0.04-0.01,0.08-0.02,0.12-0.03
		c0.44-0.11,0.9-0.29,1.35-0.54c0,0,0,0,0,0c0,0,0,0,0,0l0.05-0.03c0.05-0.03,0.1-0.06,0.15-0.09c0.4-0.25,0.8-0.55,1.18-0.9
		c0.05-0.04,0.09-0.08,0.14-0.13c1.77-1.69,3.34-4.47,4.67-8.31c2.28-6.55-0.92-11.62-3.02-14.05c-2.75-3.18-6.08-4.9-7.17-4.69
		c-0.08,0.01-0.14,0.06-0.17,0.13c-0.03,0.06-0.04,0.14-0.01,0.21c0,0,0,0.01,0,0.01c0.05,0.12,5.27,12.15,3.82,27.48
		c-0.37,0.2-0.74,0.35-1.1,0.43c0.1-8.32-3.56-22.96-6.99-24.95c-0.18-0.1-0.35-0.21-0.52-0.34c-0.89-0.64-1.51-1.43-2.17-2.26
		c-1.78-2.26-3.62-4.6-11.1-3.96c1.44-1.34,6.09-4.87,13.03-2.12c0.65,0.26,1.31,0.57,1.95,0.91c0.27,0.51,2.05,3.92,2.52,6.76
		c-0.62-1.45-1.86-3.43-4.26-4.66c-0.68-0.35-1.42-0.63-2.21-0.82c-0.13-0.03-0.27,0.05-0.3,0.19c-0.03,0.13,0.05,0.27,0.19,0.3
		c0.75,0.18,1.46,0.44,2.1,0.77c3.84,1.98,4.57,6.09,4.58,6.13c0.02,0.12,0.12,0.21,0.25,0.21c0.12,0,0.23-0.1,0.24-0.22
		c0.15-1.2-0.16-2.69-0.61-4.12c-0.78-2.46-2-4.7-2.08-4.85c-0.02-0.04-0.06-0.08-0.1-0.1c-0.68-0.37-1.38-0.7-2.07-0.97
		c-8.74-3.47-14.02,2.68-14.07,2.74c-0.07,0.08-0.08,0.19-0.03,0.28c0.05,0.09,0.15,0.14,0.25,0.13c7.78-0.82,9.59,1.48,11.34,3.71
		c0.65,0.82,1.32,1.67,2.27,2.36c0.18,0.13,0.36,0.25,0.56,0.37c0.18,0.1,0.36,0.25,0.54,0.43c0.06,0.06,0.12,0.12,0.18,0.19
		c0.3,0.33,0.59,0.75,0.89,1.25c0.09,0.16,0.18,0.32,0.27,0.49c0.97,1.82,1.91,4.47,2.69,7.4c0,0.01,0.01,0.02,0.01,0.03
		c1.35,5.05,2.26,10.96,2.16,15.03c0,0.21-0.01,0.41-0.02,0.61c0,0.06-0.01,0.11-0.01,0.17c-0.07,1.17-0.24,2.13-0.49,2.84
		c-0.01,0.02-0.01,0.03-0.02,0.05c-0.08,0.21-0.16,0.41-0.26,0.57c-0.07,0.12-0.13,0.25-0.19,0.37c-0.43-2.39-1.14-5.58-2.26-8.57
		c-0.01-0.02-0.02-0.05-0.03-0.07c-0.93-2.45-2.13-4.77-3.69-6.4c-1.01-1.07-2.12-1.79-3.3-2.14c-0.07-0.02-0.15-0.01-0.22,0.03
		c-0.06,0.04-0.1,0.12-0.11,0.19c0,0.05-0.15,2.89,0.08,6.69c0,0.05,0.01,0.09,0.01,0.14c0.2,3.23,0.68,7.12,1.74,10.62
		c0.56,1.85,1.25,3.44,2.06,4.78c0.02,0.03,0.03,0.06,0.05,0.09c0.61,1,1.28,1.86,2.02,2.55c0.05,0.05,0.11,0.07,0.17,0.07
		c0.07,0,0.13-0.03,0.18-0.08c0.02-0.02,0.11-0.12,0.22-0.3c0.7-1.08,2.51-5.26-2.12-15.71c-0.06-0.13-0.2-0.18-0.33-0.13
		c-0.13,0.06-0.18,0.2-0.13,0.33c4.55,10.27,2.71,14.34,2.14,15.24c-1.58-1.57-2.85-3.92-3.78-7c-2.07-6.81-1.89-15.19-1.83-16.95
		c0.98,0.36,1.91,1,2.77,1.91c1.92,2.02,3.29,5.12,4.27,8.22c0.12,0.38,0.23,0.75,0.34,1.12c0.65,2.3,1.09,4.51,1.37,6.2
		c-0.78,2.05-1.28,5.13-1.6,8.29c-0.09,0.92-0.17,1.84-0.24,2.75c0,0,0,0.01,0,0.01c-0.22,3.08-0.3,5.97-0.33,7.77
		c-0.04,0.07-0.08,0.13-0.12,0.19c-0.01,0.01-0.02,0.03-0.03,0.05c-0.01-0.03-0.03-0.06-0.04-0.09c-0.87-1.93-1.81-3.09-1.84-3.12
		c-0.05-0.06-0.12-0.09-0.19-0.09s-0.15,0.03-0.19,0.09c-0.06,0.07-3.48,4.16-7.43,8.34c-0.03,0.03-0.06,0.06-0.09,0.09
		c-2.75,2.91-5.75,5.84-8.05,7.48c-4.16,2.98-4.96,8.52-5.08,11.4c-3.08-3.36-6.49-6.76-8.49-8.61c0.01-0.04,0.01-0.08,0.02-0.12
		c5.39-2.9,10.86-6.5,13.29-12.35c0.87-1.94,1.49-3.97,2-6.03c0.47-0.04,0.94-0.17,1.35-0.43c1.53-1.15,2.72-2.67,3.88-4.18
		c1.15-1.56,2.13-3.28,2.63-5.19c1.26-4.13-0.75-8.67-4.86-10.16c0.01-3.3-0.13-6.61-0.47-9.9c-0.26-2.61-0.81-5.25-2.01-7.61
		c-0.4-0.77-0.84-1.51-1.47-2.18c0,0,0,0,0,0l0,0c-0.01-0.01-0.02-0.03-0.04-0.04c-0.01-0.01-0.02-0.01-0.03-0.02
		c-1.28-1.79-3.19-3.16-4.77-3.42c-0.73-0.12-1.36,0-1.84,0.35c-0.04,0.03-0.11,0.07-0.21,0.12c-0.32-1.01,0.13-1.73,0.15-1.76
		c0.01-0.02,0.02-0.04,0.03-0.06c0.44-1.31,0.38-2.44-0.16-3.38c-0.78-1.34-2.32-1.84-2.82-1.97c-0.15-0.87,0.03-2.55,0.04-2.56
		c0-0.04,0-0.09-0.02-0.13c-0.63-1.5-2.52-1.74-3.32-1.77c-0.21-0.6-0.54-1.48-0.98-2.64c-0.54-1.39-1.43-2.33-2.67-2.78
		c-2.64-0.98-5.97,0.57-6.66,0.92c-3.53-2.04-6.81-2.37-9.74-0.98c-3.02,1.43-4.67,4.29-4.78,5c-0.03,0.21-0.13,0.34-0.3,0.43
		c-0.01,0-0.02,0.01-0.03,0.01c-0.16,0.08-0.36,0.1-0.52,0.1c-0.22,0-0.39-0.04-0.39-0.03c-1.87-0.65-3.46-0.56-4.72,0.29
		c-2.24,1.5-2.75,4.87-2.86,5.89c-4.02-0.7-6.36,4.35-6.39,4.4c-0.02,0.04-0.03,0.09-0.02,0.13c0,0.01,0.06,0.55,0.12,1.31
		c0,0,0,0,0,0c-0.13,0.01-2.92,0.35-5.12,1.47c-0.22-0.19-0.54-0.23-0.81-0.09c-0.02,0.01-0.04,0.03-0.07,0.04l0,0c0,0,0,0,0,0
		c-0.7,0.38-1.3,0.82-1.86,1.3c-1.24,1.12-2.43,2.25-3.12,3.86c-0.55,3.57-0.47,7.21-0.67,10.8c0,0-0.05,1.74-0.11,3.67
		c-2,0.14-3.42,1.37-4.31,3.16c-0.9,1.73-1.36,3.66-1.28,5.61c0.09,1.94,0.96,3.69,1.83,5.37c0.89,1.65,1.89,3.22,2.98,4.73
		c0.03,0.03,0.07,0.06,0.11,0.05c0.51-0.01,1.02-0.04,1.51-0.06c0.61,2.66,1.53,5.24,2.88,7.65c2.28,3.83,5.75,6.76,9.25,9.4
		c2.36,1.74,4.81,3.32,7.39,4.74c0.05,0.03,0.12,0.05,0.18,0.05l0.68,0.04c-1.32,1.03-2.2,1.82-2.38,1.98
		c-1.79,0.79-7.86,9.26-8.66,10.38c-1.6,1.25-4.23,3.98-7.82,8.14c0-0.05-0.01-0.1-0.04-0.14c-0.32-0.43-0.66-0.89-1.02-1.39
		c-0.11-0.15-0.22-0.29-0.33-0.44c-0.12-0.16-0.24-0.33-0.37-0.5c-4.13-5.63-10.26-14.04-11.85-16.5c-0.68-1.05-1.65-3.26-2.87-6.56
		c-0.17-0.94-0.3-1.96-0.34-3c-0.01-0.19-0.01-0.38-0.01-0.56c0-1.34,0.18-2.67,0.67-3.8c1.11,1.63,5.58,8.1,7.87,10.18
		c2.14,1.94,5.62,10.37,6.44,15.83c-0.03,0.51-0.14,1.03-0.31,1.55c-1.31-0.81-3.75-2.76-4.42-6.31c-1.14-6.01-4.23-9.9-4.83-10.62
		c-0.09-0.11-0.25-0.12-0.35-0.03c-0.11,0.09-0.12,0.25-0.03,0.35c0.59,0.7,3.6,4.5,4.72,10.39c0.76,3.98,3.63,6.05,4.92,6.8
		c0.02,0.01,0.03,0.02,0.05,0.03c0,0,0,0,0.01,0c0.05,0.03,0.11,0.06,0.15,0.09c0.26,0.14,0.43,0.21,0.43,0.22
		c0.03,0.01,0.06,0.02,0.1,0.02c0.05,0,0.1-0.01,0.14-0.04c0.07-0.05,0.11-0.12,0.11-0.21c0.01-0.37-0.01-0.77-0.05-1.19
		c-0.01-0.13-0.02-0.26-0.04-0.39c-0.02-0.21-0.05-0.42-0.08-0.64c0-0.02-0.01-0.05-0.01-0.07c0.01-0.17,0.02-0.33,0.02-0.5
		c-0.03-1.4-0.35-2.31-0.69-3.27c-0.49-1.39-0.99-2.83-0.73-6.05c0.1-1.21,0.12-2.35,0.13-3.35c0.06-3.55,0.09-5.89,3.46-7.34
		c0.02-0.01,0.54-0.2,0.98,0.2c0.63,0.58,1.39,2.64-0.67,10l-1.73,6.45c-0.4-2.05-1.05-6.91,0.82-10.64
		c0.06-0.12,0.01-0.28-0.11-0.34c-0.12-0.06-0.28-0.01-0.34,0.11c-2.3,4.6-0.99,10.59-0.69,11.78c0.03,0.11,0.05,0.18,0.05,0.21
		c0.03,0.11,0.13,0.18,0.24,0.18c0,0,0,0,0,0c0.11,0,0.21-0.08,0.24-0.19l1.35-5.06l0.04-0.14l0.6-2.24
		c0.74-2.64,1.18-4.81,1.31-6.5c0.01-0.07,0.01-0.13,0.01-0.2c0.13-1.92-0.13-3.2-0.81-3.81c-0.67-0.61-1.46-0.3-1.5-0.29
		c-0.38,0.16-0.72,0.34-1.03,0.53c-0.06,0.04-0.13,0.07-0.19,0.11c-2.47,1.61-2.51,4-2.56,7.15c-0.02,0.99-0.03,2.12-0.13,3.32
		c-0.08,1.01-0.09,1.85-0.04,2.58c-0.29-0.81-0.61-1.62-0.93-2.39c0,0,0-0.01,0-0.01c-1.24-2.97-2.64-5.49-3.73-6.48
		c-2.53-2.29-7.98-10.37-8.04-10.45c-0.05-0.07-0.13-0.12-0.22-0.11c-0.09,0-0.17,0.06-0.21,0.13c-0.87,1.66-1.03,3.76-0.88,5.76
		c-0.21-0.59-0.41-1.19-0.62-1.78c-0.01-0.02-0.01-0.03-0.02-0.05c-0.11-0.31-0.22-0.63-0.32-0.94c-1.46-4.3-2.64-8.15-2.65-8.17
		c0-0.01-0.03-0.12-0.07-0.32c0-0.01,0-0.01,0-0.02c0,0,0.01,0.01,0.01,0.01c0.36,0.67,0.83,0.94,1.07,1.04
		c0.14,0.06,0.28,0.08,0.43,0.1c0.01,0,0.02,0,0.03,0c0.05,0,0.1,0.01,0.14,0.01c0.6,0,1.19-0.33,1.53-0.89
		c0.25-0.42,0.5-1.22,0.76-2.26c0.06-0.24,0.12-0.48,0.17-0.74c0.13-0.57,0.25-1.19,0.38-1.84c0,0,0,0,0,0
		c0.41-2.16,0.82-4.71,1.2-7.12c0.05-0.31,0.1-0.61,0.14-0.91c0.01-0.08,0.03-0.17,0.04-0.25c0.09-0.55,0.17-1.09,0.26-1.59
		c0.56-3.46,1.58-10.3,2.13-14.01c0.02-0.15,0.04-0.3,0.06-0.44c0.11-0.75,0.2-1.34,0.25-1.7c0.01-0.05,0.01-0.1,0.02-0.14
		c0.02-0.17,0.04-0.27,0.04-0.28c0.01-0.09-0.02-0.18-0.1-0.24c-0.07-0.06-0.17-0.07-0.25-0.03c-7.14,3.22-9.65,12.82-10.53,19.34
		c-0.01,0.04-0.01,0.08-0.01,0.11c-0.01-0.04-0.01-0.07-0.02-0.11c-0.28-1.68-0.55-3.43-0.8-5.17c-0.01-0.07-0.02-0.14-0.03-0.22
		c-0.03-0.24-0.07-0.47-0.1-0.71c-0.86-6.28-1.35-12.37-0.52-15.02c0.8-2.56,1.09-3.82,1.35-4.93c0.4-1.71,0.71-3.06,2.74-8.43
		c0.06-0.17,0.13-0.34,0.2-0.52c3.92-3.51,9.94-8.02,11.72-7.64C36.2,31,34,37.2,30.88,39.82c-3.01,2.53-6.77,13.26-7.98,16.92
		c-0.16-3.49,0.12-13.59,7.75-20.83c0.1-0.1,0.1-0.25,0.01-0.36c-0.1-0.1-0.25-0.1-0.36-0.01c-9.52,9.03-7.83,22.38-7.81,22.51
		c0,0.03,0.01,0.06,0.03,0.08c0.04,0.07,0.11,0.12,0.2,0.13c0.01,0,0.01,0,0.02,0c0.11,0,0.21-0.07,0.24-0.18
		c0.02-0.06,0.75-2.34,1.83-5.28c0.04-0.11,0.08-0.22,0.12-0.33c0.67-1.8,1.46-3.82,2.31-5.71c0.02-0.05,0.04-0.1,0.07-0.15
		c0.22-0.5,0.45-0.98,0.68-1.45c0.13-0.26,0.25-0.52,0.38-0.77c0.18-0.35,0.36-0.69,0.54-1.02c0.09-0.16,0.18-0.32,0.26-0.47
		c0.7-1.21,1.39-2.17,2.04-2.72c0.47-0.39,0.91-0.85,1.33-1.36c0.01-0.01,0.02-0.02,0.03-0.03c0.25-0.3,0.49-0.62,0.72-0.95
		c0.18-0.26,0.36-0.53,0.53-0.8c1.29-2.05,2.27-4.36,2.83-5.84c0.02-0.06,0.04-0.11,0.06-0.17c0.29-0.78,0.46-1.3,0.48-1.38
		c0.04-0.11-0.01-0.24-0.12-0.3c-0.1-0.06-0.23-0.09-0.36-0.11c-2.41-0.39-9.07,5.11-11.38,7.09c1.06-2.52,2.76-5.97,5.32-9.58
		c1.54-1.31,4.04-3.14,7.22-4.45c6.22-2.57,12.4-2.12,18.36,1.31c-0.26,0.41-1.14,1.4-3.58,1.76c-1.3,0.19-3.07,0.04-4.94-0.11
		c-2.66-0.22-5.64-0.45-8.35,0.11c-0.24,0.05-0.48,0.1-0.72,0.16c-0.22,0.06-0.44,0.12-0.65,0.18l-0.29,0.08
		c-0.16,0.05-0.31,0.09-0.47,0.14c-2.09,0.64-3.85,1.33-5.06,1.84c2.38-1.85,7.03-5.18,10.33-5.63c0.14-0.02,0.23-0.15,0.22-0.28
		c-0.02-0.14-0.14-0.23-0.28-0.22c-4.8,0.65-12.04,6.92-12.11,6.99c-0.01,0.01-0.01,0.02-0.02,0.03c-0.04,0.04-0.07,0.1-0.07,0.17
		c0,0.14,0.11,0.25,0.25,0.25c0.01,0,0.02-0.01,0.03-0.01c0.03,0,0.06-0.01,0.08-0.02c0,0,0.01,0,0.01,0l0,0
		c0.02-0.01,2.43-1.23,5.96-2.37c0.41-0.13,0.84-0.27,1.28-0.4l0.29-0.08c0.21-0.06,0.43-0.12,0.65-0.18
		c2.81-0.76,6.04-0.5,8.9-0.26c0.42,0.03,0.83,0.07,1.23,0.1c0.05,0,0.1,0.01,0.14,0.01c1.38,0.1,2.65,0.15,3.67,0
		c2.2-0.32,3.24-1.14,3.71-1.7c0.06-0.07,0.1-0.13,0.14-0.18c0.15-0.21,0.21-0.37,0.22-0.39c0.04-0.11-0.01-0.24-0.11-0.3
		c-0.01-0.01-0.02-0.01-0.03-0.02c-6.16-3.61-12.55-4.1-18.98-1.44c-2.37,0.98-4.37,2.23-5.89,3.36
		c4.45-5.77,11.77-12.43,22.75-14.49c0.15-0.01,14.5-1.13,19.89,7.54c-1.19,0.17-5.51,0.47-13.13-2.09
		c-0.34-0.18-3.52-1.62-15.16,1.01c2.36-1.68,8.85-5.69,15.32-4.09c0.13,0.03,0.27-0.05,0.3-0.18c0.03-0.13-0.05-0.27-0.18-0.3
		c-8.32-2.05-16.61,4.83-16.7,4.9c-0.09,0.07-0.11,0.2-0.06,0.31c0.05,0.1,0.17,0.16,0.28,0.13c3.77-0.9,6.69-1.38,8.95-1.62
		c5.41-0.57,6.99,0.28,7.01,0.29c0.02,0.01,0.03,0.02,0.05,0.02c5.19,1.75,8.84,2.19,11.08,2.24c0.08,0,0.15,0,0.23,0
		c1.58,0.01,2.4-0.17,2.48-0.19c0.08-0.02,0.14-0.07,0.17-0.15c0.03-0.07,0.03-0.16-0.01-0.22c-5.3-9.13-19.91-8.14-20.55-8.09
		c-0.01,0-0.03,0-0.03,0c-0.13,0.02-0.25,0.05-0.38,0.08c-1.59,0.31-3.09,0.72-4.53,1.21c-0.67,0.23-1.32,0.47-1.96,0.73
		c-0.45,0.18-0.89,0.37-1.32,0.57c-0.29,0.13-0.57,0.26-0.85,0.4c-0.56,0.27-1.1,0.55-1.63,0.85c-0.1,0.05-0.2,0.11-0.29,0.16
		c-0.77,0.44-1.52,0.9-2.24,1.37c-0.38,0.25-0.75,0.5-1.11,0.76c-0.42,0.3-0.83,0.61-1.24,0.93c-0.12,0.09-0.24,0.19-0.36,0.28
		c-1.27,1.01-2.44,2.07-3.5,3.14c-0.03,0.03-0.06,0.06-0.09,0.09c-0.61,0.62-1.19,1.24-1.74,1.87c-1.13,1.29-2.13,2.57-2.99,3.79
		c-2.94,4.15-4.77,8.09-5.79,10.68c0,0,0,0,0,0c0,0,0,0.01,0,0.01c-0.08,0.2-0.16,0.39-0.23,0.58c-0.46,1.22-0.83,2.22-1.14,3.08
		c-0.57,1.59-0.91,2.65-1.14,3.5c-0.01,0.03-0.02,0.07-0.03,0.1c-0.19,0.67-0.31,1.22-0.45,1.81c-0.02,0.08-0.04,0.17-0.06,0.26
		c0,0.01-0.01,0.02-0.01,0.03c-0.18,0.78-0.4,1.68-0.81,3.07c-0.01,0.02-0.01,0.04-0.02,0.05c-0.13,0.44-0.28,0.93-0.45,1.48
		c-0.05,0.16-0.09,0.33-0.13,0.5c-0.03,0.15-0.07,0.31-0.09,0.48c-0.76,4.51,0.62,14.4,1.98,22.21c1.01,5.78,2,10.38,2.02,10.45
		c0.01,0.04,1.05,3.43,2.39,7.41c-2.55-2.03-4.33-4.7-5.28-7.96c-0.75-2.59-1.35-5.42-1.84-8.23c-0.03-0.15-0.05-0.31-0.08-0.46
		c-1.45-8.63-1.78-16.91-1.79-17.02c0-0.09-0.06-0.18-0.15-0.22c-0.09-0.04-0.19-0.03-0.26,0.03c-0.03,0.03-1.06,0.88-2.3,2.43
		c-0.04,0.05-0.07,0.09-0.11,0.13c-0.67,0.86-1.4,1.91-2.06,3.15c-0.02,0.04-0.04,0.09-0.06,0.13c-0.56,1.07-1.06,2.27-1.44,3.59
		c-0.05,0.17-0.1,0.35-0.14,0.53c-0.15,0.57-0.27,1.17-0.36,1.78c-0.02,0.1-0.03,0.21-0.04,0.31c-0.19,1.5-0.21,3.12,0.05,4.84
		c0.03,0.19,0.07,0.38,0.1,0.57c0.24,1.34,0.64,2.74,1.24,4.19c0.04,0.1,0.08,0.19,0.13,0.29c0.15,0.36,0.31,0.71,0.49,1.07
		c0.01,0.02,0.41,0.69,1.14,1.72c0.05,0.07,0.1,0.14,0.15,0.21c1.57,2.23,4.49,5.97,8.31,9.11c0.07,0.06,0.14,0.12,0.21,0.17
		c1.13,0.91,2.34,1.77,3.62,2.52c0.67,0.39,1.26,0.72,1.83,0.99c0.21,0.61,0.43,1.21,0.65,1.8c0.4,2.19,1,3.87,1.05,4.02
		c0.05,0.13,0.19,0.2,0.32,0.15c0.12-0.04,0.18-0.17,0.16-0.29c0.56,1.31,1.04,2.29,1.43,2.89c1.66,2.56,8.2,11.54,12.33,17.15
		c0.02,0.03,0.04,0.06,0.06,0.09c0.43,0.58,0.83,1.13,1.2,1.62c0.05,0.07,0.13,0.1,0.2,0.1c0.01,0,0.02-0.01,0.03-0.01
		c-3.67,4.26-7.34,8.82-8.75,10.6l-0.19,0.24l0.27,0.14c7.37,3.9,11.25,7.86,13.2,10.49l0.18,0.24l0.21-0.21
		c1.72-1.79,7.58-7.82,10.77-10.1c2.79-1.99,8.88-4.46,12.14-5.79c1.16-0.47,2-0.81,2.33-0.98c1.16-0.6,1.39-1.14,1.77-2.03
		c0.06-0.14,0.13-0.3,0.2-0.46c0.41-0.9,4.39-3.8,6.03-4.93c3.84,1.39,6.81,4.91,9.34,11.07l0.05,0.08
		c0.1,0.11,10.05,10.78,14.99,14.02l3.5,4.07l0.19-0.17c3-2.72,6.36-4.85,9.97-6.33l0.28-0.11l-0.16-0.25
		c-0.97-1.52-6.04-9.58-10.04-19.02c-1.38-3.26-3.82-6.95-7.26-11.01c-0.07-0.08-0.13-0.16-0.21-0.25l0,0
		c0.05-0.16,0.03-0.34-0.09-0.47c-0.42-0.5-0.89-1.03-1.42-1.61c-0.05-0.05-0.1-0.09-0.17-0.12c0.08-2.72,0.78-8.29,4.88-11.23
		c5.22-3.74,14.03-14.07,15.46-15.77c0.35,0.47,1.12,1.57,1.81,3.15c0,0.07,0.03,0.14,0.08,0.2c0.4,0.96,0.76,2.07,0.99,3.32
		c-0.02,0.06-0.03,0.14,0.01,0.2c0.01,0.01,0.02,0.02,0.03,0.03c0.63,3.87-0.12,8.93-5.24,14.2c-5.95,6.12-7.1,6.54-8.12,6.92
		c-0.87,0.32-1.7,0.62-4.86,3.8c-0.46-1.26-1.58-6.26,5.18-14.37c0.09-0.11,0.07-0.27-0.03-0.35c-0.11-0.09-0.26-0.07-0.35,0.03
		c-6.6,7.93-5.9,12.92-5.36,14.62c0.12,0.38,0.24,0.6,0.26,0.64c0.04,0.07,0.11,0.11,0.19,0.12c0.01,0,0.02,0,0.03,0
		c0.07,0,0.13-0.03,0.18-0.07c0.43-0.44,0.82-0.82,1.17-1.16c0,0,0.01-0.01,0.01-0.01c0.42-0.41,0.78-0.74,1.11-1.03
		c0.6-0.54,1.06-0.89,1.42-1.14c0.41-0.27,0.71-0.41,0.99-0.52c0.08-0.03,0.16-0.06,0.23-0.09c0.06-0.02,0.11-0.04,0.17-0.06
		c0.72-0.27,1.56-0.66,3.75-2.66c0.06-0.06,0.13-0.12,0.19-0.18c0.46-0.43,0.98-0.92,1.57-1.5c0.17-0.17,0.35-0.34,0.53-0.52
		c0.63-0.62,1.32-1.32,2.1-2.12c5.16-5.31,5.94-10.5,5.32-14.5c0-0.01,0-0.02-0.01-0.03c0.01,0,0.01-0.01,0.02-0.01
		c2-1.01,3.71-2.11,5.17-3.27c0.43-0.34,0.83-0.68,1.22-1.03c0.88-0.78,1.65-1.58,2.33-2.37c0.05-0.06,0.1-0.11,0.15-0.17
		C139.41,78.23,139.74,72.89,139.74,72.8z M19.51,80.23c0.02,0.09,0.04,0.18,0.06,0.27c0.3,1.32,0.62,2.61,0.98,3.84
		c1.05,3.62,3.09,6.54,6.06,8.68c0.26,0.77,0.53,1.56,0.81,2.34c-0.42-0.22-0.85-0.45-1.32-0.73c-7.85-4.6-13.19-13.47-13.23-13.54
		c-5.82-11.85,2.1-20.28,3.99-22.05C16.96,61.43,17.56,71.39,19.51,80.23z M43.59,118.25c0.01-0.04,0.02-0.07,0.04-0.11
		c0,0.04,0.01,0.09,0.01,0.13C43.62,118.27,43.6,118.26,43.59,118.25z M22.4,74.24c0.62-6.18,2.76-16.92,10.03-20.56
		c-0.32,2.22-1.73,11.78-2.43,16.09c-0.14,0.84-0.29,1.77-0.44,2.74C28.81,77.19,27.89,83,27.11,84.3
		c-0.33,0.55-0.97,0.79-1.52,0.57c-0.99-0.39-1.75-2.18-0.92-6.04c0.33-1.55,0.69-3.33,1.05-5.13c0.92-4.58,2.17-10.81,2.79-11.58
		c0.08,0.04,0.19,0.03,0.26-0.03c0.11-0.08,0.13-0.24,0.05-0.35c-0.15-0.19-0.33-0.17-0.4-0.16c-0.7,0.16-1.41,3.14-3.2,12.01
		c-0.36,1.8-0.72,3.58-1.05,5.13c-0.27,1.24-0.37,2.25-0.36,3.07C23.44,79.91,22.92,77.24,22.4,74.24z M126.75,33.77
		c-0.01-0.01-0.01-0.03-0.02-0.05c0.12,0.02,0.26,0.06,0.42,0.11c1.32,0.42,3.79,1.93,5.94,4.42c2.49,2.88,5.02,7.56,2.93,13.56
		c-1.77,5.09-3.71,7.51-5.19,8.66c1.23-3.92,3.91-13.77,1.06-17.3c-0.05-0.06-0.12-0.09-0.2-0.09c-0.06,0-0.11,0.02-0.16,0.06
		c-0.11,0.09-0.12,0.25-0.04,0.35c2.14,2.64,0.99,9.84-0.93,16.16C131.48,46.41,127.61,35.9,126.75,33.77z M111.18,149.28
		l-3.18-3.71l-0.05-0.05c-4.74-3.09-14.27-13.26-14.89-13.92c-2.6-6.34-5.7-9.95-9.74-11.35c-0.41-0.14-0.83-0.26-1.27-0.36
		c-5.08-1.12-13.9,4.48-14.89,5.12c-1.06,0.69-1.64,0.63-1.86,0.55c0.77-6.83,8.14-9.93,11.3-11.26c3.89-1.63,14.38,3.66,14.53,3.73
		c0.13,0.04,0.39,0.04,0.55-0.18c0.17-0.24,0.62-0.87-2.78-5.7c-4.26-6.07-10.25-3.99-10.32-3.97c0,0-11.79,5.17-13.24,5.82
		c-1.03,0.46-1.9,0.07-2.24-0.12c2-5.94,13.22-10.51,13.29-10.55c0.07-0.01,0.14-0.03,0.18-0.04c0.67,0,1.35,0,2.04-0.01
		c5.08,0.72,10.59,6.53,10.64,6.59l0.3,0.32l0.12-0.43c0.02-0.08,2.3-8.49-6.27-12.73c-0.17-0.08-0.34-0.16-0.52-0.24
		c2.18,0.34,5.61,1.47,9.16,4.97c0,0,0.22,0.19,0.62,0.53l0.08,0.06h0.16l0.12-0.06c0.01-0.01,0.03-0.01,0.04-0.02
		c2.16,2.01,5.86,5.71,9.04,9.24c0.01,0.36,0.01,0.72,0,1.09l-0.01,0.14l0.13,0.08l0.09,0.09l0.11,0c0.31-0.01,0.59,0.04,0.88,0.17
		c0.1,0.05,0.19,0.09,0.29,0.15c3.49,4.08,5.96,7.81,7.34,11.08c3.83,9.04,8.64,16.82,9.92,18.84
		C117.34,144.61,114.09,146.68,111.18,149.28z M76.56,125.97c-0.37,0.87-0.55,1.27-1.54,1.78c-0.31,0.16-1.18,0.51-2.29,0.96
		c-3.29,1.33-9.41,3.81-12.25,5.84c-3.11,2.22-8.69,7.93-10.64,9.95c-2.01-2.64-5.86-6.47-12.93-10.25
		c1.54-1.93,5.08-6.33,8.62-10.43c3.67-4.25,6.33-7.03,7.92-8.26l0.05-0.05c1.9-2.68,7.14-9.74,8.5-10.25l0.08-0.05
		c0.01-0.01,1.07-0.99,2.76-2.28c3.43-2.61,10.02-6.9,15.59-6.23c0.98,0.12,1.89,0.38,2.72,0.79c5.39,2.67,6.33,6.94,6.32,9.65
		c0,0.34-0.02,0.65-0.04,0.93c-0.01,0.09-0.02,0.19-0.03,0.27c-0.04,0.35-0.09,0.64-0.13,0.86c-1.27-1.28-6.02-5.76-10.61-6.41
		l-0.02,0c-0.75-0.11-1.46-0.1-2.12,0.01c-0.08,0.01-0.16,0.03-0.29,0.06c-0.48,0.19-11.79,4.8-13.69,11.06l-0.05,0.17l0.14,0.11
		c0.05,0.04,1.32,0.97,2.89,0.27c0.59-0.26,2.88-1.27,5.4-2.37c0.39-0.17,0.78-0.34,1.17-0.51c0.98-0.43,1.96-0.86,2.85-1.25
		c0.36-0.16,0.7-0.31,1.03-0.45c0.33-0.14,0.63-0.28,0.91-0.4c1.13-0.49,1.86-0.82,1.86-0.82c0.04-0.02,0.27-0.09,0.64-0.17
		c0.18-0.04,0.4-0.08,0.65-0.11c0.17-0.02,0.34-0.04,0.53-0.05c0.28-0.02,0.6-0.03,0.93-0.01c1.1,0.05,2.43,0.32,3.79,1.11
		c1.08,0.63,2.18,1.59,3.19,3.03c3.02,4.29,2.82,5.04,2.77,5.1c-0.88-0.44-10.86-5.38-14.86-3.7c-3.27,1.38-10.93,4.6-11.62,11.84
		l-0.01,0.13l0.1,0.08c0.08,0.07,0.84,0.66,2.56-0.47c0.22-0.14,0.45-0.29,0.7-0.44c3.44-2.13,9.23-5,13.02-4.72
		c0.28,0.02,0.54,0.06,0.79,0.11c0.24,0.05,0.46,0.11,0.69,0.18c0.02,0,0.03,0.01,0.05,0.02c-1.39,0.98-5.41,3.86-5.89,4.92
		C76.69,125.67,76.63,125.82,76.56,125.97z M47.56,88.09c-2.23-4.06-3.21-8.64-3.53-13.27c-0.05-1.75-0.05-3.49,0.04-5.21
		c0.09-1.31,0.1-3.21,0.13-4.55l0.01-2.28c0-0.08-0.01-0.16-0.03-0.23c0.17-4.65,0.33-9.8,0.74-13.81c0.04-0.29,0.04-0.58,0.18-0.84
		c0.36-0.63,0.83-1.25,1.36-1.83c0.05,0.93,0.45,1.82,0.96,2.56c0.71,1.19,1.87,2.02,3.05,2.61c1.91,1.02,3.99,1.73,6.11,2.16
		c2.03,0.43,4.32,0.52,6.39,0.48c11.84,0.24,23.76,1.35,35.59-0.14c2.81-0.44,5.68-0.79,8.18-2.31c1.94-1.22,2.53-3.1,2.15-4.97
		c1.1,2.16,1.6,4.66,1.9,7.04c0.39,3.27,0.58,6.56,0.62,9.85c-0.28,0.04-0.5,0.27-0.5,0.57c0,1.63,0.02,3.26-0.06,4.89
		c-0.07,1.63-0.19,3.25-0.38,4.87c-0.27,2.7-0.83,5.35-1.56,7.96c-0.16,0.53-0.33,1.06-0.5,1.58c0,0.01-0.01,0.01-0.01,0.01
		c-0.53,2.05-1.18,4.08-2.07,5.99c-2.55,5.93-8.25,9.41-13.77,12.25c-0.16-0.14-0.48-0.42-0.48-0.42
		c-3.08-3.04-7.39-5.56-11.94-5.29c-0.98-0.21-3.06-0.01-4.35,0.29c-4.24,1.03-8.04,3.35-11.51,5.91l-0.63-0.04
		c-2.47-1.4-4.88-2.97-7.16-4.68C53.08,94.65,49.74,91.79,47.56,88.09z M42.35,80.74c-0.97-1.54-1.87-3.13-2.64-4.77
		c-1.75-3.5-2.12-6.7-0.12-10.19c0.76-1.37,1.77-2.26,3.21-2.36c-0.4,5.83-0.57,11.85,1.49,17.41L42.35,80.74z M54.69,41.55
		c0,0,0.01,0,0.02,0c0.25,3.78-0.17,4.13-0.18,4.13c-1.27-0.67-3.09,0.96-3.17,1.03c-0.07,0.06-0.1,0.15-0.08,0.24
		c0.21,0.95,0.22,1.92,0.02,2c-0.23,0.1-0.39,0.34-0.49,0.73c-0.45-0.25-0.89-0.53-1.26-0.8c-1.15-1.2-2.43-3.13-0.94-4.54
		c0,0,0.01,0,0.01-0.01c0.36-0.43,1.3-0.72,1.18-1.38C51.93,41.88,54.7,41.55,54.69,41.55z M61.14,35.76c0.07,0.02,0.15,0,0.21-0.04
		c0.06-0.04,0.1-0.11,0.1-0.19c0-0.04,0.26-4.19,2.66-5.79c1.12-0.75,2.56-0.83,4.3-0.22c0.03,0.01,0.7,0.16,1.24-0.08
		c0.01,0,0.02-0.01,0.04-0.01c0.03-0.01,0.05-0.03,0.08-0.05c0.35,0.27,0.85,0.44,1.3,0.4c1.03-0.02,1.91-1.35,2.89-1
		c0.34,0.15,0.58,0.48,0.79,0.79c1.24,1.87,3.58,2.47,5.73,2.51c-0.19,0.22-0.35,0.47-0.46,0.77c-0.45,1.43,1.45,1.82,2.48,1.96
		c2.22,0.23,3.1,1.8,2.39,3.86c0.02,0.14,0.07,0.26,0.06,0.43c-0.16,0.82-0.69,1.54-1.19,2.2c-1.01,1.21-3.08,3.46-4.67,2.03
		c-0.31-0.45-0.65-0.93-1.02-1.39c-0.01-0.1-0.08-0.18-0.17-0.21c-1.61-1.98-3.75-3.66-6.31-1.96c-0.85,0.6-1.63,1.21-2.52,1.7
		c-0.05,0.03-0.11,0.06-0.16,0.09c-0.03-0.01-0.06-0.02-0.1-0.02c0,0,0,0,0,0c-0.05,0-0.13,0.02-0.18,0.07
		c-0.04,0.04-0.06,0.08-0.07,0.13c-1.63,0.81-3.59,1.03-4.83-0.57c-3.25-4,1.16-5.74,4.13-7.54c2.71-1.78,2.92,3.94,5.3,4.11
		c0.99,0.13,2.26-0.27,2.43-1.39c0.01-0.03-0.05-0.04-0.05-0.01c-0.18,1.08-1.41,1.44-2.37,1.31c-0.5-0.04-0.92-0.38-1.23-0.76
		c-1-1.14-1.27-2.91-2.67-3.69c-1.08-0.38-1.9,0.67-2.82,1.04c-2.15,1.12-5.2,2.94-3.76,5.78c0.43,0.95,1.1,1.83,2.03,2.32
		c1.36,0.61,2.72,0.3,3.99-0.32c0.03,0.01,0.06,0.02,0.09,0.02c0.03,0,0.06-0.01,0.09-0.02c0.07-0.03,0.12-0.09,0.14-0.17
		c0.98-0.53,1.9-1.22,2.73-1.79c1.77-1.27,3.87-0.38,5.15,1.15c0.24,0.25,0.45,0.52,0.65,0.79c0.01,0.08,0.06,0.14,0.13,0.18
		c1.06,1.49,1.77,2.89,4.14,1.53c1.35-0.84,2.39-2.04,3.17-3.41c0.21-0.48,0.58-1.02,0.36-1.55c0.14-0.42,0.21-0.83,0.23-1.26
		c0.13-1.89-1.33-3.02-3.06-3.17l-0.63-0.1c-0.62-0.13-1.76-0.4-1.49-1.24c0.11-0.35,0.39-0.69,0.67-0.96
		c0.15-0.12,0.04-0.39-0.15-0.37c-1.23,0.04-2.59-0.08-3.77-0.55c0.32-0.41,0.84-1.04,1.12-1.36c1.22-1.3,2.78-2.76,4.66-2.71
		c0.89,0.83,1.82,1.7,3,2.11c0.25,0.07,0.56,0.12,0.84-0.04c0.3-0.14,0.38-0.49,0.49-0.63c0.77-0.91,2.08-1.16,3.21-1.48
		c0.87-0.2,1.76-0.35,2.65-0.46c0,0.01,0.01,0.02,0.01,0.03c0.41,1.07,0.72,1.91,0.93,2.49c-0.04,0.02-0.08,0.05-0.1,0.1
		c-0.04,0.07-0.05,0.16-0.01,0.24c0.31,0.63,0.45,0.86,0.7,0.76c0.21-0.08,0.2-0.27,0.1-0.61c0.76,0.05,2.16,0.31,2.67,1.39
		c-0.04,0.36-0.19,2.01,0.01,2.82c0.02,0.09,0.1,0.17,0.19,0.19c0.02,0,1.85,0.39,2.65,1.77c0.46,0.8,0.5,1.78,0.13,2.93
		c-0.11,0.18-0.57,1.04-0.19,2.18c-0.11,0.03-0.23,0.06-0.37,0.1c-0.39-0.98-1.08-1.79-2.2-2.15c-1.34,0.23-2.62,0.91-3.7,1.75
		c-1.76,1.32-1.87,4.18,0.57,4.76c1.28,0.19,2.47-1.28,2.12-2.5c-0.13-0.49-0.53-0.94-1.02-1.06c0,0,0-0.01,0-0.01
		c0-0.14-0.11-0.25-0.25-0.25h-0.06c-0.14,0-0.25,0.11-0.25,0.25c0,0.14,0.11,0.25,0.25,0.25h0.06c0.11,0,0.21-0.08,0.24-0.18
		c0.46,0.14,0.8,0.58,0.9,1.03c0.25,1.07-0.82,2.36-1.93,2.17c-0.5-0.06-1.1-0.64-1.31-0.92c-0.54-1.19-0.04-2.45,0.97-3.2
		c0.96-0.76,2.15-1.25,3.32-1.59c0.65,0.24,1.21,0.67,1.56,1.26c0.14,0.22,0.25,0.46,0.35,0.71c0.01,0.03,0.01,0.06,0.03,0.08
		c0.62,1.82,0.09,4.28-0.19,5.61c-0.56,0.51-1.37,1.21-1.99,1.63c-1.99,1.4-4.92,2.13-6.97,0.51c0.29-0.66,0.24-1.34,0.24-2.03
		c-0.03-0.72-0.09-1.42-0.2-2.13c-0.01-0.07-0.07-0.12-0.15-0.12c-1.5-0.02-1.98-1.8-2.11-3.04c-0.05-0.51-0.05-1.07-0.04-1.58
		c0.24-3.94,4.58-5.81,7.92-6.68c-3.04,0.54-7.49,2.56-8.08,6.13c-0.14,1.42-0.13,2.93,0.52,4.25c0.31,0.61,0.91,1.15,1.66,1.2
		c0.12,1.3,0.39,2.77-0.12,3.99c-0.04,0.06-0.03,0.15,0.03,0.19c1.41,1.21,3.42,1.38,5.12,0.82c1.7-0.51,3.17-1.64,4.47-2.81
		c0.32-0.75,0.42-1.58,0.56-2.37c0.17-1.09,0.17-2.38-0.16-3.5c0.15-0.04,0.28-0.07,0.4-0.11c0.28,0.55,0.73,1.09,1.36,1.59
		c2.41,1.91-0.05,7.83-0.08,7.89c-0.02,0.04-0.02,0.08-0.02,0.12l0.1,1.38c-1.15,0.22-2.32,0.36-3.37,0.46
		c-5.51,0.55-11.09,0.49-16.63,0.34c-6.26-0.18-12.53-0.6-18.82-0.74c-4,0.09-8.14-0.5-11.7-2.39c0.06-0.34,0.15-0.49,0.22-0.51
		c0.68-0.27,0.45-1.78,0.31-2.43c0.53-0.44,1.75-1.25,2.49-0.87c0.17,0.09,0.35,0.09,0.5-0.01c0.2-0.13,0.71-0.47,0.4-4.82
		c-0.05-0.74-0.11-1.34-0.13-1.54C55.35,39.2,57.58,34.91,61.14,35.76z M74.78,23.98c2.81-1.33,5.97-0.98,9.39,1.03
		c0.08,0.04,0.17,0.05,0.25,0c0.04-0.02,3.68-1.95,6.38-0.96c1.06,0.39,1.85,1.2,2.33,2.41c-0.89,0.07-1.78,0.18-2.66,0.35
		c-1.18,0.28-2.57,0.48-3.42,1.47c-0.27,0.51-0.44,0.68-0.98,0.51c-1.11-0.43-2-1.34-2.83-2.18c-2.41-0.53-4.55,1.92-5.72,3.74
		c0,0-0.29,0.51-0.41,0.71c-0.73-0.3-1.39-0.73-1.91-1.35c-0.32-0.37-0.59-0.94-1.16-1.17c-1.15-0.38-1.92,1.02-2.99,1.11
		c-0.44,0.09-0.85-0.11-1.22-0.32c0.24-0.17,0.41-0.41,0.46-0.73C70.35,28.15,71.81,25.39,74.78,23.98z M102.68,40.68
		c1.44,0.24,3.25,1.56,4.45,3.23c0.01,0.02,0.02,0.05,0.03,0.07c3.27,5.25-0.58,7.29-4.87,8.19l-0.09-1.26
		c0.27-0.67,2.5-6.36-0.1-8.43c-0.55-0.44-0.95-0.9-1.2-1.37c0.11-0.05,0.22-0.11,0.3-0.17C101.59,40.67,102.09,40.58,102.68,40.68z
		 M114.94,73.16c-0.88,3.42-2.4,7.18-5.11,9.6c-0.37,0.25-0.81,0.38-1.26,0.43c0.46-1.54,1.01-3.04,1.51-4.58
		c0.99-3.15,1.45-6.45,1.73-9.73c0.12-1.32,0.17-2.64,0.22-3.97C114.8,66.65,115.78,69.97,114.94,73.16z M124.9,86.86
		c0.12-0.18,0.24-0.37,0.37-0.59c2.2-3.54,6.46-11.58,10.35-25.59c0.12-0.12,0.51-0.44,0.96-0.27c0.21,0.07,0.45,0.25,0.7,0.62
		c0.14,0.2,0.27,0.45,0.41,0.77c0.67,1.55,1.33,4.69,1.53,11c-0.01,0.11-0.67,10.76-13.4,17.25
		C125.62,88.86,125.27,87.79,124.9,86.86z"/>
	<path class="st11" d="M135.93,73.35c-0.13-0.05-0.28,0.01-0.33,0.14c-0.02,0.06-2.39,5.88-5.66,9.59c-0.09,0.1-0.08,0.26,0.02,0.35
		c0.05,0.04,0.11,0.06,0.17,0.06c0.07,0,0.14-0.03,0.19-0.09c3.33-3.78,5.73-9.68,5.75-9.74C136.12,73.55,136.05,73.41,135.93,73.35
		z"/>
	<path class="st11" d="M35.35,119.49c0.32,0.17,0.65,0.34,0.99,0.51c0.91,0.45,1.87,0.89,2.9,1.31c0.13,0.05,0.28-0.01,0.33-0.14
		c0.02-0.04,0.02-0.08,0.01-0.12c-0.01-0.09-0.06-0.17-0.15-0.21c-17.71-7.3-16.65-18.7-16.37-20.48
		c2.89,0.69,7.26,6.24,10.47,10.33c1.65,2.1,2.96,3.76,3.72,4.34c0.99,0.75,1.58,2.05,2.15,3.3c0.54,1.18,1.05,2.29,1.87,2.94
		c0.08,0.06,0.15,0.13,0.24,0.18c0,0,0.01,0,0.01,0c0.04,0.02,0.08,0.04,0.12,0.04h0.01c0.14,0,0.25-0.11,0.25-0.25
		c0-0.04-0.01-0.08-0.03-0.12c-0.01-0.01-0.01-0.02-0.02-0.03c-0.02-0.02-0.04-0.04-0.06-0.06c-0.01,0-0.01-0.01-0.02-0.01
		c-0.83-0.54-1.35-1.69-1.91-2.9c-0.6-1.31-1.21-2.66-2.3-3.49c-0.71-0.54-2.06-2.26-3.63-4.25c-3.34-4.24-7.89-10.03-10.97-10.55
		c-0.01,0-0.02,0-0.02,0c-0.01,0-0.02-0.01-0.04-0.01c-0.13-0.02-0.25,0.06-0.28,0.19c-0.02,0.06-0.73,3.29,0.9,7.51
		c0.02,0.05,0.04,0.09,0.05,0.14C25.03,111.35,28.29,115.76,35.35,119.49z"/>
	<path class="st11" d="M36.57,115.7c-3.51-2.28-8.31-5.97-7.97-7.04c0.04-0.13-0.03-0.27-0.16-0.31c-0.13-0.04-0.27,0.03-0.31,0.16
		c-0.57,1.81,6.71,6.66,8.18,7.61c0.04,0.03,0.09,0.04,0.14,0.04c0.08,0,0.16-0.04,0.21-0.11C36.72,115.93,36.68,115.77,36.57,115.7
		z"/>
	<path class="st11" d="M13.35,66.57c-0.14,0-0.25,0.12-0.24,0.26c0.02,0.59,0.54,14.4,6.14,19.56c0.05,0.04,0.11,0.07,0.17,0.07
		c0.07,0,0.14-0.03,0.18-0.08c0.09-0.1,0.09-0.26-0.01-0.35c-5.44-5.02-5.97-19.07-5.98-19.21C13.6,66.68,13.47,66.57,13.35,66.57z"
		/>
	<path class="st11" d="M30.3,20.95c0.28-1.14,0.55-2.35,0.8-3.63c0.03-0.14,0.06-0.28,0.08-0.43c0.14-0.75,0.28-1.52,0.41-2.32
		c0.01-0.05,0.02-0.1,0.03-0.15c0.2-1.24,0.38-2.53,0.54-3.89c0-0.01,0-0.02,0-0.03c0-0.02,0.01-0.04,0.01-0.06
		c0.02-0.13-0.08-0.26-0.21-0.28c-0.09-0.01-0.89-0.11-2.06,0.26c-0.04,0.01-0.08,0.03-0.13,0.04c-1.42,0.49-3.34,1.69-5.2,4.54
		c-0.04,0.05-0.07,0.11-0.11,0.17c-0.58,0.92-1.16,2-1.71,3.28c-0.14,0.32-0.27,0.65-0.41,1c-0.4,1.03-0.78,2.17-1.14,3.44
		c-0.01,0.02-0.01,0.05-0.02,0.07c-0.06,0.2-0.12,0.4-0.17,0.61c-0.01,0.06-0.56,3.98-0.56,8.19c0,0.02,0,0.04,0,0.05
		c0,2.09,0.15,4.25,0.56,6.05c0.02,0.09,0.09,0.16,0.17,0.18c-0.05,0.04-0.07,0.06-0.08,0.06c-0.11,0.08-0.14,0.24-0.06,0.35
		c0.05,0.07,0.13,0.1,0.2,0.1c0.05,0,0.1-0.02,0.15-0.05c0.01-0.01,0.03-0.02,0.05-0.04C22.1,38,27.09,33.84,30.3,20.95z
		 M27.33,23.52C27.33,23.52,27.33,23.52,27.33,23.52c-0.14,0-0.25,0.11-0.25,0.25c-0.07,4.68-4.44,11.54-5.68,13.41
		c-1.04-5.35,0.11-13.45,0.12-13.5c3.28-12.28,8.9-13.02,10.14-13.02c-2.17,17.87-7.95,24.96-9.89,26.88
		c1.21-1.79,5.74-8.81,5.82-13.76C27.58,23.64,27.47,23.52,27.33,23.52z"/>
	<path class="st11" d="M108.7,5.3c0.02,0,0.04,0,0.06,0l4.63-0.36c-0.1,1.87-0.29,3.94-0.68,5.26c-0.12,0.4,0.11,0.82,0.51,0.94
		c0.07,0.02,0.14,0.03,0.21,0.03c0.33,0,0.63-0.21,0.72-0.54c0.44-1.5,0.65-3.8,0.75-5.81l4.16-0.33c0.42-0.03,0.73-0.4,0.69-0.81
		c-0.03-0.41-0.39-0.73-0.81-0.69l-3.98,0.31c0.04-1.41,0.03-2.45,0.03-2.56c-0.01-0.42-0.37-0.75-0.76-0.74
		c-0.42,0.01-0.75,0.35-0.74,0.76c0,0.03,0.01,1.15-0.03,2.66l-4.81,0.38c-0.42,0.03-0.73,0.4-0.69,0.81
		C107.98,5,108.31,5.3,108.7,5.3z"/>
	<path class="st11" d="M100.06,12.84c0.05,0,0.1,0,0.15-0.01l1.17-0.23v1.16c0,0.42,0.34,0.75,0.75,0.75c0.42,0,0.75-0.34,0.75-0.75
		V12.3l1.57-0.31c0.41-0.08,0.67-0.48,0.59-0.88c-0.08-0.41-0.47-0.68-0.88-0.59l-1.28,0.25v-0.35c0-0.42-0.34-0.75-0.75-0.75
		c-0.42,0-0.75,0.34-0.75,0.75v0.65l-1.46,0.29c-0.41,0.08-0.67,0.48-0.59,0.88C99.39,12.59,99.7,12.84,100.06,12.84z"/>
	<path class="st11" d="M107.86,20.65c0.03,0,0.07,0,0.11-0.01l1.2-0.17c-0.05,0.51-0.12,0.93-0.21,1.13c-0.17,0.38,0,0.83,0.37,1
		c0.1,0.05,0.21,0.07,0.31,0.07c0.29,0,0.56-0.16,0.69-0.44c0.19-0.43,0.31-1.19,0.37-1.97l1.87-0.26c0.41-0.06,0.7-0.44,0.64-0.85
		s-0.44-0.7-0.85-0.64l-1.58,0.22c0.01-0.39,0.01-0.7,0.01-0.85c0-0.42-0.34-0.75-0.75-0.75c-0.42,0-0.75,0.34-0.75,0.75
		c0,0.32-0.01,0.68-0.02,1.06l-1.51,0.21c-0.41,0.06-0.7,0.44-0.64,0.85C107.16,20.38,107.49,20.65,107.86,20.65z"/>
	<path class="st11" d="M68.77,73.93c0.25,0,0.49-0.01,0.73-0.02c2.89-0.2,4.72-1.57,5.15-3.87c0.08-0.41-0.19-0.8-0.6-0.88
		c-0.41-0.08-0.8,0.19-0.88,0.6c-0.3,1.61-1.57,2.49-3.77,2.64c-3.88,0.26-8.52-1.88-8.8-2.74c-0.61-1.82-0.07-3-0.04-3.07
		c0.18-0.37,0.03-0.82-0.34-1.01c-0.37-0.19-0.83-0.04-1.01,0.34c-0.04,0.07-0.86,1.76-0.04,4.21
		C59.78,71.98,64.86,73.93,68.77,73.93z"/>
	<path class="st11" d="M87,74.26c1.32,0.67,4.17,1.45,7.06,1.45c1.58,0,3.17-0.23,4.53-0.84c1.8-0.8,2.96-2.14,3.45-3.97
		c0.11-0.4-0.13-0.82-0.53-0.92c-0.4-0.11-0.82,0.13-0.92,0.53c-0.37,1.39-1.22,2.37-2.61,2.99c-3.2,1.43-8.4,0.38-10.3-0.58
		c-2.15-1.09-1.62-3.45-1.59-3.57c0.1-0.4-0.14-0.81-0.55-0.91c-0.4-0.1-0.81,0.14-0.92,0.55C84.31,70.23,84.4,72.94,87,74.26z"/>
	<path class="st11" d="M73.16,90.36c-0.03,0.42,0.29,0.77,0.71,0.8c0.14,0.01,2.42,0.14,4.75,0.14c1.22,0,2.45-0.04,3.4-0.15
		c0.41-0.05,0.71-0.42,0.66-0.84c-0.05-0.41-0.42-0.71-0.84-0.66c-2.65,0.31-7.84,0-7.89,0C73.55,89.63,73.18,89.95,73.16,90.36z"/>
	<g>
		<path class="st6" d="M82.66,120.58c-0.02-0.01-0.03-0.01-0.05-0.02c-0.22-0.06-0.45-0.12-0.69-0.18
			c-0.25-0.06-0.52-0.09-0.79-0.11c-3.78-0.28-9.58,2.59-13.02,4.72c-0.25,0.15-0.48,0.3-0.7,0.44c-1.72,1.12-2.48,0.54-2.56,0.47
			l-0.1-0.08l0.01-0.13c0.69-7.24,8.35-10.47,11.62-11.84c4-1.68,13.99,3.26,14.86,3.7c0.04-0.06,0.24-0.81-2.77-5.1
			c-1.01-1.44-2.11-2.4-3.19-3.03c-1.35-0.79-2.68-1.06-3.79-1.11c-0.33-0.01-0.64-0.01-0.93,0.01c-0.19,0.01-0.37,0.03-0.53,0.05
			c-0.25,0.03-0.47,0.07-0.65,0.11c-0.37,0.08-0.59,0.16-0.64,0.17c0,0-0.73,0.32-1.86,0.82c-0.28,0.12-0.59,0.26-0.91,0.4
			c-0.33,0.14-0.67,0.29-1.03,0.45c-0.89,0.39-1.87,0.82-2.85,1.25c-0.39,0.17-0.78,0.34-1.17,0.51c-2.52,1.1-4.81,2.11-5.4,2.37
			c-1.57,0.7-2.84-0.23-2.89-0.27l-0.14-0.11l0.05-0.17c1.9-6.26,13.21-10.87,13.69-11.06c0.13-0.03,0.21-0.05,0.29-0.06
			c0.66-0.11,1.37-0.12,2.12-0.01l0.02,0c4.59,0.65,9.34,5.13,10.61,6.41c0.04-0.22,0.09-0.51,0.13-0.86
			c0.01-0.09,0.02-0.18,0.03-0.27c0.02-0.28,0.04-0.6,0.04-0.93c0.01-2.7-0.93-6.98-6.32-9.65c-0.83-0.41-1.74-0.68-2.72-0.79
			c-5.57-0.67-12.16,3.62-15.59,6.23c-1.68,1.28-2.74,2.27-2.76,2.28l-0.08,0.05c-1.36,0.51-6.59,7.57-8.5,10.25l-0.05,0.05
			c-1.59,1.23-4.26,4.01-7.92,8.26c-3.54,4.1-7.08,8.5-8.62,10.43c7.07,3.78,10.91,7.62,12.93,10.25c1.95-2.02,7.52-7.73,10.64-9.95
			c2.84-2.03,8.96-4.51,12.25-5.84c1.11-0.45,1.98-0.8,2.29-0.96c1-0.51,1.17-0.91,1.54-1.78c0.06-0.15,0.13-0.3,0.21-0.47
			C77.25,124.44,81.27,121.56,82.66,120.58z"/>
	</g>
	<g>
		<path class="st6" d="M103.56,113.23c-0.1-0.05-0.19-0.1-0.29-0.15c-0.28-0.13-0.56-0.18-0.88-0.17l-0.11,0l-0.09-0.09l-0.13-0.08
			l0.01-0.14c0.01-0.37,0.01-0.72,0-1.09c-3.19-3.53-6.88-7.23-9.04-9.24c-0.01,0.01-0.03,0.01-0.04,0.02l-0.12,0.06h-0.16
			l-0.08-0.06c-0.4-0.34-0.62-0.53-0.62-0.53c-3.56-3.49-6.98-4.62-9.16-4.97c0.18,0.07,0.35,0.15,0.52,0.24
			c8.57,4.25,6.3,12.65,6.27,12.73l-0.12,0.43l-0.3-0.32c-0.06-0.06-5.56-5.87-10.64-6.59c-0.68,0.01-1.37,0.01-2.04,0.01
			c-0.04,0.01-0.11,0.02-0.18,0.04c-0.07,0.03-11.29,4.61-13.29,10.55c0.34,0.19,1.21,0.58,2.24,0.12
			c1.45-0.64,13.24-5.82,13.24-5.82c0.08-0.03,6.06-2.1,10.32,3.97c3.4,4.83,2.95,5.46,2.78,5.7c-0.16,0.22-0.42,0.22-0.55,0.18
			c-0.15-0.07-10.65-5.36-14.53-3.73c-3.16,1.33-10.53,4.43-11.3,11.26c0.22,0.07,0.8,0.14,1.86-0.55
			c0.99-0.64,9.81-6.24,14.89-5.12c0.45,0.1,0.86,0.22,1.27,0.36c4.04,1.4,7.13,5.01,9.74,11.35c0.62,0.66,10.16,10.84,14.89,13.92
			l0.05,0.05l3.18,3.71c2.92-2.61,6.16-4.67,9.65-6.14c-1.28-2.02-6.09-9.8-9.92-18.84C109.52,121.04,107.05,117.31,103.56,113.23z"
			/>
	</g>
</g>
</svg>
