<?xml version="1.0" encoding="utf-8"?>
<!-- Generator: Adobe Illustrator 27.1.0, SVG Export Plug-In . SVG Version: 6.00 Build 0)  -->
<svg version="1.1" id="Capa_1" xmlns="http://www.w3.org/2000/svg" xmlns:xlink="http://www.w3.org/1999/xlink" x="0px" y="0px"
	 width="150px" height="150px" viewBox="0 0 150 150" style="enable-background:new 0 0 150 150;" xml:space="preserve">
<style type="text/css">
	.st0{fill:none;}
	.st1{fill:#FFFFFF;}
	.st2{fill:#F2B705;}
	.st3{fill:#040423;}
	.st4{fill:#8C1F33;}
	.st5{fill:#5BA566;}
	.st6{fill:#F2E3CC;}
	.st7{fill:#F15A24;}
	.st8{fill:#400101;}
	.st9{fill:#FCFCFC;}
	.st10{fill:#122B05;}
	.st11{fill:#472FAD;}
	.st12{fill:#A64F03;}
	.st13{fill:#D98E04;}
	.st14{fill:#F2F2F2;}
	.st15{fill:#2FD812;}
	.st16{fill:#AA8D30;}
	.st17{fill:#B0EAB7;}
	.st18{fill:#111147;}
	.st19{fill:none;stroke:#472FAD;stroke-width:0;stroke-linecap:round;stroke-linejoin:round;}
	.st20{fill:#F2B705;stroke:#472FAD;stroke-miterlimit:10;}
	.st21{fill:#231A56;}
	.st22{fill:#EA0070;}
	.st23{fill:#158035;}
	.st24{fill:#F9B331;}
	.st25{opacity:0.4;}
	.st26{fill:#0F0E0D;}
	.st27{fill:#E0245E;}
	.st28{fill:#050535;}
	.st29{fill:#F2EBDF;}
</style>
<g>
	<g>
		<path class="st22" d="M74.64,140.52c-20.78-19.42-44.18-39.24-57.81-50.57C-9.75,67.86-3.28,24.95,28.96,12.47
			C43.08,7,59.9,8.27,74.64,20.43l0,0l0,0c13.05-10.77,27.74-12.99,40.73-9.57c35.7,9.42,45.27,55.74,16.78,79.24
			C118.39,101.45,95,121.18,74.64,140.52z"/>
		<path class="st11" d="M74.64,140.91l-0.19-0.18c-21.17-19.79-45.3-40.17-57.8-50.56C3.94,79.6-2.05,63.52,0.63,47.16
			C3.25,31.1,13.81,18.03,28.86,12.2c15.61-6.05,32.28-3.18,45.78,7.86c12.07-9.87,26.55-13.23,40.81-9.47
			c16.67,4.4,28.85,17.16,32.57,34.13c3.74,17.06-2.27,34.53-15.69,45.59c-12.56,10.36-36.73,30.68-57.5,50.41L74.64,140.91z
			 M45.18,9.66c-5.38,0-10.81,1.01-16.11,3.07C14.2,18.48,3.77,31.39,1.18,47.25C-1.46,63.42,4.46,79.3,17.01,89.74
			c12.46,10.36,36.49,30.66,57.63,50.4c20.74-19.69,44.81-39.93,57.34-50.26c13.25-10.93,19.19-28.19,15.5-45.04
			c-3.68-16.77-15.7-29.37-32.17-33.71c-14.15-3.73-28.53-0.35-40.48,9.51l-0.18,0.15l-0.18-0.15C65.67,13.39,55.51,9.66,45.18,9.66
			z"/>
	</g>
	<g>
		<path class="st1" d="M106.07,21.32c4.05-1.18,8.59-0.61,12.35,1.25c1.87,1.02,3.45,2.53,5.11,3.72c1.66,1.22,3.38,2.32,5.14,3.52
			c5.78,3.95,9.08,11.11,8.66,18.06c-0.06,1.59-0.31,3.15-0.75,4.68c0,0-0.39,0.01-0.39,0.01c-1.91-5.51-3.47-11.07-6.1-16.28
			c-0.89-1.66-1.91-3.35-2.94-4.93c-1.11-1.62-2.57-3.03-4.3-3.98c-1.73-0.97-3.77-1.28-5.64-1.75c-1.65-0.42-3.87-1.25-5.49-1.8
			c-1.84-0.65-3.7-1.28-5.65-2.11L106.07,21.32L106.07,21.32z"/>
	</g>
	<g>
		<g>
			<g>
				<g>
					<path class="st23" d="M108.68,130.79c-0.36,0-0.65-0.29-0.65-0.65v-7.17c0-0.36,0.29-0.65,0.65-0.65s0.65,0.29,0.65,0.65v7.17
						C109.32,130.5,109.04,130.79,108.68,130.79z"/>
				</g>
			</g>
			<g>
				<g>
					<path class="st23" d="M112.32,126.69h-6.83c-0.36,0-0.65-0.29-0.65-0.65s0.29-0.65,0.65-0.65h6.83c0.36,0,0.65,0.29,0.65,0.65
						S112.68,126.69,112.32,126.69z"/>
				</g>
			</g>
		</g>
		<g>
			<g>
				<g>
					<path class="st23" d="M121.16,128.56c-0.47,0-0.84-0.38-0.84-0.84v-9.35c0-0.47,0.38-0.84,0.84-0.84
						c0.47,0,0.84,0.38,0.84,0.84v9.35C122,128.18,121.62,128.56,121.16,128.56z"/>
				</g>
			</g>
			<g>
				<g>
					<path class="st23" d="M125.91,123.21h-8.9c-0.47,0-0.84-0.38-0.84-0.84c0-0.47,0.38-0.84,0.84-0.84h8.9
						c0.47,0,0.84,0.38,0.84,0.84C126.75,122.83,126.38,123.21,125.91,123.21z"/>
				</g>
			</g>
		</g>
		<g>
			<g>
				<g>
					<path class="st23" d="M135.9,125.88c-0.47,0-0.84-0.38-0.84-0.84v-9.35c0-0.47,0.38-0.84,0.84-0.84c0.47,0,0.84,0.38,0.84,0.84
						v9.35C136.74,125.51,136.36,125.88,135.9,125.88z"/>
				</g>
			</g>
			<g>
				<g>
					<path class="st23" d="M140.65,120.54h-8.9c-0.47,0-0.84-0.38-0.84-0.84c0-0.47,0.38-0.84,0.84-0.84h8.9
						c0.47,0,0.84,0.38,0.84,0.84C141.49,120.16,141.11,120.54,140.65,120.54z"/>
				</g>
			</g>
		</g>
		<g>
			<g>
				<g>
					<path class="st23" d="M127.92,114.8c-0.47,0-0.84-0.38-0.84-0.84v-9.35c0-0.47,0.38-0.84,0.84-0.84s0.84,0.38,0.84,0.84v9.35
						C128.76,114.43,128.38,114.8,127.92,114.8z"/>
				</g>
			</g>
			<g>
				<g>
					<path class="st23" d="M132.67,109.46h-8.9c-0.47,0-0.84-0.38-0.84-0.84s0.38-0.84,0.84-0.84h8.9c0.47,0,0.84,0.38,0.84,0.84
						S133.13,109.46,132.67,109.46z"/>
				</g>
			</g>
		</g>
		<g>
			<g>
				<g>
					<path class="st23" d="M143.25,109.47c-0.56,0-1.02-0.45-1.02-1.02V97.18c0-0.56,0.45-1.02,1.02-1.02
						c0.56,0,1.02,0.45,1.02,1.02v11.27C144.27,109.02,143.81,109.47,143.25,109.47z"/>
				</g>
			</g>
			<g>
				<g>
					<path class="st23" d="M148.98,103.02h-10.74c-0.56,0-1.02-0.45-1.02-1.02c0-0.56,0.45-1.02,1.02-1.02h10.74
						c0.56,0,1.02,0.45,1.02,1.02C150,102.57,149.55,103.02,148.98,103.02z"/>
				</g>
			</g>
		</g>
	</g>
</g>
</svg>
