<?xml version="1.0" encoding="utf-8"?>
<!-- Generator: Adobe Illustrator 27.1.0, SVG Export Plug-In . SVG Version: 6.00 Build 0)  -->
<svg version="1.1" id="Capa_1" xmlns="http://www.w3.org/2000/svg" xmlns:xlink="http://www.w3.org/1999/xlink" x="0px" y="0px"
	 width="150px" height="150px" viewBox="0 0 150 150" style="enable-background:new 0 0 150 150;" xml:space="preserve">
<style type="text/css">
	.st0{fill:none;}
	.st1{fill:#FFFFFF;}
	.st2{fill:#F2B705;}
	.st3{fill:#040423;}
	.st4{fill:#8C1F33;}
	.st5{fill:#5BA566;}
	.st6{fill:#F2E3CC;}
	.st7{fill:#F15A24;}
	.st8{fill:#400101;}
	.st9{fill:#FCFCFC;}
	.st10{fill:#122B05;}
	.st11{fill:#472FAD;}
	.st12{fill:#A64F03;}
	.st13{fill:#D98E04;}
	.st14{fill:#F2F2F2;}
	.st15{fill:#2FD812;}
	.st16{fill:#AA8D30;}
	.st17{fill:#B0EAB7;}
	.st18{fill:#111147;}
	.st19{fill:none;stroke:#472FAD;stroke-width:0;stroke-linecap:round;stroke-linejoin:round;}
	.st20{fill:#F2B705;stroke:#472FAD;stroke-miterlimit:10;}
	.st21{fill:#231A56;}
	.st22{fill:#EA0070;}
	.st23{fill:#158035;}
	.st24{fill:#F9B331;}
	.st25{opacity:0.4;}
	.st26{fill:#0F0E0D;}
	.st27{fill:#E0245E;}
	.st28{fill:#050535;}
	.st29{fill:#F2EBDF;}
</style>
<g>
	<g>
		<path class="st24" d="M81.28,89.06c-0.69,0.62-1.36,1.29-2.01,1.99c-7.65-1.94-14.28-2.81-21.78-3.1
			c-3.46-3.93-8.11-6.9-13.57-8.27c-14.33-3.6-28.87,5.09-32.47,19.44c-1.11,4.43-1.06,8.88-0.01,13
			C5.71,96.27,29.57,52.99,57.12,12.16c-4.95,10.3,0.35,23.18,11.87,28.77c3.51,1.71,7.2,2.55,10.76,2.59
			c-4.18,0.22-9.52-0.21-15.84-2.2C63.91,41.33,50.77,74.3,81.28,89.06z"/>
		<path class="st11" d="M10.56,112.43c-0.79-2.18-1.04-4.82-0.83-7.83c0.07-1.9,0.34-3.8,0.81-5.66
			c4.92-23.83,29.53-63.15,45.82-87.29l1.59,0.91c-4.73,9.83,0.41,22.19,11.44,27.55c3.26,1.59,6.84,2.45,10.37,2.5l0.04,1.83
			c-4.88,0.25-10.03-0.42-15.32-1.98c-1.8,5.13-9.94,32.65,17.2,45.78l1.22,0.59l-1.01,0.91c-0.71,0.64-1.37,1.29-1.95,1.93
			l-0.37,0.4l-0.53-0.13c-7.35-1.84-13.75-2.77-21.59-3.08l-0.39-0.01l-0.26-0.3c-3.47-3.94-8-6.7-13.11-7.99
			c-13.67-3.43-27.57,4.76-31.24,18.31c-0.48,2.22-0.78,4.25-0.89,6.09c-0.06,2.34,0.19,4.67,0.76,6.93L10.56,112.43z M54.53,17.68
			c-19.59,29.5-32.94,53.88-39.11,71.13c6.52-8.49,17.69-12.79,28.72-10.02c5.34,1.34,10.1,4.19,13.78,8.26
			c7.61,0.32,13.96,1.22,21.05,2.98c0.23-0.25,0.48-0.49,0.73-0.74c-29.4-15.23-16.76-47.98-16.63-48.31l0.32-0.79l0.81,0.25
			c1.31,0.41,2.61,0.77,3.9,1.06C58.58,36.65,53.31,26.88,54.53,17.68z"/>
	</g>
	<g class="st25">
		<path class="st26" d="M55.01,18.97l-0.2-1.8l-0.57,0.98l-1.77,2.6c0,0-1.62,2.58-1.74,2.76c-0.11,0.18-1.31,2.05-1.31,2.05
			l-0.68,4.01l1.78,2.6c0,0,1.67,2.45,1.86,2.88c0.2,0.43,2.16,3.2,2.43,3.35c0.27,0.14,3.56,2.19,3.75,2.31s4.16,1.22,4.16,1.22
			l0.62-1.73l4.68,1.3l0.96-0.55l-3.89-2.02l-3.38-2.6l-2.52-2.38l-1.73-2.18l-1.57-4.04l-0.43-2.24l-0.45-3.96l-0.13-2.04
			L55.01,18.97z"/>
	</g>
	<g>
		<path class="st24" d="M138.37,122.89c-4.65,18.53-23.47,29.8-42.01,25.14c-6.85-1.72-12.73-5.37-17.15-10.25
			c-5.44,0.34-21.16,0.59-33.72-6.65c-4.59,1.46-9.63,1.71-14.63,0.45c-9.92-2.49-17.14-10.21-19.45-19.47
			c-1.05-4.12-1.1-8.57,0.01-13c3.6-14.35,18.14-23.04,32.47-19.44c5.47,1.37,10.11,4.34,13.57,8.27c7.5,0.29,14.13,1.16,21.78,3.1
			c0.65-0.71,1.33-1.37,2.01-1.99c8.29-7.68,20.17-11.13,31.95-8.18C131.76,85.54,143.03,104.34,138.37,122.89z"/>
		<path class="st11" d="M96.14,148.93c-6.69-1.68-12.67-5.2-17.3-10.2c-6.32,0.35-21.23,0.28-33.45-6.6
			c-4.79,1.45-9.88,1.57-14.74,0.35c-9.93-2.49-17.64-10.21-20.11-20.14c-1.11-4.36-1.1-9.01,0.01-13.44
			c3.72-14.8,18.78-23.82,33.59-20.1c5.34,1.34,10.1,4.19,13.78,8.26c7.61,0.32,13.96,1.22,21.05,2.98c0.53-0.55,1.09-1.1,1.7-1.65
			c8.83-8.19,21.09-11.32,32.79-8.39c19,4.77,30.58,24.12,25.81,43.12C134.49,142.12,115.15,153.7,96.14,148.93z M79.6,136.84
			l0.3,0.33c4.43,4.9,10.21,8.35,16.69,9.97c18.02,4.53,36.37-6.45,40.89-24.48s-6.45-36.37-24.48-40.89
			c-11.1-2.79-22.73,0.19-31.11,7.96c-0.71,0.65-1.37,1.3-1.96,1.94l-0.37,0.4l-0.53-0.13c-7.35-1.84-13.75-2.77-21.59-3.08
			l-0.39-0.01l-0.26-0.3c-3.47-3.94-8-6.7-13.11-7.99C29.87,77.1,15.8,85.52,12.33,99.34c-1.04,4.14-1.04,8.48-0.01,12.55
			c2.31,9.28,9.51,16.48,18.78,18.81c4.66,1.17,9.55,1.02,14.13-0.44l0.39-0.12l0.35,0.2c12.14,7,27.26,6.9,33.2,6.53L79.6,136.84z"
			/>
	</g>
	<g>
		<path class="st27" d="M88.87,41.78c-2.77,1.18-5.86,1.77-9.01,1.73C84.35,43.3,87.45,42.32,88.87,41.78z"/>
		<path class="st11" d="M79.85,44.43l-0.03-1.83c4.26-0.21,7.3-1.14,8.73-1.67l0.68,1.7C86.36,43.84,83.12,44.47,79.85,44.43z"/>
	</g>
	<g>
		<line class="st27" x1="81.29" y1="89.07" x2="81.28" y2="89.06"/>
		<polygon class="st11" points="81.07,89.96 81.05,89.95 81.5,88.17 		"/>
	</g>
	<g>
		<path class="st11" d="M89.68,105.77c0.53-7.29-10.76-13.85-10.87-13.92l0.91-1.59c0.51,0.29,12.41,7.2,11.79,15.65L89.68,105.77z"
			/>
	</g>
	<g>
		<path class="st11" d="M63.17,99.06c0.46-3.62-4.39-8.75-6.29-10.42l1.21-1.38c0.31,0.27,7.58,6.7,6.91,12.03L63.17,99.06z"/>
	</g>
	<g>
		<path class="st24" d="M57.12,12.16c0.7-1.04,1.97-2.93,2.99-4.45c6.24-6.93,5.6-8.95,15.35-4.21C87.01,9.12,104.02,22.08,99,32.42
			c-1.99,4.06-5.27,7.12-9.24,8.98c0,0-0.3,0.15-0.89,0.38c-1.42,0.53-4.52,1.51-9.01,1.73c-0.04,0.01-0.08,0.02-0.12,0.01
			c-3.57-0.04-7.26-0.88-10.76-2.59C57.47,35.34,52.17,22.46,57.12,12.16"/>
		<path class="st11" d="M73.79,43.66c-1.79-0.45-3.54-1.09-5.2-1.9c-11.94-5.8-17.46-19.26-12.29-30l0.06-0.11l2.99-4.45
			c0.98-1.1,1.74-2,2.41-2.79c4.24-5.03,5.44-5.94,14.1-1.73c12.07,5.88,29.25,19.27,23.97,30.16c-2.02,4.14-5.36,7.39-9.67,9.41
			c0,0-0.33,0.16-0.94,0.41c-1.88,0.71-5.01,1.58-9.3,1.79l-0.17,0l0,0.01C77.75,44.42,75.74,44.15,73.79,43.66z M57.92,12.62
			c-4.68,9.82,0.46,22.14,11.47,27.49c3.26,1.59,6.84,2.45,10.37,2.5l0.11,0c4.31-0.25,7.27-1.16,8.68-1.68
			c0.51-0.2,0.79-0.34,0.81-0.34c3.94-1.85,6.99-4.81,8.82-8.56c4.45-9.17-10.84-21.72-23.12-27.7c-7.68-3.73-8.08-3.26-11.89,1.26
			c-0.68,0.8-1.45,1.72-2.37,2.74L57.92,12.62z"/>
	</g>
	<g>
		<path class="st11" d="M94.89,36.91c0.47-2.93,0.19-5-0.85-6.34c-1.65-2.12-5.2-2.42-9.3-2.77c-2.8-0.24-5.68-0.49-8.43-1.34
			l0.55-1.75c2.55,0.8,5.34,1.03,8.04,1.27c4.34,0.37,8.45,0.72,10.59,3.47c1.38,1.77,1.78,4.31,1.22,7.77L94.89,36.91z"/>
	</g>
	<g>
		<polygon class="st11" points="72.41,25.93 72.72,22.43 75.79,24.33 79.21,25.55 76.21,27.23 73.26,29.61 		"/>
	</g>
	<g class="st25">
		<path class="st26" d="M83.48,138.27c0,0,4.97,3.83,6.86,4.76c1.89,0.93,12.87,3.84,14.16,3.56c1.29-0.28,4.47-0.85,6.87-1.32
			C113.77,144.81,83.48,138.27,83.48,138.27z"/>
	</g>
	<g class="st25">
		<path class="st26" d="M18.43,120.49c0,0,2.25,3.13,3.2,4.01c0.95,0.88,6.9,4.52,7.71,4.58c0.81,0.06,2.78,0.28,4.27,0.43
			S18.43,120.49,18.43,120.49z"/>
	</g>
</g>
</svg>
