<?xml version="1.0" encoding="utf-8"?>
<!-- Generator: Adobe Illustrator 27.1.0, SVG Export Plug-In . SVG Version: 6.00 Build 0)  -->
<svg version="1.1" id="Capa_1" xmlns="http://www.w3.org/2000/svg" xmlns:xlink="http://www.w3.org/1999/xlink" x="0px" y="0px"
	 width="450px" height="450px" viewBox="0 0 450 450" style="enable-background:new 0 0 450 450;" xml:space="preserve">
<style type="text/css">
	.st0{fill:none;}
	.st1{fill:#FFFFFF;}
	.st2{fill:#F2B705;}
	.st3{fill:#040423;}
	.st4{fill:#8C1F33;}
	.st5{fill:#5BA566;}
	.st6{fill:#F2E3CC;}
	.st7{fill:#F15A24;}
	.st8{fill:#400101;}
	.st9{fill:#FCFCFC;}
	.st10{fill:#122B05;}
	.st11{fill:#472FAD;}
	.st12{fill:#A64F03;}
	.st13{fill:#D98E04;}
	.st14{fill:#F2F2F2;}
	.st15{fill:#2FD812;}
	.st16{fill:#AA8D30;}
	.st17{fill:#B0EAB7;}
	.st18{fill:#111147;}
	.st19{fill:none;stroke:#472FAD;stroke-width:0;stroke-linecap:round;stroke-linejoin:round;}
	.st20{fill:#F2B705;stroke:#472FAD;stroke-miterlimit:10;}
	.st21{fill:#231A56;}
	.st22{fill:#EA0070;}
	.st23{fill:#158035;}
	.st24{fill:#F9B331;}
	.st25{opacity:0.4;}
	.st26{fill:#0F0E0D;}
	.st27{fill:#E0245E;}
	.st28{fill:#050535;}
	.st29{fill:#F2EBDF;}
</style>
<g>
	<polygon class="st0" points="135.55,134 135.55,134 135.55,134 	"/>
	<path class="st0" d="M310.32,412.48c0,0.07-0.01,0.13-0.01,0.2l0.12-0.14C310.39,412.52,310.36,412.5,310.32,412.48z"/>
	<g>
		<path class="st6" d="M180.67,139.77c-0.57,0.39-1.5,0.52-2.48,0.52c-0.27,0-0.54-0.01-0.81-0.03c0.53,1.73,1.93,4.8,5.5,7.22
			c5.27,3.56,13.49,4.33,23.95,2.3c-2.97-0.53-5.52-1.38-7-2.74c-1.58-1.46-2.39-3.16-2.39-5.08c0-1.93,0.84-3.72,1.74-5.07
			c-1.03,0.14-2.06,0.21-3.04,0.21c-3.57,0-6.49-0.75-6.68-0.8c-0.09-0.02-0.18-0.06-0.26-0.11c-0.17-0.1-1.65-0.97-3.51-2.39
			C184.25,135.69,181.63,139.11,180.67,139.77z"/>
	</g>
	<g>
		<path class="st6" d="M180.85,110.02l-1.1,0.26c-0.17,1.77-0.55,6.5-0.26,11.75c0.33,5.8,9.45,11.52,10.63,12.24
			c1.01,0.24,7.31,1.61,12.02-0.33c4.65-1.92,14.22-17.53,13.18-36.4c-2.32,0.25-4.29-0.54-5.59-2.27
			c-2.65-3.53-4.03-2.62-5.63-1.56c-0.33,0.22-0.65,0.43-0.95,0.58c-1.76,0.92-9.02,0.82-11.97,0.73c-1.42,1.95-6.28,8.57-7.07,9.43
			c-0.76,0.83-1.81,1.06-2.58,1.06c-0.23,0-0.44-0.02-0.61-0.05c-0.46-0.09-0.81-0.47-0.86-0.93c-0.05-0.47,0.21-0.91,0.65-1.09
			c0.07-0.03,0.14-0.13,0.21-0.25c-0.03-0.05-0.07-0.1-0.09-0.16c-0.08-0.26-0.57-1.53-1.7-1.29l-0.22,0.05
			c-2.01,0.43-2.76,0.59-2.82,3.45c-0.01,0.6,0.16,1.06,0.54,1.45c1.01,1.02,3.19,1.23,3.96,1.22c0,0,0.01,0,0.01,0
			c0.54,0,0.99,0.4,1.05,0.93C181.72,109.4,181.38,109.9,180.85,110.02z M206.4,109.74l2.77-3.27c0.64-0.64,1.5-0.8,2.24-0.46
			c0.74,0.34,1.19,1.08,1.15,1.9l-0.26,4.37c-0.03,0.56-0.5,1-1.06,1c-0.02,0-0.04,0-0.06,0c-0.58-0.03-1.03-0.54-1-1.12l0.23-3.88
			l-2.39,2.84c-0.38,0.45-1.05,0.5-1.49,0.13C206.07,110.85,206.02,110.19,206.4,109.74z M200.44,118.29
			c0.19-0.55,0.8-0.85,1.35-0.65c0.24,0.08,2.26,0.69,3.35-0.89c-1.38-4.14-2.13-9.12-2.16-9.34c-0.09-0.58,0.31-1.12,0.89-1.2
			c0.58-0.09,1.12,0.31,1.2,0.89c0.01,0.05,0.81,5.39,2.22,9.41c0.09,0.27,0.08,0.57-0.05,0.82c-1.01,2.03-2.8,2.6-4.31,2.6
			c-0.72,0-1.37-0.13-1.84-0.29C200.54,119.45,200.25,118.85,200.44,118.29z M190.04,109.53l3.77-5.37c0.6-0.79,1.56-1.1,2.48-0.82
			c0.91,0.28,1.53,1.08,1.57,2.04l0.06,4.75c0.01,0.59-0.46,1.07-1.05,1.07c-0.55,0.01-1.07-0.46-1.07-1.05l-0.06-4.71c0,0,0,0,0,0
			c0,0,0-0.05-0.09-0.08c-0.08-0.03-0.12,0.02-0.14,0.04l-3.75,5.34c-0.21,0.29-0.53,0.45-0.87,0.45c-0.21,0-0.42-0.06-0.61-0.19
			C189.82,110.67,189.71,110,190.04,109.53z M187,119.65c0.36-0.17,0.79-0.12,1.1,0.12c4.22,3.29,12.36,1.85,12.44,1.84
			c0.58-0.11,1.13,0.28,1.23,0.85c0.11,0.58-0.27,1.13-0.85,1.23c-0.33,0.06-7.2,1.28-12.23-1.09c0.26,1.08,0.78,1.96,1.57,2.63
			c1.66,1.42,4.55,1.91,7.72,1.32c0.58-0.11,1.13,0.27,1.24,0.85c0.11,0.58-0.27,1.13-0.85,1.24c-1.03,0.19-2.03,0.29-2.99,0.29
			c-2.63,0-4.91-0.71-6.5-2.08c-1.71-1.46-2.57-3.62-2.49-6.27C186.4,120.18,186.64,119.82,187,119.65z"/>
	</g>
	<g>
		<path class="st5" d="M311.59,409.59c3.96-3.27,16.65-13.3,43.53-31.03c1.42-0.94,2.72-2.03,3.86-3.26
			c5.06-5.45,19.3-21.3,27.1-34.9c0,0,0,0,0-0.01c2.12-3.7,3.77-7.23,4.61-10.35c0.01-0.04,0.03-0.09,0.05-0.13
			c0.05-0.12,5.18-12.44,6.06-19.93c0.74-6.33,2.34-27.27,0.01-40.11c-2.54-13.99-11.09-45.13-15.39-49.64
			c-0.86-0.9-1.72-2.1-2.72-3.49c-3.89-5.42-9.42-13.11-21.9-13.11c-2.75,0-5.84,0.37-9.33,1.23c-0.05,0.01-0.1,0.02-0.14,0.02
			c-0.31,0.03-31.48,3.47-53.2,24.16c-22.63,21.55-27.23,32.54-28.97,49.02c-1.81,17.14,3.26,47.06,12.77,61.43
			c8.36,12.64,24.3,41.04,31.12,61.06c0.91-11.53,2.13-22.64,3.63-26.11c0.07-0.88,0.3-3.95,0.66-8.27
			c-4.44-3.97-39.89-36.58-34.38-60.39c0.13-0.57,0.7-0.93,1.27-0.79c0.57,0.13,0.93,0.7,0.79,1.27
			c-4.84,20.89,25.23,50.43,32.54,57.24c0.59-6.93,1.43-16.14,2.4-24.83c-3.76-4.37-27.69-33.53-19.03-58.21
			c0.19-0.55,0.8-0.84,1.35-0.65c0.55,0.19,0.84,0.8,0.65,1.35c-7.48,21.32,11.45,47.2,17.36,54.57c0.82-7.06,1.71-13.56,2.61-17.92
			c0-0.04,0.01-0.08,0.02-0.11c0.43-2.06,0.85-3.63,1.27-4.55c0.06-0.27,0.17-0.82,0.35-1.6c-1.14-4.13-12.18-46.39,5.52-62.24
			c0.44-0.39,1.11-0.35,1.5,0.08c0.39,0.44,0.35,1.11-0.08,1.5c-14.07,12.6-8.46,44.54-5.86,56.1c3.5-14.32,13.06-48.69,26.53-59.14
			c0.46-0.36,1.13-0.27,1.49,0.19c0.36,0.46,0.27,1.13-0.19,1.49c-16.19,12.56-27.1,63.67-27.2,64.19
			c-0.02,0.09-0.05,0.17-0.09,0.25c-0.15,0.3-0.3,0.72-0.46,1.22c8.21-6.62,35.17-29.59,41.76-50.72c0.17-0.56,0.77-0.87,1.33-0.7
			c0.56,0.17,0.87,0.77,0.7,1.33c-7.67,24.62-40.84,50.57-44.59,53.44c-0.91,4.54-1.85,11.63-2.74,19.52
			c0.17,0.35,0.12,0.76-0.12,1.08c-0.21,1.88-0.41,3.8-0.61,5.73c6.54-3.36,31.09-17.81,44.93-51.57c0.22-0.54,0.84-0.8,1.38-0.58
			c0.54,0.22,0.8,0.84,0.58,1.38c-15.12,36.9-42.88,51.24-47.14,53.26c-0.91,9.15-1.71,18.49-2.26,25.65
			c6.64-3.21,32.24-17.16,42.03-45.3c0.19-0.55,0.79-0.85,1.35-0.65c0.55,0.19,0.84,0.8,0.65,1.35
			c-10.86,31.23-40.6,45.42-44.41,47.12c-1.51,3.81-2.82,16.97-3.77,30.58C311.07,407.31,311.36,408.48,311.59,409.59z"/>
	</g>
	<g>
		<path class="st5" d="M406.38,339.56c-4.15-0.06-15.18,0.25-18.68,2.24c-8,13.78-22.11,29.49-27.16,34.94
			c-1.26,1.35-2.68,2.56-4.25,3.59c-33.16,21.87-44.6,31.95-44.71,32.05c-0.2,0.17-0.45,0.27-0.7,0.27c-0.12,0-0.24-0.02-0.36-0.06
			c-0.03-0.01-0.06-0.03-0.09-0.05l-0.12,0.14c-0.13,2.14-0.26,4.26-0.37,6.32c2.12-2.82,5.61-5.53,11.26-7.47
			c3.56-1.22,6.97-2.06,10.58-2.95c5.46-1.35,11.2-2.77,18.23-5.66c-0.05-0.18-0.09-0.37-0.11-0.6
			c-0.33-3.72,4.49-10.02,14.31-18.74c0.44-0.39,1.11-0.35,1.5,0.09c0.39,0.44,0.35,1.11-0.09,1.5
			c-12.11,10.75-13.55,15.26-13.61,16.71c0,0.08,0,0.13,0.01,0.2c4.26-1.86,8.99-4.26,14.39-7.5c0.1-0.09,0.21-0.16,0.34-0.2
			c2.66-1.6,5.49-3.4,8.51-5.44c4.2-5.7,10.5-15.88,9.75-19.32c-0.12-0.57,0.24-1.14,0.81-1.26c0.58-0.12,1.14,0.24,1.26,0.81
			c0.81,3.72-3.56,11.29-6.86,16.33c5.46-3.89,11.48-8.49,18.21-13.97c0.45-0.37,1.12-0.3,1.49,0.15c0.37,0.45,0.3,1.12-0.15,1.49
			c-11.41,9.32-20.86,16.12-28.9,21.18c7.34-0.12,24.09-1.28,35.71-9.03c0.49-0.32,1.14-0.19,1.47,0.29
			c0.32,0.49,0.19,1.15-0.29,1.47c-12.79,8.53-30.93,9.41-37.87,9.41c-1.16,0-2-0.02-2.46-0.04c-6.95,4.15-12.8,6.96-17.97,8.99
			c4.09,0.53,13.39,0.63,33.44-3.06c0.58-0.11,1.13,0.28,1.23,0.85c0.11,0.58-0.28,1.13-0.85,1.23c-14.16,2.6-23.14,3.35-28.79,3.35
			c-5.24,0-7.61-0.64-8.59-1.06c-5,1.75-9.39,2.84-13.61,3.88c-3.55,0.88-6.9,1.7-10.36,2.89c0.51,0.19,1.01,0.45,1.49,0.8
			c1.77,0.68,23.89,8.7,62.48,3.65c42.12-5.51,59.72-28.46,61.99-46.44C447.91,370.6,448.16,346.59,406.38,339.56z"/>
	</g>
	<g>
		<path class="st5" d="M21.25,189.9c-0.44,0.22-0.99,0.11-1.3-0.28c-0.53-0.65-10.33-12.83-14.57-21.82
			c0.1,6.56,1.02,17.79,5.18,31.54c5.99,19.78,20.08,48.85,53.19,76.53c-0.97-2.54-1.93-5.29-2.86-8.22
			c-9.34-9.11-16.18-20-21.12-31.72c-0.14-0.16-0.24-0.35-0.27-0.57c0-0.03-0.01-0.07-0.01-0.12c-1.15-2.77-2.19-5.59-3.13-8.43
			c-0.03-0.03-0.06-0.06-0.09-0.1c-8.14-12.26-22.55-32.11-26.57-33.2c-0.57-0.15-0.9-0.73-0.75-1.3c0.15-0.56,0.74-0.9,1.3-0.75
			c4.75,1.28,17.54,19.1,24.05,28.56c-3.21-11.66-4.96-23.69-5.73-35.28c-0.24-0.15-0.43-0.37-0.49-0.67l-8.25-38.35
			c-0.12-0.57,0.24-1.14,0.81-1.26c0.57-0.12,1.14,0.24,1.26,0.81l6.22,28.89c-0.06-3.14-0.06-6.22-0.01-9.24
			c-0.02-0.08-0.05-0.16-0.05-0.24c-0.01-0.54-0.55-53.92-2.1-61.23c-0.12-0.57,0.24-1.14,0.82-1.26c0.57-0.12,1.14,0.24,1.26,0.82
			c0.85,4.03,1.4,20.83,1.73,35.89c0.58-5.42,1.27-10.59,2.01-15.4c0-0.02,0.01-0.04,0.01-0.06c3.2-20.74,7.3-34.97,7.36-35.18
			c0.16-0.56,0.76-0.88,1.31-0.72c0.56,0.16,0.88,0.75,0.72,1.31c-0.05,0.18-3.16,10.96-6.06,27.38
			c3.29-6.53,8.54-15.91,13.23-19.73c0.45-0.37,1.12-0.3,1.49,0.15c0.37,0.45,0.3,1.12-0.15,1.49
			c-6.66,5.41-14.97,23.73-15.81,25.61c-1.13,7.32-2.14,15.45-2.82,24.07c1.46-3.75,3.37-8.02,5.26-10.39
			c0.36-0.46,1.03-0.53,1.49-0.17c0.46,0.36,0.53,1.03,0.17,1.49c-3.34,4.2-7,15.53-7.43,16.87c-0.02,0.46-0.05,0.91-0.07,1.37
			c-0.99,21.1,0.26,46.99,8.32,70.43c-1.15-15.87-2.38-51.2,7.74-67.53c0.31-0.5,0.96-0.65,1.46-0.34c0.5,0.31,0.65,0.96,0.34,1.46
			c-12.04,19.43-7.28,68.85-6.77,73.72c4.34,10.39,10.19,20.11,17.97,28.49c-0.01-0.03-0.02-0.06-0.03-0.09
			c-7.3-25.22-13.44-68.72-1.76-133.37c-3.71,3.52-11.07,11.87-13.98,24.97c-0.12,0.54-0.64,0.9-1.19,0.82
			c-0.55-0.08-0.94-0.58-0.9-1.13c0.03-0.38,3.42-38.45,38.48-109.31c-6.47,3.06-23.63,12.3-38.42,30
			C24.65,95.56,7.32,131.87,21.8,188.69C21.93,189.17,21.7,189.67,21.25,189.9z"/>
	</g>
	<g>
		<path class="st5" d="M100.78,86.05c7.94-15.33,28.72-32.83,31.09-34.8c0.26-0.81,0.45-1.58,0.55-2.31
			C126.08,52.93,103.26,68.43,100.78,86.05z"/>
	</g>
	<g>
		<path class="st5" d="M129.76,55.87c-6.81,6.04-21.31,19.71-27.29,31.52C109.22,81.03,123.72,66.7,129.76,55.87z"/>
	</g>
	<g>
		<path class="st5" d="M222.98,46.11c4.91-0.66,9.16-0.93,12.82-0.93c8.71,0,14.12,1.53,17.36,3.06c-0.27-0.53-0.56-1.11-0.85-1.72
			c-0.74-0.62-3.89-3.2-8.19-6.16c-1.26,0.6-4.36,1.84-8.49,1.84c-1.47,0-3.07-0.16-4.77-0.55c-0.57-0.13-0.92-0.7-0.79-1.27
			c0.13-0.57,0.71-0.92,1.27-0.79c4.65,1.09,8.55,0.13,10.65-0.64c-2.5-1.63-5.26-3.29-8.11-4.72c-1.66,1.15-6.96,4.29-15.5,4.29
			c-0.14,0-0.28,0-0.42,0c-0.59-0.01-1.05-0.49-1.05-1.07c0.01-0.59,0.52-1.05,1.07-1.05c6.73,0.08,11.39-1.98,13.62-3.25
			c-5.05-2.29-10.16-3.68-14.26-2.78c-0.58,0.12-1.14-0.24-1.26-0.81c-0.12-0.57,0.24-1.14,0.81-1.26
			c4.23-0.92,9.31,0.27,14.32,2.37c-1.78-2.74-5.08-6.83-9.93-9.05c-0.53-0.24-0.77-0.87-0.52-1.4c0.24-0.53,0.87-0.77,1.4-0.52
			c7.58,3.48,11.54,10.79,12.39,12.51c3.59,1.78,7.03,3.9,10,5.9c-1.33-3.72-5-10.42-14.72-14.42c-0.54-0.22-0.8-0.84-0.58-1.38
			c0.22-0.54,0.84-0.8,1.38-0.58c13.39,5.51,16.18,15.89,16.65,18.29c1.25,0.9,2.36,1.73,3.3,2.46c-0.87-2.39-1.64-5.12-2.1-8.08
			c-1.5-9.63-13.02-16.9-13.14-16.98c-15.52-9.7-31.79,2.32-31.96,2.44c-3.41,2.43-5.35,5.38-5.8,8.79
			c-0.86,6.55,3.97,12.91,4.58,13.68C210.34,48.84,222.86,46.14,222.98,46.11z"/>
	</g>
	<g>
		<path class="st5" d="M310.2,148.66c4.11-11.67,4.55-25.97,4.54-31.8C308.88,124.85,309.51,141.04,310.2,148.66z"/>
	</g>
	<g>
		<path class="st5" d="M316.87,116.42c0.05,5.28-0.24,18.53-3.8,30.32c6.09-8.69,8.73-16.48,7.64-22.76
			C320.06,120.23,318.24,117.79,316.87,116.42z"/>
	</g>
	<g>
		<path class="st3" d="M282.43,423.11l2.53-0.78c7.7-2.37,16.95-10.51,17.04-10.6c0.03-0.03,0.07-0.06,0.11-0.08
			c1.2-0.82,2.71-4.62,2.77-7.88c0.02-1.27-0.18-2.27-0.56-2.94c-1.56,1.31-5.37,4.38-10.95,8.15
			c-6.66,4.49-32.45,13.47-38.22,15.45c0.94,2.29,1.47,4.72,1.71,6.11C261.54,429.58,274.46,425.58,282.43,423.11z"/>
	</g>
	<g>
		<path class="st3" d="M252.85,401.83l-0.96,17.87c0.92,0.68,1.68,1.68,2.31,2.81c5.12-1.76,31.5-10.93,37.96-15.28
			c4.86-3.28,8.4-6.07,10.2-7.54c-5.45-1.44-23.95-3.12-36.23-3.98C264.63,396.36,256.22,400.06,252.85,401.83z"/>
	</g>
	<g>
		<path class="st3" d="M30.8,298.04c-0.3-2.03-1.09-11.7,10.07-14.68c-1.76-5.17-5.62-13.96-10.09-15.15
			c-2.29,1.71-14.53,11.32-17.5,22.47c-3.3,12.38,1.33,35.05,1.38,35.28c0.12,0.57-0.25,1.13-0.82,1.25
			c-0.07,0.02-0.14,0.02-0.22,0.02c-0.49,0-0.93-0.34-1.04-0.84c-0.2-0.95-4.78-23.39-1.35-36.25c2.9-10.86,13.56-19.96,17.36-22.92
			c-2.27-1.19-5.26-2.45-6.56-2.19c-1.98,0.44-18.71,14.31-19.16,33.53c0,0.06-0.01,0.12-0.02,0.19
			c-0.03,0.16-3.22,16.54,4.39,28.28c1.74,2.69,3.47,3.96,5.14,3.77c3.49-0.39,6.58-6.86,7.48-9.32L30.8,298.04z"/>
	</g>
	<g>
		<path class="st6" d="M145.06,363.89c-2.5-3.56-6.42-8.92-9.93-12.63c-0.09-0.09-0.16-0.2-0.21-0.32c-0.02-0.06-2.5-5.88-7.27-9.06
			c-2.97-1.98-7.86-7.64-11.6-12.25c-8.83,9.03-26.55,4.34-27.33,4.13c-26.29-9.97-32.75-26.69-33.01-27.39
			c-7.13-16.12-13.26-20.15-14.61-20.87c-9.52,2.72-8.45,10.96-8.21,12.3c0.74,1.18,5.2,8.4,10.17,18.44
			c5.34,10.8,17.93,27.37,18.06,27.53c11.5,14.16,36.3,35.01,57.37,34.33C136.43,377.5,143.61,366.49,145.06,363.89z"/>
	</g>
	<path class="st7" d="M114.7,327.95c-1.42-1.79-2.58-3.28-3.24-4.15c-1.26,0.9-3.07,2.55-3.13,4.25c-0.04,1.03,0.6,2.05,1.89,3.04
		C111.89,330.34,113.42,329.32,114.7,327.95z"/>
	<g>
		<path class="st3" d="M182.6,313.95l-25.16-17.5c-10.84-6.98-18.88-14.14-24.85-21.04c-1.7,7.46-8.19,33.17-19.52,46.99
			c2.24,2.94,11.45,14.84,15.76,17.72c4.87,3.25,7.49,8.74,7.97,9.83c4.86,5.19,10.3,13.11,12.03,15.69
			C172.76,351.39,181.39,318.97,182.6,313.95z"/>
	</g>
	<g>
		<path class="st6" d="M264.18,394.25l-8.16-35.99c-1.79-9.15-15.6-46.5-15.74-46.87c-0.03-0.08-0.05-0.15-0.06-0.23
			c-1.15-9.02-12.25-24.04-15-27.65c-11.47,8.22-16.58,14.99-21.11,21c-4.02,5.34-4.46,10.96-4.48,12.79
			c4.43,2.38,13.93,15.66,24.92,31.42c3.2,4.59,5.96,8.55,7.39,10.35c4.85,6.11,17.76,34.73,20.4,40.64
			C255.47,398.11,261.48,395.44,264.18,394.25z M234.28,312.59c-0.04,0-0.07,0.01-0.1,0.01c-0.54,0-1-0.41-1.05-0.96
			c-0.8-8.15-5.09-12.41-5.13-12.46c-0.42-0.41-0.43-1.08-0.02-1.5c0.41-0.42,1.08-0.43,1.5-0.03c0.2,0.19,4.89,4.8,5.77,13.77
			C235.28,312.01,234.86,312.53,234.28,312.59z"/>
	</g>
	<g>
		<path class="st6" d="M256.93,150.04c-2.15,3.39-4.69,5.37-7.57,5.87c-0.03,0.01-0.06,0.01-0.1,0.01
			c-0.75,0.13-1.47,0.14-2.13,0.07c-1.31-0.12-2.42-0.52-3.21-0.91c-1.31,6.42-1.62,17.46-1.45,27.02l3.38,0.84l2.07,0.51l8.02,1.98
			c0.04,0.01,0.1,0.02,0.14,0.04c0.32,0.13,8.08,2.97,14-8.26c6.31-11.95,9.28-32.6,9.32-32.8c0.01-0.21,2.3-26.05,4.89-40.15
			c2.55-13.89,1.81-23.34,1.8-23.43c-1.77-13.33-12.48-12.68-12.94-12.65h-0.17c-1.65-0.13-2.97,0.25-4.03,1.17
			c-1.69,1.47-2.21,3.93-2.37,5.01c7.94,6.18,5.84,16.61,5.74,17.06c-0.12,0.51-0.58,0.87-1.11,0.84c-0.52-0.04-0.94-0.46-0.99-0.98
			c-0.34-4.43-1.54-6.07-2.47-6.68c-0.6-0.38-1.2-0.39-1.56-0.34c-0.35,0.79-0.92,2.68,0.48,4.15c2.53,2.65,5.14,10.85,5.25,11.2
			c0.01,0.03,0.02,0.07,0.03,0.12c2.02,10.67-4.38,24.4-5.04,25.77C266.52,126.96,262.66,140.97,256.93,150.04z"/>
	</g>
	<path class="st7" d="M88.47,200.56l0.08,0.1c-0.01-0.03-0.01-0.06-0.02-0.09C88.51,200.57,88.49,200.57,88.47,200.56z"/>
	<g>
		<path class="st6" d="M90.5,199.65c0.4,1.98,1.37,4.34,2.09,4.53c0.14,0.04,0.44-0.15,0.74-0.49c0.4-0.45,0.57-0.94,0.52-1.55
			c-0.16-2.2-2.98-5-4.05-5.89c-0.26-0.22-0.4-0.55-0.38-0.89c0.08-1.24,2.27-30.34,22.71-38.05c0.21-0.07,2.77-0.93,6.21-1.24
			c0.16-0.06,0.34-0.09,0.53-0.06c0.01,0,0.02,0.01,0.03,0.01c2.71-0.19,5.89,0.01,8.9,1.18c2.18-3.22,4.28-7.32,5.83-12.59
			c1.08-3.69,1.65-7.32,1.92-10.61l0,0c-2.65-1.18-12.46-5.38-17.19-4.97c-0.08,0.01-0.16,0.01-0.23-0.01
			c-0.06-0.01-5.65-0.72-12.93,1.46c-7.71,2.3-18.74,15.66-24.71,39.55c-1.75,8.33-5.08,24.94-5.08,27.9c0,0.36-0.18,0.69-0.48,0.88
			c-0.25,0.17-6.26,4.4-2.31,15.22c0.02,0.04,0.03,0.09,0.04,0.14c0.05,0.19,1.17,4.58,8.44,7.26c-0.02-5.08,0.31-19.96,4.91-22.67
			c0.83-0.49,2.19-0.85,3.97,0.19C90.26,199.1,90.44,199.36,90.5,199.65z M97.58,137.85c0.54-2.19,3.1-6,8.98-4.7
			c0.57,0.13,0.93,0.69,0.81,1.26c-0.13,0.57-0.7,0.93-1.26,0.81c-5.34-1.18-6.42,2.96-6.46,3.13c-0.12,0.48-0.55,0.81-1.03,0.81
			c-0.08,0-0.17-0.01-0.25-0.03C97.78,138.99,97.44,138.42,97.58,137.85z"/>
	</g>
	<path class="st7" d="M231.26,280.2c-0.07-0.05-0.16-0.12-0.28-0.21c-0.67-0.14-2.51,0.88-4.01,2.26c-0.01,0.01-0.02,0.02-0.03,0.02
		c0.74,0.97,2.01,2.66,3.53,4.82C231.86,282.2,231.51,280.65,231.26,280.2z"/>
	<g>
		<path class="st3" d="M197.43,322.29c0.23-0.91,0.38-2.49,0.11-4.11c0,0,0-0.01,0-0.01c0-0.01,0-0.01,0-0.02
			c-0.04-0.54-0.44-7.86,4.88-14.92c4.72-6.26,10.07-13.34,22.34-22c0.01,0,0.01-0.01,0.01-0.02c0.01-0.01,0.02-0.01,0.03-0.02
			c0.27-0.19,0.51-0.37,0.79-0.56c0.62-0.56,1.98-1.72,3.45-2.35c-1.44-1.38-3.34-3.48-5.23-6.38c-0.02-0.04-0.05-0.08-0.08-0.11
			c-7,0.01-19.76,13.73-24.18,19.14c-7.33,10.71-9.26,22.35-9.63,25.16C192.96,318.13,196.35,320.61,197.43,322.29z"/>
	</g>
	<g>
		<path class="st3" d="M158.61,294.69l26.15,18.19c0.54,0.32,1.73,1.03,3.19,1.96c0.63-4.11,2.86-14.87,9.9-25.15
			c0.69-0.85,14.88-18.09,24.43-19.85c-4.87-6.22-15.98-17.74-17.1-18.89c-11.81-6.04-41.24-12.2-61.96-13.97
			c-10.13-0.87-18.92-2.37-25.28-3.72C117.43,239.11,117.29,268.07,158.61,294.69z"/>
	</g>
	<g>
		<path class="st2" d="M143.4,234.86c18.58,1.59,49.89,7.61,62.85,14.26c0,0,0,0,0,0c0,0,0,0,0,0c0.91,0.47,1.72,0.93,2.43,1.4
			c0.1,0.06,1.84,1.41,5.02,1.66l1.01-64.84c0.01-0.51,0.38-0.94,0.88-1.03c0.35-0.05,6.4-1.03,13.23-0.19
			c1.38-23.43,5.36-32.83,7.68-36.37c-3.57,0.09-7.18,0.22-9.24,0.31c-0.37,0.04-4.77,0.46-10.02,0.46c-1.32,0-2.69-0.03-4.07-0.1
			c-0.04,0.02-0.07,0.05-0.12,0.06c-6.3,1.69-11.9,2.54-16.77,2.54c-6.01,0-10.91-1.28-14.67-3.84c-4.7-3.2-6.12-7.45-6.52-9.21
			c-0.09-0.02-0.19-0.03-0.27-0.05c-0.08-0.02-0.16-0.04-0.24-0.08c-0.44-0.2-10.8-4.88-14.17-7.06c-1.14-0.73-2.64-1.94-4.37-3.34
			c-3.48-2.8-7.81-6.29-11.33-7.63c-0.35-0.17-0.76-0.35-1.19-0.54c1.21,6.8,3.94,29.96-9.88,50.76c3.76,0.65,7.67,1.15,10.78,1.45
			c0.58,0.06,1.01,0.57,0.95,1.16c-0.05,0.55-0.51,0.96-1.05,0.96c-0.03,0-0.07,0-0.1-0.01c-1.25-0.12-4.21-0.43-7.69-0.94
			c-1.99,2.98-11.28,17.21-14.15,27.41c-0.02,0.07-0.05,0.14-0.08,0.21c-0.11,0.19-9.84,18.46-13.45,26.62
			C112.73,229.99,126.07,233.38,143.4,234.86z"/>
	</g>
	<g>
		<path class="st2" d="M141.2,120.37c-1.2-0.42-2.34-0.71-3-0.66c-0.23,0.02-0.58,0.16-0.99,0.39c0.48,2.87,1.85,13.53-1.54,25.11
			c-3.96,13.53-11.41,19.77-14.98,22.77c-0.02,0.02-0.04,0.03-0.06,0.04c1.11,1.36,5.59,2.62,10.75,3.62
			C146.57,149.5,142.03,124.29,141.2,120.37z"/>
	</g>
	<g>
		<path class="st12" d="M119.27,166.39c0.02-0.01,0.03-0.03,0.05-0.04c1.75-1.47,4.47-3.76,7.22-7.37c-2.32-0.8-4.76-0.96-6.94-0.86
			C119.05,161.77,118.91,165.28,119.27,166.39z"/>
	</g>
	<g>
		<path class="st12" d="M135.69,131.74c0.19-4.52-0.15-8.21-0.42-10.24c-1.97,1.7-4.33,4.49-5.58,7.85
			C132.15,130.23,134.33,131.15,135.69,131.74z"/>
	</g>
	<g>
		<path class="st12" d="M242.53,184.31c0.02,1.04,0.05,2.05,0.1,3.02c0.95-0.56,1.74-1.37,2.35-2.42L242.53,184.31z"/>
	</g>
	<g>
		<path class="st12" d="M245.84,150.1c-0.54,0.53-1.02,1.52-1.41,2.86c0.58,0.33,1.58,0.77,2.8,0.91l0.19-4.05h-0.93
			C246.34,149.82,246.14,149.81,245.84,150.1z"/>
	</g>
	<g>
		<path class="st2" d="M238.84,188.31c0.51,0,1.09-0.04,1.7-0.17c-0.2-5.04-0.81-24.87,1.63-34.69v-0.01c0-0.16,0.04-0.32,0.12-0.47
			c0-0.01,0-0.01,0.01-0.02c0.35-1.32,0.77-2.44,1.26-3.28c-1.24-0.01-2.74,0-4.34,0.03c-1.11,1.14-6.62,8.18-8.28,36.75
			c1.98,0.35,3.98,0.88,5.9,1.64C236.87,188.1,237.65,188.31,238.84,188.31z"/>
	</g>
	<g>
		<path class="st3" d="M178.85,96.83c2.53,2.27,4.26,4.67,4.33,4.77c0.09,0.13,0.15,0.27,0.18,0.42c1.46-1.9,4.41-5.91,6.45-8.69
			c0.21-0.28,0.54-0.45,0.89-0.43c4.78,0.16,10.53,0.02,11.48-0.48c0.24-0.13,0.5-0.3,0.76-0.47c1.74-1.15,4.65-3.08,8.5,2.05
			c0.91,1.21,2.25,1.68,3.99,1.4c3.84-0.62,8.25-4.64,9.7-8.81c0.06-0.99-0.07-3.38-1.29-4.4c-0.69-0.58-1.73-0.69-3.09-0.32
			c-0.15,0.04-0.3,0.05-0.44,0.02c-0.16-0.03-3.87-0.67-4.7-4.39c-0.16-0.7-1.02-1.38-2.3-1.81c-2.12-0.71-5.34-0.66-7.14,0.86
			c-0.06,0.05-0.12,0.09-0.19,0.13c-0.46,0.24-4.53,2.38-6.33,2.74c-0.49,0.1-0.98-0.16-1.18-0.61c-0.02-0.05-2.33-5.21-6.23-5.07
			c-4,0.15-9.3,3.08-12.35,10.85c0.5,1.29,1.73,5.19-0.31,7.74l-0.09,0.12C177.39,95.03,177.22,95.37,178.85,96.83z"/>
	</g>
	<path class="st11" d="M229.46,297.66c-0.42-0.41-1.09-0.39-1.5,0.03c-0.41,0.42-0.4,1.09,0.02,1.5c0.04,0.04,4.33,4.31,5.13,12.46
		c0.05,0.55,0.51,0.96,1.05,0.96c0.03,0,0.07,0,0.1-0.01c0.58-0.06,1.01-0.58,0.95-1.16C234.35,302.46,229.66,297.85,229.46,297.66z
		"/>
	<path class="st11" d="M98.35,139.13c0.08,0.02,0.17,0.03,0.25,0.03c0.48,0,0.91-0.32,1.03-0.81c0.04-0.18,1.12-4.32,6.46-3.13
		c0.57,0.13,1.14-0.23,1.26-0.81c0.13-0.57-0.23-1.14-0.81-1.26c-5.88-1.3-8.44,2.51-8.98,4.7
		C97.44,138.42,97.78,138.99,98.35,139.13z"/>
	<path class="st11" d="M65.39,279.95c6.66,15.96,13.18,23.13,13.53,23.51c0.21,0.23,0.49,0.34,0.78,0.34c0.26,0,0.52-0.09,0.72-0.28
		c0.43-0.4,0.46-1.07,0.06-1.5c-0.11-0.12-11.06-12.2-18.97-39.65c-7.31-25.36-13.43-69.41-1.12-135.17
		c0.08-0.43-0.11-0.86-0.48-1.09c-0.37-0.23-0.84-0.22-1.19,0.04c-0.4,0.29-7.58,5.62-12.83,16.24
		c3.59-16.67,13.07-50.15,37.48-98.96c0.2-0.39,0.13-0.86-0.17-1.19c-0.29-0.32-0.76-0.43-1.17-0.27
		c-0.23,0.09-22.95,9.13-41.86,31.71C23.22,93.93,6.02,129.42,18.59,184.42c-5.25-6.96-13-18.26-13-23.04c0-0.56-0.44-1.03-1-1.06
		c-0.57-0.03-1.05,0.38-1.11,0.94c-0.08,0.65-1.76,16.09,5.03,38.59C14.75,220.51,29.69,251.17,65.39,279.95z M21.8,188.69
		C7.32,131.87,24.65,95.56,41.75,75.11c14.79-17.7,31.95-26.93,38.42-30C45.1,115.97,41.71,154.04,41.68,154.42
		c-0.04,0.55,0.35,1.05,0.9,1.13c0.55,0.08,1.07-0.27,1.19-0.82c2.91-13.1,10.27-21.45,13.98-24.97
		c-11.68,64.65-5.53,108.15,1.76,133.37c0.01,0.03,0.02,0.06,0.03,0.09c-7.78-8.37-13.63-18.1-17.97-28.49
		c-0.5-4.86-5.26-54.29,6.77-73.72c0.31-0.5,0.15-1.15-0.34-1.46c-0.5-0.31-1.15-0.15-1.46,0.34c-10.12,16.33-8.89,51.66-7.74,67.53
		c-8.05-23.43-9.31-49.33-8.32-70.43c0.02-0.46,0.05-0.92,0.07-1.37c0.43-1.35,4.08-12.67,7.43-16.87c0.36-0.46,0.29-1.12-0.17-1.49
		c-0.46-0.36-1.12-0.29-1.49,0.17c-1.88,2.37-3.79,6.64-5.26,10.39c0.68-8.62,1.69-16.75,2.82-24.07
		c0.84-1.88,9.15-20.2,15.81-25.61c0.45-0.37,0.52-1.04,0.15-1.49c-0.37-0.45-1.04-0.52-1.49-0.15c-4.7,3.82-9.94,13.19-13.23,19.73
		c2.9-16.42,6.01-27.2,6.06-27.38c0.16-0.56-0.16-1.15-0.72-1.31c-0.56-0.16-1.15,0.16-1.31,0.72C39.1,88.47,35,102.7,31.8,123.44
		c0,0.02-0.01,0.04-0.01,0.06c-0.74,4.82-1.43,9.98-2.01,15.4c-0.33-15.06-0.88-31.86-1.73-35.89c-0.12-0.57-0.69-0.94-1.26-0.82
		c-0.57,0.12-0.94,0.68-0.82,1.26c1.55,7.31,2.09,60.69,2.1,61.23c0,0.09,0.03,0.16,0.05,0.24c-0.05,3.02-0.05,6.1,0.01,9.24
		l-6.22-28.89c-0.12-0.57-0.69-0.94-1.26-0.81c-0.57,0.12-0.94,0.69-0.81,1.26l8.25,38.35c0.06,0.29,0.25,0.52,0.49,0.67
		c0.77,11.59,2.52,23.62,5.73,35.28c-6.52-9.46-19.31-27.28-24.05-28.56c-0.56-0.15-1.15,0.18-1.3,0.75
		c-0.15,0.57,0.18,1.15,0.75,1.3c4.02,1.08,18.43,20.94,26.57,33.2c0.03,0.04,0.06,0.07,0.09,0.1c0.94,2.85,1.99,5.66,3.13,8.43
		c0.01,0.05,0.01,0.09,0.01,0.12c0.02,0.22,0.13,0.41,0.27,0.57c4.94,11.72,11.78,22.61,21.12,31.72c0.94,2.93,1.89,5.68,2.86,8.22
		c-33.11-27.68-47.2-56.75-53.19-76.53c-4.17-13.75-5.09-24.98-5.18-31.54c4.23,8.99,14.04,21.17,14.57,21.82
		c0.31,0.39,0.85,0.5,1.3,0.28C21.7,189.67,21.93,189.17,21.8,188.69z"/>
	<path class="st11" d="M200.77,43.88c8.95,7.28,22.12,4.42,22.58,4.32c26-3.47,32.3,4.24,32.39,4.35c0.21,0.28,0.53,0.43,0.85,0.43
		c0.22,0,0.43-0.07,0.62-0.2c0.47-0.34,0.58-1.01,0.23-1.48c-0.05-0.07-5.32-7.4-6.85-17.25c-1.65-10.58-13.6-18.13-14.11-18.45
		c-16.77-10.48-34.18,2.42-34.33,2.53c-3.89,2.77-6.12,6.21-6.65,10.24c-1.03,7.87,4.86,15.07,5.11,15.37
		C200.67,43.79,200.72,43.84,200.77,43.88z M197.62,28.63c0.45-3.42,2.39-6.37,5.8-8.79c0.16-0.12,16.43-12.15,31.96-2.44
		c0.12,0.07,11.64,7.35,13.14,16.98c0.46,2.96,1.23,5.68,2.1,8.08c-0.94-0.72-2.05-1.56-3.3-2.46c-0.48-2.4-3.27-12.78-16.65-18.29
		c-0.54-0.22-1.16,0.04-1.38,0.58c-0.22,0.54,0.04,1.16,0.58,1.38c9.72,4,13.39,10.71,14.72,14.42c-2.97-2-6.41-4.12-10-5.9
		c-0.85-1.72-4.81-9.04-12.39-12.51c-0.53-0.24-1.16-0.01-1.4,0.52c-0.24,0.53-0.01,1.16,0.52,1.4c4.86,2.23,8.15,6.31,9.93,9.05
		c-5.01-2.1-10.08-3.29-14.32-2.37c-0.57,0.12-0.93,0.69-0.81,1.26c0.12,0.57,0.68,0.93,1.26,0.81c4.1-0.89,9.21,0.5,14.26,2.78
		c-2.23,1.27-6.89,3.33-13.62,3.25c-0.55,0-1.06,0.46-1.07,1.05c-0.01,0.59,0.46,1.07,1.05,1.07c0.14,0,0.28,0,0.42,0
		c8.54,0,13.84-3.14,15.5-4.29c2.84,1.44,5.61,3.09,8.11,4.72c-2.11,0.77-6.01,1.73-10.65,0.64c-0.57-0.13-1.14,0.22-1.27,0.79
		c-0.13,0.57,0.22,1.14,0.79,1.27c1.7,0.4,3.3,0.55,4.77,0.55c4.13,0,7.23-1.24,8.49-1.84c4.3,2.95,7.45,5.54,8.19,6.16
		c0.29,0.61,0.57,1.19,0.85,1.72c-3.24-1.53-8.65-3.06-17.36-3.06c-3.66,0-7.91,0.27-12.82,0.93c-0.13,0.03-12.64,2.73-20.79-3.81
		C201.59,41.54,196.76,35.18,197.62,28.63z"/>
	<path class="st11" d="M308.62,153.27c0.01,0.03,0.02,0.07,0.03,0.1c0.05,0.11,0.11,0.22,0.19,0.31c0.01,0.01,0.03,0.02,0.04,0.03
		c0.08,0.08,0.17,0.14,0.27,0.19c0.02,0.01,0.03,0.02,0.04,0.03c0.02,0.01,0.04,0,0.05,0.01c0.03,0.01,0.06,0.03,0.1,0.04
		c0.09,0.03,0.19,0.04,0.28,0.04c0,0,0,0,0,0c0.14,0,0.27-0.04,0.4-0.09c0.03-0.01,0.06-0.02,0.08-0.04
		c0.12-0.06,0.23-0.14,0.32-0.25c0,0,0.01,0,0.01-0.01c9.64-11.58,13.8-21.68,12.36-30.02c-0.99-5.76-4.4-8.86-5.85-9.95
		c0.84-3.42,2.63-8.51,4.43-9.52c0.51-0.28,0.7-0.93,0.41-1.44c-0.28-0.51-0.93-0.7-1.44-0.41c-3.16,1.76-5.13,9.47-5.56,11.29
		c-10.53,10.03-6.4,38.31-6.21,39.52C308.58,153.18,308.6,153.22,308.62,153.27z M313.06,146.74c3.57-11.79,3.85-25.04,3.8-30.32
		c1.37,1.37,3.19,3.81,3.84,7.56C321.79,130.27,319.16,138.05,313.06,146.74z M310.2,148.66c-0.69-7.62-1.32-23.81,4.54-31.8
		C314.75,122.7,314.31,136.99,310.2,148.66z"/>
	<path class="st11" d="M98.57,91.59c0,0,0,0.01,0,0.01c0.01,0.12,0.05,0.23,0.1,0.34c0.01,0.03,0.03,0.05,0.05,0.08
		c0.05,0.08,0.11,0.16,0.18,0.23c0.02,0.02,0.04,0.04,0.06,0.06c0.09,0.07,0.18,0.13,0.28,0.17c0.01,0,0.02,0,0.03,0.01
		c0.01,0,0.02,0.01,0.03,0.01c0.11,0.03,0.21,0.05,0.32,0.05c0.12,0,0.24-0.02,0.35-0.06c0.03-0.01,0.06-0.03,0.1-0.05
		c0.08-0.04,0.15-0.08,0.22-0.13c0.01-0.01,0.03-0.01,0.04-0.03c1.28-1.14,27.79-24.97,33.27-39.79c0.1-0.15,0.16-0.31,0.18-0.48
		c0.56-1.62,0.86-3.14,0.83-4.48l7.06-5.55c0.46-0.36,0.54-1.03,0.18-1.49c-0.36-0.46-1.03-0.54-1.49-0.18l-7.43,5.85
		c-2.28,1.32-36.9,21.8-34.35,45.43C98.57,91.58,98.57,91.59,98.57,91.59z M131.87,51.25c-2.37,1.97-23.14,19.47-31.09,34.8
		c2.47-17.62,25.3-33.11,31.64-37.1C132.32,49.67,132.14,50.44,131.87,51.25z M129.76,55.87c-6.04,10.83-20.54,25.16-27.29,31.52
		C108.45,75.58,122.96,61.91,129.76,55.87z"/>
	<path class="st11" d="M406.65,337.45c-0.05-0.01-0.11-0.01-0.16-0.01c-0.53-0.01-11.14-0.14-17.22,1.51
		c1.54-2.93,2.75-5.74,3.45-8.28c0.45-1.08,5.29-12.86,6.18-20.43c0.81-6.87,2.38-27.58-0.01-40.73
		c-2.27-12.48-10.86-45.4-15.95-50.73c-0.76-0.79-1.58-1.94-2.53-3.26c-4.77-6.64-12.76-17.76-33.39-12.72
		c-1.77,0.2-32.64,4.04-54.36,24.73c-22.97,21.88-27.85,33.66-29.62,50.33c-1.85,17.5,3.36,48.09,13.11,62.83
		c9.6,14.51,27.19,46.65,32.46,65.67c-0.44,6.37-0.79,12.5-1.03,17.15c-1.21,3.7-0.71,6.95-0.45,8.12
		c-9.07-0.23-18.05-0.52-26.42-0.9c-4.36-0.2-10.22-0.06-17.14,0.28c5.97-1.68,13.91-4.14,19.47-5.86l2.53-0.78
		c7.93-2.45,16.96-10.28,17.77-10.99c2.07-1.48,3.58-6.2,3.63-9.56c0.04-2.5-0.64-4.33-1.96-5.3c-0.04-0.03-0.1-0.06-0.15-0.09
		c-0.01,0-0.01-0.01-0.02-0.01c-3.81-2.26-31.25-4.3-38.65-4.82l-8.11-35.76c-1.78-9.13-14.79-44.37-15.79-47.06
		c-0.86-6.38-6.04-15.14-10.29-21.43c2.04-6.48,2.12-9.91,0.25-11.1c-0.07-0.04-0.14-0.07-0.21-0.11c-1.15-0.93-3.82-3.32-6.47-7.37
		c-2.45-3.75-9.9-11.83-14.7-16.92c1.06,0.29,2.36,0.51,3.88,0.51c0.58,0,1.06-0.46,1.06-1.04l1.02-65
		c2.81-0.35,11.9-1.14,19.32,1.79c0.13,0.04,2.82,0.82,5.73-0.12c0.06-0.01,0.13-0.03,0.19-0.06c0.47-0.15,0.93-0.35,1.39-0.6
		c1.55-0.85,2.77-2.15,3.63-3.87l8.3,2.04c0.33,0.12,1.54,0.48,3.24,0.48c3.47,0,8.98-1.52,13.32-9.74
		c6.49-12.28,9.41-32.64,9.54-33.56c0.02-0.25,2.3-26,4.87-40.01c2.61-14.19,1.87-23.59,1.82-24.04
		c-1.95-14.65-13.89-14.59-15.11-14.55c-2.2-0.16-4.06,0.41-5.53,1.7c-2.87,2.51-3.15,6.85-3.16,7.03
		c-0.01,0.37,0.15,0.71,0.45,0.92c3.15,2.26,4.6,5.35,5.22,8.16c-0.37-0.43-0.77-0.79-1.23-1.08c-1.48-0.92-3.07-0.69-3.77-0.4
		c-0.22,0.08-0.4,0.24-0.52,0.45c-0.81,1.38-1.72,4.62,0.6,7.06c1.8,1.89,4.01,8.02,4.73,10.31c1.92,10.31-4.84,24.34-4.92,24.49
		c-0.03,0.05-0.05,0.12-0.07,0.19c-0.03,0.15-4,14.94-9.74,24.02c-1.72,2.71-3.67,4.35-5.78,4.84l0.2-4.28
		c0.02-0.46-0.15-0.91-0.47-1.24c-0.32-0.33-0.76-0.52-1.22-0.52h-1.05c-3.02-0.45-18.96,0.21-19.71,0.25
		c-5.82,0.58-21.8,1.26-25.87-2.49c-1.14-1.05-1.7-2.2-1.7-3.51c0-2.78,2.49-5.4,3.03-5.93c0.12-0.05,0.25-0.08,0.37-0.13
		c5.74-2.37,15.68-19.23,14.47-38.83c4.14-1.43,8.29-5.56,9.75-9.93c0.03-0.08,0.04-0.16,0.05-0.24c0.02-0.18,0.35-4.32-2.03-6.33
		c-1.2-1.01-2.8-1.28-4.75-0.82c-0.58-0.15-2.35-0.77-2.78-2.72c-0.33-1.48-1.64-2.67-3.69-3.36c-2.62-0.88-6.56-0.88-9.09,1.17
		c-1.04,0.55-3.42,1.74-4.9,2.26c-0.97-1.77-3.61-5.66-7.83-5.5c-4.74,0.17-11.02,3.58-14.41,12.61c-0.1,0.26-0.09,0.55,0.03,0.81
		c0.02,0.04,1.73,3.98,0.14,5.97l-0.09,0.12c-1.99,2.48-3.56,4.45-0.38,7.29c0.47,0.42,0.91,0.85,1.32,1.27
		c-0.02,0.01-0.05,0.01-0.07,0.01l-0.21,0.05c-2.16,0.46-4.39,0.94-4.5,5.48c-0.03,1.17,0.38,2.2,1.16,2.99
		c0.71,0.72,1.65,1.16,2.55,1.43c-0.15,1.38-0.64,6.55-0.31,12.51c0.22,3.97,3.57,7.7,6.64,10.31c-1.9,2.54-4.03,5.21-4.55,5.56
		c-0.42,0.24-2.36,0.17-4.13-0.14c-1.17-0.53-10.72-4.88-13.78-6.85c-1.04-0.67-2.5-1.85-4.19-3.21c-3.6-2.9-8.07-6.51-11.82-7.92
		c-0.52-0.25-5.18-2.48-7.53-2.29c-2.69,0.21-8.17,5.17-10.35,11.07c-3.34-1.08-6.88-1.94-9.39-1.75c-0.9-0.1-6.47-0.62-13.69,1.54
		c-8.55,2.55-19.95,16.24-26.17,41.11c-0.2,0.96-4.76,22.68-5.11,27.84c-1.6,1.33-6.61,6.55-2.7,17.31
		c0.2,0.78,1.97,6.39,11.27,9.22c0.1,0.03,0.21,0.05,0.31,0.05c0.23,0,0.45-0.07,0.64-0.22c0.27-0.21,0.43-0.53,0.42-0.87
		c-0.19-7.64,0.69-20.44,3.85-22.3c0.27-0.16,0.69-0.3,1.37-0.02c0.02,0.01,0.04,0.01,0.06,0.02c0.01,0.03,0.01,0.06,0.02,0.09
		c0.4,1.67,1.43,5.01,3.47,5.57c0.69,0.19,1.74,0.15,2.88-1.12c0.79-0.88,1.15-1.93,1.06-3.13c-0.22-2.97-3.21-5.94-4.38-7
		c0.39-3.92,3.56-29.01,21.27-35.68c0.04-0.01,1.92-0.64,4.57-0.99c-0.64,4.34-0.9,9.12,0.84,10.12c0.07,0.04,0.16,0.07,0.25,0.11
		c0.08,0.23,0.19,0.46,0.38,0.7c1.79,2.37,8.97,4.04,15.34,5.08c0,0,0,0,0,0c-2.82,4.29-11.03,17.22-13.84,27.08
		c-0.92,1.73-10.88,20.43-13.96,27.81c-0.12,0.28-0.12,0.59,0.02,0.86c0.13,0.28,0.36,0.48,0.65,0.56c0.06,0.03,3.29,0.99,8.75,2.19
		c0,0,0,0,0,0c-0.4,4.24-0.77,21.15,15.02,40.55c-0.85,3.9-7.66,33.79-19.85,48.19c-0.87,0.53-4.68,3.05-4.81,6.41
		c-0.06,1.42,0.54,2.75,1.75,3.97c-8.32,2.52-18.53-0.17-18.6-0.19c-25.22-9.57-31.62-25.95-31.7-26.18
		c-6.05-13.7-11.48-19.08-14.23-21.09c-0.76-2.52-5.44-17.02-12.54-18.41c-1.39-0.81-6.59-3.66-9.29-3.12
		c-3.04,0.6-20.35,15.71-20.86,35.47c-0.29,1.52-3.16,17.62,4.71,29.76c2.05,3.16,4.26,4.76,6.58,4.76c0.19,0,0.39-0.01,0.58-0.03
		c5.41-0.61,8.86-9.67,9.19-10.61l10.21-21.86c1.68,2.78,5.25,8.88,9.14,16.75c5.43,10.98,18.15,27.71,18.29,27.9
		c11.59,14.28,36.42,35.15,58.03,35.15c0.36,0,0.72-0.01,1.08-0.02c17.43-0.57,25.36-10.5,27.82-14.4c0.76,1.11,1.22,1.81,1.24,1.83
		c0.2,0.31,0.54,0.48,0.89,0.48c0.18,0,0.36-0.04,0.52-0.14c24.32-13.83,33.63-45.66,35.45-52.8c4.23,2.56,10.39,6.69,11.22,8.36
		c0.59,1.18,1.28,1.46,1.8,1.46c0.18,0,0.34-0.03,0.47-0.08c1.4-0.45,1.82-2.9,1.82-4.99c4.93,4.06,16.49,20.63,23.02,30.01
		c3.35,4.81,6,8.6,7.47,10.46c4.91,6.18,19.12,37.94,20.48,40.98l-1.01,18.82c-0.02,0.4,0.19,0.78,0.54,0.98
		c2.68,1.52,4.14,7.59,4.57,10.31c-6.48,0.4-13.6,0.91-21.1,1.45c-43.14,3.08-102.22,7.3-120.12-3.82
		C87.23,412.73,7.02,430,3.62,430.74c-0.57,0.12-0.93,0.69-0.81,1.26c0.12,0.57,0.69,0.93,1.26,0.81
		c0.82-0.18,82.77-17.83,108.44-1.89c9.26,5.75,28.2,7.59,50.56,7.59c22.28,0,47.95-1.83,70.83-3.47
		c19.9-1.42,37.08-2.65,46.71-2.21c27.35,1.24,61.17,1.57,83.55,1.78l8.91,0.09c21.12,0.23,29.29-8.38,29.63-8.74
		c0.4-0.43,0.37-1.1-0.06-1.49c-0.43-0.4-1.1-0.37-1.5,0.06c-0.08,0.08-7.95,8.28-28.05,8.06l-8.91-0.09
		c-14.96-0.15-35.04-0.34-54.87-0.82c0.09-2.08,0.19-4.4,0.31-6.88c0.24-0.08,0.44-0.24,0.57-0.48c1.21-2.21,5.16-8.12,8.92-8.94
		c1.14-0.25,2.16-0.01,3.14,0.72c0.07,0.05,0.15,0.1,0.23,0.13c0.92,0.38,22.98,9.15,63.67,3.83c43.31-5.67,61.45-29.55,63.82-48.37
		C450.01,371.42,450.43,344.79,406.65,337.45z M224.55,348.72c-10.99-15.76-20.49-29.04-24.92-31.42c0.03-1.84,0.46-7.45,4.48-12.79
		c4.52-6.01,9.64-12.78,21.11-21c2.75,3.61,13.85,18.63,15,27.65c0.01,0.08,0.03,0.16,0.06,0.23c0.14,0.38,13.96,37.72,15.74,46.87
		l8.16,35.99c-2.69,1.18-8.71,3.86-11.84,5.46c-2.64-5.9-15.55-34.53-20.4-40.64C230.5,357.27,227.74,353.31,224.55,348.72z
		 M61.12,343.76C61,343.6,48.4,327.02,43.06,316.23c-4.96-10.03-9.43-17.25-10.17-18.44c-0.24-1.34-1.31-9.58,8.21-12.3
		c1.34,0.72,7.48,4.75,14.61,20.87c0.26,0.71,6.72,17.43,33.01,27.39c0.78,0.21,18.5,4.89,27.33-4.13
		c3.74,4.61,8.63,10.27,11.6,12.25c4.77,3.18,7.25,9.01,7.27,9.06c0.05,0.12,0.12,0.23,0.21,0.32c3.5,3.71,7.43,9.06,9.93,12.63
		c-1.45,2.6-8.62,13.61-26.56,14.2C97.42,378.78,72.62,357.92,61.12,343.76z M12.38,330.79c-1.67,0.19-3.4-1.08-5.14-3.77
		c-7.61-11.75-4.43-28.12-4.39-28.28c0.01-0.06,0.02-0.12,0.02-0.19c0.45-19.22,17.18-33.09,19.16-33.53
		c1.3-0.26,4.29,1.01,6.56,2.19c-3.79,2.96-14.46,12.06-17.36,22.92c-3.43,12.87,1.15,35.31,1.35,36.25c0.1,0.5,0.54,0.84,1.04,0.84
		c0.07,0,0.14-0.01,0.22-0.02c0.57-0.12,0.94-0.68,0.82-1.25c-0.05-0.23-4.68-22.9-1.38-35.28c2.97-11.15,15.21-20.75,17.5-22.47
		c4.47,1.19,8.32,9.97,10.09,15.15c-11.15,2.98-10.36,12.65-10.07,14.68l-10.94,23.43C18.96,323.93,15.87,330.4,12.38,330.79z
		 M108.33,328.05c0.06-1.69,1.88-3.35,3.13-4.25c0.66,0.87,1.81,2.37,3.24,4.15c-1.28,1.36-2.81,2.38-4.48,3.14
		C108.93,330.1,108.29,329.08,108.33,328.05z M136.8,349.94c-0.49-1.09-3.1-6.58-7.97-9.83c-4.31-2.87-13.52-14.78-15.76-17.72
		c11.33-13.82,17.82-39.53,19.52-46.99c5.97,6.9,14.01,14.06,24.85,21.04l25.16,17.5c-1.21,5.02-9.84,37.44-33.76,51.69
		C147.1,363.05,141.66,355.13,136.8,349.94z M122.39,202.08c2.87-10.2,12.17-24.43,14.15-27.41c3.48,0.51,6.44,0.82,7.69,0.94
		c0.03,0,0.07,0.01,0.1,0.01c0.54,0,1-0.41,1.05-0.96c0.06-0.58-0.37-1.1-0.95-1.16c-3.11-0.3-7.02-0.8-10.78-1.45
		c13.82-20.81,11.09-43.97,9.88-50.76c0.43,0.19,0.84,0.37,1.19,0.54c3.52,1.34,7.85,4.83,11.33,7.63c1.74,1.4,3.23,2.61,4.37,3.34
		c3.38,2.17,13.73,6.86,14.17,7.06c0.08,0.03,0.16,0.06,0.24,0.08c0.08,0.01,0.18,0.03,0.27,0.05c0.4,1.76,1.83,6.01,6.52,9.21
		c3.76,2.56,8.67,3.84,14.67,3.84c4.88,0,10.48-0.85,16.77-2.54c0.04-0.01,0.08-0.04,0.12-0.06c1.38,0.07,2.75,0.1,4.07,0.1
		c5.25,0,9.65-0.42,10.02-0.46c2.06-0.09,5.67-0.22,9.24-0.31c-2.32,3.55-6.3,12.94-7.68,36.37c-6.83-0.84-12.88,0.14-13.23,0.19
		c-0.5,0.08-0.87,0.52-0.88,1.03l-1.01,64.84c-3.18-0.25-4.93-1.6-5.02-1.66c-0.71-0.46-1.52-0.93-2.43-1.4c0,0,0,0,0,0c0,0,0,0,0,0
		c-12.96-6.65-44.28-12.67-62.85-14.26c-17.33-1.48-30.67-4.87-34.55-5.95c3.6-8.16,13.34-26.43,13.45-26.62
		C122.33,202.22,122.36,202.16,122.39,202.08z M135.27,121.5c0.27,2.03,0.62,5.72,0.42,10.24c-1.36-0.59-3.55-1.51-6-2.39
		C130.94,125.99,133.3,123.2,135.27,121.5z M126.54,158.98c-2.75,3.61-5.46,5.9-7.22,7.37c-0.02,0.02-0.04,0.03-0.05,0.04
		c-0.36-1.11-0.22-4.63,0.33-8.27C121.78,158.02,124.22,158.18,126.54,158.98z M120.63,168.02c0.02-0.02,0.04-0.03,0.06-0.04
		c3.58-3,11.02-9.24,14.98-22.77c3.39-11.58,2.02-22.24,1.54-25.11c0.41-0.23,0.76-0.37,0.99-0.39c0.66-0.05,1.8,0.24,3,0.66
		c0.84,3.93,5.38,29.13-9.82,51.27C126.21,170.64,121.74,169.38,120.63,168.02z M180.61,107.93c0,0-0.01,0-0.01,0
		c-0.77,0.01-2.95-0.19-3.96-1.22c-0.38-0.39-0.56-0.85-0.54-1.45c0.06-2.87,0.81-3.03,2.82-3.45l0.22-0.05
		c1.14-0.25,1.62,1.03,1.7,1.29c0.02,0.06,0.06,0.1,0.09,0.16c-0.07,0.12-0.14,0.22-0.21,0.25c-0.43,0.18-0.69,0.62-0.65,1.09
		c0.05,0.47,0.4,0.84,0.86,0.93c0.17,0.03,0.38,0.05,0.61,0.05c0.77,0,1.83-0.23,2.58-1.06c0.78-0.86,5.64-7.48,7.07-9.43
		c2.96,0.08,10.21,0.19,11.97-0.73c0.3-0.16,0.62-0.36,0.95-0.58c1.6-1.06,2.98-1.97,5.63,1.56c1.3,1.73,3.27,2.52,5.59,2.27
		c1.04,18.86-8.53,34.48-13.18,36.4c-4.7,1.94-11.01,0.57-12.02,0.33c-1.19-0.72-10.31-6.44-10.63-12.24
		c-0.3-5.26,0.08-9.99,0.26-11.75l1.1-0.26c0.53-0.12,0.88-0.62,0.81-1.16C181.59,108.33,181.14,107.93,180.61,107.93z
		 M179.56,92.32c2.04-2.55,0.81-6.45,0.31-7.74c3.05-7.77,8.36-10.71,12.35-10.85c3.9-0.14,6.21,5.02,6.23,5.07
		c0.2,0.46,0.69,0.71,1.18,0.61c1.8-0.36,5.88-2.5,6.33-2.74c0.07-0.04,0.13-0.08,0.19-0.13c1.79-1.52,5.01-1.57,7.14-0.86
		c1.28,0.43,2.14,1.11,2.3,1.81c0.83,3.72,4.54,4.37,4.7,4.39c0.15,0.02,0.3,0.02,0.44-0.02c1.36-0.36,2.4-0.25,3.09,0.32
		c1.22,1.02,1.35,3.42,1.29,4.4c-1.45,4.17-5.86,8.19-9.7,8.81c-1.74,0.28-3.08-0.19-3.99-1.4c-3.85-5.13-6.76-3.21-8.5-2.05
		c-0.27,0.18-0.52,0.35-0.76,0.47c-0.95,0.5-6.7,0.63-11.48,0.48c-0.35-0.01-0.68,0.15-0.89,0.43c-2.04,2.79-4.99,6.8-6.45,8.69
		c-0.03-0.15-0.09-0.3-0.18-0.42c-0.07-0.1-1.8-2.51-4.33-4.77c-1.63-1.46-1.46-1.8,0.62-4.39L179.56,92.32z M189.19,136.17
		c0.08,0.05,0.17,0.08,0.26,0.11c0.19,0.05,3.12,0.8,6.68,0.8c0.98,0,2-0.07,3.04-0.21c-0.89,1.36-1.74,3.14-1.74,5.07
		c0,1.91,0.8,3.62,2.39,5.08c1.48,1.36,4.03,2.22,7,2.74c-10.46,2.03-18.68,1.26-23.95-2.3c-3.57-2.41-4.97-5.49-5.5-7.22
		c0.27,0.02,0.54,0.03,0.81,0.03c0.98,0,1.92-0.13,2.48-0.52c0.96-0.66,3.59-4.08,5.01-5.98
		C187.54,135.2,189.02,136.08,189.19,136.17z M271.95,99.75c-0.01-0.04-0.02-0.08-0.03-0.12c-0.11-0.35-2.71-8.55-5.25-11.2
		c-1.4-1.47-0.83-3.36-0.48-4.15c0.36-0.05,0.95-0.04,1.56,0.34c0.93,0.6,2.13,2.25,2.47,6.68c0.04,0.52,0.47,0.93,0.99,0.98
		c0.53,0.03,1-0.33,1.11-0.84c0.1-0.46,2.19-10.88-5.74-17.06c0.16-1.08,0.69-3.54,2.37-5.01c1.06-0.91,2.37-1.29,4.03-1.17h0.17
		c0.46-0.03,11.17-0.68,12.94,12.65c0.01,0.1,0.75,9.54-1.8,23.43c-2.59,14.11-4.87,39.94-4.89,40.15
		c-0.03,0.2-3.01,20.85-9.32,32.8c-5.92,11.22-13.68,8.38-14,8.26c-0.04-0.02-0.1-0.03-0.14-0.04l-8.02-1.98l-2.07-0.51l-3.38-0.84
		c-0.17-9.56,0.14-20.6,1.45-27.02c0.79,0.39,1.9,0.79,3.21,0.91c0.66,0.06,1.38,0.05,2.13-0.07c0.03,0,0.06,0,0.1-0.01
		c2.87-0.5,5.42-2.48,7.57-5.87c5.73-9.07,9.59-23.08,9.97-24.52C267.57,124.14,273.97,110.42,271.95,99.75z M239.22,149.7
		c1.6-0.03,3.09-0.04,4.34-0.03c-0.49,0.84-0.91,1.96-1.26,3.28c-0.01,0.01-0.01,0.01-0.01,0.02c-0.07,0.15-0.12,0.31-0.12,0.47
		v0.01c-2.44,9.81-1.83,29.64-1.63,34.69c-0.6,0.13-1.19,0.17-1.7,0.17c-1.19,0-1.97-0.21-2-0.21c-1.92-0.76-3.92-1.29-5.9-1.64
		C232.6,157.89,238.1,150.84,239.22,149.7z M247.23,153.88c-1.22-0.14-2.21-0.58-2.8-0.91c0.39-1.35,0.87-2.33,1.41-2.86
		c0.3-0.3,0.5-0.29,0.65-0.28h0.93L247.23,153.88z M242.62,187.33c-0.04-0.97-0.07-1.98-0.1-3.02l2.45,0.6
		C244.36,185.97,243.58,186.77,242.62,187.33z M117.93,233.25c6.37,1.35,15.15,2.85,25.28,3.72c20.72,1.77,50.15,7.93,61.96,13.97
		c1.12,1.15,12.23,12.67,17.1,18.89c-9.56,1.76-23.74,18.99-24.43,19.85c-7.04,10.28-9.27,21.05-9.9,25.15
		c-1.46-0.92-2.65-1.64-3.19-1.96l-26.15-18.19C117.29,268.07,117.43,239.11,117.93,233.25z M226.94,282.27
		c0.01-0.01,0.02-0.01,0.03-0.02c1.5-1.38,3.34-2.4,4.01-2.26c0.12,0.09,0.2,0.16,0.28,0.21c0.24,0.45,0.6,2-0.79,6.89
		C228.96,284.94,227.69,283.24,226.94,282.27z M199.54,290.95c4.43-5.41,17.18-19.13,24.18-19.14c0.02,0.04,0.05,0.08,0.08,0.11
		c1.89,2.9,3.8,5,5.23,6.38c-1.47,0.63-2.83,1.79-3.45,2.35c-0.27,0.19-0.52,0.37-0.79,0.56c-0.01,0.01-0.02,0.01-0.03,0.02
		c-0.01,0-0.01,0.01-0.01,0.02c-12.27,8.65-17.63,15.73-22.34,22c-5.32,7.06-4.92,14.39-4.88,14.92c0,0.01,0,0.01,0,0.02
		c0,0,0,0.01,0,0.01c0.27,1.62,0.13,3.2-0.11,4.11c-1.08-1.68-4.47-4.16-7.51-6.18C190.29,313.3,192.22,301.66,199.54,290.95z
		 M292.17,407.22c-6.46,4.35-32.84,13.52-37.96,15.28c-0.64-1.13-1.4-2.12-2.31-2.81l0.96-17.87c3.36-1.77,11.78-5.46,13.28-6.12
		c12.27,0.85,30.78,2.54,36.23,3.98C300.57,401.16,297.03,403.95,292.17,407.22z M293.35,408.98c5.58-3.76,9.39-6.84,10.95-8.15
		c0.39,0.67,0.58,1.67,0.56,2.94c-0.05,3.27-1.57,7.06-2.77,7.88c-0.04,0.03-0.07,0.05-0.11,0.08c-0.09,0.08-9.34,8.22-17.04,10.6
		l-2.53,0.78c-7.97,2.47-20.89,6.46-25.58,7.43c-0.25-1.4-0.77-3.82-1.71-6.11C260.9,422.45,286.69,413.48,293.35,408.98z
		 M86.02,198.76c-4.6,2.71-4.93,17.59-4.91,22.67c-7.27-2.68-8.4-7.07-8.44-7.26c-0.01-0.05-0.02-0.09-0.04-0.14
		c-3.95-10.81,2.06-15.04,2.31-15.22c0.3-0.2,0.48-0.53,0.48-0.88c0-2.97,3.33-19.57,5.08-27.9c5.97-23.89,16.99-37.25,24.71-39.55
		c7.27-2.17,12.87-1.46,12.93-1.46c0.08,0.01,0.16,0.01,0.23,0.01c4.73-0.42,14.54,3.79,17.19,4.97c0,0,0,0,0,0c0,0,0,0,0,0
		c-0.27,3.29-0.84,6.92-1.92,10.61c-1.55,5.28-3.65,9.38-5.83,12.59c-3.01-1.17-6.19-1.37-8.9-1.18c-0.01,0-0.02-0.01-0.03-0.01
		c-0.19-0.03-0.36,0-0.53,0.06c-3.44,0.31-6,1.17-6.21,1.24c-20.44,7.71-22.63,36.81-22.71,38.05c-0.02,0.34,0.12,0.67,0.38,0.89
		c1.07,0.89,3.89,3.69,4.05,5.89c0.04,0.61-0.12,1.11-0.52,1.55c-0.31,0.34-0.6,0.53-0.74,0.49c-0.71-0.19-1.69-2.55-2.09-4.53
		c-0.06-0.3-0.24-0.55-0.5-0.71C88.21,197.9,86.85,198.27,86.02,198.76z M447.89,371.52c-2.27,17.98-19.87,40.93-61.99,46.44
		c-38.59,5.05-60.7-2.97-62.48-3.65c-0.48-0.35-0.98-0.61-1.49-0.8c3.46-1.18,6.81-2.01,10.36-2.89c4.22-1.04,8.61-2.13,13.61-3.88
		c0.98,0.41,3.36,1.06,8.59,1.06c5.65,0,14.63-0.75,28.79-3.35c0.58-0.11,0.96-0.66,0.85-1.23c-0.11-0.57-0.65-0.96-1.23-0.85
		c-20.06,3.68-29.36,3.59-33.44,3.06c5.17-2.03,11.02-4.84,17.97-8.99c0.46,0.02,1.3,0.04,2.46,0.04c6.94,0,25.08-0.88,37.87-9.41
		c0.49-0.32,0.62-0.98,0.29-1.47c-0.33-0.49-0.98-0.62-1.47-0.29c-11.62,7.75-28.37,8.91-35.71,9.03
		c8.04-5.06,17.49-11.86,28.9-21.18c0.45-0.37,0.52-1.04,0.15-1.49c-0.37-0.45-1.04-0.52-1.49-0.15
		c-6.72,5.49-12.75,10.09-18.21,13.97c3.3-5.04,7.67-12.61,6.86-16.33c-0.12-0.57-0.69-0.93-1.26-0.81
		c-0.57,0.12-0.94,0.69-0.81,1.26c0.75,3.44-5.55,13.62-9.75,19.32c-3.02,2.04-5.84,3.84-8.51,5.44c-0.13,0.05-0.24,0.11-0.34,0.2
		c-5.41,3.23-10.14,5.64-14.39,7.5c0-0.06-0.01-0.12-0.01-0.2c0.06-1.44,1.5-5.96,13.61-16.71c0.44-0.39,0.48-1.06,0.09-1.5
		c-0.39-0.44-1.06-0.48-1.5-0.09c-9.82,8.72-14.64,15.02-14.31,18.74c0.02,0.22,0.06,0.42,0.11,0.6
		c-7.03,2.89-12.78,4.31-18.23,5.66c-3.61,0.89-7.02,1.73-10.58,2.95c-5.65,1.94-9.14,4.65-11.26,7.47
		c0.11-2.06,0.24-4.17,0.37-6.32c0-0.07,0.01-0.13,0.01-0.2c0.03,0.02,0.07,0.04,0.1,0.05c0.03,0.01,0.06,0.03,0.09,0.05
		c0.12,0.04,0.24,0.06,0.36,0.06c0.26,0,0.51-0.09,0.7-0.27c0.11-0.1,11.55-10.18,44.71-32.05c1.56-1.03,2.99-2.24,4.25-3.59
		c5.06-5.45,19.17-21.16,27.16-34.94c3.5-1.99,14.54-2.3,18.68-2.24C448.16,346.59,447.91,370.6,447.89,371.52z M314.52,375.52
		c3.81-1.7,33.56-15.89,44.41-47.12c0.19-0.55-0.1-1.16-0.65-1.35c-0.55-0.19-1.16,0.1-1.35,0.65
		c-9.79,28.14-35.38,42.09-42.03,45.3c0.55-7.17,1.35-16.5,2.26-25.65c4.26-2.02,32.02-16.36,47.14-53.26
		c0.22-0.54-0.04-1.16-0.58-1.38c-0.54-0.22-1.16,0.04-1.38,0.58c-13.84,33.76-38.39,48.22-44.93,51.57c0.2-1.94,0.4-3.86,0.61-5.73
		c0.24-0.32,0.29-0.72,0.12-1.08c0.88-7.89,1.83-14.98,2.74-19.52c3.75-2.87,36.92-28.82,44.59-53.44c0.17-0.56-0.14-1.15-0.7-1.33
		c-0.56-0.17-1.15,0.14-1.33,0.7c-6.58,21.14-33.54,44.1-41.76,50.72c0.15-0.5,0.31-0.92,0.46-1.22c0.04-0.08,0.07-0.16,0.09-0.25
		c0.11-0.51,11.01-51.63,27.2-64.19c0.46-0.36,0.55-1.02,0.19-1.49c-0.36-0.46-1.03-0.55-1.49-0.19
		c-13.47,10.45-23.04,44.82-26.53,59.14c-2.6-11.55-8.21-43.49,5.86-56.1c0.44-0.39,0.47-1.06,0.08-1.5
		c-0.39-0.44-1.06-0.47-1.5-0.08c-17.7,15.85-6.65,58.1-5.52,62.24c-0.18,0.78-0.29,1.33-0.35,1.6c-0.42,0.91-0.85,2.49-1.27,4.55
		c-0.01,0.04-0.02,0.07-0.02,0.11c-0.9,4.36-1.79,10.86-2.61,17.92c-5.92-7.36-24.84-33.24-17.36-54.57
		c0.19-0.55-0.1-1.16-0.65-1.35c-0.55-0.19-1.16,0.1-1.35,0.65c-8.66,24.67,15.27,53.84,19.03,58.21c-0.96,8.7-1.81,17.9-2.4,24.83
		c-7.31-6.81-37.37-36.35-32.54-57.24c0.13-0.57-0.22-1.14-0.79-1.27c-0.57-0.13-1.14,0.22-1.27,0.79
		c-5.51,23.82,29.93,56.42,34.38,60.39c-0.36,4.33-0.6,7.39-0.66,8.27c-1.5,3.46-2.72,14.58-3.63,26.11
		c-6.82-20.02-22.76-48.41-31.12-61.06c-9.51-14.38-14.59-44.29-12.77-61.43c1.74-16.48,6.34-27.46,28.97-49.02
		c21.72-20.69,52.89-24.13,53.2-24.16c0.05-0.01,0.1-0.01,0.14-0.02c3.49-0.86,6.58-1.23,9.33-1.23c12.48,0,18.01,7.69,21.9,13.11
		c1,1.39,1.86,2.59,2.72,3.49c4.3,4.51,12.85,35.65,15.39,49.64c2.33,12.84,0.73,33.78-0.01,40.11c-0.88,7.48-6.01,19.8-6.06,19.93
		c-0.02,0.04-0.03,0.09-0.05,0.13c-0.85,3.11-2.49,6.65-4.61,10.35c0,0,0,0.01,0,0.01c-7.79,13.6-22.04,29.45-27.1,34.9
		c-1.14,1.23-2.44,2.33-3.86,3.26c-26.88,17.73-39.57,27.76-43.53,31.03c-0.23-1.11-0.51-2.28-0.84-3.49
		C311.7,392.49,313.01,379.33,314.52,375.52z"/>
	<path class="st11" d="M208.01,111.11l2.39-2.84l-0.23,3.88c-0.03,0.58,0.41,1.09,1,1.12c0.02,0,0.04,0,0.06,0
		c0.56,0,1.02-0.43,1.06-1l0.26-4.37c0.05-0.81-0.4-1.56-1.15-1.9c-0.75-0.34-1.6-0.18-2.24,0.46l-2.77,3.27
		c-0.38,0.45-0.32,1.12,0.13,1.49C206.97,111.61,207.64,111.55,208.01,111.11z"/>
	<path class="st11" d="M201.09,119.64c0.48,0.17,1.13,0.29,1.84,0.29c1.51,0,3.29-0.57,4.31-2.6c0.13-0.26,0.15-0.55,0.05-0.82
		c-1.41-4.03-2.21-9.36-2.22-9.41c-0.09-0.58-0.62-0.98-1.2-0.89c-0.58,0.09-0.98,0.63-0.89,1.2c0.03,0.22,0.78,5.2,2.16,9.34
		c-1.09,1.59-3.12,0.97-3.35,0.89c-0.55-0.19-1.16,0.1-1.35,0.65C200.25,118.85,200.54,119.45,201.09,119.64z"/>
	<path class="st11" d="M188.88,126.85c1.59,1.36,3.88,2.08,6.5,2.08c0.96,0,1.96-0.09,2.99-0.29c0.58-0.11,0.95-0.66,0.85-1.24
		c-0.11-0.57-0.66-0.96-1.24-0.85c-3.18,0.59-6.07,0.1-7.72-1.32c-0.79-0.67-1.31-1.55-1.57-2.63c5.03,2.38,11.91,1.16,12.23,1.09
		c0.58-0.11,0.96-0.66,0.85-1.23c-0.11-0.58-0.65-0.96-1.23-0.85c-0.08,0.02-8.22,1.46-12.44-1.84c-0.32-0.25-0.74-0.29-1.1-0.12
		c-0.36,0.17-0.6,0.53-0.61,0.93C186.32,123.22,187.18,125.39,188.88,126.85z"/>
	<path class="st11" d="M190.91,111.2c0.33,0,0.66-0.16,0.87-0.45l3.75-5.34c0.02-0.03,0.05-0.07,0.14-0.04
		c0.08,0.03,0.08,0.08,0.09,0.08c0,0,0,0,0,0l0.06,4.71c0.01,0.59,0.53,1.05,1.07,1.05c0.59-0.01,1.05-0.49,1.05-1.07l-0.06-4.75
		c-0.04-0.95-0.66-1.76-1.57-2.04c-0.91-0.28-1.88,0.02-2.48,0.82l-3.77,5.37c-0.34,0.48-0.22,1.14,0.26,1.48
		C190.49,111.13,190.7,111.2,190.91,111.2z"/>
</g>
</svg>
