<?xml version="1.0" encoding="utf-8"?>
<!-- Generator: Adobe Illustrator 27.1.0, SVG Export Plug-In . SVG Version: 6.00 Build 0)  -->
<svg version="1.1" id="Capa_1" xmlns="http://www.w3.org/2000/svg" xmlns:xlink="http://www.w3.org/1999/xlink" x="0px" y="0px"
	 width="226.45px" height="48px" viewBox="0 0 226.45 48" style="enable-background:new 0 0 226.45 48;" xml:space="preserve">
<style type="text/css">
	.st0{fill:none;}
	.st1{fill:#FFFFFF;}
	.st2{fill:#F2B705;}
	.st3{fill:#040423;}
	.st4{fill:#8C1F33;}
	.st5{fill:#5BA566;}
	.st6{fill:#F2E3CC;}
	.st7{fill:#F15A24;}
	.st8{fill:#400101;}
	.st9{fill:#FCFCFC;}
	.st10{fill:#122B05;}
	.st11{fill:#472FAD;}
	.st12{fill:#A64F03;}
	.st13{fill:#D98E04;}
	.st14{fill:#F2F2F2;}
	.st15{fill:#2FD812;}
	.st16{fill:#AA8D30;}
	.st17{fill:#B0EAB7;}
	.st18{fill:#111147;}
	.st19{fill:none;stroke:#472FAD;stroke-width:0;stroke-linecap:round;stroke-linejoin:round;}
	.st20{fill:#F2B705;stroke:#472FAD;stroke-miterlimit:10;}
	.st21{fill:#231A56;}
	.st22{fill:#EA0070;}
	.st23{fill:#158035;}
	.st24{fill:#F9B331;}
	.st25{opacity:0.4;}
	.st26{fill:#0F0E0D;}
	.st27{fill:#E0245E;}
	.st28{fill:#050535;}
	.st29{fill:#F2EBDF;}
</style>
<g>
	<path class="st8" d="M12.25,0c5.75,0,8.63,1.19,8.63,3.57c0,0.65-0.15,1.17-0.44,1.58C20.14,5.55,19.58,6,18.75,6.5
		c-0.72,0.44-1.18,1.02-1.37,1.74s-0.29,2.18-0.29,4.37c0,1.29,0.24,2.08,0.72,2.38c0.28,0.18,0.7,0.29,1.26,0.33
		c0.56,0.04,1.88,0.06,3.97,0.06c1.9,0,3.08-0.1,3.54-0.3c0.46-0.2,0.69-0.71,0.69-1.52c0-2.43-0.11-4.13-0.33-5.09
		c-0.22-0.96-0.65-1.61-1.3-1.96c-0.81-0.46-1.35-0.85-1.6-1.18C23.77,5,23.64,4.57,23.64,4.04c0-0.76,0.29-1.44,0.86-2.06
		c0.57-0.62,1.32-1.04,2.24-1.26c1.92-0.46,4.32-0.69,7.22-0.69c3.39,0,5.89,0.31,7.51,0.93c1.61,0.62,2.42,1.58,2.42,2.89
		c0,1.11-0.57,1.94-1.71,2.49c-0.72,0.33-1.19,0.65-1.41,0.95c-0.22,0.3-0.4,0.87-0.53,1.7c-0.07,0.46-0.17,2.51-0.28,6.14
		c-0.11,3.63-0.17,6.52-0.17,8.65c0,3.74,0.14,6.12,0.41,7.13c0.15,0.55,0.31,0.92,0.5,1.11c0.18,0.18,0.76,0.55,1.74,1.11
		c0.7,0.39,1.05,0.98,1.05,1.77c0,1.4-0.83,2.42-2.5,3.06c-1.67,0.64-4.37,0.95-8.12,0.95c-3.28,0-5.71-0.32-7.27-0.97
		c-1.42-0.59-2.13-1.5-2.13-2.74c0-1.05,0.54-1.87,1.63-2.46c0.53-0.29,0.9-0.59,1.09-0.88c0.19-0.29,0.38-0.84,0.57-1.63
		c0.33-1.55,0.5-3.45,0.5-5.7c0-1.16-0.17-1.88-0.51-2.16c-0.34-0.28-1.23-0.41-2.67-0.41c-3.3,0-5.4,0.18-6.3,0.55
		c-0.37,0.15-0.6,0.58-0.69,1.3c-0.11,0.88-0.17,1.97-0.17,3.26c0,2.1,0.29,3.61,0.88,4.53c0.2,0.29,0.68,0.67,1.44,1.13
		c0.77,0.44,1.16,1.17,1.16,2.18c0,1.29-0.89,2.28-2.68,2.96c-1.79,0.68-4.34,1.02-7.66,1.02c-3.02,0-5.49-0.31-7.41-0.94
		c-0.83-0.28-1.48-0.67-1.95-1.18C0.24,36.28,0,35.72,0,35.12s0.15-1.08,0.44-1.41c0.29-0.33,0.94-0.76,1.94-1.27
		c0.52-0.26,0.88-0.59,1.09-1c0.21-0.41,0.37-1.09,0.48-2.05c0.28-2.16,0.41-4.98,0.41-8.46c0-0.65-0.01-1.41-0.03-2.29
		c-0.07-4.42-0.11-6.95-0.11-7.58c0.02-1.59-0.12-2.63-0.4-3.14C3.54,7.41,2.79,6.86,1.58,6.25C0.76,5.86,0.36,5.28,0.36,4.51
		c0-1.86,1.81-3.15,5.42-3.87C7.88,0.21,10.04,0,12.25,0z"/>
	<path class="st12" d="M68.6,17.54l-9.19,9.19c-0.4,0.4-0.43,0.78-0.08,1.13c0.85,0.85,2.11,1.19,3.77,1.02
		c1.67-0.17,3.03-0.78,4.09-1.84c0.63-0.63,1.2-1.44,1.72-2.44c0.52-1,0.85-1.93,1-2.78c0.13-0.76,0.33-1.26,0.59-1.53
		c0.34-0.34,0.88-0.46,1.62-0.37c0.74,0.09,1.34,0.36,1.78,0.8c0.94,0.94,1.26,2.43,0.96,4.48c-0.52,3.62-2.14,6.79-4.85,9.5
		c-2.74,2.74-5.83,4.24-9.27,4.5c-1.68,0.12-3.37-0.08-5.06-0.61c-2.24-0.7-4.18-1.87-5.81-3.5c-2.19-2.19-3.49-4.82-3.91-7.9
		c-0.37-2.66-0.03-5.25,1-7.76c0.77-1.89,1.93-3.61,3.48-5.16c2.48-2.48,5.29-3.88,8.43-4.2c1.58-0.17,3.11-0.04,4.61,0.39
		c1.71,0.48,3.08,1.24,4.13,2.29c0.85,0.85,1.37,1.72,1.55,2.61C69.35,16.26,69.16,16.98,68.6,17.54z M56.27,22.57l1.97-1.97
		c0.83-0.83,0.87-1.64,0.1-2.4c-0.7-0.7-1.48-1.07-2.33-1.11c-0.85-0.04-1.6,0.27-2.25,0.92c-0.73,0.73-1.02,1.59-0.86,2.58
		c0.14,0.93,0.49,1.66,1.04,2.21c0.39,0.39,0.76,0.57,1.1,0.54C55.39,23.29,55.8,23.04,56.27,22.57z"/>
	<path class="st12" d="M81.28,14.37c2.27-2.27,4.76-3.62,7.49-4.05c1.45-0.22,2.73-0.1,3.85,0.35c1.12,0.46,2.37,1.38,3.75,2.76
		l2.87,2.95c2.02,2.02,3.47,3.19,4.36,3.5c0.43,0.14,0.75,0.19,0.96,0.14c0.21-0.05,0.55-0.25,1.04-0.61
		c0.48-0.35,0.96-0.29,1.45,0.2c0.63,0.63,1.03,1.53,1.2,2.71c0.18,1.18,0.09,2.4-0.24,3.65c-0.4,1.55-1.14,2.86-2.21,3.93
		c-1.37,1.37-2.92,1.98-4.65,1.84c-0.61-0.07-1.04,0.02-1.27,0.25c-0.26,0.26-0.44,0.77-0.55,1.53c-0.35,2.25-1.36,4.21-3.01,5.87
		c-1.71,1.71-3.45,2.72-5.24,3.05c-1.17,0.21-2.35,0.13-3.53-0.24c-1.18-0.37-2.19-0.98-3.04-1.83c-1.36-1.36-2.01-3.1-1.96-5.24
		c0.07-3.35,1.79-6.73,5.18-10.15c0.76-0.76,1.16-1.31,1.2-1.65c0.05-0.35-0.21-0.79-0.75-1.34c-1.38-1.38-2.53-2.24-3.43-2.57
		c-0.91-0.33-1.68-0.17-2.34,0.48c-0.39,0.39-0.62,0.86-0.69,1.4c-0.07,0.54-0.02,1.35,0.15,2.43c0.49,2.82,0.11,4.86-1.15,6.12
		c-0.64,0.64-1.35,0.97-2.13,1c-0.78,0.03-1.48-0.27-2.09-0.88c-0.63-0.63-1-1.5-1.12-2.63c-0.12-1.13,0.01-2.36,0.4-3.69
		C76.87,20.03,78.71,16.94,81.28,14.37z M91.29,27c-0.57,0.57-0.84,1.31-0.79,2.2c0.05,0.89,0.39,1.67,1.05,2.32
		c0.63,0.63,1.28,0.98,1.96,1.07c0.68,0.08,1.27-0.12,1.77-0.62c1.04-1.04,0.68-2.44-1.08-4.2c-0.72-0.72-1.27-1.12-1.67-1.22
		C92.13,26.45,91.72,26.6,91.29,27z"/>
	<path class="st8" d="M123.62,16.42v8.88c0,3.93,0.06,6.21,0.18,6.86c0.12,0.65,0.58,1.14,1.37,1.49c0.68,0.29,1.14,0.57,1.37,0.83
		c0.23,0.26,0.35,0.63,0.35,1.11c0,0.61-0.22,1.16-0.65,1.66c-0.43,0.5-1.01,0.85-1.73,1.05c-1.33,0.41-3.57,0.61-6.72,0.61
		c-3.56,0-6.06-0.27-7.49-0.8c-0.66-0.24-1.21-0.61-1.63-1.12c-0.42-0.51-0.64-1.04-0.64-1.59c0-0.44,0.11-0.78,0.35-1.02
		c0.23-0.24,0.73-0.53,1.51-0.86c0.72-0.31,1.16-1.17,1.33-2.57c0.29-2.4,0.44-5.81,0.44-10.23c0-4.5-0.13-7.39-0.39-8.68
		c-0.26-1.29-0.9-2.25-1.94-2.88c-0.77-0.44-1.3-0.86-1.59-1.26c-0.29-0.4-0.43-0.88-0.43-1.45c0-0.9,0.43-1.69,1.3-2.36
		c0.87-0.67,2.25-1.29,4.15-1.87c1.27-0.39,2.92-0.76,4.95-1.11c2.03-0.35,3.5-0.53,4.42-0.53c1.46,0,2.18,0.9,2.18,2.71
		c0,0.59-0.09,1.95-0.28,4.06C123.8,10.65,123.66,13.68,123.62,16.42z"/>
	<path class="st10" d="M144.94,18.06v9.35c0,1.11,0.27,2.01,0.81,2.71c0.54,0.7,1.24,1.05,2.09,1.05c0.72,0,1.67-0.33,2.85-1
		c0.28-0.17,0.55-0.25,0.83-0.25c0.44,0,0.85,0.27,1.22,0.8c0.37,0.54,0.55,1.12,0.55,1.74c0,1.14-0.63,2.24-1.88,3.29
		c-2.62,2.23-5.79,3.35-9.51,3.35c-2.95,0-5.32-0.83-7.11-2.5c-1.79-1.67-2.68-3.87-2.68-6.59V17.23c0-0.42-0.05-0.69-0.15-0.79
		c-0.1-0.1-0.36-0.15-0.79-0.15h-2.85c-0.54,0-0.88-0.09-1.02-0.26c-0.15-0.18-0.22-0.58-0.22-1.23v-1.22
		c0.02-0.55,0.23-0.96,0.64-1.22l12.66-7.96c0.31-0.17,0.7-0.25,1.16-0.25h2.24c0.46,0,0.77,0.11,0.93,0.32
		c0.16,0.21,0.24,0.63,0.24,1.26v3.73c0,0.55,0.09,0.91,0.26,1.08c0.18,0.17,0.55,0.25,1.12,0.25h5.12c0.68,0,1.12,0.12,1.33,0.37
		c0.2,0.25,0.3,0.78,0.3,1.59v1.63c0,0.88-0.13,1.5-0.39,1.84c-0.26,0.34-0.73,0.51-1.41,0.51h-5c-0.52,0-0.87,0.09-1.05,0.28
		C145.03,17.19,144.94,17.54,144.94,18.06z"/>
	<path class="st10" d="M170.3,1.96l-0.36,11.59c-0.04,1.38,0.39,2.07,1.27,2.07c0.44,0,0.88-0.3,1.3-0.91
		c1.79-2.6,4.18-3.9,7.16-3.9c2.93,0,5.26,0.89,7,2.68c0.77,0.79,1.32,1.73,1.65,2.82c0.32,1.09,0.5,2.65,0.54,4.67l0.25,9.98
		c0.02,0.87,0.13,1.5,0.35,1.91c0.21,0.41,0.71,0.91,1.48,1.52c0.53,0.42,0.8,0.93,0.8,1.52c0,1.99-3,2.99-9.01,2.99
		c-5.35,0-8.02-0.93-8.02-2.79c0-0.31,0.05-0.55,0.14-0.72s0.41-0.61,0.97-1.33c0.77-1.01,1.16-3.55,1.16-7.6
		c0-2.45-0.23-4.24-0.69-5.36c-0.61-1.53-1.7-2.29-3.26-2.29c-1.12,0-1.95,0.41-2.49,1.22c-0.39,0.59-0.58,1.7-0.58,3.32v5.34
		c0.13,2.36,0.24,3.7,0.33,4.01c0.09,0.31,0.52,0.89,1.27,1.74c0.35,0.39,0.53,0.84,0.53,1.35c0,2.08-2.71,3.12-8.13,3.12
		c-6.34,0-9.51-1.08-9.51-3.24c0-0.5,0.1-0.88,0.3-1.15c0.2-0.27,0.7-0.68,1.49-1.23c0.7-0.5,1.18-1.84,1.45-4.02
		c0.27-2.18,0.4-5.8,0.4-10.85c0-3.96-0.11-6.71-0.33-8.24c-0.07-0.57-0.21-0.99-0.4-1.26c-0.19-0.27-0.56-0.54-1.09-0.82
		c-1.14-0.59-1.71-1.27-1.71-2.05c0-0.92,0.43-1.67,1.3-2.24c0.87-0.57,2.53-1.19,4.98-1.85c3.32-0.92,5.96-1.38,7.94-1.38
		C169.82,0.58,170.33,1.04,170.3,1.96z"/>
	<path class="st28" d="M218.79,24.41l-3.65,10.04c-0.9,2.49-1.81,4.52-2.72,6.1c-0.91,1.58-1.95,2.92-3.11,4.02
		c-2.4,2.29-5.28,3.43-8.65,3.43c-2.73,0-4.94-0.72-6.64-2.16c-1.31-1.11-1.96-2.52-1.96-4.23c0-1.42,0.46-2.61,1.37-3.58
		c0.91-0.97,2.03-1.45,3.36-1.45c1.33,0,2.4,0.44,3.21,1.33c0.39,0.41,0.65,0.76,0.77,1.08c0.13,0.31,0.32,1,0.58,2.07
		c0.2,0.81,0.66,1.22,1.38,1.22c0.57,0,1.05-0.25,1.44-0.75c0.39-0.5,0.58-1.12,0.58-1.85c0-0.87-0.48-2.31-1.44-4.34l-6.66-14.18
		c-0.7-1.47-1.23-2.4-1.58-2.76c-0.35-0.37-1.12-0.82-2.32-1.35c-0.37-0.15-0.69-0.44-0.95-0.87c-0.27-0.43-0.4-0.85-0.4-1.26
		c0-1.64,1.63-2.76,4.89-3.35c2.18-0.39,4.65-0.58,7.44-0.58c1.95,0,3.49,0.2,4.62,0.61c1.51,0.54,2.27,1.45,2.27,2.74
		c0,0.46-0.21,1.01-0.64,1.63c-0.41,0.59-0.61,1.12-0.61,1.58c0,0.44,0.1,0.9,0.29,1.38c0.19,0.48,0.6,1.29,1.23,2.43
		c0.7,1.29,1.32,1.94,1.85,1.94c0.57,0,1.16-0.57,1.77-1.7s0.91-2.23,0.91-3.28c0-0.85-0.23-1.54-0.69-2.07
		c-0.7-0.83-1.05-1.54-1.05-2.13c0-0.94,0.63-1.69,1.88-2.25c1.25-0.56,2.93-0.84,5.03-0.84c3.91,0,5.86,0.94,5.86,2.82
		c0,0.68-0.2,1.23-0.59,1.65s-1.12,0.81-2.17,1.18c-0.88,0.33-1.59,0.88-2.1,1.66C220.77,19.54,219.84,21.58,218.79,24.41z"/>
</g>
</svg>
